<svg xmlns="http://www.w3.org/2000/svg" viewBox="0 0 115.41 89.83"><defs><style>.cls-1{fill:#231f20;}</style></defs><title>Asset 23Decorative</title><g id="Layer_2" data-name="Layer 2"><g id="Layer_1-2" data-name="Layer 1"><path class="cls-1" d="M107.65,19A43.92,43.92,0,0,0,90.33,4.58C70.8-4.27,55.7,2.43,55.7,2.43,38.17,9,31.42,21.84,28.26,29.81S26,48.73,26,48.73c-3.43-6.2-4.21-18.2-4.21-18.2l.78-.17c.66-.77-1.39-9.85-1.39-9.85a79.22,79.22,0,0,1,4.37,6.75,6.33,6.33,0,0,0,1.55,2.27c1.44-1,2.22-1.6,1.94-3.87s-4.48-3.93-5.53-5.92.94-3.32,1.55-3.71.16-1.21.16-1.21c1.27-2.44.72-3.6.72-3.6a5.22,5.22,0,0,0-3.1-.61A4.72,4.72,0,0,1,20,9.12l-10.79-3A8.85,8.85,0,0,0,6.8,3C5.75,2,3.09,1.76,3.09,1.76c-1.88.89-3.54,6.47-3,9S2.6,12.44,2.6,12.44C5.42,13.49,8,10.94,8,10.94s1.77.28,4.31.89,2.44,2.27,2.16,2.93-.5.78-.17,1.33A5.56,5.56,0,0,1,15,19.35c-.22,1.16-.61.61-.11,1.55a4.21,4.21,0,0,1,.33,2.77c-.17.61-.17.61.39,1.66a5.49,5.49,0,0,1,.11,3A14.71,14.71,0,0,0,16,31c.23.61.89.33.89.33a71.59,71.59,0,0,0,8.46,26.77C32.19,70.63,47.9,78.65,47.9,78.65c.83,2.27,8.41,11.18,8.41,11.18,1.49-.67,3.71-3.6,3.71-3.6l-3.49-4c12.72,4.1,23.24,2.22,32.64-1.43S109.3,68.64,113.4,55.64A40.8,40.8,0,0,0,107.65,19ZM41,34.23s4.43-9.46,13.39-15a34.61,34.61,0,0,1,29.21-2.93A27.46,27.46,0,0,1,98.46,29.48C103.83,39.77,100.07,51,100.07,51s1.21-13.82-8.36-23.67c0,0-6.75-9-21.74-9.85A29.48,29.48,0,0,0,45,31.85a38.18,38.18,0,0,0-4.37,30S34,47.68,41,34.23Zm9.74,39.33s-6.09-9.68-6.31-19a37.08,37.08,0,0,1,5.42-21.68S57.42,22.17,68.7,22.12a26.51,26.51,0,0,1,15.49,4.53C91.71,31.8,94.7,41.31,95.31,47.4S92.65,66.48,83.64,71.68C83.64,71.68,67.32,81.53,50.78,73.56Zm39.61,1.61-7.25,3.1s6.86-4.21,8.24-6.42c0,0,11-8.35,13.83-21.57s-2.87-27.83-12.78-34.47A37.35,37.35,0,0,0,60.85,11.5c-4.59,1.38-13,6.25-16.54,10.23s-7,7.52-10,17.87S34.79,60,34.79,60a39.59,39.59,0,0,1-4.48-15,41,41,0,0,1,7.75-24.12,42.82,42.82,0,0,1,22.34-15A42.41,42.41,0,0,1,86.07,7.79c13,5.53,21.35,14.77,24.12,29.65S107.2,65.65,90.39,75.17Z"/></g></g></svg>