<?xml version="1.0" encoding="utf-8"?>
<!-- Generator: Adobe Illustrator 21.0.0, SVG Export Plug-In . SVG Version: 6.00 Build 0)  -->
<svg version="1.1" id="Layer_1" xmlns="http://www.w3.org/2000/svg" xmlns:xlink="http://www.w3.org/1999/xlink" x="0px" y="0px"
	 viewBox="0 0 1000 800" style="enable-background:new 0 0 1000 800;" xml:space="preserve">
<path d="M466,254.5c0-67.1,0.2-132.1-0.1-197c-0.1-16.5,5-27.1,23.4-28.6c10.2-0.8,20.1-4,30.2-6.3c4.6-1,9.1-2.7,8.2-8.6
	c-0.8-4.9-4.2-8.3-9.3-8.1c-19.2,1-38.9,0.8-56.9,8.1c-15,6.1-18.1,20-18.2,35.2c-0.1,66.9-0.5,133.7-1,200.6c0,6.8,1.8,14-3.3,20.8
	c-13.8-6.5-16.3-19.8-18.2-31.9c-9.5-61-18-122.1-27.1-183.1c-1.8-11.9,3-18.1,14.6-20.3c8.8-1.7,17.5-4.3,26.1-6.7
	c4.5-1.2,9.1-3.2,7.7-9c-1-4-4.7-6.6-8.9-5.8c-16.4,3.1-33.2,5-48.8,10.4c-10.2,3.5-10.9,15.6-9.6,25.3
	c9.6,69.4,19.4,138.7,29.8,208c2.2,14.3,9.3,28,22.9,33.9c12.5,5.4,15,12.7,14.5,24.9c-1.1,23.7,0,47.6-1.2,71.3
	c-1.1,22.9-10.1,43.9-19.6,64.4c-3.4,7.2-7,14.4-4.4,22.1c13.1,38.5,6.2,77.8,5.2,116.8c-1.2,47.6-3.7,95.1-1.3,142.7
	c0.8,14.8,1.3,29.6,7.6,43.4c5,10.9,13.3,17,25.6,17c11.6,0,19.3-6.1,24.3-16c5.7-11.1,6.8-23.2,7.7-35.5c4.8-62.4-0.5-124.7-2-187
	c-0.6-26.4-3.1-52.6,5.5-78.4c1.5-4.6,2.7-12.2,0.2-14.8c-14.3-15-6.5-38.3-20.7-53.2c-2.1-2.2-1.6-7.3-1.6-11.1
	c-0.1-30.9-0.1-61.7-0.1-92.6c0-4.4-1-9.6,3.2-12.6c19.5-13.9,20.2-36.6,25.8-56.5C511.6,182,525.6,127.2,540,72.6
	c8.6-32.6,9.5-33.5,43.4-38.2c11.5-1.6,23-2.8,34.5-4.1c3.9-0.5,8.6-1,7.7-6.1c-0.4-2.3-4.4-5.7-6.8-5.7c-25-0.5-50.3-3.4-74.8,2.8
	c-12.9,3.3-17.6,15.4-20.7,28c-15.5,63-31.4,125.9-47.5,188.7C474.5,243,475.6,249.8,466,254.5z"/>
</svg>
