<svg xmlns="http://www.w3.org/2000/svg" viewBox="0 0 20.87 96.92"><defs><style>.cls-1{fill:#231f20;}</style></defs><title>Asset 1Decorative</title><g id="Layer_2" data-name="Layer 2"><g id="Layer_1-2" data-name="Layer 1"><path class="cls-1" d="M20.15,16.24C18.85,4.76,10.62,0,10.62,0,3,3.18,1,13.35,1,13.35.37,16.6-1,44.53,1.24,45.54S9.1,43.09,9.1,43.09A3.16,3.16,0,0,0,10,45.18L9.75,58H8.6v3L7,61.06a8.16,8.16,0,0,0-.79,5.7c.5,1.23.57,6.21,0,10.18s-.65,17.25-.65,17.25c4.69,6.35,9.31-.36,9.31-.36.57-3.4-.44-17.18-.44-17.18-.57-3,.36-9.67.58-11s-.79-4.7-.79-4.7l-1.81-.14-.14-2.89-1-.14.65-12.2a3.49,3.49,0,0,0,1.66-2.09c5.92,3.75,6.85,1.95,7.21,1.3S20.15,16.24,20.15,16.24ZM9,92.17A1.61,1.61,0,0,1,9,89a1.61,1.61,0,0,1,0,3.18Z"/></g></g></svg>