<?xml version="1.0" encoding="utf-8"?>
<!-- Generator: Adobe Illustrator 21.0.0, SVG Export Plug-In . SVG Version: 6.00 Build 0)  -->
<svg version="1.1" id="Layer_1" xmlns="http://www.w3.org/2000/svg" xmlns:xlink="http://www.w3.org/1999/xlink" x="0px" y="0px"
	 viewBox="0 0 1000 800" style="enable-background:new 0 0 1000 800;" xml:space="preserve">
<g>
	<path d="M579.5,174.3c4.9-5.8,2.3-10.3,1.8-14.6c-3.4-32.3-11-63.8-17.7-95.5c-2.8-13.2-3.8-26.8,1-39.9
		c2.2-6.1,5.1-12.8,12.6-13.3c7.8-0.5,11.1,6.2,13.6,12.1c11.3,26.6,16.6,54.9,24.4,82.6c5.2,18.6,4.8,38.4,12.2,56.6
		c0.8-25.4-4.4-50.2-7.7-75.1c-1.7-12.9-3.2-25.9,0.5-38.7c2-6.9,5.8-13.6,13.6-14.3c8.1-0.8,10.4,7.1,12.7,12.8
		c10.5,26.5,13.9,54.7,18.1,82.6c2.2,14.5,3.7,29.1,7.4,43.7c4.3-11,4.5-22.4,2.7-33.9c-2.1-12.9-3.6-25.7-1.4-38.7
		c1.2-7,3.2-14.6,11.2-16.1c9.2-1.7,11.3,6.8,13.8,12.9c11.5,27.4,12.6,56.9,14.4,85.8c2.1,35.2,2.9,70.5,2.6,105.7
		c-0.5,58,16.6,112.5,31.6,167.5c6.7,24.6,12.2,49.5,17.8,74.4c3.7,16.5-0.6,22-17.9,23.5c-52.2,4.5-104.5,8.9-156.7,13.2
		c-14.7,1.2-19.8-2.8-20-17.7c-0.7-44.5-2.5-89.1-1-133.6c1.2-37-11.4-67.1-36.4-92.9c-21.3-22-44-42.6-62.7-67
		c-8.2-10.7-16.3-21.5-19.6-34.9c-3.4-13.9,4.1-21.7,18.3-19.1c10.1,1.8,17.6,7.9,24.5,15c9.8,9.9,19.1,20.4,31.3,27.4
		c12.8,7.4,20.8,3.1,20.8-11.8c0-22-6-43.1-10.4-64.4c-4.3-20.8-9-41.6-13-62.5c-1.9-10-2.7-20.3-0.3-30.4
		c1.3-5.4,3.6-11.2,9.7-12.5c6.5-1.3,10.2,4,13,8.7c10.9,18.4,19.6,37.9,25.1,58.6C572.9,144.5,575.8,158.8,579.5,174.3z"/>
	<path d="M292.7,410.5c-10.8-33.6-21.3-67.1-28.8-101.5c-2-9-3.1-18.3-3.8-27.5c-0.4-5.6,0.6-11.6,6.5-14.3c6-2.8,10.9,1,15.2,4.5
		c10.3,8.2,14.4,20.3,18.4,32.2c7.8,23.3,15.1,46.7,22.6,70.1c0.8,2.6,1.2,5.5,5.9,8c-3.6-14-6.9-26.7-10.2-39.4
		c-7.4-28.8-12.2-58.1-17-87.4c-0.5-3.2-0.9-6.5-0.8-9.7c0.3-8.5-2.8-19.9,7.6-23.2c11-3.5,17.8,6.1,23.1,14.2
		c12.8,19.6,15,42.6,19.6,64.8c5.1,24.8,13.6,48.6,23.1,72.2c-3.3-23.7-9.1-46.9-10.8-70.8c-1-14-0.9-27.8,1-41.7
		c0.6-4.9,2.4-9.4,7.4-10.9c5-1.5,9.1,1.4,12.4,4.8c9.1,9.3,12.5,21.6,15.9,33.6c9.7,34.4,14.3,70,25.2,104.1
		c2.2,7,4.8,14.2,8.6,20.4c5.7,9.6,12.9,9.7,19.8,0.8c9.4-12.4,14-27.2,19.1-41.6c3.5-9.8,7.6-19,17.5-24.1
		c11.7-6.1,20-2.4,22.5,10.6c3,15-0.5,29.6-3.9,44.1c-5.5,23.5-13.3,46.4-22.4,68.7c-16.8,41.3-17.1,81,5,121.7
		c20.1,37,35.5,76.4,53.1,114.8c5.2,11.3,1.7,18.8-9.6,23c-50.4,18.7-100.9,37.5-151.4,56c-13.9,5.1-19.5,1.9-23.2-12.7
		c-9.5-37.8-17.4-76-22.6-114.6c-7.6-56.3-26.9-108.4-51.2-159.3c-21.6-45.2-42.1-91-50.2-141.1c-1.4-8.8-5.1-20.6,6.4-24.1
		c10.6-3.2,16.3,7.1,20.3,15.5c4.8,10,8.5,20.5,12.2,31C279.9,395.7,283.3,402.1,292.7,410.5z"/>
</g>
</svg>
