<?xml version="1.0" encoding="utf-8"?>
<!-- Generator: Adobe Illustrator 21.0.0, SVG Export Plug-In . SVG Version: 6.00 Build 0)  -->
<svg version="1.1" id="Layer_1" xmlns="http://www.w3.org/2000/svg" xmlns:xlink="http://www.w3.org/1999/xlink" x="0px" y="0px"
	 viewBox="0 0 1000 800" style="enable-background:new 0 0 1000 800;" xml:space="preserve">
<path d="M209.2,734.4c-27.4-17.4-43.9-40.4-42-75.4c2-37.2-0.1-74.7,0.9-112c0.4-15.5-4-27.6-13.4-39.6
	C118.9,461.8,84,415.6,48.5,369.9c-11.9-15.3-20.7-32-24.8-50.9c-11.1-50.8,31.9-96.8,83.3-89.7c21.1,2.9,39.4,12.1,55.6,24.9
	c13.7,10.8,26,11.7,41.6,3.2c18-9.7,37.7-17.1,58.2-19.3c14-1.4,19.1-7.3,21.3-21c6.7-42.1,15.7-83.8,30.1-124.1
	c7.8-21.8,17.9-42.3,38-55.6c19.4-12.8,36.2-9.5,49.3,9.6c10.5,15.3,16.7,32.4,18.1,51.1c3,39.5,7.1,78.9,8.8,118.5
	c0.8,18.9,9.3,24.5,26.5,26.1c25.9,2.3,51,9.1,74,21.8c25.3,14,31.6,28.8,22.6,56.3c-3.6,11.1-0.9,16.8,9.2,21.7
	c42.4,20.7,84.6,41.9,126.9,63c11.3,5.6,21.9,5.2,32.1-2.7c42.7-33.3,85.4-66.5,128.1-99.7c4.8-3.7,11.3-7.6,8.7-14.5
	c-7.3-19.8,0.1-41.1-7.4-60.9c-2.8-7.4-7-17.4,2.2-22.7c7.5-4.3,14.3,3,20.2,7.4c44.2,32.3,73,77.2,98.7,124.2
	c5.4,9.9,14.4,24.3,2.7,33.4c-10.8,8.5-19.9-5.6-29.4-10.8c-1.3-0.7-2.4-1.9-3.7-2.7c-33.9-20.9-55.8-19.2-85.7,5.8
	c-99.4,83.1-198.8,166.1-298.5,248.9c-13.8,11.5-26.1,22.2-23.9,43.2c5.1,48.5-21.6,76.7-63.4,94.4c-37.2,15.7-76.6,18.8-120.4,21.5
	C302.1,766.6,252.7,762.1,209.2,734.4z M160.7,309.6c-0.2-0.7-0.4-1.5-0.7-2.2c-3.9-9.4,11.4-21.4-2.5-28.9
	c-19.9-10.7-39.2-24.3-63.4-23.6c-24.9,0.7-45,23.2-43.6,49.2c0.7,12.9,3.1,26.1,11,36.7c33,44.6,66.5,88.9,99.8,133.2
	c2.2-0.7,4.4-1.3,6.6-2C162.3,418,174.2,363.4,160.7,309.6z M541.8,535.7c11.3,5.4,22.3-12.2,33-20.2c31.7-23.7,62.6-48.6,94.3-72.4
	c14.4-10.8,17.1-17.7-2.2-26c-34.3-14.7-68.1-30.4-101.7-46.7c-13.5-6.6-18.7-4.8-19.4,11c-1.8,38.8-4.7,77.6-7.3,118.6
	C541.3,510.8,529.4,529.8,541.8,535.7z M396.4,195.6c1.6-38.9,1-77.8-10.7-115.5c-2-6.6-3.2-16.9-11.8-17.6
	c-7.2-0.6-10,8.5-13.3,14.3c-25.1,43.9-33,92.9-41.9,141.6c-1.9,10.1,2.5,14.1,12.3,13.7c8.4-0.3,16.8-0.1,25.1-0.1
	C394.4,234,394.9,234,396.4,195.6z"/>
</svg>
