<?xml version="1.0" encoding="utf-8"?>
<!-- Generator: Adobe Illustrator 21.0.0, SVG Export Plug-In . SVG Version: 6.00 Build 0)  -->
<svg version="1.1" id="Layer_1" xmlns="http://www.w3.org/2000/svg" xmlns:xlink="http://www.w3.org/1999/xlink" x="0px" y="0px"
	 viewBox="0 0 1000 800" style="enable-background:new 0 0 1000 800;" xml:space="preserve">
<path d="M950.9,769.6c-106.2-7.2-208-36.1-309.9-64.2c-144.5-39.9-282.8-96.2-417.8-161.2c-14.4-6.9-15.6-12.5-7.7-25
	c17.6-28.2,32.2-58.5,51.8-85.1c21.6-29.4,17.6-61.1,16.1-93.3c-1-21.7,1.5-41.2-27.8-52.7c-24.6-9.7-43.7-34-64.7-52.5
	c-50.6-44.4-101-88.9-147.2-138C24.4,77,22.2,60.8,37.2,43.9C52.7,26.5,69.9,25,91,42.7C164.9,104.4,233,172.3,294,246.3
	c15.2,18.4,16.1,50.1,18.3,76.7c1.6,18.8,2.2,37.8,2,56.6c-0.2,16.2,6.2,21.1,22,18.2c45.3-8.5,90.8-15.4,136-24.3
	c22.6-4.5,41.6-1.3,62.2,10.4C665.4,458.1,787,544.3,892.7,652c28.1,28.6,55.6,57.8,73.5,94.4c2.9,5.9,8.6,11.2,5.6,18.7
	C969.9,769.6,965.6,770.3,950.9,769.6z"/>
</svg>
