<?xml version="1.0" encoding="utf-8"?>
<!-- Generator: Adobe Illustrator 21.0.0, SVG Export Plug-In . SVG Version: 6.00 Build 0)  -->
<svg version="1.1" id="Layer_1" xmlns="http://www.w3.org/2000/svg" xmlns:xlink="http://www.w3.org/1999/xlink" x="0px" y="0px"
	 viewBox="0 0 1000 800" style="enable-background:new 0 0 1000 800;" xml:space="preserve">
<path d="M319.4,788.4c-31.3,4.2-49.9-11.1-60.9-38.4c-2.1-5.2-4.2-10.4-6.5-15.5c-15.5-33.8-14.5-63.2,12.5-93.5
	c32.6-36.6,60.8-77.2,89.4-117.1c10.8-15.1,19.8-15.7,32.8-4.4c8,6.9,17.5,12,25.4,18.9c12.1,10.5,18,5,23.1-7.1
	c8.6-20.6,18.2-40.9,26.6-61.6c31.3-77.7,80.4-145.8,117.7-220.2c16.9-33.9,34.6-67.3,52.6-100.6c5.3-9.8,1.7-17.9-1.3-26.6
	c-12.4-35.3-7.4-68.4,12.7-99.7c7-10.9,14.7-15.4,27.7-7.9c24.2,13.9,49.1,26.8,74,39.6c13.1,6.7,15.5,15.9,10.9,29.2
	c-12.1,35.1-32.7,61.3-70.6,70.1c-7.9,1.8-13.5,5.8-17.5,12.6c-62.6,106.5-132,209.2-181.5,323.1c-8.7,19.9-16.4,40.3-25,60.3
	c-4.8,11.2-2.4,18.7,9,24.1c11.3,5.2,22.1,11.4,32.8,17.7c9.1,5.3,11.4,12.6,4.5,21.7c-38.5,51.2-75.7,103.5-116,153.2
	C374.3,787.7,345.1,786.5,319.4,788.4z M644.4,78c0.3,27.3,11.2,46.7,28,51.6c16.3,4.8,37.7-5.8,51.7-25.6c1.8-2.5,3.2-5.3,5-7.8
	c6.6-9.2,4.2-15.8-5.5-20.9c-14.8-7.7-29.5-15.6-44.1-23.7c-26.1-14.6-30.1-12.7-34.3,16.9C644.6,72.2,644.5,76,644.4,78z"/>
</svg>
