<?xml version="1.0" encoding="utf-8"?>
<!-- Generator: Adobe Illustrator 21.0.0, SVG Export Plug-In . SVG Version: 6.00 Build 0)  -->
<svg version="1.1" id="Layer_1" xmlns="http://www.w3.org/2000/svg" xmlns:xlink="http://www.w3.org/1999/xlink" x="0px" y="0px"
	 viewBox="0 0 1000 800" style="enable-background:new 0 0 1000 800;" xml:space="preserve">
<path d="M981.4,215.6c-0.6-4.6-5.7-6.4-10.5-6.3c-4,0.1-8,0-11.9,0.2c-40.1,2.3-80.2,4.4-120.3,6.9c-34.8,2.2-69.6,5-104.4,7.5
	c-59.4,4.3-118.9,8.6-178.3,12.9c-36.9,2.7-73.9,5.1-110.8,8.3c-9.3,0.8-14.4-1.2-18.4-10.1c-15.2-33.8-31.3-67.2-46.9-100.8
	c-2.6-5.6-4.6-11.8-10.2-15.2c-14.3-8.6-28.6-17.4-44.6-22.7c-6.7-2.2-13.7-3.4-16.8,4.8c-2.9,7.8-1.7,15,7.9,17.7
	c11.8,3.2,21.8,11.5,34.5,12.6c5.4,0.5,9.2,4.5,11.6,9.8c14.9,32.9,29.7,65.8,45.1,98.5c3.7,7.8,0.9,8.9-6.1,9.3
	c-49.8,2.9-99.6,6-149.3,9.1c-5.9,0.4-10.6-0.9-15.4-5.3c-37.1-34-74.1-68.1-112.1-101.1c-11.6-10.1-20.8-23.9-38.2-27.1
	c-17.8-3.3-35.8-4.9-53.7-7c-7.5-0.9-13.2,1.5-13.9,10.2c-0.7,8.9,3.7,13,12.3,13.5c16.2,0.9,32.2,5.8,48.7,3.2
	c6.6-1,11.8,2.6,16.5,6.9c38.8,34.8,77.6,69.5,116.4,104.2c2.9,2.6,6.5,4.6,2.7,9.6c-7,9.3,0.7,9.4,6.5,8.8
	c8.2-0.8,12.7,2.6,17.3,9.2c6.3,9.2,10.3,19.5,16.3,28.7c15.9,24.5,23,54.8,47.8,73.5c3,2.3,1.6,5.6,1.3,8.6
	c-2.6,26.4-4.5,52.8-4.7,79.3c-0.3,36.7-2.5,73.3-2.5,110c0,34.1,18,58.9,44.2,64.5c25.5,5.5,56.3-11.6,69.1-39.9
	c15-32.9,30.9-65.4,43.3-99.5c3.9-10.8,7.8-22,16.7-32.3c1.6,5.9,2.6,10.1,3.8,14.3c8.5,29.4,19.2,57.9,36.6,83.3
	c15.4,22.5,35,31.4,55.9,25.9c19.6-5.2,35.3-26.5,37.7-50.9c2.7-26.8,5.6-53.6,8.5-80.3c0.4-3.9,0.2-9.2,4-10.6
	c4.1-1.5,8.3,1.9,12,4.2c5.1,3.1,2,6.8,0.6,10.4c-6.5,16.6-9.9,33.8-11.6,51.5c-8.6,91.7,62,180.5,166.9,181
	c63.4,0.2,113.3-29.5,146.2-85.4c44.4-75.6,18.3-179.1-56.5-224.5c-23.8-14.5-49.5-22-77.7-26.5c1.7-2.5,2.4-4.1,3.6-5.2
	c45.5-39.9,90.7-80,136.7-119.3c10.4-8.9,18.7-21.8,34.5-23.3C975.4,220.7,982.3,222.6,981.4,215.6z M443.1,448.6
	c-18.4,28.4-27.6,61-41.2,91.6c-9.8,22-17.6,45.3-33.6,64c-4.7,5.5-9.6,12.4-18.8,8.5c-8.8-3.8-13.6-10.6-15.2-20.1
	c-2.1-12.4,0.6-24.7,0.5-37c-0.5-47.7,1.3-95.4,4.2-143.1c0.7-11.4,1.2-11.3,12.2-10.9c24.8,4.7,52.2,9.4,79.3,15.3
	c9.6,2.1,23.8-0.9,27.3,8.2C459.7,430.3,448.3,440.6,443.1,448.6z M573.1,457c-3,31.5-6,63-9.2,94.6c-0.5,5.2-1.3,11.7-7,13.2
	c-6,1.5-10.3-3.2-13.9-7.9c-20.4-26.5-29.6-57.5-36.6-89.5c-1.8-8.2-2.7-16.5-4-24.8c-1.4-8.9,1.7-12.4,10.9-10
	c17,4.4,34,8.9,51.1,12.6C571.6,446.7,574.6,449.8,573.1,457z M649.2,438.7c-3,4.7-31.1,0.2-32.3-4.9c-1.3-5,1.9-8.4,6.7-9.8
	c15.1-4.3,30.3-8.4,45.4-12.6C663.7,422.4,655.1,429.4,649.2,438.7z M838.5,531.3c0,30.5-24.7,55.3-55.3,55.3S728,561.8,728,531.3
	s24.7-55.3,55.3-55.3S838.5,500.7,838.5,531.3z"/>
</svg>
