<?xml version="1.0" encoding="utf-8"?>
<!-- Generator: Adobe Illustrator 25.3.0, SVG Export Plug-In . SVG Version: 6.00 Build 0)  -->
<svg version="1.1" id="Layer_1" xmlns="http://www.w3.org/2000/svg" xmlns:xlink="http://www.w3.org/1999/xlink" x="0px" y="0px"
	 viewBox="0 0 45.1 110.1" style="enable-background:new 0 0 45.1 110.1;" xml:space="preserve">
<path d="M16,59.5c1.4-7.5,2.9-14,4.9-20.3c1.8-5.6,1.1-10.6-4-14.5c-1.6-1.2-2.8-2.8-3.2-4.9c-0.6-2.6,0.3-4.6,2.4-6.1
	c2.2-1.7,4-0.4,5.8,0.9c2.5,1.8,3.2,4.8,4.9,7.1c2.1-0.6,1.4-2.2,1.3-3.5C27.6,12,29.7,6.9,33.9,2.5c2.6-2.7,5.6-3.4,8.6-0.9
	c2.8,2.4,3.4,5.1,1.4,8.6c-2.1,3.6-5,6.8-8.2,9c-5.4,3.7-6.8,9.3-8.7,15.2c1.6-0.9,3.1-1.9,4.7-2.8c4-2.2,7-1.6,9.4,1.9
	c2.4,3.5,1.6,7.3-2,9.9c-2.7,2-6,2.4-9.1,3c-7.2,1.4-8.1,2.4-9.2,9.6c-1.3,8.2-1.1,16.5-1,26c2.1-2.3,3.4-3.9,4.9-5.2
	c3.2-2.8,6.4-2.1,8.4,1.7c2.1,4,1.3,9.2-2,12.4c-1,1-2.2,1.9-3.4,2.6c-4.7,2.6-7.8,5.9-6.3,11.9c0.4,1.7,1.3,4.6-1.5,4.8
	c-2.4,0.2-2.3-2.4-2.5-4.4c-0.7-6.6-1.3-13.3-1.2-19.9c0-5.5-2.1-9.5-6.5-12.9C4.9,69.5-0.3,66.3,0,59.4c0.1-2.8,0.1-5.5,3.2-6.8
	c3.3-1.4,6-0.5,8.4,1.8C13,55.7,14.1,57.3,16,59.5z M14,71c0.2-4.8-1.3-8.7-4.2-12c-1.3-1.5-2.9-3-5-1.2c-1.7,1.5-1.6,3.4-0.3,5.3
	C7,66.4,10.3,68.6,14,71z M24.9,43.6c4.1-1.1,7.4-1.8,10.5-2.9c1.8-0.6,2.9-2.4,2.1-4.3c-0.9-2.2-3.2-2-4.6-1
	C30,37.3,27,39.4,24.9,43.6z M22.3,92.3c3.5-2.8,7.6-4.3,7.8-9c0.1-1.3,0-3.2-1.4-3.8c-1.7-0.7-2.6,1-3.2,2.2
	C23.9,84.8,21.1,87.5,22.3,92.3z M33.2,15.3c2.9-0.8,4.4-3.2,6.3-5c1.1-1.1,2.4-2.7,0.7-4.2c-1.6-1.3-3.6-0.9-4.8,0.6
	C33.5,9.1,31.9,11.7,33.2,15.3z M18.9,18.7c-0.7,2.6,0.3,3.9,2.6,4.6C21.6,21.4,21.2,20,18.9,18.7z"/>
</svg>
