<?xml version="1.0" encoding="utf-8"?>
<!-- Generator: Adobe Illustrator 25.3.0, SVG Export Plug-In . SVG Version: 6.00 Build 0)  -->
<svg version="1.1" id="Layer_1" xmlns="http://www.w3.org/2000/svg" xmlns:xlink="http://www.w3.org/1999/xlink" x="0px" y="0px"
	 viewBox="0 0 102.6 223.4" style="enable-background:new 0 0 102.6 223.4;" xml:space="preserve">
<path d="M71.2,51.4c6.6-3.3,10.9-8.6,14.6-14.6c1-1.6,0.8-3.1,0.2-4.8c-0.7-1.9,0.3-3.3,2-4.1c1.4-0.6,2.6,0,3.5,0.9
	c1.4,1.4,0.4,2.5-0.2,4c-3.6,9.1-8.6,17.5-17.5,21.8c-8.5,4.1-10.3,12.9-15.8,19c-0.3,0.4-0.4,1.1-0.4,1.6c0,8.7,0,17.4,0.8,26.3
	c4.8-6,12.1-10.1,11.7-19.1c-0.1-2,1.4-3,3.1-3.5c1.3-0.5,2.6-0.3,3.4,1.1c0.8,1.6,0.4,3.2-0.9,4.1c-3.7,2.6-3.8,7.2-6.3,10.7
	c4.9-1.1,9-3.6,11.9-7.6c1.3-1.8,2.1-3.6,4.7-2.9c1.2,0.3,2,1.1,2,2.4c-0.1,2.5-1.7,3.5-4,4c-1.6,0.3-2.4,1.7-3.6,2.6
	c-2.8,2.2-5.6,4.4-9.1,5.5c-10.5,3.1-13,6.4-14,17.4C56,130.5,52,144.5,51.3,159c-0.2,3.5-0.6,6.9,0.2,11.2
	c5.7-5.5,10.1-11.1,14.6-16.7c0.9-1.1,0.9-2.5,0.5-3.8c-2-6.1,1.5-12.2,0.3-18.3c-0.2-1.3,0.7-2.5,2.1-3c1.4-0.6,2.6-0.1,3.6,0.9
	c1,1.1,1,2.4,0.2,3.6c-2.8,4.1-2.9,8.7-2.3,13.5c3.5-6.5,10.9-11,9.7-19.9c-0.2-1.6,0.9-2.9,2.6-3.2c1.4-0.2,2.6,0.2,3.5,1.3
	c1.1,1.5,0.7,2.8-0.5,4c-4.3,4.5-5.5,11-9.3,16c8.4-2.2,15-6.8,19.8-14c0.8-1.3-0.2-2.5-0.2-3.8c0.1-1.6,0.9-2.8,2.6-3.2
	c1.4-0.3,2.6,0,3.5,1.2c0.8,1.2,0.4,2.4-0.3,3.6c-6.3,10.5-14.2,18.8-26.9,21c-1.7,0.3-2.6,1.3-3.4,2.6
	c-4.8,7.4-10.8,13.9-16.9,20.2c-2.8,2.9-3.9,6-3.9,10C51,194.2,51,206,51,217.8c0,1.1,0,2.3-0.2,3.3c-0.2,1.1-0.8,2.2-2.1,2.3
	c-1.3,0.1-2-1-2.2-2.1c-0.3-1.3-0.4-2.6-0.4-3.9c0.4-21.7-0.7-43.4,0.9-65.1c0.5-6.6-1.7-12.9-3.1-19.3c-0.3-1.2-1-2-2.3-2.2
	c-8.2-1.2-13.3-7.1-18.9-12.4c-2.3-2.1-3.8-5.1-7.4-5.6c-1.5-0.2-2-1.5-1.8-3c0.2-1.4,1-2.5,2.3-2.8c1.7-0.5,2.6,0.4,3.6,1.9
	c5.4,8.6,13.4,14.1,21.6,19.3c1.9-1.6,0.8-2.9,0.5-4c-3.1-9.4-7-18.5-11.1-27.6c-0.7-1.6-1.2-3.5-3.7-3.6c-5.3-0.1-8.9-3.4-12.5-6.7
	C8.8,81.7,6.5,74.5,0.8,70c-1.2-1-0.9-2.8,0.2-4.1c0.9-1.1,2-1.7,3.4-1.2c1.5,0.5,2.1,1.5,2.5,3.2C9.5,78.2,17.3,84,25.8,89
	c-1.1-5.4-3.1-10.3-5.9-14.7C16.6,69,15.1,62.5,9.4,58.7c-1.3-0.8-1.1-2.7-0.3-4.1c0.7-1.3,1.8-1.8,3.3-1.7c1.4,0.1,3.2,0.8,3.1,1.9
	c-0.5,4.8,2.8,7.9,4.8,11.6c2,3.8,4.1,7.5,6.7,11.1c0.6-7.3-0.7-14.3-4.1-20.8c-0.9-1.7-2.4-2.9-1-4.9c0.8-1.2,2-1.8,3.4-1.2
	c2,0.7,1.7,2.6,2,4.2c0.6,3.3,1.6,6.5,2.5,9.7c1.7,6,2.6,12,0.9,18.2c-0.3,1.2-0.5,2.7,0,3.8c2.8,7.2,5.9,14.4,9.5,21.5
	c0.5-6.1,1.6-12,0.1-17.9c-0.4-1.8-1-3.2,0.6-4.5c1.1-0.9,2.4-1.1,3.6-0.2c1.5,1.2,0.9,2.7,0.4,4.1c-1.3,3.7-0.5,7.4-0.5,11.1
	c0,2.4,0.6,5-0.1,7.2c-3,9.5,2.2,17.4,4.4,27c2.2-3.5,1.9-6.5,2.5-9.2c0.6-2.7,0.9-5.5,1.1-8.3c1.6-29,1.7-58-5.7-86.4
	c-0.8-2.9-1.5-5.1-5.2-5.3C39,25.8,37.6,23.6,36,22c-3.4-3.4-4.9-8.4-9.1-11.3c-1-0.7-1-1.9-0.3-3c0.6-1,1.5-1.7,2.7-1.6
	c1.5,0.1,2.3,1,2.5,2.5c1,5.8,5.2,9.3,9.1,13.1c0.8,0.8,1.9,1.5,3,0.6c0.9-0.7,0.3-1.8,0-2.6c-1.5-4.9-3.2-9.6-6.1-13.8
	c-0.9-1.3-2.4-2.6-1.2-4.5c0.7-1,1.6-1.6,2.8-1.4c2.2,0.4,1.8,2.3,2.4,3.8c3.4,8.6,7.1,17.1,9.2,26.3c2.1-6.4,2.3-12.6,0.7-18.9
	c-0.5-2.1-1.6-3.8,0.6-5.5c1.2-0.9,2.4-1.2,3.6-0.1c1.9,1.7,0.7,3.3-0.1,5c-1,2-0.1,4,0.1,6c0.8,6.2,1.4,12.3-2.8,17.7
	c-0.7,0.9-1,1.9-0.7,3.1c2.4,9.8,3.4,19.8,5,30.9c3.8-5,6.1-9.5,8.3-14.1c0.4-0.9,0.6-1.8,0.2-2.7c-3.4-6.4-1.6-13.2-1.5-19.8
	c0-1.6,0.8-3.3-0.5-4.8c-1.4-1.7-0.8-3.1,0.6-4.4c0.9-0.9,2-0.8,3.1-0.1c1.5,1.1,1.1,2.5,0.7,4c-1.6,6.2-0.3,12.4,0,18.6
	c3.7-8,5.6-16.4,6.5-25c0.2-1.8,0.1-3.3,1.8-4.2c1.3-0.7,2.6-0.4,3.5,0.8c1.5,1.9-0.2,3-1.1,4.4c-0.4,0.6-0.9,1.3-1,2
	C76.5,32.7,75,42.3,71.2,51.4z"/>
</svg>
