<?xml version="1.0" encoding="utf-8"?>
<!-- Generator: Adobe Illustrator 25.3.0, SVG Export Plug-In . SVG Version: 6.00 Build 0)  -->
<svg version="1.1" id="Layer_1" xmlns="http://www.w3.org/2000/svg" xmlns:xlink="http://www.w3.org/1999/xlink" x="0px" y="0px"
	 viewBox="0 0 76.6 230.2" style="enable-background:new 0 0 76.6 230.2;" xml:space="preserve">
<path d="M36.9,60.9c-1.1-3.3-3.3-5.9-5.2-8.7c-1.6-2.4-3.6-4.1-6.8-4.5c-3.4-0.4-6-2.7-5.5-6.6c0.5-3.6,3.2-4.5,6.4-4.1
	c3.3,0.4,5.4,3.5,5,7.1c-0.5,5.2,4.3,7.3,6.3,11.2c1.1-3.9,0.7-7.2-1.4-10.9c-8.1-14-6.9-28.3,0.1-42.5c1.7-3.4,3.1-1.8,4.3,0.5
	C47.3,16,48.6,30,42.1,44.1c-2.7,6-1.1,11.7-2,17.5c0.4,0.1,0.7,0.2,1.1,0.4c1.6-1.8,3.3-3.5,4.9-5.4c6.1-7.3,14.1-11.4,23.1-13.7
	c1.8-0.5,4.2-1.3,5.5,0.5c1.4,1.8-0.2,3.7-1.2,5.4c-6.4,11.6-15.2,19.8-29.4,19.9c-2.3,0-3.8,0.6-3.8,3.3c0.1,9.2,0,18.3,0.8,27.6
	c1.3-4,2.6-8,3.9-12.1c0.4-1.2,0.3-2.6-0.3-3.6c-2.3-3.6,0.3-6.1,2.2-8.3c2.2-2.5,6.2-2.2,8,0.3c2,2.6,1.2,9.1-2,9.9
	c-8.6,2.1-6.8,9.8-9.2,15.4c5.4-8.5,13.3-13.6,22.1-17.5c2.9-1.3,6.9-4.5,9.2-2c2.6,2.9-0.9,6.6-2.5,9.6
	c-5.8,10.9-14.9,18.2-26.3,22.4c-4.4,1.6-5.4,4.2-5.3,8.4c0.2,11.2,0.1,22.3,0.7,33.7c6-12.2,16.8-17.9,28.5-22.3
	c1.9-0.7,4.3-2.5,5.9-0.5c1.5,1.9-0.5,4-1.4,5.8c-6.3,12.5-15.8,21.6-28.7,26.8c-3.8,1.5-4.7,3.4-4.6,7.1c0.2,6.7,0.1,13.4,0.6,20.2
	c1.5-6.2,7.2-10.9,5.6-18.3c-0.3-1.3,2.6-5.4,6.2-5.4c2.6,0,4.6,1.1,5.3,3.7c1.1,3.6-2,7-3.9,7.2c-6.9,0.8-7.1,6-8.5,10.6
	c-0.8,0.5-0.9,1.3-1.1,2.1l-0.1,0.2l0.1-0.2c0.3-0.7,0.7-1.4,1-2.2c5.7-7.4,13.9-10.8,22.5-13.6c1.8-0.6,4-2,5.5-0.2
	c1.7,1.9-0.2,4-1.1,5.8c-5.6,11.1-14.7,18.3-26.4,22c-4.6,1.4-5.8,3.8-5.4,8.1c0.4,3.9,0.3,7.8,0.4,11.8c0,1.9,0.3,3.9-1.3,5.8
	c-2.5-2.6-1.8-5.6-1.4-8.2c1.4-10.5-1.1-17.3-12.8-20.6C15,198.3,8.8,188,3.4,178c-0.6-1.1-1.2-2.3-0.3-3.5c1.1-1.3,2.5-1,3.9-0.6
	c12,3,21.4,9.5,27.8,20.1c0.8,1.4,1.7,2.7,2.7,4c0.2,0.2,0.6,0.2,1.2,0.4c0-9.5-0.1-18.9,0-28.3c0-3.4-2.6-3.4-4.7-3.9
	c-14.9-3.4-25.6-12.1-31.9-26.1c-1.1-2.4-3.4-5.1-1.5-7.4c2.1-2.4,5,0,7.3,0.8c11.8,4.4,20.6,12.5,27.8,22.6c0,0.2,0,0.4,0.1,0.5
	c0.1,0.1,0.2,0.1,0.3,0.2c-0.2-0.2-0.4-0.4-0.5-0.7c-1-5.5-3.9-10.3-6.5-15.2c-1-1.9-2.7-2.6-4.7-3.1c-3.1-0.8-4.4-3.5-5.2-6.1
	c-0.7-2.2,0.3-4.2,2.3-5.5c2-1.3,4.5-1.6,5.9,0.1c2,2.4,5.8,4.5,3.3,8.8c-0.6,1.1-0.4,2.4,0.2,3.6c2.3,4.7,4.7,9.5,7.2,14.6
	c0-11.6,0-22.8,0-34c0-2.6-0.9-4.1-3.6-5c-14.9-5-24.8-15.6-31.6-29.4c-0.7-1.4-2-3-0.8-4.4C3.8,79,5.7,80,7.3,80.6
	c12.1,4.5,23.3,10,29,22.8c0.2,0.4,0.7,0.7,1.6,1.5c0-11.5,0-22.5,0-33.4c0-2.4-1.7-2.8-3.6-3c-5.3-0.8-10.5-2-15.4-4.2
	c-7-3.2-11.6-8.7-14.6-15.6C2.5,44.5,3.8,43.1,8,44c9.8,2,18.7,5.9,25.5,13.6C34.5,58.8,35.8,59.8,36.9,60.9
	C36.9,60.9,36.9,60.9,36.9,60.9z M42.2,163.7c14.6-4.4,24.3-14.2,30.3-28c-6.3,2-12.4,4.3-17.6,8.3
	C48.3,149.1,44.1,155.7,42.2,163.7L42.2,163.7z M36.9,163.7c-7.3-14.1-17.8-24-33.6-28.8C8.3,150.4,19.9,161.7,36.9,163.7z
	 M5.4,83.4C12.1,98.4,26,110.9,37,112C33,97.5,20.7,86.1,5.4,83.4z M42.8,111.8C57.5,107.5,71.1,94.5,72,84
	C58.4,86.8,45.3,99,42.8,111.8z M38.6,44.7c7-13.7,6.7-29.6-1.2-39.5C30.7,18.3,31.2,31.1,38.6,44.7z M6.1,176.6
	c5.2,12.9,17.1,24,30.3,25.4C30.1,189.3,21.3,179.7,6.1,176.6z M71.7,45.1C58.4,47.8,49.2,54.9,42,65.7C54.6,67.2,67,58.5,71.7,45.1
	z M36.7,65.6C29.3,54.2,19.5,48.4,6.5,46.8C11.7,59.3,22.1,65.8,36.7,65.6z M71.4,179.2c-13.5,3-23.2,9.8-27.6,23
	C55.6,200.6,68,190.2,71.4,179.2z M50.6,76.5c-1.6,0.6-3,1.4-2.6,3.3c0.3,1.6,1.5,2.4,3.1,2.3c1.6-0.1,2.7-0.9,2.6-2.7
	C53.6,77.5,52.4,76.6,50.6,76.5z M27.8,130.8c-0.5-1.4-1.4-2.8-3.2-2.6c-1.5,0.2-2.6,1.3-2.4,2.9c0.1,1.7,1.3,2.3,2.9,2.4
	C26.7,133.6,27.5,132.6,27.8,130.8z M26.9,42c0-1.6-0.8-2.3-2.2-2.3c-1.4,0-2.4,0.4-2.6,1.9c-0.1,1.6,0.9,2.2,2.2,2.3
	C25.7,44,26.7,43.3,26.9,42z M56.5,174.1c-0.3-1.3-1.1-2.3-2.5-2.3c-1.3,0-1.8,1-1.9,2.1c-0.1,1.2,0.5,2.1,1.8,2.3
	C55.4,176.3,56.1,175.3,56.5,174.1z"/>
</svg>
