<?xml version="1.0" encoding="utf-8"?>
<!-- Generator: Adobe Illustrator 25.3.0, SVG Export Plug-In . SVG Version: 6.00 Build 0)  -->
<svg version="1.1" id="Layer_1" xmlns="http://www.w3.org/2000/svg" xmlns:xlink="http://www.w3.org/1999/xlink" x="0px" y="0px"
	 viewBox="0 0 105.9 227.3" style="enable-background:new 0 0 105.9 227.3;" xml:space="preserve">
<path d="M92.9,96.8c5.7,0.2,11.2,0.1,11.2,8.1c-0.1,5.4-2.5,7.6-7.7,7.6c-6,0-11.3-2.4-16.8-4.4c-2.3-0.9-4.3-1.8-5.6,1.5
	c-5.8,15.4-11.2,31-14.6,47.6c3.5-1.2,4.2-4.2,6.1-6.1c3.1-3.2,6.3-6.2,10.1-8.5c2.8-1.6,5.8-4.1,9-2.1c2.9,1.9,1.8,5.7,1.2,8.4
	c-3.5,16.3-11.4,29.9-25.6,39.2c-2.6,1.7-3.4,3.4-3.5,6.1c-0.3,8.9-2.4,17.5-4.1,26.2c-0.4,2.2-1,4.4-2.7,6.9
	c-1.9-2.9-1-5.4-0.8-7.6c1.7-19.9,4.4-39.8,4.2-59.9c-0.1-3.9-0.3-6.2-5.2-6.9c-8.7-1.3-13.3-7.8-16.6-15.4
	c-0.7-1.7-1.1-3.8,0.3-5.3c1.7-1.8,4-1,5.9-0.3c5.7,2.2,10.2,6.2,14.9,11.2c0-8.1,0-15.1,0-22.2c0-3.1-2.3-3.9-4.5-4.5
	c-17.8-4.2-25.8-17.9-31.9-33.2c-2.3-5.8-1-7.4,5.1-6.7c11,1.3,18.1,8.9,25.4,16c1.3,1.2,2.2,2.8,4.3,5.6
	c-1.5-19.2-5.6-36.4-10.1-53.7c-4,3.7-7.7,6.7-10.9,10.2c-3.3,3.5-7.1,4.3-11.4,2.9c-3.4-1.1-6.8-2.6-7.8-6.4
	c-1.2-4.4,3.5-5.4,5.8-8.2C10.7,41.6,3.1,43.6,1,36.5c-1.6-5.1-1.8-11.3,2.9-15.7c4.6-4.3,8.6,0.4,13.7,1.3
	C15.3,15.4,5.4,8.5,17.1,2.6C25.7-1.7,29.5,0.6,36,12.8c1.4-1,0.7-2.5,0.8-3.6C37.6,1.8,41-1,47.9,0.3c7.6,1.4,10.1,5,7.8,12.3
	c-2,6.2-4.5,12.2-7.4,18.1C45.1,37.1,44,43.2,47,50c1.1,2.5,1.5,5.2,2.7,9.2c2.8-5.7,4.1-10.9,7.8-14.7c2.4-2.5,4.8-6,8.7-3.5
	c4,2.6,3.9,6.7,1.8,10.6c-3.1,5.8-7.6,10.5-12.1,15.3c-2.3,2.4-3.5,5-2.8,8.2c4.1,20.9,4.7,42,5.3,65.1c3.9-10.6,6.5-19.9,10.5-28.5
	c4-8.5,6.2-16.7,3.1-26c-1.1-3.4-0.6-7.4-1.1-11.1c-0.8-5.5,1.4-8.5,6.9-9c5-0.5,8,2.1,8.5,7.8c0.2,1.8,0,3.6,0,5.7
	c11.1-6,14.7-5.7,18.5,1.1C107.7,85.6,105.8,88.2,92.9,96.8z M71.8,151.4c-8.2,6.8-12,15.9-13.1,26.2c3.1-9.4,9.9-17,12.9-26.4
	c0.3-0.1,0.6-0.1,0.9-0.2c-0.1,0-0.3-0.2-0.4-0.1C72.1,151.1,72,151.2,71.8,151.4z M34,41.8c-5.8,3-12.9,3.2-17.8,8.3
	c7.2,4.8,13.8,1.5,17.7-8.4l0.3,0.6L34,41.8z M63.7,179.5c9.1-8.7,15.3-18.9,17.8-32.6c-4.1,4.4-6.5,8.6-8.7,12.9
	c-3.3,6.5-8.2,12.3-9,19.9c-0.7-0.4-1.2-0.4-0.9,0.6C63.2,180,63.4,179.8,63.7,179.5z M50.1,107.7l-0.4,0.4l0.2-0.3
	c-4-13-14.2-19.8-25.4-25.6C33,90.8,40.4,100.5,50.1,107.7z M37.4,36.4c-8.5-5.5-15.8-9.3-23.7-11.9c-2.5-0.8-5.5-2.3-7.6,0.7
	c-1.9,2.6-1.7,5.8-1.1,8.7c0.7,3.4,3.8,3.8,6.5,3.9C19.6,38.2,27.6,37.6,37.4,36.4z M35.9,29.9C33.6,22,32,15.4,29,9.1
	c-2.5-5.1-6.8-3.4-10.2-2c-4.5,1.8-1.5,4.9-0.1,7.3C22.7,20.9,28.3,25.5,35.9,29.9z M43,31.9c2.8-6.9,5.7-13.9,8.5-20.8
	c1.5-3.7,0.1-5.6-3.8-6.4C44,4,40.8,4.2,40.4,8.6C39.6,16.3,40.7,23.9,43,31.9z M80.8,97.6c6.5-3.8,11.5-6.6,16.4-9.7
	c2.6-1.7,6.1-3.2,2.6-7.3c-3.1-3.6-6.2-2.8-8.9,0.1C86.9,85,83.2,89.7,80.8,97.6z M76.9,89.3c4.1-4.8,5.4-10.1,4.6-15.7
	c-0.3-2.1-1.2-3.4-3.6-3.1c-2.1,0.2-2.6,1.5-2.5,3.3C75.8,79,76.3,84.1,76.9,89.3z M81.6,102.7c-0.1,0.6-0.2,1.1-0.2,1.7
	c4.5,1.2,9,2.6,13.6,3.6c1.9,0.4,4.4,0.7,4.7-2.5c0.3-3-1.1-4.2-4.1-3.9C90.9,102,86.2,102.3,81.6,102.7z M35.6,135.8
	c3.4,8.1,8.4,12.7,18.1,14.2C48.1,143.5,44,137.8,35.6,135.8z M44.7,110.3C39,103,32.5,96.7,25.3,90.9
	C29.1,100.1,34.8,107.2,44.7,110.3z M55.1,61.8c3.1-4,6.3-7.9,9.2-11.9c1.1-1.6,1.5-3.8-0.3-5c-1.7-1.1-2.9,0.8-3.9,2
	C56.9,51.2,54.8,55.9,55.1,61.8z"/>
</svg>
