<?xml version="1.0" encoding="utf-8"?>
<!-- Generator: Adobe Illustrator 25.3.0, SVG Export Plug-In . SVG Version: 6.00 Build 0)  -->
<svg version="1.1" id="Layer_1" xmlns="http://www.w3.org/2000/svg" xmlns:xlink="http://www.w3.org/1999/xlink" x="0px" y="0px"
	 viewBox="0 0 149.7 253.7" style="enable-background:new 0 0 149.7 253.7;" xml:space="preserve">
<path d="M78.5,229.9c-1.6-15.7-4.7-31.1-8.4-46.4c-3.7-15.4-8.4-30.5-13.4-45.4c-4.1-12.2-8.6-24.2-13.4-36.1
	c-0.6-1.4-0.9-1.7-2.4-1.1c-4.3,1.8-6.3,1-8.5-3.1c-0.5-1-1.4-1.2-2.2-1.7c-4.2-2.1-4.5-2.7-3.5-7.3c0.1-0.5,0-1-0.3-1.3
	c-1.9-2.1-1.6-5.5-4.3-7.1c-0.3-0.2-0.7-0.9-0.6-1.2c0.8-2.6-1.2-4.9-1.1-7.3c0.1-2-0.4-3.8-0.9-5.8c-0.5-2.4-1.2-4.5-2.9-6.3
	c-0.2-0.2-0.3-0.5-0.4-0.8c-0.6-3.6-0.8-7.4-4.3-9.7c0.2-3.4-1.6-6.4-2-9.6c-0.2-1.9,0.2-3.6,2.1-4.6c1.8-0.9,3.4-0.1,4.6,1.2
	c1.2,1.1,2.2,1.7,3.9,1.3c2.2-0.4,3.4,1.3,4.3,3c0.7,1.4,1.2,2.7,3.2,2.7c0.9,0,1.8,0.7,1.9,1.5c0.2,2.4,1.8,3.4,3.7,4.5
	c1.6,1,1.8,2.8,1.7,4.6c-0.1,1.3,0.1,2.5,0.6,3.8c0.6,1.7,1.4,2.7,3.2,3.4c2.8,1.1,3.7,3.8,3.8,6.8c0,0.4-0.3,1-0.2,1.1
	c3.6,3.2,0.6,7.7,2.2,11.3c0.6,1.3,2.1,1.8,2.3,3.1c0.7,5.2,4.5,10.7-1.4,15.4c-1.3,1.1-0.5,2.2,0,3.3c3.4,8.9,6.9,17.8,10.1,26.8
	c8.7,24.8,16,50.1,21.2,75.9c0.1,0.6,0.3,1.3,0.6,2.6c0-5.8,0.1-10.9,0-16c-0.4-17.6-0.7-35.2-0.8-52.8c-0.1-14.5,0.7-28.9,1.1-43.3
	c0.1-3.8,0.7-7.5,1.2-11.3c0.2-1.7-0.3-2.9-1.9-3.7c-3.3-1.7-5.2-3.9-4.8-8.3c0.3-3.1-0.6-6.1,0.6-9.3c0.7-1.8,0.9-4.5-1.1-6.3
	c-0.2-0.2-0.5-0.8-0.4-1c1.2-3.3-0.3-6.6,0.4-9.9c0.2-1.1,0.6-2.3,1.6-2.9c3.1-2.1,2.8-4.9,1.9-7.9c-0.8-2.6-0.5-4.9,1.8-6.5
	c0.2-0.1,0.5-0.2,0.4-0.3c-0.7-3.9,3.3-5.4,4.2-8.4c0.6-2.4,1.3-4.7,4.4-4.6c1.4,0,1.6-1.1,2.2-1.9c1.1-1.6,2.4-3.1,4.6-2.5
	c2.3,0.6,3,2.5,3.1,4.6c0.2,2.8-0.8,5.6,0.5,8.4c0.1,0.3,0.1,0.9-0.1,1.1c-2.6,2.8-1.6,5.9-1.6,9.2c0,3.2-1.7,6.3-1.1,9.6
	c0.6,3.6,0.3,7.4,1.4,10.9c0.2,0.8,0.5,1.6,0,2.2c-1.9,2.3-1.2,5.2-2.1,7.8c-0.3,0.8-0.2,1.4,0.3,2.1c1.8,2.8,1.6,4.9-1,6.8
	c-1.7,1.3-2.5,2.7-3.1,4.8c-0.7,2.6-2.6,4.4-5.5,3.9c-2.3-0.4-2.8,0.8-2.9,2.6c-0.3,4.4-0.7,8.9-0.9,13.3
	c-1.9,35.2-1,70.3,0.1,105.5c0.1,2.9,0,5.7,0.3,8.6c1.5-8.8,2.5-17.6,4.2-26.3C87,172,90,158.9,96.2,146.8c0.6-1.2,0.5-2.1-0.5-2.9
	c-3-2.5-3.3-5.4-2.5-9.4c0.7-3.8,2.7-6.8,3.7-10.4c0.4-1.4,0.8-2.6,0-4c-0.3-0.6-0.5-1.8-0.2-2.2c2-2.4,1.4-5.5,2.4-8.1
	c0.8-1.9,1.9-3.2,4-4.1c2.1-0.9,2.5-3.4,2.3-5.5c-0.3-3.3,0.2-5.9,3.8-7c0.3-0.1,0.7-0.3,0.7-0.4c-0.3-4.9,6.3-4.5,6.8-8.9
	c0.2-1.4,2-2,3.5-1.4c1.3,0.5,2.1,0,2.9-1c1.3-1.7,3-2.7,5.2-1.8c2.2,1,2.2,3,1.9,4.9c-0.3,3-2,5.7-1.5,8.8c0,0.2-0.1,0.7-0.3,0.8
	c-3.3,2.2-3.2,5.7-3.9,9.1c-0.6,2.8-3,5-3.5,8.1c-0.2,1.7-0.2,3.3-0.3,5c-0.1,2.6-1.8,4.9-1,7.6c0.1,0.5-0.5,1.4-1.1,1.9
	c-1.1,0.9-1.6,2-1.9,3.3c-0.6,2.3-2.4,4.1-1.1,7c0.7,1.7-1.2,3.7-3.1,4.5c-1.8,0.8-3.1,1.8-3.9,3.7c-1.1,2.5-3.9,3.4-6.8,2.1
	c-2.4-1-3.3-0.2-4.2,1.8c-5.4,11.6-8.4,23.9-10.8,36.4c-2.4,12.5-4,25-4.5,37.7c1-3.7,1.9-7.3,2.9-11c4.2-15.1,9.3-29.8,17.3-43.4
	c4.2-7.1,9.9-12.9,16.4-17.8c6.1-4.6,12.1-9.4,18.1-14.1c0.7-0.5,1.3-1.8,2.3-0.8c0.9,0.9,0,1.7-0.5,2.4
	c-19.7,31.7-39.1,63.5-55.8,96.9c-1.1,2.3-2,4.5-1.6,7c0.1,0.7,0.3,1.7-0.8,1.8c-1.3,0.2-1.2-1-1.2-1.8c0-1.2-0.3-2.2-1.2-3.1
	c-12.3-12.5-21.1-27.4-28.9-42.9c-11.2-22.3-19.7-45.7-26.6-69.6c-0.2-0.6-0.3-1.3-0.4-1.9c-0.1-0.5,0-1,0.5-1.2
	c0.5-0.2,0.9,0,1.3,0.3c0.5,0.5,0.9,0.9,1.4,1.4c5.7,6.4,11.5,12.8,17.1,19.3c6.6,7.6,10.8,16.7,14.8,25.8
	c8.1,18.5,14.4,37.6,20.1,57C77.9,227.9,78.2,228.9,78.5,229.9z M125,155.6c-0.4,0.3-0.8,0.5-1.1,0.9C108.7,177.2,95,198.8,85.8,223
	c-0.3,0.8-0.6,1.7-0.9,2.5c11.4-21.2,23.6-41.9,35.9-62.5C122.2,160.5,124.1,158.3,125,155.6c0.2-0.3,0.4-0.5,0.7-0.8
	c-0.1-0.1-0.2-0.1-0.3-0.2C125.2,155,125.1,155.3,125,155.6z M29.2,133.1c14.9,30.2,29.7,60.3,44.6,90.5
	c-6.5-22.7-13.7-45.1-24.6-66C44.2,148,36.6,140.6,29.2,133.1z M74.4,231C59.8,199.8,44.6,169,29,138.3
	C39.7,171.4,52.3,203.6,74.4,231z M129.6,144.6c-4,3.2-7.9,6.4-11.9,9.5c-5.2,3.9-9.4,8.8-12.8,14.3c-5.1,8.1-8.9,16.9-12.1,25.9
	c-2.2,6.2-4.2,12.4-5.7,18.9C98.5,188.5,113.4,166.2,129.6,144.6z M86.1,45.5c-0.1-0.5-0.2-1.2-0.5-1.8c-0.5-1-1.1-2.2-2.4-2.2
	c-1.2,0.1-1.4,1.4-1.8,2.4c-0.7,1.8-0.5,3.7-0.2,5.6c0.3,1.7,1.5,1.3,2.6,1.5c1.4,0.2,1.5-0.8,1.6-1.7
	C85.7,48.1,85.9,46.8,86.1,45.5z M107.6,115.2c0,0.3-0.6,1.7,1.1,2c0.8,0.1,1.8,1.3,2.2,0.2c0.9-2.3,2.6-4.4,1.9-7.2
	c-0.2-0.8-0.4-1.8-1.3-2.1c-1-0.3-1.7,0.6-2.3,1.3C108.2,111,107.5,112.6,107.6,115.2z M33.4,69.5c0.3-2.1-0.7-3.9-2-5.4
	c-1.3-1.7-2.3-1.2-3.1,0.5c-1,2.2,0.3,4,1.1,5.9c0.5,1,0.4,2.4,2.4,1.7C33.5,71.7,34.1,71.1,33.4,69.5z M31.1,77.5
	c0,0.3,0,0.6,0.1,0.8c0.5,2.3,2,4.2,3.9,4.7c1.2,0.3,0.4-2.4,1.2-3.5c0.2-0.3,0.3-0.7,0.4-1c0.8-1.7-0.6-2.6-1.5-3.6
	c-0.6-0.7-1.4-1.2-2.5-0.6C31.4,75.1,31.2,76.2,31.1,77.5z M86,57.3c-0.2-1.9-0.6-3.6-2.4-4.1c-1.5-0.5-2.2,0.8-2.8,1.9
	c-0.7,1.3,0.6,6.2,1.9,7.1c0.5,0.3,1,0.3,1.2-0.2C84.8,60.4,85.9,58.9,86,57.3z M110.2,122.9c0-1.6-0.3-2.9-1.8-3.4
	c-1.4-0.5-2.2,0.7-3,1.6c-0.8,0.9-0.4,6.5,0.4,7.2c0.3,0.3,0.8,0.4,1,0.1C108,126.5,110.4,125.4,110.2,122.9z M105.6,112.7
	c-0.6-1.6,0.6-4.1-2.1-4.6c-1.5-0.3-3.4,2.6-3.3,4.6c0.1,1.5,2.7,4,4.1,3.6C106.1,115.8,105.3,114,105.6,112.7z M35.4,67.2
	c0.4,1.4-0.9,3.5,1.3,4.1c1.4,0.4,4-2.3,4-3.7c0-2-1.8-5-3.2-4.8C34.7,63.1,36,65.7,35.4,67.2z M77.2,51.1c1.9,0.3,2.3-0.3,2-1.7
	c-0.2-0.9-0.4-1.9-0.7-2.7c-0.5-1.4-0.5-3.8-2.6-3.2c-2.2,0.5-2.3,2.8-2.1,4.7C74,50.3,75.8,50.8,77.2,51.1z M37.9,99.9
	c1.2-0.4,2.9-0.3,3.4-2c0.3-1-3.2-4.2-4.6-4.2c-1.8,0-2.2,1.2-2.2,2.7C34.5,98.5,35.6,99.8,37.9,99.9z M26.6,75.4
	c0.9,0,1.7,0,1.7-1.2c0-2.2-2-5.6-3.6-5.6c-1.8,0-2,1.4-2.1,2.8C22.4,73.6,24.1,75.3,26.6,75.4z M114.6,120.4
	c2.4-0.1,4.1-1.6,3.9-3.8c-0.1-1.3-0.4-2.7-2.1-2.9c-1.6-0.1-3.6,3.1-3.6,5.5C112.9,120.5,113.7,120.4,114.6,120.4z M94.5,23
	c-0.3-1-0.5-2.4-2.1-2.5c-1.3-0.1-4.4,3.3-4.1,4.6c0.2,1.3,1,2.3,2.4,2.5C91.9,27.6,94.5,24.6,94.5,23z M15.9,45
	c-1.6,0-1.8,1.2-1.9,2.3c-0.1,1.6,2.6,4.2,4.4,4.1c1.6,0,2-1.3,2.2-2.5C20.8,47.7,17.5,45,15.9,45z M87.8,76c-0.1-1.7-0.9-3-2.5-2.8
	c-2.4,0.4-3.2,2.6-3.7,4.5c-0.4,1.7,1.4,1.5,2.4,1.5C86,79.1,87.6,78.3,87.8,76z M126.6,92.1c-0.1-1-0.4-2.2-1.9-2.2
	c-1.6,0-4.8,2.7-4.6,4c0.2,1.2,0.6,2.5,2.3,2.4C124.1,96.2,126.6,93.8,126.6,92.1z M87.5,50.1c0.4,0.9-0.7,2.9,1.4,2.6
	c1.9-0.2,3.7-1.3,3.6-3.6c0-1.6-0.4-3.6-2.4-3.5C87.6,45.8,87.8,48.2,87.5,50.1z M103.8,145.2c2.1-0.1,3.2-1.2,3.4-3.2
	c0.1-1.3-0.4-2.5-1.8-2.8c-1.2-0.2-4.9,3-4.6,4.1C101.1,144.9,102.7,144.7,103.8,145.2z M103.5,128c-0.2-0.8-0.4-1.9-0.8-2.9
	c-0.5-1.1-1.4-1.9-2.7-1.6c-1.3,0.3-1.5,1.5-1.6,2.7c-0.2,1.7,1.3,2.4,2.2,3.4c0.4,0.5,0.6,1.7,1.6,1
	C103,130.1,103.7,129.4,103.5,128z M28.1,80.8c-1.1,0.3-1.6,1.3-1.3,2.5c0.5,1.9,1.2,3.9,3.6,4c2,0.1,1.6-1.9,1.8-2.9
	C32.4,83.1,29.5,80.7,28.1,80.8z M42.7,80.8c0-2-1.2-3.2-2.6-2.7c-2.2,0.9-3,5.9-1.1,7.3c0.4,0.3,0.9,0.8,1.1,0.2
	C40.9,83.9,42.7,82.8,42.7,80.8z M75.2,61.4c-0.3,1.8,1.6,2.4,2.9,3.4c0.6,0.4,0.9,1.5,1.7,1.1c0.8-0.4,1.1-1.5,0.9-2.5
	c-0.3-1.7-0.9-3.3-2.5-4.2C76.5,58.3,75.2,59.1,75.2,61.4z M91.5,61.1c0-1.5-0.3-2.7-1.9-2.9c-1.1-0.1-3.4,3-3.1,4.3
	c0.2,1.2,0.8,2.7,2.1,2.6C91.1,65,91.1,62.7,91.5,61.1z M116.3,104.8c0.1-1.9-1.7-4.4-3-4.2c-1.5,0.2-2.1,1.4-2.4,2.8
	c-0.2,1.3,1.9,4.2,3,3.9C115.2,107,116,105.9,116.3,104.8z M114.7,128.1c-0.1-1-0.3-2-1.6-2.2c-1.2-0.2-4,2.5-3.7,3.7
	c0.2,1-0.2,2.9,1.9,2.8C112.8,132.4,114.7,130.1,114.7,128.1z M22.7,58c0-2-1.9-4.6-3.1-4.4c-1.3,0.2-1.9,1.2-1.8,2.5
	c0.2,1.8,0.6,3.7,2.7,4C21.6,60.2,22.8,59.3,22.7,58z M122.2,87.2c-0.3-1.4-1.1-2.7-2.7-2.5c-2.2,0.2-2.6,2.3-2.9,4
	c-0.2,1.2,1,2,2.1,2.3C119.6,91.1,122.2,88.3,122.2,87.2z M83.8,19.9c-0.4,2.1,1.3,3,2.2,2.9c1.6-0.2,2.6-1.9,2.8-3.4
	c0.3-1.6-1.1-2.6-2.6-2.6C83.9,16.7,84.2,18.8,83.8,19.9z M118.3,102.2c-0.2,1.5,0.1,2.5,1.6,2.6c2.3,0.2,2.6-1.8,3.1-3.3
	c0.4-1.4-0.2-3-1.7-3C118.9,98.6,118.9,100.9,118.3,102.2z M93,33.3c0-1.7-0.3-3.5-2.2-3.5c-2,0-2,2-2.2,3.4c-0.2,1.5,0,2.9,2,3.1
	C93,36.5,92.5,34.4,93,33.3z M26.9,62c1.4-0.9,2.8-1.7,2.8-3.6c0-1.4-0.8-2.8-2.3-2.7c-2.1,0.1-2.6,2-2.7,3.7
	C24.6,60.8,25.9,61.3,26.9,62z M23.9,43.5c-0.6-1.6-0.9-3.6-3-3.7c-1.4-0.1-2.5,1.1-2.5,2.6c0,2.1,2,2.8,3.4,3.3
	C22.7,46,23.5,44.6,23.9,43.5z M128.4,84.3c-0.1-1.3-0.3-2.6-1.8-2.5c-1.7,0.2-3.2,1.2-3,3.1c0.1,1.5,0.7,3.1,2.7,3
	C128.7,87.7,127.9,85.6,128.4,84.3z M85.9,67.4c-0.1-1,0.1-2.7-1.8-2.6c-2,0.2-2.4,2.1-2.6,3.6c-0.1,1.3,0.7,2.8,2.1,2.8
	C85.8,71.2,85.8,69.4,85.9,67.4z M87.3,37.3c-0.7-1.8-1.6-3.3-3.5-3.4c-1.5-0.1-2,1.3-1.9,2.6c0,2.1,1.7,2.9,3.3,3.2
	C86.8,40,86.6,38.1,87.3,37.3z M110,95.3c-1.9,0.3-2.5,1.7-2.5,3.4c0,1.1,0.3,2.9,1.4,2.6c1.6-0.4,3.1-1.9,3.7-3.5
	C112.9,96.8,111.7,95.5,110,95.3z M105.7,137.1c1.5-0.8,1.5-2.7,1.9-4.3c0.2-0.9-0.4-2.1-1.5-2c-1.9,0.3-2.8,1.9-3.1,3.6
	C102.9,135.6,103.6,137,105.7,137.1z M77,32.3c0.4,1.1,0.4,3.3,2,3.1c1.8-0.2,2.2-2.6,2.9-4c0.4-0.7-1.1-2-2.3-2
	C78,29.3,77.2,30.6,77,32.3z M94.1,15.5c-0.2-1.3-0.1-3.1-1.8-3.2c-1.7-0.1-2.6,1.7-2.6,3.1c0,1.2,0.7,2.7,2.6,2.7
	C94.1,18.1,94.1,16.9,94.1,15.5z M33.4,53.6c0-1.7-0.7-3-2.4-3.4c-1.3-0.3-2.1,0.6-2.5,1.7c-0.8,1.9,1.3,2,1.9,2.9
	c0.4,0.6,0.9,1.7,1.9,1.2C33.3,55.6,33.2,54.5,33.4,53.6z M35.5,85.3c-1.5,0.4-1.7,1.5-1.4,2.6c0.3,1.5,0,3.6,2.1,3.7
	c1.9,0.1,2.1-2.2,2.2-3.4C38.4,86.8,37.1,85.7,35.5,85.3z M12.1,39.5c0.5,1.1,0,3.2,2,3.4c2.1,0.2,2.6-1.6,2.6-3
	c0-1.6-1.5-2.6-3-2.8C12.3,37,12.2,38.3,12.1,39.5z M39.2,76.1c2-0.1,3.2-0.8,3.4-2.7c0.1-1-0.4-1.9-1.5-2.1c-0.7-0.2-4.2,2.2-4,2.6
	C37.7,74.9,38.2,76,39.2,76.1z M119.8,109.1c-0.1-1.1-0.1-2.4-1.5-2.3c-1.9,0.2-3,1.8-3.2,3.5c-0.2,1.8,1.7,1.1,2.6,1.3
	C119.9,112.1,119.3,110.1,119.8,109.1z M109.8,139.6c1.5-0.7,3.3-1.2,3.6-3.1c0.2-1.1-0.8-1.7-1.8-1.7c-2.1-0.1-2.7,1.5-3.1,3
	C108.2,138.7,108.8,139.3,109.8,139.6z M87.7,70.4c-0.1,0.8,0.4,1.8,1.2,1.9c0.9,0.2,3.4-2.2,3.5-3.3c0.1-1.2-0.8-1.7-1.8-1.8
	C88.7,67.2,88,68.4,87.7,70.4z M28.1,91.3c0.1,1.1,2.8,3.1,3.9,2.9c0.9-0.2,1.3-0.9,1.2-1.6c-0.3-1.6-1-3.1-3.1-3.1
	C28.9,89.6,28.2,90.2,28.1,91.3z M100.3,116.9c-1.3,0.3-1.8,1-1.7,1.9c0.2,1.8,1.4,2.6,3.2,2.6c1.4-0.1,2.4-1.9,2.1-2.2
	C102.9,118.1,101.4,117.5,100.3,116.9z M23.1,66.6c0.8-0.7,2.7,0.5,2.6-1.3c-0.1-1.6-1.3-3-3-3.3c-1.2-0.2-1.6,0.9-1.5,1.9
	C21.5,64.9,21.1,66.6,23.1,66.6z M76.7,56.8c1,0.2,1.9-0.8,1.9-2.2c0-2.1-2.1-1.1-3.2-1.7c-1.1-0.6-1.9,0.1-1.9,1.3
	C73.5,55.7,74.5,56.5,76.7,56.8z M99.8,132.6c-0.4-1.5-1.2-3.2-2.5-3.2c-1.7,0-1.4,2.1-1.6,3.4c-0.3,1.4,1.1,1.7,2.1,1.6
	C98.8,134.3,99.7,133.8,99.8,132.6z M89.5,43.3c1.8,0.1,2.4-0.9,2.1-2.6c-0.2-1-0.3-2.4-1.6-2.1c-1.8,0.4-2.2,2.2-2.4,3.7
	C87.5,43.5,88.5,43.6,89.5,43.3z M75.1,65.6c-1.2,0.1-1.3,1-1.1,1.8c0.2,1.2-0.6,3.1,1.8,3.1c1.4,0,1.9-1.1,2-2
	C77.8,66.9,76.4,66.2,75.1,65.6z M116.7,92.5c-0.6-1.5-1.7-2.1-2.9-2.2c-1.2-0.1-1.8,0.5-1.8,1.7c0.1,1.3,0.4,2.9,1.7,2.8
	C114.8,94.7,115.8,93.3,116.7,92.5z M81.9,23.6c-1.1,0.1-1.9,0.5-1.7,1.8c0.2,1.2,0.8,2.5,1.9,2.5c1.3,0,2.2-1.8,2.3-2.7
	C84.7,24,83,23.8,81.9,23.6z M43,91.7c-0.2-1.2-0.3-2.5-1.8-2.4c-1.4,0.1-1.8,1.3-1.9,2.4c-0.1,1.5,1.1,2.5,2.2,2.5
	C42.9,94.4,42.5,92.6,43,91.7z M26.8,45.4c-1.1,0.1-2.5,0.6-2.5,1.8c0,1.2,1.5,2,2.5,2.3c1.3,0.3,1.4-1.2,1.6-2.1
	C28.5,46.2,28.1,45.4,26.8,45.4z M45.8,86.8c-0.4-0.8,0.2-2.6-1.4-2.7c-1.1-0.1-2.1,1-2.2,2.2c-0.1,1.6,1.6,1.7,2.5,2.1
	C45.6,88.8,45.9,87.9,45.8,86.8z M77.4,77.4c-0.2-1.8-0.8-3.5-2.2-4.5c-0.3-0.3-0.9,0.3-1,0.8C74.1,75.8,75.8,76.5,77.4,77.4z
	 M97,141.5c0.2-1.6,0.2-3.3-1.1-4.6c-0.4-0.4-1-0.1-1.2,0.3c-0.6,1.9,0.4,3.2,1.8,4.3C96.6,141.5,96.8,141.5,97,141.5z M44.8,96.1
	c1.4-0.7,1.9-1.8,2.3-2.9c0.2-0.8,0.1-1.6-0.7-1.9c-1.1-0.4-1.2,0.7-1.3,1.3C44.8,93.6,44.4,94.7,44.8,96.1z"/>
</svg>
