<?xml version="1.0" encoding="utf-8"?>
<!-- Generator: Adobe Illustrator 25.3.0, SVG Export Plug-In . SVG Version: 6.00 Build 0)  -->
<svg version="1.1" id="Layer_1" xmlns="http://www.w3.org/2000/svg" xmlns:xlink="http://www.w3.org/1999/xlink" x="0px" y="0px"
	 viewBox="0 0 80.8 227.8" style="enable-background:new 0 0 80.8 227.8;" xml:space="preserve">
<path d="M43.4,123.6c4.7-4.9,9.3-9.8,14-14.6c3.1-3.1,6.8-5.3,11-6.5c3.9-1.1,7.4,0.1,8.9,2.9c1.6,2.9,0.9,6.2-2.3,9.1
	c-4,3.7-8.7,6.3-13.7,8.3c-5.1,2.1-10.3,4.1-15.5,6.1c-1.8,0.7-3.4,1.3-3.4,3.7c0.1,8.4,0,16.9,0.4,25.4c2-4.8,4.2-9.5,7-13.8
	c4.1-6.3,9.3-11.1,17.2-11.9c6-0.6,11.1,2.5,13,8.1c2.1,6.1-0.2,13-5.1,15.9c-4.6,2.7-10.9,0.6-12.8-4.7c1.8,0,2.7,1.5,3.9,2.2
	c3.7,2.2,7.6,1.6,10.3-1.8c2.6-3.4,3-9.4,0.7-13.1c-2.4-3.9-6.2-4.7-10.5-4.2c-6,0.6-10,4.5-13.4,8.9c-6.8,8.8-9.6,19.2-11.3,29.9
	c-2.7,16.8-2.5,33.7-0.8,50.6c0.1,1.1,0.9,2.4-0.5,3.7c-1.5-0.6-1.5-2.1-1.6-3.3c-1.6-13.8-1.8-27.6-0.5-41.5
	c0.6-5.7,0.6-5.6-4.8-8.2c-8.7-4.3-17.4-8.5-25.7-13.6c-2.5-1.6-4.6-3.6-6.4-5.9c-1.7-2.3-2-4.8-0.8-7.4c1.3-2.6,3.5-3.8,6.3-3.9
	c4.7-0.1,8.7,1.8,12.5,4.3c7.5,5.1,13.8,11.3,17.9,19.5c0.5,1,0.9,2.3,2.2,2.7c0.8-0.5,0.9-1.4,0.6-2.1c-1.9-6.5-4.4-12.8-8.4-18.4
	c-0.9-1.3-2-1.8-3.6-1.4c-1.6,0.4-3.1-0.2-4.5-0.9c-2.9-1.4-5-3.2-4.1-6.8c0.7-3,3.6-4.9,7.1-4.7c3.3,0.2,6.9,2.8,6.2,5.6
	c-1.5,6,2.8,9.7,4.8,14.3c0.5,1.3,1.3,2.4,2.4,3.6c0.1-10.3,0.8-20.6-0.1-31c-0.7-7.7-1.1-15.4-4.3-22.6c-3.9-8.9-8.9-16.6-19.2-19
	c-7.5-1.7-12.4,1.7-12.7,8.5c-0.2,3.4,1.6,5.5,4.3,7c2.7,1.4,5.5,2.2,8.1-0.3c0.4-0.4,1-0.7,1.8-0.6c-0.1,2.8-2,4-4.6,4.4
	c-4.9,0.7-10.7-3.3-11.7-7.8c-1.3-5.8,1.9-11.8,7.4-13.1c8.5-2,15.3,1.6,21.1,7.6c2.9,3,4.8,6.7,7.2,11c1.1-6.1,2-11.4,2.9-16.6
	c0.4-2.3-1.4-2.8-3-3.4c-6.3-2.5-12.6-4.9-18.5-8.4c-2.9-1.8-5.6-3.8-7.9-6.3c-1.6-1.9-2.8-4-2.9-6.6c-0.1-4.6,2.2-7,6.8-6.6
	c6.5,0.7,11.4,4.3,15.7,8.9c3.3,3.5,5.6,7.7,8.6,11.4c-0.7-4-2-7.7-3.7-11.3c-0.6-1.3-1.5-2.3-2.9-2.8c-1-0.4-2-0.8-2.9-1.4
	c-2.9-2-4.1-5.7-2.5-8.5c1.5-2.7,4-3.8,7.1-3c3.3,0.8,6.6,4.9,5.1,7.6c-4.5,8.2,2.6,14,3.4,21c2.8-14.4,3.6-28.6-4.1-41.8
	c-3.2-5.6-7.9-9.5-14.9-9.2c-3.8,0.2-6.5,2.4-7,5.5c-0.7,4.4,0.4,5.5,7,6.6c-1.3,2.3-3.3,2.1-5.2,1.5c-2.2-0.7-3.6-2.3-4.1-4.6
	c-1.3-5.8,2.3-10.5,8.5-11.3c5.3-0.7,9.6,1.6,13.4,4.9c0.9,0.8,1.7,1.7,2.7,2.8c-0.1-6.1-5.9-13.5-11.3-15c-4.4-1.2-6.9-4.8-5.6-8.5
	c1-2.9,3.3-4.4,6.4-4.2c3.1,0.2,5.6,3,5.7,6.2c0.4,7.4,0.4,7.4,4.9,13.9c-0.5-4.9-0.5-9,0.3-13.1c0.9-4.7,3.2-8.4,7.4-10.6
	c2.6-1.4,5.5-1.4,7.8,0.7c2.3,2.1,3.1,4.9,2.5,8c-0.5,2.6-2.2,4.3-4.9,5c-0.6,0.1-1.2,0-1.6-0.6c-0.2-1.6,1.2-1.5,2-2.1
	C55.4,10,56,7.1,54,4.4c-1.9-2.6-4.4-2.6-6.9-1c-2.6,1.6-4.6,4.1-5,7C40.7,21.7,41.4,33,44.7,45c2.2-4.4,4-7.9,5.8-11.3
	c2.8-5.1,6.6-9.2,11.3-12.6c2.6-1.9,5.5-3,8.5-0.9c3.1,2.2,2.7,5.3,1.8,8.3c-1.2,4.2-3.8,7.3-7.1,10c-4.7,3.8-9.7,7.1-15.2,9.6
	c-2.8,1.3-3.9,3-3.2,6.1c1.3,5.6-0.3,11.3-0.2,18.2c2.8-4.6,5.2-8.1,8-11.2c3.4-3.7,7.4-6,12.3-6.7c3.9-0.5,7.4,0.7,9.5,4.3
	c2.2,3.6,3.2,7.5,0.6,11.3c-2.1,3-5.1,4.4-8.8,3.8c-3.3-0.5-5.4-2.2-5.9-6.3c1.1,0.5,1.5,0.6,1.8,0.9c3.3,3.5,6,4.1,9.1,2.1
	c2.7-1.8,3.6-5,2.4-8.6c-1.3-3.7-4.8-6-8.7-5.3c-4.8,0.8-8.5,3.4-11.6,7c-8.3,9.8-13.2,21-14.4,33.8c-1.3,12.8-1.3,15.1,1.2,21.6
	c2.8-5.5,5.3-11,8.9-15.8c0.9-1.2,0-2.3-0.1-3.5c-0.3-3.5,1.2-6,4.4-7.3c3.6-1.5,7.9,0.5,9,4c1,3.1-1.3,7.5-5,7.3
	c-7.8-0.4-9.6,5.2-12.2,10.3C45.6,117.3,43.6,120.1,43.4,123.6c-0.3,0.6-0.6,1.3-0.9,1.9l-0.1,0.1l0.1-0.1
	C42.8,124.9,43.1,124.3,43.4,123.6z M18.5,157.6C18.4,157.6,18.4,157.6,18.5,157.6c0-2,0.2-4-0.1-6c-0.3-2.5-2.4-3.7-4.6-3.6
	c-2.3,0.2-1.2,2.4-1.3,3.8c-0.2,2.6-0.2,5.2-0.1,7.8c0.1,3,2.7,3.9,4.8,4c2.3,0.1,1-2.3,1.3-3.7C18.6,159.2,18.5,158.4,18.5,157.6z
	 M23.3,62.2c0.3,4.4,0.6,8.2,1,12c0.2,2.6,2.6,2.7,4.3,3.6c0.8,0.4,1.4,0,1.6-0.9C31.5,72.3,28.3,64.8,23.3,62.2z M9.4,159
	c1.1-1.6,0.7-3,0.8-4.3c0-2,0-4-0.1-5.9c-0.1-1.9-1.2-2.6-3.1-2.5c-3.9,0.3-5.9,3.9-3.9,7.2C4.5,155.9,6.5,157.7,9.4,159z M21,152.4
	c-1.1,11.7-0.3,14,5.2,15.4C27.7,157.1,27.5,156.6,21,152.4z M21.7,73.9c0.6-4.4-0.7-8.4-0.8-12.4c-0.1-2.1-2.1-2.7-3.7-2.7
	c-2.1,0-1.3,2-1.3,3.2c0.1,2.3,0.5,4.5,0.6,6.8C16.7,72,18.7,73.1,21.7,73.9z M69.1,111.5c0-0.9,0.1-1.4,0-1.9
	c-0.4-1.4,1-3.9-1.3-4.2c-2.3-0.3-3.9,1.3-4,4c-0.1,2.4-0.4,4.9-0.6,7.3c-0.2,2.5,1,2.4,2.8,1.6C69.4,116.9,69.3,114,69.1,111.5z
	 M64.6,22.6c-4.8,2.1-5.8,6.9-3,15.1C65.8,35.4,66.7,30.9,64.6,22.6z M57.9,28.5c-5.3,2.9-6.1,7.7-4.1,15.2c1.6-1.7,4.6-1.6,4.6-4.7
	C58.5,35.6,58.1,32.1,57.9,28.5z M61.3,108.8c-4,3.1-7,5.5-6.4,10c0.2,1.3-1,3.6,1.5,3.5c1.8-0.1,4.2-0.5,4.4-3.1
	C61,116,61.1,112.8,61.3,108.8z M38.3,174.3c-2.6-5.6-4.8-10.2-9-14.2C27.9,169.8,27.9,169.8,38.3,174.3z M32,70.2
	c0.9,10,0.9,10,6.9,11.3C37.4,77.6,34.9,74.4,32,70.2z M71.8,113.8c4.1-3.2,5-5.8,2.8-8.1c-0.6-0.7-1.3-1.3-2.4-1
	c-0.9,0.3-1,1.1-1,1.9C71.4,108.9,71,111.2,71.8,113.8z M44.9,126c7.3-1.1,8.4-2.4,6.9-7.9C49.4,120.8,47.2,123.4,44.9,126z
	 M13.9,68.6c-0.2-3.5-0.2-6-0.4-8.4c0-0.5-0.5-1.3-0.9-1.4c-0.8-0.3-1.4,0.4-1.7,1.1C9.7,63.1,10.7,65.7,13.9,68.6z M67.9,21.5
	c0,3.5,0,6.7,0,10.8C71.4,25.7,71.4,24.4,67.9,21.5z M47.4,46.5c4.9-1.4,2.7-4.6,2.8-7C49,41.5,47.8,43.5,47.4,46.5z"/>
</svg>
