<?xml version="1.0" encoding="utf-8"?>
<!-- Generator: Adobe Illustrator 25.3.0, SVG Export Plug-In . SVG Version: 6.00 Build 0)  -->
<svg version="1.1" id="Layer_1" xmlns="http://www.w3.org/2000/svg" xmlns:xlink="http://www.w3.org/1999/xlink" x="0px" y="0px"
	 viewBox="0 0 74.5 229.1" style="enable-background:new 0 0 74.5 229.1;" xml:space="preserve">
<path d="M48.9,110.1c4.7-3.6,8.1-8.7,13.4-11.7c1.9-1.1,3.9-2.6,6.1-1c2,1.4,1.2,3.7,0.9,5.6c-2,13.5-9.4,23.7-20.1,31.6
	c-2.1,1.5-2.8,2.8-2.8,5.3c0.2,25.9,0.3,51.8,0.5,77.6c0,2.8,0.6,5.6,0.8,8.4c0.1,1.1,0.4,2.7-1,3.1c-1.8,0.5-2.5-1.1-2.9-2.3
	c-0.5-1.5-0.7-3.1-0.9-4.7c-1-8.8-1.1-17.6-0.7-26.4c0.7-16.1-2.3-31.5-6.9-46.8c-0.6-1.9-0.9-3.8-3.8-3.7
	c-5.5,0.2-9.4-3.1-12.9-6.8c-2.9-3.1-5.7-6.2-8.5-9.3c-1.1-1.2-2.6-2.2-1.7-4.1c0.8-1.6,2.5-1.8,4.2-1.8c5.4,0,9.4,3.1,13.3,6.2
	c1.2,0.9,1.9,2.7,3.8,2.5c0,0.2,0,0.3,0,0.5c0.1-0.1,0.3-0.2,0.4-0.4c-0.2,0-0.3,0-0.5,0c0.3-4.5-2-8.5-3-12.7
	c-0.6-2.5-2.5-2.7-4.6-2.9c-7.6-0.9-14.1-4.3-19.9-9.2c-1-0.9-2.6-1.8-2-3.4c0.5-1.4,2.1-1.7,3.5-1.8c5.6-0.7,11.2-1.3,16.6,2.1
	c-2.5-4.9-3.6-10.3-9.8-12.8C4.4,88.7-0.6,77,0.7,70.5c0.7-3.6,2.4-4.4,5.4-2.1c5.9,4.6,10.3,10.2,10.7,18c0.2,3.8,1.2,7.1,3.9,10.2
	c1.9-1.9,0.8-4.5,1.3-6.6c0.3-1.1,0.2-2.4,0.5-3.6c0.8-3.3,1.6-7.9,5-8.2c4-0.3,3.5,4.7,4.1,7.4c2.2,9.6,3.9,19.3-0.8,28.8
	c-0.4,0.8-0.6,2-0.3,2.9c3.3,11.3,6.8,22.5,10.6,33.6c0.9-11.5,0.5-23-0.7-34.4c-0.9-8.4-1.3-16.8-2.1-25.2C37.5,83.2,34,76,30,69
	c-0.9-1.6-2-2.9-4-3.4C16.4,63,13.2,55.4,11.8,46.7c-0.7-4.7,1.3-6.1,5.5-3.6c8.1,4.7,12.8,12,14.8,21c0.7,3.4,1.8,6.3,3.2,8.1
	c0-10.7,0-22.1,0-33.4c0-2.2-1.5-3.5-3-4.9c-5.3-5-9.8-10.6-12.4-17.6c-3.1-8.4-0.2-11.6,7.8-15c6.4-2.7,12.1-0.1,18-0.6
	c4.8-0.4,6.3,3.6,6,7.9c-0.6,9-4.5,16.6-10.2,23.3c-2.4,2.8-3.4,5.4-3,9.2c1.8,18.8,3.2,37.6,4.8,56.4c0.2,2,0.5,3.9,1,5.9
	c3.2-14.7,7.3-29.1,12.9-43.1c0.9-2.3-0.1-4.7-0.7-7.1c-1.4-5.3-2.6-10.6-0.1-15.9c1.8-3.8,4.2-6,8.4-2.6c0.9,0.7,2.1,1.3,3.2,1.6
	c6.8,2.1,7.8,4.3,4.9,10.7c-1.5,3.3-3.3,6.8-6.3,8.7c-6.6,4.2-8.4,10.8-10.3,17.6c-0.7,2.6-1.6,5.3-2.7,8.9c4.5-3,7.4-6.5,11.6-7.9
	c1.9-0.6,3.9-1.5,5.7,0.2c1.9,1.9,0.5,3.9-0.5,5.5c-4.6,7-8.9,14.5-17.9,16.9c-2.1,0.6-3.1,1.8-3.2,3.8c-0.2,3.2-1.2,6.3-0.3,9.5
	c-0.3,0.2-0.5,0.4-0.8,0.6c0.2,0.1,0.4,0.2,0.7,0.4C48.9,110.8,48.9,110.4,48.9,110.1z M23.3,112.1c-0.1,0.1-0.3,0.2-0.4,0.3
	C23,112.4,23.1,112.3,23.3,112.1c-4.8-3.9-9-9.4-17.4-6.1C11.8,109.2,16.6,113.2,23.3,112.1z M13.5,127.3l0.5-0.2L13.5,127.3
	c5.8,4.9,9.3,13,18.3,13.5C26.5,135.3,22.6,127.8,13.5,127.3z M48.7,130.9c8.9-9.1,16.1-17.7,17.1-30.9
	C54.6,107.4,48.6,116.8,48.7,130.9z M28.4,110c3-9.1,1.8-18-1.1-26.9C24.4,92.3,24.7,101.2,28.4,110z M27.8,62.2
	c-2.8-6.2-5.6-12.3-12.2-15.3C17.4,53.8,19.6,60.4,27.8,62.2z M13.8,89.7c-0.4-7.9-3-13.7-10.2-18.6C5.1,79,7,85.2,13.8,89.7z
	 M67.4,77.7c-8.4,3.4-13.3,8.9-14.5,15.6C59.7,89.7,63.5,83.6,67.4,77.7z"/>
</svg>
