<?xml version="1.0" encoding="utf-8"?>
<!-- Generator: Adobe Illustrator 25.3.0, SVG Export Plug-In . SVG Version: 6.00 Build 0)  -->
<svg version="1.1" id="Layer_1" xmlns="http://www.w3.org/2000/svg" xmlns:xlink="http://www.w3.org/1999/xlink" x="0px" y="0px"
	 viewBox="0 0 120.8 229.1" style="enable-background:new 0 0 120.8 229.1;" xml:space="preserve">
<path d="M44,163.4c1-3.6,1.7-6.6,2.7-9.6c0.5-1.5,1.2-3.3,3-3.3c1.5,0,2.2,1.6,2.7,2.9c2.4,7.5,3.8,15.1,0.1,22.6
	c-1.3,2.5-1.8,4.5-0.3,7.2c4,7.6,10.1,13.5,15.1,20.6c-0.2-8.6,1.8-16.9-1.4-25.6c-5.4-14.6-12.2-28.5-16.8-43.3
	c-0.5-1.5-0.7-3.2-2.7-3.5c-7.4-1.2-9.6-7.7-12.8-13c-0.9-1.4-1.8-3.4,0.1-4.8c1.6-1.2,3.5-0.9,5.1,0c2,1.1,3.9,2.6,5.9,4
	c-1-8.2-1.7-16.1-2.9-23.9c-0.9-6-4.7-10.9-7.2-16.3c-0.8-1.8-2.8-1.1-4.2-1.7c-2.1-0.9-3.9-2.1-4-4.7c-0.1-2.1,1.2-3.3,3.2-3.8
	c2.5-0.6,4.2,0.7,5.6,2.5c2.4,3.2,1.5,7.8,5.7,11.9c-0.7-7.3-1.2-13.4-1.8-19.5c-0.2-2-1.9-1.6-3.2-1.6c-2.4,0-4.8,0-7.1-0.2
	c-2.4-0.3-4.5-1.5-6.2-3.2c-1-1-2.2-2.6-0.7-3.5c2.8-1.8,4.4-3.1,2.6-7C23,44.2,27,43,31.6,45c1.1,0.5,1.9,1.5,3.5,1.1
	c0.6-4.1-0.9-10.4,5.2-10.7c5.8-0.3,3.1,6.1,4.5,9.3c2,0.3,3.2-1.4,4.9-1.9c1.8-0.5,3.6-2.3,5.5-0.3c1.7,1.8,0.6,3.8-0.1,5.6
	c-1.9,4.9-5.5,8.3-10.2,10.3c-2.7,1.1-3.6,2.5-3.2,5.3c1.5,11,2.8,21.9,4.8,33c1.3-5.5,7.7-9.5,4-16.5c-1.1-2,0.3-4.3,2.4-5.6
	c1.5-0.9,3.1-1.1,4.3,0.3c1.8,1.9,1.2,4.1,0.2,6.1c-1.9,3.9-4.5,7.5-5.8,12c2.3,0.5,5.8-1,5.9,2.9c0,3-2,5.1-4.8,5.2
	c-5.4,0.3-5.5,4.3-5.1,7.6c0.7,6.5,2.2,12.9,3.8,19.4c1.2-3.6,2.3-7.2,4.5-10.3c1-1.4,1.8-3.5,4-2.9c1.9,0.5,2.3,2.5,2.8,4.3
	c1.8,6.3-1.1,11.5-4.9,15.8c-2.9,3.2-3.1,6-1.4,9.6c4.5,9.5,8.5,19.2,12,29.4c1.9-0.9,1.2-2.4,1.3-3.5c1.6-24.7,0.6-49.2-4.2-73.6
	c-2.5-12.9-2.7-26.1,0.4-39.1c2.5-10.2,2.3-21,5.6-31.1c1.1-3.4-1.4-3.1-3.3-3.1c-4.5-0.1-8-2.1-10.7-5.6c-2.5-3.2-2.3-5.6,2-6.4
	c2.3-0.5,3.2-1,3-3.8c-0.4-5.6,2.3-7.1,7.3-4.4c1.9,1,3.7,3.7,5.6-0.1c0.9-1.8,2.4-3.8,4.5-3.3c2.7,0.7,1.9,3.6,2.3,5.6
	c0.2,1.2,0.3,2.3,0.4,3.4c1.4,1.1,2.3-0.2,3.4-0.4c2.5-0.6,5.2-2.1,7.3,0c2.2,2.2,0,4.5-1.3,6.3c-1.3,1.9-0.3,2.6,0.9,3.8
	c4,4.2,3.4,6.1-2.2,7.6c-3.7,1-7.6,1.1-11.1-0.7c-3.8-2-4.8-0.4-5.4,3c-1.1,6.7-2.3,13.3-2.4,20.6c3.2-2,5.2-4.1,4.8-7.8
	c-0.3-3.1,1.7-4.8,4.1-6c1.9-0.9,4.4-1.9,5.9,0.6c1.3,2.2-0.3,4.1-1.8,5.1C65.5,54.2,66.5,73.4,68.8,92.7
	c1.6,13.4,5.2,26.5,5.8,40.3c3.8-7.5,7.3-15.1,7.8-23.6c0.3-5.7-0.1-11.5-1.2-17.2c-0.5-2.8-0.8-5.3-3.8-6.9c-2.3-1.2-3-3.7-1.7-6.2
	c1-1.9,2.8-3.1,4.9-2.6c2.9,0.8,3.3,3.4,2.9,5.8c-1,5.3,1.6,10.2,1.9,15.4c3.5-7.5,4-15.7,5.7-23.7c0.3-1.5-1-2-2-2.6
	c-2.8-1.7-4.5-4.4-6.4-7c-1.9-2.6-2.6-4.9,1.9-5c3.4-0.1,2.4-2.5,2.4-4.3c0.2-6.6,0.7-7,6.3-3.8c1.6,0.9,2,0.1,2.9-0.7
	c1.3-1.2,3.9-1.8,4.1-0.5c1,6.4,8.4,8.8,8.7,15.4c0.1,2.3-0.2,4.4-2.3,5.7c-0.5,0.3-1,0.9-1.5,0.9C92.5,72,92.4,81.3,91.4,90
	c-0.1,1-0.3,1.9-0.6,3.6c3.4-2.2,5.2-5.5,8.6-6.5c2.2-0.6,4.9-1.9,6.7,0.2c1.7,2,0.9,4.7-0.2,6.8c-3,5.7-8.1,9.4-13.7,11.9
	c-3.9,1.8-5.6,4.3-6.6,8.3c-1.4,5.6-2.9,11.3-5.5,16.3c-4.8,9.1-6.1,18.5-6,28.7c0.1,10.1-1.1,20.2-1.6,30.4c0,0.9-0.7,1.9,0.7,2.7
	c4.2-12.6,8.9-25,15.2-36.7c1-1.9,0.4-3.2-0.5-4.9c-2.6-4.7-2.2-10-2.1-15.2c0-1.7,0.6-3.2,2.4-3.7c2-0.6,2.8,1,3.7,2.3
	c1.7,2.4,1.9,5.4,3.3,8.8c2.1-3.5,3.8-6.6,5.8-9.6c1.4-2.2,0-3.2-1.3-4.5c-3-2.8-4.9-6.2-5.3-10.4c-0.3-3.1,0.9-5,4-3.6
	c3.2,1.4,5,0.9,6.5-2.2c0.6-1.3,2.1-2.7,3.9-2c1.8,0.7,1.9,2.6,1.8,4.1c-0.3,3.3-0.5,6.1,4.4,4.6c1.1-0.3,2.4,0.9,2.3,2.2
	c-0.3,2.9,0.3,5.2,2.7,7.2c1.8,1.4,0.7,3.3-1,4.4c-3.7,2.3-7.6,3.5-11.9,1.5c-2.1-1-3.6-0.9-4.8,1.5c-3.6,7.3-7.5,14.4-11.9,22.9
	c5.2-2.9,9.1-5.9,14-6.4c2.3-0.2,5.2-1.3,6.6,1.1c1.3,2.3-1.3,3.9-2.5,5.6c-4.7,6.2-11.3,9.4-18.7,10.9c-4,0.8-5.8,3-7.3,6.7
	c-6.1,15.3-10.6,30.8-9.2,47.6c0.2,1.8,0.1,4-2,4.4c-2.7,0.5-3-2-3.3-3.9c-0.2-1.6-0.7-3.2-0.5-4.7c1.1-7.7-3.2-13.2-7.3-18.9
	c-1.5-2.1-2.8-2.5-5.4-1.8c-5.8,1.5-11-0.7-15.8-3.8c-2.9-1.9-2.5-3.7,0.4-5.3c3.3-1.8,7-1.2,10.7-1.8c-0.6-4.5-2.1-7-7.5-6.9
	c-6.5,0.1-12.4-2.7-17.3-7.1c-1.4-1.3-3.5-2.7-2.5-4.9c0.9-2.1,3.2-2,5.2-2.2c5-0.6,9.4,1.1,13.9,3.7c-1.9-6-3-12.1-7-17.2
	c-2.3-2.9-4.1-6.5-8.4-1.8c-1.8,2-5.1,1.9-6.7-0.9c-1.5-2.6,0.6-4.5,2.7-5.8c1-0.6,2.2-0.8,3.6-1.2c-1.2-3-3.6-4-6.6-4
	c-1.2,0-2.5,0-3.5-0.4c-2.3-0.9-3.3-2.8-3.4-5.2c0-2,1-3.5,2.9-4c2.3-0.7,3.7,0.6,5.1,2.3c4.2,5,8.5,9.9,13.7,14.4
	c-3.5-11.4-7-22.8-10.7-34.9c-3,3.1-5.2,6.3-8.7,7.9c-2.6,1.2-5.5,2.4-7.7-0.1c-1.9-2.3,0.5-4.3,1.8-6.2c0.3-0.5,0.4-1.1,0.6-1.7
	c-2.3-0.8-4.6-1.5-6.7-2.5c-1.6-0.8-3.1-2.1-2.9-4.1c0.2-2,2.1-2.2,3.5-2.7c0.9-0.3,1.9-0.7,2.9-0.8c2.7-0.2,3.8-0.8,2.7-4.1
	c-1.7-5-0.7-6.2,4.6-5.5c2.6,0.3,3.5,0,3.9-2.6c0.3-2.2,1.6-4.3,4.1-4.5c2.7-0.2,3.6,2.2,4.4,4.2c2,5.4,2.7,10.8-0.2,16.1
	c-0.7,1.4-1.7,2.6-0.9,4.4c7.5,16.9,11.8,35,18.3,52.3C43.3,162.8,43.5,162.9,44,163.4z M97.6,70.6c3.9,0.9,6.7-0.4,9.7-4.4
	c-4.9,0.4-6.9,3.3-9.8,4.5l0.2,0.3L97.6,70.6z M107,155.8c-8.7,1.1-14.1,5.9-20,12C95.3,165.9,102.2,163.3,107,155.8z M90.9,102.5
	c4.7-2.2,8.7-5,11.6-9c0.6-0.9,1.4-2.1,0.4-3.2c-1.1-1.2-2.3-0.2-3.2,0.4C95.3,93.5,92.8,97.8,90.9,102.5z M49.1,175
	c3.1-6.4,2.9-12.9,0.4-20.8C47.2,162.1,47.1,168.5,49.1,175z M44,178.3c-4.8-3.8-9.3-8.5-17.2-6.4C32.1,176.6,37.7,178.5,44,178.3z
	 M46.2,128.7c-0.5-5.9-4.2-10.4-10.4-12.3C38.3,121.5,41.4,125.6,46.2,128.7z M41,193.4c4.7,3.1,9.2,4.1,14.9,2.7
	C51.3,191.1,46.6,191.5,41,193.4z M75.3,18.4c4-4.6,4.3-6.7,2.4-13.2C74.8,9.1,72.7,12.9,75.3,18.4z M18.9,108.1
	c-5-3.8-9.3-4.9-14.7-1.4C9,109.1,13.3,109.7,18.9,108.1z M52.8,44.7c-6.3,1.7-8.9,5.2-9.6,11.2C47.8,53.2,51.3,50.6,52.8,44.7z
	 M70.9,15.4c0-2.3,0.5-4.5-0.1-6.4c-0.7-2-2.8-4.2-4.9-3.3c-2.4,1.1-0.6,3.5,0.4,5.1C67.4,12.6,68.4,14.5,70.9,15.4z M40,52.2
	c1.6-5.6,2.3-9.7,0.2-14.5C37,42.5,38.3,46.5,40,52.2z M60.1,14.9c4.3,5,4.5,5.1,10.2,4.2C67.3,17,65.3,13.1,60.1,14.9z M95.5,67.9
	c3.2-1.3,5.3-3.1,7.3-5c0.7-0.7,1.5-1.5,0.8-2.5c-0.6-1-1.7-0.7-2.6-0.4C97.6,61.1,96.4,63.9,95.5,67.9z M21.3,89
	c-2.3,5.9-2,7.2,2.8,11.1C24.1,96,24.9,92.2,21.3,89z M11.6,95.9c1.8,4.8,4.7,6.9,9,8.8C19.3,99.6,17.2,96.8,11.6,95.9z M89.9,11
	c-5.1,0.6-8.1,2.1-8.7,7.4C85.5,17.2,88.1,15.2,89.9,11z M28.4,47.9c2,3.5,4.5,6.6,9.3,7.9C35.9,50.7,32.6,48.7,28.4,47.9z
	 M89,137.1c-0.5,3.8-0.4,7.4,1.9,10.6C91.4,144,91.4,140.3,89,137.1z M90.4,53.2c-0.7,3.4-1.3,6.9,2.5,10.6
	C92.6,59.4,92.6,56.1,90.4,53.2z M55.5,130.6c2.7-3,4-6.4,2.7-11.7C56.3,123.5,55.2,126.8,55.5,130.6z M9.9,118.6
	c4.7-1.2,7.2-3.1,9.7-6.9C15.4,113,12.4,114,9.9,118.6z M82.4,23c2.9,0.4,5.5,1.1,7.8-0.7c0.8-0.6-0.1-1.6-0.6-1.9
	C86.7,19.2,84.6,20.8,82.4,23z M97.8,118.8c0.2,3.8,1.8,6.1,5.1,9C101.7,123.7,102.1,120.4,97.8,118.8z M106,122.6
	c1.6-2.4,1.8-4.8,0.9-8C104.1,117.4,105.1,120,106,122.6z M31.5,56.6c-1.8-1.5-2.8-3.5-5.4-2.9c-0.8,0.2-1.5,0.9-0.8,1.6
	C26.8,56.8,28.8,57.5,31.5,56.6z M96,58.9c2.4-1.8,3-3.8,2.6-7.4C96.2,54.2,95.3,56.1,96,58.9z M108.9,131.8
	c3.4,1.1,5.6,0.4,8.2-1.6C113.8,128.5,111.7,129.7,108.9,131.8z M19.3,136.3c-0.7-1.1-1.2-2.4-2.7-2.6c-1.1-0.1-1.2,0.9-1.2,1.6
	c0,1.6,1.2,2.3,2.7,2.4C19.1,137.9,19.5,137.3,19.3,136.3z M22.4,150c2.7,0.5,4.1-0.3,5.6-3.1C25.5,147.3,23.8,147.2,22.4,150z
	 M85.9,63.5c1.5,2.6,2.5,4.1,5.1,5.2C90.1,66,88.8,64.8,85.9,63.5z M108.6,127.6c2.8-1.2,4.6-1.9,5-4.9
	C111.4,123.9,110,124.9,108.6,127.6z M50.3,98.5c2.4,0.2,3.7-0.6,5-3.4C52.7,95.9,51.3,96.2,50.3,98.5z M33.3,71.9
	c-0.9-0.9-1.4-2.1-2.8-1.8c-0.6,0.1-1.1,0.5-0.8,1.2c0.4,1.2,1.3,1.8,2.6,1.7C32.6,73,32.9,72.4,33.3,71.9z M55.2,78.4
	c-0.2-0.2-0.5-0.9-0.9-0.9c-1-0.1-1.3,0.8-1.3,1.6c-0.1,0.7,0,1.7,1.1,1.5C55,80.3,55,79.4,55.2,78.4z M80.5,82.2
	c0.1-1.2,0.1-2.2-1.1-2.5c-0.3-0.1-1,0.6-1.1,1.1c-0.4,1.1,0.3,1.8,1.1,2.3C79.6,83.2,80.2,82.5,80.5,82.2z M82.6,39.4
	c-0.2-0.5-0.3-0.8-0.4-1.1c-0.6,0.4-1.4,0.7-1.9,1.2c-0.3,0.3-0.2,1.2,0.5,1.1C81.5,40.5,82,39.8,82.6,39.4z"/>
</svg>
