<?xml version="1.0" encoding="utf-8"?>
<!-- Generator: Adobe Illustrator 25.3.0, SVG Export Plug-In . SVG Version: 6.00 Build 0)  -->
<svg version="1.1" id="Layer_1" xmlns="http://www.w3.org/2000/svg" xmlns:xlink="http://www.w3.org/1999/xlink" x="0px" y="0px"
	 viewBox="0 0 94.1 223.4" style="enable-background:new 0 0 94.1 223.4;" xml:space="preserve">
<path d="M45.7,179.5c0-14.1,0-28.2,0-42.3c0-2.6-1.9-3.8-3.9-4.9c-5.7-3-11.5-5.8-16.9-9.3C7.9,111.7-0.8,95.9,0.1,75.3
	c0.1-1.5-0.5-3.3,1.2-4.3c2.1-1.2,3.1,0.9,4.4,1.9c0.9,0.7,1.8,1.4,2.8,1.8c16.2,7.4,29.4,17.9,36.9,35c-0.4-6.3-0.8-12.6-1.2-18.9
	c-0.2-2.7-2.3-3.5-4.2-4.6c-5.9-3.7-11-8.2-14.2-14.6c-1.6-3.2-1.2-4.5,2.7-4.1c5,0.5,9.2,2.7,13,6c1.6-2.4,0.8-4.3,0.6-6.2
	c-0.8-9.2-3-10.3-11.7-6.3c-2.6,1.2-5.2,2.5-7.9,3.5c-1.7,0.7-3.7,0.9-4.9-0.7c-1.5-1.7-0.3-3.6,1-4.7c3.4-2.7,0.8-3.5-0.9-5.8
	C9,42.5,1.2,31.1,6.3,16c0.9-2.6,2-6.2,4.5-6.1c7.2,0.4,8.6-12.4,17.1-7.3c3.1,1.8,5.1,1.5,7.6-0.5c4.4-3.6,8.4-2.1,11.7,1.7
	c13.2,15.3,18.5,36.3,0.2,52.2c-2.1,1.8-2.9,3.6-2.5,6.3C48,84,50,105.8,50.6,127.8c3.7-11.1,6.7-22.4,11.7-33
	c1.1-2.4-0.4-4.8-1-7.1c-3-11.2,0.3-20.9,9.4-27.6c3.3-2.4,6.7-3.4,10.4-0.6c0.2,0.1,0.3,0.3,0.5,0.4c14.8,8.7,15.1,8.8,8,24
	c-3.4,7.3-11,10.2-18.5,11.4c-4.2,0.6-6.1,2.5-7.5,6.1c-3.8,9.7-6.4,19.7-8.9,29.9c2.2,1,2.7-1,3.7-1.9c3.6-3.1,7.3-5.9,11.7-7.4
	c2.7-0.9,5.7-1.9,8.1,0.6c2.2,2.4-0.1,4.5-0.9,6.7C73,140.7,65.9,148.9,53.4,151c-3.1,0.5-3.3,2.2-3.4,4.6
	c-0.4,20.4-4.1,40.6-4.1,61.1c0,1.1,0.1,2.2-0.1,3.3c-0.2,1.5-0.4,3.5-2.3,3.4c-2.1-0.2-1.6-2.4-1.6-3.8c0.6-15.4-1.3-30.5-3.7-45.6
	c-0.6-3.6-1.6-6.6-4.4-9.3c-4.6-4.6-8.5-9.8-8.5-16.8c0-2.3-0.4-5.3,2.5-6.3c2.4-0.8,4.1,1.1,5.7,2.6c3.5,3.4,5.9,7.7,5.7,12.4
	c-0.3,8,3.2,15.1,3.8,22.8C43.9,179.4,44.8,179.5,45.7,179.5z M52.7,146.4c8.3-1.1,14.4-5.1,17.4-13.2c0.7,0.3,1.2,0.3,0.8-0.7
	c-0.2,0.3-0.5,0.6-0.7,0.8c-5.8,4.4-11.6,8.8-17.3,13.2c-0.1,0.1-0.3,0.2-0.4,0.3c0,0.1,0,0.2,0.1,0.3
	C52.6,146.9,52.6,146.6,52.7,146.4z M87.4,66.8c0-0.2,0-0.3,0-0.5c-0.1,0.1-0.3,0.2-0.4,0.3c0.2,0,0.3,0,0.5,0
	c-1,4-1.1,8.3-3.7,11.8c-0.5,0.7-1.1,1.6-0.3,2.3c0.9,0.8,2.1,0.7,3.1,0.1C90.8,78.3,91.2,70.9,87.4,66.8z M42.8,35.2
	c0.4-11.3-0.7-21.8-12.6-27.4c-7.1-3.4-8.6-2.7-10.7,5.1C16,25.7,22.2,35.2,29.6,44.4c-2.2-5.7-5.3-11.1-4.3-17.5
	c0.7-4.3,2.6-5.4,6.2-2.8C35.7,27.2,39.2,31.1,42.8,35.2z M43.3,123.2c-3.2-20.6-18.4-38.5-36.7-44.1C19,94,30.9,108.4,43.3,123.2z
	 M39.6,125.5C28.5,109.5,15,97.2,4.5,82.4C7.3,103.6,19.6,117,39.6,125.5z M83.8,69c0.4-2.9-1.9-4.2-4.2-5.6
	C77,62,75,62.5,72.8,64.1c-5.3,3.7-4.5,8.5-2.6,13.5c0.7,1.9-1.1,5.3,1.9,5.5c2.3,0.1,5.6-0.5,7.2-2.7C81.5,77.1,83.7,73.7,83.8,69z
	 M24.3,43.8C14.1,31.2,14,31.1,14.9,15.2c0.1-1.1,0.7-2.4-0.7-2.8c-2-0.6-3.7,0.8-4.2,2.4c-1,3.6-1.8,7.3-1.9,11
	C7.8,35.8,13.9,42.6,24.3,43.8z M47.1,29c1-2.2,1.5-3.1,1.9-4c2.9-6.3,0.3-15.7-5.3-19.6c-2.1-1.4-4.1-1.6-6.1,0
	c-1.4,1.1-0.8,2.3,0.3,3.3C43.5,13.6,45,20.6,47.1,29z M29.2,26c-1,9.6,5,21.1,12.6,25.1C42.4,40.5,37.2,33.1,29.2,26z M54.5,24.4
	c-7.2,14-8.8,19.8-7.3,25.9C54.4,43.2,56.5,36.3,54.5,24.4z M17,46.7c6.7,7.7,13.7,9.9,20.6,7.2C31.9,49,25.2,47.4,17,46.7z
	 M53.7,141.4c6.5-4.2,12.9-8.7,17.6-15C63.6,129.2,58,134.5,53.7,141.4z M67.4,92c7-0.9,11.8-2.8,16.7-7.6
	C77.3,85.2,71.6,85,67.4,92z M29.8,70.9c3.8,6.6,7,9.5,12.4,11.4C40.6,76.3,36.2,73.3,29.8,70.9z M30,145.5c-2,6.6,2.1,10,5.3,15.3
	C36,154,34.4,149.7,30,145.5z M65.4,87.6c2.6-5.3,1.6-9.9-0.7-14.3C63.5,77.9,63,82.5,65.4,87.6z M21,61.4c2.5-1.1,4.4-0.9,4.7-3.2
	C23.4,57.6,22.5,59,21,61.4z"/>
</svg>
