<?xml version="1.0" encoding="utf-8"?>
<!-- Generator: Adobe Illustrator 25.3.0, SVG Export Plug-In . SVG Version: 6.00 Build 0)  -->
<svg version="1.1" id="Layer_1" xmlns="http://www.w3.org/2000/svg" xmlns:xlink="http://www.w3.org/1999/xlink" x="0px" y="0px"
	 viewBox="0 0 93.3 227.5" style="enable-background:new 0 0 93.3 227.5;" xml:space="preserve">
<g>
	<path d="M92.4,188.1c-4.1-6.8-8.3-13.4-17.8-13.7c2.2-2.7,3.9-4.8,5.7-6.9c1.1-1.4,2.5-2.4,4.3-2.7c1.2-0.2,2.9-0.7,3.5,0.8
		c0.8,1.9-1.5,1.6-2.3,2.3c-0.2,0.2-0.1,0.5-0.2,0.9c2.3,1.4,4.2,0.3,4.6-1.8c1.2-5.4-4.2-3.7-6.7-5.1c0.9-1.4,1.8-0.6,2.5-0.4
		c2.2,0.6,3.7-0.2,4.5-2.1c0.7-1.7,0.5-3.4-1.3-4.6c-2-1.3-4.1-1-5.2,1c-1.1,2-1.8,1.2-3.1,0.4c-1.4-0.9-3.1-1-4.4,0.1
		c-1.2,0.9-1.8,2.1-0.5,4c1.3-1.1,2-3.6,4-2c1.9,1.5,1.6,3.7,0.4,5.4c-1.9,2.7-3.8,5.6-7,8c-0.3-8.2-4.9-13.5-10.3-18.2
		c-0.9-0.8-1.9-2.1-3.3-1.6c-1.3,0.5-1.3,2.1-1.4,3.4c-0.4,9.1,1.3,17.2,11.3,21.3c-6.1,6.3-11.9,12.2-17.7,18.2
		c-0.7,0.7-1.3,1.9-2.4,1.5c-1.3-0.4-1.1-1.9-1.1-3c-1.6-23.2-2.3-46.4-2.7-69.6c0-2.4,0.7-4,2.6-5.4c5.2-3.9,10.3-7.8,15.2-11.9
		c2.2-1.9,3.5-2.1,5.5,0.3c5.2,6,11.7,9.6,20,8.8c3.5-0.3,4-1.3,2.2-4.3c-4.4-7.5-10.9-11.4-20.6-10.7c4.6-3.6,7.2-7.6,10.5-10.9
		c1.5-1.5,3.9-2.7,5.8-0.9c2,2-1.9,2.3-1.8,4.4c2.5,0.5,4.1-0.6,4.5-3c0.4-2.7-1.4-4.4-3.8-4c-3.2,0.4-4.4-0.7-4.7-3.7
		c-0.1-0.8-0.6-1.7-1.2-2.2c-1.9-1.7-4.1-2.3-6.2-0.7c-1.8,1.3-2.4,3.1-0.4,5.1c1.3-1.4,0.8-4.8,3.9-3.6c2.4,0.9,2.7,3.1,2.4,5.4
		c-0.1,0.4-0.2,0.8-0.4,1.2c-2.2,4.4-5.5,7.8-9.4,10.7c-1.1-1.1-0.7-2.2-0.6-3.1c0.8-6.4-2-11.4-6-16c-0.8-0.9-1.5-2.4-3-1.9
		c-1.3,0.4-1.2,1.9-1.5,2.9c-1.8,7.4-0.8,14.2,4.6,20c0.8,0.8,2.5,1.7,0.9,3.1c-5.8,4.7-11.7,9.4-17.8,14.2c-0.3-1-0.5-1.3-0.5-1.5
		c0-21.1,0-42.2,0-63.2c0-1.3,0.2-2.5,1.2-3.5c4.8-4.3,9.5-8.7,14.3-13.1c4.1,6.1,10.4,6.5,16.8,6.4c1.2,0,2.9,0.4,3.3-1.2
		c0.3-1.4-1-2.3-2-3.1c-3.8-3.3-7.9-6.1-13.8-6.4c1.8-1.9,3-3.2,4.3-4.6c1.6-1.8,3.6-2.3,5.8-1.9c2.4,0.5,1.4,2.8,2.1,4.2
		c0.1,0.2,0.5,0.2,0.7,0.3c1.7-3.1,0.9-6.2-2.2-6.4c-3.1-0.3-3.2-1.6-3.3-4c0-1.8-1.2-3.2-3-3.8c-1.4-0.4-2.9-0.5-4,0.6
		c-0.5,0.5-0.9,1.2-0.5,1.9c0.4,0.7,1,0.4,1.5,0.1c1.2-1,2.4-0.9,3.4,0.2c1.1,1.3,0.8,2.7,0.1,4c-1.5,2.7-3.3,5.2-6.5,7.2
		c0.2-5.4-1.9-9.4-4.9-13c-0.8-0.9-1.4-2.5-3-2c-1.1,0.4-1.2,1.9-1.3,3c-0.5,4.8-0.1,9.6,2.9,13.6c1.8,2.4,1.6,3.8-0.5,5.6
		c-2.2,1.8-4.1,4.1-6.2,5.9c-1.5,1.3-2.7,3.2-5.4,3.7c0-8.5,0-16.7,0-24.9c0-2.3-0.1-4.6,0.6-6.8c0.6-1.9,0.7-4.1,3.4-4.4
		c2.8-0.2,1,2.9,2.8,3.7c1.6-1.7,1.9-3.7,0-5.1c-3.6-2.7-5.9,0.3-8.1,2.8c-1.2-2.6-2.5-4.7-5.6-3.8c-1.7,0.4-2.9,1.4-3,3.2
		c-0.1,1.7,0.3,3.4,2.6,3.6c0.9-1.7-1.9-4.4,1.2-4.7c2.7-0.3,2.5,2.6,3.2,4.3c0.2,0.6,0.1,1.4,0.3,2.1c1.1,7,0.7,14,0.8,21
		c0,2.9,0,5.8,0,9.7c-6-4.1-10.4-8.4-14.9-12.5c-1.7-1.6,0.2-2.2,1.1-2.8c4.7-3,6.5-7.5,6.3-12.8c-0.1-3.3-1-3.8-4-2.2
		c-4.8,2.5-7.9,6.4-8.4,12.7c-1.7-2-2.8-3.3-3.8-4.6c-1.2-1.6-2.6-3.1-1.6-5.4c1.1-2.7,3.3-0.1,4.8-0.9c-1.8-3-4.5-3.7-5.8-1.1
		c-1.6,3.2-3.1,5.7-6.9,6.6c-1.6,0.4-2.2,2.5-1.2,4.4c0.3,0.5,0.8,0.9,1.4,0.8c1-0.1,0.9-0.7,0.6-1.5c-0.7-2.6,1.1-2.9,3-2.8
		c3.7,0.3,5.7,2.7,7.4,6c-2,0.5-3.8,0.9-5.5,1.4c-3.7,1.1-6.7,3.3-8.6,6.7c-0.6,1.1-1.8,2.2-1.1,3.5c0.8,1.4,2.5,1.2,3.9,1.1
		c5.4-0.4,10-2.6,13.3-6.9c1.4-1.9,2.2-1.9,3.9-0.4c4.1,3.8,8.3,7.5,12.8,10.9c2.4,1.9,3.3,3.8,3.3,6.9c-0.2,19.6-0.1,39.3-0.2,58.9
		c0,1.1,0.3,2.2-0.6,3.6c-5.1-4.5-10.3-8.7-15-13.8c8.3-4.7,11.9-12.8,10.3-21.7c-0.7-3.5-1.3-3.8-4-1.6
		c-5.7,4.8-10.6,10.1-10.7,19.1c-2.4-2.5-4.2-4.3-5.8-6.2c-1.4-1.8-2.1-4-0.4-5.9c2.1-2.2,2.9,1.2,4.6,1.5c1-2.2,0.2-3.5-1.8-4.1
		c-1.9-0.5-4.2-0.4-4.8,1.7c-0.9,3.4-2.3,5.6-6.3,5.8C7.5,92,7,94,7.4,95.7c0.3,1.6,1.5,2.4,3.1,2.6c0.7,0.1,1.5,0.1,1.7-0.9
		c0.2-0.7-0.4-1-1-1.1c-1.1-0.2-2-0.7-1.5-2c0.5-1.2,1.7-1,2.6-0.9c4.7,0.6,7.1,4,9.7,7.7c-2,0.3-3.7,0.3-5.1,0.7
		c-7.1,2.3-10.2,8.4-13.5,14.3c-1,1.8,0.9,2.1,2.2,1.9c8.6-1.6,16.9-3.8,20.1-13.8c5.8,5.2,11.3,10.2,16.8,15.2
		c1.2,1.1,1.3,2.4,1.3,3.9c0.3,23.2,1.1,46.4,2.6,69.6c0.1,1.1,0.5,2.3-0.9,3.7c-6-5.4-12.1-10.8-18.1-16.2
		c-1.4-1.2-0.1-1.9,0.7-2.7c5.6-5.8,6.8-12.7,4.9-20.3c-0.3-1.2-0.4-2.8-1.9-3c-1.2-0.2-1.9,1.1-2.6,2c-4.9,5.5-7.4,11.7-6.3,19.7
		c-2.4-1.7-4.1-3.8-5.9-5.8c-1.8-2-3.5-4.2-4.4-6.8c-0.7-1.8,0-3.2,1.8-3.7c1.5-0.4,2.9-0.2,3.1,1.8c0.1,0.7,0,1.5,1.2,1.6
		c1.5-2.4,0.8-4.3-1.6-5.5c-2.3-1.2-6,0.1-6.3,2.6c-0.4,3.6-2.4,3.7-5,3.5c-2.1,1.5-3.7,3.3-2,6c0.9,1.4,2.3,2.4,4.3,1
		c-0.9-1.5-4.1-1.8-2.4-4c1.5-1.9,3.4-0.5,5.1,0.1c0.4,0.1,0.8,0.4,1.1,0.7c2.8,3.1,5.5,6.3,8.7,9.8c-8.9-0.1-14.8,3.9-18.9,10.9
		c-1.9,3.1-1.5,3.8,2.2,4.2c8.2,1,14.5-2.7,19.7-8.4c2-2.2,3.2-2,5.1-0.2c5.5,5.1,11.1,10,16.7,14.9c1.5,1.3,2.2,2.7,2.5,4.7
		c0.8,7,1.5,14,3.6,20.7c0.4,1.4,0.5,3.5,3.5,3.3c-3.1-7.3-3.8-14.7-4.8-22.1c-0.3-1.9-1.1-4.1,0.6-5.7c7-6.7,14.1-13.3,21.2-19.9
		c3.4,7.5,10.7,10.2,18.9,11.6c1,0.2,2.2,0.4,2.8-0.5C93.7,189.9,92.9,188.9,92.4,188.1z M86.9,156.4c1-0.1,1.5,0.6,1.6,1.4
		c0,1-0.3,1.8-1.3,1.8c-0.9,0-1.6-0.5-1.7-1.5C85.5,157.2,85.9,156.5,86.9,156.4z M89.6,113.2c-8.2,1.2-16.1-2.7-19.9-9.7
		C78.8,100.5,86.7,106,89.6,113.2z M64.1,98c-4.1-5-4.6-10.8-3.2-17.6c5.6,4.9,6.9,10.6,6.1,17c-0.1,0.7-0.1,1.6-0.9,1.8
		C65.2,99.5,64.6,98.7,64.1,98z M64.4,35.4c0.5-1.3,2.1-1.3,3.4-1.2c4.1,0.4,7.3,2.8,10.8,6.1c-4.7,0.6-8.5-0.1-12.1-2
		C65.3,37.7,63.9,36.8,64.4,35.4z M57.6,18.9c4,3.4,4.8,7.5,4,12.3C57.9,29.7,56.2,24.7,57.6,18.9z M21.8,36.7
		c-3.4,3.4-7.3,5.6-12.8,5c2.6-5.1,6.7-6.9,11.3-7.7c0.8-0.1,1.8-0.3,2.3,0.5C23.2,35.4,22.3,36.2,21.8,36.7z M26.5,31.5
		c-0.6-6.4,1.5-9.7,7.4-12.1C34.6,25.4,32.6,28.8,26.5,31.5z M18,111.7c-3.4,2.3-7.2,3.4-12,4.1c2.2-4.2,4.4-7.3,7.4-9.8
		c2.7-2.2,8-3.2,9.2-1.8C23.7,105.5,21.3,109.5,18,111.7z M26,97.5c-0.1-7.1,4.7-11.2,9.7-15.9c2,6.9-0.8,15.3-5.5,18.1
		C27.1,101.5,26,101,26,97.5z M21.2,183.1c-5,4.9-10.6,8.5-18.2,7c3.3-7.3,9.1-11,16.5-10.6c1.1,0.1,2.5,0,3,1.1
		C22.9,181.6,21.9,182.4,21.2,183.1z M25.4,176.6c-2.5-7.6-0.1-13.6,4.9-19C33.6,163.4,31,173.6,25.4,176.6z M70.1,173.5
		c-1.5,0.9-2.8-0.2-3.9-1c-5.5-4.5-5.9-10.6-5.7-18.1c5.6,4.5,9.7,8.8,10.5,15.2C71.2,171,71.5,172.6,70.1,173.5z M89.5,189.1
		c-5.5-1.2-11-2.5-14.6-7.6c-0.8-1.1-1.9-2.5-1.2-3.9c0.9-1.6,2.9-1,4.3-0.7c4.2,0.8,7,3.7,9.3,7c1,1.4,1.8,2.8,2.7,4.3
		C89.9,188.6,89.7,188.8,89.5,189.1z"/>
	<path d="M8.9,157.1c-0.7-2-2.4-2.9-4.4-2.8c-2.3,0.2-3.6,1.8-3.9,3.9c-0.4,2.9,1.1,4.6,3.8,5.3c0.3,0.1,0.6,0.1,0.8,0.2
		c0.3-0.2,0.6-0.5,1-0.7C8.6,161.7,9.9,159.9,8.9,157.1z M2.8,159.1c-0.1-1.4,0.6-2.4,2-2.8c1.2,0.3,2.3,0.9,2.3,2.2
		c0,1.4-0.9,2.4-2.4,2.5C3.6,161,2.9,160.3,2.8,159.1z"/>
	<path d="M5.2,163.7C5.2,163.7,5.2,163.7,5.2,163.7C5.1,163.7,5.1,163.7,5.2,163.7C5.2,163.7,5.2,163.7,5.2,163.7
		C5.2,163.7,5.2,163.7,5.2,163.7z"/>
	<path d="M87.3,84.8c2.3-0.1,4.4-2.3,4-4.6c-0.4-2.5-1.7-4.2-4.4-4.4c-2.6,0.4-4.3,1.7-4.4,4.5C82.4,82.6,84.9,84.8,87.3,84.8z
		 M86.7,78c1.5-0.2,2.4,0.8,2.6,2.2c0.2,1.3-0.6,2.1-1.8,2.4c-1.4-0.1-2.4-0.9-2.6-2.3C84.5,79,85.5,78.2,86.7,78z"/>
	<path d="M11.7,21.1c2.6-0.3,3.8-2,3.9-4.4c0.1-2.8-1.8-3.7-4.3-3.8c-2.3,0.3-4.1,1.3-4.1,4C7.2,19.3,9.4,21.3,11.7,21.1z
		 M11.3,15.1c1.1,0,2,0.2,2.2,1.4c0.2,1.3-0.5,2.2-1.8,2.3c-1.4,0.2-2.2-0.7-2.2-1.9C9.3,15.9,10.1,15.2,11.3,15.1z"/>
	<path d="M44.5,7.7c2.3,0,3.8-1.3,3.9-3.7c0-2.5-1.3-4-4.4-4.1c-1.9,0.3-3.8,1.1-3.7,3.9C40.4,6.5,42.1,7.7,44.5,7.7z M42.6,3.6
		c0.1-1.3,1.1-1.5,2.2-1.4c1.1,0.1,1.4,0.8,1.5,1.7c-0.1,1.3-1,1.9-2,1.9C43.1,5.7,42.5,4.8,42.6,3.6z"/>
	<path d="M13.4,86.4c-0.1-2-1.5-3.3-3.8-3.3c-2.3,0-3.7,1.4-3.6,3.8c0.1,2.4,1.5,3.7,3.8,3.7C12.1,90.6,13.3,89.2,13.4,86.4z
		 M8.1,86.6c0.1-0.8,0.7-1.2,1.5-1.1c1.1,0.1,1.5,0.8,1.3,1.7c-0.1,0.7-0.7,1.2-1.5,1.2C8.5,88.2,8,87.6,8.1,86.6z"/>
	<path d="M78.5,21.5c2.2-0.1,3.8-1.5,3.7-3.9c-0.1-2.4-1.7-3.4-4.1-3.8c-2,0.5-3.6,1.5-3.5,4C74.7,20.3,76.2,21.6,78.5,21.5z
		 M78.1,16.1c1.1,0.1,1.7,0.7,1.7,1.7c0,0.9-0.5,1.7-1.5,1.7c-1,0-1.5-0.7-1.6-1.7C76.8,16.8,77.2,16.1,78.1,16.1z"/>
</g>
</svg>
