<?xml version="1.0" encoding="utf-8"?>
<!-- Generator: Adobe Illustrator 25.3.0, SVG Export Plug-In . SVG Version: 6.00 Build 0)  -->
<svg version="1.1" id="Layer_1" xmlns="http://www.w3.org/2000/svg" xmlns:xlink="http://www.w3.org/1999/xlink" x="0px" y="0px"
	 viewBox="0 0 101 224.3" style="enable-background:new 0 0 101 224.3;" xml:space="preserve">
<path d="M51.9,81.4c-1.4-10.7-2.8-21.5-4.2-32.2c-0.1-0.7-0.5-1.9-0.9-2c-7.5-2.1-5-7.6-4.5-12.5c0.1-0.5-0.2-1.1-0.3-1.9
	c-5.4,2.9-10.9,4.6-16,0.3c-2.6-2.1-2.4-5.4-1.1-8.2c3.3-7,9.7-3.1,15.1-3.9c-0.4-3-3.2-4.4-4.4-6.7C33.5,10.5,33,7,36.1,3.9
	c3.3-3.2,7.4-5,11.9-3.2c4.1,1.6,4.7,5.4,4.3,9.4c-0.2,2.1-0.4,4.3-0.6,6.7c5-0.5,8.4-6.1,13.5-3.2c2.4,1.4,3,4.1,3.3,6.7
	c0.6,3.9,0.9,8-4.3,8.8c-3.6,0.5-7.4,0.1-11.2,0.1c0.1,3,2.2,4.8,3,7.2c1.2,3.7,2.4,7.3-2.3,9.7c-2.5,1.3-1.3,3.5-1.1,5.3
	c1.8,16.1,3.8,32.1,5.6,48.2c0.7,6.8,1,13.6,1.9,20.3c2.6-16.3,4.7-32.7,9.1-49.6c-6.1,3.2-8.2,0.3-9.5-4.6c-1.6-6.5,3-7.1,7.8-8
	c-1.4-3-2.8-5.5-3.7-8.1c-1.1-3.3-1.7-6.7,3.2-7.8c5.6-1.3,9.5,0.2,10.4,4.6c0.4,2.2,0.3,4.6,0.5,7c4.4-0.2,7-7.7,11.3-3.5
	c3.2,3.1,2.9,8.5,1.9,13c-1.1,5.1-5.7,2.8-9.3,3.5c1.7,3,4.7,6,1,9.3c-3.5,3.1-7,3.4-11.1-0.8c-4.2,30.7-11.1,60-10.8,90.4
	c2.4-0.6,2.1-2.5,2.5-3.8c3.5-10.9,6.7-21.9,12.4-31.9c2-3.4,1.7-5.2-1.3-7.8c-5-4.2-5.5-8.4-2.2-11.5c4.2-4,6.3-3.3,10.5,4.1
	c2.4-1.9,3.1-4.9,4.6-7.3c2.3-3.6,5.4-4.3,9.2-3c5,1.8,5.7,5,1.9,8.9c-1.5,1.5-3.4,2.7-5,4.2c-1.4,1.3-3.6,1.7-4.2,4
	c2,2.2,5,2.2,7.3,3.8c3.3,2.2,3.3,4.7,0.6,7.3c-6,6-11.1,4.6-16.6-4.9c-3.7,7-6.4,14-9.3,22.1c4.9-1.8,8.5-4.7,13-4
	c1.9,0.3,4.2,0,5.1,2.2c0.7,2-1,3.3-2.1,4.6c-3.9,4.8-9.5,6.3-15.2,7c-3.1,0.3-4.2,1.6-5.2,4.3c-3.6,9.5-5.9,19.1-5.7,29.4
	c0.1,7.7-0.8,15.4-1.4,23c-0.2,2.6-0.4,5.4-2.6,8.4c-2-3.5-1.6-6.5-1.4-9.5c0.6-9.8,1.6-19.7-1.3-29.4c-0.8-2.8-1.8-4.3-4.7-5.2
	c-13.4-4-21.6-14-28.7-25.2c-1.7-2.7-0.6-4,2.5-4c4.7,0.1,8.8,1.9,12.5,4.7c4.8,3.5,8.5,8.1,12.4,12.5
	c-5.7-13.6-12.3-26.7-20.5-39.9c-1.8,3.5-0.5,7.9-4.8,9.2c-3.3,1-6.9,1.4-9.9-0.1c-6.3-3-0.8-6.9-0.4-10.6c-1.3-1.2-2.3,0.4-3.5,0.6
	c-4.2,0.9-7-0.4-8.2-4.6c-0.2-0.8-0.6-1.5-0.6-2.3c-0.4-4.7-1.9-10.3,1.9-13.5c4-3.5,7.9,1.4,11.7,2.8c0.9,0.3,1.6,1.1,2.8,0.7
	c0.8-4.8-4.5-10.9,1.5-14.6c3.4-2.1,8.6-2.1,11.8,0.8c5.2,4.7-0.1,9.2-1.6,13.8c5.2,0.9,11.2-4.2,14.8,1.8c2.3,3.8,1.3,8.7-1.6,12.3
	c-3.5,4.5-7.5,0.2-11.9-0.7c10.2,16.4,19.4,32.6,25.8,50.6c1.2-1.3,0.7-2.6,0.7-3.8c-0.8-22.3-1.7-44.6-2.5-66.9
	c-0.1-3.6-1-5.6-4.9-7.4C38.6,91.5,32.8,82,29.7,71c-1.2-4.3,0.8-5.9,5.2-4.5c3.9,1.2,6.8,4,9.4,7c2.3,2.6,4.3,5.5,6.4,8.3
	C51.1,81.6,51.5,81.5,51.9,81.4z M51,93.1C49,82.9,39.8,71.3,33.2,70.3C36.9,79.6,41.8,87.7,51,93.1z M17.7,116.5
	c-2.6-2.5-5.9-3.7-9-5.1c-1.2-0.5-2.5-1.2-3.7,0.3c-1.3,1.7-0.7,9.3,1,10.7c2.8,2.2,4.7-0.3,6.7-1.6
	C14.4,119.4,16.6,118.7,17.7,116.5z M46.4,173.4c-4.7-8.1-10.3-15.1-19.6-18.1C31.7,163,37.5,169.9,46.4,173.4z M46.2,19.9
	c1.4-4,1.6-7.4,1.8-10.8c0.1-1.8,0.2-3.8-1.8-4.5c-2.4-1-4.6,0.2-6.5,1.7c-1.7,1.4-1.3,3.1-0.4,4.7C41.1,14.2,43.3,17,46.2,19.9z
	 M27.6,116.5c2,2.4,4.4,3.3,6.6,4.5c1.4,0.7,3.1,2.3,4.7,0.6c1.7-1.8,1.9-4.4,1.2-6.6c-0.7-2.4-3-1.1-4.6-1
	C33,114.1,30.2,114.3,27.6,116.5z M19.9,104.4c0.4,1.3-0.6,4.8,2.7,6.3c1.1,0.5,5.9-7.2,5.8-9.2c-0.2-3.6-3.1-2.2-4.9-2.6
	C20.2,98.4,19.1,100,19.9,104.4z M21.2,120.9c-2,3.5-3.6,6.1-5,8.8c-0.6,1.1-2,2.3-0.8,3.7c1,1.1,2.5,0.8,3.9,0.8
	c2.8-0.1,4.5-1.3,4.1-4.3C23,127.1,23.4,124.3,21.2,120.9z M50.9,24.1c3.8,0.4,6.5,0.7,9.2,0.9c1.7,0.1,3.8,0.8,4.4-1.6
	c0.4-1.8-0.1-3.6-1.1-5c-1.4-2.1-3.2-0.7-4.6,0.1C56.3,19.8,53.6,20.9,50.9,24.1z M86.9,52.7c-4.1,1.8-7.1,4.3-10.6,7.5
	c3.8,1.7,7.7,3.5,10.4,1.7C89.3,60,87.3,56.1,86.9,52.7z M72.4,56.4c1.9-2.7,1.8-5.5,1.6-8.3c-0.3-3.5-2.8-3.3-5.2-2.9
	c-2.7,0.5-2,2.5-1.4,4.1C68.4,51.9,69.4,54.5,72.4,56.4z M42.9,25.8c-4.1-0.4-6.8-0.8-9.5-1c-2.5-0.2-4.4,0.7-3.9,3.6
	c0.5,2.9,2.7,3.2,4.9,2.5C37.2,30.2,39.6,28.5,42.9,25.8z M48.3,31.8c-1.9,1.9-1.4,4.4-1.9,6.6c-0.3,1.5-0.7,3.3,1.5,3.7
	c1.5,0.2,3.2,0.7,4.5-0.4c1.3-1.3,0.6-3-0.1-4.3C51.4,35.4,50.5,33.1,48.3,31.8z M95.8,128.8c-3.6-2.5-6.9-3.6-10.6-4.6
	C86.9,133.2,87.5,133.5,95.8,128.8z M86.9,115.2c0.3,0.3,0.6,0.6,0.9,0.9c2.1-1.6,4.3-3.2,6.4-4.9c1-0.8,3.4-1.6,1.5-3.4
	c-1.3-1.2-3.4-1.3-4.6,0.5C89.6,110.6,88.3,113,86.9,115.2z M84.6,149.2c-5.8,0.2-8.6,1.6-12.2,6.2
	C76.9,153.5,81.7,153.5,84.6,149.2z M80.2,120.6c-1.2-3.5-0.8-6.7-3.6-8.5c-0.8-0.5-2.1,0.7-2.1,1.5C74.2,117.1,76.3,119,80.2,120.6
	z M65.3,67.5c2.2-2,4.1-3.4,4.8-6.1C63,61.7,62.8,62,65.3,67.5z M76.3,67.6c0.2,2.4-1.1,5.1,1.5,6.4c1.1,0.5,2.7-0.3,2.9-1.3
	C81.4,69.5,78.2,69,76.3,67.6z"/>
</svg>
