<?xml version="1.0" encoding="utf-8"?>
<!-- Generator: Adobe Illustrator 25.3.0, SVG Export Plug-In . SVG Version: 6.00 Build 0)  -->
<svg version="1.1" id="Layer_1" xmlns="http://www.w3.org/2000/svg" xmlns:xlink="http://www.w3.org/1999/xlink" x="0px" y="0px"
	 viewBox="0 0 85.2 245.5" style="enable-background:new 0 0 85.2 245.5;" xml:space="preserve">
<path d="M46.5,167.6c2.3,2.9,1,6.9,3,10.4c1.8-2.2,1.6-4.4,1.6-6.7c0-5.1-0.3-10.2,0.2-15.3c0.6-6.3,3.5-11.8,7.4-16.8
	c3.2-4,6.5-7.9,8.1-12.9c0.3-0.8,0.5-1.9,1.8-1.6c0.9,0.2,0.9,1.1,1,1.9c0.2,6.6,2.8,12.7,4.3,19c3,12.2-1.9,22.2-13.5,27
	c-2.5,1-4.6,2.5-6.7,4c-3.2,2.3-4.4,5.5-3.6,9.4c2.7,13.3,6.7,26.1,13.8,37.8c1.7,2.8,2,4.8-0.7,7.1c-1.7,1.4-2.3,5.1-4.6,4.6
	c-2.6-0.5-2.3-4-2.9-6.3c-2.1-7.6-3.8-15.3-5.8-23c-0.7-2.7-1.7-5.3-3.1-7.7c-1.3-2.2-2.8-3.3-5.7-2.9c-8,1.3-14.3-2.5-16.5-10.5
	c-1.4-4.9-1.7-10.1-2.4-15.1c-0.1-0.7-0.3-1.6,0.6-2c0.8-0.4,1.6,0.1,2,0.7c2.7,4.2,7.4,5.6,11.3,7.8c6,3.4,9.9,7.8,9.7,15.1
	c0,0.9,0.1,1.9,1.3,2.5c0.8-2.4-0.2-4.5-0.5-6.7c-1.1-6.7-2.2-13.4-3.3-20.2c-0.9-5.6-4.3-8.9-9.7-10.5c-2.7-0.8-5.3-1.7-7.9-2.7
	c-6-2.1-9.7-6.6-11.5-12.5c-1.9-6.4-2.8-13-1.7-19.7c0.4-2.5,0.4-4.9-0.5-7.3c-0.3-0.8-1.2-1.7-0.1-2.4c0.8-0.6,1.8-0.2,2.6,0.3
	c12.6,7.5,22.5,17,24.9,32.3c0.6,3.8,0.4,7.7,2.1,12.2c0-4.6,0-8.4,0-12.1c0.2-12.9,0.4-25.7,0.6-38.6c0.1-5.4-4.5-10.6-10-11.1
	c-7.7-0.8-12-4.8-13.4-12.4c-1-5.6-2.1-11.3-3.2-16.9c-0.9-4.5-2.7-8.6-5.4-12.6c9.1,3.9,17.3,9.1,23.8,16.3
	c6.9,7.6,4.5,18,6.6,27.1c0.5-0.1,0.9-0.1,1.4-0.2c0.2-3.2,0.5-6.3,0.7-9.5c0.2-3.7,0-7.5,0.4-11.1c0.9-7,0.3-12.7-5.7-18.2
	c-5.5-5-5.5-12.9-3.3-20.1c0.7-2.2,1.6-4.4,2.6-6.4c3.3-6.8,7.1-13.4,7.4-21c1.6-0.7,2.1,0.3,2.6,1c4.3,7.2,8.7,14.2,11.5,22.2
	c4,11.4,1.9,20.8-7.5,28.3c-3.5,2.8-4.9,5.8-5,10.2c0,13.6-1.6,27.2-0.8,41.5c1.9-2.1,1.5-4.1,1.6-6c0.3-6.1,2.4-11.3,6.3-16.1
	c4-5,9.4-9,11.8-15.4c0.5-1.3,1.7-1.3,2.4,0c3.6,6.3,7.9,12.3,8.3,20c0.3,5.6-1.7,10.1-6.4,13.6c-5.1,3.8-10.7,6.3-16.9,7.1
	c-3.6,0.5-5.1,2.5-6,5.5c-0.7,2.2-1,4.5-1,6.9c0,11.9,0.1,23.8,2.2,35.7c0.1,0.8,1.2,2.4-0.7,2.8c0.1,0.4-0.2,0.4-0.1,0.1
	C46.3,167,45.9,167.6,46.5,167.6z M32.2,154.5l0.1-0.2L32.2,154.5c1-1.8-0.9-1.8-1.5-2.6c-0.9-4-2-4.4-7-2c2,2.1,4.6,2.1,7.2,1.9
	C31.2,152.7,31.7,153.6,32.2,154.5z M60.1,109.3c6.2-0.1,11.3-4.1,12.5-9.8c0.3-1.2,1-3.6-1.5-2.5c-3.8,1.7-7.7,3.1-11.4,5
	c-2.1,1.1-3.4,3.9-3.6,6.1C56.1,109.8,58.8,108.9,60.1,109.3z M55.7,35.3c-2.4,5.5-8.7,9-8.2,16.3C55.6,46.7,58.7,40.8,55.7,35.3z
	 M45.3,42.2c0-2.1-4.1-7.6-6.2-8.4c-1.3-0.5-1.5,0.4-1.9,1.2c-1.6,3.4-0.6,6,3.9,9.1c1.1,0.7,2.1,2.2,3.6,1.5
	C45.8,44.9,45,43.3,45.3,42.2z M57.4,44.7c-2.9,5.5-11.4,7.7-10,16.8C53.6,57,56.9,51.7,57.4,44.7z M64,152c6.3-2.6,8.2-4.7,7.3-8
	c-0.8-3.3-2-6.6-3.3-10.8C66.1,139.9,66.2,146,64,152z M29.3,141.7c3.7-7,3.5-10.7-1.1-14.9C26.6,132,22.9,137.1,29.3,141.7z
	 M61.4,99.1c4-0.5,7-2.3,9.7-4.5c1.8-1.5,0.8-3.4,0.2-5.1c-0.4-1.1-1.4-1.1-2.2-0.4C65.8,91.6,61.7,93.6,61.4,99.1z M57.9,166.9
	c9.7-0.3,13.4-4.1,13.3-10.7C67.4,160.9,60.6,161,57.9,166.9z M23.9,139.5c-0.7-2.8-2.8-4.7-4.2-7.1c-0.9-1.4-2.5-1.3-3.8-0.9
	c-1.8,0.4-0.9,2.1-0.9,3.1C15.2,139.7,17.6,141,23.9,139.5z M35.5,41.9c-0.8,5.3,0.2,7.2,5.1,9.3c1.2,0.5,2.8,2.2,4,0.2
	c1-1.7,0.2-3.2-1.5-4.2C40.5,45.6,38.2,43.8,35.5,41.9z M57.5,146.6c-3.9,5.4-3.4,8.9,1.6,12.9C62.8,154.6,60.3,150.7,57.5,146.6z
	 M47.8,43.6c3.2-2.8,4.9-6.4,6.9-9.8c0.7-1.1,0.4-2.4-0.1-3.6c-0.4-1-1.5-1.7-2-0.5C50.6,34.1,45.7,37.4,47.8,43.6z M20.7,142
	c-0.5,0.2-3.1-1.5-3.2,0.7c-0.1,2.2,1.7,4.2,4.3,4.8c0.9,0.2,1.8,0.1,2.7,0c1.4-0.2,3.7,0.1,3.2-2.1c-0.4-1.7-1.1-4-3.7-4
	C23.2,141.5,22.4,141.7,20.7,142z M27.1,84c-1.2,1.1-4.9-0.9-5,2.3c-0.1,2.1,2,4.4,4.7,4.1c1.9-0.2,4.5-0.5,4.6-2.9
	C31.5,85.8,30.5,83.4,27.1,84z M33.6,136c-3.9,8.4-3.9,9.1,0.6,12.7C35.5,144.4,36.9,140.2,33.6,136z M22.7,121.3
	c-1.9,7.8-1.7,8.7,1.6,11.4C27.6,125.1,27.5,124.4,22.7,121.3z M22.9,77.5c-0.6,0.3-3-1-2.9,1.9c0.1,1.9,0.3,4,3,3.7
	c1.9-0.3,5,0.4,5.2-2.3C28.4,78.6,26.5,76.9,22.9,77.5z M36.5,51.2c0.5,4.3,3,6.6,5.7,8.8c0.9,0.7,1.8,0.7,2.1-0.6
	c0.4-2.1,1-4.3-1.8-5.5C40.6,53.1,38.7,52.2,36.5,51.2z M56.2,92c-4,2.4-3.5,5.5-1.8,8.8c0.9,1.8,1.7,1.6,2.9,0.1
	C60.1,97.6,58,95,56.2,92z M45.7,34.2c0.1-1.9-3-6.5-4.4-6.5c-1.5,0-1.9,1.4-2.1,2.6c-0.3,1.5,3.9,6.6,5.2,6.4
	C46,36.4,45.4,35,45.7,34.2z M72.4,149.3c-3.8,3.6-8.5,5-10.3,10C68,157.7,72.1,154,72.4,149.3z M32.8,84.1
	c2.4-3.7,3.2-7.1,0.4-10.6C29.7,79,29.6,79.8,32.8,84.1z M62.4,150.2c1.3-2.3,2-4.3,1.5-6.7c-0.3-1.3-0.6-3.2-2.2-2.9
	c-1.7,0.3-2.8,2-2.4,3.8C59.6,146.4,60.3,148.4,62.4,150.2z M19,68.4c-0.4,7.1,0.8,8.3,6.2,6.6C23.6,72.3,21.8,70,19,68.4z
	 M37.6,188.9c-0.3-1.3-1-2.2-2.2-2c-1.9,0.4-4.4,0.6-5,2.6c-0.4,1.3,1.4,2.7,3.1,2.6C35.5,192,36.7,190.5,37.6,188.9z M48.2,33
	c1.5-3.2,5.7-5.6,2.8-10.6C48.6,25.9,47.2,29.1,48.2,33z M25.6,71c1.9-2.6,1.9-4.8-1-6.6c-0.7-0.5-1.6-0.7-1.9,0.3
	C21.9,67.5,22.4,69.8,25.6,71z M60.8,86.3c-3.4,2.6-3.1,5.3-1.1,8.9C61.9,92.2,63.3,89.7,60.8,86.3z M29.2,76.4
	c1.5-1.3,1.4-2.9,1.9-4.4c0.5-1.6,0-2.9-1.5-3.4c-2-0.6-1.5,1.4-1.9,2.3C26.6,73.1,27.1,74.8,29.2,76.4z M54.2,157.4
	c-1,2.1-1.1,3.8-0.5,5.4c0.4,1,0.9,2,1.7,2.6c0.7,0.6,1.2-0.5,1.7-1.1c0.8-1.2,0.8-2.2-0.1-3.3C56.1,159.9,55.3,158.8,54.2,157.4z
	 M45.5,19.2c-4.1,4.3-4.1,6.6,0,9.6C46.2,25.6,45.6,22.5,45.5,19.2z M64.7,90c5.8-3.3,5.9-3.8,2.5-7.9C65.8,84.4,65.1,86.8,64.7,90z
	 M33.7,184.4c-0.9-1.3-2.1-2.1-3.8-1.8c-1.3,0.2-3.1,0.1-2.9,2.1c0.2,1.6,1.5,2.4,3,2.2C31.4,186.6,33,186.4,33.7,184.4z M51.7,98.9
	c-2.1,1.9-2.1,3.7-0.7,5.6c0.7,0.9,1.2,2.5,2.8,1.6c1.3-0.8,1.1-2,0.2-3.2C53.2,101.8,52.6,100.5,51.7,98.9z M27.9,175.6
	c0.9,2.5,2.4,3.8,4,5c0.7,0.5,1.6,1.3,2.3,0.1c0.5-0.8,0.5-1.9-0.3-2.5C32.4,176.8,30.7,175.8,27.9,175.6z M16.5,117.7
	c1.4,2.2,1.2,5.2,3.6,7.2C21.3,121,20.9,118.3,16.5,117.7z M36.9,90.4c0.2-3.1,0.6-5.7-0.8-8.4C33.6,85.1,33.5,87.6,36.9,90.4z
	 M59,111.7c-5.5-2.1-5.5-2.1-7.4,2.3C54.4,114.1,56.8,113.4,59,111.7z M20.9,66.2c0.2-4.8-0.3-5.5-4.8-6.2
	C17.2,62.4,18.4,64.4,20.9,66.2z M15.2,123.3c-0.2,2-1.5,4.2,0.7,6c0.5,0.4,1.4,0.4,1.6-0.2c0.6-2.2-0.3-4.1-1.6-5.8
	C15.9,123.2,15.6,123.3,15.2,123.3z M37.2,180.3c-1.3,0.7-1.4,1.9-1.2,3.1c0.2,1.1,1,2.2,2.1,2c1.6-0.3,1.2-1.9,1.1-3
	C39.1,181.3,38.5,180.5,37.2,180.3z M29.7,92.2c1.7,0.2,3.1,2.1,4.6,0.3c0.6-0.8-0.2-1.9-1-2.3C31.4,89.3,30.6,90.7,29.7,92.2z
	 M37.3,153.2c1.3-2.3,0.6-4.1-0.4-6.4C35.7,149.2,35.2,151,37.3,153.2z M36.2,193.7c2.3,0.1,4,0.5,4.7-1.6c0.1-0.3-0.5-1.3-0.9-1.4
	C38.2,190.5,37.4,191.9,36.2,193.7z M25.9,177c0,1.6-0.9,3.5,1.3,4.2c0.3,0.1,1.1-0.2,1.2-0.4C28.7,178.8,26.8,178.2,25.9,177z
	 M41.2,184.8c-1.2,2.5-0.7,3.9,1.6,5C43.1,187.8,42.8,186.4,41.2,184.8z M47.8,23.4c1.7-1.6,2.2-2.9,0.3-4.7
	C47,20.3,47.4,21.7,47.8,23.4z M56.1,171.4c1.9,0.2,3-0.7,4.2-1.7C58.8,169.8,57.1,169.3,56.1,171.4z M49.3,110.8
	c1.2-1,2.4-1.5,1.7-3c-0.2-0.5-0.8-1.2-1.3-0.7C48.9,108,48.7,109.2,49.3,110.8z M64.7,82.2c-1.9,1.1-1.8,2.5-1.2,4.4
	C64.5,85.2,65.4,84,64.7,82.2z M65.2,137.7c-0.1-0.3-0.3-0.7-0.5-1.1c-0.4,0.4-1,0.6-1.2,1.1c-0.3,0.5-0.1,1.2,0.7,1.3
	C64.9,139.1,64.9,138.3,65.2,137.7z M54.6,169c-0.1-0.2-0.1-0.5-0.2-0.7c-0.2,0.1-0.5,0.2-0.6,0.4c-0.1,0.2,0.1,0.5,0.2,0.7
	C54.2,169.2,54.4,169.1,54.6,169z"/>
</svg>
