<?xml version="1.0" encoding="utf-8"?>
<!-- Generator: Adobe Illustrator 25.3.0, SVG Export Plug-In . SVG Version: 6.00 Build 0)  -->
<svg version="1.1" id="Layer_1" xmlns="http://www.w3.org/2000/svg" xmlns:xlink="http://www.w3.org/1999/xlink" x="0px" y="0px"
	 viewBox="0 0 58.7 230.6" style="enable-background:new 0 0 58.7 230.6;" xml:space="preserve">
<path d="M28.8,43.7c3.3-7.9,5-16.2,8.8-23.8c3.9-5.6-2.7-10.6-0.4-16.3c1.7-4.1,5.6-4.8,8.4-1.4c0.8,1,1.3,1.9,3,1.3
	c2-0.6,3.7,0.4,4.9,1.9c2.9,5.4-4.2,10.7-9.1,11.3c-5.3,1.3-5,7.8-7.8,12.1c9.2-1.4,7.7-7.8,15.4-9.5c4.9-1.2,9.3,5.7,4.8,9
	c-0.9,0.7-1.2,1.1-0.7,2.1c2.6,4.2-3.5,7.8-7.1,5.4c-3.3-1.2-3.9-7.7-8-5.6c-10.7,3.3-10.2,24.2-12.7,34.1
	c6.9-1.2,3.1-14.9,12.3-13.8c5.6,0.8,3.1,5.6,6.1,8.1c4.3,2.7,1.9,9.4-3.2,8.7c-4.3,1.1-8.5-4.2-11.7-1.2
	c-8.3,6.5-4.5,20.4-6.5,30.4c6.7-2.5,3.9-10.3,9.3-14c3.1-2.5,9.4-2.4,9,2.9c0,1.5-0.2,2.8,0.9,4.2c5.2,6.8-5.5,11.4-10.5,7.2
	c-5.2-3.2-9.5,5.2-9.3,9.8c0.3,8.6,0.1,17.2,0.1,26.4c8.6-6.9,3-11.6,10-17.9c3.8-3.1,8-2,9.3,2.8c0.3,1,0.6,1.5,1.5,2
	c5.1,2.5,3.3,10.4-2.4,10.4c-2.6,0.4-5.1-0.1-7.7-0.2c-4.6-0.2-10.8,4.7-10.9,9.3c-0.3,11.2,0.8,22.3,2.2,34
	c9.5-9.7-0.1-14.1,8.2-20.4c5-3.5,5.1,2.8,9.1,3.6c3.5,0.6,4.6,4.1,2.3,6.9c-4,5.4-11.9,2-15.2,8.2c-3.9,4.6-4.1,9.5-3,15
	c2,7.9,2.3,16.2,5,23.8c9.7-15.5,1.3-9.9,3.6-22.5c3.4-10.2,8.9,1,14.8,0.8c6,0.1,5.6,9.3,0.7,11c-1.8,0.7-3.6,0.8-5.5,0.9
	C35.5,202,33,218.3,37.4,227c0.2,1.3,1.7,2.9-0.4,3.5c-2.8,0.9-4.9-14.1-5.9-16.7c-1.3-9.5-4.6-18.5-12.9-24c-1.3-1.1-3.2-0.8-5-0.5
	c-3.6,0.6-7.2,1.1-10-2.3c-1.2-1.4-2.8-2.8-1.9-4.9c1.5-5,7.6-1.2,8.7-6c3.8-8,9.8,2.9,8.5,7.7c-0.2,5.2,5,6.4,8.2,10.2
	c-1.4-11.1-3.1-21.6-3.9-32.7c-0.5-5.3-3.3-9.6-6.7-13.5c-3.7-2.2-9,0.9-13-2.3c-2.2-1.5-3.6-3.3-3.1-6.1c0.7-5.4,6.4-2,7.1-6.1
	c2.7-8,11.2,0.7,9.8,5.9c-0.4,4.5,1.6,7.7,4.6,10.7c1.1-8.4,0.1-17.6,0.3-26.3c-0.1-5-3.4-8.8-6.1-12.6c-4.8-2.4-9.2-0.3-13-6.8
	C-0.6,99.9,4,93.1,9,96.1c1.4,0.8,1.9,0.2,2.8-0.8c2.9-2.9,6.6-1.9,7.8,2.1c2,9.9-6.6,7.3,2.3,17.9c0.9-8.5,0.3-15.6,1.2-23.7
	c1-6.3-2.1-10.9-5.1-15.7c-2.7-1.9-6.5-1.3-9.2-3.7c-4.8-2.5-4.3-12.4,2.1-11c1.6,0.4,2.4,0.2,3.4-1.2c2.6-3.8,8.8-1.6,8.8,3
	c0.9,7.8-6.8,8.7,0.6,15.9c0.1-7.1,1.6-14,2.4-20.9c3-6.8,0.1-16-6.3-19.5C11.4,36.9,9.8,20.9,19.6,24c3.4,1.8,4.3-4,7.8-2.2
	c4.7,2.2,3.1,9.1,0.5,12.3C25.3,37.6,26.3,40.6,28.8,43.7z M44.9,198.5c3.5,0.2,9.2-0.5,8.6-4.9c-0.2-1.5-1.3-2.1-2.4-2
	c-6.8,1.7-7.7-8.3-10.8-3.9c-1.8,3.4-0.7,6.8,0.5,10C41.8,200.6,43.9,197.6,44.9,198.5z M42.9,122.9c-2.6,0.4-3.2-0.5-1.9-2.8
	c1.9-2.8-0.9-4.9-3.5-3.1c-2.2,1.1-6.3,8.2-3.7,10c3.5-0.1,11.5,3.5,11.8-2.3C45.5,122.8,44.4,122.7,42.9,122.9z M17,101.5
	c-0.1-2,0.5-3.9-1.7-4.4c-1.5-0.1-1.9,1.1-2.1,2.3c-0.2,0.9,0.2,2.4-1.1,2.6c-1.4,0.3-1.6-1.4-2.3-2.2c-2.4-3.7-7.1-0.3-4.6,3.2
	c1.3,2.3,6,4.7,8.6,4.5C16.1,107,16.6,102.8,17,101.5z M27.5,27.2c-0.3-0.9-0.1-2.6-1.5-2.9c-2.9-0.3-2.3,8.2-5.6,4.1
	c-1.2-2-4.5-3.9-4.5-0.1c-0.2,3.4,4.2,9.2,7.8,6.8C25.5,32.9,27.5,30.7,27.5,27.2z M38.6,95.7c1.9,0,4,0.2,4.4-2.3
	c0.8-3.6-5.1-0.4-3.6-4c1.5-2.1,3.9-6.3-0.9-5.4c-3.2,0-6.3,5.7-5.5,8.5C33.9,95,36.6,95.3,38.6,95.7z M10.1,136.3
	c0.8,3.7-1.9,2.5-4.3,2.1c-2.9-0.4-4.2,3-1.5,4.3c2.9,2.3,11.4,3.8,9.9-2.2c-0.5-2.1,0.1-7.4-3.1-7.2
	C9.7,133.7,9.9,135.1,10.1,136.3z M39.5,6.5C40.1,21.4,54,10.2,50.8,7c-2.5-2.8-3.8,2.2-6.1,1.8c-1.1-0.4-0.9-1.4-0.9-2.3
	C44.5,1.7,39.2,1.7,39.5,6.5z M20,64.4c0.4-4.4-4.2-4.6-4.4-0.2c-0.5,5.9-4.1-2.2-6.4,0.8C5.6,69.6,19.9,78.2,20,64.4z M42.6,64.7
	c1.4-0.1,3,0.2,3.5-1.5c0.4-1.3-0.7-2.6-1.7-2.6c-5.8,0.5,0.1-4.6-3.1-6.3c-1.1-0.3-2.5-0.4-3.3,1.1C33.8,60.8,35.9,64.5,42.6,64.7z
	 M11.3,186.8c1.4-0.7,3.8,1.3,4.4-1.6c0.3-2.4,0.9-7.9-2.5-7.9c-3.2,0.7,0.8,5.4-3.8,4.6C1.4,180.6,4.2,187.7,11.3,186.8z
	 M50.9,33.5c2.3,0.4,2.9-1.6,1.8-3.1c-2.1-2.3-2.1-2.4,0.8-3.4c4.2-0.8,1.9-6.1-1.7-4.7c-1.5,0.3-7,5.2-5.1,6.7
	C48,30.8,48.8,33.1,50.9,33.5z M34.5,161.3c0.6,1.1-1,3.5,1.7,3.5c2.5,0,9.6-1.4,8.3-5c-1.8-2.5-6,3.7-5.2-2.2
	C39.3,152.9,33.8,155.5,34.5,161.3z"/>
</svg>
