<?xml version="1.0" encoding="utf-8"?>
<!-- Generator: Adobe Illustrator 25.3.0, SVG Export Plug-In . SVG Version: 6.00 Build 0)  -->
<svg version="1.1" id="Layer_1" xmlns="http://www.w3.org/2000/svg" xmlns:xlink="http://www.w3.org/1999/xlink" x="0px" y="0px"
	 viewBox="0 0 87.2 249.6" style="enable-background:new 0 0 87.2 249.6;" xml:space="preserve">
<path d="M74,30.9c0.5-0.9,1.2-1.8,1.5-2.8c0.8-2.5-1-5.3-3-4.4c-2.3,1.1-3,0.3-4.2-1.5c-1-1.5-2.9-2.2-4.6-1.2
	c-1.7,1-0.8,2.7-0.5,4.1c0.2,1.2,1.7,1.8,1.4,3.3c-2.2-0.3-4.3-0.8-6.5-0.8c-2.4,0-3.4,1.7-1.9,3.4c2.1,2.4,0.8,2.8-1.2,3.5
	c-4,1.4-4.2,1.3-5.6-2.7c-0.3-1-0.6-2.1-1-3.1c-0.9-2-1.5-3.5,1.8-3.1c1.3,0.2,2.7-0.4,3-2c0.3-1.5-0.7-2.2-1.9-2.7
	c-0.4-0.2-0.7-0.4-1.2-0.7c0.5-0.8,1.1-1.5,1.4-2.3c0.6-1.3,0.5-2.6-0.4-3.7c-0.6-0.9-1.7-1.5-2.5-1c-2.2,1.4-3.1,0-4.2-1.5
	c-1.1-1.5-2.9-2.3-4.6-1.2c-1.6,1.1-0.8,2.7-0.3,4.2c0.3,1,1.4,1.7,0.8,3.1c-1.8-0.3-3.6-0.6-5.5-0.8c-1.3-0.1-2.8,0-3.1,1.8
	c-0.3,1.6,0.6,2.7,2,3.4c1.5,0.8,3.2,0.7,4.8,0.5c0.7-0.1,1.8-0.5,1.6,0.8c-0.6,4.2,1.5,5.6,5.2,5.6c0.3,0,0.7,0.2,0.8,0.5
	c1.4,3.5,4.1,6.4,3.1,10.7c-1.6,6.8-2.8,13.7-4.3,20.5c-0.2,1.1,0.2,2.9-0.9,3.3c-1.4,0.5-1.9-1.4-2.9-2.2c-0.3-0.2-0.4-0.7-0.7-1.1
	c1-0.4,1.8-0.7,2.5-1.1c1.1-0.6,2.1-1.4,1.7-2.8c-0.4-1.4-1.4-2.5-2.8-2.4c-2.8,0.4-4-0.1-3.8-3.3c0.1-1.9-1.7-2.9-3.6-3.3
	C33.3,47.6,32,47.9,32,49c0.2,3.4-1.6,2.8-3.8,2.3c-1.5-0.3-3.1,0.4-3.7,2c-0.5,1.4,0.6,2.2,1.7,2.7c1.8,0.7,1.2,1.6,0.4,2.7
	c-1.1,1.5-1,3.1,0.1,4.6c0.7,1,1.9,1.4,2.9,0.7c2-1.5,2.6-0.4,3.6,1.2c1.5,2.4,4.9,3,5.6,1.2c1.1-2.6,1.9-1.4,3.2-0.4
	c1.4,1.2,1.8,2.6,1.6,4.4c-1.2,7.7-1.5,15.4-2.1,23.2c-0.3,3.9-0.7,7.9-1.1,12.5c-1.5-1.6-2.5-2.6-3.4-3.6c-1.5-1.6-4.2-3.2-0.2-5.1
	c1.1-0.6,1.6-2.1,1.3-3.5c-0.4-1.5-1.7-1.5-2.9-1.3c-1.4,0.2-1-0.8-0.8-1.5c0.3-1.1,0.7-2.1,0.4-3.2c-0.3-1.3-1-2.2-2.3-2.5
	c-1.2-0.2-1.7,0.7-2.2,1.6c-0.3,0.5-0.1,1.4-1,1.6c-0.8-0.5-1.6-1.1-2.4-1.5c-2-0.8-4.4,0.1-4,1.8c0.7,3.2-1.1,4.8-2.6,6.9
	c-0.8,1.1-1,2.2-0.3,3.4c0.8,1.3,2.1,0.9,3.3,0.6c1-0.3,2-0.8,3.4-1.3c-0.4,2.7-0.6,5.5,2.3,6.3c2.6,0.8,2.5-2.1,3.7-3.8
	c1.7,1.8,3.2,3.7,5,5.2c2.4,2.1,3.1,4.5,2.8,7.6c-0.3,3.7-0.4,7.4-0.4,11.1c-0.1,8.4-0.2,16.8-0.4,25.3c0,0.9,0.7,3.4-1.7,2
	c-3-1.6-5.6-3.8-8.4-5.7c-0.9-0.6-0.6-1,0.1-1.7c2.5-2.7,1.8-5.4-1.7-6.2c-2.1-0.5-2.4-1-2-3.1c0.6-2.5-0.8-4.6-3.4-5.2
	c-2.6-0.6-2.4,1.8-3,3.4c-0.1,0.1-0.3,0.2-0.6,0.3c-2.2-1.5-4.8-3.7-7.3-1.3c-2.4,2.4,1,3.7,2.2,5.4c-0.6,0.4-1.1,0.6-1.6,0.9
	c-1.9,1.2-2.5,3-1.9,5.1c0.6,2.3,2.4,2.2,4.2,1.7c2-0.6,1.4,1.1,1.6,2c0.4,1.6,1.2,2.8,3,3.1c1.5,0.3,2.8-0.1,3.9-1.3
	c1-1.1,0.1-2.6,1.1-4c2.3,1.5,4.3,3.4,6.8,4.5c7.3,3.3,9.7,8.7,9,16.6c-0.7,7.7,0.1,15.5,0.3,23.3c0.1,1.9-0.3,2.8-2.3,1.5
	c-2.4-1.5-4.9-2.8-7.5-4.3c1.3-1.7,3.8-2.4,2.7-4.9c-0.7-1.5-2.2-2-3.6-1.8c-2.7,0.5-3.4-0.3-3.1-3.1c0.2-2.3-1.8-3.6-4-4.1
	c-1.5-0.3-2.8,0.3-2.6,2c0.3,2.6-0.7,2.6-2.8,2c-2.1-0.6-4.5-0.6-5.3,1.8c-0.9,2.5,1.5,2.9,3.1,3.8c0.2,0.1,0.3,0.3,0.4,0.5
	c-0.5,0.7-1.1,1.3-1.6,2.1c-0.9,1.7-0.8,3.4,0.5,4.9c1,1.2,2.4,1.4,3.5,0.5c1.9-1.5,2.4-0.5,3.2,1.1c1.1,2.1,3.2,3.3,5.5,2.4
	c2.5-1,1.3-3.1,0.8-4.8c-0.1-0.3-0.1-0.6-0.1-1.6c2,1.1,3.5,2.2,5.1,2.8c6.8,2.4,8.9,7,8.8,14.2c-0.2,10.7,0.9,21.4,1.5,32.1
	c0,0.9-0.1,2.4,1.1,2.4c1.6,0,1.1-1.5,1.1-2.5c0-0.5-0.1-1.1-0.1-1.6c-0.6-12.5-1.2-24.9-1.9-37.4c-0.1-2.3,0.5-3.6,2.5-4.7
	c3.4-1.9,6.8-4,10.1-6.2c1.7-1.1,2.9-1.9,3.8,0.8c0.6,1.6,2.3,2.4,4,2.3c1.6-0.1,1.7-1.5,1.6-2.7c0-1.4,0.8-1.3,1.7-1
	c1.3,0.4,2.6,0.6,3.9,0.2c1-0.3,1.8-0.8,2-1.9c0.2-1-0.3-1.9-1.1-2.2c-2.3-0.9-1.7-1.9-0.7-3.6c1.4-2.4-0.4-5.7-2.4-5
	c-2.6,1-3.6,0.2-4.9-1.9c-0.9-1.6-3-2.1-4.7-1.1c-1.7,1-0.8,2.7-0.4,4.2c0.2,0.9,1.2,1.6,0.5,2.8c-2.3-0.5-4.8-0.7-6,1.8
	c-1.4,2.7,1.6,3.1,3.2,4.5c-3.8,2.3-7.2,4.4-10.6,6.6c-2.1,1.3-2.8,1-2.9-1.6c-0.1-10.5-0.4-21-0.5-31.5c0-1-0.2-2.1,0.6-2.8
	c4.7-3.6,9.5-7.2,14.3-11c0.9,2.3,0.5,5.2,3.4,5.2c3.7-0.1,3.2-3.7,4.2-6c3.9,2,7.1,1.5,8.2-1.5c1.3-3.3-1.9-2.9-3.5-3.9
	c1.3-2.6,4.2-5.2,1.3-7.9c-2.4-2.3-3.5,1.3-5.3,2.2c-0.2-0.4-0.4-0.8-0.6-1.2c-1.1-2.1-2.8-3.1-5.1-2.5c-2.3,0.7-2.6,2.4-1.9,4.4
	c0.5,1.5-0.6,1.3-1.5,1.4c-2.6,0.5-4.6,1.8-4.8,4.6c-0.1,2.9,2.8,1.9,4.6,3c-4.6,3.4-9,6.7-13.4,10.1c-0.9-1.6-0.6-2.8-0.6-4
	c0.1-10.1,0.3-20.1,0.5-30.2c0.2-8.3,0.2-8.2,7.8-11.5c2.3-1,3.8-1.5,4.1,1.8c0.1,1.3,1,2.5,2.5,2.7c1.4,0.2,2.2-0.8,2.9-1.9
	c0.8-1.2,1.5-2.5,2.2-3.9c2.3,4.2,4.7,5.7,6.8,4.5c0.6-0.4,1-0.9,1.1-1.6c0.5-2.8-1.7-4.2-3.2-6c4-2.2,5.3-5.1,3.5-7.6
	c-2.1-3-3.7,0-5.4,0.9c-0.7-1.4-0.8-2.9-1.8-4c-1.1-1.3-2.3-2.5-4.2-1.7c-1.7,0.7-1.5,2.2-1.1,3.7c0.3,1,0.4,1.8-1.1,1.6
	c-2.5-0.3-3.8,1.1-4.8,3.1c-1.1,2.2,1,3,2.1,4.4c-3.1,1.3-6,2.6-9,3.8c-1.5,0.7-2.2,0.3-2.1-1.5c0.7-11.6,1.6-23.1,3-34.6
	c0.1-0.9,0.1-1.9,1.1-2.2c4.2-1.4,8.4-2.7,13-4.2c-0.5,2.5-0.9,4.9,1.3,5.7c2.7,1,2.9-2.3,4.5-3.5c0.6,0.6,1.1,1.4,1.7,1.9
	c1.2,0.9,2.7,1.5,3.9,0.4c1.3-1.2,0.9-2.9-0.2-3.8c-1.6-1.4-1.5-2,0.2-3.2c1.4-0.9,1.4-2.6,0.7-4.2c-0.4-0.9-1.3-1.5-2.1-1
	c-1.9,1.3-2.4,0.4-3.1-1.4c-0.9-2.2-4.2-2.7-4.3-1.2c-0.1,2.9-1.7,3.7-3.9,4.5c-0.5,0.2-1.1,1.1-1,1.6c0.6,3.1-1.7,3.2-3.6,3.8
	c-1.8,0.5-3.6,0.8-5.4,1.5c-2.3,1-2.3-0.2-2.1-1.9c0.6-5.2,1.9-10.3,2.4-15.5c0.7-7.3,3.8-11.9,11.4-13.1c1.9-0.3,3.8-1.9,3.5,1.9
	c-0.2,2,1.8,2.9,3.6,3.3c1.4,0.3,2.2-0.7,2.1-1.9c-0.1-2.4,0.8-2.4,2.7-1.9c1.9,0.5,4,0.3,4.6-1.9C77.7,31.7,75.3,31.7,74,30.9z"/>
</svg>
