<?xml version="1.0" encoding="utf-8"?>
<!-- Generator: Adobe Illustrator 25.3.0, SVG Export Plug-In . SVG Version: 6.00 Build 0)  -->
<svg version="1.1" id="Layer_1" xmlns="http://www.w3.org/2000/svg" xmlns:xlink="http://www.w3.org/1999/xlink" x="0px" y="0px"
	 viewBox="0 0 86.3 223.4" style="enable-background:new 0 0 86.3 223.4;" xml:space="preserve">
<path d="M48.9,118.1c-0.2-2.1-0.3-3.7-0.4-5.4c-0.1-4.1-1.2-6.6-6.4-6.6c-5.6,0-10.2-3.5-14.3-7.1c-2.6-2.2-5.2-4.3-7.7-6.6
	c-0.9-0.8-2.8-1.4-2.1-3c0.5-1.4,2.3-1.2,3.6-1.4c8.7-1.3,16.6,0.2,22.8,7.4c-1-6.1-2.6-11.7-7.3-15.9C26.6,70.1,16.1,60.9,1.7,58.2
	c-0.6-0.1-1.4-0.5-1.6-1c-0.5-1,0.4-1.5,1.1-2c3-2,6.3-3.3,10.3-3.5c-1.7-3-3.5-5.6-5.8-7.7c-0.9-0.8-2-1.4-1.3-2.9
	c0.4-0.8,1-1.4,2-1.4C7.7,40,7.9,41,8.3,42c1.7,4.3,5,7.5,8.6,10.6c-1.4-4.5-2.4-9.1-5.3-12.9c-0.9-1.1-2-1.9-1.1-3.4
	c0.3-0.6,0.9-1,1.7-0.8c1.5,0.4,1.5,1.6,1.7,2.8c0.4,2.3,1.4,4.4,2.7,6.6c1.5-1.7,0.5-3.4,0.7-4.9c0.1-1.4-0.1-2.9,1.5-3.5
	c1.6-0.6,2.4,0.9,3.3,1.8c0.8,0.8,1.1,2.2,2.9,2.1c-0.9-2.4-0.4-5-2.2-7.2c-1-1.2-0.7-2.3,0.8-2.7c1.4-0.3,2.4,0.6,2.3,2
	c-0.5,3.5,1.1,6.6,2.1,9.9c1.2-2.8,0.8-6.1,2.2-8.8c0.7-1.3,1.3-3.1,3.1-2.9c1.6,0.2,1.7,1.9,2.1,3.2c3.3,11.7,4.5,23.6,3.9,35.8
	c-0.1,2.6-0.2,5.1,1.1,7.4c5.6,10.4,9,21.5,11,33.2c1.7-6,2.1-12.3,2.8-18.4c0.2-1.6-1-1.9-2.1-2.4c-2.3-1-3.9-2.7-4.8-5
	c-0.7-1.7-1.4-3.7,0.3-5.2c1.5-1.3,3.2-0.6,4.8,0.1c1.1,0.4,1.6,1.9,3.2,1.5c0.2-1.4,0.1-3,0.5-4.4c0.9-3-0.1-4.3-3.1-4.8
	c-2.5-0.4-4.7-1.9-6.3-4c-1.3-1.6-2.7-3.4-0.8-5.4c1.7-1.9,3.9-1.7,6.1-0.6c2.2,1.1,3,3.6,5.3,5.7c0.7-3.4,1.3-6.4,2-9.4
	c0.5-2-0.8-2.2-2.1-2.7c-2.6-0.9-4.8-2.5-6.7-4.5c-1.6-1.8-3.6-3.8-1.1-6.1c2.1-1.9,4.8-1.8,7,0c1.5,1.3,2.6,3.1,3.9,4.7
	c4-6.7,3.7-8.5-2.1-12.6c-1-0.7-1.9-1.4-2.7-2.3c-1.5-1.7-3.3-3.6-1.1-5.7c2.1-2,4.8-1.8,6.9,0.2c1.3,1.3,2.3,2.9,3.6,4.6
	c1.8-3.4,3.2-6.5-1.2-9c-1.6-0.9-2.5-2.7-3-4.6c-0.6-2.2-1-4.5,1.9-5.4c2.6-0.8,4.1,0.5,5.2,2.8c0.5,1,0,2.4,1.6,3.2
	c1.7-3.4,4.5-6.3,1-10.3c-0.8-0.9-0.9-2.6-1-3.9c-0.1-3,0.6-6.2,4.2-6.5c4-0.4,3.6,3.2,4,5.8c0.1,0.8,0,1.6,0,2.6
	c0.8-0.1,1.3-0.1,1.7-0.3c1.8-0.7,4-2.6,5.3,0c1.3,2.5-0.6,4.5-2.8,5.8c-1.1,0.7-2.5,1.2-3.8,1.3c-4,0.3-5.3,2.8-5.9,6.4
	c2.3,0.2,3.5-1.6,5.3-2c2.1-0.4,4.2-0.5,5.3,1.8c1.1,2.2,0,4-1.7,5.4c-1.6,1.4-3.6,2.2-5.7,1.9c-5.3-0.7-7.4,2-7.6,7.3
	c2.2-0.9,4.3-1.8,6.4-2.6c1.9-0.6,3.8-0.8,4.9,1.4c1.1,2.3-0.1,3.9-1.9,5.2c-1.5,1.1-3.4,1.6-5.2,1.8c-6.4,0.9-6.4,0.9-7.1,7.9
	c2.2-0.9,4.3-1.9,6.5-2.6c1.6-0.5,3.5-0.6,4.5,1.3c0.9,1.8,0,3.3-1.1,4.7c-1.4,1.9-3.7,2.8-5.8,2.6c-5.6-0.5-6.9,2.7-7.2,7.2
	c-0.1,1.3-0.7,2.6-0.1,4.1c2.1-1.1,4.1-2.3,6.3-3.2c1.8-0.7,3.8-1.2,4.8,1.1c0.9,2.1,0.4,4-1.4,5.4c-1.5,1.2-3.4,1.5-5.2,1.8
	C59,73,59,73,59.3,80.4c1.9-1,3.6-2,5.4-2.8c1.1-0.5,2.4-0.5,3.2,0.6c0.8,1.2,0.3,2.4-0.6,3.2c-1.3,1.3-2.6,3.1-4.2,3.6
	c-5.2,1.7-6.1,5.7-6.2,10.3c0,1,0,2,0,3.9c3.8-5.6,8-10,13.5-12.8c1.4-0.7,3-2.2,4.7-0.9c1.7,1.3,0.6,3.1,0.3,4.7
	c-2.6,10.9-8.6,19.5-17.9,25.7c-2.5,1.7-3.6,3.5-3.7,6.5c-0.7,14.2-3.1,28.3-3.2,43c4.4-8,7.1-18.7,7-26.8
	c-0.1-6.1,0.1-12.2,1.8-18.2c0.4-1.4,0.3-3.5,2.1-3.7c2-0.2,2.5,1.9,3.3,3.4c0.2,0.4,0.4,0.9,0.8,1.7c1.5-2.5,2.9-4.8,4.4-6.9
	c1.1-1.5,2.3-3.6,4.2-3.1c2,0.5,1.9,2.9,2,4.8c0.1,2,0,4,0,6.3c2.6-0.3,4-2.1,5.9-3.1c1-0.5,1.9-1.8,3.2-0.9c1.4,1,0.9,2.4,0.5,3.7
	c-0.8,2.9-1.4,6.2-3.4,8.4c-5.5,6-10.7,12.4-18.8,15.1c-2.1,0.7-3.4,1.9-4.2,4c-2.5,6.3-4.8,12.6-6.5,19.4c1.2,0.1,1.5-0.7,1.7-1.3
	c3.5-9.1,11.4-12.6,19.8-15.2c3.7-1.1,4.6-0.1,3.6,3.8c-1,4.3-3.4,7.7-6.5,10.7c-4.8,4.6-10.1,8.7-16.2,11.3c-3.5,1.6-4.7,3.8-5,7.3
	c-0.7,10.9,1.2,21.7,1.7,32.5c0.1,1.7,1.6,4.5-0.8,4.8c-2.5,0.3-2.4-2.8-2.6-4.7c-2.6-24.2-2.7-48.4-0.4-72.6
	c0.3-3.4,0.6-5.9-4.3-5.1c-2.8,0.5-5.7-0.9-7.6-3.3c-1.7-2.2-2.3-4.7-0.2-6.9c2.1-2.2,4.5-1.2,6.3,0.5c2.1,1.9,3.9,4.1,7,5.9
	c0-3.3,0-6.6,0-9.9c0-2-1.2-2.6-2.9-2.6c-2.1,0-4-0.6-5.9-1.5c-2.1-1-3.3-2.6-2.3-4.9c1-2.3,2.8-3.3,5.4-2.3
	C45.5,116.5,47,117.2,48.9,118.1z M62.4,171.5c-0.2-0.1-0.4-0.1-0.7-0.2c0,0.1,0.1,0.1,0.1,0.1c0.1,0,0.3,0,0.4-0.1
	c0.3-0.4,0.6-0.7,0.9-1.1c4.9-3,9.1-6.7,11.4-12.1c-4.2,3.7-8.6,7.1-11.8,11.7C62,170.3,61.7,170.8,62.4,171.5z M56.8,171.1
	c5.3-3.5,8.7-9,13.6-12.9c0-0.2,0.1-0.3,0.1-0.5c0-0.1-0.1-0.1-0.2-0.2c0.1,0.3,0.2,0.5,0.3,0.8c-6.2,0.3-11.6,5.3-13.7,12.9
	c-0.7-0.2-0.9,0.2-0.8,0.8c0,0.1,0.3,0.3,0.3,0.3C56.8,172,57.1,171.6,56.8,171.1z M71.2,93.9c-3.6,2.8-5.6,6.9-8.3,10.5
	c-1.9,2.4-4.6,4.4-4.7,7.9l-0.3,0l0.2,0.1c5.4-5.4,11.1-10.7,13-18.6c0.2-0.2,0.4-0.3,0.6-0.5c-0.2-0.1-0.4-0.2-0.5-0.2
	C71.2,93.3,71.2,93.6,71.2,93.9z M22.2,63.1c0.1,0.3-0.1,1,0.6,0.3C22.6,63.4,22.4,63.3,22.2,63.1c-3.5-7.5-8.5-10-14.6-7
	C12.6,58.5,17.4,60.8,22.2,63.1z M45.2,101.4l0.2-0.2L45.2,101.4C43.4,95,34,89.7,26.3,90.7l0.1-0.2c0.4,1.6,2,1.5,3.1,2.1
	C34.8,95.5,40.4,97.6,45.2,101.4z M20.8,41.3c-3.1,14.1,5.8,21.5,13.9,30.5C34.1,59.3,28.3,50.4,20.8,41.3z M82.2,123.1
	c-7.4,5.2-15.6,9.5-18.2,19.1C71.7,137.4,79.1,132.3,82.2,123.1z M36.2,59.3c-0.5-8-0.5-16.1-4-24.7C30.2,44.7,30.9,48.8,36.2,59.3z
	 M73,114.5c-4.3,5.5-5.6,11.2-7.5,17.8C74.1,124.7,74.8,123.2,73,114.5z M69.8,91.1c-7.8,3.7-11.1,10.7-13.5,18.3
	C60.8,103.3,65.3,97.2,69.8,91.1z M62.1,120.4c-1.7,6-2,13.1-1,16.5C64.5,127.1,64.5,127,62.1,120.4z M28.9,95
	c3.9,4.8,8.7,7.8,15,7.9C38.9,100.3,33.9,97.6,28.9,95z M46.6,138.5c-2-2.6-3.5-4.8-5.9-6.1c-0.9-0.5-2-0.6-2.8,0.3
	c-0.7,0.9-0.5,1.9,0.1,2.8C40,138.2,42.8,138.6,46.6,138.5z M70.2,26.4c3.6,0.3,6.4,0.1,8.9-1.4c0.9-0.5,1.6-1.3,1.2-2.5
	c-0.4-1.2-1.5-1.2-2.5-0.9C75.1,22.5,72.7,23.8,70.2,26.4z M59.5,53.4c-1.7-3-2.8-5.4-5.1-6.9c-1.1-0.7-2.4-0.7-3.2,0.2
	c-0.9,1,0.1,1.8,0.8,2.5C53.9,51,55.8,52.7,59.5,53.4z M54.3,87.6c0.7-1.1,0.5-2.2-0.1-3.3c-0.9-1.6-2-3.1-4.1-3.2
	c-0.3,0-1,0.5-1,0.8c-0.2,1.8,1,3.1,2.2,4.2C52.1,86.9,52.9,87.9,54.3,87.6z M63.9,53.8c3.8-0.5,7.1,0,9.1-3.1
	c0.1-0.2-0.2-1.2-0.4-1.2C69.2,49.1,66.8,51,63.9,53.8z M73.9,11.2c1-3.2,1.9-5.9-0.1-8.4c-0.1-0.2-1.1,0-1.2,0.3
	C71.3,5.8,71.2,8.4,73.9,11.2z M61.9,36.9c-0.8-5.8-1.9-6.9-6-5.6C57.3,33.5,59.2,35.1,61.9,36.9z M54.9,68.9
	c-2.1-2-2.4-5.1-5.7-5.4c-0.8-0.1-1.5,0.7-1.2,1.2C49.3,67.2,51.1,69.1,54.9,68.9z M48,121.8c-1-2.3-2.7-3.5-5-3.9
	c-0.8-0.2-1.8,0.1-2.1,1c-0.4,1,0.4,1.6,1.2,1.9C44,121.4,45.8,122.4,48,121.8z M63.3,68.6c0.1,0.3,0.2,0.6,0.3,0.9
	c0.7,0,1.3,0.1,2,0c1.8-0.3,3.8-0.1,4.6-2.3c0.1-0.4-0.1-1.2-0.4-1.3c-1.8-0.6-3.1,0.6-4.6,1.4C64.5,67.5,64,68.1,63.3,68.6z
	 M68,39.5c3.5-0.3,6.7,0.2,8.6-3.8C72.9,35.6,70.5,36.8,68,39.5z M66.4,23.3c-0.6-2.3-0.3-4.5-2.3-5.9c-0.2-0.1-1.1,0.4-1.1,0.6
	C62.8,20.3,63.5,22.2,66.4,23.3z M81.8,9.6c-1.9,0.5-3.8,1-5.2,3.3C79.2,12.5,81.1,12.1,81.8,9.6z M65.4,79.8
	c-2.7,0.9-4.3,1.9-5.1,3.8C62,82.8,64,82.3,65.4,79.8z"/>
</svg>
