<?xml version="1.0" encoding="utf-8"?>
<!-- Generator: Adobe Illustrator 25.3.0, SVG Export Plug-In . SVG Version: 6.00 Build 0)  -->
<svg version="1.1" id="Layer_1" xmlns="http://www.w3.org/2000/svg" xmlns:xlink="http://www.w3.org/1999/xlink" x="0px" y="0px"
	 viewBox="0 0 77 249.2" style="enable-background:new 0 0 77 249.2;" xml:space="preserve">
<path d="M37.4,89.4c-1.8-6.1-6.3-9.5-12.1-11.2c-1.9-0.6-4-0.3-5.6,1.3c-1.4,1.5-1.2,3.1,0.1,4.5c1.3,1.3,2.4,0.8,3.2-0.7
	c0,0-0.1,0-0.1,0c0.1,0,0.1,0,0.2,0c-0.3-0.1-0.6-0.2-0.9-0.2c-1.1,0-2.2,0.2-2.4-1.3c-0.2-1.1,0.4-1.9,1.4-2.2
	c1.2-0.5,2.3,0.1,3,1.1c1.1,1.5,0.6,3.8-1.1,5c-1.7,1.2-4.3,0.7-5.2-1.1c-1.7-3.1-0.6-6.4,2.9-7.8c3.7-1.4,7-0.3,10.2,1.7
	c2.3,1.4,3.9,3.7,6,5.4c1-0.8,0.5-1.7,0.4-2.4c-0.8-4.8-1.6-9.5-2.4-14.3c-0.6-3.3-2.1-4.5-5.4-4.3c-2.7,0.2-5.5,0.4-8.2,0.1
	c-3.5-0.4-6.1-2.1-7.4-5.5c-0.9-2.4-1.7-4.8-2.6-7.1c-0.5-1.3-0.3-1.9,1.3-2c5-0.3,9.7,0.7,14.1,2.8c2.9,1.4,3.9,4.3,4.6,7.2
	c0.4,1.6,0.7,3.3,3,4c-0.9-6.9-2.4-13.4-5.2-19.6C28,43,28,43.6,27.8,44c-0.3,0.6-0.5,1.5-1.5,1.3c-1-0.2-1.5-1.2-1.3-1.9
	c0.4-1.8-0.4-2.2-1.9-2.3c-2-0.1-3.2-1.4-4.3-2.9c-3.4-4.9-4.7-10.5-4.9-16.4c-0.1-2.2,0.1-4.3-3-4.6c-0.6-0.1-1.4-1.1-0.9-1.2
	c3.1-1.1,0.8-3.1,0.7-4.6c1.7-0.6,2.1,1.1,3.3,1.2c1.1-0.6,0.3-2.4,1.7-2.7c0.2,0.1,0.5,0.2,0.5,0.3c0.1,3.5,2,5.1,5.2,6.4
	c5.9,2.4,9.2,7.4,11.6,13.1c1.1,2.6,0.6,5.1-1.2,7.3c0.6,1,1.4,0.5,2,0.8c0.7,0.3,1.5,0.5,1.5,1.4c0,1-1,1.2-1.6,1.1
	c-2.2-0.3-2.4,1.1-2.3,2.7c0,0.5-0.1,1.1,0,1.6c2,5.4,2.7,11.1,4.2,17.2c1.3-1.8,1.2-3.6,1.6-5.1c1-4,2-8,4.5-11.4
	c1.7-2.3,3.7-4,6.6-4.4c1.5-0.2,3.1,0.1,3.5,1.9c0.5,1.9,0.1,3.6-1.6,4.7c-0.8,0.6-1.9,0.5-2.6-0.2c-0.8-0.7-0.5-1.5-0.1-2.3
	c0.3-0.7,0.8-1.2,1.7-1c1.2,0.1-0.3,1.3,0.6,1.6c0.9-0.6,0.9-1.4,0.4-2.2c-0.6-0.9-1.6-0.8-2.6-0.5c-3.2,1-5.5,3.2-6.6,6.3
	c-2.5,7.4-5.2,14.7-3.8,22.7c1.3,7.3,2.1,14.6,2.6,21.9c0,0.6,0,1.3,0.7,1.7c1.2-0.8,1.7-2.1,2.4-3.3c0.7-1.1,0.8-1.8-0.8-2.3
	c-1.8-0.5-1.6-1.7-0.4-2.8c0.7-0.7,1.9-1.3,0.7-2.5c-4.4-4.6-1.7-9.2,0.3-13.7c0.8-1.8,2.2-3.3,3.5-4.8c1.1-1.3,2.2-2.6,1.1-4.4
	c-0.3-0.4-0.3-1.4,0.1-1.4c2.9,0.3,2.9-2.5,4.4-3.7c1.2-0.9,1.5,0.5,1.6,1.4c0.1,1.4-0.5,3.1,2.2,2.3c1.2-0.4,1.4,0.9,0.8,1.6
	c-2.5,2.7-1.4,5.7-1.1,8.7c0.4,3.8,0.6,7.6-0.4,11.3c-0.4,1.4-0.9,2.8-2.1,3.8c-1.5,1.2-3.6,1.8-3.1,4.6c0.2,0.9-1.4,1.5-2.5,1.2
	c-1.8-0.5-2.6,0.6-3.6,1.8c-3.5,3.9-3.6,8.2-2.7,13c0.5,2.4,2.4,3.3,4,5.2c0.6-1.6,1-2.9,1.4-4.1c1.5-4.1,4-7.2,8.2-8.6
	c2.9-1,5.2,0.1,5.8,2.6c0.5,2.3-1.8,4.8-4,4.4c-1-0.2-1.7-0.9-1.8-1.9c-0.2-1.1,0.3-2.2,1.3-2.7c0.7-0.4,1.6-0.4,2.4-0.5l-0.1,0.2
	l0.1-0.1c-1.3-0.9-2.4-0.8-3.8-0.1c-4.8,2.6-6.6,7.2-8,12c-0.4,1.4,1.3,2.5,1.5,4c1.5-0.3,2.9-2.4,4.2-0.2c1.1,1.9,1.8,3.8,0.2,5.8
	c-2.2,2.8-5.3,4.6-7.2,7.8c-1.4,2.3-2.3,4.4-2.3,7c-0.1,6.6-0.3,13.2-1.6,20.6c4.5-6.6,11.2-8.7,16.9-12.5c3.5-2.3,4.6-1.5,4.4,2.8
	c-0.3,6.3-1.2,12.5-4.4,18.2c-3.2,5.7-9.2,7.3-14.8,3.9c-0.7-0.4-1.2-0.4-1.6,0.2c-0.9,1.4-2.4,2.7-2.5,4.2
	c-0.9,7.2-1.7,14.3-3,21.5c4.1-0.3,4.7-0.9,4.8-4.5c0.1-4.8,2.2-8.3,5.8-11.7c5.3-5,12.4-6.5,18.3-10.3c1.7-1.1,1.8,0.7,1.6,1.8
	c-0.5,3.1-1.1,6.2-1.8,9.3c-0.7,3.1-1.5,6.1-2.5,9.1c-1.8,5.5-5.4,8-11.2,7.7c-1.6-0.1-3.3-0.1-4.7-0.7c-3.6-1.7-6.7-0.2-9.8,1.4
	c-0.8,0.4-1.7,0.9-1.6,1.8c0.7,5.2-2.5,9.6-3.3,14.5c-1,6.8-2.8,13.4-3.2,20.2c-0.1,2-0.9,3.2-3,3.3c-0.4,0-0.8,0.2-1.2,0.3
	c-1.2,0.2-2.5,1.7-3.5,0.8c-1.1-1,0.1-2.5,0.6-3.7c4.7-12.7,7.7-26,10.6-39.2c0.6-2.9-3.1-7-6.8-7.2c-4.5-0.2-8.3-1.9-11.7-4.9
	c-2.2-1.9-3.3-4.1-3.2-6.9c0.2-8.8,3.3-16.6,9.1-23.3c1.1-1.2,2.3-1.8,3.3-0.1c2.9,5.3,7.1,9.6,9.5,15.2c2,4.8,2.6,9.4-0.3,14.1
	c-1.3,2.1-2.5,4.8-0.1,7.3c0.9,1,1.6,0.9,1.9-0.5c0.4-2.3,1-4.5,1.2-6.8c0.9-10.5,3.2-20.8,4.4-31.2c0.4-3.5-1.3-6.1-4.7-6.8
	c-0.8-0.2-1.2,0.2-1.5,0.8c-2.1,4.4-5.8,5-10.1,4.1c-0.5-0.1-1-0.2-1.6-0.2c-3.4-0.4-4-1.8-1.9-4.7c2.2-3,5.5-3.7,8.9-3.8
	c0.5,0,1,0,1.6,0c-0.7-3.1-0.7-3.1-2.8-1.7c-1.1,0.8-1.9,0.4-2.2-0.7c-0.4-1.5-1.3-1.8-2.7-2c-2.3-0.3-3.2-2.3-3.8-4.2
	c-1.1-3.6-1.4-7.2-1.3-10.9c0.1-1.7-0.2-2.9-2-3.8c-1.2-0.6-1.9-1.2-0.7-3.3c1.3-2.2,1.5-2.8,4.4-2.6c1.9,0.1,2.1,0.5,2,1.7
	c-0.2,2.7,1.2,4.4,2.9,6c1.8,1.6,3.4,3.5,4.6,5.6c1.8,3.2,2.8,6.6,2.1,10.4c-0.3,1.4,0.4,2.7,1.3,3.8c1.6,2,3.7,3.4,5.9,4.6
	c1.6,0.9,2.3,0.4,2.3-1.3c0.1-3.1,0.3-6.3,0.4-9.4c0.1-1.1-0.6-1.7-1.2-2.4c-2.2-2.4-4.2-4.9-6-7.7c-1.4-2-1.9-4.2-1.4-6.6
	c0.7-3.7,1.9-7.3,3.5-10.8c0.5-1.1,0.8-2.6,2.9-2.1c0.7,0.2,0-1.2,0-1.8c0-1.2,0.3-2.7-1.5-3c-1-0.2-2.1-0.3-3.1-0.6
	C30,97,27.8,90.5,30.3,87c0.7-1,1.2-0.4,1.8,0C33.8,87.9,35.5,89,37.4,89.4c0.1,0.1,0,0.3,0,0.4c0.1,0,0.2-0.1,0.4-0.1
	C37.6,89.6,37.5,89.5,37.4,89.4z M58.5,147.9c-0.3-0.2-0.6-0.6-1-0.2c-0.1,0.1,0,0.3,0,0.5C57.9,148,58.2,147.9,58.5,147.9l-0.1-0.1
	L58.5,147.9z M32.2,31.6c0-0.2,0-0.6-0.1-0.8c-2.6-5.9-6.4-10.8-12.3-13.6c-2.8-1.3-4.4-0.1-4.5,3.1c-0.1,5.3,0.9,10.4,3.4,15.2
	c1.8,3.6,4.3,4.9,7.2,4.1C29,38.6,32.2,34.7,32.2,31.6z M54.6,74.4c-0.2-2.6-0.4-5.2-1.4-7.7c-0.8-2-2.7-2.7-4.2-1.3
	c-3.7,3.4-6.6,7.3-7,12.6c-0.3,3.9,1.8,6.5,5.6,7c4,0.5,5.6-0.8,6.4-5.3C54.4,78,54.4,76.2,54.6,74.4z M19.2,122.6
	c0.3,3.4,0.4,6.9,1.8,10.1c0.6,1.4,1.4,2.7,3.2,2.5c2.8-0.3,5.5-5.7,4-8.1c-1.6-2.6-3.5-4.9-5.8-7c-0.7-0.6-1.3-1.8-2.2-1.5
	c-1.1,0.4-0.9,1.7-1,2.7C19.1,121.8,19.2,122.2,19.2,122.6z M13.2,172.8c-1.2,3.4-1.5,6.3,1.1,8.5c2.2,1.8,5.2,2.1,8,2.6
	c0.6,0.1,1.3-0.1,1.5-0.8c0.3-0.9-2.1-5.7-3-6C18,176.3,15.6,174.9,13.2,172.8z M25.3,181.4c2-3.4,3.4-6.7,4.7-10
	c1.1-2.7,0.1-4.7-2-6.6c-1.1,2-1.9,4-3.1,5.6C21.9,174.2,22.8,177.6,25.3,181.4z M31.6,171.6c-1.5,2.9-2.9,5.6-4.1,8.3
	c-0.5,1.1-1,2.3-0.8,3.6c0.2,1.3,0.8,2.7,2,3c1.5,0.4,1.2-1.4,1.6-2.2c0.7-1.3,1.1-2.7,1.7-4C33.2,177.4,33,174.7,31.6,171.6z
	 M48,190.5c1.3-1.2,3.6-1.3,3.8-3c0.3-3.3,0.9-6.5,1.1-9.9C48,180,46.4,184.2,48,190.5z M49.5,160.7c2.6,1,5.2,1.2,8,0.7
	c2.1-0.4,1.9-2.2,2.3-3.7c0.1-0.5,0.1-1-0.5-1.3C55.9,155,51.6,156.8,49.5,160.7z M58.2,174.8c-2.2,0.1-3.3,1.2-3.9,3
	c-0.7,2.2-1.1,4.5-1.2,6.8c0,0.7-0.4,1.6,0.6,1.9c0.7,0.2,1.1-0.5,1.5-0.9C58.7,182.8,58,178.8,58.2,174.8z M13.5,170
	c0.7,2.3,3,3.4,5,4.7c0.6,0.4,1.3,0.9,2,0.5c0.9-0.5,0.6-1.5,0.5-2.3c-0.1-1.2-0.2-2.5-1.4-3.3c-1.3-0.8-2.5-1.9-3.5-3.1
	c-1.1-1.3-1.7-0.7-2.1,0.6C13.8,168,13.7,168.8,13.5,170z M56.6,192.5c0.5-0.1,1.7-0.1,2.8-0.5c1.3-0.5,1.6-1.8,1.9-3.1
	c0.1-0.6-0.1-1.1-0.7-1.1c-1.7-0.2-3.4-0.8-4.9-0.3c-1.9,0.6-4.5,1.5-4.6,3.5c0,1.1,3,1.2,4.7,1.4C55.8,192.4,55.9,192.4,56.6,192.5
	z M50.1,166.7c1.6,0,2.7,0,3.9,0c1.4,0,2.7-0.3,3.4-1.8c0.3-0.5,0.8-1.1,0.3-1.7c-0.4-0.5-1-0.2-1.5-0.1c-2.2,0.2-4.4,0.4-6.5-0.6
	c-1.4-0.7-2.2,0-2.9,1c-0.5,0.7-1.7,1.3-1.1,2.4c0.6,1,1.8,0.7,2.9,0.7C49.3,166.6,49.9,166.7,50.1,166.7z M63.9,176.2
	c-1.2,1.5-2.4,3.1-3.6,4.7c-0.9,1.3-1.8,2.6-2.7,3.9c-0.3,0.4-0.6,0.8,0,1.3c1.2,1.1,4.3,0.6,4.7-1
	C63.1,182.3,64.2,179.5,63.9,176.2z M20.5,155.8c-6,6.4-6.3,7.9,0,12.6C18.8,164,20.2,160.3,20.5,155.8z M24.5,159.7
	c-0.6,4.6-4,7.9-2.2,12.4C26.5,167.2,27.4,163.4,24.5,159.7z M43.8,113c-2.8,7.8-3.2,7.7-1.4,10.4C46.1,119.5,46.6,116.2,43.8,113z
	 M40.5,123.3c-0.1-2-3.9-5.9-5.6-5.8c-0.9,0-0.8,0.8-0.8,1.4c-0.1,2.2,3.2,5.6,5.5,5.8C40.8,124.7,40.5,123.8,40.5,123.3z
	 M60.9,151.2c-0.2-1,0.6-2.2-0.6-2.7c-0.9-0.4-1.3,0.8-1.9,1.3c-0.7,0.6-1.4,1.3-1.9,2.1c-0.6,0.9-2.4,1.5-1.4,3
	c0.6,0.9,4.7,0.3,5.2-0.8C60.7,153.1,60.7,152,60.9,151.2z M39.5,118.5c-0.4-3.6-1.3-6.5-2.5-9.7C33.8,115.4,34.1,115.9,39.5,118.5z
	 M46.4,183c-3.2,2.7-3.4,5.7-3.5,8.8c0,0.7,0.2,1.4,1.1,1c1.2-0.5,2.8-0.9,2.5-2.7C46.1,187.9,46.2,185.7,46.4,183z M45.6,194.3
	c4,1.5,7.6,1.6,11.2-0.2c-2-0.3-3.9-0.5-5.9-0.9C49.1,192.7,47.1,191.5,45.6,194.3z M46.1,161.9c2.1-1.7,3-3.6,2.8-5.9
	c-0.1-0.9,0.8-2.5-0.6-2.6c-1.3-0.1-2.6,1-2.6,2.6C45.6,157.8,45.3,159.6,46.1,161.9z M59.6,179.6c1.9-2.6,4-4.5,5.1-7.3
	C59.7,173.8,58.9,174.9,59.6,179.6z M17.3,59.7c0.5,0.9,1.4,1.4,2.3,1c1.8-0.8,3.6-1.7,4.9-3.2c0.3-0.3-0.1-0.8-0.5-0.9
	c-2.1-0.9-3.2,0.9-4.8,1.6C18.5,58.4,17.7,58.8,17.3,59.7z M50.5,156.6c2.2-2.2,4.3-4.1,4.6-7.4C50.3,151.3,50.3,151.3,50.5,156.6z
	 M38.4,107.5c0.6,3.3,1.2,6,2.4,8.8C42.9,111.3,42.9,111.3,38.4,107.5z M54.6,168.5c-3.6-0.2-6.7-0.4-9.9-0.6
	C46.5,170.9,50.4,171.3,54.6,168.5z M19.5,54.4c-1.1,0.1-2.2,0.3-3.4,0.4c-0.9,0.1-1.7,0.3-1.3,1.5c0.4,1.1,0.8,2,2.2,1.3
	c1-0.5,2-1,3-1.6c0.4-0.2,1-0.5,0.7-1.1C20.6,54.5,20.1,54.3,19.5,54.4z M29.8,58.6c-0.7-2.7-1.6-5-4.2-6.3
	C25.1,56,25.4,56.5,29.8,58.6z M22,155.5c-1,3-1.4,5.6-0.4,8.2C22.5,161.2,24.6,158.8,22,155.5z M28.3,145.9c0.2,0.8-0.1,2.1,1.2,2
	c1.1-0.1,1.9-1,1.7-2.2c-0.1-0.9-0.1-2.3-1.6-2.2C28.3,143.5,28.4,144.7,28.3,145.9z M39.5,170.5c3.8-3.2,1.3-6.4,1.2-9.3
	C40.3,164,40,166.9,39.5,170.5z M23,60.9c1.6,1,3.2,0.9,4.7-0.4c0.6-0.5,0.3-1.2-0.3-1.6C25.2,57.4,24.6,60.1,23,60.9z M27.2,146.9
	c-0.3-0.8,0.3-2.3-1.2-2.4c-1.1-0.1-1.5,0.9-1.5,2c0,1,0.2,1.9,1.4,2.1C27.1,148.8,27.3,147.9,27.2,146.9z M42.9,127.7
	c2-1.6,3-3.7,3.1-6.2C44.7,123.5,42.5,124.9,42.9,127.7z M24.1,54.8c0.1-2.1-1-3.3-2.7-4c-0.5-0.2-1.2-0.3-1.2,0.4
	c-0.1,1.9,1.3,2.7,2.8,3.3C23.2,54.7,23.5,54.7,24.1,54.8z M43.9,158c-1.1,2.2-1.2,4.4-0.2,7.1C45.6,162.5,44,160.2,43.9,158z
	 M19.4,185c1.7,1.7,3.9,1.7,6.6,1.7C24,183.6,21.3,185.9,19.4,185z M17.9,53.3c-1.3-1.6-2.6-2.4-4.2-2.1c-0.4,0.1-0.3,0.7-0.1,1.1
	C14.4,54.4,16,53.4,17.9,53.3z M54.8,62.8c-0.9-1-1.8,0.4-2.1-0.3c-1.5-3.1-1.8,0.5-2.8,0.4C51.5,63.6,53.1,64.2,54.8,62.8z
	 M51.6,118.6c-1.7,1.4-1.7,3-2.1,4.5C50.8,122.1,52,121,51.6,118.6z M38.3,125.8c0.6,1.4,1.3,2.4,2.7,3
	C41.6,126.4,40.5,125.7,38.3,125.8z M34.2,94.2c-0.8-1.1-1.6-1.3-2.5-0.6c-0.1,0.1-0.1,0.7,0,0.9C32.4,95.2,33.2,94.7,34.2,94.2z
	 M35.4,96.5c-0.1-0.5-0.4-0.6-0.9-0.6c-0.3,0-0.7,0.1-0.6,0.4c0,0.5,0.5,0.6,0.9,0.7C35.2,97,35.4,96.8,35.4,96.5z M17.3,49.8
	c-0.2,0.1-0.6,0.2-0.6,0.4c0,0.8,0.7,0.9,1.2,1.1c0.4,0.2,0.5-0.1,0.5-0.4C18.3,50.3,17.8,50.1,17.3,49.8z M36.4,91.8
	c-0.7,0.8-0.7,1.5,0,2.2C37,93.2,37,92.5,36.4,91.8z M34.8,91c0.1-0.5-0.2-0.8-0.6-1c-0.4-0.2-0.6,0.1-0.6,0.4
	c0,0.3,0.2,0.6,0.5,0.8C34.4,91.4,34.7,91.3,34.8,91z M22.5,146.5c-0.3,0.3-0.4,0.5-0.6,0.7c0.2,0.2,0.4,0.5,0.6,0.5
	c0.4,0,0.8-0.2,0.7-0.7C23.1,146.8,22.7,146.7,22.5,146.5z M32.3,91c0,0-0.3-0.2-0.5-0.3c-0.4-0.1-0.6,0.1-0.5,0.5
	c0.1,0.2,0.3,0.5,0.6,0.6C32.2,91.9,32.3,91.7,32.3,91z M48.1,89.4c0.3-0.1,0.6-0.2,0.4-0.6c-0.1-0.2-0.2-0.4-0.4-0.4
	c-0.4-0.2-0.5,0.1-0.6,0.4C47.6,89.2,47.7,89.4,48.1,89.4z M32.5,38.9c-0.2,0.1-0.3,0.2-0.4,0.3c0.2,0.1,0.3,0.2,0.5,0.2
	c0.2,0,0.3-0.1,0.5-0.2C32.9,39.1,32.7,39,32.5,38.9z M48.7,120.1c-0.1-0.2-0.1-0.3-0.2-0.5c-0.1,0.2-0.3,0.3-0.3,0.5
	c0,0.2,0.1,0.3,0.2,0.5C48.5,120.4,48.6,120.3,48.7,120.1z M57.3,103.7c0.1-0.2,0.2-0.3,0.2-0.5c0,0-0.2-0.2-0.2-0.2
	c-0.1,0.1-0.4,0.2-0.3,0.3C57,103.4,57.2,103.5,57.3,103.7z"/>
</svg>
