<?xml version="1.0" encoding="utf-8"?>
<!-- Generator: Adobe Illustrator 25.3.0, SVG Export Plug-In . SVG Version: 6.00 Build 0)  -->
<svg version="1.1" id="Layer_1" xmlns="http://www.w3.org/2000/svg" xmlns:xlink="http://www.w3.org/1999/xlink" x="0px" y="0px"
	 viewBox="0 0 156.1 248.9" style="enable-background:new 0 0 156.1 248.9;" xml:space="preserve">
<path d="M52.6,143.3c-2.2-7.2-6.2-13.5-10.9-19.3c-0.2-0.3-0.6-0.7-0.8-0.6c-2.8,0.8-5.8-0.6-8.6,0.9c-5.1,2.8-10.3,2-13.6-1.9
	c-0.5-0.6-1.2-1.2-0.8-1.9c0.5-0.9,1.3-0.2,1.9,0.1c1.1,0.5,2.2,0.8,3.6,0.1c-1.1-1.6-3.2-2.2-3.9-4.1c-0.3-0.7-0.8-1.3-0.3-2.1
	c0.5-0.7,1.3-0.6,2-0.3c1.9,0.7,3.1-0.8,4.6-1.3c1.1-0.4,0.1-1.4-0.1-2.1c-0.3-1.3-1.8-2.7-0.6-3.8c1.4-1.2,2.9,0.2,4.2,1.1
	c1,0.7,2.1,1.4,3.6,2.3c-0.4-2.6-0.8-4.7-1-6.7c-0.1-0.8-0.4-1.8,0.5-2.3c0.8-0.5,1.6,0.1,2.3,0.5c1.2,0.7,2.2,1.6,3.1,2.7
	c0.7,0.8,1.3,1.3,2-0.1c0.7-1.4,1.2-3.8,3.1-3.3c2,0.6,1.3,3,1.1,4.7c-0.6,5.1-0.6,10.3-1.7,15.3c-0.2,0.7,0,1.2,0.5,1.7
	c7.1,8.1,11,18,14.8,27.9c0.4,0.9,0.5,2,1.5,3c0.3-5.9-0.1-11.4-0.8-16.9c-1.3-10.2-3-20.4-7-30c-3.5-8.5-6.5-17.2-9.6-25.9
	c-0.6-1.6-1.3-2.5-3.1-2.2c-1.5,0.2-3.2-0.1-4.2-0.9c-2.1-1.6-3.7-0.7-5.6,0c-6.9,2.8-14.7,0-18-6.4c-0.4-0.7-1.2-1.5-0.4-2.3
	c0.8-0.8,1.5,0.3,2.1,0.7c2,1.4,4.1,1.8,6.8,1.3c-1.9-2-3.6-3.6-4.9-5.6c-0.6-1-1.3-2.1-1.3-3.3c0-1.2,0.7-2.3,1.8-1.6
	c2.5,1.5,4.8,1.2,7.4,0.5c0.7-0.2,1.6,0.2,2.6,0.3c0-2.4-1.1-4.4-1.4-6.7c-0.1-1-0.7-2.1,0.3-2.8c1.1-0.8,2.1,0,3,0.6
	c2.8,1.8,4.9,4.2,7.2,7c0.5-2.3,0.1-4.4,0.2-6.4c0.1-1.9,0.1-3.9,0.2-5.8c0.1-1.8,1.1-2.2,2.6-1.3c2.5,1.5,4.3,3.8,5.7,6.3
	c0.8,1.5,1.3,1.4,2.2,0.1c0.8-1.2,1.8-2.4,2.7-3.5c0.7-0.8,1.7-1.6,2.9-1c1.1,0.5,0.9,1.7,0.8,2.7c-0.2,2.6-1,5.1-1.6,7.5
	c-1.2,4.8-3.5,9.3-3.8,14.4c-0.1,1.5-0.8,2.9-1.8,4c-1.2,1.3-1.3,2.6-0.6,4.2c3.7,9.6,7.4,19.2,10.7,29c2.1,6.3,4.2,12.8,4.9,19.5
	c0.1,1,0.2,2,1,3.1c0.6-1.9,0.7-3.5,0-5c-2.6-5.4-2.4-10.8-0.3-16.3c0.7-1.9,1.3-3.8,2-5.8c0.6-1.5,1.4-1.7,2.3-0.3
	c2.8,4.5,4.1,9.2,2.4,14.5c-0.1,0.3-0.2,0.7-0.4,1c-3.8,6-4.1,12.9-5.3,19.5c-0.1,0.5-0.2,1.1-0.1,1.6c0.6,8.7,0.6,17.5,0,26.3
	c1-0.5,0.9-1.4,1.1-2.1c5-17.7,9-35.5,11.8-53.7c0.4-2.8,0.2-5.5-0.7-8.2c-0.6-1.8-1.3-3.3-3.2-4.2c-1.8-0.8-3-2.5-3.9-4.2
	c-4.6-8.1-8-16.6-9.7-25.8c-0.1-0.7-0.6-1.6,0.3-2c0.9-0.5,1.2,0.6,1.6,1.1c2,2.7,4.5,5,7.4,6.6c5.4,3,7.4,7.9,7.9,13.7
	c0.3,3,0.2,6.1-0.1,9.1c-0.2,1.6,0.4,2.8,1.5,4.5c0.8-4.7,0.9-9.1,1.5-13.3c0.6-4.3-0.3-7.9-2.6-11.5c-2.4-3.6-4.3-7.5-6.4-11.3
	c-0.4-0.8-1.1-1.5-1-2.5l0,0c4.5,3.8,8,8.4,10,14.1c1-2.8,0.8-16.9-0.3-23.5c-1,1.4-1,2.9-1.6,4.2c-0.2,0.6-0.3,1.4-1,1.5
	c-0.9,0.2-1.3-0.6-1.7-1.2c-1.1-1.7-1.9-3.6-2.4-5.6c-0.3-1.3-0.8-1.9-2.2-0.9c-1.9,1.3-4.1,2-6.3,2.8c-2,0.7-2.7-0.1-2.8-2
	c-0.1-3.3,0.9-6.2,3-8.7c0.7-0.9,1.5-1.8,2.5-3c-3.6-0.3-6.7-0.5-9.7-1.3c-2.3-0.6-4.2-1.7-5.7-3.6c-0.4-0.5-0.9-1-0.5-1.7
	c0.4-0.5,1-0.4,1.5-0.3c1.8,0.2,3.6,0.6,5.6-0.4c-2.7-2.8-4.4-6.1-5.5-9.8c-0.2-0.7-0.6-1.5,0-2.1c0.8-0.6,1.3,0.3,1.9,0.6
	c1.2,0.7,2.6,1.1,3.9,1.2c2.7,0.2,5.2,1.2,8,2.3c-1.5-4-3.8-6.9-6.5-9.7c-0.7-0.7-2-1.2-1.4-2.4c0.5-0.9,1.7-0.5,2.6-0.4
	c5.7,0.3,10.7,2.1,13.3,8.6c1.1-4,2.1-7.2,4-10c0.8-1.2,1.3-3.1,3-2.8c1.6,0.2,1.6,2.1,2,3.4c0.6,1.6,1,3.3,1.6,5.3
	c1.6-1.3,3-2.5,4.4-3.6c0.7-0.5,1.5-0.9,2.3-0.5c0.9,0.5,0.8,1.4,0.7,2.2c-0.2,1.8-0.4,3.7-0.7,5.5c-0.2,1.3,0,1.8,1.5,1.7
	c2.5-0.2,5,0,7.5,0c0.6,0,1.4,0,1.7,0.7c0.3,0.7-0.3,1.2-0.7,1.7c-1.2,1-2.4,2-4,3.2c2.3,0.8,3.8,1.2,5.2,1.9c2.4,1.1,2.4,2,0.2,3.6
	c-1.8,1.4-4.1,1.4-6.7,2c3,2.1,4.7,4.7,5.7,7.7c0.2,0.7,1,1.6,0.1,2.3c-0.7,0.5-1.4-0.1-2-0.4c-3.9-1.9-8.3-1.4-12.8-2.5
	c1.5,4.7,1,9.2,0.8,13.6c0,0.9,0.2,2.1-0.9,2.3c-0.9,0.2-1.4-0.8-1.8-1.4c-1.4-1.8-2.7-3.7-4.3-5.4c1.1,14.5,0.7,28.9-0.7,43.3
	c-1.4,14.4-3.9,28.6-6.6,42.9c2-3.3,4-6.6,6-9.8c0.9-1.4,1.6-2.9,2.6-4.2c2.7-3.6,3.9-7.2,3.2-11.9c-0.8-5.1,0.3-10.4,1.5-15.5
	c2.2,5.9,1,11.9,0.6,18.6c3.8-5.8,7.8-10.8,8-17.7c0-1.4-0.4-2.4-1.3-3.5c-6.4-7.3-7.9-16.2-8.2-25.5c0-1.1-0.2-2.5,0.9-3
	c1.2-0.5,2,0.7,2.8,1.3c4.5,3.4,7.4,7.9,9.5,13c1.8,4.5,1.4,9.1-0.9,13.4c-1,2-1.4,3.9-1.2,6.1C100,93,105,84.6,110.3,75.9
	c-2.6,0.5-4.7,1.1-6.8,0.6c-2.7-0.6-3.4-1.9-1.7-4c1.8-2.1,0.3-2.3-1.2-2.8c-1.1-0.4-3.1,0.2-3.2-1.4c-0.1-1.5,1.8-1.8,3-2.5
	c0.8-0.4,1.7-0.7,2.9-1.2c-2.4-1.2-4.5-2.3-6.2-3.9c-0.8-0.7-1.9-1.5-1.6-2.7c0.3-1.5,1.8-1,2.8-1.2c1.4-0.2,2.7-0.2,4.7-0.4
	c-2.1-1.7-3.9-3.2-5.7-4.6c-0.5-0.4-1.4-0.9-1-1.8c0.3-0.7,1.1-0.5,1.7-0.5c3.2,0,6.5-0.6,9.6,0.4c1.6,0.5,1.5-0.3,1.2-1.4
	c-0.4-1.2-0.7-2.5-1.1-3.7c-0.5-1.5,0.2-1.9,1.5-1.6c2.2,0.5,4.3,1.2,5.9,2.9c1.2,1.3,1.9,1.1,2.6-0.2c0.2-0.3,0.5-0.6,0.8-0.8
	c0.9-0.6,1.7-1.8,2.9-1.2c1.1,0.5,0.6,1.8,0.7,2.8c0.1,2.4-0.1,4.8,0.7,7.5c2.2-2.2,3.9-4.5,6.4-5.9c0.8-0.4,1.6-1,2.4-1.3
	c1.2-0.5,2-0.5,1.7,1.2c-0.3,1.7-1.3,3.7-0.5,5.1c1,1.7,3.2-0.1,4.8,0.5c1.3,0.4,3.3,0,3.8,1.6c0.5,1.6-1.3,2.4-2.4,3.4
	c-0.4,0.4-1,0.5-1.1,1.3c3,0.9,5.5,2.8,7.6,5.2c0.5,0.5,1.2,1.1,0.7,1.9c-0.5,0.8-1.1-0.1-1.7-0.2c-3.1-0.9-5.9,0.7-9.1,1.1
	c1.3,1.6,2.3,3,3.4,4.4c1.3,1.8,1.3,3.8,0.7,5.8c-0.3,1-1.1,1.7-1.7,0.6c-2-3.3-6-2.9-9-5.1c-0.2,4.3-0.6,8.3-0.3,12.3
	c0.1,0.8,0.4,1.8-0.4,2.3c-1,0.7-1.7-0.4-2.4-0.9c-2.8-2.1-4.8-5-6.5-8.5c-1.5,2-2.6,3.7-3.9,5.4c-1.4,1.7-2.4,1.6-3.5-0.4
	c-0.4-0.7-0.6-1.5-0.8-2.3c-0.2-0.7-0.2-1.4-0.4-2.4c-9.3,14.4-18.3,28.5-27.4,42.6c0.2,0.2,0.4,0.3,0.5,0.5
	c3.9-1.9,8.2-2.9,10.7-7.3c3.7-6.4,9.4-10.6,16.3-13c5-1.8,10.2-3.1,15.3-4.7c0.7-0.2,1.4-0.6,2,0.1c0.5,0.6,0.1,1.3-0.2,1.8
	c-3.9,9.4-9.8,16.4-20.4,18.4c-4.3,0.8-8.5,1.7-12.9,1.6c-1,0-1.8,0.4-2.6,0.8c-2.3,1.2-4.5,2.6-7,3.3c-3.1,1-4.9,2.9-6.4,5.6
	c-1.6,2.9-3.2,5.8-5.2,8.5c-5.2,7.1-7,15.3-8.7,23.6l0,0.1l0-0.1c3.4-4,6.7-8,10.2-11.9c2.4-2.7,3.2-6.6,5.4-9.6
	c0.1-0.2,0.2-0.6,0.1-0.8c-1.5-5.4,2.7-7.6,6-10.1c3.4-2.6,7.5-2.7,11.6-1.6c0.9,0.2,2,0.6,2,1.6c0.1,1.1-1.2,0.9-1.9,1.2
	c-2.3,0.9-3.9,2.7-5.4,4.6c-2.2,2.6-4.4,5.7-8,6c-3.5,0.3-4.7,2.2-5.9,5c1,0.1,1.6-0.6,2.1-1c5.5-3.9,11.5-6.6,18-8.2
	c1.1-0.3,2.1-0.6,2.9-1.5c6.9-8.1,15.7-6,22.3-0.7c2.2,1.8,3.8,4.3,6.1,6c0.4,0.3,0.9,0.8,0.4,1.4c-0.4,0.5-0.9,0.2-1.3,0
	c-3.2-1.8-6.5-1.3-9.9-1.2c-6.2,0.3-12.4,0.5-18.1-2.4c-0.4-0.2-0.9-0.2-1.3-0.1c-9.6,2.2-17.9,7-24.8,14.1c2.7-0.8,5.8,0,8-3
	c1.5-2,4.5-2.1,7-1.8c6.9,0.9,12.6,4.5,17.8,8.8c0.5,0.4,1.1,0.9,0.7,1.6c-0.4,0.7-1.2,0.5-1.7,0.3c-4.8-1.4-9.5,1-14.3,0.3
	c-1.1-0.2-1.4,1-1.9,1.8c-2.8,4.7-5.8,9.2-9.1,13.5c-3.9,5-8.6,8.5-15.2,9.1c-0.9,0.1-1.5,0.6-2.1,1.2c-2.9,3-5.8,5.9-8.6,9
	c-0.5,0.5-0.9,1.2-1.2,1.8c-1.1,3.1-2.1,6.2-3,9.6c5.1-4.1,10.5-7.5,16.1-10.7c0.8,0.8,0.1,1.3-0.2,1.8c-3.7,5.5-8.8,9.5-14.8,12.1
	c-2.3,1-3.5,2.5-4.3,4.9c-2.8,8.2-5.9,16.3-9.2,24.3c-0.3,0.7-0.6,1.4-0.9,2c-0.2,0.4-0.4,0.9-1,0.7c-0.8-0.2-0.6-0.8-0.4-1.3
	c0.8-2.1,1.7-4.1,2.5-6.1c1.8-4.6,3.5-9.3,5.3-13.9c2.3-6.1-0.1-11.7-2.1-17.4c-0.1-0.4-0.6-0.7-1-0.9c-4.5-2.6-6.6-6.9-8-11.5
	c-2-6.1-2.6-12.4-2.7-18.8c0-0.8-0.4-1.8,0.7-2.1c0.9-0.2,1.2,0.8,1.5,1.4c2.4,4,5.3,7.8,8.1,11.5c3.8,4.9,4.6,10.6,3.5,16.5
	c-0.4,2.1-0.2,3.9,0.5,5.9c0.9,2.3,1.3,4.8,1.9,7.2c0.9,0,0.8-0.8,1-1.4c2.5-7.3,4.9-14.7,7.4-22c0.5-1.4,0.4-2.6,0-4
	c-2-6.2-3.9-12.5-5.7-18.8c-1.3-4.4-3.3-8.6-5.4-12.7c-0.4-0.8-1.1-1.5-1-3.1c4.4,4.7,7.9,9.5,9.7,15.4c1.8,5.7,2.6,11.6,3.5,17.7
	c1.2-1,1-2.1,1.1-3c0.3-2.7,0.3-5.5,0.8-8.2c1.2-6.7-0.5-12.8-3-18.8c-0.5-1.2-1.2-1.9-2.3-2.5c-4.5-2.4-9.3-4-13.7-6.3
	c-2.4-1.3-3.4-3.6-4.5-6c3.1,2.6,6.9,2.8,10.6,3.3C48.8,139.2,50.3,141.9,52.6,143.3l0.1,0.1L52.6,143.3z M80.3,31.6
	c2.8-1,5.5-2.1,8.6-1.7c3.3,0.4,5-1.8,7.3-4C89.3,24.5,84.4,26.9,80.3,31.6L80.3,31.6z M33.8,172.6L33.8,172.6
	c1.7,8.2,5.5,15.6,9.1,23.3C45.5,189.5,41.5,179.3,33.8,172.6z M125,137.2L125,137.2c-2.9-4.6-7.5-6-12.4-6.4
	c-3.7-0.3-6.7,1.7-9.3,4.7c1.9,0,3.5,0,5,0c3-0.1,5.7,1.4,8.7,1C119.8,136.1,122.4,136.5,125,137.2z M58.7,73.6c0-0.1,0-0.2,0-0.2
	c0-0.1-0.1-0.1-0.2-0.1C58.6,73.4,58.6,73.5,58.7,73.6c2,9.2,5.4,17.7,11.8,24.7C70,94.5,69,91,68,87.4c-0.5-1.6-0.9-3.2-2.1-4.4
	C63.1,80.1,60.6,77.1,58.7,73.6z M56.8,188.3c0.1,0.1,0.2,0.2,0.3,0.3c2.5-2.4,4.9-4.9,7.4-7.3c0.6-0.6,0.7-1.3,0.8-2
	c1.5-7.9,6.2-13.4,13.3-16.9c2.9-1.4,5.7-3,8.6-4.5c1.4-0.7,1.3-1.3-0.1-1.9c-2-0.8-3.9-1.6-5.5-3.1c-0.3-0.3-0.9-0.4-1.3-0.4
	c-3.4,0.5-6.9,1.2-9.3,3.7c-3.6,3.7-6.7,8-8.4,12.9C60.3,175.3,58.7,181.8,56.8,188.3z M95.7,116.5c8-4.7,16.5-8,25-11.5
	c2.4-1,4.1-3.2,5.6-6.1C114.2,102.3,102.1,104.4,95.7,116.5z M14.7,62.1c1.3,3.4,3.3,5.5,5.6,7.4c3.4,2.8,7.4,4,11.7,4.2
	c1,0,1.9-0.2,2.2-1.2c0.3-1-0.7-1.1-1.3-1.5c-2.5-1.6-4.7-3.5-6.3-6.1c-1.3-2.1-3.4-2.9-5.7-2.1C18.9,63.5,17.1,63.3,14.7,62.1z
	 M36.3,47.6c-1.6,5.7-0.2,15.8,3,21c0.4,0.7,0.8,1.3,1.7,1c1.1-0.3,1-1.1,0.9-2c-0.5-2.9-0.4-5.9,0.2-8.8
	C42.9,54.7,40.3,49.6,36.3,47.6z M24.9,53.2c0.7,4.2,1.5,7.8,3.4,11c1.7,3,4.5,4.8,7.5,6.3c0.6,0.3,1.3,0.6,1.8,0.1
	c0.8-0.7,0.1-1.4-0.2-2c-1.3-3-2.9-5.9-5-8.6C30.5,57.5,28.4,55.1,24.9,53.2z M51.1,25.8c0.6,2.7,1.8,4.8,3.5,6.6
	c0.7,0.7,1.6,1.6,2.6,1.1c3.4-1.5,6.7-0.7,10-0.1c0.6,0.1,1.4,0.5,1.7-0.3c0.5-1-0.6-1.2-1.1-1.5C62.9,28.3,57.6,26,51.1,25.8z
	 M126.7,86c0-3.9,0.1-7.2,0-10.6c-0.1-2.9-2-4.8-4.1-6.5c-0.7-0.6-1.5-0.5-1.8,0.6C118.9,75.3,121.1,81.8,126.7,86z M96.6,44.7
	c-0.9-3.1-2.7-5-5.2-6.3c-3-1.5-6.2-1.5-9.4-1.3c-0.9,0.1-1.9,0-2.1,1.3c-0.2,1.1,0.4,1.8,1.1,2.3c1.9,1.5,4.1,2,6.4,2.4
	C90.3,43.6,93.3,43.6,96.6,44.7z M58.3,16.4c3.1,3.1,4.6,7.1,7,10.5c1,1.5,2.2,2.7,3.8,3.5c1.2,0.6,1.7,0.3,1.7-1
	c0.1-3.5-1.4-6.4-3.2-9.2C65.4,17,62,16.4,58.3,16.4z M59.3,52.2c0,1.7,0.3,2,2,1.3c1.7-0.7,3.4-1.5,5-2.4c0.9-0.5,1.7-1.1,1.8-2.3
	c0-2.3,0.4-4.6,1.2-6.7c0.3-0.7,0.1-1.2-0.5-1.7c-0.7-0.5-1.2,0-1.7,0.4c-1.9,1.6-3.7,3.3-5.3,5.2C60.3,47.9,59.5,49.9,59.3,52.2z
	 M87.2,16c-5,4-8.5,8.4-11.4,13.4c-0.4,0.6-0.5,1.2,0.3,1.6c0.7,0.3,1.3,0.7,2,0.1c2.2-2.1,4.6-4,7.2-5.5c0.5-0.3,0.7-0.8,0.8-1.4
	C86.6,21.6,87.2,19.2,87.2,16z M73.1,30.2c1.9-3.3,4.3-6.3,6.6-9.3c0.2-0.3,0.3-0.7,0.2-1c-0.6-2.5-1-5.1-2.3-7.5
	C73.5,16.7,72.1,23.5,73.1,30.2z M50.5,37c0.6,1.2,1.4,1.5,2.2,1.7c3.7,1,7.5,1.6,11.4,1.1c0.8-0.1,1.6-0.3,2.3-0.8
	c1.4-0.9,1.4-3.7,0-4.1c-2.5-0.8-5.2-1.3-7.6-0.2C56.3,35.9,53.7,36.8,50.5,37z M82.4,56.6c0.3-0.1,0.6-0.1,0.8-0.2c0-2,0-4,0-6
	c0-3.2-1.1-5.9-3.3-8.2c-0.8-0.9-1.5-1.1-2.6-0.4c-0.9,0.6-1.7,1-1.3,2.3C77.3,48.7,79.5,52.8,82.4,56.6z M99.3,51.4
	c3.4,3,6.9,5.3,10.4,7.6c0.8,0.5,1.6,0.9,2.5,1.2c0.7,0.2,1.5,0.2,2-0.4c0.5-0.7-0.2-1.2-0.5-1.7C110.5,52.9,106.4,49.6,99.3,51.4z
	 M98.7,33.1c-5.9-1.6-11.9-2.8-17.8,0.2c-0.1,0-0.2,0.1-0.2,0.1c-0.5,0.3-1,0.6-0.9,1.2c0.1,0.9,0.8,0.9,1.5,0.8
	c2.6-0.2,5.2,0.3,7.7,0.1C92.2,35.3,95.8,35.9,98.7,33.1z M119,71c0-0.3,0-0.6,0-0.8c-0.1-0.9,0.2-2-0.9-2.3
	c-1.3-0.4-1.5,0.8-1.9,1.6c-1.2,2-2.2,4.1-2.9,6.2c-0.7,2-1.1,4.1-0.7,6.2c0.1,0.5,0.3,1.1,0.9,1.2c0.5,0.1,0.7-0.4,1-0.8
	C117.1,79.1,119,75.4,119,71z M72.5,57.2c1.3-4.4,3-8.6,1.8-13.2c-0.3-1.2-0.9-1.7-2.1-1.8c-1.3-0.2-1.6,0.7-1.9,1.6
	C69,48.5,69.8,53,72.5,57.2z M84.8,161.4c-9.8,3.1-17.4,10.6-17.4,17.1C72.8,172.3,78.8,167.1,84.8,161.4z M84,150.3
	c3.5,0.3,6.6,1.7,9.8,2.9c3.2,1.2,6.7,0.3,10.4,1.6C96.5,148.3,87.1,146.5,84,150.3z M141.8,64.8c-3.2-4.2-11.3-4.2-16.2-0.2
	C130.9,67.4,136.4,66.8,141.8,64.8z M137.5,75.8c0.4-4.8-8.5-10.5-14.1-8.9C126.9,71.8,132.1,74,137.5,75.8z M49.9,49.4
	c-5.7,4-8.6,14.5-5.5,19.3C46.5,62.4,48.8,56.3,49.9,49.4z M85.9,70c3.7,7.6,7.6,14.3,8.3,22.6C97.7,86.1,93.8,75.4,85.9,70z
	 M130.8,49.1c-4.9,2.8-7.7,7.1-10,11.6c-0.2,0.3-0.2,0.7,0.2,1c0.6,0.4,1.1,0,1.5-0.2c2.1-1.3,4-2.9,5.8-4.5
	C130.6,54.9,131.1,52.4,130.8,49.1z M116.8,59.4c0.4-3.6-0.1-6.5-1.1-9.3c-0.8-2.1-2.2-3.6-4.2-4.5c-0.5-0.2-1.1-0.6-1.5-0.2
	c-0.5,0.4-0.1,1,0,1.5C110.6,51.9,113.8,55.2,116.8,59.4z M105.7,75.1c4-0.4,7.3-2.3,8.9-6.4c0.3-0.7,1.3-1.4,0.4-2.1
	c-0.7-0.5-1.3,0.4-1.8,0.9c-1.9,1.7-4,2.9-6.5,3.5c-0.9,0.2-1.7,0.6-2.4,1.3c-0.6,0.7-1.8,1.1-1.4,2.1
	C103.3,75.3,104.6,75.1,105.7,75.1z M21.1,115.6c4.2,4.8,9,6.2,13.7,4.3c-2.5-1.7-4.9-3.3-7.4-4.8C25.3,113.9,23.7,116.6,21.1,115.6
	z M14.3,72.9c2.1,4.4,11.1,5.5,15.7,2.3C24.9,74,19.9,72.1,14.3,72.9z M39.4,116.9c-1.1-3.3-0.5-6.7-1.5-9.9
	c-0.2-0.8-0.7-1.5-1.3-2.1c-0.8-0.8-1.6-2.2-2.8-1.6c-0.9,0.5-0.2,1.8,0,2.8c0.3,1.5,0.7,3.1,0.9,4.6
	C35.2,113.5,37.2,115.1,39.4,116.9z M139.1,56.1c-5.1-1.9-9.9,0.3-15.2,7.1C129.1,60.4,135.1,60.6,139.1,56.1z M94.8,129.7
	c-4.1,0.2-8.3,2.8-11,6.7c-0.5,0.7-1.4,1.4-0.9,2.2c0.6,0.9,1.7,0.4,2.5,0c1-0.5,1.9-1,2.8-1.7C90.8,134.8,92.5,132.1,94.8,129.7z
	 M97.6,58.8c3.9,4.5,8.7,4.6,13.6,4.4c0.5,0,1-0.1,1-0.7c0-0.5-0.4-0.8-0.9-0.9c-2.7-1-5.5-2.1-8.3-3
	C101.3,58.1,99.6,58.1,97.6,58.8z M37.2,118.1c-2.4-4.2-5.2-7.4-9.8-9.5C29,115.1,31.9,117.9,37.2,118.1z M63.1,107
	c-2.2,5.5-5.1,10.9-2.1,17.1C60.8,118.3,64.4,113,63.1,107z M113.1,65c-4.7-0.7-8.5,0.9-12.5,2.6C105.2,70.8,109.6,69.1,113.1,65z
	 M119.6,46.5c-3,4.2-0.2,8.8-0.6,13.1C122.1,55.5,119.7,50.9,119.6,46.5z M41,114.7c1.9-7.1,2-9.3,1-11.4
	C39.5,107,39.7,110.8,41,114.7z M22.4,122.9c3.1,2,6.3,1.8,8.7-0.5C28.2,122.2,25.3,121.6,22.4,122.9z"/>
</svg>
