<?xml version="1.0" encoding="utf-8"?>
<!-- Generator: Adobe Illustrator 25.3.0, SVG Export Plug-In . SVG Version: 6.00 Build 0)  -->
<svg version="1.1" id="Layer_1" xmlns="http://www.w3.org/2000/svg" xmlns:xlink="http://www.w3.org/1999/xlink" x="0px" y="0px"
	 viewBox="0 0 96.3 230.6" style="enable-background:new 0 0 96.3 230.6;" xml:space="preserve">
<path d="M34.3,166.1c2.1-2.8,3.2-4.9,3-7.9c-0.2-4.5,0.3-9-0.4-13.5c-0.3-2.1,0.6-2.6,2.4-1.7c1.3,0.7,2.6,1.5,3.3,2.9
	c1,2,2,1.6,3.3,0.2c2.5-2.7,5-5.3,7.2-8.2c0.6-0.8,1.1-1.7,2.3-1.3c1.1,0.4,0.8,1.4,0.8,2.2c0.2,3.1,0.3,6.2-0.5,9.3
	c-0.5,1.7,0.1,2.4,1.8,2.5c2.9,0.2,5.6,1.2,8.1,2.9c0.9,0.6,2,1.2,1.7,2.5c-0.2,1.2-1.4,1.1-2.3,1.4c-2.8,0.9-5.8,1.2-8.7,2.7
	c0.9,1.3,1.7,2.3,2.4,3.5c1,1.7,0.3,2.8-1.6,2.5c-2.9-0.4-5.7-1.2-8.5-1.8c-0.7-0.2-1.4-0.4-2.2-0.5c-7.7-1.3-7-2.3-10.6,6.1
	c-2.6,6.2-1,12.5-0.7,18.8c0.4,8.3,1.4,16.7,2.3,25c0.5,4.4,1.2,8.7,1.9,13c0.1,0.7,0.1,1.5,0.2,2.2c0.1,0.8-0.2,1.6-1.1,1.7
	c-1,0.2-1.2-0.7-1.3-1.4c-0.5-3.6-1.1-7.2-1.5-10.8c-0.7-5.8-4-10-8-13.9c-0.9-0.9-1.8-0.7-2.9-0.3c-3.5,1.3-6.8,3.1-10.1,5
	c-0.7,0.4-1.5,1.5-2.6,0.7c-0.8-0.6-0.5-1.6-0.4-2.4c0.3-4.6,0.3-4.5-4.2-5.5c-1.9-0.4-3.7-0.9-5.6-1.4C1,200.1,0,199.8,0,198.7
	c0-1,1-1.3,1.7-1.7c2.5-1.2,5.1-2.1,7.9-2.6c1.5-0.3,2.3-0.7,1.3-2.5c-1.4-2.5-1.4-5.4-1.3-8.2c0-0.7-0.2-1.6,0.7-1.9
	c1-0.4,1.5,0.4,2.1,1c2,2.2,3.9,4.6,6.4,6.3c1.6,1.1,2.8,1.5,3.6-0.8c0.5-1.5,1.2-3.6,3-3.2c1.7,0.3,1.2,2.5,1.5,3.9
	c0.5,3.2,1,6.4,1,9.6c0.1,4.1,3.6,5.5,5.9,8.2c-0.1-2.6-0.2-5.1-0.4-7.7c-1.8-17-2.1-34.1-1.2-51.1c0.2-4.2,0.6-8.3,1-12.5
	c0.5-6.7,0.5-13.3-2.4-19.6c-0.8-1.7-1.9-2.4-3.7-2.4c-3.4,0-6.9-0.5-10.3-0.2c-1.1,0.1-2.6,0.4-3-1.1c-0.3-1.3,1.1-1.7,1.9-2.3
	c0.6-0.5,1.4-0.9,2.3-1.5c-4.2-3.5-9.1-5.5-13.4-8.5c-0.4-0.3-1-0.5-1.4-0.8c-1.6-1.2-1.5-2.2,0.5-2.9c3.3-1.2,6.7-1.3,10.1-0.3
	c3,0.9,3,0.8,3.6-2.4c0.5-2.6,1.2-5.2,2.2-7.7c0.4-0.8,0.7-1.6,1.8-1.7c1.2-0.1,1.3,1,1.6,1.7c1.5,3.4,2.8,6.9,4.3,10.3
	c1.4-0.6,2.1-1.7,3.2-2.5c0.9-0.6,1.7-1.5,2.9-1c1.3,0.6,0.8,1.9,0.6,2.9c-0.5,4.1-0.9,8.3-1.8,12.4c-0.5,2.3-0.6,4.3,0.8,6.4
	c0.7,1.1,1.1,2.5,1.8,4.1c1.4-3.1,1.4-6.1,1.9-9C40.8,86.8,47.7,65,58.5,44.5c1.8-3.5,1.7-7.2,1.5-11c0-1.1-0.6-1.7-1.7-2.1
	c-3.3-1.2-6.7-2.2-10.2-3c-0.9-0.2-2.2,0.1-2.5-1.1c-0.4-1.4,0.8-2.1,1.7-2.8c0.5-0.4,1.1-0.7,1.6-1c-1.4-2.6-3.8-4.2-5.6-6.3
	c-0.9-1-2.6-1.9-2-3.4c0.7-1.8,2.6-1,4-1.1c2.2-0.1,4.2,0.6,6.3,1.3c1.2,0.4,1.8,0.2,2.5-1c1-1.9,2.2-3.7,3.4-5.5
	c0.5-0.7,1-1.5,2-1.2c1,0.3,1,1.2,1.1,2.1c0.3,2.4,0.7,4.9,1,7.3c0.2,1.5,0.8,2.1,2.3,1.3c0.5-0.2,1-0.3,1.6-0.4
	c2.7-0.4,3.7,0.8,2.6,3.3c-1.1,2.5-2.5,5-4,7.4c-1.6,2.4-2.1,4.9-1.3,7.8c1.2-0.3,1.5-1.5,1.9-2.3c1.9-3.7,4.9-6.7,6.1-10.8
	c1.1-4,0.3-7.6-1.4-11.2c-0.3-0.8-1.1-1.5-0.2-2.3c0.7-0.7,1.6-0.4,2.4,0c0.7,0.4,1.5,0.5,2,1c2.1,2.3,3.2,1.1,4.3-1
	c1.3-2.4,2.5-4.7,3.2-7.3c0.2-0.6,0.4-1.2,1.2-1.4c1-0.2,1.3,0.6,1.6,1.2C85.4,4,86,7,85.8,10c-0.1,1.6,0.3,2.3,2,2.3
	c2.5-0.1,4.9,0.8,7,2c1.9,1.1,1.9,2.2-0.1,3.2c-2.9,1.4-5.8,2.6-8.8,4c0.7,1.1,1.4,2.1,1.9,3.3c1,2.3,0.3,3-2.3,2.7
	c-3.7-0.5-7.4-1-11.1-1.6c-1.1-0.2-2-0.2-2.7,1C62.6,41,54.8,56,49.3,72.1c0,0.1,0.1,0.2,0.1,0.2c6.9-3.6,8.8-10.2,10.3-17.1
	c0.2-1.1-0.5-2.7,1.1-3c1.5-0.3,2.2,1.2,3,2.1c0.5,0.6,0.9,1.4,1.4,2.2c2.9-2,5.3-4.1,7.4-6.7c0.6-0.7,1-1.9,2.2-1.4
	c1,0.4,1,1.6,1.1,2.5c0.3,2.8-0.3,5.6-0.9,8.3c-0.3,1.4,0,2.1,1.4,2.6c2.7,1,4.8,2.8,6.6,5c0.6,0.7,1.1,1.4,0.7,2.3
	c-0.4,1-1.3,0.9-2.2,0.9c-1.5,0-3,0.1-4.5,0c-2.6-0.1-4.9-0.3-4.4,3.6c0.3,2-1.2,2.1-2.8,1.6c-3.7-1.3-7.3-3.1-10.8-4.9
	c-1.4-0.7-2.1-0.6-3.4,0.3c-6.6,4.4-10,10.7-11.9,18.1c-4.2,16.5-7.3,33.3-8.5,50.3C34.8,147.9,34.2,156.6,34.3,166.1z M54.6,163
	c-0.3-1.2-1-1.4-1.4-1.8c-0.7-0.6-2-0.7-1.8-2c0.2-1.2,1.3-1.1,2.2-1.5c2.9-1,6.1-1.2,9-2.8c-2.5-1.7-5.4-1.7-8-2.1
	c-1.7-0.3-2.4-0.8-1.9-2.8c0.6-2.5,1.3-5.1,0.9-7.4c-2.8,2.5-5.6,5.1-8.4,7.6c-2,1.7-2.4,1.6-3.5-0.9c-0.3-0.6-0.4-1.4-1.5-1.7
	c0,3.2,0,6.3,0,9.5c1.6-0.2,2.3-1.7,3.7-2.1c0.7-0.2,1.5-0.5,1.9,0.5c0.3,0.8,0,1.4-0.8,1.8c-1.2,0.6-2.6,1-3,2.7
	C46.2,161,50.3,162,54.6,163z M31,96.7c-1,0.9-1.3,1.1-1.6,1.4c-2.7,3.6-3.6,2-4.7-1.1c-0.9-2.6-2-5.1-3.1-8c-2,3-1.8,6.1-2,9
	c-0.2,2.8-0.4,3-3,1.8c-2.9-1.4-5.8-2.2-9.5-1.4c3.5,2.3,6.7,4.3,9.8,6.4c1.9,1.3,4.2,2.3,4,5.2c-0.1,0.6,0.4,0.7,0.8,0.7
	c1.8-0.1,3.7,0.3,5.8-0.1c-1.1-1.6-1.9-2.8-2.7-4.1c-0.5-0.8-1.4-1.7-0.2-2.5c1.2-0.8,1.6,0.5,2.3,1.1c0.8,0.8,1,2.2,2.5,2.5
	C30.5,104.3,30.8,100.9,31,96.7z M70,72.6c0.1-0.7,0.2-1,0.1-1.3C69.5,68,69.5,68,73,67.9c2.2-0.1,4.4,0,6.6,0
	c-1.4-2.5-3.3-3.6-5.5-3.9c-2.4-0.4-2.6-1.6-2-3.6c0.7-2.1,1.6-4.2,1.1-6.8c-2.1,1.7-3.9,3.2-5.9,4.6c-3.2,2.3-3.2,2.3-5.2-0.8
	c-0.7,2.5-1.4,4.9-2.1,7.4c1.7,0.1,3-0.8,4.3-1.3c0.8-0.3,1.5-0.5,1.9,0.4c0.5,1-0.2,1.6-1.1,1.9c-1.6,0.5-3.1,1.2-4.6,2.5
	C63.7,70,66.6,71.6,70,72.6z M14.4,206c3.3-1.6,6.1-3,9-4.4c-1.1-1.4-2.5-1.9-3.8-2.5c-0.8-0.4-1.5-1-1.1-2c0.5-1.1,1.4-0.7,2.2-0.3
	c1.6,0.7,3,2,5,2.3c-0.4-2.7-0.7-5.2-1.2-8.6c-1.4,3.6-3.3,3-5.1,1.9c-1.5-0.9-2.8-2-4.2-3c-0.9-0.7-1.5-1.9-3.1-2.1
	c0.6,1.8,1,3.4,1.6,5c1,2.7,0.5,3.6-2.4,4.2c-2,0.4-3.8,1.1-5.5,2.1c2.1,0.7,4.2,1.4,6.2,1.6c2.4,0.3,3.2,1.4,2.6,3.6
	C14.7,204.4,14.6,205,14.4,206z M74.7,23.1c3.4,0.6,6.4,1.3,9.9,1.3c-0.4-0.6-0.6-0.9-0.8-1.1c-2.7-2.3-2.7-2.7,0.6-4
	c2.4-1,4.9-1.9,7.2-3.4c-2.1-1.2-4.1-1.3-6.2-1.1c-1.9,0.2-2.5-0.6-2.4-2.4c0.2-2.2,0.4-4.4-0.3-7.1c-1.6,2.8-2.6,5.2-4.2,7.3
	c-0.7,0.8-1.1,1.9-2.2,2.2c-1.2,0.4-1.5-1.3-2.8-1.4c0.3,1.8,0,4.5,0.9,4.9C77.2,19.8,75.5,21.2,74.7,23.1z M45.5,15.6
	c2.2,2.6,4.7,4.4,6.2,7.1c0.9,1.5,1.1,2.6-1,3.6c2.9,0.8,5.4,1.6,8.1,2.4c-0.6-2-1.4-3.5-2.2-5c-0.4-0.7-0.7-1.4,0.1-2
	c0.9-0.6,1.5,0,1.9,0.6c1,1.6,1.9,3.2,3,5.1c1.3-2.5,2.6-4.6,3.4-7c-0.6-0.5-1-0.2-1.4-0.1c-3.1,1.2-3.2,1.1-3.9-2.2
	c-0.4-2.1-0.8-4.3-1.3-6.9c-1.1,1.4-1.8,2.6-2.2,3.9c-0.7,2.3-1.9,3.2-4.2,1.8C50.1,16,48.1,15.5,45.5,15.6z"/>
</svg>
