<?xml version="1.0" encoding="utf-8"?>
<!-- Generator: Adobe Illustrator 25.3.0, SVG Export Plug-In . SVG Version: 6.00 Build 0)  -->
<svg version="1.1" id="Layer_1" xmlns="http://www.w3.org/2000/svg" xmlns:xlink="http://www.w3.org/1999/xlink" x="0px" y="0px"
	 viewBox="0 0 54.4 223.4" style="enable-background:new 0 0 54.4 223.4;" xml:space="preserve">
<path d="M29.8,97.7c3.9-9.5,9.1-16.5,15.6-22.6c1.1-1,2-2.8,3.8-1.8c1.4,0.7,0.9,2.4,1,3.7c0.2,5.3-1.1,10.3-3.8,14.9
	c-1.8,3-3.5,6.3-6.1,8.3c-8.9,7-10.4,15.8-9.3,26.5c0.9,9,0.2,18.3,0.8,27.6c4.8-7.1,9.1-14.3,15.1-20.2c1.7-1.7,3.5-4.8,5.9-3.8
	c2.7,1.1,1.3,4.5,0.9,6.9c-1.7,12.4-8.8,21.6-18.2,29.1c-3.7,3-5.1,6-5.1,10.7c-0.2,14.3-3.2,28.3-5.6,42.3
	c-0.2,0.9-0.5,1.8-0.9,2.7c-0.4,0.9-1.2,1.7-2.2,1.5c-1.5-0.3-1.6-1.5-1.4-2.7c0.9-5.3,1.8-10.6,2.8-15.9c0.3-1.9,1-3.7-0.8-5.3
	c-8.3-7.8-12-18.2-15.8-28.5c-2.6-7.2-4.8-14.6-6.1-22.2c-0.4-2.3-1.2-5.8,1.3-6.8c2.4-1,3.6,2.4,4.8,4.1
	c7.7,11.1,15.1,22.3,17.4,36c0.2,1,0,2.4,1.5,2.9c1.9-14.4,1.2-28.8,1.6-43.1c0.1-2.3-1.4-3.3-2.8-4.7c-6.8-6.9-12.5-14.6-17.1-23.1
	c-2.7-5-3.7-10.5-4.3-16.1c-0.1-1.3-0.4-2.9,1.1-3.6c1.6-0.8,2.4,0.7,3.3,1.6c7.5,7.5,14.3,15.6,18.1,25.8c0.2,0.6,0.1,1.6,1.6,1.7
	c-0.7-12.3-1-24.5-2.9-36.7c-0.3-2.3-1.2-3.3-3.6-3.4c-5.1-0.4-8.5-3.3-10.6-7.8c-0.7-1.5-1.8-3.3-0.5-4.9c1.4-1.8,3.5-1.1,5.4-0.8
	c2.8,0.4,4.3,3.1,7.1,3.8c0.8-3-0.5-5.7-0.8-8.6c-0.2-2.1-1.1-3.5-3.6-3.7c-2.7-0.2-4.7-2.1-5.8-4.3c-2-4.3-3.6-8.7-5.3-13.1
	c-0.6-1.5-0.4-3.4,0.9-4.3c3.4-2.5,2.9-6.3,2.1-8.9c-1.9-6.2-2.6-12.1-1.1-18.3c0.3-1.2-1.3-2.7-1.8-4.1C5.7,5.4,6.1,2.8,8.5,0.9
	C11-1.1,12.7,0.7,15,2c4.9,2.8,4.6,7.8,6.8,11.6c4.3,7.3,1.2,16.9,8.3,22.8c0.4,0.3,0.6,1.1,0.6,1.6c-0.3,7.6,0.2,15.5-4.7,22
	c-1,1.4-1.7,2.5-1.4,4.1C26.2,74.8,27.9,85.5,29.8,97.7z M21.5,193.5C20.7,177.4,13,158.4,3.5,149C8,164.5,12,179.2,21.5,193.5z
	 M50.2,134.9c-7.7,8.6-14.4,17.6-17.4,28.9C42,156.2,49.3,147.5,50.2,134.9z M24.5,132.5c-2-12.6-10-26.2-17.7-31
	C8.9,113.8,16.8,122.3,24.5,132.5z M46.3,78.9c-7.1,7-12.4,14.9-14.6,26C39.1,96.7,46.3,89.8,46.3,78.9z M21.6,51.1
	c1.2-3.7,0.9-6.9,0.3-10c-0.2-1.1-0.9-2.3-2.3-2.2c-1.7,0-2.3,1.4-2.2,2.8C17.5,45,17.3,48.7,21.6,51.1z M12.2,72.6
	c3.1,6.6,5,7.8,11.5,7.4C20.2,76.8,17.8,73.1,12.2,72.6z M17.7,34.6c-0.8-1.6-1.3-3.7-3.3-3.7c-2.5,0-2,2.3-2.1,3.9
	c0,1.7,0.8,3.4,2.4,3.4C16.5,38.2,17.4,36.4,17.7,34.6z M13.1,47.7c1.5-0.4,2-1.2,1.6-2.5c-0.6-1.8-1.2-3.8-3.5-3.9
	c-1.4,0-1.7,1.4-1.4,2.5C10.3,45.6,10.7,47.5,13.1,47.7z M24.2,33.3c-0.4-1.7,0.1-4.2-2.3-4.6c-1.8-0.3-1.7,1.5-1.7,2.8
	c-0.1,2.1,0.7,4,2.7,4.4C24.2,36.2,24,34.5,24.2,33.3z M25.8,46.6c3.2-2,2.6-4.7,2.2-7.3c-0.1-0.9-1-1.1-1.7-0.5
	c-2.1,1.7-1.1,4.1-1.1,6.3C25.1,45.4,25.4,45.8,25.8,46.6z M19,58c-0.8-3.3-0.5-6-3.7-6.6c-0.7-0.1-1.8,0.2-1.7,1
	C13.8,55.1,15.4,56.7,19,58z M18.4,15.2c-0.5-2.7,0.5-5.9-2.2-7.8c-0.6-0.4-1.7-0.1-1.9,0.7C13.2,11.8,16.9,12.9,18.4,15.2z
	 M22.2,23.1c-0.4-1.6-1.2-2.9-3-3c-1.6-0.1-1.8,1.3-1.5,2.4c0.3,1.2-0.4,3.5,2,3.2C20.9,25.5,22.3,24.8,22.2,23.1z M15.1,24.4
	c-0.2-0.8-0.1-2.7-2.2-2.5c-1.5,0.1-2.1,1.4-2.1,2.8c0.1,1.6,0.9,2.4,2.5,2.4C14.7,27.1,15.5,26.6,15.1,24.4z M15.3,16.7
	c-0.7-0.9-1.4-2.1-2.8-2.2c-1.3-0.1-2,0.9-2.2,2.1c-0.2,1.8,0.9,2.3,2.4,2C13.8,18.4,15.2,18.5,15.3,16.7z M25.5,51.7
	c-1.6,1.2-3.1,2.4-2.7,4.6c0,0.2,1.1,0.6,1.5,0.4C26.4,55.7,26.8,54.1,25.5,51.7z M12.2,5.3c0-0.8-0.1-1.5-1.2-1.3
	c-1,0.2-1.5,1-1.5,2c0,0.7,0,1.7,0.9,1.7C11.9,7.7,11.7,6.2,12.2,5.3z"/>
</svg>
