<?xml version="1.0" encoding="utf-8"?>
<!-- Generator: Adobe Illustrator 25.3.0, SVG Export Plug-In . SVG Version: 6.00 Build 0)  -->
<svg version="1.1" id="Layer_1" xmlns="http://www.w3.org/2000/svg" xmlns:xlink="http://www.w3.org/1999/xlink" x="0px" y="0px"
	 viewBox="0 0 78.6 223.5" style="enable-background:new 0 0 78.6 223.5;" xml:space="preserve">
<path d="M48.3,187.4c1.1-1.8,2.8-3.1,4.6-4.1c1.8-1,3.9-2,5.6,0.2c1.6,2.1,0.6,4-0.8,5.7c-2.1,2.6-5,4.5-8,5.7
	c-4.6,1.8-6.2,5-6.2,9.7c0.1,4.5-0.2,9-0.4,13.5c-0.1,1.8,0.4,3.8-1.4,5.5c-1.7-1.6-1.3-3.6-1.3-5.3c-0.1-10.4,0-20.8-0.1-31.3
	c-0.1-13.7-2.6-26.9-9-39.2c-1.5-3-3-4.2-6.3-2c-2.8,1.8-6.3,1.9-9.6,1.7c-1.4-0.1-2.8-0.5-3.4-2c-0.7-1.8,0.4-3.1,1.7-4
	c3.1-2.4,6.6-2.8,10.5-1.7c-2.8-6.7-5.5-8.5-11.5-8.2c-13,0.8-14-0.3-11.9-13.2c0.6-3.5,4.7-5.4,8.1-3.7c2.3,1.1,3.8,3.1,5,5.2
	c4.7,9.1,12.8,15.5,18.4,24c1.5-1.9,0.1-3.1-0.3-4.3c-2.5-7.6-5.1-15.1-8.4-22.4c-1.1-2.5-2.7-4.2-5.2-5.5
	c-7.4-3.9-9.6-10.6-6.4-18.4c1-2.4,2.4-4.4,5.2-4.3c3,0.1,6.1,0.7,7.5,3.8c2.9,6.2,5.6,12.4,1.5,19.2c-1,1.6-0.5,3.3,0.3,5
	c6.4,13,10.6,26.7,14.2,41c0-1.9,0-3.7,0-5.6c0-2.1,0.1-4.2,0.2-6.3c0.8-12,1.5-23.9,2.3-35.9c0.3-4.2-0.8-8.3-0.8-12.5
	c0-2.1-1.3-2.4-2.9-2.9c-4.2-1.2-8.1-3.2-11.1-6.5c-1.7-1.9-2.9-4.2-1-6.6c2.1-2.5,4.7-1.7,7.1-0.3c2.6,1.5,4.1,4.2,6.7,6.7
	c0.7-5.4-0.5-10.2-1.1-15c-0.3-2.6-2.8-2.7-5-2.7c-3.7,0.1-7.3-0.4-10.4-2.7c-2.5-1.9-4.6-4.3-2.8-7.5c1.9-3.3,4.9-1.6,7.4-0.5
	c3.4,1.6,6,4.4,10,7.7c-1.7-7.8-3-14.2-4.4-20.6c-0.4-1.9-1.8-2.7-3.6-3.4c-2.3-0.9-4.6-1.8-6.5-3.2c-2.9-1.9-5.9-4.1-5-8.3
	c1.1-5.1,2.8-10,8.6-11.3c3.1-0.7,5.5,0,8.5,2.8c7,6.6,2,13.5,2.1,20.2c0,1.3-1.1,2.5-0.7,4c3,10.7,4.9,21.6,6.9,32.5
	c2.1-16.2,4-32.4,6.6-48.5c0.5-3-1.1-4.4-3.1-6c-3.1-2.6-5.9-5.3-6.2-9.8C42.1,7.2,49.3-0.4,58.1,0c5.6,0.3,11.2,9.7,8.8,14.9
	c-1.7,3.7-4.7,6.5-7.9,8.9c-3.6,2.7-5.3,6.2-5.3,10.7c0,4.6-0.4,9.3-0.7,14.9c2.7-2.7,4-5.4,6.5-7c2.1-1.4,4.4-2.8,6.5-0.5
	c2,2.1,1.3,4.6-0.2,6.7c-2.8,4-6.9,6.3-11.1,8.5c-2,1-3.5,2.1-3.7,4.5c-1.7,21.1-3.5,42.2-4.9,63.4c3.4-11,7.5-21.8,10.9-32.8
	c0.8-2.6-0.6-5.8-0.6-8.7c-0.1-6.7,1.8-8.9,8.5-9.9c9.1-1.4,12.6,0.5,13.4,7.2c1.1,9.1-3.2,15.5-11.7,15.4
	c-6.5-0.1-8.8,2.7-10.1,8.2c-1,4-2.5,7.9-4.1,12.9c3.1-1.7,5.3-2.9,7.5-3.9c1.7-0.8,3.8-1.7,5.3,0.1c1.6,1.9,0.7,4-0.6,5.8
	c-2.5,3.5-6.4,4.9-10.3,5.5c-3.6,0.5-4.4,2.5-5.6,5.5c-6.1,14.9-3.2,30.6-4.6,45.9c-0.2,2.3,0,4.7,0,8.4c3.5-7.7,6.4-14.3,9.4-20.9
	c0.6-1.3-0.1-2.4-0.7-3.4c-1.1-2-1.7-4.2-1.8-6.5c-0.3-7.1,3-11,10-11.2c1.8-0.1,3.8,0.3,4.7,1.8c2.1,3.5,4.4,7.3,3.6,11.6
	c-0.7,4.2-4.2,6.8-8.1,7.2c-4.5,0.5-6.1,3-7.3,6.7c-1.5,4.4-3.4,8.7-5.1,13.1c-0.5,1.4-1.7,2.8-0.4,4.4l-0.2-0.1L48.3,187.4z
	 M60.9,90.4c2.8-2.3,4.2-4.8,5.8-7.2c1.1-1.6,1.9-3.6,0.8-5.3c-0.9-1.4-2.8-0.9-4.3-0.6c-2.3,0.4-2.9,2.1-3.1,4.1
	C59.7,84.3,59.6,87.2,60.9,90.4z M54.5,22.5c3.8-2.4,6.7-5.2,8.8-8.7c0.7-1.2,1.8-3.4-0.6-3.7c-2.5-0.3-5.7-1-6.7,3
	C55.3,16,54.1,18.9,54.5,22.5z M64.3,92.6c3.6,0.7,6.5,0.5,8.9-2c1.1-1.2,3.2-2.5,1.1-4.2c-1.5-1.2-3.7-3.2-5.6,0
	C67.4,88.5,65.9,90.4,64.3,92.6z M32.6,40.5c-1.2-2.8-2-4.9-2.9-6.9C29,32,28.2,30.4,26,30.7c-1.5,0.2-2.7,1-3,2.4
	c-0.4,2,1.1,3.1,2.5,4.2C27.3,38.7,29.4,39.9,32.6,40.5z M50.7,22.5c0.5-2.8,0.9-5,1.3-7.2c0.3-1.6,1.6-3.6-1.3-4
	c-2.7-0.4-4.4,1-4.7,3.6C45.6,18.1,47.1,20.7,50.7,22.5z M61,5.5C57.4,3,53.7,4.2,50,4.7c-0.6,0.1-1.4,1.2-1.5,2
	c-0.2,1.4,1.3,1.2,2.1,1.6C54.9,10.2,57.1,5.2,61,5.5z M59.7,156.5c2.1-2.6,4.2-4.2,4.8-6.7c0.4-1.6,0-3.1-1.8-3.7
	c-2.2-0.7-2.6,0.8-3,2.4C59.2,150.8,59,153.2,59.7,156.5z M35.4,38.3c0.3-0.1,0.6-0.2,0.9-0.3c0.4-2.2,0.8-4.3,1.1-6.5
	c0.1-1,0.2-2.1-1.2-2.4c-1.2-0.3-2.3-0.6-3.4,0.2c-1,0.8-0.8,1.8-0.4,2.7C33.4,34.1,34.4,36.2,35.4,38.3z M20.5,108.9
	c-1.5-3.7-2.6-6.4-3.6-9.1c-0.4-1-0.9-2-2.2-1.7c-1.7,0.5-1.3,1.9-0.9,3C14.7,104.1,15.9,107,20.5,108.9z M54.8,53.2
	c3.3-1.6,6.2-3.7,8.6-6.3c0.6-0.6,1-1.5,0.3-2.3c-0.8-1-1.5-0.2-2.2,0.3C58.5,46.9,56.4,49.8,54.8,53.2z M12.6,124.2
	c-1.3-3.3-2.8-5.4-5.4-6.6c-1-0.5-2.1-0.3-2.8,0.6c-0.8,1.1,0,1.9,0.8,2.6C7.2,122.4,9.5,123.3,12.6,124.2z M24.3,27.4
	c4,0.8,7.1,0.6,9.3-2.9C29.6,22.2,26.9,23.4,24.3,27.4z M24.1,108.9c1.3-3.3,1.2-5.5,0.9-7.6c-0.2-2-1.6-2.5-3.3-2.2
	c-2.3,0.5-1,2.1-0.6,3.2C21.8,104.2,22.8,105.9,24.1,108.9z M71,74.9c0.2,2.2,0.4,3.9,0.4,5.5c0,2.1,1.6,2.9,3,2.8
	c2-0.2,1.2-2.1,0.9-3.3C74.8,77.8,73.7,76.2,71,74.9z M62.9,116.1c-3.9,0.7-7.3,2.3-10.5,6.3C57.2,121.1,60.9,120.2,62.9,116.1z
	 M40,90.5c-2.4-2.2-4.7-4.5-7.1-6.6c-0.6-0.5-1.6-0.9-2.3-0.1c-0.8,0.8-0.1,1.6,0.5,2.2C33.3,88.3,36.2,89.9,40,90.5z M17.9,91.9
	c-1.4,0-3.2,0.7-2.6,1.7c1,1.6,3,2.5,5.1,2.4c1,0,2.4-0.2,2-1.6C21.7,92.3,19.6,92.2,17.9,91.9z M56,158c-1-3.4,1.1-7-0.6-10.2
	C53.9,151.3,53.8,154.8,56,158z M12.5,128.3c0-0.2-0.1-0.4-0.1-0.6c-2-0.8-4.1-1.6-6.1-2.5c-1.3-0.6-2.2-0.6-2.7,1
	c-0.5,1.6,0.2,2.2,1.7,2.2C7.7,128.3,10.1,128.3,12.5,128.3z M48.6,191.5c3-1.1,6.1-2.3,8-6.6C52.4,186.3,50.2,188.5,48.6,191.5z
	 M25.1,62.1c2.6,4.1,3.2,4.4,8,4.1C30.6,64.2,28.4,62.5,25.1,62.1z M67,153.9c-2.9,1.7-4,3.4-5.9,6C64.4,158.7,65.8,157.3,67,153.9z
	 M16.9,144c2.6-0.1,4.3,0.2,6.3-1.4C20.6,142.2,19.1,142.3,16.9,144z"/>
</svg>
