<?xml version="1.0" encoding="utf-8"?>
<!-- Generator: Adobe Illustrator 25.3.0, SVG Export Plug-In . SVG Version: 6.00 Build 0)  -->
<svg version="1.1" id="Layer_1" xmlns="http://www.w3.org/2000/svg" xmlns:xlink="http://www.w3.org/1999/xlink" x="0px" y="0px"
	 viewBox="0 0 38.5 230.6" style="enable-background:new 0 0 38.5 230.6;" xml:space="preserve">
<path d="M26.4,196.8c3-2.1,6.2-3.7,9.5-5.1c0.7-0.3,1.5-0.8,2.1-0.1c0.8,0.8,0.4,1.6,0,2.4c-0.9,1.5-1.2,3.3-1.7,5
	c-1.1,3.9-3.6,6.3-7.7,6.5c-1.9,0.1-2.9,1.1-4.3,2c-6,3.6-8.1,8.9-7.5,15.7c0.2,1.8-0.2,3.7-0.3,5.6c-0.1,0.9-0.5,1.8-1.5,1.8
	c-1.2-0.1-1.3-1-1.2-2c0.3-3.7,0.6-7.5,0.9-11.2c0.4-6.7,0.7-13.4,1.1-20.1c0.1-1.5-0.2-2.7-1.2-3.9c-2-2.3-3.1-5.1-4.4-7.7
	c-0.4-0.9-0.7-1.9-2-1.8c-3.3,0.3-4.8-2-5.6-4.6c-1.2-3.8-2.1-7.8-2.5-11.8c-0.1-0.7,0-1.3,0.7-1.6c0.6-0.2,1.1-0.1,1.5,0.3
	c4.5,3.8,9.5,7.3,9.1,14.3c-0.1,1.3,0.8,2.2,1.3,3.3c0.3,2.4,1.3,4.3,3,6.3c0.5-1.5,0.6-2.6,0.1-3.8c0.9-0.8,0.5-1.9,0.5-2.8
	c0.1-10.1,0.2-20.2,0.3-30.3c0-3.1-3.7-7.7-6.7-8.4c-6.6-1.6-10.2-6.9-9.2-13.4c0.2-1.3,1.2-1.8,2.2-1.1c4.2,3,9.7,4.8,9.7,11.4
	c0,1.9,2,2.8,3.3,4.1c1.1-0.9,0.7-2,0.7-3c0-7.8-0.1-15.6-0.2-23.5c0-2.9-4.3-9.3-7-10c-3.5-1-5-3.4-5.3-6.7c-0.1-1.3-0.1-2.6-0.1-4
	c0-3.1,1.3-3.9,4-2.3c3.7,2.2,5.9,5.4,5.5,9.8c-0.2,2.5,0.5,4.1,2.8,5.8c0-3.9,0-7.5,0-11.1c0-4-0.4-8,0-11.9
	c0.6-5.4-1.9-8.9-5.8-12c-0.6-0.5-1.2-0.9-2-1c-3.3-0.4-4.9-2.5-5.7-5.6c-0.6-2.6-0.6-5.2-0.5-7.9c0.1-1.9,1.1-2.5,2.6-1.3
	c3.8,3.2,7.8,6.4,7.6,12.1c-0.1,2.2,1.1,3.3,2.8,4.3c0.9-1,0.5-2,0.5-3c0-7.4-0.1-14.8,0-22.2c0-2-0.6-3.4-2-4.6
	c-2.4-2-4.2-4.5-7.8-4.8c-3.4-0.3-4-3.4-4.5-6.1c-0.3-1.9-1.3-4.3,0.2-5.7c1.4-1.3,3.2,0.9,4.7,1.4c3.3,1.2,5.2,3.9,5.4,7.3
	c0.2,2.7,1.4,4.2,3.7,5.8c0.1-1.2,0.2-2.2,0.2-3.1c0-5.6,0-11.2,0.1-16.9c0-2.7,0-5.2-2-7.6c-2.1-2.6-1.7-6-0.5-9.2
	c0.9-2.5,2.2-4.8,2.7-7.4c0.3-1.4,1.4-2.2,2.5-0.5c2.8,4.3,4.3,8.9,3.1,14.1c-0.2,0.7-0.3,1.6-0.7,2.2c-4.3,4.8-1.7,10.4-2.6,16.3
	c2.8-2,4.7-3.6,5.2-6.7c0.7-4.2,6.6-8.8,11-9.3c1.4-0.1,2,0.5,2.1,1.9c0.7,6-3.6,11.4-9.5,11.9c-4,0.3-8.6,5.2-8.7,9.1
	c0,6.5,0,13,0,19.8c1.9-0.8,3.3-1.8,3.3-3.5c0.1-4.9,3.2-7.6,6.8-9.8c1.3-0.8,2.7-2.8,4.2-1.8c1.6,1,1,3.2,0.8,4.9
	c-0.6,5.9-2.9,8.3-9,9.5c-2.2,0.4-6,5.1-6.1,7.5c0,1.3,0,2.6,0,4c0,6.7,0,13.4,0,20.7c1.9-1.4,3.2-2.3,3-4.6c-0.4-4,1.5-6.8,4.8-8.7
	c1.9-1.1,3.8-2.2,5.8-3.1c1.5-0.7,2.5-0.4,2.6,1.6c0.2,5.7-3.5,11.1-9.1,12.8c-2.5,0.8-6.6,5.7-6.7,8.2c0,10.5,0,20.9,0.3,31.4
	c2.6-2.4,5.7-4.2,5.2-8.4c-0.2-2.1,1.1-3.7,3-4.8c2.5-1.4,5.3-2.2,7.7-3.8c1.3-0.8,2.1,0,1.9,1.5c-0.3,3.4-1.2,6.7-3.1,9.6
	c-1.1,1.6-2.7,2.3-4.6,2.2c-2.3-0.1-3.5,1.3-5,2.5c-4.4,3.5-5.4,7.9-5.2,13.3c0.4,9.1,0.1,18.2,0.1,27.8c2.4-2.3,5.1-3.7,4.7-7.5
	c-0.2-2,0.9-3.8,2.6-5.1c2.4-1.9,4.9-3.8,7.4-5.5c1.8-1.3,2.5-0.8,2.5,1.4c0,3.4-0.7,6.8-2.2,9.9c-1.1,2.3-3,3.9-5.4,3.9
	c-2.8,0-4.2,1.6-6.1,3.2c-2.8,2.4-4.2,5.1-4,8.8c0.2,3.7-0.7,7.5,0.1,11.2c-0.9,5.1-0.4,10.2-0.9,15.3c-0.1,1.3,0,2.7,0,4.8
	c2.7-2.7,6.1-3.7,6.3-7.1C24.5,200.3,25.2,198.6,26.4,196.8z M4.6,175.1c-0.8,1.9,0.4,3.4,1.2,5c0.5,0.9,1.4,1.2,2.2,0.8
	c1.2-0.7,0.5-1.6-0.1-2.4c0.8-2.9-0.5-5.1-4-6.8C3.8,172.9,3.8,174.1,4.6,175.1z M28.5,199.1c-1.4,0.9-2.1,2.4-1,3.4
	c0.9,0.9,2.7,0.6,3.5-1c3.2-0.8,2.4-3.6,3-5.8C32.1,196.9,29.6,197,28.5,199.1z M17.5,5.4c-0.5,1.1-1,2-1.3,2.9
	c-1,2.5-1.3,5.1-0.8,7.7c0.2,0.9,0.6,1.8,1.5,2c1.2,0.2,1.2-1,1.6-1.7C20,12.6,20.3,9.1,17.5,5.4z M33.4,155c-2.2,1-3.6,2.4-5.1,3.7
	c-1.3,1.1-1.7,2.7-1.7,4.4c0,0.7,0.6,0.8,1.2,0.8c1.8,0,3-1,4-2.5C33,159.6,33.4,157.5,33.4,155z M33.5,20.9c-5.3,2-6.4,3-7.4,5.7
	c-0.7,2,0.1,2.3,1.8,2.1C31.5,28.1,32.8,26.3,33.5,20.9z M31.5,78.5c-1.5,0.8-2.8,1.4-3.9,2.2c-1.6,1-3,2.2-3.3,4.3
	c-0.1,0.7-0.4,1.4,0.2,1.8c0.5,0.4,1,0,1.5-0.2C29.4,85.1,31.4,82.6,31.5,78.5z M33.5,116.3c-1.5,0.5-2.7,0.9-3.9,1.5
	c-1.6,0.7-2.6,2-2.7,3.8c-0.1,1.4,0.4,2,1.9,1.7C31.7,122.7,33.1,120.9,33.5,116.3z M30.8,48.7c-2.8,1.1-4.5,2.7-5.8,4.7
	c-0.6,1-1,2.2-0.1,3c1,0.8,2.3,0.3,3.2-0.6C30.1,54.1,30.3,51.7,30.8,48.7z M4.8,64.4c0.3,3.1,0.2,5.4,1.6,7.4
	c0.8,1.1,1.9,1.8,3.1,1.1c1-0.6,0.4-1.8,0.1-2.7C8.6,68.1,7.2,66.4,4.8,64.4z M4.1,134.3c0.2,4.4,1.5,6.6,4,7.2
	c1.6,0.4,2.1-0.2,1.6-1.6C8.9,137.1,6.6,135.7,4.1,134.3z M6.9,98.9c-0.2,3-0.5,5.5,1.9,7.2c0.5,0.4,1.2,0.8,1.8,0.5
	c0.7-0.3,0.5-1.2,0.4-1.7C10.6,102.5,9.8,100.3,6.9,98.9z M5,34.8c-0.5-0.1-1-0.1-1,0.4c-0.2,1.3,0,2.6,0.8,3.8
	c0.8,1.2,2,1.6,3.4,1.6c0.8,0,0.8-0.5,0.8-1.1C9.1,37.8,6.7,35,5,34.8z"/>
</svg>
