<?xml version="1.0" encoding="utf-8"?>
<!-- Generator: Adobe Illustrator 25.3.0, SVG Export Plug-In . SVG Version: 6.00 Build 0)  -->
<svg version="1.1" id="Layer_1" xmlns="http://www.w3.org/2000/svg" xmlns:xlink="http://www.w3.org/1999/xlink" x="0px" y="0px"
	 viewBox="0 0 105.3 229.9" style="enable-background:new 0 0 105.3 229.9;" xml:space="preserve">
<path d="M51.4,64.4c0-4.4-0.2-8.8-0.1-13.1c0-2.1-0.7-3.1-2.7-3.4c-3.1-0.5-5.9-1.8-8.3-3.9c-1.5-1.3-2.9-2.8-1.5-5
	c1.5-2.2,3.4-1.8,5.4-0.7c2.4,1.3,4.2,3.3,6.5,5.4c0.8-2.6,0.2-4.9-0.1-7.2c-0.2-1.5-1.6-1.5-2.7-1.9c-2.6-0.9-5.2-1.7-7.1-3.7
	c-1.6-1.6-2.4-3.5-0.9-5.5c1.6-2,3.5-1.1,5.2,0c1.7,1.1,3.2,2.4,5,3.7c1.1-2.5,0.3-4.2-1.5-5.6c-2.8-2.1-5.1-4.8-6.6-7.9
	c-1.8-3.7-0.7-6.5,3.1-7.9c1.5-0.5,1.4-1.5,1.7-2.6C47.5,1.5,49.4,0,52.9,0c3.8,0,5.1,0.9,6.2,4.9c0.3,1,0.4,1.7,1.7,2.2
	c4.2,1.6,5.2,4.8,2.7,8.5c-2.2,3.2-4.7,6.3-8.1,8.1c-2.9,1.6-3.7,3.6-2.6,7c1.8-1.7,3.5-3.2,5.1-4.7c1.3-1.1,2.7-2.1,4.5-1.9
	c2.7,0.4,3.7,3.4,1.8,5.6c-1.8,2.2-4.5,2.9-7,3.8c-4.7,1.7-4.7,1.7-4.4,6.7c0.1,1-0.2,2.1,0.6,3.2c2.2-1.5,3.9-3.8,6.3-4.9
	c2-0.9,3.9-1.7,5.5,0.5c1.7,2.3,0,3.9-1.6,5.2c-2.2,1.9-4.7,3.1-7.6,3.4c-2.1,0.2-3.2,1.2-3,3.5c0.2,2.9,0.3,5.9,0.3,8.9
	c0,2.4,0.5,3.6,3.5,3.4c3.8-0.2,5.1,2,3.7,5.1c-0.9-0.1-0.8-0.8-0.9-1.4c-0.5-1.7-1.8-2.1-3.3-1.9c-1.6,0.3-2.5,1.4-2.5,3
	c0,3,0,5.9,0.1,8.9c0.1,3.5,0.5,6.9,0.6,10.4c0.1,3.3,0,6.7,0,9.8c1.8,0.7,2.4-0.3,3.1-0.9c2.2-1.9,4.4-4,6.5-6c4.1-4.1,4.1-4.1,0-8
	c-0.9-0.9-1.8-1.8-2.5-2.9c-1.2-1.8-1.9-3.8,0.5-5.3c2.4-1.5,4,0,5.1,1.9c0.9,1.5,1.5,3.3,2.1,5c0.6,2,1.4,2.4,2.7,0.6
	c0.1-0.1,0.1-0.2,0.2-0.3c1.4-2,3.7-3.9,4-6c0.4-2.5-3.2-2.7-4.8-4.4c-1.4-1.5-3-2.9-3.8-4.8c-0.5-1.4-0.9-3,0.5-4.3
	c1.6-1.3,3.1-0.7,4.6,0.3c1.2,0.8,2,2,2.6,3.3c0.9,2,1.8,4,2.8,6c1.4-0.4,1.5-1.7,2-2.7c2.6-5.4,2.5-5.4-2.7-8.2
	c-2.1-1.1-4-2.4-5.1-4.6c-1-1.9-1.2-3.8,0.8-5.2c1.8-1.3,3.5-0.7,4.9,0.7c1.1,1.1,2,2.4,2.9,3.6c0.9,1.2,1.2,2.8,2.5,3.8
	c1.6-1.7,1.2-3.2-0.3-4.7c-2.7-2.9-4.7-6.1-5-10.2c-0.3-3.9,0.4-5.1,4.4-6.2c1.3-0.4,1.5-1.3,2-2.1c1.9-2.7,4.6-3.7,7.8-2.9
	c3.2,0.8,5.1,3,5.4,6.3c0.2,1.7,0.4,3,1.7,4.3c2,2,0.9,6-1.8,8.6c-2.3,2.2-5.2,3.2-8.3,3.9c-1.3,0.3-2.6,0.4-3.1,1.8
	c-0.4,1-1.1,2-0.5,2.9c0.5,0.9,1.7,0.3,2.5,0.2c2.4-0.3,4.8-0.8,7.3-0.9c3-0.1,4.7,1.6,4.7,3.9c0,2.4-1.8,3.7-4.8,3.8
	c-3.4,0-6.2-1.5-9.1-3c-1.1-0.6-2.1-1.1-2.8,0.6c-1,2.5-2.1,4.9-3.3,7.8c2-0.3,3.5-0.6,5-0.8c1-0.1,2-0.3,3.1-0.3
	c3.8,0.2,6.2,2.2,5.7,4.8c-0.4,2.5-3,3.4-6.7,2.6c-2.3-0.5-4.4-1.5-6.4-2.7c-1.7-0.9-2.8-0.7-3.9,0.9c-1.4,2.1-2.9,4.2-4.4,6.2
	c1.4,1.2,2.9,0.7,4.3,1.1c1.1,0.3,2.3,0.3,3.4,0.8c1.6,0.7,3.1,1.7,2.6,3.7c-0.5,2-2.3,2.2-4.1,2.1c-2.7-0.2-4.9-1.6-7-3.1
	c-1.2-0.8-2.1-1.4-3.3-0.1c-3.9,4.4-8.3,8.5-13,12.1c-0.3,0.2-0.3,0.7-0.5,1.3c2.4,0.3,4.5-1.1,6.8-0.7c2.5,0.5,4,1.9,4.1,4.4
	c0,2.1-1.1,3.5-3.4,3.7c-0.2-0.5-0.4-0.7-0.3-0.9c0.4-1.3,2.8-2,1.4-3.9c-1.5-2.1-3.7-1.4-5.7-1c-1.8,0.4-2.9,1.4-2.8,3.5
	c0.3,9.7,0.9,19.3,0.8,29c0,13.9,0.7,27.8,1.1,42.4c3.5-2.7,6-5.6,8.4-8.7c1-1.3-0.4-2.1-1.2-2.8c-1.8-1.6-3.6-3.3-4.7-5.6
	c-0.7-1.6-1.1-3.3,0.7-4.4c2-1.2,3.4,0,4.5,1.6c1.6,2.3,2.2,5.1,3.4,7.9c2.5-2.1,4.1-4.8,6.1-7.1c1.1-1.4,0-2.1-0.7-2.9
	c-1.3-1.4-2.8-2.7-4.1-4.1c-1.1-1.3-1.9-2.8-2-4.5c-0.1-1.5,0.1-2.9,1.6-3.6c1.5-0.7,2.8,0.1,3.7,1.3c2.2,2.7,3,5.9,4.3,9.6
	c2.1-2.2,3.2-4.6,4.6-6.7c1.1-1.6-0.3-2.3-1.2-3.2c-2.3-2.1-4.9-3.8-6.1-6.8c-0.8-1.9-1-3.8,0.8-5.3c2.2-1.7,4.8-0.7,6.1,2.4
	c0.6,1.4,0.9,3,1.3,4.4c0.4,1.3,0.9,2.6,1.4,4.1c1.6-1.2,1.9-2.8,2.8-4c1.3-1.8,1.3-3.4-0.2-5.2c-2-2.5-2.9-5.4-3.3-8.5
	c-0.5-4.1,0.8-6,4.8-6.9c1.2-0.3,1.7-0.9,2.4-1.7c2.3-2.6,5.4-3.3,8.3-2.2c3,1.2,4.6,3.8,4.5,7.4c0,1-0.4,1.8,0.4,2.8
	c2.3,3.1,2,5.3-0.5,8.2c-2.3,2.6-5.4,4-8.5,3.9c-4.3-0.1-6.2,2.2-7.7,5.5c-0.3,0.7-0.7,1.3-1.2,2.2c3.1,0,6-0.1,8.9,0
	c3.2,0.1,5.1,1.7,4.8,4.2c-0.5,3.1-2.8,3.3-5.3,3.1c-3.1-0.2-5.6-1.9-8.1-3.5c-1.6-0.9-2.5-0.8-3.3,0.9c-1,1.9-2.3,3.7-3.8,6.1
	c2.3,0,4,0,5.8,0c1.3,0,2.6,0.1,3.8,0.5c1.7,0.6,3.2,1.4,2.8,3.5c-0.4,2-2,2.5-3.8,2.6c-2.3,0.1-4.3-0.4-6.3-1.5
	c-4.5-2.2-4.5-2.2-7.7,1.9c-1,1.3-2,2.6-3.5,4.6c2.9,0,4.9-0.2,6.9,0c2.2,0.3,4.8,0.9,4.2,3.9c-0.5,2.6-2.8,2.5-5,2.1
	c-1.7-0.3-3.4-0.8-4.7-1.8c-2.7-2.1-4.5-1.3-6.4,1.1c-1.7,2.2-3.9,4.1-5.8,6.2c-0.8,0.9-2.1,1.6-1.7,3.6c2.1-0.7,3.9-2.2,6.2-2.1
	c1.8,0.1,3.3,0.7,4.1,2.4c0.8,1.6,0.2,3-0.8,4.3c-0.4,0.6-1.1,1.4-1.9,0.9c-0.9-0.6-0.3-1.3,0.2-1.9c0.7-0.8,1.3-1.6,0.5-2.7
	c-0.8-1.1-2-1.1-3.1-0.9c-3.4,0.4-5.2,2.5-5.1,6c0.4,12.2,1,24.4,1.4,36.7c0.1,1.4,0.6,3-0.7,4.4c-1.4-0.5-1-1.7-1.1-2.6
	c-0.5-12.5-1-25-1.5-37.4c-0.1-4-2.4-6.4-6.3-6.7c-1.3-0.1-2.3,0.3-3,1.3c-0.7,1-0.1,1.7,0.5,2.4c0.4,0.5,1.1,0.9,0.5,1.6
	c-0.7,0.8-1.4,0.1-1.9-0.4c-1.2-1.2-1.8-2.5-0.9-4.2c1.1-2.1,3-2.9,5.2-2.5c1.8,0.3,3.6,1.1,5.4,1.7c0.7-2.1-0.9-2.3-2-2.7
	c-5.2-2.3-9.9-5.4-14.3-9c-1.6-1.4-2.7-1.4-4.2,0.2c-1.4,1.5-2.9,2.9-4.9,3.6c-2,0.7-4.2,1.4-5.3-1.2c-1-2.4,1-3.5,2.8-4.3
	c2-0.9,4-1.5,6-2.2c-0.1-1.1-1-1.5-1.6-2.1c-1.8-1.7-3.4-4.1-5.5-4.7c-2.1-0.6-3.7,2.3-5.8,3.3c-1.6,0.8-3.2,1.7-5,1.8
	c-1.8,0.1-3.4-0.5-4-2.3c-0.6-1.9,0.3-3.3,1.7-4.3c1.5-1.1,3.3-1.5,5.1-1.5c1.7,0,3.3,0,5.4,0c-1.2-3-3.1-5.1-4.5-7.4
	c-0.8-1.3-1.8-0.4-2.6,0c-2.4,1.3-4.6,2.8-7.3,3.4c-1.6,0.4-3.1,0.4-4.5-0.3c-1.5-0.8-2.3-2.1-2.1-3.8c0.3-2.1,1.8-3.1,3.7-3.3
	c3.4-0.4,6.9,0.2,10.4,0.4c-0.3-3-1.7-4-4.4-3.9c-4,0-7.7-0.9-10.4-4.1c-2-2.3-3-5-0.7-7.6c1-1.1,0.7-2,0.6-3.2
	c-0.3-3.5,1.4-6.1,4.5-7.3c3.2-1.3,5.9-0.7,8.3,2.1c0.7,0.8,1.1,1.4,2.4,1.5c3.7,0.5,5.1,2.4,5,6.4c-0.2,3.4-1.5,6.5-3.3,9.4
	c-1.4,2.2-1.4,2.3,0,4.8c1.6-2.6,2-5.7,3.9-8c1.4-1.8,3-3.5,5.5-1.9c2.5,1.7,1.9,3.9,0.7,6.1c-1.4,2.5-3.6,4-6,5.4
	c-2.2,1.3-2.5,2.5-1,4.5c1.1,1.5,2.1,3.1,3.5,5.2c0.7-2.6,1.2-4.5,1.8-6.4c0.4-1.5,1.2-2.9,2.3-4c1.2-1.2,2.6-1.9,4.2-0.9
	c1.5,0.9,1.9,2.4,1.4,4c-0.8,3.1-2.7,5.6-5.1,7.5c-2.3,1.8-1.9,3.1,0.1,4.8c1.8,1.5,3.4,3.1,5.3,4.9c1.5-2.3,1.2-4.9,2.1-7.1
	c0.9-2.2,2.1-4.1,4.8-3.1c2.8,1.1,2.1,3.5,1.2,5.6c-0.8,2.1-2.4,3.6-3.9,5.2c-1.2,1.3-1.1,2.3,0.2,3.2c4.8,3.2,9.3,6.9,15.1,9.2
	c0.7-4.4,0.4-8.6,0.1-12.7c-0.5-6.8-0.6-13.6-0.5-20.5c0.2-12.6-0.8-25.2-1-37.8c0-3.6-1.2-4.7-4.8-5.2c-1.7-0.3-3.3,0.1-3.8,1.8
	c-0.6,1.7,0.7,2.6,2.2,3c0.5,0.2,1,0.3,1.2,1.3c-1.6,0.9-2.9,0.3-4.2-0.9c-1.4-1.3-1.8-2.8-0.9-4.5c1.2-2.4,3-2.7,9.4-1.9
	c0.4-1.5-1.1-1.9-1.8-2.6c-1.2-1.3-2.8-2.4-3.8-3.8c-3-4.4-6.2-6.8-11.3-2.8c-1,0.8-2.6,1-4.1,0.8c-1.4-0.1-2.6-0.6-2.9-2.1
	c-0.3-1.6,0.4-2.7,1.9-3.4c2.6-1.2,5.5-0.7,8.9-1.1c-1.9-2.6-3.5-4.7-5-6.8c-1-1.4-2.1-1.1-3.4-0.4c-2.4,1.2-4.8,2.6-7.6,2.8
	c-2.1,0.1-4.5,0-5-2.5c-0.6-2.7,1.7-3.3,3.8-3.9c2.8-0.7,5.6-0.3,8.5-0.5c-0.2-0.5-0.2-0.8-0.4-1.1c-3.9-6.4-3.9-6.4-10.6-3.2
	c-1.8,0.8-3.5,1.6-5.5,1.4c-2.1-0.3-3.8-1.1-3.9-3.5c-0.1-2.3,1.3-3.4,3.4-3.9c2.2-0.5,4.4,0.5,6.5,0.2c1.2-0.1,3.4,0.9,3.4-1
	c0.1-1.6-1-3.5-3.1-4c-1.8-0.4-3.6-0.5-5.3-0.8c-2.8-0.6-5.4-1.7-7.2-4.1c-1.3-1.7-2.6-4-1.4-5.7c1.9-2.5,1.4-5.3,2.1-7.9
	c1.3-5,8.3-6.6,11.9-2.9c1.2,1.2,2,2.3,4,2.5c2.6,0.2,3.5,2.3,3.7,4.7c0.3,3.8-0.8,7.2-3,10.2c-1.9,2.6-1.7,4.6,0.8,6.9
	c1.1-1.7,1.4-3.5,1.9-5.3c0.4-1.6,0.9-3.2,1.9-4.6c1.2-1.6,2.8-1.8,4.5-1.1c1.7,0.7,2.2,2.1,1.9,3.8c-0.4,2.7-2.1,4.6-4,6.4
	c-4.9,4.5-4.9,4.5-0.9,9.9c0.3,0.4,0.6,0.9,1.1,1.7c1-2.5,1.8-4.3,2.6-6.2c0.5-1.2,1.1-2.3,2.1-3.2c1-0.9,2.2-1.5,3.5-0.8
	c1.3,0.7,1.7,1.9,1.5,3.3c-0.5,3.1-2.2,5.6-4.6,7.4c-2.5,1.9-2.8,3.6-0.6,5.9c1.5,1.6,2.7,3.4,4.2,5.3c1.3-2.7,2.2-5,3.4-7.2
	c0.9-1.7,2.4-3,4.4-1.8c2.1,1.2,1.5,3,0.7,4.7c-1,2.2-2.7,3.8-4.5,5.2c-1.6,1.2-1.7,2.4-0.2,3.8c1.5,1.5,2.7,3.1,4.1,4.6
	c0.9,0.9,1.8,1.8,3.2,3c0.7-2.5,0.3-4.6,0.3-6.7C52.5,84.1,52.2,77,52,70c-0.1-2.5-1.1-3.9-3.5-4.2c-1-0.1-1.8,0.1-2.2,1.1
	c-0.3,0.7,0,2.3-1.4,1.4c-1.1-0.7-0.8-2.1,0.1-3.1C46.8,62.9,49.2,64,51.4,64.4L51.4,64.4z M65.3,164.8l0.2,0.2L65.3,164.8
	c-0.1-2.1-1.1-3.9-2.3-5.6c-0.4-0.5-0.9-1-1.6-0.6c-0.7,0.4-0.4,1.1-0.2,1.7C62.2,162.3,63.3,163.9,65.3,164.8z M54.5,45.8
	c3.1,0,5.7-1,8-3c0.8-0.6,1.8-1.4,1.2-2.5c-0.8-1.2-2.1-0.6-3-0.1C58.2,41.6,56,43.4,54.5,45.8L54.5,45.8z M49.1,45.8l0.1,0.1
	L49.1,45.8c-1-3-3.6-4.4-6.1-5.9c-0.8-0.5-1.8-0.6-2.5,0.2c-0.7,1,0.2,1.7,0.7,2.2C43.5,44.4,46,45.8,49.1,45.8z M80.7,59.8
	c0.1,0,0.2,0.1,0.3,0.1c-0.1-0.1-0.2-0.1-0.2-0.2c-0.5-2.3-1.8-4.2-3.3-5.9c-0.9-1-2.1-2.5-3.5-1.1c-1.3,1.3-0.1,2.7,0.8,3.7
	C76.5,58.1,78.4,59.2,80.7,59.8z M21.3,144.7c2.3-0.9,4.2-2.4,5.7-4.4c0.8-1.1,1.9-2.6,0.4-3.7c-1.7-1.3-2.6,0.4-3.3,1.5
	C22.6,140.1,21.6,142.3,21.3,144.7L21.3,144.7z M49.9,21.8L50,22L49.9,21.8c0-2.3-1.3-4.4-1.5-6.7c-0.2-2,0-4,1.9-5.1
	c1.4-0.9,3-0.9,4.4,0.1c2,1.3,1.9,3.3,1.4,5.2c-0.6,2.3-1.5,4.5-2.6,7.4c3.6-2,5.8-4.6,7.9-7.3c1.3-1.6,2.2-3.4,1-5.3
	c-1.1-1.9-2.9-1-4.5-0.7c-0.2,0-0.4-0.3-0.7-0.5c0-0.4,0.1-0.9,0.1-1.4c0.2-4.1-0.8-5.4-4-5.6c-3.5-0.1-4.7,1.2-4.5,5.4
	c0.1,1.9-0.8,2.1-2.2,2.2C43,10,42,11.8,43.7,15.1C45.2,17.8,47.1,20.2,49.9,21.8z M17.9,137.8c1.6-3.2,2.6-5.7,2.2-8.4
	c-0.3-2-0.8-4.4-3.9-3c-1.3,0.6-1.7-0.2-2.3-1.3c-1.7-3.2-4.1-4.2-6.8-3c-2.8,1.2-3.8,3.7-2.9,7c0.3,0.9,1.1,1.9-0.4,2.6
	c-3.1,1.4-2,3.5-0.6,5.3c2.1,2.8,5.1,3.8,9.2,3.4c-2.3-2.1-3.8-3.9-4.6-6.3c-0.7-2-1.5-4.2,0.9-5.5c2.3-1.3,4.5-0.3,6.1,1.7
	C16.5,132.2,17.3,134.5,17.9,137.8z M83.3,50.9c0.3-3.1,0.8-6,2.9-8.3c1.4-1.6,3.3-2.3,5.2-1.3c1.7,0.9,1.8,2.7,1.5,4.4
	c-0.5,2.9-1.7,5.5-4.3,8.5c4.3-1.1,7.4-2.3,9.1-5.7c0.7-1.4,1.3-3.5-0.3-4.1c-2.7-1-2-2.4-1.8-4.4c0.3-2.5-1.2-4.5-3.7-5.3
	c-2.3-0.8-4.6-0.5-5.8,1.7c-1.1,2-1.3,4.3-4.7,3.5c-1.2-0.3-1.6,1.4-1.7,2.6C79.8,45.8,81,48.5,83.3,50.9z M93.3,135.7
	c3.6-0.3,7-0.8,9-3.8c1.1-1.7,2.5-3.7-0.5-5c-1.5-0.7-1.1-1.7-0.8-2.9c0.8-3.4-0.2-5.8-2.7-6.7c-2.8-1-5.3-0.1-7,2.9
	c-0.6,0.9-0.8,1.9-2.2,1.4c-3.1-1.1-3.7,1-3.8,3.2c-0.1,2.7,0.4,5.4,2.6,8.2c0.2-3.5,1-6.2,3.1-8.3c1.4-1.5,3.3-2.2,5.2-1.2
	c2.1,1.1,2,3.1,1.4,5.1C96.6,131.2,95.2,133.5,93.3,135.7z M23.9,54.6c2.1-2.9,2.8-5.6,2.5-8.7c-0.2-2.1-1.1-3.6-3.5-2.7
	c-1.5,0.6-2,0-2.6-1.2c-1.5-3.2-3.7-4.2-6.4-3.3c-2.9,1-4.1,3.3-3.4,6.8c0.2,1.3,0.9,2.3-0.9,3.1c-2.4,1.2-1.6,3.2-0.4,4.9
	c2.2,3.2,5.6,3.9,9.8,4.1c-2.8-1.8-4.4-4-5.3-6.6c-0.7-1.9-1.4-4.1,0.8-5.5c2.2-1.4,4.2-0.4,5.8,1.3C22.5,48.8,23.1,51.5,23.9,54.6z
	 M85.6,49.5c0.1,1-0.4,2.6,0.8,3.1c1.5,0.5,2.1-1.2,2.8-2.1c1.2-1.4,1.5-3.2,1.9-5c0.2-0.9,0.2-1.9-0.7-2.4c-1.1-0.6-2-0.2-2.8,0.7
	C86.2,45.4,85.5,47.3,85.6,49.5z M21.7,54.2c-0.4-2.5-0.9-5.2-3.5-6.7c-0.7-0.4-1.6-1-2.5-0.2c-0.7,0.6-0.6,1.4-0.4,2.2
	c0.6,2.6,2,4.7,4.2,6.2c0.5,0.3,1,0.9,1.7,0.5C21.8,55.6,21.8,55,21.7,54.2z M15.4,139.6c0.8-3.7-0.2-6.4-2.6-8.7
	c-0.8-0.8-1.8-1-2.8-0.5c-1.1,0.6-0.9,1.7-0.5,2.7C10.6,135.9,12,138.3,15.4,139.6z M89.7,132c0,0.8,0,1.8,0.9,2.3
	c1,0.5,1.6-0.5,2.2-1.1c1.7-1.5,2.4-3.6,3-5.7c0.2-0.8,0.3-1.6-0.4-2.1c-0.8-0.6-1.7-0.4-2.5,0.2C90.8,127,90,129.3,89.7,132z
	 M14.9,148.6c-3-0.7-5.4-0.7-7.8-0.6c-1.2,0.1-2.4,0.6-2.5,1.9c0,1.7,1.5,1.9,2.8,1.9C10,151.8,12.4,150.8,14.9,148.6z M50.4,33.3
	c-1.8-3-3.7-4.8-6-6.2c-0.9-0.5-2.1-1.6-3-0.3c-1,1.4,0.3,2.3,1.2,3.1C44.6,31.6,47,32.4,50.4,33.3z M87.7,63.3
	c2.9,1.7,5.3,2.7,8.1,2.6c1.2,0,2.4-0.3,2.5-1.8c0-1.5-1.1-1.9-2.3-2C93.3,62,90.8,62.3,87.7,63.3z M88.1,147.2
	c0,0.3-0.1,0.6-0.1,0.9c2.1,1.3,4.2,2.7,6.9,2.7c1.2,0,2.5-0.2,2.6-1.7c0.1-1.5-1-1.9-2.3-1.9C92.8,147.2,90.4,147.2,88.1,147.2z
	 M82.3,75.3c2.9,1.5,5.1,2.9,7.9,2.6c0.8-0.1,1.6-0.4,1.8-1.2c0.2-1.1-0.5-1.7-1.3-2.1C88,73.4,85.5,74,82.3,75.3z M28.7,62.7
	c2.6-1.9,4.4-3.3,5.3-5.5c0.5-1.1,1-2.7-0.6-3.3c-1.5-0.7-2.4,0.4-2.8,1.8C29.9,57.7,29.4,59.8,28.7,62.7z M51.9,20.3
	c1.4-2.2,2.3-4,2.4-6.1c0.1-1.3,0.1-2.7-1.7-2.8c-1.8-0.1-2.4,1.2-2.4,2.8C50.2,16.2,50.9,18.1,51.9,20.3z M22.9,159.5
	c-3.2-0.1-5.7-0.5-8.1,0.8c-0.9,0.5-1.9,1.1-1.4,2.4c0.4,1.2,1.5,1.2,2.6,1C18.4,163.1,20.5,161.9,22.9,159.5z M21.5,67.2
	c-2.5-0.1-4.8-1.2-7.2-0.6c-1,0.3-2,0.7-2,1.9c0.1,1.4,1.2,1.9,2.5,1.8C17.3,70.1,19.5,69,21.5,67.2z M81.4,142.9
	c-0.7-2.7-1.1-4.7-1.9-6.5c-0.5-1.3-1.2-2.9-3.1-1.9c-1.5,0.8-1,2.2-0.4,3.4C77.2,139.9,78.6,141.4,81.4,142.9z M76,71.6
	c-1.2-3.2-2-5.8-4.2-7.7c-0.6-0.6-1.5-1.3-2.3-0.6c-0.9,0.7-0.4,1.7,0,2.4C70.9,68.3,72.9,70.1,76,71.6z M54.8,32
	c2.8-0.5,5.4-1.3,7.5-3c0.7-0.5,1.5-1.2,0.9-2.2c-0.7-1.2-1.8-0.9-2.7-0.4C58.2,27.8,56.4,29.8,54.8,32z M27.7,155.4
	c2.5-2.1,4.2-3.8,5-6.3c0.3-0.9,1.1-2.1-0.2-2.7c-1.3-0.7-2.1,0.5-2.7,1.4C28.6,149.9,28.1,152.3,27.7,155.4z M30.3,77.2
	c-3.4-0.3-5.8-0.4-8.3,0.3c-0.7,0.2-1.7,0.5-1.6,1.3c0,1.1,1.2,1.4,2,1.4C25,80.1,27.3,79.3,30.3,77.2z M35.7,72.9
	c2.5-1.2,4.1-3,4.7-5.6c0.1-0.6,0.1-1.3-0.5-1.7c-0.7-0.4-1.2,0.2-1.6,0.7C36.7,68.2,36,70.5,35.7,72.9z M79.8,158.3
	c2.7,1.7,4.7,2.8,7.2,2.6c0.9,0,2.1,0.2,2.3-0.9c0.2-1.4-1.2-1.5-2.1-1.7C84.9,157.9,82.7,157.9,79.8,158.3z M73.7,153.6
	c0.2-0.2,0.5-0.4,0.7-0.5c-0.8-1.9-1.5-3.7-2.4-5.5c-0.4-0.7-1-1.8-2-1.4c-1.2,0.5-0.8,1.8-0.4,2.7
	C70.5,150.9,71.7,152.7,73.7,153.6z M67.5,82.5c-0.4-2.7-1.4-4.4-2.5-6c-0.4-0.7-1.1-1.1-1.9-0.6c-0.8,0.5-0.9,1.3-0.5,2
	C63.6,79.7,65.1,81.1,67.5,82.5z M38.2,164.7c1.9-1.1,2.9-2.8,3.6-4.5c0.4-0.9,0.8-2.1-0.6-2.6c-1.1-0.4-1.5,0.7-1.9,1.5
	C38.5,160.8,38.2,162.6,38.2,164.7z M33.6,169.8c-2.5-0.2-4.5,0.7-6.3,1.9c-0.5,0.3-1.2,0.7-0.7,1.5c0.4,0.6,1.1,0.6,1.7,0.4
	C30.2,172.8,32.3,172.1,33.6,169.8z M73.6,87.1c1.7,1.5,3.2,2.3,4.9,2.5c0.8,0.1,2,0.5,2.3-0.6c0.4-1.2-0.9-1.4-1.6-1.7
	C77.6,86.8,75.9,86.7,73.6,87.1z M44.1,84.7c2.3-1.4,3.5-2.9,4.2-4.9c0.2-0.5,0.5-1-0.1-1.4c-0.6-0.5-1.2-0.1-1.6,0.4
	C45.3,80.4,44.4,82.2,44.1,84.7z M72.2,170c0.6,0.5,0.7,0.7,0.9,0.8c1.8,0.9,3.7,1.6,5.8,0.9c0.1,0,0.3-0.8,0.1-0.9
	c-1.5-1.5-3.5-1-5.4-1.1C73.3,169.6,73,169.8,72.2,170z M37.6,88.6c-2.7,0-4.9-0.4-6.7,1.3c-0.3,0.3-0.1,0.9,0.2,1
	C33.6,91.4,35.6,90.9,37.6,88.6z"/>
</svg>
