<?xml version="1.0" encoding="utf-8"?>
<!-- Generator: Adobe Illustrator 25.3.0, SVG Export Plug-In . SVG Version: 6.00 Build 0)  -->
<svg version="1.1" id="Layer_1" xmlns="http://www.w3.org/2000/svg" xmlns:xlink="http://www.w3.org/1999/xlink" x="0px" y="0px"
	 viewBox="0 0 107.8 251.7" style="enable-background:new 0 0 107.8 251.7;" xml:space="preserve">
<path d="M71.9,215c3.4-5.1,7.3-9.7,12.4-13.2c0.7-0.5,1.5-1.2,2.4-0.7c1,0.6,0.5,1.6,0.4,2.4c-0.1,0.8-0.3,1.6-0.6,2.3
	c-2.7,6.7-7.2,11.8-13.4,15.5c-2.8,1.6-5.2,3.7-5.9,7c-0.9,4.3-3.1,8-5.8,11.4c-0.7,0.9-1.1,2.5-2.6,2c-1.6-0.5-1-2.1-0.9-3.3
	c0.3-3.2,1.3-6.3,1.3-9.6c0-1.4-0.2-2.5-2-2.5c-5.1,0.1-8.9-2.4-12.2-6c-2.5-2.7-5.1-5.1-8.6-6.5c-0.7-0.3-2-0.4-1.6-1.6
	c0.4-1.1,1.5-0.6,2.3-0.5c6,0.6,12.1,0.4,17.8,4.5c-0.8-2.5-2-3.7-3.1-4.9c-5-5.3-9.4-11-12-17.9c-0.4-1.2-1.4-1.9-2.5-2.3
	c-9.6-2.8-15.4-9.6-19.6-18.2c-1-2.1-2.1-4.2-3.8-5.9c-0.6-0.7-1.9-1.3-1.1-2.4c0.7-1,1.8-0.3,2.7-0.1c7.7,1.7,14.7,4.5,19.3,12.1
	c0.2-0.9,0.3-1.1,0.3-1.4c-2.3-12.6-3-25.4-3.5-38.2c-0.1-1.8-0.9-2.8-2.5-3.6c-4.3-2.2-7.8-5.5-10.4-9.6c-2-3.2-4.3-6-7.5-8.1
	c-0.6-0.4-1.5-0.9-1.1-1.8c0.3-0.9,1.3-0.8,2-0.8c4-0.2,7.7,0.9,11.1,3.1c1.9,1.3,3.6,2.9,5.5,4.4c-0.3-2.2-0.9-4.2-1.6-6.2
	c-2.3-6.5-3.3-13.3-3.5-20.2c-0.1-2.6-0.8-4.3-3.1-5.4c-1.5-0.8-2.6-2.1-3.6-3.4c-2.7-3.5-4.2-7.7-6.6-11.4c-0.3-0.5-0.5-1.1,0-1.6
	c0.7-0.6,1.5-0.4,2.2-0.1c3.8,1.5,6.5,4.3,8.7,7.6c0.5,0.8,0.7,2,1.9,2.5c0.1-0.3,0.3-0.6,0.3-0.8c0.3-7.7,0.5-15.5,0.8-23.2
	c0.1-1.8-0.8-2.9-2.3-3.8c-5.1-3.1-7.3-8-8.3-13.6c-0.2-0.9-0.5-2.1,0.4-2.8c1-0.7,1.8,0.1,2.7,0.6c1.5,0.9,2.9,2,3.9,3.5
	c1.1,1.8,2,3.7,3,5.5c0.3-6.8-0.1-13.5-0.6-20.1c-0.1-1.3-0.9-2.4-2.1-3c-4.4-2.2-6-6.5-7.6-10.7c-0.3-0.7-0.7-1.5,0-2.2
	c0.7-0.7,1.5-0.3,2.2-0.1c2.9,1,5,3,6.5,5.7c1,1.9,1.8,2.4,2.9,0c1.2-2.6,3-4.8,5.3-6.5c0.7-0.6,1.6-1,2.4-0.4
	c1,0.7,0.5,1.6,0.2,2.4c-1.1,3.1-2.2,6.5-4.5,8.8c-3.3,3.4-3.5,7.2-2.9,11.4c0.2,1.6,0.3,3.3,0.3,5c0,3,0,5.9,0,9.1
	c1.4-0.7,1.5-1.5,1.8-2.2c1.9-3.6,4.4-6.7,7-9.7c0.5-0.6,1.1-1.2,2-0.7c0.6,0.3,0.7,0.9,0.6,1.5c-1,7.1-2.7,13.9-8.7,18.6
	c-1.8,1.4-2.4,2.9-2.5,5c-0.1,7.2-0.3,14.5-0.5,21.7c0,0.5-0.1,1,0.7,1.4c0.6-1,1.3-2,2-3.1c2-3.2,4.3-6.1,6.9-8.7
	c0.5-0.5,1.1-1.3,2-0.8c0.8,0.4,0.5,1.2,0.4,1.9c-0.6,7.2-3,13.4-9.4,17.3c-2.1,1.3-2.6,2.8-2.5,5.1c0.3,7.7,1.9,15.1,4.5,22.4
	c0.8,2.2,1.1,4.6,2.7,7.4c2.1-7.9,8-12.1,12.7-17.3c0.6-0.6,1.1-1.6,2.2-1c0.9,0.6,0.7,1.6,0.5,2.4c-1,4.3-1.8,8.6-3.3,12.8
	c-1.9,5.1-4.5,9.6-9.7,12c-1.5,0.7-1.7,2-1.6,3.4c0.7,9.9,0.7,20,2.3,29.8c0.8,5.4,1.5,10.7,3.3,16c1-4,1.7-8.1,3.1-11.9
	c1.6-4.4,3.3-8.8,6.8-12.2c0.7-0.7,1.5-1.5,2.5-0.9c1.1,0.6,0.6,1.7,0.4,2.6c-1,4.4-2.2,8.7-3.1,13.1c-1.3,6-2.7,11.8-6.7,16.7
	c-0.9,1.2-0.6,2.4-0.1,3.6c2.3,5.5,5.6,10.3,9.6,14.7c7.1,7.7,11.5,16.3,8.8,27.2c-0.1,0.6-0.5,1.3,0.4,1.8c2-2.3,3.2-4.9,4.1-7.7
	c2.6-7.9,3.6-16,2.7-24.3c-0.2-2.4-0.8-4.2-2.7-5.8c-5.7-4.9-8.9-11.1-9.2-18.6c-0.1-2-0.3-3.9-1-5.8c-0.2-0.6-0.6-1.4,0-1.9
	c0.8-0.7,1.5-0.1,2.1,0.3c2.8,1.6,4.7,4.1,6.5,6.7c2.1,3.1,3.5,6.5,5,10.6c2.4-5.7,5.4-10.3,8.3-14.9c0.7-1.1,0.8-2.4,0.5-3.7
	c-1.8-7.8-1-15.1,3-22.1c0.4-0.7,0.4-2,1.5-1.8c1.1,0.1,1,1.3,1.2,2.1c1.3,6.3,1.7,12.6-0.1,18.9c-0.2,0.6-0.8,1.3-0.1,1.9
	c0.6,0.5,1.3-0.1,1.9-0.3c3.6-1.3,7.1-2.7,10.7-4c0.7-0.3,1.5-0.7,2.2,0c0.8,0.9,0.1,1.7-0.4,2.4c-2.9,4.7-7,8.1-12.4,7.5
	c-5.7-0.6-8.1,2.1-10.1,6.4c-0.2,0.5-0.6,1-0.9,1.5c-1.7,3-3.5,6.1-3.7,10.7c4.7-8.3,12-11.1,19.9-13.1c0.9-0.2,2-1.1,2.7,0.1
	c0.6,1-0.6,1.5-1.2,2c-1.8,1.7-3.2,3.7-4.6,5.7c-3.9,5.6-8.7,10.1-15.4,12.1c-1.4,0.4-1.8,1.2-1.7,2.6c0.4,4.3,0.5,8.6,0.2,13.2
	C71.2,216.9,71.4,215.8,71.9,215z M30,185.2c2,1.4,4.1,2.6,6.4,3.4c1.3,0.5,1.9,0,1.5-1.4c-3.6-10.2-9.2-18.6-20.8-20.1
	C20.5,173.9,23.7,180.7,30,185.2z M33.5,129.4c-0.2,1.6,0.6,2,1.9,1.1c0.9-0.6,1.8-1.2,2.6-1.9c4.7-5,6.1-11.3,7.1-17.8
	C38.5,115.4,34.3,121.4,33.5,129.4z M71.2,196.8c-0.4,0.8-1.4,1.8-0.4,2.6c0.8,0.7,1.9-0.2,2.7-0.6c6-3,10.4-7.8,14-14.2
	C79.8,186.5,74.2,190.1,71.2,196.8z M58,177.1c-1.6,6.9,2.3,16,9.1,20.9C67.4,190.7,63.3,181.2,58,177.1z M14.7,115.4
	c5.6,5.4,8.1,13.3,16.1,16.1C31.2,124.3,22.3,115.1,14.7,115.4z M55.1,224.2c1.1,0.2,2.5,0.8,3.2-0.4c0.6-1.1-0.6-2-1.2-2.8
	c-3.7-4.6-8.5-6.7-14.4-6.2C46.5,218.4,49.3,223.4,55.1,224.2z M49,162.2c-4,2.6-8.8,18.8-7.2,24.3C44.8,184.2,47,172.8,49,162.2z
	 M79.5,171.1c3.1-5.9,3-11.7,1.9-18.2C77.8,157.5,77,165.7,79.5,171.1z M72,218.9c4.2-0.6,11.3-8.8,12.4-14.5
	C78.8,208.5,75.1,213.3,72,218.9z M26.5,87c4.3-1.1,8.3-7.3,8-12.8C31,78.3,28.3,82.2,26.5,87z M34.2,39.2c-3.7,3.5-6,7.8-6.6,12.9
	C31.7,48.9,33.6,44.3,34.2,39.2z M22.5,51.9c-1.2-4.1-2.2-8.2-6.3-10.7C16.4,45.9,18.6,49.4,22.5,51.9z M21.8,86.9
	c-0.1-4-3.5-9.1-7.8-11.4C15.7,80.3,17.9,84,21.8,86.9z M93.8,169.3c-4.3,1.3-8,2.4-12.1,4.6C86.5,175,91.1,173.3,93.8,169.3z
	 M20.5,22c0.4,0.3,0.8,0.7,1.3,0.2c0.2-0.2,0.2-0.5,0.2-0.8c-0.1-2.2-3.4-6.2-6-7C16.6,17.7,18.2,20.1,20.5,22z M25.6,21.3
	c2.2-2.1,3.1-4.1,3.7-6.3C27.3,16.4,26.3,18.4,25.6,21.3z"/>
</svg>
