<?xml version="1.0" encoding="utf-8"?>
<!-- Generator: Adobe Illustrator 25.3.0, SVG Export Plug-In . SVG Version: 6.00 Build 0)  -->
<svg version="1.1" id="Layer_1" xmlns="http://www.w3.org/2000/svg" xmlns:xlink="http://www.w3.org/1999/xlink" x="0px" y="0px"
	 viewBox="0 0 181.2 249" style="enable-background:new 0 0 181.2 249;" xml:space="preserve">
<g>
	<path d="M120.7,198.9c0,0-0.1,0-0.1,0C120.6,198.9,120.6,199,120.7,198.9L120.7,198.9z"/>
	<path d="M119.2,186.4C119.1,186.4,119.1,186.4,119.2,186.4C119.1,186.4,119.1,186.4,119.2,186.4L119.2,186.4z"/>
	<path d="M139.9,149.4c0,0,0.1,0.1,0.1,0.1C140,149.4,140,149.4,139.9,149.4C139.9,149.3,139.9,149.3,139.9,149.4L139.9,149.4
		C139.9,149.3,139.9,149.3,139.9,149.4C139.9,149.3,139.9,149.3,139.9,149.4L139.9,149.4z"/>
	<path d="M97.8,124.1c0-0.1,0-0.1-0.1-0.2C97.7,124,97.7,124,97.8,124.1L97.8,124.1z"/>
	<path d="M149.5,154.6C149.5,154.6,149.5,154.6,149.5,154.6C149.5,154.6,149.5,154.6,149.5,154.6L149.5,154.6z"/>
	<path d="M170.7,169.9c-1.6-7.6-5-14.7-6.9-22.2c-4.5-17.4-18.9-23.3-33-29.5c-3.9-1.7-5.5-0.2-6.3,4.1c-0.4,2.5-0.8,5-1.3,7.7
		c-1.2-0.6-2-0.9-2.7-1.3c-5.9-2.8-9.6-2.2-14.4,2.4c-0.5,0.5-1,1.1-1.6,1.5c-1.2,0.8-3,2.3-3.9,1.4c-1.2-1.3-0.8-3.5,0.6-5
		c0.2-0.3,0.5-0.6,0.7-0.8c2.3-2.5,3.2-5.5,2.8-8.9c-0.1-1.4-0.1-2.7-0.2-4.2c1.6,0.3,2,1.1,1.8,2c-0.7,3.8,1.4,4.3,4.5,4.3
		c6.4-0.1,11.8-2.3,16.9-6.3c6.8-5.3,13.7-11.2,23.6-9.4c2.2,0.4,1.6-1.1,0.7-2.3c-3.6-4.8-8.6-6.4-14.3-6c-4.5,0.3-7.6-0.4-8.3-5.9
		c-0.4-3.4,0.3-4.9,3.6-4.5c2.2,0.3,4.9,0.7,6.2-1.2c1-1.4-1.4-2.8-2.2-4.3c-0.2-0.4-0.6-0.8-0.2-1.3c4.4-1,4.4-1.2,2.7-5.5
		c-0.9-2.2-2.9-3.3-4.3-4.9c2.1-1,4-1.9,5.9-2.8c1.3-0.6,2.1-1.9,1.2-3c-4.6-5.1-0.5-7.3,3-9.8c1-0.7,1.6-1.8,2.4-2.8
		c1.8-2,1.2-3.3-0.9-4.7c-2.5-1.6-5.5-1.8-8.3-3.3c3-4.5,4.2-9.1,4-14.3c-0.1-2.7-0.6-4.3-3.6-4.2c-1.8,0.1-2.7-0.6-2.6-2.6
		c0.2-2.6-1-4-3.8-3.6c-2.2,0.3-3.5-0.4-3.7-2.8c-0.2-2-1.3-2.6-3.4-2.1c-3.2,0.7-5.9,2.2-8.7,4.1c-1.2-3.1-1-8-4.2-8.1
		c-4.5-0.2-7.5,3.4-8.3,8.8c-1-1.6-1.5-2.5-2.1-3.5c-2.2-3.5-2.5-3.4-4.8,0.1c-2,3.1-1.9,6.6-2.4,10.6c-1.1-1.2-1.7-1.9-2.4-2.6
		c-0.7-0.7-1.4-1.4-2.2-1.9c-1.5-1-3.1-2.9-4.8-2.1c-1.7,0.7-0.6,3.1-0.8,4.8c-0.2,1.7,0.5,4.1-0.4,5c-1.2,1.2-3-0.7-4.7-1
		c-4-0.8-4.8-0.2-4.2,3.8c0.5,3.2,1.3,6.4,2.1,9.9c-4.4-1.9-8.7-2.1-13-1.2c-2.4,0.5-3.4,1.4-1.3,3.5c1.4,1.4,2.7,3,4.3,4.9
		c-4-0.3-7.1,0.9-10,2.5c-2.8,1.5-3.4,3-1,5.6c2,2.1,4.7,3.3,7.4,5.3c-4.2,0.4-6.9,2.6-9.6,4.7c-2,1.5-1.5,2.4,0.4,3.4
		c3,1.4,5.9,2.9,9.2,4.5c-4.2,2.6-7,6-8.3,10.6c-0.6,2.2,0.1,3.1,2.2,3.7c2.9,0.8,5.8,0.1,8.7,0.3c-2.1,2.4-4,5-5.4,7.9
		c-0.4,0.8-1.3,1.8-0.6,2.7c0.7,0.9,1.8,0.4,2.8,0.4c4.3-0.2,7.9-2.3,11.7-5.4c-0.3,1.8-0.5,2.9-0.7,4c-0.3,1.7-1.8,3.9-0.2,5.1
		c1.4,1,3.1-0.9,4.6-1.6c4.3-1.9,7.2-5.6,10.9-9.5c0.3,3.8,0.5,6.8,1.6,9.5c1.7,4.1,1.8,4.2,5.7,1.8c2-1.3,3.8-2.7,4.8-4.8
		c1.6,0.8,0.8,3.5,2.8,3.2c1.6-0.3,2.7-1.8,3.4-3.2c1-2.3,1.8-4.7,2.7-7.5c1.9,2.6,3.1,5.4,6,6.9c-8.2,0.7-13.8,7.7-21.8,8.3
		c-0.3,0-0.7,0.2-1,0.5c-2.3,2-3.8,1.2-5.7-0.9c-4.5-5.1-9.2-4.8-13.7,0.3c-5.4,6.3-7.7,13.9-8.9,22c-0.2,1.2,0,2.6-1.6,2.9
		c-6,1.5-9.4,6.1-12.9,10.6c-10.9,14.1-22.9,27.2-36,39.2c-1.5,1.3-2.8,2.7-4.2,4.2c-0.6,0.7-1.5,1.5-1.1,2.6
		c0.5,1.3,1.8,1.3,2.8,1.2c4.8-0.2,9.6-0.8,13.4-4.3c3.8-3.5,8.2-5.4,13.4-5.4c6.9-0.1,12.6-3.1,17.9-7.2c4.3-3.3,8.5-6.8,12.8-10.1
		c1.7-1.3,3.5-2.3,5.8-2.2c1.5,0.1,2.2,0.4,1.6,2.2c-2,5.6-0.7,10.8,1.6,16.1c3.9,8.8,9.9,16.2,15.3,24c1.2,1.7,1.7,3.4,1.7,5.5
		c0,9.3,0,18.5,0,27.8c0,1.1-0.5,2.8,1.4,2.8c1.5,0,2.4-1.1,2.4-2.7c0-1.5,0-3,0-4.4c0-7,0-14,0-21.8c5.3,5.6,10.6,9.7,15.5,14.3
		c2.2,2,3.3,2,4.1-1.1c3.2-11.6,6.7-23.2,9.8-34.9c2.9-10.9,2-21.5-3.6-31.5c-3.5-6.3-10.2-8.3-16.9-5.5c-3.7,1.6-6.4,4.3-8.5,7.8
		c-2-10.2-0.5-18.9,6.5-26.3c3.5-3.7,7.7-4.3,11.8-1.7c-3.8,0.8-4.6,2-4,5.8c1.3,8.6,12.2,17.8,21.9,18.1c3.6,0.1,6.7,0.9,9.6,3.1
		c1.4,1.1,3.2,1.9,4.9,2.5c6.5,2.5,12,6.2,16.8,11.2c0.7,0.8,1.3,1.9,2.7,1.7C171.6,172.3,170.9,171.1,170.7,169.9z M125.1,115.1
		c-4.4,3.4-9.2,4.5-14.5,4.6c-0.9,0-2.2,0.3-2.4-1c-0.2-1.3-0.6-2.8,0.6-3.8c0.8-0.7,1.9-1.3,3-0.5c2,1.4,4.1,2,7.3,2.6
		c-2.2-1.9-4.7-1.8-6-3.6c4.2-5,8.8-0.8,13.9-0.8c-2.2-1.4-4.2-1.1-5.3-2.7c2.6-3.9,6.1,0.6,9.4-1.1c-1.3-0.5-2.3-0.8-3.3-1.2
		c1.3-3.7,5.7,1,7.2-3.1c0.6-1.7,6.5-1.5,9.3-0.8C136.9,105.5,131,110.4,125.1,115.1z M142.1,99.4c2.2,0.1,4.4,0.8,6.2,3.2
		c-5-1.2-9.4-1.3-13.8,0.3c-1.9,0.7-1.2-0.6-1.2-1.5c-2.1,1.8-3.9,4-7,4.5c-1.7,0.3-2.1-0.2-1.9-1.5c0.4-2.7,0.9-5.4,4.7-5.2
		C133.5,99.3,137.8,99.2,142.1,99.4z M116.1,69.9c6.7,2.7,10.2,7.7,11.2,15.1c-5.7-2.2-11-7.8-12.2-13.2c3.8,2.4,5.6,6.3,8.8,8.9
		C122.3,76.8,119.2,73.8,116.1,69.9z M119.5,69.1c0.1,0,0.2,0,0.3,0.1c0,0,0.1,0.1,0.1,0.2C119.7,69.2,119.6,69.1,119.5,69.1z
		 M128.3,94.1c0.2,0.7,0.6,1.5,0,2.1c-0.7,0.8-1.6,0.2-2.4-0.2c-2.8-1.3-4.8-3.4-5.6-6.4c-0.6-2.5-1-5-1.5-7.8
		C124.1,84.6,127,88.7,128.3,94.1z M120.3,94c1.6,1.3,2.8,2.4,4.6,3.9c-2.2,0.2-4.1,1.1-5.3,0C118.7,97,120,95.5,120.3,94z
		 M135.1,85.6c-3.8,0.5-6.1-1.6-7.7-7.4c3.9,0.7,6.8,2.2,8.8,5.3C137.1,84.9,136.7,85.4,135.1,85.6z M138.2,77.5
		c-2.2,2.1-5,0.5-7.5-0.1c-4.6-1.2-7.3-4.9-10.6-7.9c3.2,0.8,6.4,1.2,9.7,1c0.9-0.1,1.9,0.2,2.8,0.6
		C135.8,72.2,139.4,76.3,138.2,77.5z M137.1,67.1c-4.9,1.9-10.1,2.1-15.2,0.8c-1.1-0.3-3.2-0.1-3-1.9c0.1-2,2.1-2.2,3.7-2.2
		c2.9,0,5.9,0,8.9,0.1c1.5,0,2.9,0.5,4.8-0.1c-4.5-1.7-8.8-1.3-13-1.5c-0.8,0-2,0.6-2.3-0.5c-0.4-1.4,1.1-1.4,1.9-1.7
		c3.7-1,7.5-1.6,11.3-1c1.4,0.2,2.7,0.5,3.7,1.4C141.3,63.2,141.1,65.6,137.1,67.1z M139.9,46.2c2.4,0.7,6,0.6,6.4,3.4
		c0.4,2.3-2.7,3.8-4.6,5.4c-2.6,2.1-5.2,3.4-8.7,2.4c-2.6-0.7-5.4,0-8,0.6c-1,0.2-2.6,1.1-3,0c-0.6-1.6,1-2.3,2.3-2.8
		c2.9-1.1,5.7-2.2,8.6-3.3c1.1-0.4,2.3-0.8,3.4-1.1c-3.9-0.2-7.5,1.1-11,2.3c-0.9,0.3-2,1.4-2.6,0.4c-0.8-1.2,0.2-2.3,1.2-3.1
		C128.6,46.8,133.8,44.3,139.9,46.2z M140.6,31.7c0,2.4-0.4,4.6-1.4,6.8c-1.3,3.1-2.8,5.4-6.7,5.8c-3.6,0.3-6.7,2.6-10.1,4.2
		c2.2-4.2,6.4-6.5,9.5-9.8c-3.1,1.3-5.6,3.3-8.1,5.4c-0.5,0.5-1.1,1.3-1.9,0.8c-0.8-0.5-0.9-1.6-0.4-2.3c3.5-5.5,6.9-11.2,12.4-14.9
		C138.3,24.9,140.7,26.6,140.6,31.7z M130.6,20.8c1.3-0.1,2.8-0.8,3.7,0.7c0.8,1.5,0.2,2.9-1,4c-5.1,4.4-8.8,9.9-12.9,15.2
		c-1.5-1.9-1.5-1.9,3.4-8.1c0,0,0,0,0,0c0.2-0.3,0.5-0.5,0.7-0.8c-0.1-0.1-0.2-0.2-0.4-0.4c-0.3,0.2-0.5,0.5-0.8,0.7c0,0,0,0,0,0
		c-1.5,1.4-3,2.9-4.5,4.3c-0.5,0.5-1,1.3-1.8,0.6c-0.6-0.5-0.3-1.1,0-1.7c3.2-5,6.7-9.8,11.1-13.8C128.8,21.2,129.7,20.9,130.6,20.8
		z M124.3,16.2c0.8-0.2,2.1-1.2,2.6,0.1c0.5,1.3,1.3,2.9,0,4.2c-4.6,4.5-8.2,9.7-12,14.9c-0.1,0.1-0.5,0-1.1,0
		c1-4.1,4.4-6.7,6.2-10.1c-0.1-0.1-0.2-0.2-0.3-0.3c-3.1,2.5-5,6-7.6,9.3C111.9,25.5,117.2,17.8,124.3,16.2z M106.5,17.2
		c0.2-0.7,0.3-1.5,0.7-2.1c1.1-1.7,2.7-3.3,4.7-3.2c2.1,0.1,2.1,2.5,2.5,4c0.5,2.2,0.7,4.5-0.9,6.7c-1.8,2.3-2,5.4-3.2,8
		c-0.1-3.7,1.4-7.1,1.6-10.7c-2,3.4-2.5,7.4-3.7,12.2C106.9,26.5,104.9,22,106.5,17.2z M110.2,30.9c0,0.7-0.1,1.4-0.1,2.8
		C109.7,32.2,109.8,31.5,110.2,30.9z M86.5,22.6c0.7-1.7,1.7-0.7,2.3-0.2c3.2,2.6,6.6,5.1,7,9.9c0.2,2,0.7,3.9,1,5.8
		c0.2,1-0.3,1.8-1.2,2.1c-1.3,0.4-1.4-0.7-1.6-1.5c-0.8-3.3-1.5-6.6-2.3-9.9c-0.5,4.7,0.7,9.2,1.7,14.2C88.1,39,84.5,27.7,86.5,22.6
		z M77.2,31.4c-0.1-0.8-0.2-2.1,1.1-1.8c2.7,0.6,5.9,0.8,7.1,3.8c1.3,3.4,2.9,6.5,4.9,9.5c0.9,1.4,1.1,2.7-0.3,3.5
		c-1.5,0.8-1.7-1-2.1-1.8c-1.8-3.3-3.5-6.7-5.2-10c0.6,4.5,2.5,8.4,4.8,12.2c0.7,1.2,1.6,2.5,0.2,3.6c-1.6,1.2-2.5-0.6-3.2-1.4
		C80.1,43.9,78,37.9,77.2,31.4z M64.6,42.7c10.4-3.6,15.8,2.7,20.8,10.1c-1.7-1-3.3-2-4.9-3.1c-1.6-1.1-3.2-2.3-4.8-3.5c0,0,0,0,0,0
		c-0.3-0.2-0.6-0.4-0.9-0.6c-0.1,0.1-0.2,0.2-0.3,0.3c0.3,0.2,0.5,0.5,0.8,0.7c2.8,3.4,6.7,5.5,9.9,8.6C77.2,53,69.7,50.1,64.6,42.7
		z M59.4,57.4c-3.2-2.3-2.9-3.6,0.6-5.4c3.8-1.9,7.6-1.7,11.4-0.1c4.4,1.8,8.6,3.8,12.9,5.8c-0.1,0.3-0.2,0.7-0.4,1
		c-5.3-0.3-10.1-2.5-15.1-3.9c3.6,2.6,7.8,3.9,12,5.1c1.1,0.3,2.9,0.1,2.5,1.9c-0.4,1.4-1.9,0.5-2.9,0.5c-2.8-0.1-5.7-0.6-8.5-0.3
		C67,62.3,63.1,60,59.4,57.4z M57.8,70.2c-2.1-1.1-2.8-1.8-0.4-3.3c2-1.3,4-2.4,6.4-2.7c5.7-0.7,11.3-0.8,17-0.2
		c1.2,0.1,2.6,0.2,2.6,2c-0.1,1.7-1.5,1.5-2.5,1.5c-3.9,0.1-7.8,0-11.7,0c0,0.3,0,0.6,0,0.9c3.8,0.8,7.7,0.5,11.6,0.5
		c1.3,0,3.1-0.6,3.3,1.4c0.2,2-1.8,1.7-2.9,2.1C73,74.9,65.3,74.1,57.8,70.2z M57.8,86.8c-1.5-2.8,1.6-5.8,3.9-8
		c2.4-2.3,5.2-3.7,8.7-3.3c4.9,0.6,9.4-1,14.2-1.9c-5.8,2.7-12,4.5-17.3,8.3c6.2-2.3,12.3-4.9,19-5.9c-8,1.5-12.1,9.6-19.9,11.3
		C63.4,88,59.2,89.3,57.8,86.8z M62.1,98.5c6.6-9.7,14-16.7,24.4-20.3c1.1-0.4,2.1-0.4,2.5,0.6c0.5,1.2-0.8,1.3-1.4,1.6
		c-4.6,2.6-8,6.3-11.1,10.6C73.5,95.4,69.1,98.6,62.1,98.5z M76,102c0.3-10.5,6.7-19,16.2-21.2c-2.3,4.4-6.5,6.7-9.2,10.4
		c4.5-2.5,7.9-6.3,11.9-9.3C90,89.8,85.4,98,76,102z M101.1,96.8c0,0.7-0.5,1.4-0.8,2c-1.3,2.4-3.5,4.8-5.8,4.6
		c-2.3-0.2-2.1-3.7-2.5-5.9c-1.4-6.4,1.6-11.1,6.5-16C98.4,87,96,91,95.4,95.4c2.5-4.1,3.8-8.7,5.8-13.3
		C101.2,87.1,101.2,92,101.1,96.8z M102.3,32.8c-0.4-3.3-0.7-6.5-1-9.8c-0.9,3.4-0.8,6.8-0.3,10.1c0.3,1.6,0.9,3.9-1.5,4.1
		c-2,0.2-1.4-2.1-1.7-3.3c-0.8-3.6-0.8-7.3-0.8-11c0-1.2,0.1-2.5,0.5-3.6c0.4-1.4,0.8-3.3,2.2-3.6c1.4-0.2,1.8,1.8,2.4,2.9
		c2.3,4.3,3.4,8.9,4.1,13.7c0.2,1.6-0.1,2.7-1.9,2.9C102.4,35.5,102.5,34,102.3,32.8z M104.9,100.5c-2.8-6.3-2.3-12.5-1.9-18.8
		c0.1-0.9,0.8-1.3,1.5-1.3c1.4,0,1,1.2,1,1.9c-0.2,3.3-0.4,6.6-0.4,9.9c1.8-4.1,1.5-8.6,1.9-13.4C110.6,85.2,109.3,96.1,104.9,100.5
		z M115.4,95.3c-4.2-5-5.1-11-5.7-17.2c-0.1-1,0.5-1.8,1.4-1.9c0.9-0.1,1,1,1.1,1.6c0.6,2.9,1.1,5.8,1.7,8.7
		c0.2,1.1-0.2,2.5,1.2,3.4c0-5.2-0.9-10.1-1.6-15.1c4,6,5.5,12.5,4.8,19.6c-0.1,0.7-0.2,1.7-1,1.7C116.7,96.4,115.8,95.8,115.4,95.3
		z M124.4,100.1c-0.3,2-1.5,3.8-1.7,5.9c-0.2,2.1-2.5,2.2-4.1,2.4c-1.6,0.2-1.5-1.5-1.8-2.7c-0.4-1.5,0.5-3.2-0.7-4.5
		C119.8,99.9,120.7,99.8,124.4,100.1z M104.7,105.7c3.6-2.1,7.2-4.2,11.5-4.4c-0.3,2.2-0.8,4.4-0.3,6.8c0.6,3.5-3,3-4.8,3.7
		c-1.9,0.7-1.3-1.7-1.5-2.8c-0.2-1.3-0.1-2.6-0.2-3.8c-1.2,1.9-1.4,4.1-1,6.3c0.4,2.6-0.9,2.6-2.8,2.1c-2.4-0.6-1.9-2.9-2.6-4.4
		C102.2,107.3,103.6,106.3,104.7,105.7z M67.8,127.4c1.3-6.5,3.1-12.7,7.2-18c4.9-6.5,9.6-6.2,14.1,1c-3.8,1.6-8.7,0.8-11.4,4.9l0,0
		c-0.4,0.1-0.7,0.3-0.7,0.7c0.4,0,0.7-0.2,0.7-0.7c0,0,0,0,0,0l0,0c3.4-1.4,6.7-3,10.8-2.7c-1.9,3.9-2.9,8.2-8.5,8.4
		c-2.3,0.1-4.5,1.2-6.1,3.1l0,0c-0.6,0-1.1,0.3-1.3,0.9c0,0.1,0.1,0.3,0.2,0.3c0.6-0.2,1.1-0.4,1.3-1c0,0,0,0,0,0l0,0
		c2.9-0.6,5.5-2.7,9-2c-1.6,3.6-2.4,7.4-7.2,8.1c-1.5,0.2-3.2,1-4,2.7C68.4,132.6,67,131.2,67.8,127.4z M71.8,133.1
		c2-0.4,3.7-1.9,6.1-1.8c-1.4,3.3-2.8,6.5-4.5,10.4C73.2,138.3,71.4,135.9,71.8,133.1z M14.7,184.9c8.2-8.2,16.8-16.1,24.4-24.9
		c0.9-1.1,1.9-2.2,2.9-3.3c2,3.6,6,3.8,9.2,5.6c-4.5,5.1-9.8,8.2-17,7.1c2,1.3,4.2,0.7,7.2,1.3C32.4,176.3,23.5,180.5,14.7,184.9
		l-0.1,0.1L14.7,184.9z M35.3,178.9c-4,0-7,2.7-9.9,5.2c-3.3,2.8-7.1,3.6-11.4,3.1c9.3-4.9,18.7-9.9,28-14.8
		C41.8,176.5,40.1,178.9,35.3,178.9z M48.5,176.4c-2,0.8-4.7,2.7-6.1,1.2c-1.4-1.6,0.8-4,1.9-5.9c3.2-5.2,7.3-8.2,12.9-9.5
		c-2.1,2.7-4.6,4.7-5.7,7.7c0.2,0.1,0.3,0.3,0.5,0.4c1.3-1.5,2.5-3,3.8-4.5c4.2-5.2,9.8-7.1,17.2-6.6
		C63.7,164.3,57.7,172.5,48.5,176.4z M56,148c2.7,4.4,7.1,6.8,11.7,9.3c-8.9,3.1-17.5,5.9-25.7-0.6c0,0,0,0,0,0
		c4.6-5.6,9.2-11.3,13.8-16.9c2.3-2.8,5-5,8.6-6c3.6-1,5.5-0.1,6.3,3.4c0.6,2.4,0.8,4.9,0.9,7.3c0.2,4.7,0.8,9.1,5.6,13
		C67.9,157.3,61.9,152.8,56,148z M77.6,146.4c5.4-4.8,12.2-7.3,18.5-12.2c0,8.9-0.1,16.8,0,24.6c0,2.5-1.2,2.6-3,2
		c-4.6-1.5-9.2-2.8-13.7-4.5C73.8,154.3,73.2,150.3,77.6,146.4z M81.4,159.4c-0.9,0.3-1.8,0.5-2.5-0.8
		C80.2,158.3,80.9,158.6,81.4,159.4z M115,221.4c-3.1-2.7-6.4-5.1-9.1-8c-10.4-11-19.4-22.9-25.7-36.8c-1.6-3.5-2-7.1-1.5-10.8
		c0.4-2.9,1.8-4.5,5.1-4.6c4.6-0.2,8.7,1.4,13,2.4c2.1,0.5,1.7,1.8,0.2,2.8c-6.1,3.9-8.1,10-8.9,16.7c0.9-2.3,1.8-4.6,2.8-6.9
		c0.6-1.4,1.2-2.7,2-4c1.3-2.1,3.1-4.6,5.5-4.4c1.6,0.1,1.3,3.3,2,5.1c1.3,3.2,1.1,5.8-1.6,8.6c-3.5,3.5-2.8,8.4-2.2,13
		c0.6-2.7,0.3-5.5,1.2-8.2c0.5-1.4,0.9-2.8,1.9-4c0.6-0.7,1.5-1.7,2.2-1.7c1.2,0,0.9,1.5,1.2,2.4c0.7,2.1,1.2,4.3,1.9,6.4
		c1.1,3.1,1.4,5.9-0.5,9c-1.6,2.5-1.2,5.7-0.6,8.7c0.6-3.4,0.3-7,3.1-10c2.9,8.1,5.7,16,8.5,23.9C115.3,221.1,115.2,221.3,115,221.4
		z M100.9,161.4c2.5-3.3,4.6-7,8.8-8.6c6.2-2.4,12-0.6,15.1,5.3c4.2,7.9,5.6,16.3,4,25.1c-2.4,13.2-6.9,25.9-10.7,39.8
		c-4-10.1-7.4-19.3-10.1-28.8c-0.6-2,1-1.6,2-1.5c2.6,0.4,4.8,1.9,6.8,3.5c1.2,0.9,2.1,2.4,3.8,2.6c-3.3-3.8-6.7-7.5-12.4-7.6
		c-1.3,0-1.5-1.1-1.7-2.1c-0.9-3.3-1.8-6.7-2.9-9.9c-0.6-1.9-0.1-2.4,1.8-2.1c3,0.5,5.6,1.5,7.9,3.6c1.9,1.8,3.4,4.2,5.7,5.6
		c-3.3-5.5-7.3-10.1-14.2-10.7c-2-0.2-5.2-7.3-4.2-9c0.5-0.8,1.5-0.8,2.3-0.9c6.4-1.3,11.5,1.3,16.1,5.3c1.2,1.1,2.4,2.2,3.6,3.3
		c-3.6-6.9-12.1-11.2-20.2-10.1c-1,0.1-2.2,1.2-2.9-0.4C99.1,162.6,100.3,162.2,100.9,161.4z M97.6,130.4c-2,2-4.2,3.9-6.5,5.4
		c-5.8,3.7-12.1,6.5-17.2,11.4c1.5-5.5,3-10.9,6.2-15.6c0.3-0.5,0.8-1.1,1.3-1.2c0.9-0.1,1.1,0.9,1.3,1.5c0.6,2,0.7,4,0.9,6
		c1.4-2.8,0.8-5.4-0.3-8.1c-0.8-1.7,0.9-7.4,2.4-8.2c1.3-0.7,1.8,0.6,2.2,1.3c1.5,2.3,1.8,5,2.1,7.7c1-3.6,0.3-6.8-1.9-9.8
		c-1.1-1.5,1.3-8.3,2.9-8.2c1.8,0.1,3,1.6,3.7,3.2c1.1,2.6,2.1,5.3,3.1,7.9c-0.2-4.4-1-8.7-4.5-11.9c-0.3-0.3-0.8-1-0.7-1.1
		c1.4-1.7,3.3-2.4,5.4-2.9c1.6-0.3,2.8,0,3.5,1.7C104.8,117.4,103.5,124.7,97.6,130.4z M142.8,154.1c-1.1-0.7-2.9-0.8-4.3-0.8
		c-8,0.1-13.6-4.2-18.8-9.5c-1.4-1.4-2.1-3.3-2.6-5.2c-1.4-5-0.5-5.9,4.7-5.3c2.1,0.2,1.9,1.7,2.2,2.8c0.9,3.2,1.6,6.4,4.1,8.9l0,0
		c0.3,1.3,1.2,2.1,2.2,2.8c0-1.4-1-2.2-1.9-3.1l0,0c-1.2-3.3-2.9-6.5-2.9-10.2c6.6,0.6,10,3.4,11.8,9.4c0.6,1.9,0.8,4.1,2.8,5.2
		c-0.6-2.8-2-5.4-1.8-9.1c4.2,4,9.7,5.9,10.1,12.3c0,0.7,0.4,1.7,1.3,2.1c-0.1-1.4-0.2-2.8-0.3-5c4.9,4.8,10,8.5,13.9,13.4
		c0.8,1,1.9,1.9,1.8,3.4C158.4,160.8,149.8,158.8,142.8,154.1z M128,145L128,145C128,145,128,145,128,145z M151,149
		c3.4-0.2,6,0.7,8.6,1.1c-1.8-1.4-4-2.4-6.3-2.4c-4.7,0-7.6-2.8-10.9-6.1c3.2-0.7,5.7,0.6,8.3,1.1c-1.1-1.9-3.2-2.2-5-2.4
		c-4.4-0.4-8.3-1.9-11.9-4.4c-1.9-1.3-4.1-2-6.7-3.2c7.2-1.3,13.6-0.7,19.7,1.9c-5.8-3.7-12.2-4.6-18.8-3.5c-3,0.5-3.4-0.5-2.8-3
		c0.3-1.1,0.4-2.2,0.6-3.3c0.9-5.8,2-6.9,7-4.2c8,4.4,16.9,7.5,23.1,14.9c4.6,5.5,5.6,12.3,8.2,18.5c1.8,4.2,3.5,8.4,3.8,13
		C163.9,159.9,157.1,155.1,151,149z"/>
	<path d="M150.9,142.8c0,0-0.1,0-0.1,0C150.8,142.8,150.9,142.8,150.9,142.8L150.9,142.8z"/>
	<path d="M109.4,104.9c0,0.1,0,0.1,0,0.2C109.4,105,109.4,105,109.4,104.9L109.4,104.9z"/>
	<path d="M133.3,101.3C133.3,101.3,133.3,101.3,133.3,101.3C133.3,101.3,133.3,101.3,133.3,101.3
		C133.3,101.3,133.3,101.3,133.3,101.3c0,0,0,0.1,0,0.1C133.3,101.4,133.3,101.4,133.3,101.3L133.3,101.3z"/>
	<path d="M88,183.4c0-0.1,0-0.2,0-0.3C88,183.1,88,183.2,88,183.4L88,183.4z"/>
	<path d="M121.3,189.3c-0.2-1.3-0.8-2.3-2.1-2.9C119.4,187.7,120.3,188.5,121.3,189.3z"/>
	<path d="M121.3,189.4C121.3,189.3,121.3,189.3,121.3,189.4C121.3,189.3,121.3,189.4,121.3,189.4L121.3,189.4z"/>
	<path d="M119.2,186.4C119.2,186.4,119.1,186.4,119.2,186.4C119.2,186.4,119.2,186.4,119.2,186.4
		C119.2,186.4,119.2,186.4,119.2,186.4z"/>
	<path d="M124.4,176.1c0,0,0-0.1,0-0.1L124.4,176.1C124.3,176.1,124.4,176.1,124.4,176.1z"/>
	<path d="M125.8,178.2C125.8,178.2,125.8,178.2,125.8,178.2L125.8,178.2L125.8,178.2C125.8,178.2,125.8,178.2,125.8,178.2
		C125.7,178.2,125.8,178.2,125.8,178.2L125.8,178.2z"/>
	<path d="M125.7,178.2c-0.2-0.8-0.6-1.5-1.3-2C124.5,177,125,177.6,125.7,178.2z"/>
	<path d="M123.7,175.4c0,0,0-0.1,0-0.1C123.6,175.3,123.6,175.3,123.7,175.4C123.6,175.4,123.6,175.4,123.7,175.4z"/>
	<path d="M124.2,176c-0.2-0.2-0.4-0.4-0.6-0.6C123.7,175.7,123.9,175.9,124.2,176z"/>
	<path d="M124.4,176c-0.1,0-0.1,0-0.1,0C124.3,176,124.3,176,124.4,176C124.3,176.1,124.4,176,124.4,176z"/>
	<path d="M123,174.6C122.9,174.6,122.9,174.6,123,174.6c-0.1-0.1-0.1-0.1-0.1,0L123,174.6c-0.1-0.1-0.2-0.2-0.3-0.2
		c0,0.1,0.1,0.2,0.1,0.2C122.9,174.6,122.9,174.6,123,174.6z"/>
	<path d="M123,174.6c0.2,0.2,0.4,0.4,0.6,0.6C123.5,174.9,123.3,174.6,123,174.6z"/>
	<path d="M123.6,175.3C123.6,175.3,123.6,175.2,123.6,175.3C123.6,175.2,123.6,175.3,123.6,175.3
		C123.6,175.3,123.6,175.3,123.6,175.3z"/>
	<path d="M87.9,183.9c0-0.2,0.1-0.3,0.1-0.5c0,0-0.1-0.1-0.1-0.1C87.9,183.5,87.9,183.7,87.9,183.9z"/>
	<path d="M97.8,124.1C97.8,124.1,97.7,124.1,97.8,124.1c0,0.1,0,0.1,0,0.2C97.8,124.2,97.8,124.1,97.8,124.1z"/>
	<path d="M97.9,124.6c0-0.1-0.1-0.3-0.1-0.4c0,0,0,0.1,0,0.1C97.8,124.5,97.8,124.5,97.9,124.6z"/>
	<path d="M130.2,147.9C130.2,147.9,130.1,147.9,130.2,147.9C130.1,147.9,130.1,147.9,130.2,147.9L130.2,147.9z"/>
	<path d="M140,149.4c0.2,0.4,0.3,0.9,0.5,1.3C140.5,150.3,140.4,149.8,140,149.4z"/>
	<path d="M140.5,150.9C140.5,150.9,140.5,150.9,140.5,150.9C140.5,150.9,140.5,150.9,140.5,150.9
		C140.5,150.9,140.5,150.9,140.5,150.9c0,0,0-0.1,0-0.1C140.5,150.8,140.5,150.9,140.5,150.9L140.5,150.9z"/>
	<polygon points="131.9,149.5 131.8,149.4 131.8,149.4 	"/>
	<path d="M131.8,149.4C131.8,149.4,131.8,149.4,131.8,149.4c-0.2-0.3-0.5-0.5-0.7-0.8c0,0-0.1,0.1-0.1,0.1
		C131.2,149,131.5,149.2,131.8,149.4z"/>
	<path d="M131,148.7c-0.3-0.3-0.6-0.5-0.8-0.8c0,0-0.1,0.1-0.1,0.1C130.4,148.2,130.7,148.5,131,148.7
		C131,148.7,131,148.7,131,148.7z"/>
	<path d="M76.2,116.8c0-0.1,0-0.1,0-0.1C76.2,116.7,76.2,116.7,76.2,116.8L76.2,116.8z"/>
	<path d="M76.3,116.7c0.2-0.2,0.4-0.4,0.6-0.6C76.5,116.2,76.3,116.3,76.3,116.7z"/>
	<path d="M76.9,116C76.9,116.1,76.9,116.1,76.9,116C76.9,116.1,76.9,116.1,76.9,116C77,116.1,76.9,116.1,76.9,116
		C76.9,116.1,77,116.1,76.9,116C77,116.1,77,116,76.9,116C77,116,76.9,116,76.9,116L76.9,116z"/>
	<path d="M76.2,116.8C76.2,116.8,76.2,116.8,76.2,116.8c-0.1,0-0.1,0.2-0.2,0.3C76.1,117,76.2,116.9,76.2,116.8z"/>
	<path d="M125.1,30.9c0-0.1,0.1-0.2,0.1-0.2C125.2,30.7,125.1,30.8,125.1,30.9C125,30.9,125,30.9,125.1,30.9
		C125,30.9,125.1,30.9,125.1,30.9L125.1,30.9z"/>
	<path d="M124.2,31.5c0.1,0.1,0.2,0.2,0.4,0.4c0.2-0.3,0.3-0.6,0.5-0.9C124.7,31.1,124.5,31.3,124.2,31.5z"/>
	<path d="M73.9,45.1c-0.4,0.5,0.2,0.7,0.6,0.8c0.1-0.1,0.2-0.2,0.3-0.3C74.7,45.1,74.2,44.7,73.9,45.1z"/>
	<path d="M120.6,24.1c-0.5-0.4-0.7,0.3-0.9,0.7c0.1,0.1,0.2,0.2,0.3,0.3C120.5,24.9,121,24.4,120.6,24.1z"/>
	<polygon points="109.4,104.9 109.5,104.9 109.6,104.9 	"/>
</g>
</svg>
