<?xml version="1.0" encoding="utf-8"?>
<!-- Generator: Adobe Illustrator 25.3.0, SVG Export Plug-In . SVG Version: 6.00 Build 0)  -->
<svg version="1.1" id="Layer_1" xmlns="http://www.w3.org/2000/svg" xmlns:xlink="http://www.w3.org/1999/xlink" x="0px" y="0px"
	 viewBox="0 0 76.4 109.9" style="enable-background:new 0 0 76.4 109.9;" xml:space="preserve">
<path d="M26.9,55.4c-2.5-5.5-4.5-10.9-8.2-15.9c-1.3,4-3,7.1-7,8.3c-2.3,0.7-4.1,0.2-5.2-1.6c-1.3-2-1.4-4.5,0.7-5.9
	c2.8-1.9,4.1,0.2,5.1,2.8c1.6-1,1.9-2.4,2.1-3.9c0.2-1.8,0.2-3.4-2.4-3.1C5,37.1-0.8,28,0.1,21.5c0.9-6.2,7.3-10.5,14.3-9.5
	c8.2,1.2,11.3,9.2,6.9,17.5c-1.2,2.3-1.2,2.3,1.4,4c0.2-0.2,0.5-0.4,0.5-0.7c0.2-1.6-0.7-3.7,1.5-4.3c1.7-0.4,3.2,0.6,4,2.3
	c0.9,2,0,3.6-1.3,5c-1.3,1.3-3.1,1.2-5.1,1.8c4,7,7.4,14.2,10.5,22.4C38.5,49,44.7,38.8,52.1,28.5c-1.5-0.2-2.5-0.2-3.5-0.5
	c-2.3-0.5-4-1.8-4.7-4c-0.8-2.1-0.3-4,1.5-5.4c1.3-1,2.8-1.2,4.2-0.2c2.2,1.5,1.3,3.4,0.7,5.3c5.1-0.7,5.4-1.1,3-5.6
	C48.9,10,51.9,2,60.1,0.3c5.1-1.1,9.3,1.1,12.3,5c3.5,4.6,5.4,9.8,2.7,15.5c-2.4,4.9-6.5,7-12,6.3c-1-0.1-2.3-1.2-3,0.5
	c-0.5,1.2-0.1,2.4,0.6,3.3c1.1,1.5,1.9-0.3,2.9-0.6c2.1-0.5,3.8,0.1,4.3,2.2c0.5,2.1-0.6,3.5-2.7,4c-3.6,0.9-6.5-1-9.3-6.5
	C44.5,45.3,34.9,61.2,29.5,79.9c1.5-0.8,2.6-1.3,3.6-1.9c2.5-1.5,4.6-0.6,6.2,1.3c1.9,2.1,1.9,4.5,0.2,6.9c-1,1.4-2.3,2.8-4.2,1.8
	c-1.9-1-2.5-2.6-1.3-4.6c0.3-0.5,0.6-1,1.4-2.6c-6,4.1-8.5,8.9-9,14.8c-0.3,3.7-0.2,7.4-0.2,11.1c0,1.5,0.3,3.3-2,3.3
	c-2.1,0-2.1-1.8-2.1-3.3c-0.4-12.2,1.8-24,6.1-35.4c1.3-3.5,1.9-6.6-0.9-9.7c-1.6-1.8-3.2-2.8-5.9-1.9c0.5,0.8,1,1.4,1.3,2.1
	c0.9,2.4-0.2,3.9-2.4,4.6c-2.4,0.8-3.9-0.4-4.5-2.8c-1.1-4.4,2.1-8.2,6.9-8.3C24,55.1,25,56.3,26.9,55.4z M72.4,16.8
	c0.3-3.8-1.8-8.9-4.3-10.9c-2.8-2.3-7.5-2.7-10.3-0.7c-3.2,2.3-3.3,5.5-2.1,8.9c0.9,2.8,2.4,5.1,4.6,7c1.9,1.6,3.9,3.4,6.7,2.1
	C70.1,22,72,19.6,72.4,16.8z M11.6,15.7c-4.6,0.1-7.3,3.2-7.3,8.3c0,4.9,2.7,8.2,6.8,8.2c4.4-0.1,8.5-4.6,8.6-9.5
	C19.8,18.6,16.3,15.6,11.6,15.7z"/>
</svg>
