<?xml version="1.0" encoding="utf-8"?>
<!-- Generator: Adobe Illustrator 25.3.0, SVG Export Plug-In . SVG Version: 6.00 Build 0)  -->
<svg version="1.1" id="Layer_1" xmlns="http://www.w3.org/2000/svg" xmlns:xlink="http://www.w3.org/1999/xlink" x="0px" y="0px"
	 viewBox="0 0 96.8 230.2" style="enable-background:new 0 0 96.8 230.2;" xml:space="preserve">
<path d="M34.9,230c0.8-12.1,1.8-24.2,2.2-36.3c0.4-12.3-4.7-23.3-9.3-34.3c-0.9-2.1-4.4-3.3-6.8-4.4c-11.4-5.3-17.2-14.3-18-26.7
	c-0.3-4-0.6-8.1-2.3-11.9c-2-4.3,0.3-4.8,3.8-4.4c13,1.3,20.1,9.6,24,21.1c2,5.8,2.9,11.8,2.4,18.2c-0.5,7.3,4.9,13.4,6.1,20.3
	c1.4,0,1.7-0.5,1.8-1.1c0.9-21.4,1.9-42.7,2.8-64.1c0.1-2.8,0.4-5.4-3.3-6.6C25.5,95.4,20.2,84.4,15.3,73c-0.9-2.1-1.2-4.5-2.4-6.6
	c-2.4-4.2-0.2-5.6,3.7-5.1c8.4,1,15.4,4.9,21,11.2c1.1,1.2,2.1,2.6,3.9,5c0.2-11,0.2-20.7-0.8-30.3c-0.2-2.3-1.5-2.8-3.4-2.9
	c-15.8-0.7-25-10.4-32.1-23.2c-1.1-2-1.2-3.6-0.1-5.4c1.1-1.6,2.7-1.9,4.5-1.3c2.4,0.8,1.9,2.6,1.9,4.7c0,7.8,5.6,12,11,16.1
	c3.1,2.3,6.9,3.2,12.7,3.9C27.4,31.9,24.9,23,20.1,15.5c-1.2-1.9-1.3-3.5-0.3-5.3c0.8-1.5,2.1-2.2,3.8-1.8c2.2,0.6,2.9,2.2,2.8,4.4
	C25.9,23,32.8,29.3,38.8,36.2c-1.9-10.1-0.1-20.8-6.3-29.9c-1.1-1.7-0.6-3.3,0.6-4.7c1.1-1.3,2.5-1.6,4.1-1.1c2,0.6,2.6,2.3,2.3,4.1
	c-1.6,10.5,2.9,20.1,3.8,30.4c6.3-8.3,6.5-17.9,6.2-27.6c-0.1-1.7-0.9-3.4-0.1-5c0.9-2,2.5-2.8,4.7-1.9c1.8,0.8,3.1,2.4,1.7,4
	c-3.3,3.9-2.2,8.5-2.6,12.9c-0.6,6.8-1.9,13.5-6,19.9c8.5-2.8,14.1-10.3,13.6-17.8c-0.1-1.9,0.2-3.4,2-4.3c1.3-0.6,2.5-0.3,3.5,0.7
	c1.5,1.5,0.8,3,0.1,4.7c-4.2,9.8-9.2,18.9-20.1,22.8c-2.1,0.7-2.1,2.3-2,4.2c2.3,28.6,1.6,57.3,0.9,85.9c0,0.3,0.3,0.6,0.9,1.6
	c4.3-12.9,9.1-25.2,14.3-37.3c0.9-2.1,0.6-3.4-1.1-5c-6-5.6-7-12.9-6-20.6c0.4-3.1,1.9-6.2,0.8-9.5c-0.7-2.2,0.5-3.7,2.4-4.7
	c1.3-0.7,2.5-0.5,3.5,0.5c1.8,1.8,0.6,3.3-0.3,5.1c-4.1,7.8-3.7,17.2,1.6,24.4c-1.3-8.1,2.6-14.6,1.5-21.7c-0.3-1.7,0.9-3.3,2.7-4
	c1-0.4,2.1-0.1,2.9,0.7c1.3,1.3,0.8,2.8,0,4.1c-2.9,5.3-2.4,11.1-2.8,17.1c3-5.6,7.4-10.3,9.1-16.5c0.7-2.5,1.4-4.5,4.3-4.6
	c1.3,0,2.6,0.6,2.9,2.1c0.5,2.7-1,3.9-3.2,5.4c-5,3.6-6,9.8-8.3,15.3c5.8-3.1,12-5.4,13.8-12.7c0.4-1.7,1.5-3.2,3.6-2.9
	c1.8,0.2,3.3,1.3,3.7,3.1c0.4,1.7-0.6,2.9-2,3.7c-7.4,4.2-12.2,11.9-21.3,14.4c7.9,4.4,14.8,3.7,20.5-1.7c1.6-1.5,2.6-4.2,5.6-3.1
	c1.6,0.6,2.4,1.7,2.2,3.5c-0.4,3.5-3.7,2.7-5.7,4c-7.2,4.7-14.7,5.3-22.7,2.9c-2.7-0.8-3.9,0.6-4.8,2.8
	c-5.1,13.1-10.6,26.1-14.4,40.1c7.5-9.2,18.1-13.1,28.5-17.1c1.7-0.6,3.3-2.6,5.3-0.9c1.6,1.3,0.5,3.2,0.4,4.8
	c-0.6,10.8-5.9,19.1-13.9,25.8c-7,6-14.6,11.4-23.6,13.9c-3.6,1-2.6,3.4-2.8,5.5c-1,16-1.7,32-4,47.9c-0.5,3.5-1.5,6.9-2.2,10.3
	C36.3,230.2,35.6,230.1,34.9,230z M38,94.4c0.1,0.2,0.3,0.4,0.4,0.7c0-0.1,0-0.4,0-0.4c-0.2-0.1-0.4-0.1-0.5-0.1
	c-3.3-7.9-9.9-13.2-15.7-19c-0.2-0.2-1.2,0.2-1.8,0.4c-0.2-0.4,1.1-0.4,0.3-1c-0.1,0.3-0.2,0.7-0.3,1c2.8,2.4,3.7,6,5.9,8.9
	C29.4,88.9,32.2,93.4,38,94.4z M74.3,129.8c-12.1,1.1-26.8,15.3-28.6,27.7c-0.6,0.2-0.6,0.3-0.1,0.4c0-0.2,0-0.3,0-0.5
	c2.5,0.1,3.4-2.2,4.8-3.5c8.1-8,16.1-16.1,24.1-24.2c0-0.1-0.1-0.2-0.1-0.3C74.3,129.5,74.3,129.6,74.3,129.8z M6.8,121.6
	c1.2,18.6,5.8,26.3,17.5,28.9c-3.9-8.8-9-16.7-13.8-24.7C9.5,124.3,8.9,122.2,6.8,121.6z M49.4,160.5c12.8-6.7,24.6-14.3,28.7-29.4
	C68.5,140.9,59,150.8,49.4,160.5z M19.7,66.8c7.3,8.8,15.8,15.8,21.7,26.3C41.4,82.1,31.9,68.4,19.7,66.8z M11.2,118.5
	c5.3,8.2,9.6,16.9,15.1,24.8C24.9,132.8,21.9,123.2,11.2,118.5z"/>
</svg>
