<?xml version="1.0" encoding="utf-8"?>
<!-- Generator: Adobe Illustrator 25.3.0, SVG Export Plug-In . SVG Version: 6.00 Build 0)  -->
<svg version="1.1" id="Layer_1" xmlns="http://www.w3.org/2000/svg" xmlns:xlink="http://www.w3.org/1999/xlink" x="0px" y="0px"
	 viewBox="0 0 150.4 250.2" style="enable-background:new 0 0 150.4 250.2;" xml:space="preserve">
<path d="M28.8,180.5c4.8,11.1,8.6,22.5,11.9,34.3c0.3-3,0.7-6,1-9c0.4-3.2,0.3-6.5,1.2-9.6c1.7-6.6-0.9-12.4-2.5-18.5
	c-0.1-0.5-0.7-1-1.2-1.4c-13.7-10.6-20.8-25.3-25.1-41.6c-2.3-8.5-3.5-17.3-4-26.1c-0.1-1.3-0.7-3,0.9-3.6c1.7-0.6,2.2,1.3,2.9,2.3
	c8.5,12.8,14.4,26.8,19.3,41.3c1.4,4.1,2.8,8.2,4.1,12.3c0.7,0.2,0.6-0.3,0.5-0.5c-1.3-18.7,0.6-37.1,4.2-55.4
	c0.3-1.4,0.3-2.6-0.7-3.8c-0.9-1.1-1.4-2.6-1.4-4.1c-0.1-7.8-1.8-15.4-1.5-23.3c0.1-2.4,0.1-4.8,1-7.1c0.7-1.8,1.8-3.1,3.7-3.3
	c1.8-0.2,3,0.7,3.8,2.2c0.7,1.2,1.1,1.6,2.6,0.7c4.4-2.7,6.3-2,8,2.8c0.5,1.3,1.2,0.8,1.9,0.7c5-0.5,6.2,1.3,4.3,6
	c-1.8,4.5-4.6,8.6-7.2,12.7c-2.5,3.9-4.4,8.7-7.9,11.4c-4.7,3.6-5.1,8.4-5.9,13.2c-2.9,17.9-4.2,35.8-2,53.9
	c0.6,5.1,1.5,10.1,3.8,14.9c1.1-6.3,2.2-12.6,3.4-18.8c0.1-0.8,0.3-1.6,0.5-2.4c1.9-7.2,2.5-14.3,1.4-21.8
	c-1.3-8.3,1.3-22.8,4.8-29.8C53.8,120.2,53,131,52.1,142c1.2-0.8,1-1.9,1.3-2.8c4-14.4,9.1-28.4,14.9-42.2c3.4-8,4.8-16.7,4.8-25.5
	c0-8.2-0.7-16.4-2.2-24.4c-0.2-1.4-0.7-2.4-2.1-3.2c-2.2-1.3-3.2-3.7-4.7-5.7c-3.2-4.4-6.4-8.7-9.1-13.3c-0.8-1.3-1.5-2.7-2.1-4.2
	c-1.3-3.3-0.3-4.7,3.2-4.7c1,0,1.9,0.4,2.4-1.2c1.1-3.3,3.1-4,6.2-2.4c1.5,0.8,2.1,0.7,3.2-0.7c1.8-2.5,4.8-2,6.1,1
	c1.1,2.6,1.4,5.4,1.3,8.2c-0.1,5.6,0.6,11.5-0.8,16.7c-2.3,8-0.1,15.5,0.5,23.2c0.6,7.9,0.4,15.7-0.8,23.6c1.4,0,1.5-1.2,1.9-1.8
	c5.9-10.1,13-19.2,21.8-27c0.7-0.7,1.7-1.2,1.7-2.5c-0.1-3.6,2-6.2,3.8-9c2.7-4.1,5.1-8.3,7.7-12.4c1.8-2.8,3.8-5.5,6.3-7.7
	c1.6-1.4,3.4-2.4,5.7-1.5c2.2,0.8,2.3,2.7,2.2,4.7c-0.1,1,0.2,1.4,1.3,1.6c5.9,1,6.4,1.7,5.3,7.3c-0.3,1.4,0.7,1.3,1.3,1.6
	c3.9,2.2,4,4.5,0.3,6.9c-3.4,2.3-7.1,3.8-10.9,5.2c-4.8,1.8-9.7,3.6-14.6,5.4c-1,0.4-2.1,1-3,0.8c-4.5-0.9-6.8,2.2-9.4,4.8
	c-6.1,5.9-11.2,12.7-15.6,20.2c5.5-2.5,10.5-6,16.8-6.3c0.2,1.3-0.6,1.5-1.2,1.8c-4.9,3-9.9,5.7-15.4,7.4c-2.1,0.7-3.6,1.7-4.6,3.8
	c-1.2,2.5-2.6,5-3.8,7.5c-0.3,0.5-0.8,1.1-0.2,1.6c0.3,0.2,1,0.1,1.4,0c10.4-3.6,20.8-7,31.5-9.8c0.5-0.1,1.1-0.6,1.5-1
	c5.9-7,13-12.5,20.3-17.7c0.7-0.5,1.4-0.9,2.2-1.2c2.6-1.1,4.4-0.1,4.4,2.7c0,1.6,0.2,2.3,2,2.6c2.6,0.5,3.6,2.8,2.5,5.6
	c-0.6,1.6-0.7,2.4,1,3.4c2.6,1.6,2.3,4.6-0.6,6.2c-2.5,1.4-5.3,1.8-8.1,2.1c-5.9,0.5-11.8,0.8-17.7,1.1c-1,0.1-2.3,0.1-3-0.4
	c-3-2.1-5.9-0.8-8.9,0.1c-9.6,2.8-19,5.9-28.4,9.2c-1.7,0.6-2.8,1.5-3.5,3.2c-1.6,4.2-3.3,8.3-4.8,12.6c6.9-5.6,13.1-12.3,22.2-14.2
	c0.2,0.3,0.4,0.6,0.7,0.9c-1.9,1.7-3.7,3.5-5.6,5.2c-5.5,4.8-11.1,9.3-17.8,12.5c-0.8,0.4-1.5,0.7-1.8,1.6
	c-3.7,10.9-6.7,21.9-9.1,33.3c1.3,0.3,1.7-0.6,2.2-1.1c11.4-10.7,23.3-20.6,37.7-27.1c0.5-0.2,1.1-0.6,1.4-1.1
	c5.8-8.3,13.7-14.3,21.3-20.6c1.4-1.2,3.1-2.1,4.9-2.6c3.9-1.2,6.5,1,5.5,5c-0.5,1.8,0,2.2,1.6,2.8c4.3,1.6,5.1,4.2,2.5,7.8
	c-0.7,1-0.4,1.3,0.3,1.9c3.7,3.5,3.2,5.6-1.6,7.2c-5,1.6-10.2,2-15.3,2.4c-3.8,0.3-7.6,0.6-11.5,1c-1.7,0.1-3.6,0.6-4.9-0.4
	c-2.6-1.9-4.7-0.6-6.8,0.5c-14.3,7.4-26.3,17.7-37.5,29c-0.7,0.7-1.2,1.4-1.4,2.4c-2,9.9-3.7,19.8-5,29.8c0,0.3,0.1,0.6,0.2,1.6
	c5.9-11,11.4-21.6,19.5-30.7c1,1.3,0.3,2-0.1,2.7c-5.9,11.6-11.4,23.6-20,33.6c-0.4,0.5-0.8,1-0.9,1.6c-0.8,7.9-1.8,15.8-1.6,23.9
	c2.6-4.2,5.1-8.4,7.8-12.5c3.6-5.4,7.5-10.7,11.2-16.1c7.3-10.6,17.7-17.6,28.2-24.6c0.7-0.4,1.4-1.1,2.2-0.4
	c0.8,0.7,0.5,1.5,0.2,2.3c-7.3,17.8-16.2,34.6-30.8,47.7c-5.1,4.6-10.9,8-17.7,9.3c-1.6,0.3-2.3,1.1-2.3,2.7c0,2.2-0.2,4.3-0.4,6.5
	c0,0.7,0,1.6-1.1,1.5c-1-0.1-1-0.9-1-1.6c0.1-3.8,0.2-7.7,0.5-11.5c0.3-2.9-0.4-5.5-1.5-8.1c-4.5-10.6-8.3-21.5-10.1-32.9
	c-0.2-1.4-0.3-2.9-0.4-4.3C28,181.3,28,180.8,28.8,180.5z M126.3,38.8c0.1-1.6,1.4-1.7,2-2.4c1-1.1,2.8-2,1.9-3.8
	c-0.9-1.9-2.9-1.8-4.7-1.4c-1.4,0.3-2.8,1-4.3,1.6c-0.1-1.9,1.2-3,1.4-4.4c0.2-1.3,1.2-2.7-0.3-3.7c-1.4-0.9-2.5,0.3-3.5,1.2
	c-0.9,0.8-1.8,1.8-2.5,2.7c-3.1,3.9-5.6,8.2-8.3,12.4c-2,3-2,5.4,1,7.6c1.2,0.9,1.8,2.9,3.7,2.2c6.8-2.2,13.5-4.6,19.7-8.2
	c2-1.2,1.4-2.2-0.4-3C130.2,38.8,128.2,39.3,126.3,38.8z M47.3,73.2c-0.9-0.9-0.7-1.9-1-2.7c-0.6-1.7-0.5-4.4-2.8-4.2
	c-2.5,0.1-2.1,2.9-2.6,4.7c-0.1,0.5-0.1,1-0.1,1.5c-0.2,4.9,0,9.7,0.7,14.6c0.9,6.2-0.3,4.9,5.7,6.1c1.4,0.3,3,1,4.2-0.8
	c3.7-5.5,7.5-10.9,10.3-17c0.4-0.9,1.3-2,0.4-2.9c-1-0.9-2.1-0.2-3.2,0.2c-1.5,0.5-2.5,2.1-4.5,2.2c0.3-1.3,0.5-2.3,0.7-3.3
	c0.3-1.4,0.8-3.1-0.8-3.9c-1.6-0.8-3,0.2-4.1,1.4C49.1,70.4,48.3,71.8,47.3,73.2z M119.6,111.6c0.3-1.4,1.5-2,2.1-3
	c0.8-1.3,2.4-2.6,1.2-4.1c-1.3-1.6-3.1-0.4-4.5,0.3c-1.1,0.6-2.1,1.3-3.1,2.1c-3.5,2.6-6.7,5.5-9.8,8.6c-4.4,4.3-4.4,4.9-0.9,10
	c0.5,0.7,1,1.4,1.9,1.3c7.1-0.4,14.3-0.9,21.2-2.7c0.7-0.2,1.5-0.4,1.6-1.2c0.2-1-0.6-1.6-1.3-1.9c-1.7-0.9-3.5-1.6-5.3-2.4
	c0.8-1.1,1.9-1.1,2.8-1.6c1.2-0.7,2.9-1.2,2.7-3c-0.3-2-2.1-2.3-3.8-2.6C123,111,121.4,112.2,119.6,111.6z M67.6,18.3
	c-1.3-1.4-1.9-3.3-3.6-4.2c-0.9-0.4-1.8-0.7-2.6-0.1c-0.8,0.6-0.6,1.4-0.6,2.3c0,1.3,1,2.4,0.6,4c-1.2-0.6-2.1-1.2-3.1-1.7
	c-1-0.5-2.2-1.2-3.2-0.3c-0.9,0.9,0.1,2,0.5,2.8c2.6,5,5.9,9.5,9.2,14c0.7,1,1.4,1.2,2.6,1c5.3-0.9,5.3-0.9,5.7-6
	c0.1-1.9,0.3-3.7,0.4-5.6c0.1-3.4,0.2-6.8-0.7-10.2c-0.2-0.9-0.7-1.9-1.8-1.9c-1.2-0.1-1.4,1-1.9,1.8C68.4,15.4,68.9,17.1,67.6,18.3
	z M129.2,75.3c0.6-1.5,1.1-2.7,1.6-4c0.3-0.9,0.7-1.9-0.3-2.6c-0.8-0.6-1.6,0.1-2.3,0.5c-4.9,3.2-9.3,6.9-13.5,10.9
	c-2.1,2,0.2,4,0.5,6c0.3,1.7,1.6,1.9,3,1.9c4.1-0.2,8.3-0.3,12.4-0.7c2-0.2,4.1-0.5,6-1.5c0.8-0.4,1.5-0.9,1.4-1.9
	c-0.1-1-1-1.3-1.8-1.5c-1.5-0.3-2.9-0.5-4.8-0.9c1.3-1.7,3.1-2.4,3.8-4c0.4-1,0.7-2,0-2.9c-0.7-0.9-1.7-0.5-2.6-0.3
	C131.7,74.6,130.8,75.6,129.2,75.3z M46,224.3c7.3-3.7,36.2-38,40.2-47.6C66.9,188,57.2,206.7,46,224.3z M35.2,169
	c-4-8-7.8-16.1-11.4-24.3c-3.5-8.1-6.5-16.5-9.6-24.7C16.7,138.2,21.8,155.4,35.2,169z M84.4,183.8c-11,14.1-21.6,28.5-34.6,40.9
	C66.9,215.8,76,200.1,84.4,183.8z M35.1,163.9c-5.1-16.7-10.3-33.3-19.8-48.2C20.1,132.5,26.6,148.7,35.1,163.9z"/>
</svg>
