<?xml version="1.0" encoding="utf-8"?>
<!-- Generator: Adobe Illustrator 25.3.0, SVG Export Plug-In . SVG Version: 6.00 Build 0)  -->
<svg version="1.1" id="Layer_1" xmlns="http://www.w3.org/2000/svg" xmlns:xlink="http://www.w3.org/1999/xlink" x="0px" y="0px"
	 viewBox="0 0 74.3 229.2" style="enable-background:new 0 0 74.3 229.2;" xml:space="preserve">
<path d="M52.1,161.4c0.3-0.2,0.7-0.3,1-0.5c5.8-4.9,9.7-4.5,17.6-0.4c0.7,0.3,1.5,0.7,1.4,1.7c-0.1,1-1,1.1-1.8,1.3
	c-5.7,1.9-11.5,3.3-17.6,3.4c-2.1,0-2.9,0.7-3.4,2.7c-1.8,8.2-2.6,16.5-3.1,24.8c-0.7,11.1-2.9,22-6.2,32.6
	c-0.2,0.6-0.3,1.1-0.5,1.7c-0.1,0.4-0.5,0.6-0.9,0.6c-0.6-0.1-0.8-0.6-0.6-1.1c0.2-1,0.5-1.9,0.8-2.8c6.3-21.9,8.1-44.1,5.6-66.8
	c-0.6-5.9-3.4-11-6.3-16c-0.7-1.2-1.4-1.3-2.7-0.9c-7.9,2.4-14.9-0.6-21.7-3.9c-1.3-0.6-1.8-1.6,0-2.2c3.8-1.3,7.6-2.7,11.6-3.1
	c2.3-0.2,4.4,0.8,7.2,2c-3.2-4.7-6.4-8.3-9.5-12c-0.5-0.6-1-0.9-1.7-0.3c-1.5,1.2-3.4,1.8-5.1,2.1c-3.2,0.5-6.5,0.7-9.6-0.7
	c-1.2-0.5-1.5-1.9-1.6-3c-0.5-3.1-3.4-6.2-1.4-9.3c1.8-2.7,2.1-6.5,5.8-8c1.7-0.7,2.7-3.3,4.8-2.9c2.1,0.4,4-0.2,6-0.3
	c5.3-0.4,8.8,3.3,8.1,8.6c0,0.4-0.2,0.9,0,1.1c3.2,4.7-0.1,7.2-3.1,9.9c-0.7,0.6-1.2,1-0.4,1.9c5.9,6.3,10.6,13.6,15.7,20.4
	c0,0.2-0.2,0.5,0.3,0.4c-0.1-0.1-0.2-0.2-0.3-0.3c-1.5-6.9-3-13.8-4.5-20.7c-1.9-9-3.6-18.1-3.9-27.4c-0.1-2.7-1.7-4.6-3.1-6.6
	c-0.9-1.4-1.8-0.6-2.4,0.5c-1.9,3.1-4.8,4.9-8.3,5.6c-0.8,0.2-1.6,0.4-2.2-0.4c-0.6-0.8,0-1.5,0.3-2.2c1.3-2.6,3.3-4.6,5.9-5.9
	c-0.7-1.1-1.7-1-2.4-1.2c-3.3-0.9-3.7-0.6-4.3,2.7c-0.1,0.8-0.3,1.5-0.5,2.3c-1.1,4.2-2.4,5-6.6,4.1c-1.5-0.3-2.9-1-4.5-1.3
	c-2.2-0.4-2.2-2.8-2.9-4.4c-0.7-1.7-0.9-3.6-1-5.5c-0.1-2.7,0.4-5.1,3.5-6.3c1.8-0.8,2.8-2.7,5.6-2.1c3,0.6,4.6,2.1,5.3,4.7
	c0.7,2.5,2.1,3.5,4.5,3.9c2.5,0.5,4.9,1.3,7.8,2.2c-1.5-2.9-2.8-5.4-4-7.9c-2.7-5.6-4.9-11.4-5.1-17.7c-0.1-2.1-2-3.5-4.2-3.2
	c-2.9,0.4-4.4-1-3.9-3.8c0.3-1.5,0-1.7-1.5-1.9c-2.6-0.3-3.9-3.9-2.9-6.3C6,41.3,6.5,39.4,9,39.1c0.2,0,0.5-0.4,0.5-0.6
	c0.1-1.3,0.2-2.6,1.7-3.2c2.2-0.9,4.8-2.4,6.7-1.6c2.4,1,4.4,1.6,7.1,1.3c1.5-0.1,5,1.6,4.7,5c-0.1,0.8,0.4,1.5,0.9,2.1
	c1,1.2,0.7,2.2-0.4,3c-1.4,1-1.6,2.3-1.3,3.9c0.4,1.6-0.4,2.6-1.9,3.2c-1.8,0.7-3.2,1.8-4.4,3.2c-0.2,0.3-0.5,0.8-0.8,0.8
	c-3.5,0.1-2.5,2.5-2.2,4.3c1.2,9.9,6.2,18.2,11.7,27.1c0.4-4.2,0.6-7.6,1-10.9c0.7-6.5,3.2-12.5,5.7-18.5c1.1-2.7,0.9-4.8-0.9-7.3
	c-3.1-4.2-5.1-9.1-5-14.5c0-1-0.1-2.2,0.8-2.7c1.1-0.6,1.6,0.7,2.4,1.2c2.8,2,4.8,4.6,5.9,8c0.9-3.2,0.9-6.4,0.8-9.7
	c0-0.9-0.7-1.1-1.3-1.3c-0.7-0.3-1.6-0.6-2-1.2c-1.1-1.7-2.4-2.5-4.7-2.4c-3,0.1-4.9-4-3.3-7.1c1-1.8,0.6-2.2-1.2-2.6
	c-2.1-0.6-3-2.1-2.2-4.3c0.2-0.7,0.6-1.2-0.1-1.8c-1.7-1.5-0.9-2.5,0.7-3.3c0.5-0.2,1.3-0.3,1.3-1c0.2-3.4,2.6-3.6,5.1-3.4
	c1.4,0.1,1.7-0.2,1.8-1.5c0-1.7,1-2.9,2.7-3c3.3-0.3,6.6-0.6,9.8-0.3c2.8,0.2,3.3,2.8,3.6,5.1c0.2,1.8,0.6,2.1,2.3,1.5
	c3-1.1,3.9-0.6,5.4,2.3c0.9,1.7,2.9,3.1,1.1,5.4c-0.5,0.6,0.8,1.5,1.2,2.2c1.9,3,1.3,3.7-1.6,5.6c-1.6,1-4.3,1.5-4.6,4.4
	c-0.2,1.7-2.3,2.2-3.4,2.8c-2.4,1.3-4.4,4.4-7.9,3.2c-0.9-0.3-1,0.4-1,1c0.3,12.5-3.6,24-7.9,35.4c0,0.1,0,0.2,0.1,0.4
	c1.1-0.3,1.7-1.2,2.4-2c3.1-3.2,7.1-4,11.2-4.7c0.5-0.1,1-0.1,1.3,0.4c0.4,0.6,0,1.1-0.4,1.6c-4,4.4-8.2,8.6-14.2,10.1
	c-1.7,0.4-2.2,1.2-2.4,2.8c-0.5,4.1-0.8,8.2-0.5,12.4c0.3,3.7,3.5,6,5.3,10.1c0.3-1,0.5-1.2,0.5-1.5c2.5-12.5,8.7-23.1,16.5-32.9
	c2.4-3,2.3-3-0.6-5.5c-1.3-1.1-2.6-2.2-3.6-3.5c-2-2.5-0.9-5.6,2.2-6.5c1.6-0.4,2.8-1,4.1-2.1c2.1-1.9,4.5-0.7,6.7,0.1
	c1.6,0.5,3,1.4,4.4,2.4c2.3,1.6,5.2,2.9,3.9,6.7c-0.4,1.2,0,2.7,0.2,4.1c0.4,2.5-0.4,3.6-3,3.9c-2.4,0.3-4.7-0.3-6.9-1
	c-2.1-0.7-3.7-0.2-5.2,1.6c-4.2,5.2-7.9,10.7-11.4,17.5c6.5-2.8,12.6-2.1,18.6-2.1c0.9,0,2.2-0.6,2.5,0.8c0.2,1-1.1,1.2-1.8,1.6
	c-2.7,1.5-5.5,2.7-8.4,3.6c-3.4,1.1-6.8,1.3-10.1-0.2c-1.9-0.9-2.7-0.2-3.2,1.5c-0.5,1.5-1,3-1.5,4.5c-2,5.3-2.4,10.2,1.5,15.1
	c2.9,3.6,4.1,8.2,4.9,13c2.5-3.4,2.9-4.7,1.6-8.2c-2.1-5.3-0.8-10,1.7-14.6c0.3-0.5,0.5-1.2,1.2-1c0.6,0.2,0.8,0.9,0.9,1.4
	c0.7,3.5,1.6,7.1,0.9,10.9c1.9-0.5,2.4-2.1,3.1-3.5c2.4-4.5,6.5-6.4,11.3-5.4c1.7,0.4,1.2,1.2,0.4,2c-1.9,1.9-3.9,3.8-6.6,4.7
	c-3.7,1.2-7.1,3-8.7,7.1c4.1-3.4,8.8-0.6,13.1-1.7c0.4-0.1,0.8,0,1,0.4c0.4,0.7-0.2,1.1-0.6,1.5c-3.6,3.4-7.6,6.1-12.9,5.2
	c-3-0.5-4,0.7-4.7,3.3c-0.7,2.8-1.2,5.5-1.2,8.4c0,7.3-0.6,14.6-2.3,21.6c-1.3,5.3-0.3,10.3,0.1,15.7c1.1-0.9,1-1.9,1.2-2.8
	c1.4-5,2.8-10.1,5.7-14.5c1.9-3,1.8-5.8,0.5-8.8c-0.7-1.8-1.2-3.5-1-5.5c0.5-4.6,3.3-7.2,7.8-7.2c0.6,0,1.4,0.1,1.6,0.5
	c1.6,2.5,4.4,3.8,6,6.2c0.2,0.3,0.3,0.9,0.6,1c4,0.6,2.8,3.8,3.1,6.2c0.1,1.1-0.2,2.2,0.9,3.2c0.9,0.8,0.3,1.8-0.5,2.6
	c-1.5,1.6-3.4,2.3-5.6,1.8c-2.4-0.6-4.7-1.3-7.1-1.9c-2.1-0.5-3.8-0.1-4.8,2.1C54.4,155,52.5,157.9,52.1,161.4L52.1,161.4
	L52.1,161.4z M10.8,86.5c-0.2,0.2-0.4,0.5-0.6,0.7c-0.6-0.3-1.1-0.8-1.8-0.9C6.4,85.7,6.2,85,8.2,84c0.3-0.2,0.6-0.5,0.2-1.2
	c-1.5,0.2-3.1,0.4-4.7,0.7c-0.6,0.1-1.3,0.3-1.3,1c-0.1,1.9,0.7,3.6,1.8,5c0.9,1.2,2.1,0,3.1-0.5c1.1-0.4,2-1.2,2.9-1.9
	C10.4,86.9,10.6,86.7,10.8,86.5L10.8,86.5L10.8,86.5z M10.2,114.3c-4.2,2-5,3.7-3.5,6.8c0.9,1.8,2.7,1.6,4.1,1.6
	c1.3,0,1.5-1.6,1.5-2.8c-0.1-1.6-0.6-2.7-2.6-2.6c-1.3,0.1-1.3-0.5-0.7-1.4C9.4,115.3,9.8,114.8,10.2,114.3l0.1-0.1L10.2,114.3z
	 M13.8,40.5L13.8,40.5c0-0.8,0.5-0.6,1.1-0.5c1.2,0.2,2.2,0.6,3.3,1.1c0.3-1.4,2.8-1.8,1.5-4c-0.9-1.5-1.5-2.5-3.6-1.6
	c-1.3,0.5-2.4,1.9-4.2,1.3c-0.6-0.2-1.1,0.7-0.8,1.5C11.6,39.4,12.3,40.5,13.8,40.5z M66.3,59.4c1.8-0.7,3.1-2,4.4-3.3
	c0.4-0.4,1-0.9,0.4-1.7c-3-4.2-5.9-4-8.1,0.7c-0.2,0.5-0.8,1-0.3,1.6c0.6,0.6,1,0,1.5-0.3c1.3-1,2.2-1.5,1.8,0.9
	C65.7,57.9,66.1,58.7,66.3,59.4L66.3,59.4z M20.8,42.8c0.9-0.1,1.7-0.3,3-0.4c-1.3,1.3-1.6,2.7-0.3,3.6c0.9,0.7,2.6,1.7,3.4,0.5
	c1-1.5,3.9-2.9,1.5-5.4c-0.3-0.3-0.1-0.9-0.2-1.4c-0.3-2.3-2.6-3-4-3.2c-1.7-0.3-2.5,2-2.6,3.7C21.5,41.1,21.7,42.1,20.8,42.8
	L20.8,42.8z M48,21L48,21L48,21c-0.3,0.6,0.7,2.2-1.2,1.4c-1.3-0.5-2,0.3-2.3,1.5c-0.3,1.1-0.5,2.3-0.9,3.4c-0.5,1.3,0,2.2,0.9,3.1
	c1.1,1.1,1.7-0.1,2.5-0.5c0.7-0.4,1.5-0.5,2.2-0.8c0.5-0.2,1.4-0.3,1.1-1.1c-0.9-2.4,0.8-1.8,2-1.8c1,0,2.1,0.1,2.2-1.3
	c0.1-1.2-0.4-2-1.6-2.5C51.4,21.8,49.8,21,48,21z M39.8,129.5c0,0.6,0.1,1.3,0.1,2.2C40.3,130.7,40.2,130.1,39.8,129.5
	c-0.7-8-2-16-1.2-24.1c0.4-4.2-2.3-6.4-4.5-9.2c0.2,7.8,1.6,15.5,3.2,23.1C37.9,122.7,38.2,126.3,39.8,129.5z M38.6,18.8
	c-2.3-0.2-4,1-5.5,2.3c-1.4,1.2-2,2.7-1,4.5c0.9,1.7,2.3,1.5,3.8,0.9c0.8-0.3,1.7-0.7,2.2,0.4c0.6,1.2,0.8,3.1,2.5,2.8
	c1.6-0.3,1.5-2.3,2-3.7c0.1-0.4,0.3-0.8,0.3-1.1c0-1.4,1.6-3.1-0.1-4c-1.5-0.8-1.4,1.8-2.6,2.1c-0.1,0-0.2,0-0.4,0.1
	c-0.2-2,2-3.2,2-5.3c-1.2,0.2-1.5,1.2-2.3,1.6C38.6,20.1,38.7,19.3,38.6,18.8L38.6,18.8z M40.6,106.3c-1.1,15.1,2.3,29.7,5,44.3
	C47.9,135.3,50.5,120.1,40.6,106.3z M50,18.1c1.1,1.1,2.2,2.1,3.5,2.4c1.5,0.4,3.4,3.4,4.6-0.4c0.1-0.2,0.7-0.2,1.1-0.2
	c0.7,0,1.7,0.5,2.1-0.4c0.4-0.9-0.4-1.6-0.9-2.3c-0.7-0.9-2.1-1.8-1.5-3c0.8-1.5,0-2.4-0.5-3.6c-0.5-1.2-0.5-2.8-2.3-2.4
	c-1.8,0.4-4.7,1.3-4.3,2.8c0.7,2.6-1.7,2.3-2.3,3.5c1.5,0.8,3.1-0.6,4.6,0.3c-0.8,1.1-2.2,0.5-2.9,1.3c0.2,0.7,1.4,0.5,1.3,1.4
	C51.8,18.3,50.9,17.3,50,18.1z M16.2,136.2c0,0.3,0,0.5-0.1,0.8c5.1,2.3,10.2,4.2,16,3.6c0.8-0.1,1.5-0.3,2.3-0.5
	c1-0.3,1.4-0.9,0.5-1.7c-3-2.6-6.2-5.1-10.4-4.4C21.7,134.4,19,135.4,16.2,136.2z M28.2,11.2c1.6,1.2,2,2.4,0.2,3.8
	c-0.7,0.6-0.5,1.4,0.4,1.9c2.7,1.7,9.3-0.7,10.3-3.7c0.1-0.4,0-0.6-0.2-0.7c-2.8-2.4,1.4-0.6,0.9-1.6c-3.3-4.1-5.4-5.2-8.3-3.9
	c0.3,1,2.1,0.6,1.8,1.9c-0.3,1.2-1.6,0.8-2.5,1.1C29.9,10.3,28.9,10.3,28.2,11.2z M41.3,9.7c0.6-0.9-1-1.9-0.1-2.8
	c1.1,0.3,0.9,2.1,1.9,1.8c2.5-0.6,2.7,1.1,3,2.8c1.5-0.4,1.1-2.2,2.3-2.5c0.9,0.6-0.2,1.5,0.4,2.1c1-1.2,1.5-2.5,1.5-3.9
	c0-1.9,0.2-4.4-1.7-4.9C47,1.8,44.7,1.4,43,3c-0.9,0.8-1.3,0.3-1.9-0.3c-0.8-0.7-1.7-0.6-2.4,0C37.8,3.1,37.9,4,38,4.8
	C38.2,7,39.7,8.4,41.3,9.7z M69.5,161.9c-7.4-4.6-13.8-3.3-17.7,3.3C57.9,165.1,63.5,163.9,69.5,161.9z M16.6,107.6
	c1.2,0.1,2-2,2.7-0.3c0.6,1.5,1.6,1.3,2.8,1.3c5.5-0.2,5.2-0.1,3-5c-1.1-2.5-2.8-2.1-4.7-2.1c-2.1,0-2.7,1.2-3,2.9
	C17.2,105.4,16.9,106.4,16.6,107.6z M18.2,114.8c0.6,1.3,1.6,2.2,2.6,3c1.8,1.4,4.7,0.6,5.5-1.5c0.3-0.7-0.2-1.6,0.5-2.2
	c2.2-2,0.6-2.7-1.1-3.4c-1.8-0.7-3.5-0.7-5.6,0.3c0.9,0.5,1.2,1.1,1.4,1.7c0.2,0.6,1.4,1,0.8,1.6c-1,1.2-2.3-0.2-3.5,0
	C18.6,114.5,18.5,114.6,18.2,114.8z M39.3,51.5c1.9-5.7-0.7-12.6-5.6-14.7C33.8,42.4,36.1,47,39.3,51.5z M62.3,143.4
	c0.5-0.1,0.8-0.1,1.1-0.2c0.8-0.1,1.5-1.4,2.3-0.5c0.8,0.9-0.5,1.2-0.8,1.8c-0.4,0.9,0,1.2,0.9,1.2c2.1,0,4.8-1.6,5.4-3.4
	c1-2.9-2-2.3-3-3.3c-1.6-1.6-3-0.8-4.2,0.7C63.2,140.7,62.4,141.7,62.3,143.4z M59.5,57.6c0.6-2.4,1.2-4.7-0.7-6.3
	c-1.6-1.4-3.3,0.2-5,0.6c-1.4,0.3-2,1.7-1.3,3.1c0.5,1.1,2.2,2.8,2.5,2.4C56.7,55.1,57.9,56.9,59.5,57.6z M47.6,84.9
	c4,2.5,9.7,1.8,14.8-2C57.1,82.4,52.3,82.3,47.6,84.9z M11.4,110.2c-0.7-2.3,0.9-2.8,2.1-3.1c2.1-0.5,2-2.2,2.2-3.6
	c0.1-0.8-0.4-1.6-1.4-1.5c-1.5,0-2.6,0.8-2.9,2.3c-0.2,0.8-0.6,1.2-1.4,1c-1.4-0.4-2,0.5-2.3,1.6c-0.3,1.2,0.6,1.8,1.4,2.3
	C9.8,109.5,10.6,109.9,11.4,110.2z M19.2,51.6c0.1,1.2-0.4,3.3,1.7,3.1c0.9-0.1,2.6-1.3,2.6-2.7c0-1.4,0.5-1.4,1.5-1.2
	c0.9,0.2,1.9,0.3,2.2-0.8c0.3-1.5-1.1-1.3-1.9-1.6c-0.5-0.1-0.9-0.3-1.4-0.4C21.5,47.2,19.3,48.8,19.2,51.6z M59.7,144.2
	c0.6-2,1.2-4,1.9-6c0.1-0.2,0.2-0.4,0.2-0.6c0.1-0.7-3.7-4.8-4.4-4.6c-0.1,0-0.2,0.1-0.3,0.1c-1.7,0.9-2,4.7-0.2,5.4
	C59.7,139.6,59.8,141.7,59.7,144.2z M7.5,46.2c-0.5,1.1-0.4,1.7,0.7,1.9c2.9,0.5,5.6-2.6,4.6-5.4c-0.6-1.7-2.3-2.2-3.8-2
	c-2.6,0.3,0.3,1,0,1.6C8.9,42.5,8.8,43,8.6,43C6.5,43.5,7.1,45,7.5,46.2z M16,47.4c-2,0.9-3.8,1.6-4.8,3.4c-0.4,0.8-0.6,1.7,0,2.5
	c0.7,0.9,1.5,0.8,2.3,0.2c1-0.7,1.7-0.5,2.6,0.3c1.3,1.2,1.6,0.4,1.7-0.9c0-0.8,0-1.6,0-2.3c0.1-2-0.9-1.6-2.1-0.5
	C15.8,49,15.9,48.3,16,47.4z M36.1,72.9c4.7-1.2,8.1-4.1,11.1-7.6C41.9,65.5,38.8,69,36.1,72.9z M53.6,118.1
	c4.4,0.4,8.1,0.5,11.1-2.9C60.3,113.5,56.9,114.6,53.6,118.1z M11.9,76.5C11,74.9,9.6,75,8.3,74.7c-1.8-0.4-2.5,0.9-3.3,1.9
	c-0.7,0.9-0.1,1.7,0.6,2.3c1.2,1,3,2,4.2,1.4C11,79.8,9.6,77.1,11.9,76.5z M14.4,117.5c-0.7,1.9-0.8,3.6,0.4,5.1
	c0.4,0.4,5.2-1.2,5.4-1.8c0.5-2.2-2-2.2-2.8-3.9C16.8,121,15.6,117.8,14.4,117.5z M53.1,101.1c-2.8,3.9-2.3,7.5-0.6,11.7
	C54.1,108.8,54.2,105.2,53.1,101.1z M68.4,150.1c1.7,0.1,2.8-0.1,3.4-1.2c0.5-1-0.2-2-0.7-2.7c-0.7-0.9-1.5,0.3-2.3,0.4
	c-0.7,0.1-1.3,0.3-2,0.6c-0.6,0.2-1.5-0.1-1.5,0.9c0,0.9,0.6,1.4,1.5,1.6C67.5,149.9,68.2,150.1,68.4,150.1z M17.9,91.6
	c3.5-0.8,5.9-2.1,7.3-5.7C21.6,86.5,19.4,88.1,17.9,91.6z M71,58.4c-1.3,1-2.3,1.7-3.3,2.4c-0.7,0.5-0.8,1.1-0.6,1.8
	c0.2,0.8,0.9,0.9,1.6,0.9c2.2,0.2,2.7-0.4,2.3-2.7C70.9,60.1,71,59.5,71,58.4z M60.2,106.6c3-0.8,5.5-1.4,7.1-3.9
	C63.4,102.2,62.2,102.9,60.2,106.6z M8.5,111.4c0-0.9-0.8-1.4-1.5-1.2c-1.8,0.5-1.8,2.4-2.4,3.8c-0.2,0.4,0.4,1.4,1,1.1
	C7.2,114.5,8.3,113.4,8.5,111.4z M8.1,90.6c1.1,0.4,1.8,0.8,2.5,1c1.1,0.3,1.5-0.6,2-1.3c0.3-0.5,0.5-1-0.1-1.5
	c-0.8-0.7-1.4,0-2.1,0.4C9.7,89.5,9.1,90,8.1,90.6z M61.9,53c0.8-1.1,2.3-2.1,1.6-3.2c-0.6-0.9-2.3-1.2-3.9-0.8
	C60.4,50.4,61.1,51.6,61.9,53z M5.2,81c-0.9-1-1.7-2-2.8-3.2c-0.5,1.5-1.1,2.8-0.3,3.6C2.8,82.3,4.1,81.8,5.2,81z M63.4,133.5
	c-0.2-0.8-0.7-1.6-1.9-1.6c-0.6,0-1.3,0.3-1.1,1c0.2,1.1,1.2,1.4,2.2,1.6C63.3,134.8,63.5,134.4,63.4,133.5z M66.1,136.3
	c-0.3-0.2-0.6-0.3-0.9-0.4c-0.6-0.2-1.4-0.2-1,0.6C64.6,137.2,65.4,136.5,66.1,136.3z"/>
</svg>
