<?xml version="1.0" encoding="utf-8"?>
<!-- Generator: Adobe Illustrator 25.3.0, SVG Export Plug-In . SVG Version: 6.00 Build 0)  -->
<svg version="1.1" id="Layer_1" xmlns="http://www.w3.org/2000/svg" xmlns:xlink="http://www.w3.org/1999/xlink" x="0px" y="0px"
	 viewBox="0 0 82.4 250" style="enable-background:new 0 0 82.4 250;" xml:space="preserve">
<path d="M71.4,155.4c-1-0.2-1.3,0.9-1.7,1.6c-0.9,1.7-1.7,3.3-2.6,5c-7.6,14.5-18.6,26.6-28.3,39.6c-0.1,0.2-0.5,0.2-1.8,0.6
	c1-8,2.1-15.4,2.9-22.8c0.2-2.2,1-3.7,2.9-5c14.9-10.3,21.7-25.1,23.1-42.7c0.1-0.8,0.3-1.8-0.7-2.1c-0.9-0.3-1.2,0.7-1.5,1.3
	c-6.4,12-14.9,22.6-22.5,34.6c0.4-6.1,0.7-11.5,1-16.9c0.1-1.3,0.6-2,1.6-2.8c9.9-8.1,17.5-17.8,21.2-30.2c2-6.8,3.6-13.7,5.4-20.6
	c0.3-1.2,1.5-2.9,0.1-3.7c-1.5-0.7-2,1.3-2.8,2.3c-9.3,12.7-16,26.8-22.5,41.1c-0.6,1.2-0.9,2.6-2.4,3.9c0.1-9,0.2-17.5,0.2-25.9
	c0-1.1,0.5-1.7,1.5-2.1c6.1-2.6,9.7-7.7,12.6-13.4c6.3-12.1,8.9-25.3,10.8-38.7c0.1-0.9,0.5-2.1-0.7-2.4c-1.2-0.2-1.4,1-1.8,1.8
	c-4.1,8.7-8.1,17.4-12.2,26c-3.2,6.9-6.4,13.7-9.7,20.6c-0.9-5.8-1.1-11.5-1.6-17.2c-0.2-1.9,0.3-3,1.7-4.3
	c3.6-3.3,7.1-6.9,8.7-11.7c4.2-12.7,6.1-26,8.1-39.2c0.1-0.7,0.4-1.6-0.6-1.9c-0.9-0.3-1.2,0.6-1.6,1.2c-3.2,5.6-6.2,11.4-9.6,16.9
	C45.1,54,43.1,60,42.1,66.3c-0.4,2.6-0.7,5.3-1,7.9c-1.4-5.9-1.5-11.8-1.1-17.9c1.1-15.6-3.6-30.3-8.5-44.9
	c-0.2-0.7-0.4-1.6-1.3-1.5c-1.1,0.1-1,1.2-1.1,1.9c-0.6,5-0.7,10-0.6,15c0.2,11.1,1.2,22.2,6.2,32.3c2.1,4.3,3.3,8.7,3.8,13.4
	c0.2,1.9,0.5,3.7,0.7,5.6c0.4,5.1,0.8,10.2,1.2,15.3c-6.7-8-12.5-16.1-13.4-26.8c-0.6-7.2-2.8-14.1-5.2-20.9c-0.3-0.8-0.4-2.2-1.6-2
	c-1.4,0.1-1.1,1.6-1.2,2.5C18.3,54.2,18.2,62.1,19,70c0.7,6.3,2.5,12.3,6.3,17.4c3.3,4.6,7.3,8.4,13.4,8.8c1.9,0.1,1.8,1.3,1.8,2.6
	c0.1,6.8,0.3,13.5,0.4,20.3c0,2.4,0.3,4.9-0.5,7.8c-3-3.3-5-6.7-5.8-10.6c-0.9-4.5-2.7-8.5-5-12.4C25.4,97,21,89.9,16.8,82.9
	c-0.4-0.7-0.5-2.1-1.8-1.7c-1.2,0.4-0.7,1.6-0.6,2.5c1.2,10.5,3.7,20.7,8.3,30.3c3.6,7.4,8.4,13.7,16.5,16.7c1.6,0.6,1.6,1.7,1.6,3
	c-0.1,4.2-0.2,8.3-0.5,12.5c-0.1,2.5,0.1,5.1-0.8,8.1c-1.1-2.7-2-5-3-7.1c-1.2-2.7-2.6-5.3-4.9-7.1c-2.5-2-4.3-4.5-5.8-7.3
	c-3.4-5.9-6-12.2-7.9-18.7c-0.9-3-1.7-6-2.6-9c-0.2-0.7-0.4-1.5-1.3-1.5c-1,0.1-1,1-1.1,1.7c-1,12-2.2,24,3.6,35.2
	c1.5,3,2.7,6.1,3.6,9.3c0.9,3.2,2.8,5.5,5.7,7.1c3.6,2,7.3,3.7,11.1,5c2.1,0.7,2.7,1.7,2.5,3.9c-0.7,6.6-1.1,13.3-1.7,19.9
	c-0.2,2.7-0.7,5.4-1.2,8.9c-0.6-1.9-0.9-3.1-1.2-4.3c-2.1-7.3-4.8-14.3-10.1-19.9c-5.5-5.9-9-12.7-11.2-20.4
	c-0.3-1.3,0.1-3.6-1.7-3.4c-1.5,0.1-1.5,2.3-1.7,3.7c-1.3,8.5,0.8,16.4,4.5,23.9c5,10,11.8,18.7,18.8,27.2c1.4,1.7,1.8,3.3,1.5,5.4
	c-1.4,9.8-2.7,19.6-3.9,29.5c-0.2,1.3-1.4,3.5,0.5,3.7c1.7,0.2,1.3-2.3,1.5-3.6c1.2-8.5,2.3-16.9,3.5-25.4c0.2-1.3,0.1-2.7,2.2-2.6
	c6.3,0.2,11.1-3,15.3-7.3c4.9-5,8.6-10.7,11.4-17.1c3.8-8.4,6-17.1,6.6-26.3C72.3,156.9,72.7,155.7,71.4,155.4z M45.6,162
	c6-8.5,12-17,17.5-26.1c-0.2,13.1-10.7,30.6-20.9,36C42.6,168.1,43.6,164.8,45.6,162z M67.2,97.9c-2.5,17.9-9.3,33.2-23.1,44.8
	C50.6,127.3,57.4,112,67.2,97.9z M64.4,64.6c-1.2,14.4-9.2,39.5-20.3,43.5C50.9,93.4,57.5,79.3,64.4,64.6z M56.9,38.9
	c0.5,0.7,0.1,1.5,0,2.2c-1.4,8.7-3.1,17.4-5.3,26c-1.4,5.3-4.3,9.5-8.4,13.5C42.2,64.6,47.8,51.2,56.9,38.9z M37.5,59.4
	c-6.8-13.5-7.5-27.9-6.6-42.7C35.3,30.6,39.2,44.5,37.5,59.4z M36.7,93.8c-3.2-0.5-5.4-2.5-7.4-4.7c-5.1-5.6-7.6-12.3-8.3-19.8
	c-0.5-5.9-0.7-11.7,0.1-17.6c2,4.3,3.3,8.8,3.6,13.4c0.8,10.2,5,18.8,11.1,26.7C36.2,92.3,36.8,92.8,36.7,93.8z M17.5,89
	c5.7,9.2,13,17.6,15.4,28.6c0.8,3.7,3,6.8,4.6,10.1C23.5,118.7,20.4,103.9,17.5,89z M37.1,160c-4.3-1.7-8.6-3.3-12.3-6
	c-1.7-1.3-2.3-3.2-3-5c-1.1-2.9-1.9-6-3.4-8.7c-4.9-9.1-4.7-18.8-3.8-28.7c2,5.4,3.7,10.8,6.2,16c2.5,5.4,5.5,10.4,10,14.6
	c4.7,4.4,6,10.9,7.7,16.8C38.8,160.3,38,160.4,37.1,160z M12.3,152.4c0.8,2,1.4,3.5,2,5c2,5.1,4.8,9.7,8.6,13.7
	c7.3,7.6,9.8,17.4,12.1,27.5C25.1,193.1,10.9,164.3,12.3,152.4z M65.9,178.3c-3.2,8.8-7.8,16.8-14.9,23.1c-3.5,3.1-7.4,5.2-13,5
	c10.6-14.9,22.7-27.8,31.3-43.4C68.9,168.3,67.7,173.4,65.9,178.3z"/>
</svg>
