<?xml version="1.0" encoding="utf-8"?>
<!-- Generator: Adobe Illustrator 25.3.0, SVG Export Plug-In . SVG Version: 6.00 Build 0)  -->
<svg version="1.1" id="Layer_1" xmlns="http://www.w3.org/2000/svg" xmlns:xlink="http://www.w3.org/1999/xlink" x="0px" y="0px"
	 viewBox="0 0 71.8 110.5" style="enable-background:new 0 0 71.8 110.5;" xml:space="preserve">
<path d="M41.5,92.7c1.9-1.9,3.8-3.8,5.8-5.6c2.4-2.3,3.4-4.8,2.8-8.5c-0.7-4,0.1-8.2,2.4-11.8c3-4.5,7.6-4.5,10.2,0.1
	c1,1.7,1.8,2.5,3.8,2.8c2.7,0.3,4.8,1.8,5.2,4.7c0.4,3.1-1,5.7-3.6,7.2c-3.4,1.9-7,3.9-11.1,3.5c-2.9-0.2-4.8,0.8-6.2,3.2
	c-2.3,4.1-5.6,7.4-9.6,9.6c-3,1.7-2.3,4.5-3.2,6.9c-0.7,2.1,0.5,6.4-3.2,5.5c-2.8-0.6-0.6-4-0.3-6.2c1.7-10.3,3.2-20.6,2.4-31.1
	c-0.1-1.7,0-3.4-2.3-4c-2.1-0.6-3.8-0.9-5.5,1.1c-1.2,1.5-7.3,10.6-7.7,12.5c-0.6,2.4-1.6,4.5-4.4,5c-2.7,0.5-4.2-0.9-5-3.2
	c-0.4-1.3-1.3-1.6-2.5-1.5c-1.6,0-3.2,0.1-4.7-0.3c-5.1-1.4-6.4-6.6-2.4-10.3c3.8-3.5,8.3-3.2,13-2.2c6.5,1.5,7.5,1.1,12.2-3.7
	c-2.9-2.8-6.5-4.9-8.9-8.1c-1.1-1.4-2.5-1-3.9-1c-3,0-6,0.1-8.9-0.9c-3.2-1.1-5.3-3.3-5.2-6.6c0.1-2.9,2.3-4.8,5.3-5.2
	c1.9-0.3,3-1,3.4-3.2c0.5-3.3,3-5.1,6.1-4.7c3.2,0.3,5.5,2.5,5.9,5.9c0.4,3,0.2,6-0.7,8.9c-0.7,2.3-0.1,3.9,1.6,5.5
	c3.9,3.7,7.8,7.3,13.7,8.7c-0.3-7-1.5-13.7-3.3-20.1c-1.7-6.1-3.6-12.1-6.1-17.9c-1.2-2.7-2.6-4.2-5.8-4.6
	c-4.1-0.5-7.9-2.3-10.2-6.3c-1.5-2.7-1.7-5.5-0.1-8.1c1.5-2.4,3.7-3.6,6.5-2.5C19,7,19.3,5.4,20.1,4.4c3.1-4.1,5.9-5.2,9.2-3.8
	C32.5,2,34,5.4,33.5,9.8c-0.4,3.6-1.9,6.7-4,9.5c-1.4,1.9-1.4,3.6-0.5,5.7c1.9,4.3,3.6,8.7,5.6,13.5c3.6-5.1,4.5-10.6,5.5-16.1
	c0.3-1.6-1.2-2.5-1.9-3.7c-2-3.3-3.6-6.7-2.9-10.7c0.4-2.4,1.8-4.2,3.9-4.9c2.4-0.8,4,0.7,5,2.6c1,1.9,1.9,2.3,4,1.4
	c2.7-1.1,4.9,0.1,6.5,2.5c1.6,2.4,1.3,4.8-0.4,7c-1.2,1.5-2.7,3-4.5,3.3c-6.8,1.3-7,6.6-7.8,11.8c2.8,0.4,3.9-1.3,4.6-3.2
	c0.9-2.3,2.2-4.2,4-5.8c2.2-2,4.9-2.5,7.5-1.5c2.8,1.1,2.9,3.6,2.1,6c-0.6,1.9,0.7,2.6,1.4,3.7c1.7,2.5,2.2,4.9,0.2,7.4
	c-2.1,2.7-4.8,2.9-7.7,1.8c-1.5-0.5-3.1-1.3-4-2.4c-2.4-3.2-5.5-2.4-8.6-2.2c-0.6,0-1.5,0.3-1.7,0.7c-1.3,3.9-4.9,6.6-3.2,12
	c3.1,9.8,3.7,20.2,3.6,30.5c0,4.7-1,9.5,1.2,14c-0.4,0-0.8,0-1.3,0c0,0,0,0.2,0,0.4C40.7,93,41.1,92.8,41.5,92.7z M29.8,8.9
	c-0.1-2,0.3-4.4-2.3-5.1c-2.7-0.7-4.1,1.1-5,3.3c-0.3,0.7-0.7,1.4-0.9,2.2C21,11.5,20,12,17.8,10.9c-1.5-0.7-3.5-1.2-4.6,0.8
	c-1,1.9,0.6,3.3,1.7,4.5c1.2,1.3,2.5,2.5,4.3,2.9c2.2,0.5,4.6,2,6.6-0.4C28,15.9,29.9,12.8,29.8,8.9z M53.9,76.8
	c1.1,1.5-1.6,4.7,2,4.8c4,0.1,7.8-0.9,11-3.6c0.8-0.7,1-1.5,0.8-2.5c-0.3-1.3-1.2-1.7-2.4-1.9c-1.1-0.2-2.2,0.1-3.2,0.5
	c-2.4,0.9-3.8,0.4-3-2.6c0.2-0.9,0.4-2-0.7-2.5c-1.1-0.5-2.1,0.3-2.9,1.1C53.7,72,53.9,74.4,53.9,76.8z M12.7,54.1
	c1.2-0.6,3,0.4,3.7-1.3c1.2-2.9,2.4-5.9,1.6-9.2c-0.4-1.6-1.2-3.6-3.4-3.2c-2.1,0.3-1.9,2.2-1.9,3.8c0,0.6,0.1,1.3,0.1,1.9
	c0.1,2-0.4,3.2-2.7,2.3c-0.7-0.3-1.5-0.6-2.3-0.6c-1.5-0.2-2.9,0.1-3.4,1.9c-0.5,1.9,0.6,2.6,2.1,3C8.6,53.2,10.6,53.6,12.7,54.1z
	 M18.4,78.3c-0.3-1.6,0.4-3.1-1.1-4.1c-2.5-1.6-9.1-1.8-11.3,0c-1,0.8-2,1.6-1.8,3.1c0.3,1.7,1.7,2.1,3.1,2.6
	c1.4,0.5,2.5-0.2,3.5-0.9c2.3-1.6,4-2.4,4,1.5c0,0.8,0,1.7,1,1.8c1.2,0.2,1.7-0.7,2.1-1.5C18.2,79.9,18.3,78.9,18.4,78.3z M40.1,7.2
	c-0.4,0.7-1.3,1.5-1.3,2.2c0.2,3.1,0.6,6.5,3.3,8.4c2.7,1.9,5-0.4,7.2-1.6c2-1.1,3.2-3.2,1.8-5.1c-1.4-1.9-3.1-0.1-4.3,1
	c-2.3,2-3.8,1.9-4.3-1.5C42.3,9.1,42.2,7.6,40.1,7.2z M56,24.6c-3.8,0.6-5.8,2.7-6.4,6.1c-0.4,2.9,2.1,4,4.1,5.2
	c1.6,0.9,3.4,2.5,4.8-0.1c1.3-2.4,0-3.9-2.3-4.7c-2.2-0.7-2.2-1.9-0.9-3.5C56.1,27,56.5,26.2,56,24.6z"/>
</svg>
