<?xml version="1.0" encoding="utf-8"?>
<!-- Generator: Adobe Illustrator 25.3.0, SVG Export Plug-In . SVG Version: 6.00 Build 0)  -->
<svg version="1.1" id="Layer_1" xmlns="http://www.w3.org/2000/svg" xmlns:xlink="http://www.w3.org/1999/xlink" x="0px" y="0px"
	 viewBox="0 0 111.1 229.2" style="enable-background:new 0 0 111.1 229.2;" xml:space="preserve">
<path d="M56.6,80.4c3.5-1.6,6.2-2.9,9-4c6.4-2.5,13-4.2,19.9-2.8c3.6,0.7,6.7,2.3,9.4,4.9c4.1,4.1,3.3,8.7-2.1,10.8
	C87,91.7,81,91,75,90.3c-5.7-0.7-11.2-2.1-16.6-3.9c-2.3-0.8-3.5-0.6-4,2.1c-1.1,5.5-2.5,10.9-3.6,16.3c-0.7,3.4-1.2,6.8-1.8,10.4
	c1.6,0,2.3-1.1,3.2-1.7c6.6-4.8,13.6-9,21.8-10.7c6.5-1.3,12.5-0.4,17.3,4.7c3.8,4.1,3,7.8-2.1,9.9c-6.1,2.5-12.6,2.8-19.1,3.1
	c-5.9,0.3-11.8,0.4-17.7-0.4c-3-0.4-4.4,0.2-4.7,3.5c-0.7,7.8-1.8,15.7-2.2,23.6c1.7-0.1,2.3-1.4,3.1-2.2
	c5.7-5.4,11.6-10.5,18.7-13.9c5-2.3,10.1-3.7,15.6-2c7.8,2.5,9.5,8.8,3.3,14.1c-10.9,9.4-23.7,13.1-38,10.4
	c-2.9-0.6-3.4,0.1-3.5,2.7c-0.2,8.1-0.8,16.3-0.6,24.4c1.5,0.5,2.1-0.7,2.8-1.4c5.8-5.1,11.9-9.8,19.3-12.3
	c5.6-1.9,11.2-2.1,16.7,0.3c2.9,1.3,5.7,3,5.9,6.6c0.2,3.6-2.4,5.6-5.2,7.2c-4.6,2.7-9.8,3.7-15,4.4c-7.1,1-14.3,0.9-21.4,0.5
	c-2.4-0.2-3.4,0.5-3.3,3.1c0.2,6.7,0,13.3,0.5,20.1c1.9-0.3,2.6-1.7,3.6-2.6c5.4-4.9,10.9-9.5,17.8-12.3c3.9-1.6,7.9-2.4,12.1-0.8
	c5.5,2.1,6.6,6.8,2.4,11c-4.5,4.5-10.2,6.7-16.1,8.4c-5.5,1.6-11.1,2.4-16.9,1.6c-2.1-0.3-2.8,0.3-2.7,2.4c0.3,3.3,0.4,6.7,0.6,10
	c0,0.8,0.3,2-1.1,2c-1,0-1.1-1-1.1-1.8c-0.2-3.4-0.6-6.9-0.6-10.4c0-2-0.8-2.7-2.8-2.8c-7-0.5-14-1.3-20.8-3c-2.8-0.7-5.6-1.7-8.1-3
	c-4.3-2.2-6.2-5.1-5.7-8.5c0.5-3.9,4.2-7.8,8.3-8.7c3.5-0.8,6.9,0,10.1,1.5c6.3,2.9,11.5,7.2,16,12.5c0.6,0.7,1,1.7,2.3,2.2
	c0-6.4,0-12.7,0-19c0-2-1.7-1.7-3-1.8c-7.2-0.6-14.4-1.4-21.5-3.4c-3.2-0.9-6.4-2-9.1-4c-3.6-2.6-4.3-5.7-2.2-9.6
	c2.6-4.8,7.8-7.5,13.5-6.8c7.2,0.8,12.7,4.6,17.3,9.9c1.6,1.8,3,3.9,4.6,6c0.9-1.1,0.5-2.2,0.5-3.2c0.3-6.5,0.4-12.9,0.8-19.4
	c0.2-2.6-0.7-3.5-3.2-3.9c-9.6-1.7-19-4.1-27.8-8.4c-3.2-1.6-6.2-3.5-8.7-6.2c-3.1-3.4-3.9-7.3-2-11.5c1.9-4.3,5.1-7,10-7.2
	c3.8-0.1,7.3,1.2,10.5,3c9.3,5.2,16.3,12.7,21.4,22.3c0.8-1.1,0.7-2.2,0.8-3.2c0.7-6,1.3-12,2.1-17.9c0.3-2.2-0.3-3.2-2.4-3.9
	c-9.2-3-18.2-6.7-26.4-12.1c-2.5-1.7-4.9-3.6-6.8-5.9c-2.2-2.7-3.3-5.7-1.7-9c1.6-3.6,4.5-5.4,8.5-5.6c4.4-0.2,8.4,1.3,12.1,3.5
	c7.9,4.7,14,11,17.5,19.6c0.2,0.4,0.4,0.7,0.9,1.6c0.9-4.2,1.6-7.9,2.4-11.6c0.8-3.7,1.5-7.4,2.5-11.1c0.7-2.4,0.2-3.3-2.2-4.1
	c-7.3-2.2-14.3-5-20.9-9c-2-1.2-3.9-2.6-5.5-4.3c-3.3-3.7-3.1-7.2,0.6-10.5c3.9-3.6,9.3-4.3,14.7-1.7c7.1,3.4,10.9,9.6,13.7,16.6
	c0.5,1.3,0.9,2.7,1.6,4.8c2.1-6.4,4.1-12.1,6.3-17.8c1-2.4,3.6-5.1,2.6-7.3c-0.9-1.9-4.5-1.8-6.9-2.7c-3.8-1.3-7.5-2.8-11.1-4.6
	c-1.8-0.9-3.5-2-5.1-3.2c-4.1-3.1-5.2-6.4-3.5-9.7c2.1-4,7-5.9,11.5-4.3c4,1.4,7,4.2,9.8,7.4c3.3,3.8,5.8,8.1,7.8,13.5
	c2.8-4.4,5-8.6,7.8-12.4c3.4-4.5,3.4-4.6-1.4-7.7c-3.1-2-6-4.2-8.8-6.6c-2.4-2.1-4.5-4.4-5.9-7.2C56,15,55.8,12.4,57.7,10
	c2.1-2.5,4.8-3.1,7.9-2.2c2.4,0.7,4.4,2.1,6.2,3.8c4.3,4.3,7.1,9.4,8.1,15.5c0.1,0.9-0.1,2,0.8,2.9c1.5-0.7,1-2,1-3.1
	c-0.5-6-0.5-12.1,1.4-17.9c2.7-8,8.7-10.8,16.6-7.9c4.6,1.7,6.1,5,4.2,9.6c-1.7,4-4.6,7.1-7.6,10.1c-3.3,3.4-7.1,6.3-11.2,9.7
	c5.2-0.3,9.8-0.6,14.5-0.8c2.6-0.1,5.1,0.2,7.6,1c4.2,1.3,5.1,4.1,2.5,7.7c-1,1.4-2.3,2.4-3.8,3.2c-7.9,4.5-18.8,3-24.8-3.9
	c-2-2.3-2.9-1.7-4.4,0.3c-3,4.2-6,8.5-8.6,13.7c4.7-1.1,8.7-2.5,12.9-3c4.9-0.7,9.8-1.1,14.6,0.3c2.5,0.7,4.7,2,6.3,4.2
	c2.9,3.9,1.8,7.7-2.8,9.3c-5,1.7-10.1,1.4-15.2,0.5c-5.5-0.9-10.8-2.7-15.6-5.8c-1.5-1-2.5-1.3-3.3,0.8c-1.5,3.9-3.1,7.6-4.6,11.5
	C59,72.8,58,76.2,56.6,80.4z M77.5,27.6L77.5,27.6c-0.8-7.6-4.6-13.3-11.1-17.2c-2.3-1.3-4.8-1.3-6.7,0.9c-1.8,2-1.2,4.2,0,6.2
	c4,6.1,10,9.8,16.1,13.5c-1.6-4.5-4.5-7.9-7.5-11.4c-0.6-0.8-2.1-1.6-0.9-2.7c1-0.8,1.7,0.6,2.4,1.3C72.8,20.8,74.6,24.6,77.5,27.6z
	 M85.5,27c5.6-3.8,10.4-8.4,14.5-13.7c1.1-1.4,1.9-3,2.4-4.7c0.4-1.6,0.1-2.9-1-4c-3.4-3.4-10.8-3.1-14,0.6
	c-3.1,3.6-4.9,13.4-3.2,18.4c1.8-3.5,3.9-6.7,6.4-9.5c0.6-0.7,1.3-2,2.4-1.1c1.1,1-0.2,1.7-0.8,2.5c-0.8,1.1-1.8,2-2.5,3.1
	C88,21.2,85.8,23.6,85.5,27L85.5,27z M41,147c0.1-0.1,0.3-0.2,0.4-0.4c-0.3-0.9-0.6-1.9-1.1-2.8c-5-9.3-12.2-16.4-21.6-21.3
	c-2.3-1.2-4.7-1.9-7.4-1.9c-4.2,0-6.8,2.3-8.5,5.9c-1.5,3.5-0.7,6.5,1.8,9.3c2.5,2.8,5.7,4.6,9.1,6.2c7.8,3.5,16,5.6,24.3,7.3
	c0.4,0.1,0.9,0.3,1.1-0.8c-3.4-2.9-6.9-6-10.5-8.9c-2.1-1.7-4.2-3.3-6.3-5c-0.6-0.5-1.4-1.1-0.5-1.9c0.6-0.6,1.2-0.1,1.8,0.2
	c0.5,0.4,1.1,0.8,1.6,1.2C30.6,138.4,35.8,142.7,41,147z M44.8,114.4c0.7-1.2,0.4-2,0.2-2.7c-2.8-10.4-15.7-22-25.9-23.3
	c-3.9-0.5-7,0.9-8.5,3.9c-1.6,3.3-0.2,5.8,2.1,8.1c8.3,8.1,19,11.9,29.6,15.6c0.1,0,0.3-0.2,0.5-0.4c-0.7-1.4-2-2.4-3.1-3.5
	c-3.5-3.3-7.1-6.4-10.9-9.3c-0.8-0.6-2.5-1.1-1.4-2.4c1-1.2,1.9,0.3,2.8,0.9c1.1,0.7,2.1,1.6,3.2,2.4
	C37.4,106.9,41.2,110.4,44.8,114.4z M47.1,150.8c1.1,1.4,2.3,1.4,3.4,1.5c12.7,1.5,24-2.1,34-10c0.7-0.5,1.3-1.3,1.8-2
	c2.2-3,1.8-5.6-1.4-7.6c-3.6-2.2-7.4-2.3-11.3-1.3c-9,2.5-15.9,8.2-22.3,14.7c1.1-0.1,2.1-0.5,3.1-0.8c4.1-1.4,8.2-2.9,12.3-4.2
	c0.9-0.3,2-0.4,3-0.4c0.4,0,0.9,0.2,1,0.7c0.1,0.5-0.2,0.9-0.7,1c-0.6,0.2-1.3,0.3-1.9,0.5C60.8,144.8,54.1,147.8,47.1,150.8z
	 M49.5,183.9c11.2,0.6,22.2,0.7,32.7-4.1c0.9-0.4,1.7-1,2.5-1.7c3-2.6,2.8-5.1-0.4-7.3c-3.4-2.2-7.2-3.1-11.2-2.7
	c-9.3,0.9-16.4,6.2-23.5,12.1c1.5,0.5,2.3-0.2,3.2-0.5c2.8-1,5.7-2,8.6-2.6c0.8-0.1,1.7-0.4,1.9,0.7c0.2,1.1-0.8,1.1-1.5,1.3
	c-0.8,0.2-1.5,0.4-2.3,0.6C56.1,180.8,52.6,181.8,49.5,183.9z M39.3,180.4c-3.6-6.9-8.6-12.2-16-14.9c-4.6-1.7-9.2-1.7-13.2,1.8
	c-4.8,4.3-4.3,8.3,1.4,11.2c4.8,2.4,10.1,3.4,15.4,4.2c4,0.6,7.9,1.2,12.8,1.2c-5.7-3.9-11.2-6.4-16.6-8.7c-2.6-1.1-5.2-2.1-7.7-3.2
	c-0.7-0.3-1.2-0.7-0.8-1.5c0.3-0.6,0.9-0.6,1.5-0.4c0.8,0.3,1.7,0.6,2.5,0.9C25.7,173.7,32.5,177,39.3,180.4z M39.8,210.3
	c0.2-0.3,0.3-0.5,0.5-0.8c-6.1-7.9-12.9-14.9-23.5-16.8c-0.5-0.1-1.1,0-1.7,0c-3.7,0.4-7.1,3.4-7.8,6.8c-0.5,2.8,1,5.2,5,7
	c7.6,3.5,15.7,4.6,23.9,4.9c-4.3-2.3-8.8-4.2-13.1-6.3c-1.5-0.7-4.6-1.1-3.8-2.7c1-2.1,3.2,0.3,4.8,0.9
	C29.4,205.5,34.5,208,39.8,210.3z M53.8,117.5c0.3,1,0.9,1,1.5,1c6.4,0.2,12.7,0.4,19.1-0.2c4.8-0.4,9.6-0.8,14-2.8
	c3.5-1.6,3.9-3.6,1.3-6.5c-3.2-3.5-7.2-4.7-11.8-4.5c-6.7,0.3-12.4,3.3-18,6.6c-1.5,0.9-2.9,1.9-4.4,2.9c4.2-0.5,8.1-1.5,12-2.4
	c1.5-0.3,3.1-0.4,4.6-0.6c0.5,0,1.2,0.1,1.3,0.7c0.2,0.9-0.5,1.1-1.2,1.3c-0.7,0.1-1.3,0.2-2,0.3C64.7,114.3,59.3,115.8,53.8,117.5z
	 M50,81.7c-3.8-4.5-8.4-8-12.9-11.6c-0.6-0.5-1.4-1-0.9-1.9c0.6-0.9,1.4-0.3,2,0.1c0.6,0.4,1.1,0.8,1.6,1.2c3.7,3,7.4,6,11,9
	c-2.1-8.1-5.9-14.9-13.9-18.4c-2.3-1-4.8-1.2-7.2-0.4c-2.7,0.9-5.3,2.4-6,5.3c-0.7,3,1.6,4.7,3.6,6.3C34,76.6,42,79.2,50,81.7z
	 M59.2,84.2c9.2,3.2,18.5,5.3,28.3,4.3c2-0.2,4-0.7,5.7-1.7c2.4-1.4,2.8-3.4,1.1-5.6c-2.2-2.9-5.2-4.6-8.7-5.3
	c-8.7-1.9-16.3,1.2-24.5,5c1.9,0.5,3.1,0.1,4.3,0c5.8-0.5,11.6-0.9,17.3,0.7c1,0.3,2.7,0.5,2.2,1.9c-0.4,1.3-1.7,0.3-2.6,0.1
	C74.5,81.6,66.8,82.7,59.2,84.2z M51,208c3.7-1.6,7.3-3.2,11-4.8c1.5-0.6,3.2-1.1,4.8-1.5c0.7-0.2,1.7-0.4,2,0.6
	c0.4,1.1-0.6,1.2-1.4,1.4c-0.4,0.1-0.9,0.2-1.3,0.3c-6.3,2.1-12.3,5-18.3,8.1c0.5,0.4,0.6,0.6,0.8,0.7c0.3,0.1,0.7,0.1,1,0.1
	c8.7,0.1,16.8-1.8,24.4-6c2.1-1.1,4-2.5,5.5-4.4c2.1-2.7,1.7-4.9-1.4-6.5c-3.2-1.6-6.5-1.3-9.8-0.2C61.4,198.3,55.9,202.8,51,208z
	 M69.5,55c6.6,5.3,21,8,28,5.7c4.3-1.4,4.9-4,1.8-7.1c-0.8-0.9-1.9-1.5-3-2.1c-4.6-2.4-17.5-1.4-22.2,1.3c4.4,0.1,8.8,0.2,13,1.5
	c0.8,0.3,1.9,0.6,1.4,1.8c-0.4,1-1.4,0.4-2.1,0.2C81.1,54.8,75.7,55,69.5,55z M61.5,48.3c-2.9-6.3-6.7-11.8-12.9-15.1
	c-3.9-2.1-7.9-0.9-9.9,2.5c-1.5,2.6-0.5,5.2,3.5,7.9c4.7,3.3,10,5.3,15.4,7.1c1,0.3,2,1.1,3.5,0.6c-1.6-1.9-3.4-3-5.1-4.1
	c-2.7-1.8-5.5-3.4-8.2-5.1c-0.6-0.4-1.2-0.9-0.8-1.6c0.4-0.8,1.1-0.5,1.7-0.2c0.7,0.3,1.4,0.7,2,1.1C54.3,43.7,57.9,46,61.5,48.3z
	 M81.9,35c1.7,2.6,2,2.9,3.7,4c6.3,4.2,16.9,3.7,21.6-1.1c2.5-2.6,2.2-4.7-1-5.4c-7.1-1.6-14.1-0.5-21.1,0.7
	c2.5,1.2,5.1,1.6,7.8,1.9c1.1,0.1,3-0.5,2.8,1.2c-0.2,1.4-2,0.8-3.2,0.8C89,37,85.8,35.8,81.9,35z"/>
</svg>
