<?xml version="1.0" encoding="utf-8"?>
<!-- Generator: Adobe Illustrator 25.3.0, SVG Export Plug-In . SVG Version: 6.00 Build 0)  -->
<svg version="1.1" id="Layer_1" xmlns="http://www.w3.org/2000/svg" xmlns:xlink="http://www.w3.org/1999/xlink" x="0px" y="0px"
	 viewBox="0 0 95.5 203.2" style="enable-background:new 0 0 95.5 203.2;" xml:space="preserve">
<path d="M40.2,153.2c-3.5-9.7-7.6-19.1-10-29.1c-0.2-1-0.9-1.6-2-1.8c-11.5-1.9-18.5-9.6-24.2-19c-0.7-1.1-1.4-2.2-1.9-3.4
	c-0.5-1.1-2.5-1.7-1.9-3.1C1,95.1,3,95.7,4.5,95.7c7.9,0.1,14.2,3.5,20,9.6c0.3-3.7-1.3-6.5-1.8-9.5c-0.2-1.2-1.1-1.4-2.2-1.1
	c-0.6,0.2-1.3,0.3-1.9,0.3c-2.8-0.2-6.8,0.4-6.8-3.5c0-3.5,3.5-4.1,6.6-3.7c1.1,0.2,2.6,0.4,2.3-1.3c-0.3-1.7,0.1-4.2-2.6-4.5
	c-1.3-0.1-2.6,0.1-3.8-0.2c-2.3-0.4-4.9-1.1-4.6-3.9c0.2-2.7,2.6-3.7,5.1-3.3c3.5,0.6,3.8-0.9,3.1-3.7c-0.4-1.5-1-2.1-2.7-1.9
	c-1.7,0.2-3.6,0.2-5.3-0.1c-1.9-0.3-3.4-1.5-3.2-3.6c0.1-2,1.5-3.1,3.6-3.2c0.8,0,1.6,0.1,2.4,0c1.1-0.2,2.8,1.5,3.3-0.5
	c0.3-1.3,0-2.9-0.5-4.2c-0.7-1.9-2.2-0.5-3.3-0.3c-1.5,0.2-2.9,0.2-4.3-0.2c-1.7-0.6-2.8-1.7-2.7-3.6c0.1-2,1.5-2.7,3.3-2.7
	c0.2,0,0.3,0,0.5,0c1.7-0.6,4.3,1.3,5-1.1c0.8-2.7-0.8-4.7-3.2-6.4c-2.7-1.8-3.8-4.7-3.4-8.1c0.2-1.6,0.5-3.5,2.5-3.7
	c1.8-0.2,2.9,1.3,3.3,3c1.1,4,2,8.1,3,12.3c0.6-0.1,1.1,0,1.4-0.3c1.7-1.4,3.5-3.7,5.6-0.9c1.7,2.3,0.7,4.8-1.5,6.3
	c-2.8,1.9-4.7,3.9-2.8,7.4c0.3,0,0.7,0.2,0.9,0.1c1.6-1.1,2.9-3.9,5.2-1.7c2.2,2.2,1.3,4.9-0.8,6.8c-2.3,2.2-4.8,4.1-2.8,7.8
	c1.1,0.4,1.5-0.8,2.2-1.4c1.6-1.1,3.3-2.5,5.2-0.9c2,1.6,1.3,3.8,0.5,5.8c-0.4,1-1.2,2.1-2.1,2.6c-4.9,2.8-4,6.6-2.2,11.1
	c1.5-1.1,2.9-2.3,4.4-3.3c1.3-0.8,2.8-1.2,4.1-0.2c1.5,1.2,1.2,2.9,0.6,4.4c-1,2.5-2.8,4.4-4.9,5.9c-1.8,1.3-2.4,2.5-1.7,4.8
	c1.5,4.7,2.6,9.5,4.3,14.3c1.5-5.6,4.9-9.7,8.5-13.7c0.5-0.6,1-1.5,1.8-1.4c1.2,0.2,1.1,1.4,1.4,2.3c3.2,11.7,2.5,23-4,33.5
	c-0.7,1.1-1.4,2.3-0.8,3.6c2.4,5.7,5,11.4,7.9,17c1.6-6.6,1.5-13.1,1.7-19.6c0.3-10.6,0.4-21.3,0.7-31.9c0.1-3-0.5-5.5-2.7-7.9
	c-6.2-6.6-7.6-15-8.7-23.6c-0.6-4.7,0.1-9.7-2.9-14c-0.5-0.7-0.4-1.6,0.3-2.2c1.4-1.1,2.4-0.2,3.4,0.7c4.3,3.8,7.5,8.3,10,13.5
	c0.5,1.1,0.4,2.6,2.5,3.6c0.3-7.7,0.7-15.2,1-22.6c0.1-1.4-0.6-2-2-2.1c-1.3-0.1-2.6-0.4-3.8-0.8c-1.7-0.6-3.4-1.5-3-3.8
	c0.4-2.2,2.3-2.4,4.2-2.5c0.6,0,1.3,0.2,1.9,0.2c1.3,0.1,3,1.4,3.4-1c0.4-2.4-1.3-2.5-3-2.7c-1.7-0.1-3.1-0.9-4.4-1.9
	c-1.9-1.4-3.5-3.2-2.4-5.7c1.1-2.8,3.6-2.2,5.8-1.6c1.2,0.3,2.4,0.9,3.5,1.4c1.7-5.1,1.7-5.1-3-6.8c-4.6-1.8-7.2-4.9-5.6-7
	c2.9-3.9,6-0.6,9.2,0.5c1.1-2.8,0.5-5.3-0.6-7.8c-1.1-2.4-1.7-4.9-1.3-7.5C51,1.8,51.5,0.2,53.5,0c1.9-0.2,3,1.1,3.6,2.7
	c1.2,3.2,1.9,6.8,0.2,9.8c-1.5,2.5-1.1,4.8-1,7.8c1.8-1.1,3.2-2.1,4.7-2.8c1-0.5,2.2-0.8,3.2,0.1c0.9,0.9,0.7,2.1,0.4,3.2
	c-0.7,2.6-2.6,4-4.8,5.1c-1,0.5-2.3,0.3-3,1.3c-0.6,0.8-0.8,1.8-0.2,2.7c0.7,1,1.4,0.2,2-0.2c1.6-0.9,3.4-1.9,4.7,0.1
	c1.2,2,0.6,4.2-1.2,5.7c-1.4,1.3-3.1,2.2-4.8,3.2c-1.3,0.8-1.8,2.1-1.2,3.3c0.5,1.1,1.6,0.3,2.5,0.1c1.1-0.3,2.2-0.6,3.3-0.6
	c2.9,0.1,4,2.3,2.2,4.6c-0.9,1.2-2.3,2.6-3.7,3c-4.3,1.2-5.2,4.1-5.1,8c0.1,3.3-0.3,6.6-0.1,10c2.5-3.1,4.6-6.3,7.6-8.7
	c1-0.8,1.9-1.9,3.4-1.2c1.2,0.6,1,1.9,1.1,3c1.8,11.7-1.7,21.4-11.1,28.7c-2.9,2.3-3.8,4.7-3.7,8.2c0.2,7.5,0.1,15,0.1,23.5
	c3.1-3.3,4.6-6.5,6.3-9.5c3.2-5.6,6.3-11.3,9.5-16.8c1.2-2,1.6-3.5-1-4.5c-0.6-0.2-1.1-0.7-1.5-1.2c-1.6-2-3-4.4-1.1-6.5
	c1.9-2.1,4.1-0.5,6,0.8c0.6,0.4,1.1,1.1,1.7,1.6c1.7-1,1.7-2.8,2.6-4.1c1.2-1.8,1.2-3.3-0.9-4.4c-0.1-0.1-0.3-0.2-0.4-0.3
	c-2.7-2.1-6.4-4.6-3.6-8.1c2.7-3.4,5.7-0.1,8.1,2c0.2,0.2,0.6,0.2,0.9,0.3c2.2-3.2,2.6-6.1-1.2-8.5c-0.9-0.5-1.5-1.7-1.9-2.8
	c-0.6-1.5-1.1-3.3,0.5-4.4c1.3-0.9,2.7-0.2,4.1,0.5c1.1,0.5,1.7,3.1,3.4,1.4c1.2-1.1,1.1-2.8,0.4-4.5c-1.4-3-1-6,1-8.7
	c1.1-1.5,2.6-2.8,4.5-2c2.1,0.9,2.4,2.9,2,4.9c-0.5,2.6-2,4.7-3.4,6.9c-1.3,2-2.2,4.2-2.6,6.9c2-0.9,3.7-1.7,5.5-2.3
	c1.1-0.4,2.3-0.4,3.2,0.5c1,1.1,0.9,2.4,0.3,3.6c-1.3,2.9-3.6,5-6.6,5c-4.4,0-5.8,2.3-6.1,6.1c1.6,0.5,2.7-0.7,4-1.1
	c1.4-0.4,3-1.1,4,0.4c0.9,1.4,0,2.8-0.8,4c-1.8,2.7-4.5,3.6-7.5,3.8c-2.4,0.1-4.1,0.8-4.3,3.4c0.8,0.9,1.6,0.2,2.3,0
	c1.7-0.3,3.2-0.5,4.2,1.4c1,1.9,0.1,3.4-1.1,4.8c-1.3,1.6-3.3,2.6-5.1,2.3c-5.3-0.7-6.3,3-8.1,7.7c5.6-2.8,10.4-5.1,15.2-7.5
	c1.3-0.6,2.5-2,3.9-0.8c1.2,1.1-0.1,2.4-0.3,3.6c-1.7,8.6-6.7,14.5-14.8,17.7c-2.8,1.1-5.6,2.5-8.5,3.5c-9.6,3.4-12.7,7.8-13.2,17.9
	c-1,21.4-2.1,42.8-3.2,64.3c-0.1,1.6,0.1,3.3-1.4,4.8c-1.3-1.6-1.3-3.5-1.4-5.3c-0.6-9.7-0.5-19.3,0.2-29c0.2-2.1,0.2-3.2-2.5-3.3
	c-7.8-0.3-13.7-4.3-18-10.6c-1.3-1.9-2.7-3.6-4-5.4c-0.6-0.8-1.5-1.4-0.9-2.5c0.6-1,1.7-0.8,2.6-0.6c5.3,0.8,10.3,2.6,14.6,5.9
	c0.6,0.5,1.2,1.1,2.1,0.7c0.1,0.2,0.2,0.3,0.3,0.5c0-0.1,0-0.3,0-0.3C40.5,153.2,40.4,153.2,40.2,153.2z M40.3,157.9
	c-0.1,0.9,0.7,0.8,1.2,1.2c0.1-0.2,0.3-0.4,0.3-0.4C41.4,158.2,40.9,157.8,40.3,157.9c-2-3.1-5.4-4.4-8.6-5.9
	c-0.4-0.1-0.7-0.3-1.1-0.4c0,0.1,0,0.3,0,0.4c0.4,0.3,0.8,0.3,1.1-0.1C33.5,155.4,36.9,156.6,40.3,157.9z M76.9,99.7
	c-4.8,1.7-9.6,3.5-11.8,8.6c4.1-2.7,8.6-4.7,12-8.4c1-0.1,1.8-0.3,2.1-1.5C78.2,98.4,77.4,98.9,76.9,99.7z M58.5,82.3
	c5-3.8,6.8-8.8,5.7-14.9c-1.9,5.1-3.3,10.3-5.8,15.1c0.1,0,0.2,0,0.2,0.1c-0.1,0-0.1,0-0.2,0.1C58.4,82.5,58.4,82.4,58.5,82.3z
	 M41.5,74.3l-0.2,0.2l0.3-0.1c-0.9,6.2,1.6,11.4,4.5,16.5C45.6,85.1,43.7,79.7,41.5,74.3z M9.9,100.4l0.1-0.2l-0.2,0.1
	c6.6,3.9,11.6,9.7,18,15.7c-2.6-5.8-5.5-9.8-9.7-12.6C15.6,101.7,13.3,99.3,9.9,100.4z M84.8,98c-7.3,5.2-14.6,10.3-21.9,15.5
	c5.9-1.3,11.2-3.3,15.9-6.8C81.8,104.5,84.6,102,84.8,98c0.4,0,0.8,0,0.3-0.6C85,97.6,84.9,97.8,84.8,98z M5.9,101
	c4.7,8.3,10.9,15,20.3,17.8C20.1,112.1,14,105.5,5.9,101z M49.2,88.3c0.1-8.5-2.8-16.1-8.3-22.6C43.3,73.3,46.7,80.6,49.2,88.3z
	 M54.9,84.4c2.5-6.9,5-13.8,7.5-20.7C56.5,69.4,54.6,76.6,54.9,84.4z M38.4,109.2c-4.2,6.3-4.7,13-2.4,20.1
	C36.7,122.6,37.6,115.9,38.4,109.2z M38.6,128.9c3-6,4.7-12.1,2.1-18.6C40,116.5,39.3,122.7,38.6,128.9z M52.6,36.4
	c-1.1-2.2-3.1-3-5.3-3.3c-0.8-0.1-2.4-0.2-1.9,1.2c0.9,2.3,3.2,2.8,5.4,3.3C51.7,37.7,52.4,37.4,52.6,36.4z M30,154.6
	c2.4,3.3,5.2,6,9.6,6.4C36.5,158.9,33.2,156.7,30,154.6z M75.4,89.9c2.5-0.6,4.9-0.3,6.3-2.6c0.2-0.2-0.1-1.1-0.3-1.2
	c-2.3-0.5-3.7,1.2-5.4,2.3C75.8,88.6,75.8,89,75.4,89.9z M53.9,2.5c-1,3.6-0.5,5.7,1.2,8.8C55.7,7.9,55.4,5.7,53.9,2.5z M93.2,60.2
	c-3.5,0.5-5.2,2-7.5,3.8C89.3,64.6,91,63.3,93.2,60.2z M31.7,88.2c-4.3,1.7-4.8,2.4-4.8,6.6C28.7,92.5,31.2,91.4,31.7,88.2z
	 M23.4,77.7c1.9-1.5,3.7-2.5,4-4.8c0-0.2-0.7-0.8-0.9-0.8C24.4,73.2,22.9,74.6,23.4,77.7z M62.6,44.1c-3.3-0.1-5.5,0.7-7.2,4
	C58.6,47.6,60.7,46.6,62.6,44.1z M45.6,19.5c2.2,2.5,4.1,3.4,6.9,3.6C51,20.3,49.2,19.2,45.6,19.5z M16.8,65.5
	c-2.7-0.9-4.9-1.8-7.4,0.1C11.9,66.7,14,67,16.8,65.5z M78.5,74.8c-1.5-3-2.3-5.1-6.1-4.7C73.9,72.3,75.1,74,78.5,74.8z M23.4,58.9
	c-2,1.5-3.3,2.9-3.3,6.4C21.9,62.9,24.3,62.2,23.4,58.9z M56.7,35.8c2-0.8,4.1-1.5,4.8-4.6C58.6,32,57.2,33.5,56.7,35.8z M19.4,78.6
	c-2.7-1.5-4.4-2.5-7.1-0.1C14.8,78.6,16.5,79.7,19.4,78.6z M62.7,19.5c-2.8,0.8-4.2,2.1-5.5,4.8C60.1,23.5,61.7,22.4,62.7,19.5z
	 M21.9,91.7c-2.8-1.7-4.8-2.4-7-0.1C17.1,92.3,19,92.5,21.9,91.7z M71,89.1c0.8-2.8-0.6-3.9-2.4-4.7c-0.3-0.1-1.1,0.3-1.1,0.4
	C67.3,87.1,68.9,88.1,71,89.1z M82.5,61.5c-1.1-3.3-1.1-3.3-4-3.8C79.6,59.3,80.4,60.9,82.5,61.5z M87.4,74.6
	c-2.3,0.3-4.3,1.1-6.6,3.3C83.9,77.4,86.2,77.1,87.4,74.6z M7.5,53.9c2.8,0.5,4.4,1,6.1-0.2C11.8,52.4,10.3,52.5,7.5,53.9z
	 M87.1,49.4c1.7-1.2,2.6-2.6,2-4.9C86.9,45.6,86.3,47.1,87.1,49.4z M10.8,35c-0.4,0-0.8,0.1-1.2,0.1c0,1.7,0.2,3.4,2.4,5.4
	C11.5,38.2,11.2,36.6,10.8,35z M18,50.7c2.2-0.8,3.3-1.6,3.4-3.8C19.3,47.5,18.8,48.7,18,50.7z M51.6,47.2c-1.7-1-3.2-1.8-5.4-0.2
	C48.3,47.6,49.8,48.1,51.6,47.2z"/>
</svg>
