<?xml version="1.0" encoding="utf-8"?>
<!-- Generator: Adobe Illustrator 25.3.0, SVG Export Plug-In . SVG Version: 6.00 Build 0)  -->
<svg version="1.1" id="Layer_1" xmlns="http://www.w3.org/2000/svg" xmlns:xlink="http://www.w3.org/1999/xlink" x="0px" y="0px"
	 viewBox="0 0 179.5 250.4" style="enable-background:new 0 0 179.5 250.4;" xml:space="preserve">
<path d="M75.6,175.7c-1.2-5.6-3.8-11.1-1.9-17.1c0.5-1.5,0.4-3.7,2.2-4c2-0.3,2.9,1.8,3.7,3.3c1.9,3.7,2.1,7.7,1.4,11.8
	c-1.4,9.8-1.3,9.8,7.8,13.8c0.9,0.4,1.8,0.6,3.6,1.3c-1-7,1-13.9-4.5-19.5c-0.9-0.9-1.6-2.1-2.1-3.3c-2.4-5.7-6-9.3-12.8-10.1
	c-5.1-0.6-9.6-3.9-12.1-8.9c-0.6-1.2-1.8-2.6-0.7-4c1-1.2,2.4-0.3,3.7-0.1c4.8,0.6,8.1,3.7,11.9,6.3c0,0,0.2,0.2,0.2,0.2l-0.1-0.2
	c-0.4-0.9-1-1.8-1.1-2.7c-1.5-8.9-7.8-15.3-11.6-23.1c-0.3-0.6-0.7-1.1-0.9-1.7c-0.4-1.4-0.6-2.9,0.6-4.1c0.4-0.4,1.2-0.5,1.7-0.4
	c1.6,0.6,2.2,2.1,2.1,3.5c-0.1,2.6-0.3,5.1,1.1,7.5c0.6,1,1,2,3.1,3c-1.5-6.6-1.1-12.7-0.3-18.8c0.3-2.2-1.3-2.1-2.8-2.2
	c-6.7-0.5-10.6-5.3-10.2-12.5c2.6,0,3.2,3.1,5.5,3.5c0,0-0.1,0.1-0.1,0.1c0-0.2,0-0.3,0-0.5c-0.2-2.8-1.7-6.6,1.2-7.9
	c2.5-1.1,4.5,2.3,6.4,4.3c2.1-1.7,2.5-6.4,5.6-5c2.6,1.1,2.3,5,1.9,8.5c2.4-2,4.5-3.7,7.1-4.5c2.5-0.8,3,0.1,2.3,2.3
	c-0.9,2.9-2.9,5-4.7,7.3c0.2,0.3,0.3,0.6,0.5,0.8c1.5,1.3,4.8,2.1,3.5,4.3c-1.6,2.7-4.9,2.8-7.9,1.6c-6.3-2.5-6.4-2.5-6.8,4.2
	c-0.7,10,0.7,19.8,4.5,29.1c0.8,2,1.9,3.9,3.3,5.7c0.4-5.3,0.2-10.5,3.2-15.1c0.8-1.2,1.3-3.1,2.9-3c1.8,0.2,2.1,2.2,2.6,3.7
	c1.7,4.7-0.1,8.9-1.8,13.1c-3.4,8.5-2.9,11.3,4,18.5c0-3.4,0.1-6.5,0-9.7c-1-20.9-2.2-41.9,2.1-62.7c1.6-7.8-6.3-17.1-14.3-17.7
	c-4.8-0.3-9.3-1.5-12.7-5.3c-0.9-1-2.4-2.2-1.6-3.7c0.7-1.3,2.3-0.7,3.6-0.8c3.2-0.4,5.8,1.8,8.9,2.1c0.1,0.2,0.1,0.3,0.2,0.5
	c0-0.1,0-0.2,0-0.2c-0.1-0.1-0.2-0.1-0.3-0.2c-1.9-7.4-8.7-11.4-12.6-17.5c-0.4-0.7-1.2-1.2-1.5-1.9c-0.7-1.4-1.2-3.1,0.6-3.8
	c1.8-0.8,2.7,0.9,3,2.3c0.5,2.9,1.2,5.7,4.2,7.7c-0.7-4-1.4-7.8-2-11.5c-0.4-2.6-1.7-3.1-4.1-2.4c-7.6,2.3-12.1,0.1-15.7-7.8
	c2.9-1.2,5,2.1,7.7,1.4c0,0,0.1,0.2,0.1,0.2l-0.1-0.1c-2.3-2.6-5.2-6-3.1-8.8c2.1-2.8,5.5,0.7,8.4,1.5c1-2.5-0.2-7.1,3.3-7.1
	c3.4,0,4.2,4.4,5.2,7.4c1.4-1.9,2.5-3.9,4-5.5c1-1.1,1.9-3.2,3.8-2.2c1.6,0.9,1,3,0.7,4.5c-0.4,2.4-1.2,4.7-1.9,7
	c0.1,0.1,0.2,0.2,0.4,0.2c2.2,0.5,6,0,5.8,2.8c-0.2,3.3-3.7,4.5-7.1,4.7c-6.1,0.2-6.2,0.2-5,6.5c1.7,8.9,4,17.7,10.9,24.3
	c0.1,0.1,0.2,0.1,0.3,0.2c-0.1,0-0.3-0.1-0.4-0.1c0.1-4.2-1.2-8.4,0.7-12.5c0.5-1,0.7-2.5,1.9-2.6c1.5-0.2,2.1,1.3,2.7,2.4
	c1.6,2.8,1.7,5.9,1.2,9C86.5,75.7,86.5,75.7,94,84c2-4.8,1.6-10.1,3.7-14.5c4.5-9.2,1.4-17.5-1.9-25.9c-0.2-0.5-0.5-0.9-0.6-1.3
	c-0.6-1.6-1-3.1,0.2-4.6c0.4-0.6,1.1-0.8,1.7-0.4c1.8,1.1,2.1,2.9,1.8,4.7c-0.7,4.8,1.4,8.7,3.3,13.4c3.4-5.4,6.4-10.3,10.2-14.7
	c2.2-2.6-1.1-3.5-2.5-4.3c-4.6-2.6-7.9-6.2-9.7-11.2c-0.4-1-1.4-2.2-0.5-3.1c1.3-1.2,2.3,0.3,3.4,0.9c1.4,0.8,2.6,1.8,4.5,3.1
	c-1.1-5.2-0.6-9.8,1.1-14.2c0.9-2.4,2-2.3,3.2-0.3c2.7,4.7,4.8,9.6,5.2,16.6c2.6-6.6,5.8-11.1,10.6-14.3c0.9-0.6,1.8-1.9,3-1.1
	c1.2,0.8,0.5,2.1,0.3,3.1c-0.7,4.2-1.4,8.3-4.1,12.7c4.4-1.4,7.9-3.6,12-3.4c1.5,0.1,3.6-0.8,4.4,1c0.7,1.7-1,2.9-1.9,4.2
	c-2.9,4.1-7.2,5.9-11.1,7c1.5,2,3.2,4,4.8,6.2c0.6,0.9,1.8,1.7,1.1,2.9c-0.6,1.1-2,0.9-3.1,0.9c-4.1,0-7.5-1.6-10.7-4
	c-5.6-4.2-6.4-4-10.7,1.2c-6.8,8.4-11.3,19-12.7,30.4c4.2-5.1,9.7-7.5,13.4-12.1c0.2-0.3,0.4-0.5,0.7-0.7c1.6-1.2,3.3-2.2,5.4-1.7
	c0.9,0.2,1.5,0.9,1.2,1.8c-0.5,2.3-2.4,3.3-4.4,4.1c-10,3.5-17.6,9.1-19.2,20.6c-1.3,9.3-3.1,18.5-3.7,28.1
	c6-3.2,11.4-14.2,10.6-21.2c0-0.3-0.2-0.6-0.2-0.9c-0.4-2.4,0.1-4.6,2.3-5.9c0.7-0.4,1.6-0.2,2.2,0.5c1.7,2.2,0.8,4.3-0.5,6.3
	c-3.2,5-2.8,11.3-6.9,17c5.9-0.7,10.4-1.3,12.7-6.6c0.7-1.7,2.1-2.9,4.1-2.9c1.1,0,1.9,0.7,1.9,1.8c0,2.2-1.3,3.8-3.2,4.5
	c-4.9,1.9-9.4,4.8-14.9,5.6c-4.5,0.6-8.4,4.2-8.4,8.7c-0.1,12.6,0.7,25.3,1.1,38.4c3.2-0.8,4.7-3.1,6.7-4.4c3.2-2,0.8-4.6,0.7-7
	c0-7,3.3-12.6,7.5-19.1c2.3,5.8,1.7,10.8,1.1,16.4c2.5-2.6,4.6-4.6,6.4-6.9c2.2-2.6,1.8-5.6-0.3-7.9c-2.2-2.3-3.1-5.3-4.7-7.9
	c-1-1.6-1.2-3.4,0.1-4.9c0.3-0.4,1.3-0.5,1.7-0.3c1.7,0.9,1.8,2.6,1.5,4.3c-0.5,2.6,0.3,4.7,2.4,6.5c1.5-2.6,1.7-5.1,1.6-7.7
	c0-1.7,0.6-3.2,2.2-4.1c0.6-0.3,1.3-0.1,1.7,0.5c1.1,1.6,0.5,3.2-0.4,4.5c-2.4,3.4-2.7,7.1-2.5,12c7.5-8.8,10.5-18.8,14.1-28.4
	c3.5-9.1,3-9.3-6.5-11.3c-1.4-0.3-2.8-0.9-4-1.6c-3.4-1.8-7.2-8.1-5.6-9.4c2.9-2.2,5.3,1.3,8.5,1.4c-1.3-3.8-2.9-7.4-2.7-11.5
	c0.1-1.4-0.5-3.3,1-4c1.7-0.8,2.5,1,3.5,1.9c3.7,3.5,6.3,7.8,7.7,14.3c0.8-7.1,2.1-12.4,5.8-16.8c0.8-1,1.4-2.7,2.8-2.3
	c1.6,0.4,1.5,2.3,1.5,3.7c0.3,3.9,0.7,7.8-0.7,12.4c4-3.1,7.4-5.9,11.8-7c0.9-0.2,1.9-0.9,2.7-0.2c1.2,1,0.1,2.2-0.3,3
	c-2.4,4.4-4.3,9.2-9.9,11.7c4.8,1.3,8.8,2.3,12.8,3.4c0.9,0.2,2.1,0.4,2,1.6c-0.1,0.6-1,1.2-1.7,1.6c-5.1,2.7-10.3,3.5-15.9,1.3
	c-6.5-2.6-7.5-1.8-9.7,4.7c-1.4,4.5-3.2,8.8-4.8,13.3c0,0-0.1-0.1-0.1-0.1c3.8-1.8,7.8-3.1,10.8-6.2c0.2-0.2,0.5-0.4,0.8-0.6
	c1.9-1.1,3.9-1.7,6-0.7c0.8,0.4,1.2,1.2,0.8,2c-1,2.2-3.1,3.2-5.1,3.1c-3.5-0.3-6.2,1.2-9.1,2.7c-3.9,2.1-6.7,4.8-8.6,9.2
	c-2.6,6.2-6.8,11.8-11.4,16.8c-1.4,1.5-3.3,2.7-3.6,5c0,0-0.2,0.1-0.2,0.1l0.1-0.2c4.8-0.2,9.6-0.9,14.5,1.1
	c-5.3,3.5-10.5,7.4-17.3,5.7c-2.6-0.7-4.1,0.3-6.1,1.5c-8.6,4.9-11.3,12.1-9,21.5c0.4,1.6,0.3,3.2,0.4,4.8c0.1,2.4,0.1,4.5,3.8,3.6
	c3-0.7,4.4-1.4,3.6-5.1c-1.5-6.8-0.1-13.2,4.7-18.6c1.9-2.1,3-2,3.8,1c1.9,6.7-0.4,12.8-3.3,19.8c5.6-1.5,10-3.7,14.5-6
	c9.5-4.8,9.6-12.8,8.4-21.3c-0.4-3-1-5.8,1.4-8.1c0.8-0.8,1.9-0.9,2.5,0.1c1.8,2.9,0.4,5.4-0.9,8.2c-1.6,3.4-1.3,7.2-0.6,11.6
	c6-5.1,10.4-10.7,14.6-16.3c2.1-2.8,0.4-3.9-2.5-4.3c-4.8-0.7-8.6-4.7-9.4-9.2c-0.5-2.5,0.4-3,2.6-2.1c2.7,1.2,5,2.9,7,5.2
	c-0.3-4-1.1-7.8,0.1-11.6c0.3-0.9,0.1-2.1,1.2-2.4c1.4-0.4,1.9,1,2.5,1.8c1.4,1.8,2.3,3.9,2.9,6.2c0.2-0.2,0.6-0.3,0.7-0.5
	c1.7-3.5,5.1-8.3,7.8-6.6c4.1,2.6,0,7.5-0.9,11.3c-0.4,0.3-0.7,0.7-1.1,1c-0.1,0-0.1,0.1-0.2,0.1c0.1,0,0.2-0.1,0.3-0.1
	c0.3-0.3,0.6-0.7,1-1c2.2-1,4.3-2.1,6.6-2.9c1.3-0.4,3.1-0.8,4,0.7c0.8,1.3-0.5,2.4-1.1,3.5c-1.9,2.9-4.6,4.9-8.2,6.5
	c1.1,0.8,1.8,1.2,2.4,1.7c1.5,1.5,4.6,2.8,3.3,5.2c-1.1,2-4.2,1-6.4,0.5c-1.1-0.2-2.4-0.5-3.1-1.2c-4.3-4.7-6.5-2.2-9.5,1.8
	c-4.3,5.8-9.5,11-14.3,16.5c6.4,2.3,19-1.2,23.4-6.5c0.5-0.6,0.8-1.4,1.4-2c1.3-1.3,2.9-2.1,4.8-1.6c1,0.3,1.7,1.1,1.4,2.2
	c-0.5,1.9-1.9,3.3-3.7,3.5c-6.5,0.8-11.2,5.9-18.6,6.9c4.7,4,8.5,6.8,14.1,4.7c1.8-0.7,3.6-0.4,5,1c0.8,0.8,0.7,1.8-0.1,2.6
	c-1.4,1.4-3.4,1.7-5,0.9c-4.9-2.3-10.6-3-14.8-7c-2.8-2.7-11-2.6-14.1-0.1c-3.8,3-7.9,5.7-13.2,7.7c5.1,2,9.8,3.3,13.2,7
	c0.7,0.8,2.1,1.5,1.7,2.8c-0.4,1.6-2,1.3-3.3,1.4c-7,0.6-13.4-1.2-18.4-6c-3.4-3.3-6.5-1-9.4,0c-2.8,1-1,4-0.6,6
	c2.7,15.1,9.7,28.5,17.5,41.5c0.8,1.2,1.5,2.5,2.1,3.8c0.1,0.2-0.2,0.6-0.3,1c-1.9,0.1-2.2-1.6-2.9-2.7c-9.2-14.7-16.9-30-19.3-47.5
	c-0.2-1.8-0.9-2.9-2.6-3.7c-3.5-1.6-7.1-3.3-10.4-5.3c-2.2-1.3-3.5-0.2-5.3,0.6c-6.7,3.2-13.4,3.6-20.1-0.1
	c-2.8-1.6-2.8-2.7,0.1-4.2c5.4-2.7,11-2.3,17.6-1.4c-2.5-3.1-4.4-5.7-6.6-8.2c-2-2.2-4.6-3.8-6.2-6.2c-4.6-6.7-11-9.4-18.8-10.1
	c-5.2-0.5-10.2-2.4-13.6-6.7c-1-1.3-2.9-2.8-1.8-4.6c0.9-1.6,3-1,4.5-0.9c7.1,0.5,12.8,4.3,18.7,8.2c-5.8-7.8-5-18.7-13-25.5
	c-2.2-1.8-4-3.6-7-3.6c-5.7,0-9.7-4.2-14.9-5.7c-2.2-0.6-3.8-2.6-3.8-5.2c0-1.1,0.6-1.8,1.8-2c2.8-0.3,5.2,1.1,5.9,3.4
	c2,6.3,7.1,6.5,13.4,7.8c-4.3-6.6-4.2-13.9-8.6-19.3c-0.1-0.1-0.2-0.3-0.2-0.4c-0.8-2-1.4-4-0.2-6.1c0.6-1,1.5-1.3,2.5-0.8
	c2.4,1.1,3.5,3.6,3,5.6c-1.3,5.2,0.9,9.6,2.5,14.1c1.7,5,4.9,9,9.8,13.3c-1.1-3.2-1.7-5.5-2.6-7.6c-4.2-9.6-3.9-19.7-3.4-29.7
	c0.2-4.7-1.5-5.6-5.5-5.1c-3.7,0.4-7.5,0.6-10.7-2.1c-1.4-1.2-3-2.5-2.5-4.4c0.6-2,2.8-1.1,4.3-1.3c0.6-0.1,1.3-0.2,1.9-0.3
	c0,0-0.1,0.1-0.1,0.1c-1.6-2-3-4.2-3.5-6.7c-0.4-1.7-1.3-3.7,0.2-4.9c1.5-1.2,3.4-0.1,5,0.4c2.6,0.8,3.8,3.3,6.1,4.5
	c0,0.3,0.1,0.6,0.1,0.9c0.2-0.1,0.3-0.2,0.5-0.3c-0.2-0.2-0.4-0.3-0.6-0.5c0.2-3.4,0.2-6.8,2.3-9.7c2.5-3.4,4-3.3,5.8,0.5
	c0.9,1.9,1.4,3.9,2.1,6.1c1.6-1.5,3.2-3.2,5-4.6c0.9-0.7,2-2,3.4-1.1c1,0.7,0.9,2,1,3.1c0.4,4.7-2,8.7-3.7,12.8c0,0-0.1,0-0.1,0
	c3-0.6,5.8-0.1,8.6,0.9c2.6,0.9,3.1,2.2,0.5,3.9c-3.5,2.4-7.4,3.2-11.6,2.5c-5.5-0.8-6.2-0.3-6.5,5.3c-0.3,5.7-0.3,11.3,0.5,17.6
	c3.3-3,5.4-5.9,4.4-10.2c-0.1-0.3-0.1-0.6-0.1-1c-0.1-1.9,0.3-3.6,2-4.6c0.7-0.5,1.6-0.3,2.2,0.4c1.4,1.5,1.4,3.5,0.6,5
	c-1.8,3.6-3.6,7.3-6.2,10.3c-2.3,2.8-2.9,5.2-1.4,8.4c4.3,9.1,5.1,19.4,10,29.4c1.5-5.8,1.3-11.1,4.7-15.2c1.2-1.4,2.1-4.1,4.2-3.3
	c1.8,0.7,1.6,3.3,1.7,5.3c0.2,5.7-2.5,10.4-5.8,14.6c-2.2,2.7-2.1,4.7-0.2,7.2c2,2.6,3.6,5.4,5.8,7.8
	C63.9,163.7,69.9,169.6,75.6,175.7c0.1-0.1,0.3,0.1,0.3,0.1L75.6,175.7z M59.9,98.8l0.1-0.2L59.9,98.8c1.6,2.8,2.7,6.2,8.1,5.3
	C64.6,102.3,63.1,99.5,59.9,98.8z M52.4,35.1L52.3,35L52.4,35.1c3.7,5.1,6.4,6,10.5,3C59,37.8,55.8,36.3,52.4,35.1z M48.4,151.3
	L48.4,151.3c-5.4-6.3-12-9.8-21.3-9.7C32.5,150.1,40.8,149.9,48.4,151.3z M141.2,27c-7.2-0.7-12.4,2.9-17.7,5.8
	c-0.9,0.5-2.4,0.8-1.7,2.4c0.5,1.1,1.6,1.7,2.8,1.5C131,35.5,137.4,34.2,141.2,27z M128.7,15.5c-5.8,3.4-8.2,8.7-10.3,14.2
	c-0.4,0.9-0.9,1.8,0.4,2.5c1,0.5,1.9,0,2.6-0.6C126.3,27.4,128.6,22.2,128.7,15.5z M110.4,13.1c-2.4,5.9-1.6,11.1,0.3,16.3
	c0.4,1.1,0.4,2.8,2.3,2.4c1.6-0.3,1.8-1.6,1.9-2.9C115.2,23.3,114,18.1,110.4,13.1z M124.9,72.2c-1.3,7,2.1,12.1,5.7,17
	c0.5,0.7,1.2,1.2,2,0.6c0.8-0.5,0.8-1.3,0.7-2.1C132.3,81.7,130.3,76.2,124.9,72.2z M19.7,62.8c-0.5,5.5,3.6,11.7,8.5,13.3
	c1.9,0.6,2.8-0.4,2.1-1.8C28.1,69.5,26.4,64.1,19.7,62.8z M142.5,69.8c-4.9,4.9-5.1,10.6-5.9,16.1c-0.1,1-0.7,2.4,1,2.8
	c1.4,0.3,2-0.6,2.6-1.7C143.2,81.8,144.2,76.3,142.5,69.8z M156.5,77.8c-7.4,2-12.5,6.8-13.9,12.8C149.5,89.1,154.1,85,156.5,77.8z
	 M36.8,64.6c-0.4-3,0.1-7.7-2.6-7.7c-3.3,0-3.5,4.6-3.1,7.5c0.3,3-0.1,8.2,3,8.2C37.2,72.6,36.2,67.4,36.8,64.6z M124.8,191.9
	c-5.1-5.8-12.1-7.8-17.7-5.5C112.1,191.4,116.6,192.8,124.8,191.9z M74.8,179.5c-6.7-2.7-12.9-2.8-19.5,0.1
	C61.2,183.4,68.9,183.4,74.8,179.5z M104.4,182c4.2-5.9,5.1-12,4.1-19.1C103.3,167.7,101.8,175.2,104.4,182z M46.1,59.5
	c-5.5,3.2-6.5,8.3-8,13.2c-0.3,0.9,0.2,1.6,1,1.9c0.9,0.4,1.5-0.4,2-0.9C44.8,69.9,47.2,65.7,46.1,59.5z M62.3,140.9
	c2.1,6.2,8.5,10.3,14.9,9.6C73.3,145.4,69.2,141.2,62.3,140.9z M160.3,95.3c-5.6-2.1-10.6-3-15.8-2.6c-0.8,0.1-1.7,0-1.9,1
	c-0.2,0.9,0.5,1.4,1.3,1.7C149.1,97.7,154.3,98.7,160.3,95.3z M107.1,135c-2.9,5.1-6.2,10.1-4.1,17.1
	C108.6,146.8,107.9,140.9,107.1,135z M78.2,175.6c1.4-7.2,2.8-13.1-1.8-19.1C73.6,163.3,75.3,168.9,78.2,175.6z M86.2,132.1
	c-4.2,5.4-5.1,11.5-2.8,18.2C85.7,144.4,89,139.1,86.2,132.1z M56.1,125.2c-4.8,4.2-6.4,9.8-4.8,16.3
	C54.7,136.4,57.8,131.7,56.1,125.2z M65.6,36.3c-2.6-4.3-4.3-7.7-7.8-9.4c-0.9-0.4-1.9-0.8-2.7,0c-0.9,0.8-0.2,1.8,0.2,2.6
	C57,33.3,60.3,34.9,65.6,36.3z M152.2,142.2c4.2-3.2,7.1-7.3,7-13.5C153.1,131.6,153.1,137.1,152.2,142.2z M130.3,92.1
	c-2.7-4.1-6.6-5.8-11.1-7C120.4,91.1,124,93.4,130.3,92.1z M133.8,45.5c-1.8-3.7-4.7-5.3-8-6.3c-1.2-0.4-2.5-0.9-3.3,0.8
	c-0.7,1.5,0.6,2,1.4,2.6C126.7,44.4,129.7,46,133.8,45.5z M66.2,67.3c3.6,4.6,7.8,6.1,13.6,5.7C75.9,68.9,71.9,66.8,66.2,67.3z
	 M70.8,103.2c-0.7-4.9-1.1-8.4-3.8-11.1c-0.5-0.5-1.2-1.2-2.1-0.9c-0.9,0.4-0.7,1.3-0.7,2.1C64.4,97.4,66.9,99.9,70.8,103.2z
	 M84.7,70.8c2.5-6.9,2.4-10.2-0.3-13.7C81.8,61.7,82.9,66,84.7,70.8z M108.1,151.9c5.4,2.1,9.3-0.2,14.3-2.9
	C116.7,148.4,112.4,148.6,108.1,151.9z M52.8,76.1c-3.7-1.4-6.9-1.5-10.2-0.1c-0.8,0.3-1.6,0.8-1.4,1.7c0.1,0.9,1,1.2,1.9,1.2
	C46.4,79,49.8,79.3,52.8,76.1z M167.2,137.5c-4.9,0.4-8.4,2.8-11.2,7.5C161,144.3,164.9,142.2,167.2,137.5z M29,79.1
	c-5.4-3.6-7-4.1-11.8-3.2C20.1,79.8,23.9,80.2,29,79.1z M148.4,142.6c0.9-4.5,2.2-9-1.9-13.4C145.4,134.4,146,138.6,148.4,142.6z
	 M67.2,33.3c1.5-6.7,1.1-8.4-2.7-11.5C63.4,26,64.3,29.4,67.2,33.3z M73.8,101.9c2-4.5,4.1-7.6,1.7-11.5
	C72.6,93.7,72.4,94.8,73.8,101.9z M71.6,32.5c3.3-2.5,5.5-5.6,4.8-10.5C72.5,24.7,72,28.5,71.6,32.5z M146,144.3c-3.6-2.6-4.9-6-9-7
	C138.4,141.3,139.8,144.7,146,144.3z M101.9,24.6c1.9,4.7,4,7.6,8.9,9.9C108.3,30,106.3,26.9,101.9,24.6z M76.9,102.5
	c4.5-1.6,7.1-3.6,8.5-8C81,95.8,79.2,98.6,76.9,102.5z M163.2,151.6c-2-3.2-4.9-3.8-8-3.9c-0.1,0-0.6,0.9-0.4,1.2
	c1.8,2.7,4.4,3.4,7.5,3.1C162.4,152,162.6,151.9,163.2,151.6z M81.2,33.7c-3.7-0.9-6.3-0.3-9,2.1C75.9,37.6,78.5,37,81.2,33.7z
	 M77,104.9c2.4,3.1,4.9,3,8.2,1.8C82.7,103.8,80.1,104.5,77,104.9z"/>
</svg>
