<?xml version="1.0" encoding="utf-8"?>
<!-- Generator: Adobe Illustrator 25.3.0, SVG Export Plug-In . SVG Version: 6.00 Build 0)  -->
<svg version="1.1" id="Layer_1" xmlns="http://www.w3.org/2000/svg" xmlns:xlink="http://www.w3.org/1999/xlink" x="0px" y="0px"
	 viewBox="0 0 197.5 229.2" style="enable-background:new 0 0 197.5 229.2;" xml:space="preserve">
<path d="M41.7,129.2c-4.1-8.5-7.5-17.3-8.7-26.8c-0.5-3.5-3.4-5.1-6.1-6c-2.8-0.9-5.7-2.7-9.1-1.6c-1.1,0.3-2.1-0.5-2.5-1.7
	c-0.3-1.1,0.2-1.9,1.1-2.5c1.1-0.7,2.6-1,3.2,0.1c1.3,2.2,3.4,2.4,5.8,3.1c-1-2.7-1.9-5.1-4.4-6.3c-1.5-0.8-2.1-1.9-1.5-3.4
	c0.4-1.2,1.4-1.6,2.6-1.4c1.6,0.3,2,1.4,2,2.9c0.2,5.2,4.3,7.8,7.5,11.6c0.8-2.3-0.1-4-0.1-5.6c-0.3-6.2-0.4-12.4,0.1-18.5
	c0.1-1.7-0.3-3-1.4-4.4c-6-7.7-9.9-16.2-9.3-26.3c0.2-3.1-0.1-6.3-0.1-9.4c0-0.7-0.3-1.6,0.5-2.1c0.8-0.5,1.4,0.1,2,0.6
	C30,37,34.7,43.9,37.8,51.9c1,2.7,0.7,5.5,0.6,8.9c6.5-3.8,12.1,0,18,0.8c0.7,0.1,1.6,0.2,1.7,1.2c0,1-0.9,1.1-1.5,1.4
	c-6,2.5-12.3,4.3-18.6,5.7c-4.2,0.9-4.3,0.9-4.4,5.3c-0.3,8.8,0,17.5,1.5,26.2c1.2,7.3,3.1,14.4,6,21.2c0.2,0.6,0.3,1.3,1.2,1.6
	c0.3-3.9,0.6-7.7,0.9-11.5c0.1-1.4-0.7-2.5-1.3-3.6c-3.5-6.8-3-13.1,2.1-18.9c1.4-1.6,2.7-3.5,4.5-4.7c5.5-3.6,8.6-9,11.7-14.5
	c0.5-0.9,0.7-2.4,2.1-2c1.4,0.3,1.1,1.8,1.2,2.7c0.2,3.1,0.3,6.3,0.2,9.4c-0.1,1.9,0.4,3.3,1.6,4.7c9.7,11.3,14.5,25,18.6,39
	c1.1,3.6-0.3,6.3-3.5,8.3c-1,0.6-2.1,1-1.9,2.6c1,7,2.5,13.8,4.6,20.4c1.2-0.2,1.2-1,1.4-1.5c1.9-5.8,4.5-11.3,8-16.3
	c3.6-5.2,2.5-10.9,1.7-16.4c-0.3-2.1-2.4-4-5.3-3.9c-1.7,0-2.8-1.2-2.8-3c0-1.5,0.9-2.5,2.4-2.7c1.8-0.3,2.9,0.7,3.3,2.4
	c0.1,0.5,0.1,1.1,0.2,1.6c0.2,0.7,0.7,1.1,2,1.8c-1.2-3.4,0.6-7.1-3.8-8.7c-1.3-0.5-1.7-2-1.1-3.4c0.7-1.4,2.1-1.9,3.6-1.4
	c1.4,0.4,2.2,1.4,1.9,3c-1.1,5.2,1.5,9.8,1.9,14.9c0.5-3.5,3.5-6.8,0.8-10.6c-0.9-1.3-0.4-2.8,1-3.7c1.2-0.8,2.5-0.6,3.5,0.4
	c1.1,1.2,1.3,2.7,0.1,3.8c-1.5,1.3-1.7,2.9-2.1,4.6c-0.7,3.3-1.4,6.6-2.7,9.7c-0.6,1.3-0.7,2.7-0.3,4.8c2-2.6,3.7-4.8,5.4-7
	c2.6-3.4,6-6.3,6.3-11.1c0.3-4.3,1-8.6,0.8-13c-0.1-1.8-0.5-2.8-2.7-3.2c-6.3-1.1-10.2-4.9-11.1-11.4c-1-7.4-1.3-14.9-0.6-22.4
	c0.4-3.9,1.2-8-2.1-11.4c-1.1-1.2-0.1-1.8,1.1-1.6c2.3,0.4,4.5,1,6.2,2.6c10.1,9.4,16.6,20.5,16.6,34.7c0,3.9-1.2,7.3-4.7,9.4
	c-0.7,0.4-1.2,0.9-1,1.8c0.7,4.4,0.4,8.8,0.5,13.6c3.1-2.3,5.1-5.1,7.2-7.7c2.9-3.6,6.3-6.8,9-10.6c1.7-2.4,1.8-5,0.1-6.8
	c-0.9-0.9-1.8-1.7-3.4-1.1c-1.8,0.7-3.3,0-3.8-1.9c-0.5-1.6,0.2-2.9,1.8-3.4c1.8-0.6,3.2,0.2,3.8,2c0.4,1,0.9,2,2.4,2.1
	c-0.2-2.2-0.1-4.3-2.9-5.1c-1.4-0.4-1.7-1.9-1.1-3.3c0.7-1.5,1.9-2.1,3.5-1.6c1.3,0.4,2.4,1.4,1.9,2.9c-1.2,3.8,1.1,7.1,0.8,11.2
	c2.1-1.4,2.9-3.1,3.4-4.8c1.7-5.6,1.9-11.3,1.5-17c-0.1-1.7-0.7-2.6-2.7-2.8c-3.4-0.4-5.7-2.5-6.7-5.8C123.1,48.3,116,40.1,109,31.8
	c-0.5-0.6-1.4-0.9-1.2-1.8c0.2-1.1,1.2-1.1,2.1-1.2c8.6-1.9,19.1,2.7,24.5,10.8c3.5,5.2,5.3,11.1,7,17.1c0.8,2.7,0.1,5.2-2.4,6.9
	c-0.7,0.5-1.4,1-1.3,2.1c0.7,4.4,0.5,8.8,0.7,13.3c4.2-6.6,10.6-12.2,8.4-21.3c-0.4-1.6-0.6-3.1-2.5-3.8c-1.5-0.5-2-2-1.3-3.5
	c0.7-1.3,1.9-1.9,3.3-1.3c1.6,0.6,2.1,1.9,1.6,3.4c-0.9,2.7,0.3,5.1,0.8,8.2c2-3.8,2.9-7.3,3.5-11c0.2-1.1-0.4-1.8-1.2-2.5
	c-6-6.1-6.8-11.5-3-19.2c2.1-4.3,4.7-8.3,6.2-12.9c1.4-4.2,2.7-8.5,1.3-13c-0.2-0.7-0.4-1.6,0.5-2c1.2-0.4,1.5,0.6,1.8,1.4
	c3.5,7.5,5.7,15.5,6.5,23.7c0.3,3.6,0.5,7.2,0.1,10.7c-0.7,5.8-2.2,11.2-8.7,13.1c-0.8,0.2-1.3,0.9-1.5,1.6
	c-1.7,7.2-4.3,14-7.5,20.8c3.5-1.6,7.2-2.3,8.4-7.2c1.5-6.3,6.5-10.1,12.5-12.2c5.4-2,11.2-2.7,16.9-3.5c3.8-0.6,7.5-1.4,10.6-3.8
	c0.6-0.4,1.3-1,2-0.4c0.7,0.6,0.4,1.4,0.1,2.1c-1.7,4.7-4.6,8.4-8.8,10.9c-3.6,2.2-7.1,4.6-10.2,7.5c-4,3.5-8.6,5.8-13.6,7.4
	c-2.9,0.9-5.6,0.5-8-1.2c-1.2-0.9-2-1-3.2-0.2c-0.9,0.6-1.9,1-2.9,1.4c-4.3,1.8-7.4,4.8-9.8,8.9c-3.2,5.7-7.4,10.7-11.4,15.8
	c-0.6,0.7-1.5,1.3-1.4,2.7c5.3-0.9,10.2-2.8,15-4.9c0.9-0.4,1.5-1,1.4-2.3c-0.2-3.1,1.6-5.1,4.3-6.2c3.9-1.6,8-3.2,12.2-3
	c5.9,0.2,10.3-1.9,13.3-7c0.4-0.7,0.8-1.8,1.9-1.5c1.1,0.3,0.8,1.5,0.7,2.3c-0.7,7.4-2.3,14.5-8.7,19.2c-5.2,3.8-13.8,4.9-20.4,1.2
	c-2-1.2-3.8-1.4-5.7-0.2c-4.3,2.7-9.2,3.9-14,5.1c-3.2,0.8-5.6,1.9-7.3,4.6c-0.8,1.3-2.2,2.1-3,4c4.8-1,9.4-2.1,14.1-2
	c0.9,0,1.3-0.7,1.7-1.3c1.1-1.4,2.4-1.5,3.7-0.5c1.3,1.1,1.5,2.7,0.6,4.1c-0.9,1.4-2.4,1.7-3.7,0.7c-2.5-1.9-5-1.5-8-0.8
	c0.9,1.6,1.8,2.4,3.6,2.1c1.9-0.3,3.2,0.8,3.3,2.7c0.1,1.6-0.9,2.7-2.5,2.9c-1.8,0.2-2.8-0.8-3.2-2.5c-1-3.7-3.6-5-7.3-4.2
	c-3.4,0.7-6.1,2.4-8.3,5.2c-6.4,7.9-13,15.7-18.2,24.6c-0.8,1.4-1.9,2.7-2.1,4.3l0,0c5.8-1.4,11.4-3.5,17.4-3.9
	c0.9-0.1,1.2-0.8,1.4-1.5c1.4-4.4,4.9-6.1,9-7c5.4-1.2,10.8-0.3,16.2,0.3c4.2,0.4,8.4,0.9,12.6,0c0.7-0.2,1.6-0.4,2,0.4
	c0.4,0.8,0,1.4-0.4,2.1c-2.5,4.5-6.3,7.6-10.8,10.1c-4.4,2.4-9.1,4.1-13.9,5.6c-7.3,2.2-11.5,0.3-15-6.6c-0.6-1.1-1.3-1.3-2.3-1.2
	c-6.1,0.7-11.8,2.6-17.4,5.2c-1.2,0.6-1.5,1.8-2,2.8c-2.2,5.3-3,10.9-3.4,16.5c-1.3,18.7-0.8,37.5-0.4,56.3c0,0.9,0,1.7,0,2.6
	c0,1.1-0.8,1.4-1.8,1.4c-1,0-1.8-0.2-1.9-1.3c-0.1-1.4-0.2-2.8-0.1-4.2c1-19.7-4.7-37.7-13.2-55c-1.3-2.6-2.9-4.5-5.5-5.6
	c-1.2-0.5-2.4-1.1-3.5-1.7c-4.2-2.1-8.1-3.2-13.2-1.4c-8.3,2.9-17.1,2.4-25.7,0c-8.8-2.5-14.3-9.1-18.9-16.5c-1-1.6-0.7-2.8,1.6-2.5
	c9,1.5,18.2,1.1,27.2,2.4c8.7,1.3,16.8,3.8,21.6,12.1c0.9,1.5,2.8,1.5,4.3,2.2c2.3,1.1,4.7,2.1,7.2,3.1c0.4-1.2-0.5-1.9-1-2.6
	c-5.3-7.6-10.5-15.2-16-22.6c-2.8-3.7-6.9-5.8-11-8c-0.9-0.5-1.8-0.3-2.8,0c-6.4,2-12.5,2-18.1-2.5c-2.5-2.1-5.8-2.9-8.9-3.8
	c-0.8-0.2-1.9-0.3-2-1.4c-0.1-1.1,1-1.3,1.7-1.7c6.3-3.8,13.1-4.3,20.1-2.3c4.4,1.3,7.6,3.6,9.6,8C35.3,127,38.9,127.8,41.7,129.2
	L41.7,129.2L41.7,129.2z M80,194.6c0.6-10.6,0.8-21,2-31.3c0.1-0.8,0-1.7-0.3-2.6c-2.3-7.9-4.3-15.9-5.2-24.1
	c-0.1-1.3-0.7-2.1-2.1-2.5c-9.9-2.6-14.7-9.7-16.8-19.2c-0.6-2.5-0.3-5.1-0.6-8.1c-3.6,2-7.1,3.6-10.6,4.7c-0.9,0.3-1.3,1-1.4,2
	c-1,9-2.2,18,5.1,25.4c1.5,1.5,2.6,3.5,3.9,5.2c8.3,10.5,15.5,21.7,20.2,34.4C76.2,183.8,78.1,189.2,80,194.6z M63,87.5
	c0,6.3-2.2,12.1-3.2,18c-1.8,10.5,3.4,21.4,12.2,25.3c1.1,0.5,2.3,1.5,3.3,0.8c1.2-0.9,0.3-2.4,0.1-3.6c-0.9-4.8-2.5-9.4-5.1-13.6
	c-0.4-0.6-1-1.4-0.1-2c0.8-0.5,1.4,0.2,1.8,0.9c0.6,0.9,1.1,1.9,1.6,2.8c2,4.2,3.4,8.7,4.1,13.3c0.1,0.7-0.1,1.7,0.9,1.9
	c0.8,0.1,1.4-0.5,1.9-1.1c1.6-1.9,1.4-4,0.7-6.2c-2.2-7.1-4.6-14.2-7.8-21C70.7,97.3,67.5,92,63,87.5z M96.5,53.5
	c0.5,3.8,0.3,7,0.2,10.1c-0.3,7.6-0.4,15.2,1,22.7c0.9,4.7,3.6,7.7,8.5,8.7c2,0.4,2.3,0.1,1.9-1.8c-1-4.2-1.4-8.6-1.8-12.9
	c-0.1-1-0.7-2.8,0.9-2.9c1.4-0.1,1,1.7,1.1,2.6c0.5,4.3,0.8,8.6,1.8,12.9c0.2,0.7,0,1.6,1.1,1.8c0.9,0.1,1.4-0.6,1.8-1.2
	c1.1-1.7,1.5-3.6,1.5-5.6C114.3,73.7,108.8,62.3,96.5,53.5z M48,155.2c-2.9-4.5-6.7-6.7-11-8c-4.7-1.5-9.5-2.2-14.4-2.5
	c-6.4-0.4-12.8-0.8-19.4-1.3c5.6,13.3,32.1,21.8,42.6,13.6c-2.2-0.6-4.4-0.9-6.5-0.9c-4-0.1-8-0.4-11.9-1.5
	c-0.8-0.2-2.3-0.4-1.8-1.7c0.4-1.2,1.5-0.4,2.2-0.2C34.3,154.4,40.9,153.6,48,155.2z M61,73.9c-1,0.6-1.4,1.5-1.8,2.3
	c-2,3.9-4.7,7.2-8.3,9.8c-3.4,2.4-5.8,5.8-8.1,9.2c-2.2,3.2-1.7,8.6,1.1,12.5c0.9-5.9,4.8-10.1,7.1-15c0.3-0.6,0.7-1.3,1.4-0.9
	c0.8,0.3,0.5,1.1,0.3,1.7c-0.8,2.4-2.1,4.5-3.6,6.5c-1.8,2.3-2.4,5.1-3.1,7.8c-0.3,1-0.3,1.7,1.2,1.4c5.6-0.9,10.5-5.3,11.8-10.7
	c0.4-1.6,0.8-3.2,1-4.8c0.6-3.6,0.6-7.1-0.8-10.5c-0.6-1.5-1.8-3.4,1.6-2.5c0.8,0.2,0.8-0.6,0.8-1.1C61.5,77.7,61.9,75.8,61,73.9z
	 M111.5,30.7c1.1,1.4,1.6,2,2,2.6c5.4,8.3,12.6,15.5,15.1,25.5c0.4,1.5,1.5,2.7,3,3.2c1,0.3,2.1,1.2,3,0.2c0.7-0.8,0.1-1.9-0.3-2.8
	c-1.5-4-3.4-7.7-5.3-11.5c-0.3-0.6-0.8-1.3,0-1.7c0.7-0.4,1.1,0.3,1.5,0.9c2.5,3.8,4.5,7.9,6,12.2c0.3,0.7,0.2,2.1,1.3,1.9
	c1.1-0.2,1.2-1.4,1.4-2.4c0.1-0.5,0-1.1-0.1-1.6c-1.8-6.7-3.8-13.4-8.4-18.8C125.9,32.9,119.6,30.6,111.5,30.7z M146.4,136.6
	c-4.6,0-8.8-0.2-13-0.6c-4.4-0.5-8.8-1.2-13.3-0.3c-2.5,0.5-4.8,1.3-6.6,3.2c-0.7,0.7-1.5,1.5-1.1,2.5c0.4,1,1.5,0.7,2.3,0.7
	c3.9,0.1,7.8-0.2,11.7-0.8c0.8-0.1,1.9-0.5,2.1,0.8c0.1,1-0.9,1-1.6,1.2c-4.1,0.8-8.2,0.9-12.3,0.9c-2.5,0-3,1-1.6,3.2
	c2.4,3.5,6,3.9,9.6,3c6.4-1.6,12.6-3.9,18.2-7.7C142.8,141.2,144.9,139.6,146.4,136.6z M157.1,65c1.4,0.2,2.1-0.5,2.8-0.8
	c3.8-1.9,7.3-4.3,11.6-5c0.8-0.1,1.9-0.4,2.1,0.8c0.1,1-0.9,1-1.6,1.2c-4.4,1.2-8.6,3-12.5,5.4c-0.7,0.5-1.7,1-1.6,1.9
	c0.1,1.2,1.3,1.3,2.2,1.6c4.2,1.4,7.6-0.7,10.9-2.8c6-3.8,11.1-9,17.3-12.6c2.1-1.2,4-3.1,5.1-6.2c-5.5,2.1-10.8,2.5-16,3.4
	c-5.5,1-10.8,2.4-15.4,5.6C159.3,59.3,157.7,61.7,157.1,65z M158.3,10.1c-1.7,6.8-4.9,12.8-8.5,18.6c-0.7,1.2-1.2,2.6-1.6,3.9
	c-1.4,4.3-0.3,8.1,2.4,11.6c0.5,0.7,1.1,1.6,2.1,1.2c0.8-0.3,0.8-1.2,0.9-2c0.5-3.4,0.9-6.9,1.5-10.3c0.2-1.2-0.4-3.5,1.5-3.3
	c1.6,0.2,0.7,2.2,0.6,3.3c-0.4,3.9-1,7.7-1.5,11.6c-0.1,0.6-0.4,1.4,0.4,1.7c0.7,0.3,1.3-0.1,1.8-0.6c2.5-2.2,3.8-5.1,4.2-8.2
	C163.1,28.1,161.8,19,158.3,10.1z M30.4,65.1c-0.3-4.7-1.4-9.2-2.4-13.7c-0.2-0.9-0.8-2.2,0.6-2.4c1.1-0.2,1.2,1,1.4,1.9
	c0.9,4,1.8,8,2.7,12.1c0.2,0.7-0.1,1.7,0.9,1.9c1,0.2,1.5-0.7,1.9-1.5c1.8-3.6,2.1-7.3,0.7-11c-1.6-4.6-4-8.7-7.3-12.2
	c-1.7-1.8-3-4.2-5.4-5.4C21.8,45.9,23.3,56.1,30.4,65.1z M173.4,81.5c-2.4,1.8-4.8,3.4-7.8,3.6c-1.8,0.1-3.7,0.2-5.5,0.4
	c-4.1,0.5-8.1,1.6-11.8,3.5c-1.1,0.6-2.1,1.6-1.6,2.9c0.6,1.6,1.9,0.2,2.8,0.1c3.9-0.6,7.9-1.5,11.8-2.2c0.8-0.2,1.9-0.3,2,0.9
	c0.1,1-0.9,1-1.7,1.2c-2.1,0.4-4.3,0.7-6.4,1c-2.5,0.4-5.1,0.6-7.8,2.3c5.5,2.8,10.8,3.2,15.9,1.1C169.7,93.7,172.3,88.1,173.4,81.5
	z M30.9,123.4c-3.1-6.8-17.6-8.9-23.9-3.6c4.1,1.3,7.4,3.6,10.9,5.7c3.7,2.2,7.8,1.6,11.9,0.6c-0.2-1-0.8-1.1-1.3-1.3
	c-3-1.2-6-2.4-9-3.7c-0.7-0.3-1.7-0.4-1.5-1.3c0.3-1.2,1.4-0.8,2.2-0.6c0.8,0.2,1.6,0.5,2.5,0.8C25.3,121.1,27.9,122.2,30.9,123.4z
	 M53.3,63.3c-9-3.5-13.5-2.9-16.2,1.8c2.2,0.4,4.4-1.8,7-0.4c-2.5,2-5.9,1.2-8.3,3.8C42.1,67.7,47.3,65.3,53.3,63.3z"/>
</svg>
