<?xml version="1.0" encoding="utf-8"?>
<!-- Generator: Adobe Illustrator 25.3.0, SVG Export Plug-In . SVG Version: 6.00 Build 0)  -->
<svg version="1.1" id="Layer_1" xmlns="http://www.w3.org/2000/svg" xmlns:xlink="http://www.w3.org/1999/xlink" x="0px" y="0px"
	 viewBox="0 0 52.9 230" style="enable-background:new 0 0 52.9 230;" xml:space="preserve">
<path d="M19,46.8c1.6-5.2-2.2-11.5-7.8-13c-1.8-0.5-3.7-0.7-5.3-1.7c-2-1.3-3.7-2.8-2.9-5.5C3.5,24.5,6.3,23,9,23.3
	c1.2,0.2,2.4,0.5,4.1,0.8c-3.9-5-7.6-9.4-11-14c-1.5-2-2.9-4.3-1.7-7C2-0.2,6-1,9.4,1.4c2.6,1.8,3.7,4.3,3.9,7.4c0.1,2,0,4,0,6.4
	c1.3-1,2.3-1.9,3.3-2.7c2.9-2.2,5.8-2.1,7.7,0.2c1.7,2.1,0.9,4.5-2.2,6.9c-1,0.8-2,1.5-3.1,2.2c-2.5,1.8-3,4.2-2,7
	c1.1,3,2.3,6,3.5,9.1c1.4-0.7,1.5-2.3,2.6-3.2c1.9-1.7,4.9-2.2,6.6-0.8c2.2,1.9,1.4,4.1,0.1,6.1c-0.9,1.4-2.1,2.5-3.1,3.8
	C22.3,49,22,55.6,25.9,61.4c1.2-0.8,1.6-2.5,2.9-3.2c1.9-1.1,3.8-1.6,5.6-0.2c1.9,1.5,1.8,3.4,0.9,5.5c-0.7,1.5-1.7,2.8-2.8,4
	c-4.8,5.4-5.5,11.1-2.3,17.9c1.6-1.3,2.4-3.2,4.1-4.3c1.9-1.3,3.7-1.4,5.5,0.2c1.9,1.7,1.5,3.7,0.4,5.5c-0.9,1.5-2.3,2.6-3.5,3.9
	c-5.1,5.4-5.8,12.1-2,18.8c1.4-0.8,1.7-2.3,2.7-3.4c1.2-1.3,2.4-2.6,4.4-2.7c1.8-0.1,3.6,0.1,4.5,2c0.8,1.8,0.6,3.5-0.9,4.8
	c-1.3,1.2-2.7,2.2-4.1,3.3c-5.7,4.5-6.9,10.3-3.5,17.2c1.3-0.1,1.9-1.3,2.8-2.1c1.6-1.4,3.3-2.3,5.5-2c1.8,0.2,3.4,1,3.9,3
	c0.5,2.1-0.6,3.3-2.2,4.3c-0.3,0.2-0.7,0.4-1,0.5c-8.6,4.2-10.6,10.2-6.1,19.3c1.3-1.3,2.3-2.7,3.6-3.7c2.3-1.9,5-1.9,6.5-0.2
	c1.9,2.2,1.3,4.4-0.2,6.5c-1.1,1.5-2.6,2.3-4,3.4c-5.8,4.2-7.6,10.4-4.9,17.5c1.2-1.1,2.3-2.2,3.5-3.2c2.1-1.7,4.3-2.1,6.5-0.3
	c1.9,1.5,1.9,3.8,0.2,6.5c-1.2,1.9-3,3-4.8,4.2c-5.7,3.8-7.3,9.2-6.3,16c1.6-0.4,2.2-1.7,3.3-2.4c2.5-1.7,5.3-1.6,6.8,0.2
	c1.5,1.8,1.2,4.3-0.6,6.5c-1.3,1.6-3.2,2.5-4.8,3.7c-5.7,4.3-8.4,9.8-7.4,17c0.1,0.5,0.1,1,0.1,1.5c-0.1,1.5-0.2,3.5-2,3.6
	c-2.2,0.1-2-2-1.7-3.4c1-5-1.9-7.5-5.7-9.4c-1.9-1-3.8-2-5.2-3.6c-1.5-1.7-2.5-3.7-1.2-5.8c1.4-2.2,3.5-2.6,6-2.1
	c2.3,0.5,3.9,1.8,5,3.7c0.8,1.4,1.6,2.8,2.4,4.3c4.6-5.4,2.2-16-3.8-20.4c-1.8-1.3-3.7-2.6-5-4.6c-1.3-2.1-1.9-4.3-0.1-6.3
	c1.9-2.2,4.3-1.7,6.6-0.5c1.9,1,3.2,2.8,4.7,4.9c1.5-7.8-0.9-13.6-6.8-18c-1.6-1.2-3.3-2.2-4.5-4c-1.7-2.6-1.8-5.2-0.1-6.9
	c1.8-1.8,4.8-1.9,7.2-0.1c1.1,0.8,2,1.9,3,2.8c2.2-3.8,0.2-9.7-4.3-12.3c-1.8-1.1-3.8-1.8-5.7-2.8c-0.8-0.4-1.5-0.9-2.2-1.4
	c-2.8-2.1-3.6-5.4-2.1-7.5c1.4-2,5.2-2.3,7.9-0.8c1.9,1.1,2.9,3,4.6,4.4c1.7-4.3-0.3-9.7-4.6-12.6c-2.3-1.6-4.8-2.8-6.7-4.8
	c-1.8-1.9-2.4-4.1-0.9-6.5c1.2-1.9,3-2.6,5.2-2.3c1.7,0.3,2.9,1.5,3.7,3.1c1.9-4.6-1-10.7-6.2-13.2c-1.9-0.9-4-1.5-5.7-2.8
	c-2.9-2.4-3.9-5.2-2.4-7.4c1.5-2.4,5-2.7,8.1-0.8c1,0.6,1.8,2.6,3,1.6c1.2-0.9,0.6-2.8,0.2-4.3c-1.2-4.6-4-7.7-8.4-9.4
	c-1.5-0.6-3.1-1.2-4.4-2.1c-1.9-1.4-3.3-3.2-2.1-5.8c1.1-2.5,3.3-2.8,5.7-2.5c1.9,0.3,3.3,1.6,4.7,3c1.2-7.4-2.2-14.4-8.7-17.8
	c-1.9-1-3.9-1.8-5.4-3.3c-2.5-2.4-2.9-5.4-1.1-7.4c1.8-1.9,5.5-1.7,7.9,0.3C17.6,45.5,18,46.5,19,46.8z M37.1,170.5
	c-0.3-3.9-1.9-6.7-3.8-9.5c-1-1.5-2.6-1.6-4-0.8c-1.4,0.9-0.6,2.2,0,3.3C30.9,166.8,33.9,168.5,37.1,170.5z M9.2,12.2
	c0.1-3.1,0.3-5.7-1.7-7.9c-1-1.1-2.4-1.6-3.7-0.6C2.6,4.7,3,6.1,3.7,7.1C5,9.1,6.5,11,9.2,12.2z M25.5,137.3c-0.1,5,1.9,6.5,8.9,7.4
	C32.3,141.3,29.6,138.6,25.5,137.3z M29.4,101.9c-1.5-3.4-3.4-5.4-5.9-6.8c-1.2-0.7-2.5-0.7-3.2,0.8c-0.6,1.3,0.4,2.2,1.4,2.7
	C24,99.7,26.4,100.6,29.4,101.9z M37.2,192.8c-0.8-3.7-2.5-5.9-4.8-7.7c-1-0.8-2.3-1.7-3.3-0.4c-1.1,1.4,0.1,2.6,1.2,3.3
	C32.4,189.6,34.6,191,37.2,192.8z M32.8,124.5c-1.3-2.5-2.3-4.4-3.8-6c-1-1.1-2.1-2.6-3.7-1c-1.7,1.7-0.1,2.9,1.1,4
	C28.1,122.8,30.1,123.6,32.8,124.5z M32.9,216.5c0.2-0.2,0.4-0.4,0.6-0.6c-1-2.7-3-4.7-5-6.6c-0.8-0.8-1.8-0.9-2.6,0
	c-1,1.2-0.4,2.1,0.6,2.8C28.6,213.6,30.8,215,32.9,216.5z M19,52.9c-1-2.3-2.1-4.6-4.4-5.9c-1-0.6-2.6-1-3.4,0.3
	c-0.8,1.4,0.5,2.2,1.5,2.9C14.6,51.5,17,51.6,19,52.9z M42.1,183.1c2.4-1,4-2.6,5.9-3.9c0.9-0.6,2.2-1.2,0.9-2.6
	c-1.1-1.2-2.3-1-3.2,0.1C44.2,178.6,42.3,180.2,42.1,183.1z M42,158.1c2.3-1.2,4-2,5.5-3c0.8-0.6,2.1-1.4,1.1-2.6
	c-1-1.3-2.4-0.8-3.3,0.1C44,153.8,42.5,155.1,42,158.1z M24.2,78.1c-1.1-2.4-3.1-3.7-5.1-4.8c-0.7-0.4-1.8-0.5-2.2,0.5
	c-0.4,0.9-0.1,1.7,0.8,2.2C19.6,77.2,21.6,78,24.2,78.1z M41.2,206.6c2-1.2,3.7-2.3,5.4-3.3c0.9-0.5,1.9-1.1,0.9-2.3
	c-0.8-0.9-2-1.2-2.9-0.1C43.2,202.5,41.5,203.9,41.2,206.6z M13.1,29.9c-1.4-2.1-3.1-2.9-5.2-2.8c-0.6,0-1.3,0.2-1.4,0.9
	c-0.1,0.8,0,1.6,0.9,1.8C9.2,30.3,11,30.9,13.1,29.9z M16.4,18.8c2.2-0.4,3.8-1.2,5.1-2.7c0.6-0.7,0.6-1.3,0-2
	c-0.6-0.6-1.1-0.3-1.6,0C18.1,15.1,17,16.5,16.4,18.8z M37.5,111.1c1.8-0.8,3.2-1.3,4.5-1.9c1-0.4,2-1.2,1.4-2.2
	c-0.7-1.1-1.9-0.7-2.9,0.1C39.3,108,38.4,109.2,37.5,111.1z M27.6,67.4c2.1-2.2,3.6-3.8,5.4-5.6C29.3,61.1,28.1,62.2,27.6,67.4z
	 M32.6,88.6c1.7-1,3.7-1.5,4.8-3.2c0.5-0.6,0.8-1.3,0.1-2c-0.6-0.5-1.2-0.1-1.7,0.2C34,84.6,33.3,86.5,32.6,88.6z M39.2,134.2
	c2.5-1,4.1-1.7,5.7-2.3c0.7-0.3,1.5-0.7,1.3-1.5c-0.3-1.2-1.4-0.8-2.2-0.6C42.1,130.4,40.7,131.7,39.2,134.2z M22.9,41.7
	c2.2-1.7,4.6-2.1,4.5-4.9c0-0.3-0.3-0.7-0.7-0.6C24.3,36.9,23.6,38.8,22.9,41.7z"/>
</svg>
