<?xml version="1.0" encoding="utf-8"?>
<!-- Generator: Adobe Illustrator 25.3.0, SVG Export Plug-In . SVG Version: 6.00 Build 0)  -->
<svg version="1.1" id="Layer_1" xmlns="http://www.w3.org/2000/svg" xmlns:xlink="http://www.w3.org/1999/xlink" x="0px" y="0px"
	 viewBox="0 0 85.3 251.2" style="enable-background:new 0 0 85.3 251.2;" xml:space="preserve">
<path d="M26.8,58.9c-6.9-6.5-10.4-14.4-10-24c0.1-1.4-0.2-2.9,1.1-4.5c3.1,3.7,6.2,7.3,10.1,11.9c0-3.6-0.2-6.2,0-8.7
	c0.6-7.1,1.4-14.2,2.1-21.3c0.1-1-0.1-2.2,1.3-2.3c1.4-0.2,1.4,1.2,1.8,2c2.4,5.3,4.8,10.7,7.1,16.1c4.2,9.5,3.8,19.2,1.3,28.9
	c-0.4,1.4-0.7,2.7-0.6,4.4c3.7-4,9.3-5.3,11.7-11.3c1.9-4.7,4-9.3,5.1-14.3c0.6-2.6,0.5-5.2-0.3-7.6c-0.8-2.5-1.8-4.9-5.2-4.6
	c-2,0.2-2.5-1.1-2.4-2.7c0.3-3.5,1.8-6.5,5.2-7.8c3.3-1.2,6.7-0.7,8.9,2.3c4,5.3,6.6,11.1,4.6,17.9c-0.5,1.6-0.7,2.6,0.8,4.1
	c3,3,2.4,6.8,1.4,10.5c-0.5,1.8-1.8,1.9-3.4,1.3c-3.2-1.3-5.7-0.5-7.6,2.6c-1.3,2.1-3.3,3.4-5.8,4.2c-5,1.7-9,4.9-12.3,9
	c-2.3,2.9-3,6-2.6,10c0.8,7.6,1.7,15.3,1.2,23.1c-0.2,2.4,0,4.7,0.5,7.3c4.8-4.8,8.2-10.3,8.3-17.3c0.1-3.4-0.5-6.8-1.9-10
	c-0.3-0.8-0.6-1.8,0.3-2.3c0.9-0.5,1.6,0.4,2,1.1c4.4,6.1,6.5,12.6,4.4,20.1c-1,3.5-0.6,3.9,3.1,3.3c6-1,12.1-1.4,17.9-3.9
	c-3.5,7.1-8.3,12.5-15.8,15.1c-4.9,1.7-9.9,2.6-15.1,2.2c-5-0.4-5.9,0.2-6.2,5.3c-0.6,9.8-0.2,19.6-1.1,29.5
	c1.7-0.2,2.5-1.1,2.4-2.3c-0.3-5.8,3.5-9.3,7.3-12.4c5.4-4.4,10-9,9.8-16.6c5.9,2.3,7.6,8.6,3.9,14.1c-1.7,2.5-3.5,4.6-1.4,7.9
	c0.9,1.4,0.3,3.4-0.5,5c-1.2,2.4-2.9,3.8-5.3,1.5c-2.4-2.2-4.5-1.9-6.7,0.2c-0.9,0.9-1.9,1.8-3.3,1.9c-4.2,0.4-5.6,3.7-5.9,6.9
	c-0.8,8.5-0.6,17-2,26c2.1-1.4,3.8-2.4,5.5-3.5c0.7-0.4,1.3-1.4,2.2-0.8c1.1,0.8,0.4,1.8,0.1,2.7c-2,4.9-4.1,9.8-8.2,13.4
	c-2.1,1.8-3,4-3.4,6.7c-1.8,11-4,21.9-2.9,33.2c0.1,1.1,0,2.1-1.1,2.5c-3.4,1.5-6.2,3.9-9.4,6.7c-0.5-4.2,1.1-7.3,2-10.5
	c3.2-10.8,6.6-21.6,8.4-32.8c0.4-2.6,0.2-4.6-1.8-6.9c-4.3-4.7-4.1-10.7-2.8-16.6c0.3-1.5,1.3-1.9,2.3-0.4c1.5,1.9,2.9,3.8,4.5,5.8
	c5.1-9.8,3.6-19.3-4.4-26.4c-4.5-4-8.8-8.2-12.1-13.2c-4.6-6.9-4.9-14.4-2.6-22.2c0.2-0.7,0.6-1.3,1.8-1.3
	c0.5,10.7,10.3,15.6,15.1,23.8c1.6,2.7,4.1,4.7,5.9,8.7c0.3-3.9,0.5-6.7,0.7-9.6c0.6-7.8,1.1-15.6,1.7-23.5c0.2-2.4-0.2-4-3.3-4.3
	c-2.4-0.2-4.6-1.5-5.4-4.2c-0.3-1-1.3-2.1-0.1-3.1c1-0.9,2.1-0.7,3.2-0.3c0.1,0,0.3,0.1,0.4,0.1c1.9,0,3.7,2.9,5.2,1.3
	c1.1-1.2,0.5-3.8,0.7-5.8c0.2-3.1,0.5-6.3,0.7-9.4c0.2-2.5-1.1-3.9-3.2-5c-2.4-1.2-3.8,0.2-5.3,1.4c-1.9,1.5-1.4,3.1-0.4,4.9
	c1.3,2.3,2.5,5-1,6.4c-5.2,2.2-8.1,1.2-9.4-2.8c-0.4-1.1-0.2-2.4-1.5-3.3c-4.6-3.4-5-5.5-2.1-10.4c1-1.6,0.8-2.3-0.6-3.4
	c-5.1-4.1-5.7-8.1-2.4-14.7c2.4-4.8,6.5-6.6,12.2-5.2C25.2,58.5,25.9,59.2,26.8,58.9c0.2,0.2,0.2,0.5,0.3,0.7
	c1.5,1.3,3.3,2.6,3.8,4.5c0.6,2.7-2.4,2.7-3.7,4c-3.6,3.8-2.6,8.8,2.2,10.3c1.7,0.5,3.1,1.3,4,2.9c0.8,1.2,1.9,2,3.7,2.2
	c0.1-4.6,0.2-9.1-0.8-13.6C35.2,64.5,32,60.9,26.8,58.9z M38.9,57C44,41.2,40.1,29.7,32.1,17c-0.6,3.4-1.2,6.4-1.5,9.5
	c-0.5,4.8,0.1,9.7,0.3,14.5c0.1,3.5,1.5,6.3,3.5,8.9C36.1,52.1,37.9,54.2,38.9,57z M64.2,46.8c5.5-0.4,6.7-1.7,5.1-5.6
	c-0.4-1-1-1.8-1.9-2.2c-2.1-0.9-2.1-2.2-1.2-4.1c3.2-6.8,0.2-12.6-3.8-17.8c-2.9-3.8-7.1-3-9.4,1c-0.8,1.3-1,2.2,0.8,2.9
	c4.7,1.6,6.2,5.3,6.5,10c0.2,4.2-1,8.2-2,12.2c-0.7,2.8,0.7,3.7,3,3.9C62.2,47.1,63.2,46.9,64.2,46.8z M20.8,59.9
	c-4,0-6.1,2.3-7.6,7c-1.1,3.6-1.1,6.6,2.5,8.9c4.4,2.8,4.4,2.9,1.4,6.7c-0.7,0.9-1.2,2-1.2,3.1c0,1.5,0.5,2.8,1.9,3.5
	c1.7,0.9,2.1-0.6,3-1.5c0.9-1.1,1.9-2.2,3.1-2.9c2.5-1.5,2.8-2.9,1.1-5.5c-3-4.5-2.5-8.6,0.7-12.2c3.1-3.4,2.9-4.2-1.4-6
	C23,60.5,21.6,60.2,20.8,59.9z M70.9,99.9c-6.6,1.9-13.4,1.4-19.9,3.1c-2.9,0.8-5.6,2-8.1,3.8c-1,0.8-2.3,1.7-1.9,3.1
	c0.4,1.1,1.9,1,3,1c1.8,0.1,3.7,0.4,5.5,0.3C58.2,110.4,65.9,107.8,70.9,99.9z M12.6,125.7c-0.3,5.7,1.6,10.5,5.1,14.9
	c4.6,5.8,10.7,10,15.8,15.3C30.5,143.2,20.9,134.9,12.6,125.7z M36.7,62.9c-0.3-3,0.2-5.4-1.1-7.3c-4.5-6.9-10.2-12.8-16.3-19.3
	C18.1,50.1,27.9,55.6,36.7,62.9z M58.5,120.8c-2.2,6.1-5.8,10.5-10.6,13.7c-2.8,1.9-2.5,3.2-0.1,5.3c2.3,2,5.8,1.4,7.9,3.9
	c0.3,0.4,1.1-0.6,1.3-1.3c0.5-1.8,0.2-3.7-1.1-4.8c-2.9-2.4-1.3-3.5,0.7-5.1C60.6,129.2,61.2,125.7,58.5,120.8z M46.4,102
	c6.8-1.7,7.9-4.8,5.5-15.1c-1.2,2.8-1,5.4-2.3,7.6C48.5,96.7,47.7,99.1,46.4,102z M29.5,191c1.5-6.6,0.2-9.9-4.2-12.7
	C24.4,183.1,26.5,186.7,29.5,191z M25.5,85.9c-3,1.6-4.7,4.1-4.8,7.5c0,1.5,0.5,3.1,2.2,3.1c1.7,0,1.6-1.8,1.5-3
	C24.2,90.9,24.5,88.5,25.5,85.9z M33.6,189.8c3.5-2.4,5.4-5.8,7.1-10.4C35.7,181.9,34.3,185.6,33.6,189.8z M46.7,142.4
	c-0.4-1.1-1.1-2-2.3-2.3c-1.9-0.4-2.5,1-2.8,2.5c-0.3,1.1,0.1,2.2,1.3,2.3C44.6,145,45.7,143.8,46.7,142.4z M58.5,49.8
	c-0.1-1.1-0.9-1.4-1.8-1.4c-2,0.1-2.3,1.9-3,3.2c-0.4,0.8,0.2,1.6,0.9,1.4C56.3,52.5,57.7,51.5,58.5,49.8z M35.6,110.2
	c-2-3-2-3-5.3-3.1C31.3,109.5,33.4,109.7,35.6,110.2z M29.5,83.4c0.3-0.2,0.6-0.3,0.6-0.5c0.1-0.4,0-0.8-0.5-0.9
	c-0.2,0-0.5,0.2-0.7,0.3C29.2,82.7,29.3,83,29.5,83.4z M27.5,94.2c-0.1-0.1-0.1-0.2-0.2-0.3C27.2,94,27.1,94,27,94.1
	c0.1,0.1,0.2,0.3,0.3,0.4C27.4,94.4,27.4,94.3,27.5,94.2z"/>
</svg>
