<?xml version="1.0" encoding="utf-8"?>
<!-- Generator: Adobe Illustrator 25.3.0, SVG Export Plug-In . SVG Version: 6.00 Build 0)  -->
<svg version="1.1" id="Layer_1" xmlns="http://www.w3.org/2000/svg" xmlns:xlink="http://www.w3.org/1999/xlink" x="0px" y="0px"
	 viewBox="0 0 130.4 250.8" style="enable-background:new 0 0 130.4 250.8;" xml:space="preserve">
<path d="M61.7,167.6c2-3,4-6,6-9c0.4-0.7,0.2-1.4-0.1-2.1c-2.9-8.4-1.2-16.4,2.8-24c3.1-6,8.5-10.2,12.3-15.7
	c0.3-0.4,0.7-0.8,1.2-0.6c0.7,0.3,0.5,1,0.4,1.5c-0.7,3.4-2.3,6.3-4.6,8.9c-5.2,5.8-8.2,12.4-7.9,20.4c0.1,1.5,0,3.1,0,4.5
	c0.6,0.3,0.8,0,1-0.2c5.5-8.5,11.1-16.9,14.4-26.5c1.3-3.7,0.9-7.3-0.3-10.8c-1.5-4.2-3.3-8.2-4.8-12.4c-2.3-6.7-2-13.3,1.2-19.6
	c0.4-0.8,0.8-2,1.8-1.7c1.2,0.3,0.6,1.5,0.5,2.3c-0.7,5.3,0.4,10.4,2.7,15.1c2.5,5.2,3.3,10.6,3.5,16.5c1.2-1.3,1.6-2.9,2.1-4.2
	c3.2-8.8,4.8-17.9,6.1-27.1c0.1-0.8,0-1.5-0.7-2.2c-6-5.5-9.1-12.3-9.7-20.4c-0.4-6.1-0.8-12.2-2.9-18c-0.2-0.7-0.6-1.5,0.1-2
	c0.8-0.5,1.4,0.2,1.9,0.6c5,4,8,9.1,8.2,15.7c0.1,4.8,2.1,9,4.2,13.9c1.1-4.6,0.4-8.7,1.2-12.6c1.4-6.9,0.5-13.1-3.2-19.5
	c-4.5-8-5.2-17.1-3.1-26.2c0.2-0.8,0.1-2.1,1.4-2c1,0.1,1,1.2,1.1,2c0.6,3.4,0.3,6.9,1,10.3c0.9,4.5,2.8,8.6,4.5,12.8
	c1.6,4,2.3,8,1,12.3c-0.2,0.7-0.2,1.4-0.2,2.3c0.9-0.3,0.9-1,1.1-1.5c2.7-8.2,3-16.6,2.1-25.2c-0.1-1.3-1.2-3.4,0.5-3.9
	c1.3-0.4,2,1.7,2.6,2.9c5.7,10.6,4.6,21.3-1.7,31c-4.3,6.5-6.4,13-6.8,20.7c-0.3,6.1-1.1,12.1-2.7,18c-0.2,0.7-0.3,1.4,0,2.2
	c0.2,0,0.5,0,0.7-0.1c7.2-7.7,13.3-15.9,14.5-26.9c0.3-2.9,1.2-5.8,1.8-8.7c0.1-0.5,0.3-1.2,1-1.1c0.5,0.1,0.7,0.6,0.8,1.1
	c0.7,7.3,2.2,14.6-0.5,21.7c-2.7,6.9-6.8,12.7-12.9,17.1c-5.1,3.7-9,8.1-10.7,14.8c-1.7,6.9-5,13.4-8.5,19.6
	c-0.6,1.2-0.7,2.5-1.5,3.6c2.7-1.9,5.3-3.6,6.9-6.7c3.4-6.7,6.6-13.8,12.5-18.8c3.9-3.3,8.4-5.8,13.7-6.2c0.9-0.1,2.1-0.4,2.4,0.7
	c0.4,1.3-1,1.3-1.8,1.5c-8.1,2.6-12.9,8.4-16.2,15.9c-1.6,3.6-2.8,7.3-5.1,10.6c-3,4.5-7,7.2-12.2,7.8c-2.6,0.3-4.2,1.6-5.5,3.8
	c-3.6,5.8-7.4,11.5-11.2,17.2c-0.6,0.9-1.3,1.9-1.6,3.2c1.8-1,3.6-2,5.5-2.9c5.1-2.4,10.4-4.1,15.7-6c7-2.6,12.7-6.9,17-12.9
	c0.5-0.7,1-1.5,1.6-2.2c0.6-0.6,1-1.9,2.1-1.2c0.9,0.6,0.3,1.6,0.1,2.5C105.4,155,95.9,162.7,83,167c-4.7,1.6-9.6,2.3-14.5,2.9
	c-5.3,0.7-8.8,3.2-11.4,7.9c-5.2,9-10,18.2-13.3,28.1c-0.2,0.7-0.8,1.3-0.3,2.3c1.9-2.5,3.6-5,5.7-7.2c3.8-4,8.3-7,13.2-9.5
	c6.8-3.4,12.6-8,17.3-14.1c0.5-0.6,1-1.7,1.9-1.1c0.8,0.5,0.4,1.5,0.2,2.3c-3,11.3-9.5,20.1-18.9,26.9c-6,4.3-12.8,7.5-18.6,12.2
	c-3.1,2.4-4.8,5.3-4.6,9.3c0.2,4.2-0.1,8.4,1.2,12.5c0.2,0.5,0.5,1.2-0.3,1.4c-0.7,0.1-0.9-0.6-1.1-1.1c-0.6-1.8-1.2-3.6-1.2-5.5
	c0-6.2-2.7-11.3-6.4-15.9c-4.8-6-10.3-11.6-14.3-18.2c-4.7-7.9-6.8-16.5-7.4-25.6c0-0.5,0-1,0-1.5c0.1-0.7,0.2-1.4,1.1-1.4
	c0.8-0.1,1.2,0.5,1.4,1.1c0.2,0.4,0.4,0.7,0.5,1.1c2.8,10.6,8.3,19.6,16.2,27.2c4.7,4.6,7.7,10.3,8.7,16.8c0,0.2,0.1,0.5,0.2,0.7
	c0.1,0.1,0.2,0.2,0.5,0.5c1.3-7.3,3.5-14.3,6.3-21.1c0.4-0.9,0.2-1.7-0.2-2.6c-2.7-6.3-2.5-12.6-0.2-19c1.7-4.7,3.8-9.3,4.7-14.3
	c0.3-1.9,0.5-3.8,0.5-5.6c0-0.7-0.1-1.6,0.9-1.7c0.8-0.1,1,0.7,1.1,1.4c1.4,6.9,2.4,13.8-0.4,20.7c-1.1,2.7-2.1,5.4-3.1,8.1
	c-0.8,2.2-1.5,4.4-1.3,6.8c1.1,0,1.1-1,1.4-1.5c3-5.9,6.2-11.6,9.8-17.1c0.9-1.5,1.4-2.9,1.1-4.7c-0.9-5.9-1.8-11.7-2.7-17.6
	c-0.3-2.3-1.4-4-3.1-5.4c-2.9-2.6-6.4-4.4-9.8-6.2c-9.5-5-12.8-13-11.5-23.2c0.1-0.8-0.1-2,0.9-2.1c1.3-0.2,1.2,1.2,1.3,2
	c2.1,8.5,6.5,15.4,14.3,19.8c2.1,1.2,3.9,2.8,5.8,5.1c-0.2-3.4-0.7-6.2-0.5-9c0.5-7.5-3.3-12.8-8.1-18c-5.2-5.6-8.4-12.4-7.4-20.4
	c0.1-1,0.3-2,0.6-2.9c1.2-3.1,2.5-6.1,3.8-9.1c0.2-0.6,0.5-1.3,1.4-1c0.6,0.2,0.6,0.8,0.4,1.2c-3.9,10.4,1.3,18.5,6.7,26.5
	c1.2,1.8,1.8,3.8,2.9,5.7c0.9-0.5,0.8-1.3,0.9-2c1.7-8.9,5.2-17.3,8.1-25.9c0.5-1.4,0.5-2.7-0.3-4c-4-6.6-3.6-13.3-0.1-20
	c1.5-2.8,3.3-5.3,4.9-8c0.3-0.5,0.7-1.3,1.5-0.9c0.6,0.4,0.3,1,0.1,1.6c-2.6,7.6-2.9,15.3-1.9,23.2c0.4,3.1-0.1,5.9-2.5,8.4
	c-1.7,1.8-1.9,4.4-2.4,6.9c4.1-3.1,8.3-6.1,11.2-10.4c2.4-3.5,4.1-7.3,5.5-11.3c0.2-0.6,0.2-1.7,1.3-1.4c0.8,0.2,0.6,1.1,0.5,1.7
	c-0.8,10.6-5.1,19.1-14.7,24.4c-3.6,2-6.4,4.7-7.7,8.7c-2.7,8-3.9,16.3-2.9,25c0.7-1.3,1.5-2.5,2.2-3.8c2.7-5.1,6.5-9.5,10-14.1
	c3.3-4.3,4.9-9.2,5.8-14.5c0.2-1.2-0.2-3.2,1.5-3.2c1.5,0.1,1.2,2.1,1.4,3.3c1.3,8.9-2.2,16.3-8.1,22.6c-3,3.2-6,6.3-8.4,10
	c-2.6,3.9-4.3,8.1-3.4,13c1.4,7.5,2.8,15.1,3.7,22.7c0.1,0.6,0.3,1.3,0.4,1.9C61.3,167.4,61.5,167.5,61.7,167.6z M40.6,131.7
	c0,0,0.1-0.1,0.1-0.1C40.6,131.6,40.6,131.6,40.6,131.7c-0.2-0.3-0.3-0.6-0.4-0.8c-0.2-0.5-0.5-1.1-0.7-1.6
	c-0.3-0.1-0.5-0.2-0.8-0.3l-0.1-0.1c0,0,0.1,0.1,0.1,0.1c0.2,0.4,0.5,0.4,0.8,0.3c-0.4,0.8,0,1.3,0.7,1.6
	C40.3,131.1,40.5,131.4,40.6,131.7z M90.5,135.7c-0.4,0.2-0.8,0.4-1.1,0.6c0,0,0.1,0.1,0.1,0.1c0-0.1,0-0.1-0.1-0.2
	C89.8,136.1,90.3,136.4,90.5,135.7L90.5,135.7C90.6,135.8,90.5,135.7,90.5,135.7z M109.1,50.8c0,0.4-0.2,0.6-0.5,0.8
	c0,0-0.1-0.1-0.1-0.1c0,0.1,0,0.1,0,0.2C108.6,51.2,108.7,50.9,109.1,50.8c0.1-0.5,0.2-1,0.2-1.5c0.6-0.7,1.1-1.4,1-2.4
	c0.1-0.1,0.4-0.1,0.4-0.2c2.5-6.1,2.9-12.4,1.2-18.8c0-0.1-0.3-0.2-0.6-0.5c0.5,6.7,0.2,13.2-1,19.6c-0.8,0.6-0.9,1.5-1,2.4
	C108.9,49.7,109.2,50.3,109.1,50.8z M101.5,118.5c0.5,0,0.4-0.5,0.6-0.8l0-0.1l0,0.2C101.5,117.8,101.5,118.2,101.5,118.5
	c-0.5,0.2-0.5,0.7-0.4,1.1c-1,0.3-0.7,1.5-1.3,2.1c0,0.7-1,1.1-0.4,2c0.9-0.6,0.7-1.3,0.3-2c1.1-0.3,1.1-1.2,1.3-2.1
	C101.5,119.4,101.5,118.9,101.5,118.5z M99,118.6c-0.2,0.3-0.3,0.7-0.5,1c-3.6,4.6-5.4,10.4-9.4,14.7l0,0.1l-0.1-0.1
	c1.1,0.4,1.6-0.5,2.3-1c4.9-3.3,5.7-8.7,7.1-13.7C98.7,119.2,98.9,118.9,99,118.6l0-0.1C99.1,118.5,99,118.6,99,118.6z M77.2,126.4
	c0.7-0.1,1-0.6,1.1-1.3C77.5,125.3,77.2,125.8,77.2,126.4l0,0.1L77.2,126.4z M99.8,28.2c0,0.2,0,0.4-0.1,0.6
	C99.7,28.6,99.8,28.4,99.8,28.2c-0.8-0.6-0.4-1.9-1.5-2.3c0.3-0.5,0.3-0.9-0.2-1.9c0.1,1,0.1,1.4,0.2,1.9
	C98.8,26.7,98.5,27.9,99.8,28.2z M74.2,86.8c-0.6,0.9-2,1.3-1.6,2.8c-0.1,0-0.2-0.1-0.3-0.1c0,0,0.1,0.1,0.1,0.1c0.1,0,0.1,0,0.2,0
	C73.3,88.8,74.4,88.3,74.2,86.8l0.1,0.1L74.2,86.8z M102.6,40.4C102.6,40.4,102.5,40.4,102.6,40.4c-0.6-2.5-1.8-4.6-3.2-6.7
	C100.2,36.1,100.4,38.7,102.6,40.4z M70.7,113.9c-2.7,3.2-5.3,6.3-8,9.5c0.2,0.1,0.3,0.3,0.5,0.4c2-2.4,4.1-4.7,6.1-7.1
	C70,115.9,70.9,115.2,70.7,113.9l0.1,0.1C70.8,114,70.7,113.9,70.7,113.9z M84.5,93.6c0-0.1,0.1-0.3,0.1-0.4
	C84.5,93.4,84.5,93.5,84.5,93.6c0.7,3.8,1.9,7.4,4.3,10.4C87.5,100.5,86.7,96.8,84.5,93.6z M65.3,63.7c-1.5,4.1-1.3,8,0.3,12
	C65,71.7,65.8,67.7,65.3,63.7l0.1-0.1L65.3,63.7z M50.6,110.4c0,0,0-0.1,0-0.1c0,0-0.1,0.1-0.1,0.1c-0.3-4.3-4.1-6.5-5.8-10
	C45.7,104.3,47.9,107.5,50.6,110.4z M47.4,180.6c2.9-3.3,3.4-7.4,3.9-11.5C49.6,172.9,48.2,176.6,47.4,180.6c0,0.2,0,0.3,0,0.5
	c0,0,0.1,0,0.1,0.1C47.5,181,47.4,180.8,47.4,180.6z M51.2,140.7C51.2,140.7,51.2,140.7,51.2,140.7
	C51.2,140.8,51.2,140.8,51.2,140.7c-6.1-4.1-13.1-7.3-16.5-14.6c-0.1-0.1,0.1-0.5-0.2-0.3c0.1,0.1,0.2,0.2,0.3,0.3
	c0,1.3,0.3,2.7,1.1,3.7C39.8,135,45.2,138.3,51.2,140.7z M102,97.3c0.7,0.2,1.1-0.3,1.5-0.6c3.1-2.7,6.3-5.3,8.8-8.6
	c2.7-3.6,4.3-7.7,5-12.1c-3.6,7.3-9,13.3-14.3,19.3C102.5,95.8,101.8,96.4,102,97.3c0,0.1-0.1,0.1-0.1,0.1c0,0,0.1,0.1,0.1,0.1
	C102,97.4,102,97.3,102,97.3z M13.8,187.6c0-0.3,0.1-0.6,0.1-0.9c0,0-0.1,0-0.1,0C13.8,187.1,13.8,187.3,13.8,187.6
	c3.6,12.8,12.8,21.8,21.3,31.2c-0.3-1.3-0.8-2.5-1.4-3.6c-2.1-3.8-4.9-7-8.1-9.9c-4.7-4.3-8.1-9.5-10.3-15.5
	C15,189.1,15,187.9,13.8,187.6z M34.8,213.4c0,0.1,0,0.3,0.1,0.4c0.1-0.1,0.2-0.1,0.2-0.2C35,213.6,34.9,213.5,34.8,213.4
	c-0.5-3.9-2.9-6.8-5.3-9.7c-4.5-5.2-9.5-9.9-12.9-16l-0.1,0l0.1,0c0.4,3.9,2.5,7,4.5,10.2c1.8,2.8,4.1,5.1,6.6,7.3
	C30.5,207.5,32.2,210.9,34.8,213.4z M45.4,214.7c2.8-2.2,5.9-3.9,8.9-5.7c7-4.2,13.7-8.8,18.5-15.6c1.2-1.6,2.8-3,3-5.2
	c0.1-0.1,0.2-0.1,0.2-0.2c-0.1,0-0.1,0-0.1,0c0,0.1,0,0.1,0,0.2c-0.8,0.1-1.1,0.7-1.5,1.2c-3.7,3.9-7.7,7.4-12,10.6
	c-5.3,4-10.7,7.9-15.6,12.5C46.1,213.1,45,213.4,45.4,214.7l-0.1-0.1L45.4,214.7z M102.5,151.2c-5.4,4.5-11.3,8.1-18.2,10
	c-3.2,0.9-6.4,2-9.6,3c-2.9,0.9-5.7,2.1-8.1,4.1c1.5,0,3-0.2,4.4-0.4c8.6-1.1,16.7-3.6,23.8-8.7C97.9,157.1,100.9,154.8,102.5,151.2
	L102.5,151.2z M75.9,184.4c-4.5,4.2-9.8,6.9-15.1,9.8c-5.1,2.7-9.4,6.4-13,10.9c-2.1,2.6-4,5.3-4.9,8.7
	C53.2,203.1,67.1,196.6,75.9,184.4z M52.6,117.8c-0.6-1.4-0.9-2.4-1.5-3.2c-1.6-2.7-3.1-5.4-5-7.9c-3.2-4.2-4.7-8.9-4.8-14.2
	c0-0.5,0.2-1.1-0.3-1.6C38.1,99,43.1,110.9,52.6,117.8z M90.1,47.9c0.2,1.8,0.4,3.6,0.6,5.5c0.5,5.8,0.6,11.7,2.9,17.2
	c1.2,3,2.8,5.7,5.5,7.6c-0.3-2.3-0.9-4.4-2.2-6.2c-2.2-3-3.1-6.5-3.7-10.1c-0.3-2.3-0.4-4.6-0.7-6.9C92.3,52.5,91.8,50,90.1,47.9z
	 M72.2,163c11.5-1.6,27.3-9.3,29.7-14.7c-4.3,4-9.1,6.7-14.3,8.6C82.5,158.8,77.2,160.4,72.2,163z M93.4,48.6
	c1.7,16.6,3.3,22.4,7.1,25.3C96.5,65.9,95.8,57,93.4,48.6z M82.5,93.6c0,7.3,3.1,13.5,6.6,20.3C89.3,105.9,83.4,100.6,82.5,93.6z
	 M62.4,71.4c-0.7,3,0.2,5.6,1.5,8.1c0.2-0.1,0.4-0.1,0.6-0.2C63.9,76.7,63.1,74.1,62.4,71.4z M68.5,152.2c0.2-2.1,0.4-4.2-0.4-6.1
	C67.8,148.1,67.6,150.2,68.5,152.2z M46,178.8c-1.2,2.1-1.6,4.5-1.2,7C45.2,183.4,45.6,181.1,46,178.8z M115.1,75.1
	c1-1.8,1.8-3.8,1.4-6C116,71.1,115.5,73.1,115.1,75.1z M70.8,110.5c1.4-0.9,2.1-2.1,2-3.7C72.1,108,71.4,109.2,70.8,110.5z
	 M82.5,89.6c-0.3,0.8-0.3,1.5-0.2,1.5C83,90.9,82.6,90.4,82.5,89.6z M97.8,22.6l0.1-0.2l-0.1,0L97.8,22.6z"/>
</svg>
