<?xml version="1.0" encoding="utf-8"?>
<!-- Generator: Adobe Illustrator 25.3.0, SVG Export Plug-In . SVG Version: 6.00 Build 0)  -->
<svg version="1.1" id="Layer_1" xmlns="http://www.w3.org/2000/svg" xmlns:xlink="http://www.w3.org/1999/xlink" x="0px" y="0px"
	 viewBox="0 0 74.2 249.2" style="enable-background:new 0 0 74.2 249.2;" xml:space="preserve">
<path d="M10.8,39.4c3.5,6.2,8.9,9.1,15.9,9.1c2.3,0,3.2,0.7,3.7,2.8c0.8,3.4,1.8,6.8,3,11c-1.8-1.5-2.8-2.5-4-3.4
	c-3.3-2.6-7.1-3.7-11.2-3.6c-1.2,0-2.5,0.1-3.1,1.4c-0.7,1.4-0.1,2.6,0.8,3.6c4.3,5.2,9.7,8.5,16.3,9.7c2.6,0.5,3.8,1.5,4.2,4.1
	c0.4,2.5,1,5.1,1.3,7.8c-3.6-3.7-7.7-6.2-12.9-6.5c-0.3,0-0.6-0.1-0.9-0.1c-1.6,0.1-3.4-0.2-4.2,1.6c-0.7,1.6,0.4,2.9,1.4,4.1
	c4,4.5,9,7.6,14.8,8.8c2.9,0.6,4.1,1.7,4.4,4.6c0.6,5.4,1.5,10.7,2.3,16.4c-1.4-0.3-1.8-1.4-2.4-2c-3.7-4-8.3-6-13.7-6
	c-1.3,0-2.7,0.1-3.4,1.5c-0.7,1.4,0.1,2.6,0.9,3.6c4.4,5.2,10,8.4,16.6,9.7c2.2,0.4,2.8,1.3,2.9,3.3c0.1,3.9,0.5,7.8,0.7,11.8
	c-1.3-0.2-1.5-1.3-1.9-2c-2.8-4-6.7-6.3-11.3-7.4c-1.3-0.3-2.7-0.5-3.7,0.7c-1.1,1.3-0.6,2.7,0.1,4c3.2,5.6,7.7,9.9,13.7,12.3
	c2.8,1.1,3.6,2.7,3.6,5.6c0.4,30.7-3.5,60.8-10.9,90.5c0,0.1-0.1,0.2-0.1,0.3c0,0.9-1.2,2.3,0.1,2.6c1.3,0.3,1.1-1.3,1.4-2.2
	c7.8-30,11.5-60.4,11-91.4c0-2.9,0.5-4.4,3.5-5.5c5.6-2.1,10.1-5.8,13.4-10.8c0.9-1.4,1.9-2.9,0.9-4.5c-1.1-1.8-3-1.2-4.7-0.8
	c-4.8,1.1-8.7,3.5-11.4,7.8c-0.3,0.5-0.7,1-1,1.5c-0.1,0.1-0.3,0.2-0.7,0.5c-0.4-5.1-0.8-10.1-1.1-15.1c-0.1-1.4,1.2-1.5,2.1-1.8
	c4.9-1.7,8.9-4.6,12.3-8.4c0.9-1,1.7-2,2.3-3.1c0.8-1.5,2.1-3.1,0.7-4.7c-1.2-1.5-3-0.9-4.5-0.5c-4.8,1.1-8.7,3.6-11.3,7.9
	c-0.6,1-0.9,2.3-2.3,3.1c-0.9-6.5-1.8-12.8-2.7-19.2c-0.2-1.5,1-1.8,2-2.2c5-1.9,9.2-5,12.6-9c0.9-1.1,1.7-2.3,2.3-3.5
	c1.5-3,0.3-4.8-3-4.4c-5.3,0.6-9.5,3.1-12.5,7.6c-0.8,1.2-1.6,2.5-2.8,4.5c-1-4.9-1.9-9.1-2.8-13.3c-0.3-1.5,1-1.8,1.9-2.3
	c5.3-3.4,9.4-7.8,11.9-13.7c0.7-1.5,1.6-3.3,0.1-4.8c-1.6-1.6-3.4-0.5-5.1,0.2c-5.4,2.4-8.7,6.6-10.6,13c-1.6-5.5-2.9-10.1-4.2-14.7
	c-0.4-1.5,0.9-1.8,1.7-2.4c4.9-3.1,8.4-7.4,10.7-12.8c0.6-1.5,1.4-3.2,0-4.5c-1.5-1.5-3.2-0.4-4.7,0.3c-5.1,2.5-8,6.9-9.6,12.3
	c-1.3-4.1-3.5-7.8-3.2-12.3c0.3-6.3-1.6-12.1-5.3-17.3c-1-1.4-2.1-3-4.1-2.4c-1.8,0.5-2,2.4-2.3,4c-1.1,7,1.1,13,6.7,17.1
	c3.8,2.9,4.7,6.7,6.2,11.3c-2.4-1.7-4.2-3.1-6.1-4.3c-2.2-1.5-4.6-2.4-7.2-3c-1.3-0.3-2.7-0.5-3.6,0.7C9.5,37,10.2,38.3,10.8,39.4z
	 M24.4,29.5c-3.3-4.8-4.5-10.4-6.6-15.7c-0.3,5.6,1.9,10.4,4.5,15.7c-5-3.7-7.4-10.9-5.8-15.9c0.5-1.5,1.3-2.5,2.6-0.8
	C22.9,17.7,24.6,23.3,24.4,29.5z M31.6,43c0.8-5.5,3.6-9.6,8.7-11.9c0.6-0.3,1.4-0.8,2-0.2c0.6,0.5,0.5,1.3,0.2,2
	c-2,4.9-5,9-9.6,11.8c1.9-4.7,5.5-8.3,8.3-12.5C36.7,34.6,34.3,38.9,31.6,43z M55.4,75.7c-5.4,1.9-9.3,5.7-13.1,9.8
	c2.2-6,6.3-9.8,12.6-11.1c0.7-0.1,1.7-0.5,2.2,0.4c0.4,0.7,0,1.4-0.4,2c-3.2,5.1-7.7,8.7-13.4,10.8C46.5,82.7,51.3,79.6,55.4,75.7z
	 M46,112.7c2.1-6.1,6.2-9.9,12.5-11.2c0.8-0.2,1.7-0.4,2.2,0.3c0.6,0.8,0.1,1.6-0.4,2.2c-3.3,5-7.8,8.5-13.4,10.6
	c3.3-4.5,7.6-7.8,11.7-11.5C53.4,104.9,49.7,108.7,46,112.7z M60.6,126.7c-5.4,1.7-9.3,5.6-13.1,9.5c2.1-5.9,6.1-9.6,12.2-10.9
	c1.6-0.3,3.3-0.1,2.1,2c-3.1,5.5-7.7,9.2-13.7,11.2C51.7,133.9,56.2,130.4,60.6,126.7z M42.6,136.6c-3.5-4.6-7.3-8.3-12.5-10.4
	c4.1,3.9,8.6,7.5,11.8,12.3c-5.7-2.2-10.1-6-13.1-11.3c-0.7-1.3-1-2.6,1.3-2.5C35.4,125,41.7,130.7,42.6,136.6z M40.7,113.5
	c-4-3.6-8.4-6.6-13.8-7.6c4.7,3.2,9.8,5.7,13.8,9.8c-6.3-1.2-11.6-4.1-15.6-9.1c-0.8-1-0.8-1.8,0.8-2.1
	C31,103.3,39.4,108.4,40.7,113.5z M37.1,85.7c-6.5-5.2-10.3-7.2-14.3-7.2c5.2,2.7,10,5.5,14.1,9.4c-6-1.2-11.1-3.9-15.1-8.6
	c-0.4-0.5-1-1.1-0.6-1.9c0.4-0.8,1.2-0.7,1.9-0.7c2.1,0,4.2,0.3,6.2,1.1C33.2,79.5,36.5,82.9,37.1,85.7z M37.1,66.5
	c1.1-6.8,4-11.4,9.5-14c1-0.5,2.3-1.5,3.3-0.5c0.8,0.9,0,2.1-0.4,3.1c-1.6,3.8-4,6.9-7.1,9.7c-1,0.9-2,2.1-3.9,2.3
	c2.8-5.5,6.8-9.5,10.2-14C43.5,56,40.3,60.8,37.1,66.5z M32.5,65.7c-2.2-1.5-4.2-3.1-6.4-4.4c-3.4-2.1-4.9-2.5-7.7-2.5
	c5,2.8,9.9,5.3,13.8,9.3c-5.9-1.1-10.8-3.8-14.7-8.3c-0.8-0.9-2.1-2.2,0.4-2.8C22.8,55.8,30.9,60.6,32.5,65.7z M13.9,36.7
	c5.3,1.4,9.7,4.2,13.1,8.7c-5-1.7-9.1-4.9-13.6-7.4c2.8,4.1,7,6.1,11.1,8.5c-5.4-0.3-9.4-2.9-12.1-7.6
	C11.4,37.2,12.1,36.2,13.9,36.7z"/>
</svg>
