<?xml version="1.0" encoding="utf-8"?>
<!-- Generator: Adobe Illustrator 25.3.0, SVG Export Plug-In . SVG Version: 6.00 Build 0)  -->
<svg version="1.1" id="Layer_1" xmlns="http://www.w3.org/2000/svg" xmlns:xlink="http://www.w3.org/1999/xlink" x="0px" y="0px"
	 viewBox="0 0 45.2 110.5" style="enable-background:new 0 0 45.2 110.5;" xml:space="preserve">
<path d="M17.9,89.8c1-4.3,1.7-8,2.8-11.5c1.1-3.4,3.4-5.8,7.3-6c3.1-0.2,5.3,1.1,6.6,3.8c1.7,3.5,2.4,7.1,0.2,10.7
	c-1.1,1.9-2.9,2.1-4.9,1.9c-1.5-0.2-2.7-0.9-3-2.3c-0.5-1.9,0.7-3.1,2.1-4.3c1.1-0.9,3.9,0,3-3c-0.4-1.4-1.6-1.7-2.8-1.8
	c-2.1-0.2-4.2-0.1-5,2.4c-0.6,1.9-1.2,3.9-1.6,5.9c-1.1,6.4-1.8,12.8-0.6,19.2c0.1,0.8,0.2,1.7,0.2,2.5c-0.1,1.4-0.3,2.9-2,3.1
	c-1.9,0.3-2.2-1.4-2.5-2.6c-1.1-4.6-2.2-9.2-3.1-13.9c-3.4-17.3-4.2-34.6,0.4-51.9c0.5-2,0.5-3.6-1.5-4.8c-0.8-0.5-1.8-1.3-2.1-2.2
	c-3.3-8.8-9.6-16.4-11.1-26C0.1,7.9,0,6.5,0,5.1c0-2,0.7-3.8,2.7-4.5c1.8-0.7,3.1,0.5,4.5,1.6c2.2,1.8,2.8,4.5,4.6,7
	c0.5-1.6,1-2.9,1.5-4.2c0.8-2.2,1.6-4.5,4.5-5c3.1-0.6,3.8,2.1,5.2,3.9c2.1-1.7,3.8-4.2,6.7-3c3.5,1.5,2,5.2,2.9,8.4
	c1.6-1.9,3-3.5,4.4-5.1C38.5,2.4,40.4,1,43,2.1c2.9,1.2,2.2,4,1.9,6.2c-0.4,3.4-2.1,6.4-4.1,9.2c-3.5,4.7-7.4,9.2-9.3,15
	c-1.3,3.8-4.4,6.7-8.6,7.2c-3.4,0.4-4.2,2.4-4.8,4.9c-2.1,10-3.3,20.1-2.3,30.3C16.4,79.6,16.4,84.4,17.9,89.8z M12.2,28
	c1.4,4.7,3.5,8.1,8.2,8.3c3.3,0.1,6-1.8,7.6-5c0.7-1.5,0.9-2.6-1.3-2.6C22,28.7,17.4,27.2,12.2,28z M22.2,24.2
	c3.9-5.2,6.2-10.8,4.6-17.4C23.1,12,22.1,17.9,22.2,24.2z M40.9,6.7c-4.9,4-7.7,9.1-8.9,15.3C36.6,17.8,39.9,12.9,40.9,6.7z
	 M17.9,6.4c-2.3,5.4-2.8,11-1.2,16.6C18.9,17.6,18.3,12,17.9,6.4z M4.9,6c-0.7,5.9,0.9,11,5,15.2C9.2,15.8,8.2,10.5,4.9,6z"/>
</svg>
