<?xml version="1.0" encoding="utf-8"?>
<!-- Generator: Adobe Illustrator 25.3.0, SVG Export Plug-In . SVG Version: 6.00 Build 0)  -->
<svg version="1.1" id="Layer_1" xmlns="http://www.w3.org/2000/svg" xmlns:xlink="http://www.w3.org/1999/xlink" x="0px" y="0px"
	 viewBox="0 0 79 221.6" style="enable-background:new 0 0 79 221.6;" xml:space="preserve">
<path d="M3.5,24.7C4,24.8,4.5,25,5,25c1.3,0.1,2.7-0.1,3.2,1.6c0.3,1.2-0.1,2.3-1,3.2c-1.1,1.1-2.5,1.4-4,0.9
	c-2.7-0.9-4-4.5-2.8-7.5c1.7-4,8.2-7.5,13.4-7c1.5,0.1,3,0.5,4.8,0.8c-0.8-2.2-2-3.9-4-5c-1.3-0.7-2.4-1.1-2.9,0.9
	c-0.6,2.1-2.2,2.9-4.3,2.3c-1.7-0.4-2.1-2-2-3.4c0.1-2,1.1-3.5,3.2-3.8c3.3-0.5,6.5-0.4,9.3,2c1-1.6,1.3-3.2,1.6-4.8
	C20.4,1.6,22.9-0.3,26,0c0.7,0.1,1.6,0.3,2.2,0.7c1.7,1.2,1.9,3,1.5,4.9c-0.3,1.2-1.2,1.7-2.4,1.7c-2.4-0.1-2-2.1-2.3-3.7
	c-3.3,2.7-3.8,5.2-2,11c1.6-1.8,2.8-3.8,4.7-5.1c3-2.1,6.3-3.3,9.8-1.4c3.3,1.8,4.5,4.8,4.3,8.5c-0.1,1.9-0.7,3.3-2.6,3.9
	c-1,0.3-2.2,0.2-2.8-0.8c-1-1.7-0.6-3.4,0.8-4.5c1.1-0.8,1.3-1.5,0.6-2.6c-0.9-1.5-2.2-2.2-3.9-2.2c-4.7-0.1-9.1,5.1-8.5,10.2
	c0.2,1.5,0.6,3,1,4.7c1.4-0.8,2.5-1.7,3.7-2.3c2.3-1.1,4.4-0.3,5.9,1.5c1.7,2,0.3,3.7-0.8,5.2c-1.3,1.8-3.4,2.8-4.1,5.1
	c-0.8,2.8-0.5,5.6,0.5,8.1c2.9,7.7,4.7,15.7,6.3,23.7c0,0.2,0.3,0.4,0.8,1c2.4-3.9,4.3-8,7.3-11.3c3.6-4,7.6-7.5,13.1-8.7
	c6.4-1.5,13.2,3.9,13.1,10.5c0,2.1-0.8,3.7-2.7,4.8c-1.9,1.1-3.4,0.4-4.2-1.3c-0.9-1.8-0.4-3.6,1.9-3.7c3.1-0.2,1.7-2.1,1.2-3.2
	c-1.8-4.1-7.5-5.3-12.3-2.8c-4.7,2.4-7.7,6.4-10.6,10.8c1.3,0.6,2.1-0.4,3-0.6c2.4-0.5,4.7-0.5,6.2,1.9c1.6,2.5,1,4.8-0.6,6.8
	c-1.6,2-3.7,3.1-6.1,4c-5.5,2-7.3,4.3-6.8,9.9c0.6,7.5,1.8,14.9,2.9,23.1c3.8-6.1,8.1-10.7,13.6-14.1c2.5-1.5,5.1-2.6,8.1-2.4
	c5.5,0.3,8.9,6.1,6.4,11c-0.6,1.3-1.4,2.2-3,1.9c-1.2-0.2-1.9-1-2-2.1c-0.1-1.4,0.2-2.3,2.1-2.4c2-0.2,0.8-2,0.3-2.7
	c-1.8-2.3-4.4-2.7-7-1.9c-6.4,2.1-10.7,6.6-14.7,12.8c1.8-0.8,2.8-1.2,3.8-1.7c2.2-1.1,4.4-0.9,6.2,0.8c1.7,1.5,1.1,3.6,0.6,5.5
	c-0.9,3-2.9,4.8-5.9,5.7c-6.6,2-7.7,3.6-7.7,10.3c0,1.2,0,2.3,0.1,3.5c0.3,3.4,0.6,6.7,0.9,10.9c4.1-5.2,8.3-9.4,13.3-12.6
	c4.5-2.9,9.3-4.1,14.3-1.2c5,2.9,5.8,9.6,1.6,12.3c-1.3,0.8-2.8,1.7-4.1-0.2c-1.2-1.8,0.1-2.9,1.2-4c0.7-0.7,2.6-0.1,2.3-2
	c-0.2-1.6-1.3-2.5-2.6-3.3c-1.7-1.1-3.6-1.8-5.6-1.2c-9,2.8-15,9.1-19.5,17.7c2-0.3,2.3-1.6,3.2-2.3c2.1-1.5,4.3-2.6,6.8-1.4
	c2.5,1.2,3,3.4,2.9,5.9c-0.1,2.8-1.2,5.1-4,6.1c-1.5,0.5-3,0.8-4.5,1.2c-4.9,1.3-6.4,3.2-6.4,8.3c-0.1,6.1,0.2,12.2-0.6,18.7
	c1.4-0.8,1.7-2,2.4-3c4.7-6.8,11-11.3,19.2-13c5.8-1.2,10.7,1.3,12.8,6.3c0.8,1.8,0.5,3.3-1,4.5c-1.4,1.2-2.9,1.8-4.6,0.5
	c-1.8-1.5-1-3,0.1-4.4c0.4-0.5,1-0.8,1.7-1.3c-2.5-3-5.8-3.3-9.1-2.4c-9.1,2.3-15.4,8-19.3,16.6c1.7,0.7,2.8-0.6,4.2-0.8
	c3.2-0.4,5.4,1,5.8,3.8c0.5,3-0.9,4.7-4.4,5.1c-1,0.1-2.1,0.1-3.1,0.3c-5.1,0.9-5.8,1.9-6.2,7c-0.4,4.9-0.3,9.9-1.2,14.8
	c-0.2,1.2-0.2,2.5-1.9,2.3c-1.4-0.2-1.3-1.6-1.1-2.5c1-4.2-1.1-6.3-4.6-7.9c-1.2-0.5-2.3-1.3-3-2.4c-1.1-1.7-1.9-3.4-1-5.5
	c0.9-2,2.4-2.6,4.8-2.1c-2.1-4.1-5-6.8-8.8-8.3c-3.3-1.3-7.1,0.4-8.1,3.4c-0.3,1-1.4,2.6,1.4,2c2.2-0.5,2.7,1.6,2.6,3.4
	c0,1.9-1.2,2.9-3,2.7c-1.9-0.1-3-1.4-3.7-3c-2.5-5.8,1.8-12.1,8-11.9c6.2,0.2,10.2,4,13.6,8.6c0.9,1.2,1.7,2.5,2.9,4.4
	c0.6-6.6,1.3-12.5,1.7-18.5c0.2-4-1.1-5.2-5.2-5.8c-1.4-0.2-2.9-0.2-4.2-0.7c-2.3-0.9-3.6-2.6-3.2-5.2c0.4-2.6,2.4-3,4.6-3.3
	c2.3-0.3,4.1,1.2,6.3,1.6c-1.7-7.7-13-8.9-18.3-4.9c-1.3,1-2.4,2.4,0,3.9c2.3,1.4,1.5,3.4,0,4.9c-1.6,1.6-3.3,1.1-4.8-0.4
	c-2.1-2.2-1.6-6.4,1-9.2c5-5.4,15-6,20.7-1.4c0.9,0.7,1.7,1.5,2.6,2.2c1-1,1-2,1-3.1c0.1-5.7,0.3-11.5,0.3-17.2
	c0-3.9-0.8-4.7-4.6-4.2c-1.3,0.2-2.6,0.4-3.9,0.1c-2.7-0.5-4.2-1.9-4.3-4.7c0-2.7,1.8-4.5,4.7-4.9c0.9-0.1,1.8,0.1,2.7,0.2
	c0.9,0.2,1.5,1.1,2.7,0.7c-0.4-1.6-1.2-2.8-2.4-3.7c-4.1-3.1-8.7-4.7-13.8-4.5c-3.2,0.1-5.8,3.3-5.4,6.4c0.2,1.5,0.8,2.7,2.4,1.4
	c1.7-1.3,2.7-0.7,3.3,1c0.7,1.8,0.5,3.3-1.6,4.1c-2.5,0.9-5.6-0.7-6.6-3.4c-2.3-6.7,2.1-13,9.2-12.7c6.3,0.3,11.9,2.5,17,7.6
	c-0.5-8.1-0.9-15.6-1.3-23c-0.1-2.2-1.6-3.3-3.4-3.8c-1.9-0.5-3.8-0.7-5.8-1c-3.4-0.6-4.9-2.1-4.6-4.6c0.4-2.9,3.2-5.2,6.1-4.8
	c1.4,0.2,2.7,0.7,4.6,1.2c-1.9-3.4-4.5-5.1-7.6-6c-5.5-1.4-11-2.5-15.8,1.9c-1.7,1.6-1.9,3.4-1.3,5.3c0.2,0.7,0.9,1.9,1.9,0.6
	c0.6-0.9,1-2,2.3-1.1c0.9,0.6,1.5,1.5,1.3,2.7c-0.2,1.3-0.9,2.1-2.2,2.5c-2.7,0.8-6.1-1.4-6.6-4.5c-0.6-3.3,0.2-6.2,3.1-8.2
	c6.3-4.5,13-4.7,19.9-1.5c1.9,0.9,3.6,2,5.7,3.2C37,80.4,37,73.3,33.6,66.9c-1.6-3.1-3.7-5-7.3-4.7c-1,0.1-2.1-0.3-3-0.6
	C21,60.9,20,59,19.8,56.8c-0.2-2.2,1-3.6,2.9-4.7c1.4-0.8,2.9-1,4.7-1.2c-0.5-1.5-1.8-1.7-2.8-2.3c-4.7-2.7-9.6-1.8-14.5-1
	c-1.7,0.3-3,1.6-4,3c-0.6,0.8-1.3,1.9-0.9,2.9c0.5,1.4,1.6,0.8,2.6,0.5c1.5-0.4,2.1,0.7,2.5,1.9c0.5,1.5,0.2,2.9-1,3.9
	c-1.2,1.1-2.6,1.1-3.9,0.3c-3.2-1.9-4.3-6.4-2.5-9.9c3-5.7,10.9-8.9,17.1-6.7c3.5,1.3,7.1,2.5,10.6,5.5c-0.6-2.3-1.1-3.8-1.4-5.4
	c-0.7-4.7-2.9-7.4-8-7.3c-2.3,0.1-3.9-1.4-4.8-3.4c-0.6-1.5-0.3-3.1,0.8-4.4c1.4-1.7,3.4-0.9,5.1-1.5c-0.5-6.7-7.9-9.8-14.2-5.9
	C6.4,22.1,5,23.5,3.5,24.7c0,0.2,0.1,0.5,0.1,0.7c-0.1,0.4,0.2,0.5,0.2,0.3C3.9,25.4,3.6,25,3.5,24.7z M46.2,156.7
	c2.9-0.8,5-1.3,7.1-2c2-0.7,3.2-2,3.1-4.3c-0.1-2.8-1.3-3.6-3.6-2C49.9,150.2,48.2,153.1,46.2,156.7z M41,74.2
	c2.9-1.1,5.2-1.9,7.5-2.8c1.5-0.6,2.8-1.4,3.2-3.1c0.3-1,0.4-2.2-0.4-2.9c-0.8-0.6-1.7-0.1-2.5,0.3C45.1,67.4,42.4,69.8,41,74.2z
	 M46.3,116.7c3.6-0.4,6.4-0.9,8.4-3.5c0.9-1.1,1.3-2.4,0.3-3.5c-1.1-1.3-2.2-0.6-3.4,0.1C49.3,111.4,47.9,113.7,46.3,116.7z
	 M32.9,59.9c-1.5-3.2-3.3-5.5-6.8-5.5c-1.5,0-2.5,0.7-2.5,2.3c-0.1,1.4,0.8,2.2,2.1,2.2C28,58.9,30.3,59.3,32.9,59.9z M39.1,99.3
	c-1.7-3.3-4.3-4.2-7.3-4.3c-0.8,0-1.6,0.3-1.7,1.2c-0.1,0.7,0.6,1.1,1.2,1.4C33.6,98.9,36.1,98.8,39.1,99.3z M39.8,137.6
	c-1.2-1.5-2.6-2.2-4-2.6c-1.4-0.4-2.4,0.3-2.6,1.6c-0.2,1.3,0.8,1.8,1.9,1.9C36.6,138.5,38.1,138.6,39.8,137.6z M46.2,195
	c2.2-0.3,4-0.5,5.8-0.8c0.9-0.1,2-0.4,1.6-1.6c-0.3-0.9-1.2-1.4-2.2-1.2C49.3,191.6,47.7,192.8,46.2,195z M39.4,175.1
	c-1.4-1.9-3-3-5.2-3.2c-0.9-0.1-1.5,0.5-1.7,1.3c-0.2,0.9,0.5,1.1,1.1,1.2C35.5,174.8,37.3,175.7,39.4,175.1z M37.9,209
	c-0.6-1.1-0.8-1.6-1.2-1.9c-0.9-0.8-1.3-2.3-2.7-2.3c-0.2,0-0.7,0.5-0.7,0.8c-0.1,1.7,1.3,2.3,2.5,3C36.1,208.8,36.7,208.8,37.9,209
	z M24.2,32.8c-0.9-2-2.2-2.4-3.8-2.3c-0.2,0-0.5,0.7-0.4,0.9C20.7,33.4,22.4,32.8,24.2,32.8z M30.3,30.1c1.2-1.3,2.8-1.6,2.6-3.4
	c0-0.2-1-0.6-1.3-0.5C30.1,26.9,29.6,28,30.3,30.1z"/>
</svg>
