<?xml version="1.0" encoding="utf-8"?>
<!-- Generator: Adobe Illustrator 25.3.0, SVG Export Plug-In . SVG Version: 6.00 Build 0)  -->
<svg version="1.1" id="Layer_1" xmlns="http://www.w3.org/2000/svg" xmlns:xlink="http://www.w3.org/1999/xlink" x="0px" y="0px"
	 viewBox="0 0 217.4 250.2" style="enable-background:new 0 0 217.4 250.2;" xml:space="preserve">
<path d="M73.4,125.3c-10.9-0.4-20.9,6.8-26.4,19.2c2.9,1,7.2,0.4,7.3,5c0.2,5-4.2,5.3-8,6.4c2.7,4.1,6.2,8.4,0.2,11.5
	c-5.1,2.6-6.8-1.5-7.9-6.2c-3.1,3.2-5.3,8.5-10.3,4.1c-3.4-2.9-2.4-5.9,3.7-11c-4.7-1.4-9.4-3.1-6.2-9.2c1.7-3.2,4.9-3.3,9.1-0.7
	c1-3-0.1-7.2,3.8-8.5c3.1-1.1,5.1,1.4,6.8,4.7c6.3-11.4,15.8-17.1,28.1-18.9c-8-5.4-20.1-5.6-38.6-0.6c4,3.3,4.5,7,0.5,10.3
	c-3.8,3.2-6,0.1-8.3-3.3c-1.7,4.3-1.5,11.2-8,8.7c-6.4-2.5-2.5-7.3-0.1-11.8c-4.8,1.3-9.3,1.7-9.2-4.4c0.1-5.1,3.4-7.1,8.7-5.4
	c-0.8-4.2-4.3-8.9,1.8-10.8c5.4-1.7,5.5,3.4,6.5,7.4c3.1-1.9,5.8-5.8,9.6-2.7c2.8,2.4,1.1,5.4-0.2,8.2c0,0-0.1-0.1-0.1-0.1
	c4.8,0,9.5-0.9,14.9-2.3c-6.2-5.2-9.4-11.4-10.7-18.5c-0.2-1.2-1-2.7,0.5-3.5c1.1-0.6,2.1,0.4,3,0.9c6.7,3.8,11.3,9,11.6,17.2
	c0.1,1.8-0.2,4,2.7,3.9c8.9-0.3,16.6,3.5,24.4,7.1c0.6,0.3,1.4,0.4,2.1,0.6c1.2-4.1,0.4-6.7-4.1-7.3c-0.9-0.1-1.7-0.7-2.5-1.2
	c-3-1.9-6.9-10.3-5.3-10.8c3.7-1.3,5.7,2.4,8.5,3.9c0.6,0.4,1.2,0.8,1.9,1.2c0,0.2,0,0.4,0.1,0.5c0.1,0.1,0.2,0.1,0.4,0.2
	c-0.2-0.2-0.4-0.4-0.5-0.7c-0.4-5.3-2.5-9.7-6.5-13.1c-1.5-1.3-3.1-2.5-3.8,0.7c-0.1,0.3-0.4,0.6-0.7,0.9c-1.1,1.2-3.5,2.3-3.8,1.4
	c-2.3-5.7-10.3,1-10.9-4.5c-0.5-4,1.1-8.5-0.1-12.9c-0.1-0.4,0.9-1.5,1.4-1.5c3.5-0.3,6.1-1.3,8.8-4.1c1.6-1.7,4.6,1.1,4.2,3.9
	c-0.4,2.6,0.2,2.9,2.5,3.3c2.7,0.5,4.8,2.7,2.7,5.2c-2.4,2.8-1,3.5,1.1,5.3c7.5,6.3,9.3,15.1,9.7,24.2c0.2,5.4,1.5,9.2,6,12.8
	c9.4,7.4,13.9,17.7,13.6,30.5c3.2-4.8,5.1-11.3,5.8-21.1c0.5-7.6,0.3-15.3,0.5-22.9c0.1-2.9-0.8-4.2-4-4.6
	c-7.3-0.8-11.6-6.2-15.9-11.5c-1.8-2.3-1-3.3,1.7-3.3c6.2-0.1,11.9,1,16.1,6.5c0.8-9-6.8-21-14.8-24.4c-2.1-0.9-3.2,0.6-4.5,1.4
	c-4.7,2.8-9.2,2.5-13.7-0.4c-2.3-1.4-2.4-2.7,0.3-3.7c3-1.1,6-1.8,10.2-2c-9.3-6.4-19.2-8.2-29.6-9.8c0,3.2,1.9,6.8-2.1,8.5
	c-3.7,1.6-4.7-1.8-6.9-3.9c-2.2,2.8-2.8,9.2-8.4,5.4c-4.5-3-2.6-6.7,1.5-10.1c-4.9-0.7-9.8-1.4-8.1-7.4c1.4-5.1,5.2-4.3,9.5-1.6
	c-1.3-4.7-2.4-9.2,3.2-9.9c4.8-0.7,5.2,3.6,5.5,7.2c2.7-0.6,5.6-3.3,7.8-0.1c2.2,3.3,0.6,6.2-3.2,8.7c3.9,0.7,7,1.2,11.1,2
	c-3.6-4.8-4.7-9.5-5.2-14.3c-0.1-1-0.5-2.4,0.7-3c1.2-0.6,2.1,0.4,3,1c4.3,3.1,6.6,7.1,5.8,12.5c-0.6,3.7,0.8,5.2,4.3,6.3
	c12.2,3.9,22,11.5,31,20.4c0,0,0.2,0,0.2,0l-0.3,0.1c-0.1-10.1-5.1-18.5-9.5-27.1c-0.8-1.7-2.1-1.3-3.3-0.6
	c-6.2,3.5-11.1,0.5-15.7-3.4c-1-0.8-2.5-1.6-2.1-3c0.4-1.7,2.3-1.5,3.7-1.9c4.3-1.1,8.5,0.3,12.7,0.9c0,0,0,0.3,0,0.3l-0.1-0.2
	c-2.5-4.3-5.1-8.7-7.6-13c-1.9,0.7-1,2-1.1,2.9c-0.5,3.7-2.8,5.3-6.2,5c-3.3-0.3-4.7-2.7-4.4-6c0.1-1.5,0.2-3,0.3-4.4
	c0.2-0.1,0.3-0.2,0.5-0.4c-0.1,0-0.3,0-0.3,0c-0.1,0.1-0.1,0.2-0.1,0.4c-0.8,0.4-1.7,0.8-2.4,1.3c-2.1,1.6-4.3,2.3-6.7,0.8
	c-2.4-1.5-2.6-3.9-2.3-6.4c0.3-2.9,2.3-4,4.8-4.7c1.2-0.3,2.6,0.2,3.9-1.4c-2.4-2.5-7-4.3-4.5-9.2c1.1-2.2,2.5-3.7,5-3.9
	c3.5-0.2,4.6,2.6,5.9,5.1c2.6-2.4,2.8-9.4,8.2-6.3c6.3,3.6,1.3,8.3-1,12.9c5-0.2,8.8,1.4,9,6.3c0.1,3.6-3,5.3-6.5,5.5
	c-0.1-0.1-0.2-0.2-0.3-0.2c0.1,0,0.3,0.1,0.4,0.1c0.6,2.6,2.2,4.6,4.3,7c0.9-4.7,4-7.4,7.2-9.9c0.5-0.4,1.4-0.8,2-0.6
	c1.2,0.3,0.9,1.4,0.7,2.3c-1,4.5-1,9.3-4.4,13c-3.7,4.1,1.9,5.8,2.7,9.1c1.2-7.1,3.7-13.5,7.6-19.3c1.1-1.7,1-2.5-0.8-3.4
	c-2.3-1.1-3.2-3.1-2.6-5.6c0.7-2.8,3.1-2.9,5.6-3.1c-0.5-2.3-3.5-3.7-2.3-6.4c0.8-1.8,3.3-4,3.9-3.1c3.4,5.9,11.2-4,12.4,3
	c0.7,4.1,0.8,7.6,3.6,11.2c2.1,2.6-1.7,5-7,3.7c-0.7,2.4,1.2,5.9-2.8,6.9c-3.5,0.9-5.1-1.3-6.3-4.5c-10.6,13.4-10.9,27-1.8,40.9
	c1.8-5.7,5.5-10.2,9.9-14.4c0.8-0.7,1.4-2,2.7-1.3c1.2,0.6,1,1.9,0.9,3c-0.5,7-2.6,13.2-9.2,16.8c-2.5,1.4-3.4,3.1-2.8,5.9
	c2.5,11.7,3.8,23.5,5.1,35.6c2.4-6.1,4.7-12.3,7.1-18.4c2.8-7,6.1-13.6,10.9-19.5c1.6-2,2.4-4.1,2.5-6.6c0.3-5.8,1-11.5,1.3-17.3
	c0.1-3,0.6-5.6-4.5-6.7c-3.3-0.7-5.5-6.4-8.1-10.1c-0.4-0.5,0-2.4,0.5-2.6c3.1-1.2,4.2-3.2,4.2-6.6c0-1.7,3.5-2.7,3.9-1.6
	c1.7,4.8,10.9-1,9.3,6.2c-0.7,3.1-0.7,4.8,0.9,7.3c1.3,2,0.1,4.2-1.9,4.3c-3.8,0.2-2.9,2.1-2.5,4.4c1.4,7.2-0.5,14.3-0.7,22.3
	c3.1-3,5.6-5.4,8.2-7.7c2-1.8,0.6-3.4-0.3-5c-3.8-6.9-1.9-13.3,1.6-19.6c0.4-0.8,1.1-1.8,1.8-1.9c1.4-0.2,1.5,1.4,1.8,2.3
	c1.8,6.4,1.7,12.9-0.5,20.2c4-2.3,7.2-4.2,10.8-6.2c-3.7-2.5-5.7-5.7-2.9-9.6c2.3-3.1,5.3-3,8.6,0.1c0.1-4.2-1.6-9.8,4.2-9.8
	c5.8,0,4.8,5.4,4.7,9.7c4.1-1.4,8.5-3.4,10.3,1.6c1.9,5.2-3.2,6.2-7,7.6c2.6,4,7.4,8,1,11.7c-4.9,2.9-6.8-1.3-8.1-5.9
	c-2.1,3.5-3.3,7.6-7.9,6.6c-3.7-0.9-4.3-4.2-4.4-8c-13,6.9-21.7,17.6-29.2,29.8c4.9-3,10-3.9,15.5-2.9c3.6,0.6,3.9,2,1.5,4.7
	c-4.5,5.2-10,7.1-16.5,5c-2.5-0.8-4.2-0.9-5.3,2c-5.4,14.3-11.8,28.2-13.4,45.3c4.8-5.2,9.2-8.9,13.8-12.3c2-1.4,1-3.4,0.7-5.2
	c-0.9-5.1,0.4-9.6,3.2-13.8c0.8-1.2,1.3-3.1,3.1-2.7c1.7,0.4,1.7,2.4,2,3.7c1.2,4.2,1.3,8.4-1.1,12.7c12.5-3.1,22.9-15.9,23.6-28.4
	c0.1-1.6,0.2-3.1-2-3.1c-0.4,0-0.8-0.1-1.1-0.3c-1.5-1-2.9-3.6-2.1-4c5.7-2.4-7-12.2,4.7-11.6c1.8,0.1,1.5-1,2-1.8
	c0.8-1.3,1.6-2.7,3.4-2.2c1.5,0.4,2.9,1.5,2.8,3.1c-0.1,2.3,0.4,3.2,2.8,3.4c1.5,0.1,2.6,1.3,3,2.9c1.1,3.7-5.3,2.6-4,6.5
	c1.4,4.2-1.2,4.7-4.6,5.5c-4.1,0.9-2,5.1-3.9,8.6c4.6-2.6,8.2-4.5,12.4-4.7c2.7-0.1,3.6,0.9,1.9,3.2c-3,4.1-6.6,7.3-12.1,6.6
	c-2.7-0.3-4.2,0.3-5.2,2.8c-1.6,4.1-5.5,6.4-7.9,9.9c0,0-0.1-0.1-0.1-0.1c7.1-0.5,14.1-1,21.2-1.6c1.6-0.1,4.2,0.5,2.7-3
	c-1.5-3.3-0.7-6.2,2.5-8.3c3.3-2.2,6-0.5,8.7,2c1.2-4.2-0.9-10.8,5.7-10.3c7.4,0.6,4.6,6.9,4.3,11.5c7.1-1.7,11.7-0.5,11.8,3.2
	c0.2,5.8-4.1,6.8-9.5,6.8c2.1,5,8.4,10.7-0.5,14.1c-6.1,2.3-6.7-3.3-7.9-8c-3.3,3.6-5.4,10.2-11.4,5.6c-3.7-2.9-3.3-6.8,1.4-10.7
	c-10.2-0.5-19.3,0.6-28.5,2.1c3.6,1.8,6.5,4.2,9.1,7c2.3,2.6,1.6,3.8-1.6,4.3c-6.4,1-11.9-0.2-15.3-6.4c-0.8-1.5-1.4-3.1-3.8-2
	c-12.2,5.8-22.4,13.7-27.3,27c4.3-3.6,9.1-5,14.6-4.4c2.6,0.3,3.1,1.3,1.7,3.7c-3.7,6.3-9.1,9-15.9,7.1c-2.7-0.8-3.3,0.2-4.7,2.2
	c-9.2,13-10,27.8-9.3,42.9c0.4,8.2,1,16.4,2.5,24.5c0.3,1.5,0.8,3.2-0.7,4.8c-2.2-1.5-2.1-3.7-2.3-5.5c-1.9-15.2-3.8-30.4-1.3-45.7
	c0.5-3.2-0.3-5.2-2.8-7.1c-6.3-4.7-9.1-11.2-8.3-19.1c0.1-1.4,0-3.3,1.7-3.7c1.4-0.4,2.2,1.1,3.1,2.1c4.2,4.4,7.3,9.4,8.1,15.8
	c7.2-7.7,7.9-27.6,1.8-35.4c-2.4-3.1-3.1-0.1-3.9,1c-3.5,4.5-8,5.1-13,3.4c-2.7-0.9-3.1-2.2-1.1-4.4c3.3-3.8,6.4-5.3,13.7-5.8
	c-4.3-5.1-9-8.8-14.6-11.1c-2.9-1.2-4.1,0.5-4.4,3.2c-0.5,3.9-1.4,7.7-3.4,11.2c-2,3.6-5.2,5.8-9,7.3c-1.2,0.4-2.6,1.1-3.7,0.1
	c-1.1-1.1-0.3-2.5,0-3.7C63,135.3,67.2,129.5,73.4,125.3C73.4,125.2,73.4,125.3,73.4,125.3z M113.6,79.1c5.7-2.7,8.3-7.1,8.2-14.3
	C117.2,69.4,113.5,73.2,113.6,79.1l-0.2,0.1L113.6,79.1z M188.4,113.7c0,1.8,1.1,4-0.8,5.2c-1.9,1.1-2.9-1-4-2.1
	c-1.5-1.5-2.7-3.1-5.2-1.8c-1.8,0.9-2.3,2.3-2.2,4.1c0.2,3.1,2.7,3.1,4.9,3.4c1.8,0.3,4.1,0,4.5,2.3c0.3,2-1.9,2.5-3,3.6
	c-1.8,1.8-5.6,2.2-4.5,6.1c0.4,1.5,1.3,2.8,3.1,2.8c3.7,0,4.1-3.2,5.5-5.5c0.8-1.4,1.3-3.5,3.4-3.1c1.5,0.4,1.7,2.2,1.9,3.7
	c0.1,0.7,0.1,1.5,0.3,2.2c0.4,1.6,0.5,3.5,2.6,3.9c1.6,0.3,3-0.1,4-1.4c1.4-1.8,0.6-3.4-0.4-5.1c-3.9-6.6-3.9-6.7,3.2-8.1
	c2.2-0.4,3.6-1.5,3.4-3.6c-0.3-2.6-2.6-3-4.7-2.7c-1.2,0.2-2.3,1.1-3.5,1.7c-2.9,1.4-4.3,0.4-3.9-2.8c0.2-2,0.8-4,1-6
	c0.2-1.7-0.7-2.9-2.5-3.2c-2-0.3-2.6,1-2.9,2.6C188.4,111.1,188.5,112.5,188.4,113.7z M77.5,39.2c-0.5,2.8,0.4,4.4,2.6,4.6
	c2.1,0.2,3.4-1.2,3.3-3.5c-0.1-1.3-0.2-2.6-0.4-3.9c-0.8-4.4,0.6-6.2,5.1-4.2c2.2,1,4.2,1.2,4.9-1.5c0.7-2.7-1.2-4.2-3.7-4.6
	c-6.2-1.1-6.3-1-2.9-6.7c1.3-2.2,2.8-5.1,0.1-6.3c-3.2-1.5-3.4,2.2-4.3,4.2c-0.1,0.2-0.1,0.4-0.2,0.5c-0.8,1.4-0.6,3.9-2.5,4
	c-2.5,0.2-2.2-2.6-2.9-4.1c-0.6-1.6-1-3.3-3.2-3.3c-1.5,0-2.5,0.8-3.1,2.1c-0.7,1.6-0.6,3.1,0.8,4.6c4.9,5.4,4.9,5.4-2.2,7.9
	C68.7,29,68.3,29,68,29.2c-2.2,1.4-2,3.5-1.2,5.4c0.8,1.9,2.4,2,4.2,1.1c2.4-1.2,4-5.5,6.8-3.7C80.5,33.7,77.2,37,77.5,39.2z
	 M42.4,142.1c0.6-1.9,0.1-3.5-1.9-4c-2.5-0.6-2.4,1.7-2.8,3.2c-0.2,0.7,0,1.5,0,2.2c-0.1,1.6,0.9,3.7-0.7,4.7c-2,1.2-2.8-1.1-4-2.2
	c-1.1-1-2.1-2.1-3.9-1.2c-1.5,0.8-2,2.1-1.9,3.7c0.1,1.9,1.6,2.2,3.1,2.7c1.7,0.5,4.3-0.2,4.8,2c0.6,2.5-2.1,3.1-3.6,4.4
	c-0.6,0.5-1.2,0.9-1.8,1.4c-1.8,1.7-1.4,3.4,0.2,4.8c1.6,1.5,3.2,0.7,4.3-0.8c1-1.3,1.6-2.9,2.4-4.4c0.6-1,1.3-2.1,2.6-1.6
	c0.7,0.3,1.2,1.3,1.5,2.2c0.4,1.4,0.5,2.9,0.9,4.4c0.4,1.6,1.4,2.7,3.2,2.2c1.8-0.6,2.9-1.8,2.4-3.8c-0.2-0.9-0.7-1.7-1.3-2.4
	c-2.8-3.8-3.2-6.5,2.7-6.7c2.2-0.1,3.7-1.4,3.1-3.6c-0.5-2.1-2.5-1.9-4.2-1.6c-0.5,0.1-1,0.4-1.5,0.7c-4.2,2.3-4.9,0.3-4.3-3.4
	C42,143.9,42.2,143,42.4,142.1z M176.3,48c0-0.6,0.1-1.1,0.1-1.7c0-1.7,0-3.7-2.3-3.7c-2.4,0-2,2.2-2.1,3.8c0,0.7,0.2,1.5,0.2,2.2
	c0.1,1.6,1.4,3.5-0.6,4.5c-1.6,0.9-2.6-1-3.7-1.8c-1.4-1.1-2.8-1.9-4.5-0.6c-1.2,0.8-1.6,2-1.3,3.4c0.4,2.1,2,2.3,3.8,2.5
	c1.7,0.1,4.2-0.6,4.8,1.7c0.6,2.1-1.7,3.1-3,4.3c-1.5,1.4-3.3,2.6-2.3,5.1c0.5,1.1,1.3,2,2.5,1.9c2.5-0.2,3.1-2.2,3.9-4.2
	c0.7-1.6,0.8-4.1,3.1-4.1c2,0.1,2,2.4,2.5,3.9c0.5,1.8,0.7,3.8,3,4.2c1.4,0.3,2.4-0.8,3.1-2c1.2-2.2-0.5-3.5-1.7-4.8
	c-3.1-3.4-3.3-5.7,2-6.7c2.1-0.4,4.3-1.6,2.9-4.1c-1.1-2.1-3.3-1.7-5.4-0.5C176.5,54.2,176.2,53.9,176.3,48z M33,130.3
	c1.5-0.4,2.3-1.4,2.8-2.6c0.6-1.6,0.3-3-1.3-3.8c-5.7-2.9-5.6-5.7,0-8.7c1.4-0.7,2.2-2.4,1.1-3.8c-1.3-1.6-3-1.1-4.4,0
	c-0.8,0.7-1.3,1.8-2.1,2.6c-2.1,2.3-3.4,1.9-4.1-1.1c-0.3-1.1-0.5-2.2-0.7-3.3c-0.3-1.7-0.5-3.7-2.9-3.3c-2.3,0.4-1.8,2.5-1.5,4.1
	c0.1,1.1,0.8,2.1,1.2,3.1c0.5,1.3,1.8,2.7,0.4,4.1c-1.2,1.2-2.5,0.1-3.6-0.3c-1.9-0.6-3.6-1.2-4.9,1c-0.9,1.4-1,2.8,0,4.2
	c1.4,2,3,0.5,4.5,0.2c1.4-0.2,2.9-1.5,4.2-0.1c1.3,1.4,0,2.8-0.6,4.1c-1.1,2.2-3.6,4.1-1.9,7.1c0.5,0.8,1.4,1.4,2.4,1
	c3.5-1.2,2.6-4.5,3.3-7c0.4-1.4,0-3.4,1.9-3.6c1.7-0.1,2.3,1.7,3.1,2.9C30.5,128.5,30.9,130.3,33,130.3z M51.1,51.6
	c0.5-1.8,0.2-3.1-1.3-4.1c-0.9-0.6-1.7-0.4-2.5,0.3c-1.6,1.4-0.9,3.1-0.5,4.7c0.5,1.7,1.9,3.7,0.2,5.2c-1.5,1.2-3.1-0.5-4.6-1.2
	c-1.3-0.6-2.5-1.8-4-0.4c-0.9,0.9-1,2-0.7,3.1c0.6,2.1,2.3,2.1,4,2.2c1.6,0,3.7-0.7,4.5,1.2c0.8,1.9-1.1,2.9-2.2,4.1
	c-1.3,1.4-2.7,2.8-1.6,4.8c0.4,0.7,1.4,1.5,2.1,1.5c2.4-0.1,2.5-2.4,3.1-4c1.5-3.8,3.3-4.3,5.6-0.6c0.8,1.3,1.7,3.6,3.7,1.9
	c1.5-1.4,1.1-3.8-0.5-4.9c-5.5-3.8-3.1-5.5,1.5-7c1.9-0.6,2.7-2.3,1.7-4c-1-1.8-2.5-0.7-3.8,0.1c-1.4,0.8-2.6,3-4.2,2.1
	C49.4,55.4,51.1,53.2,51.1,51.6z M119.5,34.5c-0.5-3.4,0.3-5.2,4.2-3.4c1.1,0.5,2.5,1.6,3.1-0.4c0.4-1.5-0.8-2.7-2.1-2.8
	c-4.8-0.4-4.8-2.4-2.1-5.6c1.1-1.2,1.8-3,0.4-3.9c-1.9-1.2-2.2,1.1-2.9,2.2c-0.7,1-0.8,2.8-2.3,2.9c-1.7,0.1-1.7-1.6-2.1-2.8
	c-0.4-1.3-0.7-2.6-2.3-2.8c-0.8-0.1-1.4,0.3-1.8,1c-0.6,1.5,0.2,2.5,1.2,3.4c3.2,2.9,3.6,4.9-1.6,5.2c-1.2,0.1-2.8-0.3-3.1,1.6
	c-0.1,0.6,0.2,1.5,0.6,2c1.1,1.3,2.3,0.4,3.5-0.2c1.3-0.7,2.6-2.1,4-0.9c1.4,1.2,0.2,2.8-0.1,4.1c-0.3,1.7-0.8,3.8,1.5,4
	C120.3,38.4,119.8,36.2,119.5,34.5z M69.1,77.3c-1.5,0.2-1.9,1.2-2,2c-0.5,3.1-0.5,7.1-4.6,2.1c-1-1.2-2-0.9-2.8,0.2
	c-1.2,1.5-0.3,2.4,1.2,2.9c3.6,1.2,5.3,2.6,0.7,5.1c-1.3,0.7-3.7,1.5-1.8,3.5c1.4,1.5,2.6-0.2,3.5-1.4c2.5-3.2,4-3.2,4.4,1.2
	c0.1,1.2-0.2,3.1,1.8,2.6c2.2-0.5,1.3-2.3,0.8-3.6c-1.1-2.5-1.2-4.4,2.3-4.5c1.1,0,2.6,0,2.6-1.5c-0.1-2-1.7-1.6-3-1.3
	c-3.3,0.9-4.2-0.4-3.1-3.5C69.6,80,70.1,78.8,69.1,77.3z M171.6,88.5c-2-3.2-4.8,1.1-6.3-1.9c-0.9-1.8,1.9-4.1,0.3-5.3
	c-3.4,0.1,0.6,9.7-6.4,3.4c-0.6-0.5-1.4-0.3-1.9,0.4c-0.6,1-0.3,2,0.6,2.3c4.5,1.1,5.1,2.7,0.9,5.2c-1,0.6-1.9,1.5-0.8,2.6
	c1.1,1.1,2.1,0.1,2.7-0.8c2.4-3.7,4-3.8,4.6,1c0.1,1,0.4,1.9,1.6,1.8c1.2-0.1,1.6-1.3,1.1-2C164.4,90.5,168.1,89.5,171.6,88.5z
	 M142.8,37.7c-5.5,3.4-5.6,3.4-6.7-0.1c-0.3-1-0.2-2.6-1.8-2.2c-2.2,0.6-0.8,2.1-0.2,3c1.8,2.9,1.8,4.6-2.3,4
	c-1.1-0.2-2.5-0.3-2.4,1.4c0.1,1.5,1.3,1.7,2.5,1.4c5.6-1.6,4,1.4,2.6,4.2c-0.5,1-0.4,1.9,0.5,2.4c0.6,0.4,1.7,0.5,1.7-0.5
	c0.1-5.7,3-5,7.3-2.7C139.3,45,138.8,41.7,142.8,37.7z M97.1,99.8c4.3,7.1,8.2,9.4,14.6,8.8C108.1,100.7,104.8,98.8,97.1,99.8z
	 M88.3,162.4c-0.7,9.7,1.6,14.5,8.4,17.7C96.2,173.3,94.1,167.5,88.3,162.4z M53.6,113.5c-0.2-8.3-2.9-14-10.5-17.5
	C44.1,103.4,47.1,108.9,53.6,113.5z M63.3,144c8-3.1,10.9-7.7,10.7-16.4C68.2,131.5,64.7,136.6,63.3,144z M148.3,93
	c-5.8-1.1-10.8-0.5-14.9,4.4C141.1,100,144.1,99.1,148.3,93z M125.5,158.2c-6.3-1.4-9.8,0.2-12.2,5.5
	C119,165.4,122.8,163.2,125.5,158.2z M145.3,132.3c2.8,6.5,6.4,8,12.7,5.2C154.5,133.9,150.8,131.2,145.3,132.3z M82.3,52.7
	c5.2,5.7,8.3,6.2,13.5,2.4C91.7,52.2,87.3,51.2,82.3,52.7z M132.2,131c5-5.3,5.4-7.4,2.6-13.8C131.8,121.3,131,125.6,132.2,131z
	 M83.9,143.5c6.6,2.1,9,1.1,11.4-4.8C90.6,137.5,87,139.2,83.9,143.5z M151,63.8c2.2-5.3,2-10,0.8-16.4
	C148.4,53.6,147.3,58.3,151,63.8z M71.2,60.9c1-5.2,0-8.7-4.4-11.7C67,53.9,67.7,57.4,71.2,60.9z M96.9,45.6c3-2.8,3.1-5.9,3.5-10.1
	C96.9,38.5,94.8,40.8,96.9,45.6z M163.1,110.9c5.6,0.5,6.9-0.2,9.5-4.6C168.7,106.5,165.9,108.1,163.1,110.9z M91.3,77.6
	c-4.9-1.5-5.8-1.4-9.8,1C86.5,80.7,86.7,80.6,91.3,77.6z M76.5,106.7c1.4,5.1,1.9,5.5,6.1,5.6C80.2,108.5,80.2,108.5,76.5,106.7z"/>
</svg>
