<?xml version="1.0" encoding="utf-8"?>
<!-- Generator: Adobe Illustrator 25.3.0, SVG Export Plug-In . SVG Version: 6.00 Build 0)  -->
<svg version="1.1" id="Layer_1" xmlns="http://www.w3.org/2000/svg" xmlns:xlink="http://www.w3.org/1999/xlink" x="0px" y="0px"
	 viewBox="0 0 79.2 109.9" style="enable-background:new 0 0 79.2 109.9;" xml:space="preserve">
<path d="M23,97c3.2-5.2,3-10.1-0.7-14.8c-0.8-1-1.2-2.2-1.7-3.4c-0.5-1.2,0.2-2.1,1.3-2.6c1-0.4,1.7,0.1,2.2,1
	c1,1.7,1.5,3.7,3.2,4.9c2.9-3.8,3.2-7.5,0.9-11c-0.9-1.3-2.6-2.4-1.2-4.1c2-2.4,2.8,1.3,5,1.1c4.2-16.4,8-33,1.1-49.9
	C29.5,9.5,23.7,5.8,14.8,7.1c2.4,4.6,3.7,9.4,2.6,14.5c-1.2,5.4-5.1,9.2-9.4,8.8c-5.4-0.6-8.3-4.5-8-10.9C0.3,11.8,5.5,5.3,13.1,2.9
	c6.3-2,14.9,0.7,19.3,6.5c2.2,2.8,3.8,6.1,5.8,9.3c2.2-3.3,4.3-6.6,6.6-9.6c6.7-8.8,16.2-11.4,24.1-6.7c8.1,4.8,12.6,18.2,9,26.7
	c-1.8,4.2-4.8,5.9-10,5.7c-4.5-0.1-7.5-2.4-9-6.5c-1.5-4.2,0.3-7.4,3.4-10c2.4-2,4.9-3.8,8.1-4.1c3-0.3,2.6-1.8,1.6-3.7
	C68.6,4,58.6,1.8,52.8,7.2c-7.6,7-13.9,14.7-12.2,26.6c1.5,10.3-1.2,20.4-3.3,30.5c-0.5,2.4-2.4,5.4,2.6,4.9
	c0.8-0.1,1.3,0.7,1.2,1.5c-0.1,1.2-1,1.9-2,2.3c-4.3,1.8-6.4,5-6,10.1c2.5,0.7,4.7-1.1,7-1.5c1.1-0.2,2.2-0.3,2.8,0.9
	c0.6,1.3-0.5,2-1.4,2.5c-1.6,0.8-3.2,1.8-4.9,2.1c-5.1,1-7.8,3.9-8.1,9.7c4.1-1.7,8-3.3,11.8-4.9c1.3-0.5,2.8-1.6,3.7,0.3
	c0.8,1.8-0.7,2.5-2.1,3.1c-3.4,1.6-6.8,3.2-10.3,4.7c-3.5,1.5-6.9,3.1-7.7,7.5c-0.3,1.5-1.2,2.8-3,2.3c-2.1-0.5-1.6-2-0.9-3.4
	c1.2-2.2,0.3-4.1-0.7-6.1c-1.9-3.9-3.6-7.8-5.3-11.8c-0.6-1.3-2-3.2,0.5-4c2.3-0.8,2.4,1.4,3.2,2.8C19.3,90.5,19.9,94.4,23,97z
	 M14.4,17.9c0-3.5-2.6-9-4.3-8.5c-3.3,0.9-4.2,4.1-5.1,7c-0.4,1.3-0.7,2.8-0.7,4.2c0.2,3.8,3.5,5.4,6.9,3.7
	C13.9,22.8,14.3,20.5,14.4,17.9z M74.7,22.1c-0.5-1.5,1.2-4.5-2.6-4.4c-4.3,0.1-9,4-8.9,7.8c0.1,3.1,1.7,5,5.1,5
	C72.2,30.5,74.7,27.4,74.7,22.1z"/>
</svg>
