<?xml version="1.0" encoding="utf-8"?>
<!-- Generator: Adobe Illustrator 25.3.0, SVG Export Plug-In . SVG Version: 6.00 Build 0)  -->
<svg version="1.1" id="Layer_1" xmlns="http://www.w3.org/2000/svg" xmlns:xlink="http://www.w3.org/1999/xlink" x="0px" y="0px"
	 viewBox="0 0 102.9 109.9" style="enable-background:new 0 0 102.9 109.9;" xml:space="preserve">
<path d="M47.1,66.8c4-7.7,6.6-15.4,11.9-21.3c5.5-6.2,7-12.9,6.1-20.9c-0.7-6-0.6-12.3,2.8-17.9c1.7-2.9,4.1-4.8,7.1-5.9
	c6.7-2.5,12,0.6,13,7.7c0.1,0.7,0.2,1.3,0.2,2c-0.3,4-0.2,6.6,5.6,6.9c7.5,0.4,11.3,8.3,8.2,15.3c-2.7,6.1-7.6,9.5-14.2,10.2
	c-5.5,0.6-11,0.3-16.1-2.3c-2.8-1.4-4.4-0.7-6.1,1.6c-13.7,18.3-21.1,38.8-21.8,61.8c-0.1,2,1.4,5.7-1.8,5.7c-3.3,0-1.8-3.7-1.8-5.7
	c-0.1-6.8,0.3-13.8,2.4-20.2c3-8.9,0.9-17-1.9-25.1c-1.6-4.7-3.6-9.2-6.3-13.5c-1.6-2.5-3.3-3.5-6.4-3.6c-6.8-0.1-13.5-1.4-19.5-5
	C3.9,34.1,1,30.3,0.2,25c-1.3-9,5.5-14.6,13.8-11.1c3,1.3,4,0.8,4.8-2.1c0.5-1.7,1.6-3.3,2.6-4.8c2.2-3.2,5.4-5.2,9.3-4.6
	c4.2,0.6,7.2,3.2,8.4,7.5c2.5,9.4,1.2,18.5-2.5,27.2c-1,2.3-1,3.8,0.4,5.8C41.9,50,44.1,58.1,47.1,66.8z M84,40
	c5.3,0,9.7-1.9,12.9-6.2c2.8-3.8,2.9-7.7,0.6-10.6c-2.2-2.8-6-3.3-10.4-1.3c-1,0.5-2,1.4-3.2,0.5c-1.2-1-0.6-2.2-0.2-3.2
	c1-2.9,1.4-5.8,1-8.8C84.2,4.1,79.1,2,74.2,5.8c-3.1,2.3-4.5,5.6-5.2,9.3c-1.2,6.1-0.1,12.2,0.1,18.4c0.1,1.6,0.9,2.5,2.1,3
	C75.3,38.3,79.4,40.2,84,40z M36.5,19.3c-0.2-2.6-0.2-5-0.7-7.2c-0.6-2.7-2.2-4.9-4.9-5.8c-2.5-0.9-4.5,0.4-6.2,2.1
	c-2.5,2.6-3.5,5.9-3.6,9.5c-0.1,3.5-1.2,4-4.2,2.2c-1.5-1-3-2.1-4.5-3C10.2,15.9,7.9,16,6,17.8c-2,1.8-2.9,3.9-2,6.6
	c0.9,2.7,2.2,5.2,4.4,7.1C14.6,37,22,38.4,30.1,38c2-0.1,2.8-1.4,3.5-3C35.9,29.9,36.7,24.5,36.5,19.3z"/>
</svg>
