<?xml version="1.0" encoding="utf-8"?>
<!-- Generator: Adobe Illustrator 25.3.0, SVG Export Plug-In . SVG Version: 6.00 Build 0)  -->
<svg version="1.1" id="Layer_1" xmlns="http://www.w3.org/2000/svg" xmlns:xlink="http://www.w3.org/1999/xlink" x="0px" y="0px"
	 viewBox="0 0 96.6 248.3" style="enable-background:new 0 0 96.6 248.3;" xml:space="preserve">
<path d="M46.8,134.5c9-14,15.2-28.9,17.7-45.1c2.3-15.3,1.9-30.9,4.1-46.2c0.8-5.7-0.3-10.2-4.6-14.1c-1.6-1.5-2.7-3.4-3.4-5.5
	c-0.6-1.6-1-3.3,0.6-4.5c1.7-1.3,3.3-0.6,4.8,0.5c1,0.7,1.7,1.6,2.7,2.4c1.3-1.2,1.2-2.9,1.8-4.2c1-2,1.6-4.9,4.6-4.2
	c2.8,0.6,2.7,3.4,2.4,5.7c-0.5,4.6-1.7,9-4.1,13c-1.5,2.5-2.2,5.1-2.5,8c-1.2,15.9-2.1,31.8-4,47.6c-2.2,19-10.3,35.9-19.9,52.2
	c-1.6,2.7-2.6,5.4-3.2,8.5c-3.8,17.4-5.9,35-5.4,52.9c0.2,5.9,0.5,11.7,1.7,17.5c0.4-9.5,1.7-19,3.8-28.2
	c3.4-14.9,9.9-28.6,16.3-42.3c4.3-9.3,9-18.4,11.4-28.5c1-4.1,0.6-7.6-2.2-10.9c-2.5-2.8-2.9-6.2-2.2-9.9c0.4-2.4,1.3-4.4,3.8-5.3
	c2.3-0.9,4,0.1,5.3,2c0.9,1.3,1.5,0.5,2.4-0.1c2-1.6,4.3-3.5,6.7-1.5c2.4,2.1,1.2,4.8-0.1,7.2c-1.8,3.4-4.2,6.4-6.9,9.1
	c-2,2.1-3.6,4.5-4.1,7.3c-2,10.1-6.3,19.2-10.6,28.4c-6.7,14.4-13.8,28.7-17.5,44.3c-3.1,13.3-4.7,26.6-2.4,40.2
	c0.1,0.6,0.3,1.2,0.6,2.5c2.7-3.3,4.2-6.6,5.4-10c3.2-9.6,4.2-19.5,5.2-29.5c2.1-20.9,8.9-39.7,25.6-53.7c0.5-0.4,1-0.9,1.5-1.3
	c0.5-0.4,1.1-0.9,1.7-0.4c0.6,0.5,0.5,1.2,0.2,1.8c-5,9-4.3,18.7-3.9,28.4c0.6,16.3-2,31.8-9.7,46.5c-5.9,11.2-16,17.2-26.4,23.1
	c-1.6,0.9-2.5,0.1-2.8-1.4c-0.6-2.6-1.5-5.3-1.7-8c-0.6-5.4-2.6-10.1-5.7-14.4c-11.1-15.6-14-33.2-12.6-51.9
	c0.9-12.9,3.5-25.5,5.2-38.2c1-7.7,1.3-15.4,1.3-23.2c0-3.6-2.1-5.7-4.8-7.1c-4.1-2.1-7.8-4.6-10.7-8.3c-1.8-2.2-2.8-4.4-1.3-6.8
	c1.5-2.4,4.2-1.9,6.6-1.4c0.4,0.1,0.9,0.2,1.2,0.5c2.2,1.6,3.3,1.4,3.6-1.6c0.2-1.8,0.7-4,3-4.1c2.4-0.1,3.6,1.8,4.2,3.9
	c0.3,1.1,0.6,2.4,0.5,3.5c-0.7,10-0.2,20-0.5,30c-0.3,13.8-3.2,27.3-5.1,40.9c-2.2,15.2-2.8,30.4,2.1,45.3c2.1,6.5,5.5,12.3,9.2,18
	c0.2,0.3,0.5,0.8,1.1,0.6c0.5-0.4,0.3-0.9,0.3-1.4c-2.4-24.4,0.9-48.3,6.3-72c1.7-7.4,3.5-14.9,4.7-22.4c1.2-7.7-0.1-15.4-2.1-23
	c-2.3-9.1-6.4-17.6-8.5-26.7c-0.2-1-0.6-1.9-0.7-2.9c-0.6-6.7-3.4-12.3-8.2-16.9c-1.5-1.4-2.2-3.2-2.4-5.3c-0.2-3.3,2-4.8,4.7-3.1
	c1.8,1.1,2.6,0.7,3.5-0.9c0.7-1.3,1.8-2.3,3.4-1.9c1.6,0.3,2.2,1.7,2.5,3.1c0.9,4.7-0.5,9.1-1.8,13.4c-0.7,2.4-1,4.6-0.6,7
	c1.7,8.6,4.5,16.8,7.4,25c1.8,5.1,3.4,10.3,4.2,15.7c0.2,1-0.1,2.2,1.1,3.2c2.2-12.9,3.5-25.6,2.8-38.5c-0.6-12.2-3.1-24.1-5.1-36.2
	c-0.5-3.1-2.3-5.6-3.6-8.4c-1.2-2.6-2.5-5.1-2.9-8c-0.2-1.5-0.2-3.3,1.5-3.9c1.5-0.6,2.8,0.4,3.6,1.7c1.4,2.4,2.5,2.4,4.2,0.2
	c1-1.4,2.6-2.7,4.5-1.7c1.8,0.9,1.8,2.9,1.6,4.6c-0.6,4.2-2.9,7.8-5.6,10.9c-1.7,2-2.2,3.9-1.5,6.3c2.9,9,3.1,18.4,4.5,27.6
	c2.9,19.3-0.4,38-4.2,56.7C49.2,122.5,48,128.5,46.8,134.5z M51.2,230.3c4.4-1.8,8.2-4.3,11.2-7.9c9.8-11.9,13.9-25.9,15.3-41
	c0.8-9.2-0.4-18.3,0-27.4c0-0.8,0.4-1.7-0.4-2.4c-1.2,1.1-1.7,2.5-2.3,3.9c-3.4,7.4-5.3,15.2-7.2,23
	C63.4,196.1,62.1,214.7,51.2,230.3z M75.8,148.2c-2.5,1.7-4.3,4-5.9,6.4c-7.4,10.8-10.6,23-12.5,35.7c-1.2,8.3-1.2,16.7-3.3,24.9
	c-0.7,3-1.6,5.9-2.3,8.9c1.1-0.7,1.6-1.6,2.1-2.6c3.6-7.1,5.5-14.8,7.4-22.6C65.5,181.9,67,164.1,75.8,148.2z M27.9,83.9
	c-0.2-3,0.2-5.2-0.5-7.3c-0.3-1-0.6-2.3-2-2.2c-1.2,0.1-1.3,1.4-1.4,2.3c-0.2,1.5-0.3,3-0.5,4.5c-0.1,0.9,0.2,2.3-0.8,2.6
	c-1.3,0.4-1.4-1.1-1.8-1.8c-1-1.6-2.2-2.7-4.1-2.9c-1.4-0.1-3.3-0.8-4.1,0.9c-0.9,1.7-0.2,3.3,1.1,4.7c3.2,3.3,6.9,5.9,11,8
	c1.6,0.8,2.6,0.9,2.6-1.4C27.4,88.5,27.8,85.8,27.9,83.9z M68.9,101.8c-0.2,3.8,2.3,6.2,4.2,8.9c0.9,1.3,1.7,0.4,2.3-0.4
	c2.5-2.7,5.1-5.4,6.9-8.6c1-1.8,3.3-4.1,1.2-5.7c-2.1-1.6-3.7,1.2-5.1,2.7c-1.5,1.6-2.6,2.5-3.4-0.5c-0.4-1.4-1.1-2.8-2.8-2.7
	c-2,0.1-2.7,1.6-3,3.3C69,99.8,69,100.8,68.9,101.8z M39.1,44c0-0.8,0-1.4-0.1-2.1c-0.2-1.1-0.3-2.4-1.6-2.6c-1.3-0.3-1.7,1-2.3,2
	c-0.2,0.4-0.2,0.8-0.4,1.2c-0.4,0.8-0.2,2.1-1.5,2.2c-1.1,0.1-1.2-1.1-1.7-1.7c-0.8-0.9-1.5-2.2-2.9-1.4c-1.5,0.8-1,2.3-0.5,3.5
	c1.2,2.7,3.4,4.8,5.3,6.9c1.8,2,3,2.2,4.1-0.8C38.3,48.8,38.8,46.4,39.1,44z M75.5,18.6c-0.2-0.9,0.3-2.4-1-2.6
	c-1.3-0.3-1.7,1.2-2,2.2c-0.6,2.1-0.9,4.2-1.3,6.4c-0.2,0.8-0.3,1.6-1.2,1.7c-0.9,0.2-1.3-0.6-1.7-1.2c-0.9-1.2-1.8-2.4-2.9-3.5
	c-0.7-0.7-1.6-1.5-2.5-0.8c-0.9,0.7-0.4,1.8,0,2.7c1.5,3.1,3.9,5.5,6,8.1c1.3,1.6,2.1,1,2.8-0.4C73.7,27.2,75,23.1,75.5,18.6z
	 M44.1,12.5c0.2,4.7,2,8.4,4.2,11.8c0.5,0.8,1.1,0.9,1.8,0.1c2.3-2.9,4.4-5.9,4.8-9.8c0.1-0.6,0.2-1.4-0.4-1.8
	c-0.9-0.6-1.5,0.1-1.9,0.7c-0.9,1.1-1.7,2.2-2.5,3.4c-0.5,0.8-0.8,2-2,1.8c-1-0.2-0.9-1.3-1.1-2.1C46.6,15.1,46.3,13.6,44.1,12.5z"
	/>
</svg>
