<?xml version="1.0" encoding="utf-8"?>
<!-- Generator: Adobe Illustrator 25.3.0, SVG Export Plug-In . SVG Version: 6.00 Build 0)  -->
<svg version="1.1" id="Layer_1" xmlns="http://www.w3.org/2000/svg" xmlns:xlink="http://www.w3.org/1999/xlink" x="0px" y="0px"
	 viewBox="0 0 118 229.2" style="enable-background:new 0 0 118 229.2;" xml:space="preserve">
<path d="M46.9,161.1c-3.7-7.1-6.2-14.8-9.5-22.1c-1.4-3-3.4-5.5-5.7-7.8c-1.9-2-3.7-3.8-6.8-4c-1.4-0.1-2.8-1.2-4.6-2
	c0.3,1.6,0.7,2.9,0.9,4.3c0.2,1.8,0.5,3.7-1.7,4.5c-1.9,0.7-3.5-0.1-4.7-1.7c-0.3-0.4-0.6-0.8-1-1.4c-1.3,1-1.7,3.7-3.8,3
	c-2.9-0.9-1.5-4-2.4-6.1c-1.4,0.8-2.4,2.1-3.9,2.5c-1.1,0.3-2.3,0.4-3.2-0.6c-0.8-0.9-0.5-2,0-2.9c1.5-3,3.6-5.6,6-8
	c1.1-1.1,2-2.3,2.1-4c0.1-2.5,1.7-4.1,3.9-4.8c3-1,5.6-2.8,8.2-4.4c1.7-1.1,3.6-1.8,5.5-2.1c1.7-0.3,3.4-0.5,4.6,1.1
	c1.2,1.6-0.4,2.7-0.9,3.9c0.3,0.8,1.2,0.7,1.8,1c2.4,1.2,2.7,2.7,0.7,4.6c-1.2,1.1-1.8,1.5,0,2.6c1.6,1,1,2.7-1.1,3.7
	c-1.2,0.5-3.3,0.3-3.2,1.9c0,1.8,0.6,3.8,2,5.1c5,4.4,8.9,9.7,11.9,15.9c0-1.1,0-2.1,0-3.2c0-4.8,1.1-9.3,4.1-13.2
	c1.7-2.2,2.7-4.8,3.7-7.5c1.5,0.3,1.5,1.4,1.5,2.3c0.2,6.5,0.4,13,0.4,19.4c0,3.7-1.3,7-4,9.6c-2,1.9-2.3,3.9-0.8,6.4
	c3.2,5.6,6.5,11.2,11,16c0.3,0.4,0.6,0.9,1.3,0.8c0.6-1.2-0.1-2.4-0.3-3.6c-1.8-10.6-2.1-21.2-1-31.9c1.4-13.1,0.3-25.9-4.3-38.3
	c-1.3-3.5-2.5-7.1-3-10.8c-0.3-2.7-2.6-4.2-4.3-6c-1.6-1.6-2.9-3.3-3.9-5.3c-0.3-0.6-0.6-1.5,0.2-1.9c0.7-0.4,1.2,0.3,1.6,0.7
	c2,2.1,3.3,4.8,4.8,7.7c0.9-5.1-0.1-7.1-3.9-9.2c-4.4-2.4-7.8-5.8-9.9-10.5c-3-6.8-4.5-13.9-4.3-21.3c0-0.9-0.2-2.1,0.9-2.4
	c0.9-0.3,1.4,0.7,2,1.3c4.5,5,8.6,10.2,11.4,16.4c0.8,1.7,1.6,3.4,2.7,5.4c0.8-1.3,0.8-2.4,0.8-3.4c0.1-7.4,1.5-14.5,3-21.7
	c0.3-1.5,0.6-2.7-0.7-4c-0.9-1-1.6-1.6-2.8-0.6c-0.2,0.2-0.6,0.3-0.9,0.4C44.7,35.3,42,35.9,40,34c-2-1.9,0.4-3.8,0.9-5.9
	c-2-0.3-3.7,0.5-5.5,0.5c-1.5,0-3.4,0.4-4.1-1.4c-0.7-1.7,0.7-2.9,1.8-4c0.5-0.5,1.3-0.8,1.4-1.8c-1-0.4-2.1-0.7-3.1-1.2
	c-2.5-1.3-2.7-3-0.5-4.8c2.4-2,5.4-2.6,8.4-2.6c0-0.4,0-0.6-0.1-0.7c-1.2-1.6-2.8-3.3-1.1-5.3c1.8-2.1,4-1.2,6-0.1
	c1.1,0.6,2.1,1.3,3.5,2.2c-0.1-1.7-0.3-3.2-0.3-4.7c0-1.7,0.2-3.6,2.1-4.1c1.9-0.5,2.7,1.1,3.6,2.4c0.2,0.3,0.5,0.7,0.8,1.3
	c1.3-1.3,2.4-3.1,4.6-2.1c1.7,0.7,2.2,2.2,2.4,6.9c1.5-0.2,2.1-1.7,3.2-2.3c1.4-0.9,2.9-1.4,4.3-0.2c1.4,1.1,1.6,2.7,1,4.3
	c-0.4,1-0.9,1.9-1.5,2.7c-0.6,0.9-1.2,1.6-2.1,2.7c1.4,0.5,2.6,0.2,3.8,0.1c1.9-0.2,3.8-0.2,5.6,0.2c1.7,0.3,2.9,1.3,3.1,3.1
	c0.2,1.8-0.9,2.7-2.3,3.3c-1.2,0.5-2.5,0.9-4,1.4c1.7,2.2,4.9,4,3.1,6.9C73.7,33.3,71,31,68.8,31c-0.7,0.5-0.3,1.2-0.2,1.7
	c0.4,1.6,0.2,3-1.2,3.9c-1.4,0.9-2.9,0.8-4.1-0.1C61.5,35,60,35.7,58,35.9c-5.2,0.5-5,4.1-5.7,7.4c-2.3,11.2-3.3,22.5-2.2,34
	c0.1,1,0.3,2,0.6,3.9c0.7-1.9,1.2-3,1.7-4.2c0.3-0.7,0.7-1.4,1.6-1.2c1.1,0.2,1.2,1.1,1.1,2c-0.2,2.4-1.4,4.4-2.6,6.3
	c-1,1.5-1,2.8-0.6,4.4c2,8.1,5.4,15.8,7.2,24c1.2-0.5,1.4-1.5,1.6-2.4c0.7-2.8,2.4-5.1,4-7.4c0.4-0.6,0.8-1.7,1.9-1.3
	c0.8,0.3,0.5,1.3,0.6,2c0.3,3.5,0.3,6.9-1.3,10.1c-0.7,1.4-1.4,3.2-2.8,3.6c-3.7,1-3.2,3.5-3,6.2c0.5,6.4-0.3,12.7-0.9,19.1
	c-0.4,5.1-0.5,10.1,0.4,15.2c4.2-5.4,7.5-11.3,9.9-17.7c0.4-1-0.1-1.8-0.5-2.7c-0.8-1.8-1.7-3.6-2.4-5.5c-0.4-1-1-2.5,0.4-3
	c1.6-0.6,2,1.1,2.4,2.2c0.5,1.4,0.8,2.9,1.3,4.9c1.7-3.2,2.3-6.1,2.9-9c1.5-6.8,1.8-13.9,2.6-20.8c0.1-1.1-0.4-1.7-1.3-2.2
	c-8.6-5.3-12.4-13.8-14.7-23.1c-0.5-2.2-0.1-4.6-0.8-6.8c-0.2-0.6-0.2-1.3,0.6-1.6c0.6-0.2,1,0.2,1.3,0.6c3.7,4.3,8.2,7.7,12.4,11.5
	c2.6,2.3,3.6,5.5,4.8,8.7c1.1-0.7,1.1-1.7,1.3-2.6c1.7-5.8,4-11.4,6.7-16.9c0.5-0.9,1.2-1.8,0.4-2.9c-1.6-2.2-1.5-4.5-0.8-6.9
	c0.5-1.8-0.1-3.6-0.7-5.2c-0.8-2.5-1.2-5.1-1.4-7.7c-0.1-2.6-0.9-5.7,3.1-6.4c0.9-0.2,0.7-1.4,1.1-2.1c1-2.3,3.1-2.8,4.1-0.6
	c1.1,2.4,3.7,1.6,5,3.1c0.5,0.6,0.9-0.2,1.2-0.5c0.8-1,1.7-2,3.2-1.3c1.4,0.6,1.8,1.9,2,3.3c0.4,3.2,2.7,4.9,5.9,4.1
	c2.3-0.6,3.3,0.5,3.1,2.5c-0.1,1.4,0.2,2.6,0.4,3.9c0.2,1.7,0.8,2.5,2.5,2.9c1.2,0.3,2.3,1.1,2.3,2.6c0,1.6-1.1,2.1-2.4,2.4
	c-1,0.3-2.1,0.4-2.5,1.6c-0.9,2.6-3.1,3.3-5.4,3.6c-1.7,0.2-3.3,0.3-5,0.3c-2.9,0.1-5.8-0.2-8.3,1.8c-0.7,0.5-1.9,0.8-2.7,0.6
	c-2.6-0.6-3.4,0.8-4.4,2.8C82,86.3,79,97.5,77.4,109c-0.4,3.2-0.4,6.4-0.6,10c2.7-2.6,5.5-4.9,8.7-6.6c6.1-3.3,12.6-3.5,19.2-2.3
	c1.3,0.2,2.7,1.1,3.1,2.4c0.5,1.4-1,2.2-2,2.8c-6.6,4.2-12.8,8.9-19.6,12.8c-2.9,1.6-6,1.8-9.1,0.9c-1.7-0.5-2.2,0-2.6,1.5
	c-0.6,2.4-1.4,4.8-2.2,7.6c1.8-0.6,3.2-1.2,4.6-1.6c1.1-0.3,2.4-0.6,2.9,0.9c0.5,1.4-0.3,2.4-1.5,3.1c-1.6,0.9-3.4,1-5.2,0.9
	c-1.8-0.2-2.6,0.6-3.3,2.1c-2.6,5.6-5.5,11-9.1,16.1c-1,1.4-1.4,2.8-1.1,4.4c0.5,2.7,0.6,5.5,1.7,9c0.7-2.2,1.2-3.8,1.7-5.3
	c2-5.4,5.3-9.7,10.6-12.2c0.8-0.4,1.8-1.1,2.6-0.4c0.9,0.7,0.3,1.8,0,2.6c-2.6,8.1-5.5,16.1-12.5,21.7c-1.3,1-0.9,2.1-0.7,3.3
	c2.3,14.4,3.3,28.8,2,43.4c-0.1,1.1,0.6,3.1-1.1,3c-1.3-0.1-0.4-1.9-0.4-3c0.1-4.9,0.1-9.8,0.4-14.7c0.2-2.7-0.8-4-3.3-5.2
	c-10.7-5.2-19.2-12.8-24.7-23.6c-0.5-1-1.7-2.2-0.9-3.1c0.8-1,2.4-0.4,3.6-0.2c10.3,2.2,18.8,7,23.1,17.2c0.2,0.6,0.6,1.1,0.9,1.7
	c0,0.1,0.2,0.1,0.6,0.4c-0.4-7.2-1.4-14-3-20.7c-0.1-0.5-0.5-0.9-0.9-1.2c-3.4-2.5-5.8-5.7-8.1-9.1c-0.8-1.2-1.7-1.9-3.1-0.8
	c-5,3.7-10.5,3-15.9,1.6c-4.3-1.1-8.3-3-11.8-5.7c-3-2.3-6.2-3.5-9.9-2c-0.6,0.2-1.5,0.8-1.9-0.2c-0.3-0.8,0.5-1.3,1-1.8
	c4.2-3.7,9.1-5.6,14.7-5.2c7.8,0.5,15.4,1.8,21.5,7.3C46.3,160.9,46.6,160.9,46.9,161.1c0.1,0,0.1,0.1,0.1,0.2c0,0,0.1,0,0.2,0
	C47,161.2,46.9,161.1,46.9,161.1z M45.6,73.2L45.6,73.2L45.6,73.2c-5.4-7.6-9.4-15.9-12.8-24.6c0.3,4.6,1,9.2,2.8,13.4
	C37.7,66.8,40.7,70.9,45.6,73.2z M74.5,101.4L74.5,101.4c-1.9-5.3-5.3-9.8-7.7-14.9c-1.2-2.6-2.8-5-4.6-8.2
	c-0.4,3.2,0.5,5.3,1.2,7.4C65.8,91.8,68.4,97.8,74.5,101.4z M16.8,156.7c5.7,0,11.1,1.4,16.4,3.7c4.1,1.8,8.6,2.6,13,3.2
	c-7-7.2-15.9-8.6-25.3-8.3C19.5,155.4,18,155.5,16.8,156.7C16.9,156.7,16.8,156.7,16.8,156.7z M103.9,114.3
	c-1.1-0.2-1.7-0.4-2.1-0.3c-9.1,1.7-17,5.9-24.2,11.6c-1.5,1.2-0.3,1.7,0.8,1.9c3.2,0.6,6.2-0.3,8.9-2.1c4.4-2.9,8.9-5.7,13.3-8.6
	C101.6,116.3,102.5,115.4,103.9,114.3z M18.4,158.6c8.5,8,22.8,11.6,27.7,6.8C36.5,164.7,28.5,158.6,18.4,158.6z M39.1,181.5
	c7.9,6.7,15.4,13.1,22.8,20.2C58.1,189.7,51.1,183.7,39.1,181.5z M63.2,178.1c6.3-5.8,8.9-12.9,11.5-20.4
	C67.6,159.1,62.4,170.4,63.2,178.1z M34.3,45.8c3,9.1,5.9,18.3,13.1,25.9C47,60.7,39.9,53.6,34.3,45.8z M76.3,124.3
	c8.6-6.4,17.3-10.8,27.7-12.3C94.7,108.5,80.1,114.6,76.3,124.3z M76.3,100.2c1.7-9.5-2.7-17-12.5-21.9
	C68.1,85.8,72.2,93,76.3,100.2z M59.2,30.6c-0.2-1.9-0.6-4-1.3-5.9c-0.5-1.2-1.5-1.3-2.5-1.5c-1.2-0.3-1.7,0.6-2.1,1.4
	c-0.9,1.9-1.8,3.8-1.9,5.9c-0.2,2.9,1.1,4.4,3.9,4.4C57.8,34.9,59.1,33.6,59.2,30.6z M61.3,204.2c-6.5-7.2-13.8-13.4-21.5-19.2
	C44.9,193.7,52.2,200,61.3,204.2z M43.9,33.5c2.9,0,5.3-1.4,5.8-3.8c0.5-2.2,1.2-4.2,2.1-6.2c0.3-0.7,0.7-1.3-0.1-2
	c-0.7-0.6-1.4-0.2-2,0.3C47,24.4,44.1,27,42,30.3c-0.5,0.7-1,1.5-0.6,2.3C41.9,33.5,43,33.4,43.9,33.5z M49.8,127.5
	c-3.1,6.4-5.2,19.2-4.2,22.2c2.4-1.7,4-4.1,4.2-7C50,137.7,49.8,132.6,49.8,127.5z M48.4,17.7c-4.4-3.3-11.7-4-15.3-1.8
	c-0.7,0.4-1.7,0.8-1.7,1.7c0,1.2,1.2,1.2,2.1,1.5C38.7,21.1,43.2,18.1,48.4,17.7z M48.9,19.5c-5.6,0.8-10.6,1.7-14.8,5.1
	c-0.5,0.5-1.3,0.9-1,1.8c0.3,0.9,1.2,0.6,1.9,0.6C40.6,26.7,45.5,25.2,48.9,19.5z M96.4,64.7c0.3-0.2,0.6-0.3,0.8-0.5
	c3-3,6.2-5.8,8-9.9c0.4-1,1.1-2.3-0.2-3.1c-1.2-0.7-2.2,0.2-2.9,1.1c-2.5,3.3-4.5,6.9-6.3,10.7C95.3,64,95.3,64.5,96.4,64.7z
	 M96.4,50c0-0.7,0-1,0-1.3c-0.1-1,0-2.4-1.1-2.7c-1.5-0.3-1.7,1.3-2,2.3c-1.4,4.1-1.7,8.3-2,12.6c0,0.6,0,1.3,0.8,1.5
	c0.8,0.2,1.1-0.4,1.3-1C94.8,57.5,96.2,53.7,96.4,50z M66.9,33c-0.8-3-2.6-5.9-4.7-8.6c-0.4-0.5-1.1-0.6-1.7-0.4
	c-0.8,0.3-0.5,1-0.5,1.6c0.3,1.9,0.5,3.9,0.9,5.8c0.4,2,1.9,3.2,3.7,3.8C66.2,35.8,67.1,35,66.9,33z M63,18.5
	c3.4,3.6,9.2,4.4,12.8,2c0.5-0.4,1.1-0.7,1-1.4c-0.1-1-0.9-1.4-1.7-1.6C71.1,17.1,67.2,17.5,63,18.5z M15.3,118.9
	c-0.3,0-0.5,0.1-0.8,0.1c0,1,0.1,2,0,3c-0.2,3-0.2,6,1.4,8.8c0.6,1,1.5,2,2.8,1.6c1.5-0.5,1.2-1.8,0.9-2.9
	C18.6,125.8,17.3,122.2,15.3,118.9z M98.4,65.8c4.5-0.3,8-2.4,11.2-5.1c0.9-0.8,2.2-1.9,1.4-3.1c-0.9-1.4-2.3-0.3-3.3,0.2
	C104.1,59.6,101,62.2,98.4,65.8z M68.1,9c0-0.8-0.2-1.5-1-1.8c-0.8-0.4-1.4,0-2,0.5c-2.2,1.7-3.8,3.8-5.2,6.1
	c-0.4,0.6-0.7,1.3,0.1,1.9c0.6,0.4,1.1,0.9,1.9,0.7C63.8,16,68.1,10.9,68.1,9z M51.3,15.3c-2.6-3.4-5.6-6.1-9.5-7.8
	c-0.8-0.3-1.7-0.3-2.2,0.6c-0.4,0.7-0.1,1.5,0.4,2C43,13.3,46.9,14.7,51.3,15.3z M63.2,21.8c1.9,4,3.5,7.2,7.6,7.9
	c1,0.2,2.4,1.1,3-0.4c0.5-1.2-0.5-2.1-1.4-2.9C69.8,24.4,67,22.9,63.2,21.8z M89.5,58.5c-0.1-3.7-0.5-6.9-1.7-9.9
	c-0.3-0.7-0.5-1.6-1.3-1.5c-1.1,0.1-0.8,1.3-0.9,2c-0.1,3.1,0.8,6.2,1.3,9.2c0.2,1.2-0.1,3.6,1.9,3.3C90.2,61.4,89.5,59.3,89.5,58.5
	z M22.8,114.7c2.5-0.3,4.8,0,6.9-1.2c0.8-0.4,2.2-0.5,2-1.6c-0.3-1.3-1.7-0.9-2.6-0.9c-2.2-0.2-4.4,0.2-6.4,1.1
	c-1.4,0.6-4.3,0.2-4,2C18.9,115.7,21.5,114.1,22.8,114.7z M26.9,124.4c-0.1-0.2-0.2-0.7-0.5-1c-2.3-2.5-5.1-4.6-7.8-6.6
	c-0.4-0.3-1-0.4-1.4,0.1c-0.4,0.5-0.1,1,0.1,1.4c1.7,3.4,4.4,5.7,7.8,7.2C26,125.9,26.8,125.7,26.9,124.4z M55.1,10.3
	c0.1,1,0,2.1,0.3,3.1c0.3,1.1,1.2,1.5,2.1,0.5c1.2-1.2,2.2-7.8,1.5-9.3c-0.3-0.7-0.7-1.3-1.6-1.3c-0.7,0-1.1,0.6-1.3,1.2
	C55.4,6.3,55.1,8.3,55.1,10.3z M53.3,13.4c0.5-4.7-0.2-8.3-1.8-10.4c-0.4-0.5-0.7-1.1-1.4-1c-0.6,0.1-0.7,0.7-0.8,1.2
	C48.3,6.2,50.3,11.4,53.3,13.4z M98.5,68.4c3.9,1.4,7.2,1,10.5,0.3c1-0.2,2.1-0.8,2-2c-0.2-1.6-1.7-1.3-2.8-1.2
	C105,65.7,101.9,66.5,98.5,68.4z M29.2,105.7c-0.4-0.6-0.9-0.8-1.4-0.7c-3.6,0.1-6.3,2.4-9.4,3.8c-0.4,0.2-0.7,0.6-0.5,1
	c0.3,0.6,0.8,1.1,1.5,1C23,109.8,26.9,109.3,29.2,105.7z M12.9,123.4c0-0.8,0.1-1.2,0-1.6c-0.1-0.7,0.5-1.9-0.8-2
	c-1.3-0.1-1.4,1-1.6,1.9c-0.5,2.9-0.9,5.7-0.7,8.7c0,0.6,0,1.4,0.9,1.4c0.6,0,0.8-0.6,1-1.1C12.5,128.2,12.8,125.6,12.9,123.4z
	 M8.9,119.3c-2.9,2.3-5,4.8-6.6,7.7c-0.3,0.5-0.7,1.2-0.1,1.7c0.6,0.5,1.2,0.1,1.7-0.3C6.8,126.3,9,123.7,8.9,119.3z M97.5,55.4
	c1.5-2.9,5-4.5,4.8-8.4c-0.1-0.8,0-1.8-1-2.1c-0.8-0.2-1.2,0.7-1.6,1.2C97.5,48.9,98,52.3,97.5,55.4z M22.1,116.7
	c2.3,2.9,5,2.5,7.7,2.3c0.6-0.1,1.3-0.4,1.2-1.2c0-0.6-0.7-0.7-1.2-0.8C27.4,116.4,25,116.2,22.1,116.7z M46.7,129.4
	c-2.6,3.5-3.2,7.4-2.5,11.6C45,137.2,45.8,133.3,46.7,129.4z M108.5,63.7c2.3,0,3.9,0.1,5.5,0c0.7,0,1.9,0.2,1.8-1.1
	c-0.1-1-1-1.2-1.9-1.3C112.1,61.2,110.4,61.7,108.5,63.7z M90.6,50.1c1.1-2.1,1.9-4,1-6.1c-0.2-0.5-0.4-1.1-1-1.1
	c-0.7,0-0.8,0.6-0.9,1.1C89.3,46,89.1,48.1,90.6,50.1z M105.7,57.1c1.6-0.7,2.9-1.2,4.1-2c0.8-0.5,1.4-1.5,0.9-2.4
	c-0.7-1.2-1.7-0.2-2.4,0.2C106.9,53.8,106.1,55.1,105.7,57.1z"/>
</svg>
