<?xml version="1.0" encoding="utf-8"?>
<!-- Generator: Adobe Illustrator 25.3.0, SVG Export Plug-In . SVG Version: 6.00 Build 0)  -->
<svg version="1.1" id="Layer_1" xmlns="http://www.w3.org/2000/svg" xmlns:xlink="http://www.w3.org/1999/xlink" x="0px" y="0px"
	 viewBox="0 0 59.2 249.8" style="enable-background:new 0 0 59.2 249.8;" xml:space="preserve">
<path d="M32.2,119.6c2.5-2.8,3.2-6.1,3.5-9.6c0.1-2.3,0.2-4.6,0.2-6.9c0-4.8,1-9.3,3.2-13.6c2.3-4.5,3.4-9.5,4.9-14.3
	c0.5-1.7,1.1-3.4,2.1-4.8c0.5-0.7,1.2-1.2,2-1c1.1,0.2,0.8,1.2,0.8,2c-0.1,9.8-1.5,19.5-4.6,28.7c-1.9,5.6-5.1,11-8.5,16.1
	c-3.7,5.6-5.1,12-5,18.6c0,0.3,0.2,0.9,0.3,0.9c3.4-0.2,1.7,2.7,2.6,4.1c0.3,0.5,0.2,1.2,0.3,1.8c0.2,0.1,0.4,0.2,0.5,0.1
	c0.9-0.2,1.5-1.6,2.5-1c1,0.7,0.4,2,0.4,3c-0.1,3.4-2.4,5.4-5,7.1c-1.6,1-2.2,2.1-2,3.9c0.3,2.6-0.1,5.3,0.4,7.8
	c0.7,0.3,0.8-0.1,0.9-0.5c2.8-8.2,7.4-15.2,13.4-21.4c0.2-0.2,0.4-0.4,0.6-0.5c0.5-0.4,0.8-1.1,1.5-0.9c1,0.3,0.6,1.2,0.6,1.8
	c0,5.6-1.4,10.6-5.1,14.9c-3.3,3.8-6.4,7.8-9.7,11.6c-1.1,1.3-1.8,2.8-1.8,4.6c0,10.8-0.1,21.6-0.1,32.4c0,0.5,0.1,1,0.4,1.6
	c1-5.2,1.7-10.4,2.9-15.5c2.7-11,6.8-21.6,12.5-31.5c0.3-0.6,0.5-1.5,1.4-1.4c0.7,0.1,0.7,0.8,0.7,1.2c-0.2,7.4,1.3,14.8-1.1,22.2
	c-2.8,8.5-6.5,16.7-11.1,24.3c-3.1,5-5.3,10.1-4.7,16.2c0.4,4.2-0.1,8.5,0.6,12.7c0.4,2.2-1.4,3.6-2.5,5.3c-1.1-0.8-0.7-1.7-0.7-2.5
	c0-5.4,0-10.8,0-16.2c0-2.1-0.4-4-1.2-5.9c-2.7-6.5-5.9-12.8-9.9-18.7c-5.4-8-8.7-16.8-8.3-26.7c0.1-1.6,0.2-3.2,1.3-4.5
	c1.2-1.6,2.1-1.5,2.8,0.3c0.5,1.2,0.8,2.5,1.1,3.8c1,4.7,2.9,9.1,5.7,13.1c3.6,5.2,6.1,10.8,7.1,17c0.1,0.3,0.2,0.7,0.3,1
	c0.1,0.1,0.2,0.2,0.6,0.7c0.2-3.8,0.4-7.4,0.4-10.9c0.1-5.7,0-11.5-0.1-17.2c0-2.4-0.8-4.2-2.8-6c-5.3-4.7-8.8-10.5-11-17.3
	c-2-6.2-3.3-12.3-1.5-18.7c0.9-3.1,2-6,4.3-8.4c0.7-0.7,1.5-1.5,2.5-1.3c1,0.2,0.8,1.5,1,2.3c1.9,5.2,0.8,10.5,0.8,15.8
	c0,8.2,1.8,16,4.5,23.6c0.3,0.9,0.6,1.8,2,2.5c-0.2-4.4-0.1-8.6-0.8-12.7c-0.2-0.9-1-1.2-1.5-1.7c-2.6-2.3-3-5.3-1.2-8.3
	c0.6-0.9,0.3-2.1,0.7-3.1c0.4-1.1-0.3-3.1,2.1-2.9c0.6,0.1,0.5-0.8,0.5-1.3c0.3-2.7,0.6-5.4,1-8.2c0.2-1.5-0.8-2.5-1.6-3.5
	c-5.5-6.5-8.4-14-9.7-22.3c-0.5-3.3-0.9-6.7-0.8-10c0-1.1-0.2-2.3,0.8-2.9c1.2-0.7,1.8,0.7,2.6,1.3c0.4,0.2,0.6,0.7,1.1,0.6
	c0.7-4.2,0.7-4.2,3.8-3.4c0.7-2.9,1.3-5.8,3.5-8.1c0.9-1,0.5-2.9,0.3-4.4c-0.2-1.4-1.1-0.7-1.8-0.5c-0.8,0.2-1.5,1.5-2.3,0.7
	c-0.7-0.7-0.3-2,0.4-2.7c1.7-1.7,0.7-2.7-0.6-3.7c-0.5-0.4-0.9-0.9-1.2-1.4c-0.8-1.2-2.1-2.6-1.3-3.8c0.7-1.1,2.5-0.6,3.7,0
	c1.2,0.6,1.4-0.2,1.5-1c0.3-1.9,0.8-3.8,1.8-5.5c0.7-1.3,0.4-2.3-1.3-2.3c-0.9,0-1.6-0.3-2.1-1c-0.4-0.5-1-1.1-0.8-1.9
	c0.4-1,1.2-0.5,1.8-0.4c2,0.5,2.5-0.3,2.4-2.2c-0.1-2.2-0.6-4.1-2.3-5.7c-2.6-2.3-2.4-5.5-2.6-8.6c-0.1-1.2,0.8-1.3,1.6-0.9
	c2,1.2,2.4,0.1,3-1.6c1.3-3.5,0.2-6.2-2.3-8.6c-1.2-1.1-2.5-2.1-2.4-3.9c0.1-1.2-0.5-2.6,1.7-2.4c0.9,0.1,0.9-0.9,1.1-1.6
	c0.3-1.7,1.1-3.2,2-4.6c0.8-1.4,1.6-1.1,2.3,0.1c0.9,1.5,1.1,3.2,1.1,4.9c0,1.3,0.2,2.2,1.8,1.4c1.7-0.9,1.7,0.2,1.8,1.4
	c0.1,2.5-1.3,4.1-3,5.7c-2.8,2.5-2.8,7-0.2,9.5c0.6,0.5,0.9,0.2,1.4,0c2.2-1,2.5,0.4,2.5,2c-0.1,2.7-1.8,4.8-3.5,6.7
	c-1.3,1.4-1.9,3.2-2.8,4.8c-1,1.7,0,3,2,2.9c1.7-0.1,1.5,0.8,1,1.8c-0.4,0.7-1,1.2-1.7,1.6c-1,0.5-1.3,1.4-0.9,2.2
	c1.1,2.1,1.5,4.4,1.6,6.7c0.7,0.3,1-0.1,1.4-0.3c0.5-0.3,1.1-0.7,1.7-0.1c0.5,0.5,0.3,1.1,0.1,1.7c-0.6,1.8-1.7,3.3-3,4.6
	c-1.1,1.1-1.6,1.9,0.4,2.5c0.9,0.2,1.4,0.9,1.4,1.7c0,0.9-0.7,1.1-1.4,1.3c-0.9,0.2-2.3-0.3-2.6,0.8c-0.4,1.7-0.8,3.5,0.2,5.2
	c1.5,2.4,2.4,4.9,2.3,7.9c1.4-0.4,1.7-1.6,2.4-2.4c0.3-0.4,0.6-0.7,1.1-0.6c0.5,0.2,0.5,0.6,0.5,1.1c0.3,3.7-1.2,6.7-3.4,9.5
	c-1.9,2.4-2.9,5.1-2.8,8.2c0.1,4.4,0,8.8,0,13.3C31.6,117.9,31.4,118.8,32.2,119.6z M15.1,173.8c0-0.1,0-0.2-0.1-0.2
	c0,0-0.1,0-0.2,0C15,173.6,15.1,173.7,15.1,173.8c-0.5,1.9,0.7,3.5,1.2,5.3c2.1,6.4,5.5,12.2,8.4,18.3c0.9,1.8,1.6,3.6,2.4,5.5
	c-0.5-4.2-0.9-8.3-2.8-12.1C21.5,184.9,17.6,179.7,15.1,173.8z M34.7,163.1c3-2.2,4.8-5.6,7.3-8.2c2.9-3.1,3.7-7,4.4-10.9
	c0.1-0.6,0.4-1.6-0.4-1.9c-0.8-0.4-1.2,0.6-1.6,1c-5.1,4.7-7.9,10.8-10.9,16.8c-0.7,1.3-1.2,2.8-1,4.4c3.6-6.6,8.7-12.1,12.5-18.6
	c-1.3,4-3.6,7.3-6.1,10.5C37.2,158.3,35.4,160.4,34.7,163.1c-0.3,0-0.4,0.1-0.2,0.4C34.6,163.4,34.7,163.2,34.7,163.1z M22.3,102.2
	c1.2,0.2,1.1,1.3,1.3,2c0.5,1.9,0.7,3.8,1.1,5.7c0.6,2.4,0.9,5,2.1,7.2c-0.1-4.5-0.3-9-0.6-13.5c-0.3-4.7-1.7-9-5-12.6
	c-0.5-0.5-0.9-1.5-1.9-1.1c-0.7,0.3-0.5,1.2-0.5,1.9c0.1,5.9,0.8,11.6,2.7,17.2c1,2.9,2.3,5.6,4,8.2
	C24.2,112.4,23.8,107.2,22.3,102.2L22.3,102.2z M25.2,162c0,0,0.1,0.1,0.1,0.1C25.3,162.1,25.2,162.1,25.2,162
	c0.2-0.9-0.1-1.7-0.4-2.5c-3.4-9.5-3.5-19.4-2.9-29.3c0.2-2.8-1-5-1.8-7.5c-10.3,8.8-5.6,28.5,2.3,37c-4.1-11.4-5.6-22.8-3.3-35.1
	c0.8,1.2,0.6,1.7,0.5,2.2C18,135.3,19,143.7,21,152C21.9,155.5,22.6,159.2,25.2,162z M45,170.7C45,170.7,44.9,170.7,45,170.7
	c-0.4,1.2-0.6,2.5-1,3.8c-3.4,10.5-6.8,21-10.3,31.5c-0.5,1.5-0.5,1.5-0.2,3.1c5.8-8.7,10.1-18.1,13.4-27.9c2.3-6.9,0.8-13.9,1-21.4
	c-6.1,8.3-13.7,28.9-15.1,44.6c1.1-1.2,1.4-2.7,1.8-4.1c2-6,3.8-12.2,5.9-18.2C42,178.4,42.6,174.3,45,170.7z M45.3,83.1
	c-1.1,8.5-5.5,16.1-6.4,25.2c7.2-11.9,8.3-24.5,8.7-37.3c-1.6,1.3-2.1,3.1-2.6,4.8c-1.4,4.8-2.5,9.7-4.9,14.2
	c-3.2,6-2.9,12.5-2.8,19.1C39.2,100.3,42.8,91.9,45.3,83.1z M12.9,165.4c-1.8,1.1-1.8,2.6-1.8,3.9c0,6.3,0.8,12.4,3.6,18.3
	c3,6.2,7.4,11.7,10.4,17.8c1,2,1.5,4.3,3.1,6.2c0.4-0.9,0.3-1.6,0.1-2.2c-1.7-5.9-3.9-11.5-6.8-16.9c-3.8-6.9-7-14.1-7.8-22.1
	C13.4,168.9,13.2,167.3,12.9,165.4z M29.9,123.4c0.5-1.5,0.6-2.7,0.6-4.1c0-4.6-0.2-9.2,0-13.8c0.2-4.4-1-7.9-5.3-10.1
	c0.8,2.3,1.6,4.6,1.8,7c0.4,5.2,0.9,10.4,0.8,15.6C27.8,119.9,27.8,121.9,29.9,123.4z M30.2,95.6c0.3,0,0.5,0,0.8,0
	c0.4-1.6,0.8-3.2,1.2-4.8c0.8-2.9,0.9-5.7-0.5-8.5c-0.4-0.8-0.7-1.7-1.8-1.7c-1.1,0.1-1.2,1.1-1.6,1.9
	C26.1,87.4,28.6,91.4,30.2,95.6z M30.9,11.9c-2.8,2.8-2.8,5.9,0.2,10.7C31.8,18.8,33.1,15.4,30.9,11.9z M30.7,32
	c-1,3.8-1.5,7.1,0.5,10.5C33.4,39.4,33.3,34.9,30.7,32z M29.2,62.5c0,0.9,0,1.5,0.1,2.1c0.1,0.7,0,1.6,0.8,1.7
	c0.8,0.1,1.1-0.8,1.4-1.4c0.8-1.5,0.6-3.1,0.5-4.7c-0.1-0.9-0.2-2.3-1.3-2.3c-1,0-1,1.3-1.2,2.1C29.3,61,29.3,61.9,29.2,62.5z
	 M36.5,87.7c-2.9,2-3.9,5-4,8.4C35,93.9,36.4,91.1,36.5,87.7z M30.3,147.3c2.7-3.9,3-6.2,1.2-8.9C29.8,141.3,30.5,144.4,30.3,147.3z
	 M31.2,149.7c3.8-1.5,5.6-4.4,4.3-7.1C33.6,144.7,32,146.8,31.2,149.7z M28.4,95.8c-0.4-2.9-1.8-4.8-3-6.8c-0.3-0.5-0.6-1.3-1.3-0.8
	c-0.6,0.4-0.4,1.1-0.2,1.7C24.9,92.1,26.3,93.9,28.4,95.8z M33.4,41.8c1.5-1.6,2.3-3,2.9-4.4c0.3-0.9,0.8-2.1-0.4-2.4
	c-1-0.3-1.7,0.8-1.9,1.8C33.7,38.2,33.6,39.7,33.4,41.8z M27.6,139.3c-1.3,3.1-0.6,5.3,0.8,7.5C29.3,144.4,29.2,142.1,27.6,139.3z
	 M28.7,41.6c-0.1-1.8,0.1-3.7-0.6-5.5c-0.2-0.6-0.6-1.2-1.4-1c-0.7,0.2-0.5,0.9-0.4,1.3C26.6,38.4,26.7,40.3,28.7,41.6z M29,68.7
	c-0.6-2.3-1.4-3.8-2.9-4.8c-0.3-0.2-0.9-0.3-1.2-0.2c-0.6,0.4-0.2,0.9,0,1.4C25.7,66.7,26.8,67.9,29,68.7z M32.3,24
	c1.4-1,2.4-1.9,2.9-3.1c0.3-0.7,0.8-1.7-0.1-2.1c-0.8-0.4-1.5,0.5-1.9,1.1C32.6,20.9,32.3,22.1,32.3,24z M35.4,63.5
	c-2.7,0.8-3.2,2.7-3.7,5.3C33.6,67.3,34.8,65.9,35.4,63.5z M28.9,22.7c0-1.7-0.7-2.8-2.1-3.7c-0.4-0.2-0.8,0-0.8,0.3
	c-0.1,1.6,1.2,2.4,2.3,3.3C28.4,22.7,28.6,22.6,28.9,22.7z M27.1,72.7c1.2,0.2,2-0.2,2.5-1.1c0.2-0.3,0-0.8-0.4-0.7
	C28.2,71,27.3,71.4,27.1,72.7z M25.7,145c-0.2,1.6,0,2.4,1.2,3C26.9,147,26.6,146.3,25.7,145z M31,71.7c0.8,1.3,1.5,1.6,2.7,0.9
	c-0.4-0.3-0.7-0.6-1-0.7C32.3,71.8,31.9,71.8,31,71.7z M31.8,52.1c0.1,0.3,0.3,0.4,0.5,0.3c0.2-0.1,0.4-0.3,0.5-0.5
	c0.2-0.4-0.1-0.4-0.4-0.4C32.1,51.5,31.9,51.8,31.8,52.1z M28.8,52.8c0-0.1-0.1-0.1-0.1-0.2c-0.1,0-0.1,0.1-0.2,0.1
	c0,0,0.1,0.1,0.1,0.2C28.7,52.9,28.7,52.9,28.8,52.8z"/>
</svg>
