<?xml version="1.0" encoding="utf-8"?>
<!-- Generator: Adobe Illustrator 25.3.0, SVG Export Plug-In . SVG Version: 6.00 Build 0)  -->
<svg version="1.1" id="Layer_1" xmlns="http://www.w3.org/2000/svg" xmlns:xlink="http://www.w3.org/1999/xlink" x="0px" y="0px"
	 viewBox="0 0 137.1 228.4" style="enable-background:new 0 0 137.1 228.4;" xml:space="preserve">
<path d="M113.7,34.9c6.5-3.8,29.1-9.3,22,3.9c-2.3,8.8-19,12.5-10.3,18.2c13.1,14.8,15.4,20.8-7.2,14.9c-1.2,3.4,1.4,4.5,2.6,6.1
	c7.9,10.7-17.1,6.3-21.9,4.8c-1.6-0.5-3.5-2.3-4.9-0.7c-14.1,11.6-17.5,28.1-17,45.7c3.2-4.4,7-8.3,7.7-14.2
	c0-5.7,14.3-22.6,16-10.4c-1,27.6-28.6-1.1-27.8,74.5c3.1-9.6,12.8-15.5,12.6-27.5c-0.3-16.8,17-35,33.6-37.5c4.5-0.7,10-5.6,13-1.6
	c2.3,3.1-2,8.8-2.9,13.5c-2.7,14.9-10.2,25.7-25.2,30.3c-13-0.2-17.7,8.3-23.4,17.8C67.7,190,72.9,209,70.4,228.4
	c-6.4-5.7-4-17.8-4.1-25.5c0-38.6-39.6-10.8-44.4-54.1c-2.3-10.4,12.9,0.2,17.4,0.9c9.1,4.4,15.7,10.9,16.4,21.8
	c0.4,6.6,7.5,8.4,9.7,15c5.5-25.7-11.9-48.1-24.3-68.8c-2.1-3.1-3.9-3.6-7.4-1.8c-19.7,11.9-56.3-13.9-14.6-15.1
	c-4.4-3.5-14.9-27.7-2.5-21.5c4.4,2.8,8.9,5.6,13.4,8.5c5.3-16.1,10.7-22,13.9-1c4.1-0.6,5.9-7.4,9.8-4c3.3,2.9,2.2,8,1,12.2
	c-1.5,11.6-19.7,15.5-6,25.9c1.9-7.6,4.5-14.5,12.1-18c4.7-2.1,6.9-1.6,6.7,4.4c-0.1,33.9-19.6,16,0.9,51.1
	c1.3-22.5,4.6-44.7,8.9-66.7c-0.1-4.9,1.4-16.8-7.2-12.4c-0.6,0.3-1.5,0.3-2.2,0.2c-15.7,0-13.9-5.5-6.6-16.5
	C50.2,60,26.8,58.7,49.5,47.5c-3.1-2.7-6.6-3-9.8-4c-10.9-4.4,4.6-8.6,8.9-9.9c-1.5-4.7-8.5-8.9-4.5-13.2c4.6-4.5,12.3,1.1,18.6,2
	c-1.6-5.4-3-10.1-4.5-14.8c-0.4-1.4-1.9-2.7-0.5-4.1c8.3-3,14.8,8.3,20,14.1C83.2,12.9,81.7,2.8,88,0c6.7,4.7,6.8,15.1,7.4,23.7
	C120.1,7.2,121.6,2.2,113.7,34.9z M42.3,103.7c6.4-1.9,9.4-7.6,7.9-15.1C43.6,91.6,44.4,98.4,42.3,103.7c0.2,0.2,0.4,0.3,0.5,0.3
	C42.6,103.9,42.4,103.8,42.3,103.7z M84,39.1c-8,1.4-13,2.9-11.2,12.5c0.3,7.8,7.1,8.9,10.3,13.4c1.9,2.6,7.6,3.1,11.7,3.3
	C116.1,64.4,99.5,38.6,84,39.1z M122.9,116.9c-17.9,2.2-32.3,18.1-32.3,34.6C101.7,140.3,112.6,129.7,122.9,116.9z M132.8,34.6
	c-7-0.9-27.1,6.8-27.2,13.3C111.5,56.5,131.2,45,132.8,34.6z M124.8,121.5c-9.3,9.9-18.3,19.5-27.8,29.7
	C113.7,149.2,123.6,138.5,124.8,121.5z M113.2,17.2c-7.4,4.7-25,13.4-16.5,22.2C108.7,46.6,111.3,25.8,113.2,17.2z M88.4,8
	c-3.1,5.8-14.1,25.9-4,27.3C97.1,36.5,92.1,15.6,88.4,8z M4.6,107.9c8.5,7.7,18,8.7,28.5,2.9C24.3,104,14,102.9,4.6,107.9z
	 M130.5,69.6c-2.9-6.8-17.2-21.8-21-10.4c-1.4,7.4-1.3,8.2,6.2,8.9C120.2,68.5,124.6,69,130.5,69.6z M48.6,24
	c5,9.3,15.5,15,24.2,13.4C67.6,28.2,59.7,24,48.6,24z M33.1,105.1C32.2,95,24.6,86.3,14.5,83.5C16.8,94.2,23.8,100.3,33.1,105.1z
	 M64.5,75.2c5.2,1,16.9-5.3,13-10.4C73,58.1,66,64.9,62.5,69.3C58.5,72.4,60.2,76.1,64.5,75.2z M84.2,89.7
	c3.1-6.5,11.6-12.3,5.8-18.7C78,64.4,78.7,82.6,84.2,89.7z M46,54.9c6.8,1,22.1,9,23.4,0.1C68,44.1,53.2,50.5,46,54.9z M115,79.7
	c-3.4-8.4-8.1-11.8-14.3-10c-2,0.6-4.8,1-4.9,3.8C97.9,80.2,108.8,80.6,115,79.7z M75.5,33.8C78.9,22,73.7,15.4,64.1,9.6
	C65.4,19.5,69.3,26.7,75.5,33.8z M45.5,173.5c-4.9-5.6-11.3-12.9-18.3-21C28.5,166.4,38.1,170.5,45.5,173.5z M38.5,78.4
	c-5.2,8.6-6,15.9,0.3,24C39.6,94.3,40.6,86.9,38.5,78.4z M45.7,40c6.9,3.6,14.9,8.8,20.2,3C66.3,38.1,50.8,38.3,45.7,40z M34,152.6
	c5.3,7.3,12.1,13.6,17.1,15.9C47.1,158.9,43.2,155.3,34,152.6z M54.3,125.4c1.6-5.9,5-11.1,7.4-17.9
	C54.5,112.5,53.3,118.5,54.3,125.4z M96.3,103.8c-4.1,3.5-7.6,6.4-8.8,12.1C94.2,113.9,96.3,110.2,96.3,103.8z M56.5,130.6
	c3.5-5,6.1-10.5,6.2-18.1C59,118.9,57.8,124.7,56.5,130.6z"/>
</svg>
