<?xml version="1.0" encoding="utf-8"?>
<!-- Generator: Adobe Illustrator 25.3.0, SVG Export Plug-In . SVG Version: 6.00 Build 0)  -->
<svg version="1.1" id="Layer_1" xmlns="http://www.w3.org/2000/svg" xmlns:xlink="http://www.w3.org/1999/xlink" x="0px" y="0px"
	 viewBox="0 0 99.7 223.1" style="enable-background:new 0 0 99.7 223.1;" xml:space="preserve">
<path d="M43.5,86.4c2.4-0.6,2.9-2.6,4.4-3.6c1.5-0.9,2.9-2.8,4.7-1.5c2.1,1.5,0.8,3.6,0.1,5.4c-1,2.5-2.7,4.6-5,5.8
	c-3.4,1.8-3.9,4.4-3.7,7.9c0.6,8.2,0.8,16.3,1.5,24.6C49,109.2,56.1,94.9,64.1,81c1.7-2.9,1.1-5.8-1.2-8.3c-2.5-2.9-5.2-5.6-7.3-8.7
	c-4-5.7-0.7-13.7,6.2-14.6c2.5-0.3,3.6-0.9,4.9-3.1c2.6-4.2,14.2-2.8,17.5,1.8c0.9,1.2,0.9,3.1,3.3,2.5c3.5-0.8,5.5,1.6,7.7,3.7
	c5.1,5.3,5.2,6.3,0.3,11.8c6.3,6.7,5.8,13.4-1.1,18.4c-3.1,2.2-6.2,2.6-9.5,0.9c-2.5-1.3-4.8-2.9-7.2-4.2c-5.8-3.1-9.2-2-12,3.8
	c-1.7,3.4-3.4,6.8-5.5,11.1c3.2-1.3,5.5-2.4,7.9-3.3c1.7-0.6,3.8-1.1,4.8,0.9c1.2,2.3-0.6,3.8-2.2,4.9c-2.9,1.9-6.2,2.6-9.5,3.5
	c-2.1,0.5-4.1,1.1-5,3.7c-6.7,17.8-9,36.1-7.8,55.1c3-6,7-11,6.9-18.8c-0.3-16.4,9.2-27.5,23-35.3c2.9-1.6,4.2-0.5,4,2.5
	c-0.2,5-1.4,9.9-3.4,14.5c-4.7,10.9-11,20.6-20.7,28.1c-5,3.9-6.2,10.6-8.5,17.4c3.4-1.9,5.8-3.2,8.2-4.5c1.3-0.7,2.7-0.8,3.8,0.5
	c1.1,1.2,0.7,2.6,0.1,3.9c-2,4.5-5.7,7.3-10.2,8.7c-4,1.2-5.3,3.6-5.5,7.4c-0.7,10.4-0.4,20.8-0.1,31.2c0,1.4,0.1,2.8,0.1,4.2
	c0,1-0.3,2.1-1.5,2.2c-1.2,0.1-1.7-1-1.9-1.9c-1.1-4.1-0.8-8.4-0.8-12.5c0-4.7-0.1-8.7-5.7-10.9c-4.3-1.7-6.2-6.5-8.4-10.6
	c-1.5-2.8-2.6-5.8-4.9-8.2c-0.8-0.8-2-1.6-1.4-3c0.7-1.6,2.4-1.1,3.7-1.2c5-0.1,8.2,3.4,13,7.4c-2.4-10-4.4-18.3-8.6-26.1
	c-2.1,1.6-4,3.1-5.9,4.4c-1.9,1.3-16.8,0.6-17.9-1.1c-2.1-3.4-4.2-6.9-5.2-10.6c-1.4-5.2,3.6-14.2,8.5-16.3c1.5-0.7,2.6-1.7,3.8-2.8
	c7.1-6.1,12.2-3.6,17.7,3.4c5.2,6.6,4.1,11.9,2,18.3c-0.3,0.8-0.2,2.1,0.3,2.9c4.1,7.4,5.8,15.6,9,23.5c0-10.2-0.2-20.4,0-30.6
	c0.2-11.5-0.7-22.7-6.7-33c-1.6-2.7-3.1-4.9-6.1-6.1c-10.1-4-16.7-11.3-19.7-21.8c-1.8-6.1-3.7-12.2-5.4-18.4
	c-0.4-1.6-1.3-3.7,0.8-4.9c1.9-1.1,3.7,0.1,4.8,1.4c9.3,11,19.4,21.5,23.6,35.7c1.6,5.6,3.9,10.8,6.8,16.1c1.6-1.2,1.1-2.9,1-4.3
	C40,102,39.3,92,38.9,82c-0.1-3.2-1.4-5.1-4.1-6.6c-4.3-2.3-8.3-4.9-10.7-9.4c-1.4-2.6-2.2-5.4,1-7.4c3-1.8,5.5-0.4,7.2,2.1
	c1.8,2.7,3.3,5.7,5.7,8.3c-0.5-7.3-0.9-14.5-1.6-21.8c-0.3-3.2-2-4.4-5.4-3.4c-3.2,0.9-6.7,1.2-10.1,1.5c-4.3,0.4-8.1-0.7-9.3-5.6
	c-0.5-1.9-1.8-2.5-3.2-3.2c-4.2-2.1-6.3-5.5-5.3-10.3c1-4.9,1.8-10.1,7.9-11.5c1.1-0.3,2-0.1,2.4-1.8C15.2,5.3,23.3,1.4,30,5.2
	c1.9,1.1,2.7,1.4,4.3-0.5C38.5,0.1,49-2,52.6,2.4c3.8,4.6,8.7,8.7,11.5,13.9c3.3,6.1-4.5,17.7-11.6,19c-9.8,1.7-13,6-12.1,16.1
	C41.6,62.9,42.5,74.4,43.5,86.4z M50,84.9c-2.3,1.1-4.1,2.7-4.5,6c2.6-1.6,4.4-3.1,4.9-5.6c0.2-0.2,0.5-0.5,0.7-0.7
	c0,0-0.2-0.2-0.4-0.4C50.4,84.4,50.2,84.6,50,84.9z M77.9,110.8c-14.4,8.8-21.7,22.2-19.7,36.1C68.2,139.2,77,122.9,77.9,110.8z
	 M7.2,68.3c5.5,13.5,5.3,30.5,23.4,36.4C26.6,89.7,16.6,79.1,7.2,68.3z M39.3,23.3c2-4.1,4.8-5.8,7.8-7.5c3.1-1.8,5.9-5,5.1-8.7
	c-0.9-3.8-4.9-2.1-7.7-2.6c-0.2,0-0.4,0-0.6,0C36.5,4.4,33.7,8.2,36,15.1C36.8,17.5,37.9,19.8,39.3,23.3z M24.4,30.8
	c-1.1-3-2.1-5.8-3-8.6c-0.4-1.1,0-2.8-1.5-2.9c-3.3-0.3-7.1-2-9.8,0.3c-2.6,2.2-3.3,5.9-3.1,9.4c0.1,2.4,3.4,4.9,4.1,4.1
	C14.9,28.1,19.9,31.5,24.4,30.8z M75.9,63.6c1.4-2.2,2.7-3.7,3.6-5.4c4.2-7.9,3.2-9.9-5.6-10.9c-1.9-0.2-4.8-1.8-5.5,1.4
	c-0.6,3-0.7,7,2.5,8.4C73.9,58.5,74.8,60.6,75.9,63.6z M35,36.2c1.1-6.1,0.1-11.3-1.2-16.5c-0.6-2.5-2.1-3.7-4.8-3.2
	c-2.9,0.6-4.2,2.5-3.7,5.2C26.5,27.5,29.4,32.3,35,36.2z M14,150.8c0.7-4.6-1-6.7-5.7-6.7c-2.7,0-4.7,0.4-5,3.5
	c-0.2,2.6,4.4,9.7,6.3,9.6C14,157.1,14.6,154.2,14,150.8z M76.7,76.6c7.3,0,10-1.5,9.9-5.7c-0.1-2.9-0.9-5.1-4.5-4.9
	c-4.1,0.2-9.1,4.9-9.2,8.7C72.8,77.9,75.5,75.9,76.7,76.6z M52.1,31.3c5.1-1.2,10.4-10.1,8.8-14c-1.2-3-4.1-3.9-6.8-3.2
	c-2.2,0.6-2.9,2.6-1.6,5.2C54.4,23,53.6,26.9,52.1,31.3z M81.9,79.8c4.2,3.1,7.5,4.4,11.2,1.6c2.9-2.1,4.2-5,3.5-8.3
	c-0.6-3.2-3.5-3.8-6.8-4.1C90.5,74.6,88.2,78.4,81.9,79.8z M40.2,36.3c3.9-4.4,10.1-5.5,10-12.1c0-1.7,0.5-3.9-1.8-4.5
	c-1.8-0.4-3.6,0.5-4.6,2.1C41.2,25.9,38.4,29.8,40.2,36.3z M19.7,129.1c-1.8,0.7-5.6,0.8-5.7,4.5c0,2.6,0.9,6.8,4.8,6.2
	c3.3-0.5,7.4-2.2,8-5.9C27.4,130.2,24,129.1,19.7,129.1z M31.8,39.7c-2.5-5.3-7.2-4.9-11.4-5.6c-2.9-0.5-5.1-0.6-5.1,3.4
	c-0.1,3.8,2.3,4.3,5.1,4.1C24.1,41.3,27.8,41.1,31.8,39.7z M81.3,61.8c5,1.1,10.1,6.5,13.5-0.5c1.5-3.1-2.6-6-5-6.9
	C83.6,51.9,83.8,58.2,81.3,61.8z M39.9,196.2c0.4-8.3-5.1-15.4-13.5-17.4C30.7,184.9,32.3,192.7,39.9,196.2z M31.6,141.3
	c0.4-1.2-0.3-2.7-2.6-3c-1.8-0.2-9.5,5-8.9,6.1c1.6,2.8,3.9,6.2,6.9,5.9C31.2,149.9,30.7,145.4,31.6,141.3z M31,11.8
	C26.6,6,23.7,5.6,18.6,9.5c-1.5,1.2-3.6,2.2-1.8,4.7c1.4,2,3.5,3,5.6,1.5C25,13.8,28,12.9,31,11.8z M62.3,65.2
	c-0.5-2.8,0.8-4.5,2.8-5.6c3-1.7,1.4-3.9,0.4-5.6c-1.6-2.5-3.7-1.6-5.6-0.2C55.6,57.1,56.2,60.4,62.3,65.2z M18.1,147.8
	c-1.5,3.8-2,7.8,1.2,10.3c1.6,1.3,4.9-1.1,5.2-2.6C25.5,150.9,20.1,150.6,18.1,147.8z M68.9,73.1c2.3-2.6,2.4-5.4,2.6-8.1
	c0.1-1.3,1.1-3.7-1.6-3.4c-1.8,0.2-4.2,0.7-3.9,3.4C66.2,67.8,66.8,70.5,68.9,73.1z M14.8,142c-2.1-3.4-1.8-6.9-5.3-6.5
	c-2.1,0.3-4.9,2.7-4.1,4.3C7,142.7,10.6,140.6,14.8,142z M34.6,71.7c-1-3.6-2.5-6.1-4.2-8.4c-0.8-1.2-1.9-3.1-3.7-1.6
	c-1.6,1.4-0.2,2.9,0.7,4.1C29.2,68,31.2,70,34.6,71.7z M58.5,168.1c-4.5,1.3-7.6,4.1-10.1,7.7C53.1,174.9,57,173,58.5,168.1z
	 M62.3,99.1c2.6-1,5.6-1.1,7.4-3.7C66.7,95.6,64,96.3,62.3,99.1z"/>
</svg>
