<?xml version="1.0" encoding="utf-8"?>
<!-- Generator: Adobe Illustrator 25.3.0, SVG Export Plug-In . SVG Version: 6.00 Build 0)  -->
<svg version="1.1" id="Layer_1" xmlns="http://www.w3.org/2000/svg" xmlns:xlink="http://www.w3.org/1999/xlink" x="0px" y="0px"
	 viewBox="0 0 107.7 222" style="enable-background:new 0 0 107.7 222;" xml:space="preserve">
<path d="M66.2,139c3.5-11.3,7-22.7,10.6-34c0.6-1.9,0.8-2.8-1.8-3.7c-4.8-1.7-8-10.6-6.1-15.2c3-3.2,6.6-5,6.5-10.7
	c0.1-3.1,11-3.1,13.8,0.3c1.6,2,2.9,2.9,5.6,3c8.4-0.1,8.9,19.7-2.4,15.2c1,4.1,5,8.1-0.5,10.8c-3.8,1.9-7.7,2.3-10.4-4
	c-4.7,16.2-9,31-13.2,45.7c0.4,0.3,0.7,0.6,1.1,1c6.4-8.9,14.9-14.8,24.6-19.2c3.5-0.8,15.3-9.8,13.5-1.4
	c-5.4,24-21.9,37.3-41.6,50.3c-11.9,8.5-1.1,37.5-12.1,45c-2.7-9,6.4-32-4-35.4C35,178.7,33.9,159,25,146.2
	c-1.4-2.2,0.6-2.7,2.3-2.7c10.3,0.9,18,9.3,24.4,16.8c-4.6-14.9-8.8-30-16.1-44.2c-5.6,8.7-7.6,9.1-15.8,3.7c-1.7-1.1-3.4-2-5.5-1.6
	c-9.1,1.9-9.1-7.9-4.1-12.8c-1.6-1.8-3.6-0.8-5.2-1.6c-5.5-2.5-6.7-7.3-2.9-11.9c2.1-2.5,3.7-4.7,3.5-8.4
	c-0.4-6.6,5.2-10.2,11.1-7.2c6.5,3.1,3-14,17.1-5.5c4.9,3.4,12.9,0.7,15.6,7c1.9,5.3-4.2,8.4-6.7,12.3c1.1,3.1,10.5-0.2,8.5,10.8
	c-0.6,8.2-12.4,14.8-10.7,17.4c7.9,14.5,12,30.4,17.8,47.3c0.9-15.4,8-102.6-6.5-104.9c-15.5-8.7-15.3,2.7-27.9,3.1
	c-10.7,0.5-8.2-11.1-11.2-18c-3.9-9.4,2.9-12.4,11.7-11.7c-6.8-6-4.9-10.4,0.5-14.7c6.4-12.9,21.2-18.9,30.8-5.1
	c3.3-6.6,5.3-18.3,14.8-13.2C76,3.6,83,4.5,85.5,11.5c2,5.7,1.5,11.2-3.3,14.6c-11.5,8.3-13,22.4-20.3,33c-0.7,1-0.6,2.7-0.3,4
	c5.1,25.1,3.4,50.5,3.6,75.9C65.6,139.1,65.9,139.1,66.2,139z M102.6,127.8c-24.8,11.3-40.5,29.6-39.1,45.6
	C80.5,161.6,98.1,150.6,102.6,127.8z M35.1,34.9c7.1,1.3,6.6-10.2,15.6-8.3c6.8-0.4-0.3-19.5-12.1-15.4c-6.3,1-7.7,8.3-11.7,11.9
	C19.4,27.8,29.7,36.1,35.1,34.9z M56.8,27.5c10.6-2.2,10.8-6.7,22.2-2.9c4.2-2.2,4.9-12.7,0.6-14.6c-3.2-1.4-6.2-3.3-9.5-4.7
	C60.9,0.8,58.8,21,56.8,27.5z M30.4,148.6c10.4,25.6,15.7,33.4,24.2,35.3C56.1,170.4,43.8,152.4,30.4,148.6z M38.2,39.2
	c-6.2,2.1-24.5-6.5-21.5,5.1c3.6,6.1-0.1,19.2,10.9,14.5c2.2-0.7,4.7-1,6.4-3.1c-0.5-0.4-0.9-0.9-1.4-1
	C21.6,54.1,35.2,42.8,38.2,39.2z M22.9,83.1c1,2.3-0.6,5.4,3.1,6.4c8.5,2.2,12.7,0.7,17.6-6.3c5.3-7.6-10-5.6-13.6-9.4
	C24.2,71,23.7,79.4,22.9,83.1z M32.9,50.1C51.7,54.8,57.5,36.2,70.4,28C56.2,31.9,43.9,38.9,32.9,50.1z M9.4,84.6
	c1.3,4.2-1.8,6.6-4,9.3c-5.8,10.3,15.1,6,15.9-1c0.6-1.8-2.9-11.4-4.7-12.5C12.9,77.5,7.9,79.5,9.4,84.6z M14.7,114.1
	c3.9-0.9,6.2,2,8.8,3.9c14,8.3,5.9-26.4-7-13.7C14.8,106.8,6.4,115.9,14.7,114.1z M47.5,100.8c2.4-9.2-20.5-5.8-16.2,1.3
	C39.2,113.1,42.2,113.9,47.5,100.8z M69,35.2C60,40.4,57.2,51.2,46.6,53c7.5,5.6,11,6.1,13.4,2.2C63.5,49.3,67,43.3,69,35.2z M72,91
	c0,6.8,6.9,8.6,8.7,2.2C81.2,87.8,70.8,81.7,72,91z M92.9,90.7c6.3,1.7,5.7-8.9,0.3-8.7C86.3,82,85.6,90.9,92.9,90.7z M88,80.1
	c-0.6-2.6-2.4-3.6-4.8-3.3c-2,0.2-5.2-0.1-4.4,3.1C79,88.8,86,88.2,88,80.1z M91.1,99.6c-1-2.3-2.4-4.6-5.1-5.2
	c-1.7-0.4-1.9,1.2-1.5,2.3c0.7,2.2,0.2,5.5,4,5.4C89.8,102,91.3,101.6,91.1,99.6z"/>
</svg>
