<?xml version="1.0" encoding="utf-8"?>
<!-- Generator: Adobe Illustrator 25.3.0, SVG Export Plug-In . SVG Version: 6.00 Build 0)  -->
<svg version="1.1" id="Layer_1" xmlns="http://www.w3.org/2000/svg" xmlns:xlink="http://www.w3.org/1999/xlink" x="0px" y="0px"
	 viewBox="0 0 69.9 227.8" style="enable-background:new 0 0 69.9 227.8;" xml:space="preserve">
<path d="M28.5,110.1c4.2-12.9-3.1-21.2-9.4-29.8c-1.3-1.8-3.1-3.1-3.6-5.4c-0.4-2.1,0.3-3.6,2.3-4.3c1.8-0.7,3.4-0.1,4.1,1.6
	c0.9,2,1.9,4.1,2,6.2c0.3,4.9,3.6,8,6.4,11.8c0.8-5.7,2.7-11.5,2.2-17c-0.5-5.2-3.9-10.1-8.2-13.4c-2.7-2.1-5-4.2-6.2-7.4
	c-0.6-1.7-0.7-3.3,1-4.4c1.6-1,3.2-0.6,4.6,0.5c2.2,1.8,3.4,4.3,4,7c0.9,4.2,3.2,7.6,5.8,11.1c5.9-12.9,0.7-23.2-6.5-33.1
	c-1.3-1.8-2.7-3.5-3.6-5.5c-1-2.4-0.4-4.4,2-5.5c2.3-1,4.3-0.5,5.6,1.8c1.4,2.6,2.4,5.4,2.2,8.4c-0.3,5,1.8,9.2,4.1,13.5
	c5.4-10.9,7-17.5-1.9-28.9c-0.9-1.1-1.6-2.5-2.1-3.8c-0.9-2.5-0.6-4.9,2.2-5.9c2.9-1,3.9,1.3,4.6,3.4c1.7,5.1,1.2,10.8,3.9,16.6
	c2.3-5.9,5.3-10.6,5.3-16.4c0-4.1,2.1-7.3,5.4-9.6c1.7-1.2,3.6-2.3,5.5-0.9c2.3,1.6,1.5,4,0.7,6c-1.3,3.5-3.8,6.4-6.6,8.6
	c-4.7,3.7-5.7,9-7.9,15.1c5.3-2.5,9.6-4.8,14-6.5c2.6-1,5.5-2.3,8.4-0.4c1.3,0.9,1.1,2.2,0.3,3.4c-2.1,3-5.3,4.4-8.6,3.7
	c-4.5-1-8,0-11.8,2.3c-6.5,3.9-5.1,10.7-7.2,16.4c5.4-4,10.3-8.3,15.9-11.5c2-1.1,4.6-3.9,6.3-0.2c1.4,2.9-0.7,5.2-3.5,6.4
	c-0.8,0.4-1.7,0.6-2.6,0.8C42.7,48.4,39.4,52.4,37.9,69c3.7-2.7,6.8-5.8,9.8-9c1.9-2,3.9-3.9,6.6-4.7c1.8-0.5,3.8-0.7,4.8,1.4
	c1,2,0.6,4-1.3,5.3c-1.2,0.8-2.7,1.8-4,1.7c-7.9-0.6-11.3,5.8-16.1,10c-0.7,0.7-1.3,1.8-1.4,2.9c-0.9,6.9-2.1,13.7-1.7,21
	c3.3-5.1,9.1-8.3,10.1-15.1c0.6-4.1,3.6-6.3,6.9-7.9c3.1-1.5,4.1,0.4,3.9,3.1c-0.2,3.4-2.5,5.6-5.2,7.3
	c-7.2,4.6-11.7,11.7-15.6,18.8c-3.3,6-1.3,13.4-1.4,20.4c3.1-6.9,9.9-11.1,12.3-18.5c0.9-2.8,3.4-4.8,6.6-5.1c1.2-0.1,2.1,0.9,2.2,2
	c0.4,3.5-1.4,6.2-4.2,7.7c-12.8,7-16.7,18.7-17,32.1c-0.2,11.1-0.8,22.3,1.5,33.4c1.2-5.9,2.4-11.8,3.7-17.7
	c3.2-14.4,10-27,19.2-38.4c0.5-0.6,0.9-1.2,1.4-1.6c1-0.8,1.9-2.1,3.3-1.4c1.7,0.9,0.3,2.3,0,3.3c-3.2,10.9-6.4,21.7-9.9,32.5
	c-1.7,5.2-3.1,10.5-3.9,15.9c-1.1,7.1-2.9,14-6.4,20.3c-4.4,7.9-5.7,16.4-5.9,25.2c-0.1,4.7-0.5,9.4-3.2,13.9
	c-2.4-1.9-1.4-4.2-1.1-6.1c1.2-9.5,1-19,0.5-28.5c-0.3-5.9-1.7-11.4-4.9-16.6C15.4,156.8,8.5,135,5.4,111.9
	c-0.7-5.4-1.8-10.6-5.4-16.1c5.7,2.2,11.1,9.5,18.1,22.9c4.4,8.4,6.9,17.5,10.5,26.2c0-9,1.4-18.3-0.4-27
	c-1.5-7.4-3.9-15.8-12.3-19.6c-1.5-0.7-2.6-2-3.2-3.6c-0.7-1.9-0.8-3.7,1-4.9c1.9-1.2,3.3,0.4,4,1.7
	C21.4,97.5,24.7,103.5,28.5,110.1z M9.3,111.9c-0.2-0.5,1.1-0.9,0-1.4C9.2,110.9,9.2,111.4,9.3,111.9c0.6,0.5,1.2,0.9,1.8,1.4
	c1,6.9,4.4,13.1,6.9,19.5c4.6,11.8,8,24,10.4,36.5c0.4-1,0.5-1.9,0.4-2.8c-0.7-15-6.3-28.8-11.6-42.6c-1.4-3.8-2.7-7.9-6.2-10.5
	C11.1,112,10.6,111.5,9.3,111.9z M11,123.3c-0.3-0.1,0.1-1-0.6-0.6c0.3,0.1,0.5,0.3,0.8,0.4c1.4,12.8,6.8,24.3,11.6,36.1
	C20.3,146.8,16.4,134.8,11,123.3z M40.1,171.3c6.5-14.2,12.5-28.6,16.8-45C46.7,140.5,42.2,155.5,40.1,171.3z M43.9,173.2
	c-7.1,14.1-7.9,13.3-6,17.2C40.2,184.7,43.2,179.4,43.9,173.2z M53.1,12.5c0.6-0.7,1.4-1.3,2.1-2.1c1.6-1.9,3.8-3.5,3.4-6.4
	c0-0.2-1-0.5-1.4-0.3C54.6,4.8,53,7,52.4,9.8C52.2,10.6,51.8,11.6,53.1,12.5z M30.2,31.8c0.3-2.9-0.2-5.3-2.4-7.1
	c-0.6-0.5-1.6,0.2-1.7,0.8C25.8,28.5,27.3,30.6,30.2,31.8z M20.9,49.9c-0.2,3.5,1.5,5.1,4.4,7.1C24.7,53.6,24.1,51.3,20.9,49.9z
	 M20.7,78.4c0.5-2.7,0.1-4.3-1.5-5.4c-0.1-0.1-0.8,0.2-0.9,0.4C17.3,75.6,19.1,76.5,20.7,78.4z M53,77.5c-3.2,0.9-4.6,2.5-5.8,5.4
	C50.2,82,51.6,80.5,53,77.5z M61.8,38.6c-2.4,0.6-3.9,1.3-5.7,3.5C58.6,41.4,60.5,41.5,61.8,38.6z M51.7,60.6
	c2.6,0.1,4.2-0.1,5.1-2.1C54.5,57.6,53.4,59,51.7,60.6z M51.7,102.8c-2.2,2.1-4.1,3-4.2,5.8C49.6,107.4,51.4,106.5,51.7,102.8z
	 M60.6,27.4c2.1,0.7,3.5,0.1,5.3-1.5C63.3,25.4,61.9,26,60.6,27.4z M38.3,15.8c0-2.4-0.2-4-2.2-5.5C35.8,12.8,36,14.4,38.3,15.8z
	 M15.9,92.9c-1,0.4-0.9,1-0.6,1.4c0.4,0.5,1,1.3,1.5,1.3c0.6,0.1,0.5-0.7,0.2-1.1C16.6,93.9,16.2,93.3,15.9,92.9z"/>
</svg>
