<?xml version="1.0" encoding="utf-8"?>
<!-- Generator: Adobe Illustrator 25.3.0, SVG Export Plug-In . SVG Version: 6.00 Build 0)  -->
<svg version="1.1" id="Layer_1" xmlns="http://www.w3.org/2000/svg" xmlns:xlink="http://www.w3.org/1999/xlink" x="0px" y="0px"
	 viewBox="0 0 84.2 229.2" style="enable-background:new 0 0 84.2 229.2;" xml:space="preserve">
<path d="M55.8,37.9c1.4-1.3,2.8-2.6,4.2-3.8c0.9-0.8,1.9-1.5,3.1-1.7c1.5-0.3,3.1-0.4,4.2,1c1.1,1.4,0.5,2.9-0.4,4.2
	c-2.5,3.7-5.8,6.3-10.4,7.1c-1.2,0.2-2.1,0.4-2.3,1.8c-0.6,3.5-1.2,7.1-1.4,10.9c1.5-1.6,2.9-3.1,4.4-4.7c2.6-2.8,5.4-5.4,8.7-7.4
	c1.3-0.8,2.7-1.4,4.2-1.5c3.2-0.2,5.1,2.4,4,5.3c-0.5,1.4-1.4,2.7-2.5,3.7c-5.3,5.3-11.4,9.1-18.9,10.4c-1,0.2-1.9,0.3-2.2,1.5
	c-1.2,5-2.5,10.1-3.8,15.4c1.8-0.4,3-1.4,4.2-2.1c4.2-2.4,8.7-4.1,13.5-4.7c2-0.2,4,0,4.8,2.2c0.7,2.1-0.5,3.6-2.2,4.8
	c-4.7,3.4-10.3,3.7-15.8,3.9c-7.1,0.3-5.5-0.8-7.7,5.6c-1.1,3.3-2,6.6-3.3,10.7c3.9-3.2,7.6-5.3,11.5-7.1c2.7-1.2,5.5-2.3,8.7-2.1
	c1.8,0.1,3.2,0.8,3.6,2.6c0.5,1.9-0.8,2.9-2.3,3.8c-6,3.7-12.9,4.9-19.6,6.4c-2.7,0.6-4,1.7-4.8,4.4c-3.7,11.7-6.7,23.5-7.6,35.7
	c-0.1,0.8,0,1.6,0,2.6c1.1-0.8,1.3-1.9,1.8-2.8c3.6-7.9,7.7-15.5,13.1-22.2c5.3-6.7,11.4-12.6,20.2-14.7c1.9-0.5,3.8-1.3,5.7-1.8
	c0.7-0.2,1.6-0.8,2.2,0c0.7,0.8-0.1,1.5-0.6,2.1c-2.4,3.5-4.8,7.1-7.4,10.6c-6,8.1-12.1,16.2-19,23.6c-4.5,4.8-9,9.7-15.3,12.4
	c-1.1,0.4-1.2,1.3-1.2,2.2c0.1,12.4,1.7,24.6,5.3,36.5c0,0.2,0.3,0.2,0.6,0.5c1.5-4.3,2.8-8.6,4.4-12.8c3.5-9.4,7.6-18.6,13.9-26.5
	c3.5-4.4,7.6-7.9,12.7-10.3c5.1-2.3,10.1-4.9,15.1-7.4c0.8-0.4,1.9-1.2,2.7,0c0.7,1.1-0.6,1.5-1.1,2.2c-4.4,5.7-8.4,11.9-13.3,17
	c-9.4,9.7-16.4,21-24,31.9c-2.4,3.4-4.8,6.9-8.2,9.6c-1.6,1.2-0.8,2.5-0.3,3.7c2.7,7,5.3,14.1,6.4,21.6c0.3,2,0.4,4,0.6,6
	c0,0.5-0.2,1.1-0.8,1.1c-0.6,0.1-0.9-0.5-0.9-1c0.5-3.9-2.5-5.3-5-7c-5.1-3.5-10.3-7-15.5-10.4c-3.4-2.2-5.9-5.1-7.7-8.7
	C11,195.4,7.7,188.7,4.2,182C1.1,175.8,0,169,0,162.1c0-6.1,0.7-12.2,0.5-18.3c0-0.8-0.3-2.2,0.9-2.2c1.1-0.1,1,1.3,1.2,2.1
	c2.2,13.4,7.7,25.4,16,36.2c7.6,10,12.9,21.5,18.8,32.5c1,1.8,2,3.6,3.2,5.3c-0.6-4.5-2-8.8-3.7-13c-3.4-8.6-5.8-17.5-7.4-26.6
	c-0.2-1.1-0.4-2.1-1.2-3c-10.4-10.6-15.4-23.8-18-38c-2.1-11-2.8-22-2-33.2c0.1-0.8-0.3-2,0.8-2.4c1.3-0.4,1.7,0.9,2.1,1.7
	c5.1,8.2,7.9,17.3,10.6,26.4c2.1,7.4,3.8,14.9,5.7,22.5c0.4-4.3,0.6-8.6,1.1-12.8c1.1-10.9,4.1-21.4,7.5-31.7c0.8-2.4,0.2-3.6-1.6-5
	c-5.2-4-9.2-8.8-10.6-15.5c-0.7-3.3,0.4-6.2,2.1-8.8c1.4-2.1,3.3-2.2,4.9-0.1c1.9,2.4,3.2,5.1,4,8c1.1,4.4,2.2,8.7,3.4,13.3
	c1.3-1.3,1.4-2.9,1.9-4.4c1.1-2.9,2-5.9,3.1-8.8c0.6-1.7,0.3-2.7-1.2-4.1c-4.9-4.6-8.9-9.8-9.2-16.9c-0.1-3.7,1.4-7,3.4-7.4
	c1.8-0.3,4.3,2.3,5.4,5.8c1.4,4.4,2.8,8.7,4,13.3c1.8-4.6,3-9.2,3.8-14c0.2-1.1-0.8-1.8-1.5-2.5c-2.9-3.2-5.9-6.3-7.7-10.3
	c-1.5-3.2-2.5-6.6-1.9-10.2c0.3-1.8,0.4-3.9,2.5-4.4c2-0.5,3,1.2,4,2.6c2.5,3.5,3.9,7.4,5.2,11.4c0.3,0.9,0.3,2,1.3,2.8
	c1-2.4,1-4.9,1.5-7.3c0.3-1.3-0.6-2-1.4-2.7c-3-2.5-5.9-5.1-7.8-8.7c-1.3-2.5-1.6-5-0.1-7.4c2-3.2,5.2-3.2,7.1,0.1
	c0.8,1.4,1.3,2.9,1.8,4.4c0.5,1.5,0.9,3.1,1.5,5.2c0.9-3.2,0.9-5.9,1.3-8.5c0.2-1.2-0.8-1.7-1.6-2.3c-2.6-2.1-5-4.3-6.9-7.1
	c-1.2-1.9-2.1-3.9-1.7-6.2c0.2-1.3,0.6-2.6,2.1-3c1.4-0.3,2.2,0.6,3,1.6c1.8,2.3,2.9,5,4.1,7.7c0.3,0.8,0.7,1.6,1.3,2.7
	c0.8-2.8,0.8-5-0.9-7.1c-1.5-1.9-2.5-4.1-3-6.5c-0.3-1.6-0.4-3.2,0.4-4.7C52.8,1,54-0.1,55.8,0c1.8,0.1,2.6,1.5,3,2.9
	c1.2,4.1,1.1,8.1-0.3,12.1c-0.6,1.5-0.9,3.1-0.5,5.1c1.4-1.8,2.5-3.4,3.7-4.9c2.4-2.9,5-3.9,6.7-2.7c1.7,1.2,1.5,4.2-0.6,7.4
	c-2.2,3.2-4.9,5.8-8.9,6.7c-1.2,0.3-2,0.8-2.1,2.1C56.6,31.8,55.7,34.9,55.8,37.9L55.8,37.9z M67.9,110.2c-0.2,0.2-0.4,0.4-0.6,0.6
	c-2.9,1.8-5.1,4.4-7.4,6.9c-9.6,10-18.2,20.8-26.8,31.6c-0.5,0.6-1.2,1.1-1.1,2.2c3.6-1.8,6.3-4.6,9.1-7.3
	c7.9-7.8,14.4-16.6,21-25.4c1.9-2.5,4.2-4.9,5.2-8C67.5,110.5,67.7,110.3,67.9,110.2C67.9,110.2,67.9,110.2,67.9,110.2z M40.8,190.1
	c1.2-0.5,1.7-1.7,2.4-2.6c3.4-4.9,6.8-9.9,10.2-14.8c3.4-4.9,6.8-9.9,11.1-14.1c3.9-3.7,7.1-8.2,10.1-12.7c-0.4,0-0.7,0.2-0.9,0.4
	c-0.8,0.7-1.6,1.5-2.4,2.3c-10.1,10.2-18.9,21.4-26.3,33.8C43.5,184.8,41.6,187.2,40.8,190.1c-0.4,0.1-0.5,0.5-0.7,0.8
	c0,0,0.1,0.1,0.2,0.1C40.7,190.9,40.8,190.5,40.8,190.1z M36.1,214.1c0.1,0.1-0.2,0.5,0.3,0.4C36.3,214.4,36.1,214.3,36.1,214.1
	c-4.5-8.8-8.8-17.8-14.2-26.1c-6.5-10.1-14.5-19.3-18-31.2c0.3,3.3,1.1,6.3,2.2,9.3c6.2,17.9,17.1,32.9,29,47.3
	C35.3,213.8,35.8,213.9,36.1,214.1z M39,188.3c1.1-0.5,1.4-1.7,1.9-2.6c8.9-15.3,19.5-29.2,32.4-41.5c1-0.9,2-1.8,3.1-2.8
	c-9,3.3-17.4,7-22.9,15.4C47,166.6,42.1,177.1,39,188.3c0,0.2-0.5,0.2-0.1,0.5C38.9,188.6,39,188.5,39,188.3z M35.4,217.2
	c0,0,0.1,0.1,0.1,0.1C35.5,217.3,35.5,217.2,35.4,217.2c-2.8-4.4-6.5-8.1-9.6-12.2c-10.1-13.7-19.2-27.8-23.3-44.6
	c-0.1-0.3,0-0.8-0.6-0.6c-0.5,9.1,1.3,17,5.6,24.8c2.2,4,4.6,8,6.2,12.3C17.5,207.4,26.7,212,35.4,217.2z M27.8,170.2
	c-3.1-21.4-6.8-42.6-16.5-62.2C14.8,129.2,18,150.5,27.8,170.2z M65.2,109.4c-4.1,0.4-7.6,2.4-10.7,4.8c-4.6,3.7-8.3,8.3-11.6,13.2
	c-3.9,5.7-7.2,11.7-9.7,18.1C43.5,133.3,53.5,120.8,65.2,109.4z M36.3,101.4c-1-6.7-2.5-13-4.7-19.3c-0.3-0.7-0.6-1.5-1.1-2.1
	c-1.5-2.3-2.8-2.3-4.1,0.2c-1.5,2.9-1.6,6-0.4,9C27.9,94.5,31.9,98.1,36.3,101.4z M52.7,60.5c0.6,0.3,0.8,0.5,0.9,0.5
	c7.6-1.5,13.7-5.4,18.4-11.5c0.7-0.9,1.1-2,0.3-3.1c-1-1.2-2.4-1-3.6-0.5C62,49.2,57.5,54.9,52.7,60.5z M10,113.8
	c-0.1,23.9,6.6,43.8,13.1,51.5C16.6,148.5,13,131.2,10,113.8z M49.6,59.5c0.6-4.6-1.1-8.6-2.5-12.6c-1.1-3-2.4-6-4.4-8.5
	c-1.2-1.5-2.2-1.3-2.6,0.6c-0.2,1.1-0.5,2.2-0.3,3.3C40.5,49.5,44.7,54.7,49.6,59.5z M43.7,81.5c0.6-5.1-2.8-17.1-5.6-20.6
	c-1.3-1.6-2.2-1.4-2.9,0.6c-1.2,3.1-1.1,6.3,0.4,9.3C37.5,74.7,40.3,78.1,43.7,81.5z M47.3,82.9c5.7-0.4,11.1-0.5,16.1-2.5
	c1.2-0.5,2.5-0.7,3.4-1.7c0.7-0.8,1.4-1.6,0.9-2.7c-0.4-1-1.4-0.9-2.3-0.8C61,75.4,57.1,77,53.2,79C51.3,80,48.9,80.4,47.3,82.9z
	 M41.6,102.2c6.4-1.1,12.7-2.5,18.5-5.3c1-0.5,2-1.1,1.7-2.5C61.6,93,60.3,92.9,59,93c-1.3,0.1-2.6,0.4-3.8,0.8
	C50,95.4,45.8,98.7,41.6,102.2z M52.5,40.6c-0.4-4.5-1.1-8.8-3.1-12.8c-0.5-1.1-1.1-2.4-2.6-2.1c-1.2,0.2-1.9,1.4-2.3,2.6
	c-0.4,1.1-0.3,2.2,0.1,3.2C46.1,35.5,49.1,38.2,52.5,40.6z M58.4,24.5c4.2-0.9,7-3.6,8.8-7.3c0.5-0.9,1.2-2.1,0-2.9
	c-1.1-0.8-2.1,0.2-2.9,0.9C61.6,17.8,59.7,20.9,58.4,24.5z M55.8,42.6c4.1-0.2,6.9-2.5,9.4-5.5c0.6-0.7,1.4-1.7,0.5-2.7
	c-0.8-0.9-1.9-0.5-2.8,0C59.5,36.2,57.5,39.2,55.8,42.6z M57.1,13.9c0.8-3.9,1-7.1,0.1-10.3C57,2.8,56.6,2,55.7,1.9
	c-1-0.1-1.6,0.6-2.1,1.3c-0.7,1.1-0.7,2.3-0.4,3.5C53.9,9.1,54.9,11.3,57.1,13.9z M53.7,22.4c-0.8-3.5-2.1-6.7-4-9.6
	c-0.5-0.8-0.9-2.4-2.3-1.7c-1.1,0.5-0.8,2-0.5,3C47.9,17.8,50.5,20.3,53.7,22.4z"/>
</svg>
