<?xml version="1.0" encoding="utf-8"?>
<!-- Generator: Adobe Illustrator 25.3.0, SVG Export Plug-In . SVG Version: 6.00 Build 0)  -->
<svg version="1.1" id="Layer_1" xmlns="http://www.w3.org/2000/svg" xmlns:xlink="http://www.w3.org/1999/xlink" x="0px" y="0px"
	 viewBox="0 0 81.7 249.2" style="enable-background:new 0 0 81.7 249.2;" xml:space="preserve">
<g>
	<path d="M68.1,20.8c0.2-0.3,0.4-0.7,0.6-1c2.8-4.3,2.6-5.6-1.5-8c-0.2-0.1-0.4-0.5-0.6-0.6c-2.2-1.8-4.2-1.5-5.8,0.9
		c-2,3.2-2,6.6-1,10.1c1,3,1,3.3-0.9,6c-2.7-6.4-3-6.4-8.2-4.2c-2.5,1-2.7,2.4-1.6,4.4c1.4,2.6,3.5,4.6,6.1,5.9
		c0.8,0.4,1.4,0.8,1.1,1.8c-0.2,0.7-0.5,1.3-1.5,1c-2.4-0.9-3,0.9-3.6,2.5c-1,2.6-0.8,5.1,0.6,7.4c0.5,0.8,0.5,1.5-0.5,1.9
		c-0.9,0.3-1.5,0.1-1.8-0.9c-0.2-0.6-0.4-1.1-0.6-1.7c-1.3-2.4-3.8-2.9-6.4-1.3c-2.2,1.4-2.8,3.9-1.2,5.9c1.3,1.7,2.8,3.4,4.7,4.5
		c2.4,1.3,3.2,4,2,6.5c-0.5,1-1.4,1.2-2.2,1.2c-1,0.1-0.8-1-1-1.6c-0.4-1.2-0.7-2.5-1.2-3.7c-0.9-2.2-2.5-3.7-5-3.7
		c-2.5,0-4.2,1.6-5.4,3.7c-1.1,2.1-0.5,4.1,1,5.8c0.8,0.9,1.6,1.7,2.6,2.5c0.9,0.7,1.2,1.6,0,2c-3.4,1.1-3.4,3.1-1.6,6
		c-2.3-1.6-4.4-1.9-5.7,0.6c-1.6,3,0.9,4.1,3.2,5.1c-3.5,2.2-3.7,3.6-1,7c2,2.6,1.6,4.4-1.6,5.4c-2.2,0.7-3.1,2.1-2.5,4.3
		c0.4,1.4,0.3,1.9-1.3,2c-1.4,0.1-2.9,0.9-3.3,2.2c-0.5,1.6,0.7,2.8,1.7,3.9c0.3,0.4,0.8,0.6,1.2,0.9c0.9,0.6,1,1.1,0.1,1.8
		c-0.7,0.5-1.4,1.2-2.1,1.7c-2.5,1.8-2.8,2.9-0.8,5.3c2.4,3,5.5,5.2,9.1,5.9c3,0.6,3.7,2.6,4.7,4.7c0.5,1.1,0.3,2.6-0.6,3.3
		c-1.2,1-1.6-0.7-2.2-1.2c-2.8-2.3-3.4-2.3-6.2,0.4c-0.5,0.5-1,0.5-1.6,0.7c-3.5,0.9-4.6,3-3.1,6.2c2.2,4.7,6.3,7,11.2,8
		c0.9,0.2,2.2-0.4,2.2,1.3c0,5,0,10,0,15.3c-3.5-4.4-8.3-7.2-12.2-11c-4-3.9-6.8-8.7-7.9-14.7c-1.6,1.8-1.3,3.2-1.1,4.6
		c0.9,5.3,3.8,9.4,7.6,12.9c2.9,2.7,6.1,5.1,9.1,7.7c2,1.8,4.6,3.5,5.2,6.1c1.2,5.8,1.7,11.7,2.5,17.6c-0.3,0.1-0.5,0.2-0.8,0.3
		c-12-14.7-19.8-32-28.9-48.5c-0.2,0.5-0.2,0.9,0,1.2c4.5,12.1,9.3,24,15.8,35.1c2.9,4.9,5.5,10.2,10.4,13.3c3.7,2.4,4.8,5.4,5,9.3
		c0,0.4,0.1,0.8,0.1,1.2c2.2,14.3,4.3,28.6,6.5,42.8c0.2,1.2,0.3,2.7,2,2.4c1.9-0.3,1-1.8,0.8-2.9c-2.4-14.6-4.8-29.1-7.1-43.7
		c-0.6-3.9-1.9-7.8-1.2-11.8c1.9-9.8,6-18.5,13.4-25.5c2-1.9,3.9-4,5.6-6.2c2.8-3.6,4.3-7.7,5.2-12.2c-1-0.1-1.2,0.3-1.5,0.7
		c-3.7,6.8-8.8,12.2-14.4,17.4c-3.4,3.2-5.9,7-7.7,11.2c-0.7,1.7-1.4,3.4-2.4,6c-0.4-3.8-0.8-6.7-1.1-9.6c-0.2-1.2,0.3-1.8,1.3-2.4
		c10.8-7.3,14.7-18.7,17.6-30.5c0.1-0.2-0.1-0.5-0.4-1.3c-1,2.5-1.8,4.6-2.8,6.7c-0.4,0.8-0.3,2.3-1.7,1.9c-1-0.3-1.2-1.3-1.2-2.5
		c0.1-2.7-1.4-4-4.1-4c-0.8,0-1.9,0.5-2.3-0.2c-1.1-2.4-3.6-3.1-5.5-4.4c-1-0.7-0.7-1.1-0.1-1.8c2-2.2,4-4.3,7.5-4
		c1.7,0.2,3.3-0.5,4.8-1.4c2.8-1.7,3.1-2.8,1.4-5.7c-0.3-0.5-0.5-1.1-0.4-1.7c0.3-2.1-0.7-3.4-2.6-4.5c4.7-1.6,6.3-3.7,5.3-7.6
		c-0.5-2.1-0.1-2.6,1.9-2.7c1.9-0.1,4.2-1.3,4.1-2.8c-0.2-1.8,0.1-4.7-2.1-5.4c-1.9-0.6-2.4-2-3.1-3.2c-0.9-1.5-1.1-3.1,1.6-3.1
		c1.1,0,2.2-0.1,3.2-0.4c1.9-0.6,1.9-2.1,1.5-3.7c-0.3-1.3-0.8-2.7-2.5-2.3c-3,0.6-3.4-1.5-3.8-3.5c-0.2-1.5-0.5-2.8-2-3.4
		c-1.1-0.4-2.3-0.7-2-2.2c0.3-1.5,1.8-1,2.7-1.2c4-0.5,5.6-2.5,4.2-6c-0.7-1.6-0.1-2.2,1.7-2.4c4.1-0.4,4.7-1.4,4.2-5.5
		c-0.1-0.8-0.2-1.6-0.3-2.4c-0.1-2-1.2-2.6-3-2.5c-2.5,0.1-4.6,1.1-6.7,2.3c-0.6,0.4-1.4,1.3-2.1,0.5c-0.7-0.8,0-1.7,0.3-2.5
		c0.5-1.3,1.5-1.3,2.7-1.1c3.1,0.6,6.2,0.3,9-1.2c1.8-1,2.7-2.1,1.3-4.3c-0.9-1.5-1.6-3.5,0.9-4.7c1.8-0.8,2.2-2.5,2.1-4.3
		c0-0.8-0.3-1.5,0.2-2.3C72.6,25.7,71.9,22.9,68.1,20.8z M57.5,79.7c0.4-1.3,1.7-2.2,3.1-2.5c1.4-0.3,1.3,1.1,1.3,1.8
		c0,1.9-1.6,1.3-2.6,1.6C58.6,80.3,57.2,80.9,57.5,79.7z M61.6,13.7c1.1-1.8,2.3-3.3,4.3-0.9c0.1,0.1,0.1,0.1,0.2,0.2
		c1.1,0.9,3.9,0.2,2.8,3c-1.1,2.9-3,5.2-5.8,6.5c-0.9,0.4-1.5-0.2-1.9-1c-0.6-1.2-0.5-2.5-0.6-4.4C60.6,16.3,60.9,15,61.6,13.7z
		 M59.1,35.3c0.2,0,0.6,0.4,0.6,0.5c-0.2,0.7-0.8,1-1.8,1C58.2,36,58.2,35.2,59.1,35.3z M55.5,32.5c-1.5-0.7-2.6-1.7-3.6-3
		c-0.8-1-2.1-2.2-1.5-3.3c0.7-1.3,2.5-1.9,4.1-1.9c1.7-0.1,1.9,1.5,2.3,2.7c0.5,1.3,0.7,2.7,0.8,3.2C57.8,32.7,57,33.2,55.5,32.5z
		 M47.8,54.7c-1.9,0.7-3.1-1.4-4.3-2.6c-1.4-1.4-2.5-3-1.4-5c0.9-1.5,2.4-2,4.1-1.7c3,0.6,2.4,3.2,2.8,5.3
		C48.7,52.1,49.3,54.2,47.8,54.7z M44.7,68c0.6-1.4,0.4-3.6,2.1-4c1.7-0.3,2.8,1.6,4.2,2.4c1,0.6,0.9,1.9,0.3,2.9
		c-0.6,0.9-1.1,1.9-1.8,2.7c-1,1.1-1.8,3.1-3.6,2.5c-1.7-0.6-1.4-2.6-1.5-4.3C44.5,69.5,44.4,68.7,44.7,68z M40.8,94.4
		c-0.7-0.5-0.9-1.3-0.5-2.9c0-0.1,0.1-1,0.2-1.9c0.1-1.1,0.5-2.3,1.6-2.7c1.2-0.4,2.1,0.9,3.1,1.5c1.1,0.7,0.3,1.8,0,2.7
		c-0.4,1.2-1.3,2-2.2,2.7C42.2,94.3,41.7,95.1,40.8,94.4z M48.6,107c-3.2,0.7-5.5,2.4-7.7,4.2c-0.2-0.3-0.3-0.4-0.3-0.5
		C41,104.9,41,104.9,48.6,107z M36,75.3c2.7,1.6,4.4,3.3,6.8,3.7c0.9,0.1,1.1,0.8,0.9,1.6c-0.5,1.5-0.2,3.2-1.8,5.2
		C41.3,81.3,38,79.1,36,75.3z M51.4,91.3c0.6,0.2,0.9,0.5,0.7,1c-0.3,0.8-0.4,2.1-1.4,2.1c-3,0-4.9,2.5-7.6,3.1
		C43.1,93.3,47.6,90,51.4,91.3z M49.6,89.8c-2.2,0.3-3.2-1.1-3.4-2.9c-0.2-1.8,4.5-5.1,6.8-5c3.7,0.1,1,4.1,3.2,5.1
		C54.9,90.1,51.9,89.2,49.6,89.8z M45.1,85.4c0.1-1.1,0.1-1.7,0.1-2.3c0.1-2.7,1-4.1,4.1-3.3c1.6,0.4,3.5,0.1,5.2,0.1
		C50.6,80.1,47.7,81.9,45.1,85.4z M35.2,62.7c-1.8-1.6-1.6-4,0.2-5.5c2.4-1.9,5.2-1.9,6.5,0.2c1.4,2.1,1.8,4.6,2.1,6.8
		c0.1,2.8-1.2,3.7-3.3,2.5C38.8,65.6,36.9,64.2,35.2,62.7z M36.1,70.7c0.8-1.3,2.5-1.9,4.1-2c1.8-0.1,2.1,1.5,2.6,2.8
		c0.4,1.3,0.7,2.7,1,3.6c0.2,1.9-0.4,2.5-1.9,1.9c-1.6-0.6-3-1.6-4.1-2.9C36.9,73.1,35.3,72,36.1,70.7z M30.8,76.2
		c0-0.9,0.5-1.6,1.4-1.5c1.5,0.2,2.5,1.2,2.9,2.6c0.3,1-0.9,0.6-1.5,0.8C32.4,77.7,30.9,78,30.8,76.2z M31.6,83
		c0.6-1.7,2.8-2,4.4-2.7c1.3-0.6,2.1,0.4,2.6,1.4c0.7,1.3,1.2,2.7,1.7,4c-0.4,1.6-0.5,3.4-1.8,4.1c-1,0.6-2.1-0.8-3.1-1.4
		c-0.6-0.4-1.1-0.8-1.6-1.4C32.9,85.7,31.1,84.5,31.6,83z M31.3,93.4c0.6-0.1,1.2-0.4,1.6-0.8c2.1-2.8,3.6-0.9,4.8,0.8
		c1.5,2.1,1.8,4.6,2,6.3c0,2.2,0.2,3.7-2,3.6c-2.5-0.1-7.5-3.8-8.3-6.1C28.8,95.3,28.9,93.8,31.3,93.4z M24.5,101.9
		c-0.2-1,1.1-1.5,1.8-1.5c1.8,0.1,1.8,1.8,2.2,3c-0.1,0.6,0.1,1.6-0.8,1.3C26.4,104.2,24.9,103.4,24.5,101.9z M35.4,118.2
		c-0.2,1.1-0.9,1.2-1.8,1c-3.8-1-7.1-3-9.6-6.1c-0.3-0.4-0.6-1.1-0.4-1.3c1.5-2,3.4-3.6,5.6-4.7c1.8-0.9,3,0.7,3.9,1.9
		c1.3,1.7,2.6,3.5,3,5.6C35.9,115.9,35.7,117,35.4,118.2z M36.4,110.9c-1.4-2.3-2.9-4.4-5.4-5.8c-1.2-0.7-1.3-2.3-1.4-4.3
		c3,1.9,5.4,3.8,8.6,4.3c1.2,0.2,0.9,1.4,0.7,2.2c-0.3,1.5,0.1,3.3-1.2,4.4C37.1,112.2,36.7,111.4,36.4,110.9z M34.8,140.8
		c-3.9,0-9.4-4.2-10.4-7.5c-0.6-1.9-0.1-3.4,2.2-3.6c1.1-0.1,2-0.3,2.5-1.3c1-2.1,2.2-1.6,3.5-0.4c1.7,1.5,2.9,3.2,2.8,5.6
		c-0.1,1.6,0,3.2,0.8,4.6C37.2,140.2,36.1,140.7,34.8,140.8z M40.8,157.6c-0.3,0.3-0.8,0.7-1.2,0.7c-0.6-0.1-0.5-0.8-0.5-1.2
		c-0.2-4.2-0.3-8.3-0.5-12.5c0-1.2,0.3-1.8,1.8-1.5c3.6,0.7,7.1,0.4,11.4-1.1C48.5,148.1,45,153,40.8,157.6z M48.5,132.2
		c1.1,0,2.1,0.5,2.1,1.7c-0.1,1.7,0.2,3,1.3,4.3c0.7,0.8-0.3,1.4-0.9,1.9c-2.1,1.6-4.6,1.6-6.9,1.8c-0.9,0-1.6,0-2.3-0.1
		c-1.1-0.2-2.3-0.3-2.6-1.6c-0.3-1.1,0.9-1.4,1.4-2c1.2-1.3,2.4-2.6,3.4-4.1C45.3,132.6,46.8,132.2,48.5,132.2z M42.9,129.2
		c1,0.6,1.3,1.6,0.8,2.6c-1,2.1-2.4,3.9-4.1,5.4c-0.4,0.4-1,0.8-1.6,0.4c-1.2-0.9-0.9-2.3-1.1-3.6c0.1-1,0.2-2,0.4-2.9
		C38.5,126.5,38.8,126.9,42.9,129.2z M43.8,117.4c-1,2.2-2.5,4.1-4.3,5.6c-1.1,0.9-1.9,0.3-2.2-0.9c-0.2-0.9-0.3-1.8-0.4-2.6
		c0.1-0.9,0.2-1.8,0.4-2.7c0.9-4.2,2.6-4.7,5.9-1.8C44,115.7,44.2,116.5,43.8,117.4z M52,111.6c-0.1,0.7-0.2,1.5,0.3,2
		c2.9,2.8,0.1,3.6-1.7,4.5c-0.9,0.5-2.1,0.6-3.2,0.7c-1.9,0.1-1.9,0.1-1.8-1.8c0.3-1.6-0.5-2.7-1.8-3.4c-1.6-0.9-1.2-1.7,0-2.6
		c1.5-1.2,3.1-2.1,5.1-2.3C50.9,108.4,52.4,109.1,52,111.6z M52.5,104.8c-0.8,0.3-1.8,0.3-2.2,0.4c-2.6-0.2-4.8-0.3-6.9-1.1
		c-1.9-0.7-2.2-2-0.8-3.4c2.1-2.2,4.7-3.8,7.6-4.5c2.4-0.6,3.9,1,4.6,3.3C55.4,101.8,55.1,103.8,52.5,104.8z M58.4,89.6
		c2.5,0.1,1.3,2.7,2.4,3.9c0.6,0.6-1.9,1.8-4.8,1.7c-1.2-0.1-2.5,0.1-2.8-1.5C52.9,92.4,56.6,89.5,58.4,89.6z M54.6,70.4
		c1.2,0.3,1.5,1.3,1.2,2.3c-0.4,1.5,2.3,2.4,0.6,4c-1.7,1.6-3.9,1.1-5.7,1.4c-0.8,0-1.4,0-2,0c-0.8-0.1-1.7-0.1-2-0.9
		c-0.3-0.9,0.5-1.4,1-2c1.2-1.3,2.4-2.6,3.6-3.9C52.3,70.4,53.4,70.1,54.6,70.4z M59,62c-0.3,2-2.4,1.7-3.9,2
		c-0.5,0.1-1,0.1-1.6,0.1c-1.1-0.2-2.7,0.6-3.3-1C49.6,61.8,51,61,52,60.1c0.5-0.5,1.1-0.9,1.7-1.2c1.3-0.7,2.8-2.1,4-1.2
		C58.9,58.5,59.2,60.5,59,62z M58.5,49.3c0.3-0.1,0.5-0.3,0.8-0.4c1.6-0.5,3.4-1.7,4.7-0.3c1.1,1.3,1.2,3.4,0.7,5.1
		c-0.6,2-2.5,1.9-4.2,2c-0.3,0-0.6,0-1.1,0c-1.1-0.4-3.4,0.6-3.5-1.2C55.7,52.7,55.5,50,58.5,49.3z M54.3,52.1
		c0.7,0.8,0.3,1.7-0.2,2.4c-1,1.3-1.6,3.5-3.4,3.4c-1.9-0.1-0.9-2.4-1.5-3.6c0.3-1.6,0.2-3.5,2-4.1C52.5,49.9,53.5,51.1,54.3,52.1z
		 M56.5,42.6c-0.4,0.9-1.2,1.6-1.8,2.3c-0.5,0.6-1,1.4-1.9,1.1c-1.1-0.3-0.9-1.4-1.1-2.1c0.2-1.1,0.3-2.1,0.5-3.1
		c0.2-1,0.3-2.5,1.5-2.6c1.3-0.2,2.4,0.8,3.3,1.7C57.9,40.9,56.9,41.8,56.5,42.6z M65.6,43.2c-1.6,1.5-3.5,1.7-5.5,1.8
		c-3,0.1-2.7,0-2-3c0.6-2.4,1.1-4.4,3.8-4.9c1.7-0.3,3.3-0.4,3.1,2.2c0,0.1,0,0.2,0,0.3C64.5,40.9,67.3,41.7,65.6,43.2z M69,33.2
		c-0.6,1.9-2.3,1.9-4.1,1.9c-1.8-0.4-4.8,0.3-5.3-1.8c-0.6-2.3,2.4-2.9,4-3.9c1.4-0.9,2.8-1.6,4.3-0.2C69.1,30.3,69.5,31.7,69,33.2z
		 M68.7,27.9c-1.9-1-3.8-0.5-6.2,0.3c0.6-2.3,1.8-3.4,3.1-4.3c1-0.7,2.4-1.5,3.3-0.6c0.8,0.9,1.1,2.4,1.3,3.7
		C70.3,27.8,69.3,28.3,68.7,27.9z"/>
	<path d="M21.9,125.2c1,0.4,2.1,0.6,2.8,0.7c1.4,0,2.5-0.1,3.1-1.1c0.6-1.1,0-2.1-0.7-3c-0.6-0.7-1.2-1.3-1.9-1.9
		c-0.9-0.8-2-1.6-3.2-0.8c-1.3,0.8-2.4,2-2.5,3.5C19.2,124.3,20.7,124.8,21.9,125.2z M23.1,120.8c1.5,0.3,2.6,1.5,3.1,2.9
		c0.3,0.8-0.7,0.7-1.3,0.8c-1.2-0.5-3.1-0.1-3.6-1.9C21.1,121.8,21.9,120.5,23.1,120.8z"/>
	<path d="M48.7,121.5c-0.4,0.2-0.9,0.5-1.3,0.8c-1.1,0.9-2.6,1.9-2,3.6c0.6,1.6,2.3,1.3,3,1.3c1,0,1.4,0,1.8,0
		c1.4-0.1,3-0.2,3.3-1.9c0.3-1.5,0.3-3.1-0.9-4.2C51.4,120.1,50,121,48.7,121.5z M49.4,125.8c-0.8-0.3-2.3,0.3-2.1-0.9
		c0.3-1.5,1.9-2.1,3.4-2.4c1.1-0.2,1.3,0.8,1.3,1.6C52.1,126.1,50.4,125.5,49.4,125.8z"/>
</g>
</svg>
