<?xml version="1.0" encoding="utf-8"?>
<!-- Generator: Adobe Illustrator 25.3.0, SVG Export Plug-In . SVG Version: 6.00 Build 0)  -->
<svg version="1.1" id="Layer_1" xmlns="http://www.w3.org/2000/svg" xmlns:xlink="http://www.w3.org/1999/xlink" x="0px" y="0px"
	 viewBox="0 0 128 249.2" style="enable-background:new 0 0 128 249.2;" xml:space="preserve">
<path d="M48.5,109.1c-1.8,5.6-3.5,10.1-6.1,14.1c-0.8,1.2-1.6,2.3-2.6,3.3c-1.4,1.3-3.1,2.1-5,1.1c-1.9-1-2.1-2.9-1.9-4.7
	c0.4-3.5,2.7-6.4,3.6-10.1c-2,0.2-3.8,0.5-5.6,0.6c-2.4,0.1-4.4-0.9-5.4-3.2c-1-2.3,0.6-3.7,2-5.1c3.2-3.1,7.2-4,11.5-4.1
	c1.2,0,2.7,0.6,3.3-1c0.4-1.1-0.6-2.1-1.2-3c-2.5-3.3-4-7-5.8-10.6c-2-4.2-2-4.3-5.5-0.9c-2.4,2.3-4.9,4.6-7.9,6.1
	c-4.8,2.5-9,1.7-11-2c-2-3.7-0.6-7.8,3.8-10.7c3.8-2.5,8-3.3,12.4-3c3.2,0.2,3.8-1,3-3.9c-1.3-5.1-2.3-10.2-3.5-15.6
	c-1.6,1.3-2.9,2.5-4.4,3.5c-1.3,0.9-2.8,1.6-4.2,0.3c-1.5-1.4-1.3-3.1-0.3-4.6c1.1-1.6,2.4-3,3.8-4.7c-2.7-1.4-5.8-2.2-7.7-4.8
	c-0.3-0.4-0.7-0.8-1-1.3c-1.7-3.1-3.7-6.7-0.8-9.6c2.8-2.9,6.5-1.3,9.7,0.5c2.6,1.5,4.1,5.3,6.5,5.4c2.5,0.1,4-3.9,6.8-5.1
	c2.9-1.3,5.7-2,8,0.9c2.3,2.8,1.1,5.6-0.9,7.9c-2.5,2.9-5.8,4.3-9.4,5.1c-1.8,0.4-3.2,1-3,3.2c0.5,6.5,1.4,12.9,3.8,20
	c1.8-2.8,3.1-5.1,4.6-7.2c2.2-3.1,4.9-5.8,8.5-7.2c2.8-1,5.6-1.2,7.6,1.5c1.9,2.4,1.1,5-0.3,7.4c-1.5,2.5-4.1,4.1-6.4,6.3
	c0.8,0.5,1.4,0.8,2,1.2c3.3,2.2,3.3,4.6-0.3,6.6c-2.7,1.5-5.7,2.2-8.9,1.8c-2.6-0.3-3,0.6-1.8,2.8c1.9,3.5,3.9,7.1,5.7,10.7
	c1.3,2.5,2.5,3.3,4,0.1c1.2-2.4,2.9-4.4,5.1-6c2.4-1.8,5.1-2,7.2,0c1.9,1.9,0.7,4.2-0.5,6.1c-1.9,3-4.2,5.5-7.4,7.3
	c-1.6,0.9-2.8,1.9-1.3,3.9c6.7,9.3,12.2,19.3,16.1,30.1c0.1,0.2,0.4,0.3,0.7,0.4c0.9,0,1-0.8,1.1-1.5c1-6.6,2.9-13,4.9-19.4
	c0.8-2.4,1.1-4.3-2.6-3c-1.6,0.6-3.5,0.5-4.3-1.4c-0.9-2.1,0.3-3.7,1.9-4.5c3.4-1.8,3.4-3.5,1.5-6.8c-2.7-4.7-4.7-9.8-5.7-15.2
	c-0.5-2.7-1.5-6,1.9-7.4c3.3-1.3,5.4,1.1,7,3.8c2.7,4.6,4.5,9.5,5.4,15.1c3.4-4.8,9.2-24,9.7-31.5c-2,1.2-3.7,2.2-5.4,3.1
	c-1.6,0.8-3.6,1.7-4.9-0.1c-1.4-1.8-0.1-3.5,1.2-4.8c0.9-1,2.2-1.7,3.5-2.8c-2.4-1.9-4.8-1.9-6.7-2.8c-3.2-1.4-6.4-2.8-8.7-5.6
	c-1.9-2.3-2.8-4.9-1.2-7.7c1.5-2.6,3.9-3.5,6.8-3.2c6.1,0.6,10.7,3.8,14.5,8.3c1.1,1.3,2,2.6,3.6,4.7c1.8-7.7,2.5-14.7,2.7-22
	c-2.6,0.4-4.6,4.1-7,1.4c-2.5-2.9,0.8-5,2.1-7.6c-2.9-0.6-5.6-1-8.2-1.8c-5-1.5-7.3-5.4-5.9-9.4c1.3-3.9,4.9-5.2,10.1-3.6
	c3.2,1,5.9,2.7,8.1,5.1c2,2.2,2.9,1.6,4.3-0.6c2-3.1,4.6-5.7,8.3-6.7c2.2-0.6,4.6-1,6,1.4c1.3,2.1,0.2,4.1-1.1,5.8
	c-2.5,3.1-5.9,5.2-9.3,7c-3.2,1.8-4.3,4.2-4.5,7.8C96.8,38.7,96,45,95.3,51.2c-0.1,1.1-0.9,2.4,0,3.2c1.1,0.9,2-0.4,3-0.9
	c4.9-2.3,9.9-4,15.3-1.7c2.1,0.9,4.2,2.1,4.3,4.6c0.2,2.5-1.8,3.7-3.7,4.6c-5.5,2.9-11.4,3.5-17.5,2.1c-1.9-0.4-3.5-1-4,1.8
	c-1.9,9.7-4.7,19.2-7.8,29c2.2-0.1,3.2-1.5,4.5-2.3c3.9-2.3,7.8-3.8,12.3-1.9c5,2,6.4,7.1,3,11.2c-3.1,3.8-7.4,5.5-12,6.1
	c-2.5,0.3-4.4,0.2-1.9,3.3c1.8,2.3,2.1,5.2-0.7,6.9c-2.7,1.6-5.3,1-7.4-1.6c-1.1-1.4-1.9-3.9-3.6-3.7c-2.1,0.3-1.8,3.1-2.5,4.9
	c-2.2,5.9-2.9,12.1-4.5,19c2.4-1.7,4.1-3.1,6-4.1c1.3-0.7,2.9-1.1,4.4-1.3c3-0.4,6.7-1.1,8,2.5c1.2,3.4-2.5,4.1-4.6,5.5
	c-1.7,1.1-3.7,1.8-6.4,3c2.9,0.9,5.1,1.4,7.2,2.1c3.6,1.2,7,2.8,9.6,5.7c1.3,1.5,2.4,3.2,1.5,5.3c-0.9,2.1-2.9,2.6-4.9,2.7
	c-4.6,0.1-8.8-1.5-12.7-3.6c-2.7-1.4-5.2-3.2-7.8-4.9c-1.4-0.9-2.1-1-2.7,0.9c-0.9,3.3-1.4,23.9-0.3,28c2.9-3.2,6.1-5.5,9.5-7.6
	c1.5-0.9,2.8-1.5,4.6-1.7c2.2-0.2,4.6-1.1,5.7,1.8c1.1,2.8,0.5,5.2-1.8,7.2c-2.7,2.3-5.7,4.4-8.9,6.1c0.1,0.5,0.1,0.8,0.2,0.9
	c1.6,1.4,4.6,2.2,3.3,5c-1.2,2.9-4.3,2.8-6.9,2.7c-6.1-0.3-6.1-0.3-5.1,5.8c0.9,5.5,1.9,11,2.9,16.5c0.2,1.2-0.1,2.9,1.3,3.3
	c1.1,0.4,1.8-1.1,2.6-1.8c2.6-2.4,5.6-4.2,9.1-5c1.9-0.5,4-0.8,5.2,1.3c1.2,2.1,0.1,3.8-1.4,5.2c-3,3-6.4,5.6-10.6,6.5
	c-4,0.8-5.4,3-4.8,6.8c0.1,0.7,0.1,1.4,0.1,2.1c-0.1,1.1,0.5,2.7-0.8,2.9c-1.9,0.4-1.4-1.6-1.8-2.6c-0.2-0.4-0.3-0.7-0.6-1.5
	c-2.3,2.2-4.4,4.3-6.7,6.2c-1.4,1.2-3.2,2.2-4.9,0.8c-1.9-1.6-0.5-3.3,0.2-4.9c0.1-0.3,0.2-0.5,0.4-0.7c3-3.2,5.8-6-1.3-8
	c-3-0.9-2.5-4,0.4-5.7c2.7-1.5,5.4-0.8,8.2-0.3c2,0.4,3.4,0.3,2.9-2.3c-1.4-7.6-2.7-15.3-4.2-23.7c-1.6,2.4-2.7,4.4-4.1,6.1
	c-1.6,2.1-3.7,3.6-6.5,2.2c-2.6-1.3-3.2-3.6-2.9-6.4c0.5-3.9,3.4-6.3,5.6-9.3c-4.5-2.5-9.8-1.5-14.2-3.8c-2.7-1.4-5.4-2.5-4.7-5.9
	c0.7-3.2,4-3.3,6.5-3.3c6-0.1,10.8,3.2,15.8,6c1.1,0.6,2,2.1,3.2,1.5c1.1-0.5,1.1-2.2,1-3.4c-0.3-8.8-0.3-17.5,0.7-26.2
	c0-0.2-0.3-0.4-0.7-1c-2.4,1.9-4.6,3.8-7.1,5.5c-2.1,1.5-4.8,3.6-7,0.7c-2.2-2.8,0.6-4.9,2.3-6.8c1-1.1,2.2-2,3.8-3.5
	c-3.6-0.8-6.5-1.3-9.4-2.1c-4.1-1.2-6.7-4.3-6.2-7.2c0.6-3.2,5.2-6.2,9.1-5.9c2.5,0.2,4.9,0.8,7,2.4c1.2,0.9,2.5,1.5,4.7,2.8
	C60.8,124.9,54,118,48.5,109.1z M86.9,64.3c-2.3-0.8-3.2,0.7-5,2.7C84.5,66.4,85.6,65.2,86.9,64.3c-0.1-0.1-0.2-0.1-0.2-0.2
	C86.7,64.2,86.8,64.3,86.9,64.3z M87.2,105c5.7,0.3,10.8-1.4,14.9-5.4c2.9-2.9,2-6-1.8-7.4c-1.6-0.6-3.3-0.6-4.9-0.1
	c-5.3,1.8-9.6,5-12.7,9.7c-1.5,2.2-0.5,3,1.7,3.2C85.2,105,86.2,105,87.2,105z M72.5,45.6c-1,0.1-2.6,0.3-3.3,1.9
	c-0.9,1.9-0.3,3.6,1.1,4.9c4.7,4.3,10.6,5.9,16.8,6.5c1.4,0.1,2-0.3,1.5-1.9C86.9,52.1,78.2,45.6,72.5,45.6z M26,78.2
	c-4,0.2-7.9,1.1-11.1,3.9c-1.9,1.7-3,3.7-1.3,6.2c1.6,2.3,3.8,2,5.9,1.2c3.4-1.4,6.1-3.8,8.6-6.4c1-1,3-2,2.4-3.5
	C29.9,77.9,27.7,78.4,26,78.2z M60.8,142.9c1.1-0.9,4.3,1.2,3.4-2.2c-1.2-4.4-11.6-9-16-7.6c-1.7,0.6-3.1,1.5-3.4,3.3
	c-0.3,2.1,1.3,2.8,2.9,3.5C51.9,141.8,56.4,141.9,60.8,142.9z M73,144.8c5.1,5.2,11.1,8.5,18.1,9.7c1.3,0.2,3,0.5,3.7-1.1
	c0.6-1.4-0.6-2.4-1.5-3.1C87.3,145.6,80.5,144,73,144.8z M76.3,104.2c0.7-8.1-1.8-15.1-6.3-21.6c-0.5-0.7-1.1-1.3-2.1-1.1
	c-1.1,0.3-1.5,1.3-1.4,2.3C67.7,91.6,70.9,98.4,76.3,104.2z M36.5,74.7c6.2-1.3,10.7-3.8,14.2-8c1.3-1.6,2.5-3.4,0.8-5.2
	c-1.5-1.7-3.3-0.9-5,0C41.5,64.2,38.5,68.5,36.5,74.7z M91.1,24.5c0.8-0.2,2,0.4,2.6-0.6c0.8-1.2-0.2-2.1-0.9-2.9
	c-2.3-3-5.3-4.9-8.9-5.8c-2.5-0.7-4.9-0.8-5.9,2.1c-1,3,0.9,4.6,3.5,5.7C84.7,24.1,87.9,23.9,91.1,24.5z M102.3,61.1
	c3.6-0.2,6.9-0.7,9.9-2.2c1.1-0.5,2.6-0.9,2.6-2.4c-0.1-1.7-1.7-2-3-2.4c-3.6-1.1-7.2-0.6-10.5,1c-2.1,1-5.6,2-5.2,4
	C96.6,61.8,100.3,60.4,102.3,61.1z M23.9,48c2.7,0.5,3-0.9,2.2-3.1c-1.5-4.2-4.6-6.9-8.6-8.4c-2.8-1-4.3,0.6-3.6,3.5
	C14.8,44.3,18.8,47.5,23.9,48z M69.3,182.8c7.2-1.7,13.2-3.1,16.9-8.8c0.5-0.8,1.2-1.6,0.5-2.6c-0.5-0.7-1.3-1.2-2.2-0.9
	C78.5,172.7,73.4,176,69.3,182.8z M31.7,110.5c3.9-1,8.1-1.5,11.4-4.4c1-0.9,2.1-1.7,0.2-2.8c-3-1.7-12,0.4-14,3.3
	c-0.6,0.8-1.1,1.7-0.7,2.7C29.2,110.5,30.4,110.5,31.7,110.5z M41.2,40.2c0-2-1.2-3.1-3.4-2.5c-3.7,1-6.1,3.7-7.7,7
	c-0.5,1-0.4,1.9,0.8,2.3C33.8,47.8,40.8,43.4,41.2,40.2z M60.6,182.2c-4.8-5.9-10.8-5.9-16.4-6.8c-1-0.2-1.5,0.6-1.5,1.6
	c-0.1,1.2,0.8,1.7,1.7,2.1C49.2,181,54.3,182,60.6,182.2z M45.2,108.3c-3.7,1.8-9.7,11.4-9.6,14.8c0,0.8,0.3,1.4,1.1,1.6
	c0.7,0.2,1.4-0.2,1.8-0.8C41.8,119.3,44.4,114.4,45.2,108.3z M57.7,198.9c0.4-0.1,0.9-0.2,1.1-0.4c3.2-2.9,4.7-6.8,6.2-10.7
	c0.5-1.3-0.9-1.4-1.9-0.9c-3.8,1.6-6.4,4.3-7.5,8.3C55.1,196.8,55.5,198.5,57.7,198.9z M98.9,22.7c3.8-1.5,7.1-3.6,9.7-6.6
	c0.6-0.7,1.5-1.6,0.8-2.5c-0.8-1.1-2-0.6-3-0.2C102.2,15,99.8,18.2,98.9,22.7z M73.9,139.3c5-0.5,8.7-2.5,12.6-3.7
	c0.9-0.3,1.9-1,1.4-2.2c-0.4-1-1.5-1.2-2.5-1.2C80.5,132.3,77.4,135.2,73.9,139.3z M49.1,102c4.4-1,6.8-4,9.3-6.7
	c0.7-0.7,1-1.8,0.4-2.7c-0.9-1.2-2.1-0.4-3,0C52.1,94.4,50.2,97.5,49.1,102z M75.9,221.5c5.3-0.4,8.5-3,11.6-5.8
	c0.5-0.5,1-1.1,0.4-1.8c-0.5-0.6-1.2-0.4-1.9-0.2C82,215,78.5,217,75.9,221.5z M89,112.9c-0.1-1.9-3.9-5.5-6-5.4
	c-1.2,0-1.7,0.7-1.6,1.9c0.1,2.3,3.9,5.8,6,5.7C88.5,115,89.1,114.4,89,112.9z M36.5,79.2c3.8,1.9,6.9,1.5,10.1,0.4
	c0.6-0.2,1.4-0.5,1.4-1.4c0-1.1-1.1-1.2-1.8-1.3C43,76.8,39.9,76.9,36.5,79.2z M63.4,147.3c-4.7,0.7-6.8,2.4-8.2,6.5
	C58.6,152.4,61.1,150.2,63.4,147.3z M78.6,188.3c-2.2-1.9-4.5-2.4-7.1-1.8c-0.8,0.2-0.6,1-0.2,1.3C73.5,189.3,75.7,189.9,78.6,188.3
	z M60.9,222.4c2.6,1.8,5.3,2.1,8.4,0.2C66.4,221,63.7,220.8,60.9,222.4z M71.2,112.8c1.1-0.4,2.6-0.9,3.2-2.4
	c0.3-0.7-0.7-1.2-1.4-0.9c-1.4,0.5-3.1,0.7-3.6,2.4C69.2,112.6,70,112.9,71.2,112.8z M62.6,235.2c3.2-1.9,4.7-3.5,6.3-6.7
	C65.7,230.2,64.2,231.9,62.6,235.2z M23.2,53.9c-1.4,0.6-2.4,1.1-2.3,3.1C22.1,56.1,23.1,55.7,23.2,53.9z"/>
</svg>
