<?xml version="1.0" encoding="utf-8"?>
<!-- Generator: Adobe Illustrator 25.3.0, SVG Export Plug-In . SVG Version: 6.00 Build 0)  -->
<svg version="1.1" id="Layer_1" xmlns="http://www.w3.org/2000/svg" xmlns:xlink="http://www.w3.org/1999/xlink" x="0px" y="0px"
	 viewBox="0 0 116.1 230.4" style="enable-background:new 0 0 116.1 230.4;" xml:space="preserve">
<path d="M54.2,149.8c0-17.8,0.5-35.3,1.2-52.8c0.1-3.1-1.6-3.1-3.9-3.6C44.2,91.7,39.6,87,37.4,80c-0.6-1.8-0.6-4,1-5.3
	c1.5-1.2,3.2-0.2,4.8,0.4c4.2,1.6,7.7,4.3,12.1,7.5c0.5-7.2,0.9-13.5,1.3-19.7c-2.5-0.7-2.7,1.7-3.7,2.7c-3.2,2.9-6.9,3.7-10.5,1.6
	c-4-2.3-3.3-6.2-1.8-9.6c1.9-4,4.3-7.7,6.8-12.1C41.1,46.9,35,47.2,29,46.1c-3.3-0.6-6.6-1.5-7.5-5.1c-0.9-3.7,2.2-5.7,4.7-7.7
	c6-4.7,12.9-4.9,20.8-3.6c-1.7-4.3-3.3-7.9-4.5-11.5c-1.3-3.6-2.3-7.3-1.7-11.2C41.4,3.9,43,1.5,46,0.4c3.1-1.2,5.4,0.8,7.4,2.7
	c4.1,3.9,5.7,9.3,7.4,15.6c3.8-6.5,7.9-11.3,14.1-13.6c2.4-0.9,4.9-2.1,7.2,0.1c2,1.9,1.3,4.3,0.9,6.6c-0.8,4.8-3.9,8.4-7.1,13.2
	c4,0,7.5-0.2,10.9,0.1c3.5,0.3,6.8,1.6,7.4,5.8c0.5,3.9-2.2,5.8-5.2,7.1c-4.5,2-9.2,3.3-15,3c1.9,3.2,3.4,5.8,4.9,8.5
	c1.5,2.6,2.7,5.3,2.6,8.4c-0.2,6.2-4.7,8.7-10,5.5C69.2,62,67.5,60.1,66,58c-1.3-1.9-2.4-3.8-4.5-7.3c-1.6,41.1-3.2,80.5,1,120.1
	c4.1-17.6,10.1-34.4,17.4-50.8c-8.7-2.8-8.9-5.5-1.5-16c-4.4-1.5-11.2-0.6-10-8.3c0.9-5.7,5-7.1,15.8-5.6c-0.5-2.9-1.2-5.8-1.4-8.6
	c-0.3-5.2,2.9-10,6.8-10.3c5.8-0.5,5.8,4.4,7,8.2c0.3,1,0.3,2.1,0.6,3.7c2.6-1.8,4.9-3.6,7.4-4.9c2.2-1.1,4.8-2.5,7.1-0.3
	c2.3,2.2,1.7,5.1,0.9,7.8c-0.9,3-3.5,4.7-5.9,7.2c1.3,0.5,2.3,0.8,3.2,1.1c4.1,1.3,6.8,4,6.1,8.5c-0.7,4.7-5,4.2-8.2,3.9
	c-4.6-0.4-7.5,0-6.1,5.7c0.2,1-0.1,2.1-0.3,3.2c-0.6,3-1.3,6.2-4.8,6.8c-3.8,0.6-4.7-2.8-6-5.4c-0.6-1.3-0.5-3-2.5-4.2
	c-4.5,9.3-8.4,18.8-12.4,30.1c6.2-4.4,11.7-7.4,17.7-9c3-0.8,6.9-2.5,8.8,0.6c1.8,2.9-1.6,5.4-3.6,7.4c-6.4,6.5-14,11.1-22.7,13.7
	c-2,0.6-4.5,0.5-5.1,3.1c-2.5,10.9-5.9,21.7-5.8,33.2c3.9-6.9,8.4-13.2,14.7-17.9c1.8-1.3,3.5-4.2,5.8-2.9c2.5,1.4,1.3,4.6,1,7.1
	c-1.3,11.2-7.1,20.1-15.6,26.9c-3.6,2.9-4.3,5.5-3.7,9.7c0.7,4.9,2,9.8,1,15.9c-3.5-3-4.1-6.5-4.6-9.6c-1.5-9.2-2.8-18.5-3.8-27.8
	c-0.4-3.6-1.6-4.8-5.2-5.6C41.6,184.6,34.6,175,29.2,164c-1.6-3.2,0.5-4,3.3-4.3c7.3-0.6,13.2,2.5,18.7,6.8c1.8,1.4,2.9,3.7,6.5,4.3
	c-6.1-18-13.5-34.4-27-48.6c-0.9,5.4-1.5,9.9-3.7,14c-1.8,3.4-4.4,6.1-8.6,5c-4.3-1.1-4.4-4.8-3.9-8.3c0.4-3.1,1.1-6.2,1.7-9.8
	c-2.6,0.8-4.9,1.8-7.2,2.2c-2.9,0.5-6.3,0.9-8-2.3c-1.8-3.2,0.6-5.6,2.6-7.9c2.5-3,6.2-4.2,10.5-6.6c-5.1-3.1-9.3-6.2-12.1-10.8
	c-1.3-2.2-2.9-4.4-1.1-7.1c1.6-2.5,4.1-2.8,6.8-2.7c7,0.1,10.9,5,15.8,11.4c-0.3-6.5,0.6-11.2,3.5-15.2c1.6-2.1,3.4-4.1,6.3-3.4
	c2.9,0.7,3.9,3.3,4.2,5.8c0.6,4.9,1,9.8-1.9,15.1c5.4-0.4,11.2-3.6,13.4,3.4c2,6.4-3.8,7-7.6,9.3c1.9,1.7,3.7,3.1,5.3,4.7
	c3,3,4.8,8,2.1,10.3c-5.5,4.9-1.2,7.9,0.6,11.6C51,143.9,52.6,146.8,54.2,149.8z M95.7,93.1c5.8,0,9.5-3.8,13.2-7.5
	c1-1.1,1.3-2.9,0.4-4.2c-1.2-1.7-2.7-0.3-3.9,0.3c-5,2.3-7.3,6.9-9.6,11.5c0.2,0.1,0.5,0.1,0.7,0.2C96.3,93.3,96,93.2,95.7,93.1z
	 M96,136.1c-2.5,1.1-5.1,2.1-7.5,3.4c-5.4,2.9-11.1,5.3-13.6,11.6c-0.1,0.1-0.2,0.1-0.3,0.2c0-0.1,0.1-0.2,0.1-0.4
	c8.5-1.3,14.7-6.6,20.8-12c0.9-0.8,1-1.8,0.3-2.8l0.3,0.2C96.2,136.3,96,136.1,96,136.1z M57.1,25c-0.9-9-2.1-13.6-4.7-17.2
	c-1.2-1.7-2.5-4-4.9-3.3c-2.7,0.8-2.8,3.7-2.5,5.9c0.6,6,2.8,11.5,6.2,16.5c1.1,1.7,2.6,4.1,4.9,3.4C58.7,29.5,57.1,26.8,57.1,25z
	 M58.1,184.6c-2.2-10.7-14.1-20.3-24.6-20.1C39.3,174.3,46.3,181.7,58.1,184.6z M54.7,37.5C46.2,32.1,35.1,32,29,36.9
	c-1.1,0.9-2.9,1.8-2.2,3.4c0.4,0.9,2.1,1.4,3.3,1.6C38.6,43.3,46.7,42.2,54.7,37.5z M78.8,56.1c-2.3-5.6-5.4-11.7-11.1-15.8
	c-3-2.2-4.6,0.3-4.2,3c1.1,6.9,4.1,13.1,10,17.1C77.2,62.8,78.4,60.3,78.8,56.1z M47,64.2c0.7-0.3,1.7-0.6,2.6-1.2
	c4-2.4,10.3-15.7,9.6-20.2c-0.5-2.8-2.3-2.2-3.6-0.9c-5,5.3-9.1,11.2-11.9,17.9C42.7,62.2,43.9,63.9,47,64.2z M63.1,26.7
	c0.1,1.1,0.1,3.9,2.9,1.9c6.3-4.5,11.4-10.2,13.5-17.9c0.6-2.2-0.3-3.1-2.8-2.4C70.1,9.9,63.1,18.8,63.1,26.7z M82.4,28.5
	c-4.2,0.3-8,0.5-11.6,2c-1.7,0.7-3.8,1.5-3.5,3.9c0.3,2.6,2.5,3.4,4.7,3.3c3.8-0.2,7.7-0.1,11.3-1.6c2.6-1.1,7.2-1.4,6.8-4.6
	C89.5,27.3,84.9,29.2,82.4,28.5z M82.5,175.9c-8.7,7.5-13.8,15.7-15.3,26.8C76.9,194.3,81.8,185.9,82.5,175.9z M23.1,108.1
	c-2.7-7.3-6.1-12.4-11.9-15.6c-1.9-1-4.5-1.4-6,0.1c-1.7,1.8,0.4,3.5,1.6,4.8C10.9,102.1,15.8,105.7,23.1,108.1z M27,122.6
	c0.3-2.5,0.1-4-1.7-4.4c-1.7-0.3-2.9,0.7-3.5,2.1c-1.7,4.3-3.1,8.8-3.3,13.5c0,1.2-0.6,2.7,0.9,3.3c1.6,0.7,2.9-0.4,3.8-1.6
	C26.4,131.4,26.4,126.4,27,122.6z M28,106.6c5-5.7,6.8-11.7,6.1-18.4c-0.1-1.2,0.1-2.9-1.5-3.1c-1.4-0.2-2.1,1.2-2.7,2.3
	C26.6,93.3,25.6,99.4,28,106.6z M91.8,93.7c1.6-6,1.3-10.6,0.7-15.2c-0.2-1.4-0.4-3.3-2.2-3.3c-2,0-2.9,1.6-3.2,3.4
	C86.1,83.9,87.3,88.7,91.8,93.7z M22.2,113.3c-8.4-1.1-13.8,1.1-17.7,7.9C11.8,121.8,16.6,118.5,22.2,113.3z M31.2,115.9
	c2.6,5.4,6.2,8.3,10.1,10.9c1.2,0.8,2.7,1.9,4,0.6c1.5-1.4,0.7-3.3-0.3-4.7C41.9,118.7,37.5,116.8,31.2,115.9z M79.1,99.6
	c3-0.6,7.6,0.6,7.8-2.8c0.2-3.4-4.6-2.4-7.2-3.1c-2.9-0.8-7.1-0.8-7.3,2.8C72.2,100.8,76.9,98.6,79.1,99.6z M36,111.6
	c2-0.5,4.9-1.1,7.7-2.1c1.4-0.5,2.7-1.5,2.2-3.4c-0.6-2-2.1-2.7-4-2.2c-2.9,0.7-5.7,1.8-8.1,3.6c-1,0.8-2.2,1.7-1.5,3.1
	C32.7,111.7,33.9,111.6,36,111.6z M103.6,97.1c-1.3,0.9-5.3-1.3-5.4,2.2c-0.1,2.8,3.6,2.9,6.1,3.2c1,0.2,2.1,0.3,3.2,0.3
	c1.9-0.1,5,1.1,5.1-1.8c0.2-2.6-2.6-3.6-5-3.9C106.5,97,105.4,97.1,103.6,97.1z M92.6,107.1c-0.1,4,0.3,7.3,2.7,10.1
	c0.6,0.7,1.6,0.4,2-0.5c1.5-3.3,1.2-6.7,0.3-10c-0.4-1.6-1.2-3.8-3.1-3.6C91.8,103.3,92.8,105.8,92.6,107.1z M55.4,89.9
	c-4.3-5.8-8.4-9.4-14.8-11.2C44.5,86.6,47.1,88.7,55.4,89.9z M87.6,102.6c-4.7,2.3-7.2,4.8-9.2,7.8c-0.9,1.3-2.4,3.1-0.4,4.4
	c1.6,1,3.3-0.3,4.4-1.6C84.7,110.5,85.9,107.1,87.6,102.6z"/>
</svg>
