<?xml version="1.0" encoding="utf-8"?>
<!-- Generator: Adobe Illustrator 25.3.0, SVG Export Plug-In . SVG Version: 6.00 Build 0)  -->
<svg version="1.1" id="Layer_1" xmlns="http://www.w3.org/2000/svg" xmlns:xlink="http://www.w3.org/1999/xlink" x="0px" y="0px"
	 viewBox="0 0 108.5 227.5" style="enable-background:new 0 0 108.5 227.5;" xml:space="preserve">
<path d="M66.8,122c-0.9-10.5,45.8-64.1,41.4-35.8c-0.5,34.2-31.9,49.4-45,75.2c-1.3,101.7-11.9,75-5.8-5.8
	c2-17.2-31.2-15.2-42.6-58.7C11.3,80.4,0.7,63.1,0,47.3C31,59,47.6,95.4,59.2,126C75.3,41.5,41.7,75.6,43.8,18.9
	c2-13.3,7.3-16,16.9-5.6c9-17.4,10.6-18.2,18.7,0.7c16.2-30.4,15,14.2,15.7,26c-18,50.7-28.2,1.6-28.7,82.6
	C66.5,122.4,66.6,122.2,66.8,122z M98.6,88.8l0.5-0.3c-15.2,9.7-25.7,25.1-28.2,43.7C81.1,118.6,88.9,101.9,98.6,88.8z M49.4,133.1
	c-0.2,0.2-0.4,0.4-0.7,0.6c-8.6-19-22.3-38.8-34.3-57.1C18.1,92.7,30.9,130.8,49.4,133.1z M53.5,130.2c0.2-9.2-20.9-57.8-42.6-69.7
	C25.5,83.3,38.3,108.6,53.5,130.2z M67,63.6c15.5-22,16-40.6,1.9-56.3C61.4,25.7,57.4,43.9,67,63.6z M101.2,93.6
	c-12,16.6-20.7,35.3-33.2,51.6C81.9,129.8,97,115.3,101.2,93.6z M50.9,11c-4.5,13.2-3,25.2,4.8,37.2C51.1,36.6,63.2,23.2,50.9,11z
	 M76.1,60.6c18.6-14.5,14-32.1,11.2-49.7C76.6,23.3,94.9,32.9,76.1,60.6z"/>
</svg>
