<?xml version="1.0" encoding="utf-8"?>
<!-- Generator: Adobe Illustrator 25.3.0, SVG Export Plug-In . SVG Version: 6.00 Build 0)  -->
<svg version="1.1" id="Layer_1" xmlns="http://www.w3.org/2000/svg" xmlns:xlink="http://www.w3.org/1999/xlink" x="0px" y="0px"
	 viewBox="0 0 114.9 229.6" style="enable-background:new 0 0 114.9 229.6;" xml:space="preserve">
<path d="M63.7,41.2c2.9-1.4,4.6-3.5,5.4-6.9c2.3-9.7,11.7-16.6,21.7-16.7c2.1,0,3,0.7,2.7,2.8c-1.4,12.4-11.9,21.9-22.2,19.1
	c-1-0.3-1.8-0.1-2.6,0.6c-3.2,2.4-6.4,4.8-9.6,7.3c-1,0.8-1.6,1.6-1.5,3c1.3,20.4,1.9,40.8,1.4,61.2c0,0.3,0.1,0.5,0.2,0.8
	c0.5,0.2,0.7-0.1,1-0.4c1.3-1.3,2.3-3.7,4.3-3c2.1,0.6,1,3.2,1.4,5.1c2.6-1.3,4.2-3.3,5.9-5.1c1.6-1.6,0.1-8.4-2.1-10.3
	c-7-6.2-8.3-16.3-3.3-24.4c1-1.6,1.7-1.7,3.1-0.4c7.7,7.1,9.2,14.9,4.5,24.3c-1.3,2.6-0.1,5,0.5,7.8c3.2-2.2,5.5-4,4.8-8.6
	c-0.8-5.1,2.5-9.2,6.5-12.2c3.8-2.9,8.2-4.5,12.8-5.8c1.8-0.5,3.4-0.3,3,2.2c-1.3,7-3.4,13.6-8.8,18.5c-2.3,2.1-5.1,3.7-8,3.2
	c-4.3-0.8-6,1.8-8.2,4.4c1.4,1.1,2.3,0.4,3.3-0.4c6.6-5.4,21-3.2,27.6,3.3c1.4,1.4,2,2.7-0.2,3.7c-6,2.5-12,4.7-18.7,3.5
	c-3.6-0.7-6.5-2.4-8.8-5.2c-2.7-3.2-4.8-3.3-7.8-0.6c-3.7,3.4-7.3,6.8-10.9,10.2c-1.2,1.1-2,2.4-2,4.2c-0.1,18.7-0.2,37.3-0.3,56
	c0,0.7,0.1,1.3,0.1,2c1,0,1-0.9,1.5-1.3c1.5-1.4,2.6-4.2,5-3.1c2.1,1,0.8,3.6,0.7,6.5c4.4-3.7,8.3-6.9,12.1-10.4
	c1.3-1.2,0.2-6.6-1.7-7.5c-3.9-2-6.3-4.8-7.3-9.1c-1.3-5.3-0.6-10.4,1.7-15.3c1-2.1,1.5-5.5,3.9-5.6c2.4-0.1,3.5,3,4.9,4.9
	c3.4,4.9,5.6,10.1,4.6,16.2c-0.4,2.4-1.3,4.6-2.7,6.6c-2.2,3-2.2,3-0.3,6.9c2.6-1.7,4.5-4.2,6.7-6.3c0.8-0.7,0.9-1.7,0.7-2.6
	c-1.3-6.9,2.3-11.6,7.2-15.6c4.2-3.4,9.1-5.7,14.1-7.7c1.4-0.5,2.9-1.1,3.3,1.3c1.4,8-5.7,20.9-13.3,23.9c-1.8,0.7-4,1.8-5.8,1.5
	c-5.6-1-7.4,3.9-10.8,6.4c-0.4,0.3-0.8,0.9-0.4,1.4c0.3,0.3,1,0.5,1.5,0.4c0.5-0.1,1-0.4,1.4-0.7c8-5.1,21.3-3.4,28.2,3.4
	c1.5,1.5,1.1,2.4-0.2,3.6c-5,4.5-17.4,6.2-23.4,3.1c-2-1-3.5-2.5-4.6-4.4c-2.7-4.5-4.8-4.7-8.9-1.3c-5,4.2-10.1,8.5-15.3,12.5
	c-1.9,1.5-2.7,3-2.6,5.4c0.4,9.4,0.6,18.8,0.8,28.2c0,1.4,0.6,2.9-0.7,4.1c-1.4-0.3-1.1-1.4-1.1-2.2c-0.3-19.7-2-39.4-1-59.2
	c0.1-2-0.5-3.2-2.2-4.3c-5.5-3.5-11-7.3-16.4-10.9c-2.9-2-7.3-1-8.7,2.2c-2.9,6.7-8.6,8.9-15.1,9.6c-3.3,0.4-6.7,0.2-10.1-0.2
	c-3-0.3-3.4-1.3-1.5-3.5c2.6-3.1,5.2-6.1,8.4-8.7c4.8-3.9,10-4.3,15.5-2c3.2,1.3,3.1,1.3,6.4-0.6c-2.3-2.7-5.5-4.1-8.2-6.2
	c-0.9-0.7-1.7-0.3-2.7,0c-6.5,2.2-11.6-0.3-15.8-5c-3-3.5-4.8-7.7-6.2-12.1c-0.6-1.8-0.2-3,1.9-3c8.5,0.1,16.3,1.8,21.4,9.6
	c0.7,1.1,1.3,2.3,1.6,3.7c1.3,6.2,2.3,7.4,8.8,10.4c0.7-0.8-0.1-1.2-0.5-1.6c-4.4-3.4-5.4-8.2-5.2-13.3c0.3-6,2.3-11.6,5.7-16.6
	c0.9-1.4,2.1-2.6,3.3-0.5c3.6,6.8,6.8,13.7,5.9,21.8c-0.4,3.4-2,6-4.5,8.3c-2.9,2.6-2.9,3.8,0.2,5.9c4.5,2.9,8.5,6.5,13.5,8.8l0,0
	c-1.6-1.9-2.7-4-2.8-6.5c0-1.1-0.3-2.3,0.9-2.8c1.1-0.5,2,0.3,2.9,0.9c1.4,0.9,2.1,2.4,3.3,4.3c0.1-1.6,0.3-2.6,0.3-3.7
	c0-18.5,0-37.1,0.2-55.6c0-2.4-0.7-3.9-2.7-5.3c-4.3-3-8.4-6.3-12.5-9.5c-2.7-2-7.7-1.1-8.7,2.1c-2.7,8.4-9.2,10.1-16.8,10.1
	c-3.1,0-6.1-0.6-9.2-1.1c-2.1-0.3-2.8-1.5-1.2-3.3c2.3-2.5,4.5-5,6.9-7.3c5.1-4.7,11.2-5.2,17.3-2.8c2.7,1,4.5,0.8,6.8-1.1
	c-2.6-2.6-4.8-4.8-9.2-3.4c-4.4,1.4-8.4-1-11.7-4c-4.1-3.7-6.3-8.6-8.2-13.7C7.3,55,8.1,53.7,10.5,54c9.4,1.1,18,3.6,22.6,13
	c0.2,6.3,0.9,7.3,5.6,7.8c-2.4-2.2-4.1-5-5.7-7.8c-0.7-7.2-0.2-14.2,3-20.8c0.5-1.1,0.8-2.6,2.1-2.7c1.6-0.2,2.1,1.4,2.8,2.5
	c2.7,4.8,5.3,9.7,5.4,15.4c0.1,4.2-0.9,7.9-3.8,11.1c-3,3.3-2.9,4.6,0.7,7.5c2.7,2.2,5.5,4.2,8.3,6.3c0.3,0.3,0.5,0.6,0.8,0.8
	l0.1,0.1l-0.1-0.1c-0.3-0.3-0.6-0.5-0.8-0.8c-0.5-1.7-1-3.3-1.4-5c-0.3-1.1-0.3-2.2,0.7-2.9c1.2-0.9,2.3,0,3.3,0.6
	c1,0.7,1.8,1.5,2.8,2.4c0-1.9,0.1-3.9,0-6c-0.4-8.4-1-16.9-1.3-25.3c-0.1-2.5-1-4-3.1-5.1c-1.5-0.8-3.1-1.6-4.5-2.7
	c-3.1-2.5-6.2-3.7-10.5-3.5c-8.4,0.4-17.2-7.9-18.5-16.4c-0.2-1.5,0.2-2.3,1.8-2.4c8.1-0.4,20,2.9,22.1,14.5c0.6,3.3,3.7,3.9,5.6,6
	c0.2-0.4,0.3-0.7,0.3-0.9c-0.4-1.8-1.8-3.9,0.4-5c2.4-1.2,3.8,1.2,5.5,2.4l0,0c0.3-3.6-0.4-6.5-3-9.4C47.5,22.9,46,17,48.6,10.6
	c1.3-3.1,2.6-6.2,4.2-9.1C53.7,0,54.6-0.7,55.8,1c3.5,4.9,6.8,10,7.3,16.3c0.4,4.7-0.8,8.8-4.8,11.7c-1.6,1.1-1.8,2.5-1.7,4.2
	c0.2,2,0.5,4,0.7,6c0.4-0.1,0.7-0.1,0.8-0.3c1.2-1.6,2.3-4.1,4.5-3.3C65.3,36.6,63.6,39.3,63.7,41.2L63.7,41.2z M58.8,43.6
	c1.8-1.4,3.2-3,2.8-6.2C59.9,39.6,59,41.5,58.8,43.6L58.8,43.6z M54.8,158.9l0.1,0.1L54.8,158.9c0-2.3-0.2-4.5-3-5.9
	C51.6,155.9,52.8,157.6,54.8,158.9z M55.6,87.2L55.6,87.2c-0.1-2.6-0.3-5.2-3.6-6.7C52.4,83.5,53.3,85.7,55.6,87.2z M41.1,34.8
	L41.1,34.8c-1.7-7.7-10.7-13.9-18.2-12.7c-1.8,0.3-1.4,1.3-0.9,2.3c1.4,3.1,2.8,6.2,5.3,8.5c3.3,3,7.2,4.6,12.4,4.3
	c-3.9-3.7-8.4-5.3-11.1-9.1C33.5,29,36.6,33.3,41.1,34.8z M83.8,100.9c2.4,0.8,4.5-0.2,6.4-1.6c6-4.5,8.2-10.8,9.3-18
	C87,83.6,78.8,92.1,82.1,99.2c3.9-2.8,6.6-7,10.5-9.9c0.1,1.9-1.1,3-2,4.2C88.6,96.2,85.6,98,83.8,100.9L83.8,100.9z M92.6,165.7
	c3.9-0.1,6.8-1,9.4-2.8c6.6-4.4,7.6-11.6,9-18.6c0.3-1.4-0.7-1.6-1.7-1.2c-6.5,2.9-13,5.8-17.1,12.1c-1.6,2.4-2.4,5-1.3,8.2
	c4.6-2.6,7.3-7.2,11.8-9.4C100.5,158.7,96,161.1,92.6,165.7z M21.8,141.3c-2.1-1.9-4-3.4-5.6-5.1c-1.6-1.6-4.4-2.4-4.5-5.8
	c4.4,2.5,7.1,6.5,11.4,8.5c0.3-1.4,0.1-2.2-0.3-3.1c-2.6-6.1-12.6-11.5-19-10.4c-1.4,0.2-1.5,0.9-1.2,1.9c1.9,5.2,4.1,10.3,9.1,13.3
	C14.6,142.2,17.8,143.4,21.8,141.3z M78.9,165c1.6-0.2,1.9-1.3,2.3-2.2c2.8-6.1,0-16.9-5.2-21.1c-1-0.8-1.6-0.7-2.2,0.4
	c-3.5,6.4-4.8,13.1-1.6,20c0.7,1.6,1.8,3.2,4.2,3.2c0-4.2-1.8-8.1-0.3-12.1C77.9,156.9,77.3,161,78.9,165z M84.9,25.7
	c-3.3,4.7-8.6,7.4-12.5,11.8C81,40,90.4,30.6,91.2,21.4c0.1-1.6-0.7-1.8-2-1.6c-5.3,1.1-10.4,2.7-14.2,6.9c-2.1,2.3-4,4.8-4,8.8
	C76,32,79.9,28,84.9,25.7z M29.5,72.3c-3.6-4-8.2-6.1-10.3-10.6c4.5,2,7.3,6.3,12,8.5c0-2.4-0.7-4.1-1.8-5.6
	c-4.4-5.8-10.9-7.4-17.6-8.5c-1.8-0.3-1.6,0.9-1.2,2c1.7,4.4,3.7,8.7,7.4,11.8C21.1,72.4,24.7,74.4,29.5,72.3z M34.6,143.2
	c0.8-1.5,0.6-2.9,0.6-4.2c0-2.5-0.3-5.1-0.3-7.6c0-0.9-0.5-2.3,0.7-2.4c1.5-0.2,1.3,1.4,1.4,2.3c0.2,1.5,0.2,2.9,0.2,4.4
	c0,2.3,0,4.7,0,7.5c6.1-5,4.9-19.3-1.6-26.1C29.9,124.2,27.7,139.4,34.6,143.2z M57,27.3c2.9-1.8,3.9-4.3,4.2-7.2
	c0.6-6-2.4-10.8-5.3-15.7C55,2.9,54.1,3,53.4,4.6c-1.6,3.4-3.3,6.8-3.9,10.5c-0.8,4.9,1.5,8.7,4.8,13c0.5-4.7-0.5-8.5,1.2-11.9
	C57.1,19.6,55.7,23.3,57,27.3z M87.7,179.1c0,1.9,1.3,2.7,2.4,3.6c4.8,3.3,17.2,2.4,21.5-1.5c1-1,0.7-1.6-0.2-2.2
	c-6-3.6-12.2-6.3-19.4-5.1c-1.5,0.3-3.4,0.5-4.2,2.7c4.9,1.8,10.2,1.4,14.8,3.6C97.5,181.4,92.7,179.2,87.7,179.1z M8.1,90.6
	c12.6,3.1,21.7,0.2,22.3-6.7c-4.2,0.5-8.2,2.9-12.7,2.3c3.5-2.7,8.2-2.3,12-4.8C21,77.8,14.1,81.7,8.1,90.6z M95.6,111.9
	c-5.2,1.4-9.3-0.7-13.6-0.3c3.4,6.2,17.4,5,23.8,0.4c-6.4-6.3-18.5-8-24-3.2c2,1.3,4.4,0.9,6.6,1.5C90.4,110.8,92.8,110,95.6,111.9z
	 M26.3,152.9c-6.8-5.2-16.5,0.3-21.1,9.7c11.8,1.2,18.9-1.1,21.6-7.3c-4.4,0.7-8.3,3.2-12.7,2.3c1.7-1.6,3.9-1.7,5.8-2.4
	C22.1,154.4,24.4,154.2,26.3,152.9z M39.4,56.3c1.8,2.7,1.5,5,1.6,7.2c0.1,2.1,0,4.3,0,6.4c5.1-5.7,3.6-16.1-2.6-23.5
	c-5.3,9.2-5.1,21.2,0.4,24.8C39.8,66.5,38,61.8,39.4,56.3z M72.9,95.4c4.4-5.4,1.3-14.2-4.6-19.4c-4.4,7-3.6,15.9,1.9,20
	c0.6-3.4-1.8-6.8-0.4-11.1C72,88.6,71.1,92.4,72.9,95.4z M54.3,42.4c-0.6-2.8-1.2-4.8-4-5.8C50.5,39.4,51.7,41,54.3,42.4z
	 M64.2,181.6c-2.3,2-3.8,3.5-3.4,6.5C62.9,186.4,64.2,184.9,64.2,181.6z M63.4,111.6c-1.9,1.7-3.2,3-2.4,5.9
	C62.9,115.9,63.9,114.5,63.4,111.6z"/>
</svg>
