<?xml version="1.0" encoding="utf-8"?>
<!-- Generator: Adobe Illustrator 25.3.0, SVG Export Plug-In . SVG Version: 6.00 Build 0)  -->
<svg version="1.1" id="Layer_1" xmlns="http://www.w3.org/2000/svg" xmlns:xlink="http://www.w3.org/1999/xlink" x="0px" y="0px"
	 viewBox="0 0 118.7 249.5" style="enable-background:new 0 0 118.7 249.5;" xml:space="preserve">
<path d="M60.8,195.8c1.4-1.7,2.9-3.4,4.4-5.2c-0.2-1.5-3-0.1-2.7-2.4c0.2-1.5,0.4-2.9,1.1-4.2c3-5.6,12.3-8.9,20.1-7
	c10,2.4,15.4,9.8,19.5,18.5c0.2,0.4,0.3,0.8,0.3,1.1c0.2,1.6,2.2,3.2,0.7,4.7c-1.7,1.8-3.1-0.5-4.6-1c-3-0.9-5.8-1.5-9-0.8
	c-5.4,1.2-11,1.7-16.2,4c-1.5,0.7-2.9,1.3-4.1,2.3c-0.7,0.6-1.1,2.2-2.4,1.3c-1-0.7-0.6-2-0.5-3c0.2-2.3,0.9-4.4,1.9-6.4
	c0.7-1.3,1.4-2.6,1.9-4c0.4-1.1,0.6-2.5-0.5-3.3c-1.2-1-2.2,0-3.2,0.7c-5.4,4-8.3,9.6-9,16.2c-0.9,9.4-1.5,18.8-2.4,28.2
	c-0.1,1.5,0.7,3.9-2.1,3.8c-1.9,0-4.3-3.4-3.7-5.3c2.1-6.9,2.1-14.2,3.3-21.2c1.1-6.2-1.7-9.4-6.7-12.2c-0.2,2.3,0.9,5.1-1.8,6.1
	c-2.5,0.9-5,0.1-7.2-1.4c-9.3-6.7-14.3-15.8-15.3-27.1c-0.4-4.5,0-9,3.2-12.7c1.4,0.4,1.5,1.5,1.6,2.5c1.4,10.1,5.9,14.9,16.1,16.6
	c4.6,0.7,9.2,1.3,12.4,5.5c2.3-7.2,2.7-13.1-1-19.2c-0.9,1.1-0.6,2.3-0.6,3.4c0,1.4,0.7,3.1-1,4c-1.7,1-3.3,0.3-4.8-0.7
	c-5.2-3.3-9.3-7.7-11.6-13.3c-4-9.7-6.6-19.7-2.2-30c0.4-0.9,0.4-2.3,1.8-2.2c1.2,0.1,0.9,1.4,1.1,2.2c1.5,5.4,4,10,8.7,13.3
	c5.5,3.8,10.3,8.3,12.9,15.1c0.5-5.5,0.9-11.1,1.3-16.6c0.4-5.3,0.5-10.6,1.1-15.9c0.8-7.6-4-13.3-8.8-16.9c-4.4-3.3-9.4-7.2-16-7.8
	c-5.9-0.5-11.6-2.9-16-7.3c-2-2-4.8-1.1-7.2-1.2c-3.9-0.1-4.4-0.7-3.2-4.5c0.7-2.1,1.5-4.3,2.7-6.2c5.6-8.2,12.6-15,21.4-19.7
	c1.9-1,3.3-0.9,3.2,1.5c-0.1,6,3,10.6,5.9,15.3c3.3,5.3,5,11,7.1,16.8c2.6,7.2,5.5,14.4,11.5,20.8c1-6.4,0.7-12.2,0.9-17.9
	c0.3-6.8,0.1-13.5,0.1-20.3c0-3.7-1.1-7.1-3-10.2c-1.1-1.8-2.2-3-3.8,0.1c-2,4-4.4,3.9-7.1,0.3c-4.1-5.4-5.2-11.5-5.2-18
	c0-1.8,0.6-2.7,2.3-1.1c1.6,1.5,3.8,1.9,5.7,2.6c4,1.3,6.8,4.1,9.4,7.1c1,1.2,1.6,2.7,0.5,4c-1.7,2-0.2,3,1.3,5
	c0.2-6.2-0.1-11.6-1.3-16.9c-0.3-1.2-1-2.4-0.9-3.4c1.1-6.7-3-11.5-6.1-16.6c-2.2-3.6-4.3-7.3-5.5-11.4c-0.9-2.8-1.8-5.3-4.9-6.7
	c-2.5-1.1-1.3-2.6,0.8-3.5c8-3.3,16.3-4.8,24.9-3.5c3.4,0.5,6.8,1.3,10.2,1.9c1.2,0.2,2.3,0.8,2.7,2.1c0.4,1.4-1,1.6-1.8,2.2
	c-3.2,2.4-5.3,5.1-5.9,9.4c-0.7,5.5-2.6,10.8-5.8,15.5c-1.1,1.7-1.4,3.6-1.8,5.6c-3.8,18.2-1.3,36.8-2.8,55.1
	c-0.1,1.8-0.2,3.7,0.7,5.8c2.7-1.9,4-4.8,5.9-7.1c5.1-6.1,4.8-13.8,7-20.8c0.8-2.7-1-5.4-1.1-8.2c-0.2-5.3,0.1-10.6,1-15.9
	c0.5-3.1-0.1-5.7-1.2-8.5c-1.5-3.7-1-4.4,3-4.4c7.6,0,14.5,2.6,21,6.4c0.5,0.3,0.9,0.5,1.3,0.9c1.8,1.5,5,2,5.5,4.2
	c0.7,3-3.3,2.6-4.8,4.4c-0.9,1.1-1.9,2.2-2.5,3.5c-3.1,6.5-7.1,12.4-13,16.8c-1.7,1.3-2.5,3.1-3.3,4.9c-1.3,2.8-2.9,5.2-5.3,7.3
	c-2.8,2.4-3.2,6.4-5.3,9.4c0.8,0.2,1,0.3,1,0.3c3.9-5.1,8.5-3.3,13.1-1.4c2.2,0.9,4.3,2,6.8,2c0.7,0,1.4,0.1,1.5,1
	c0.1,0.6-0.3,1-0.9,1.1c-4.6,0.9-8.2,4.4-12.8,5.4c-2.2,0.5-4.2,0.4-6.3-0.2c-1.4-0.4-2.4-1.1-1.9-2.9c0.3-0.8,1-2-0.2-2.4
	c-1.1-0.3-2.4-0.1-3.2,1c-3.2,4.1-6.8,7.9-6.4,13.9c0.7,9.9-0.8,19.8-1.7,29.7c-0.1,0.8,0,1.6,0,2.6c2.3-0.4,2.9-2.4,4.1-3.6
	c0.7-0.7,0.7-1.4-0.3-1.8c-3.7-1.5-1.9-4.1-0.7-5.9c3.4-5.2,7.6-9.6,13.8-11.5c7.2-2.2,13.1-5.8,15.3-13.5c0.2-0.7,0.6-1.7,1.5-1.6
	c1,0,1.1,1.1,1.1,1.8c-0.1,8.5,0.6,17-3.8,24.9c-3.3,5.8-8.3,9.9-13.7,13.6c-0.2,0.1-0.5,0.2-0.7,0.3c-6,2.6-8.7,1.4-10.4-5
	c-2.8,2.7-5.7,5.4-6.1,9c-1.5,12.6-2.4,25.3-3.6,38C60.3,195.7,60.6,195.7,60.8,195.8z M35.9,147.2c-0.2,0.2-0.4,0.3-0.6,0.5
	c0.2,0,0.4,0,0.6,0.1c-1.2,3.8,0.4,7.3,1.4,10.8c1.9,6.7,6.4,11.8,11.6,16.1c0.8,0.6,1.9,1.9,3,0.6c1.4-1.6,0-10-1.9-11.2
	c-6.2-4.1-10.7-9.7-14.3-16.1c0.1-0.3,0.2-0.5,0.2-0.8c0,0-0.1-0.1-0.1-0.1C35.9,147.1,35.9,147.2,35.9,147.2z M41.2,104.7
	c3.5,0.2,7.5-4.5,6.8-7.4c-1.8-6.9-5.6-12.8-9.1-18.9c-1.1-2-2.3-3.9-2.4-6.2c-0.1-2.9-1.4-2.7-3.2-1.6c-6.2,3.6-11.1,8.6-15.7,13.9
	c-1.6,1.9-3.1,4-4,6.4c-0.9,2.3-0.9,3.9,2.3,3.6c2.6-0.2,4.7,0.9,6.8,2.5C28.3,101.2,35.2,102.7,41.2,104.7z M47.4,15.7
	c2.8,1.5,3.4,4.2,4.2,6.8c2,6.6,5.9,12.1,9.5,17.8c2.1,3.2,5.1,3,7.3-0.2c1.4-2.1,2.2-4.5,3.3-6.7c3.1-6,0.6-14.4,8.6-18.3
	C69.4,11,54.4,11.3,47.4,15.7z M106.1,55.2c-7.8-5.1-15.1-9.5-24-10.4c-2.5-0.3-3.2,0.7-2.1,3c1,2.1,0.9,4.3,0.5,6.6
	c-0.9,6.4-1.8,12.9-0.6,19.3c0.9,4.8,5,6.2,8.6,3.1c4.9-4.2,8.7-9.2,11.4-15.1C101.3,59.1,102.6,56.8,106.1,55.2z M70.1,203.3
	c8.8-4.3,17.8-5.8,28-6.6c-3.5-2.9-6.2-5.4-9.2-7.5c-3.9-2.6-8.1-3.5-12.8-2.2c-2.2,0.6-3.5,1.2-2.6,4c0.6,2.2-0.3,4.4-1.6,6.4
	C70.9,199,69.8,200.5,70.1,203.3z M95,125c-2.2,7.1-6.8,12-13.2,15.3c-2.2,1.2-4.3,2.5-6.5,3.9c-2.2,1.4-3.4,4.9-2.1,6.8
	c1.5,2.2,3.9,1.6,5.7,0.8C87,148.3,97,136.9,95,125z M100.5,196.1c-1.4-4.8-4.7-8.3-8.1-11.8c-5.9-6-15.8-7.3-23.1-3.1
	c-2.1,1.2-5.2,2.9-3.9,5.5c1,2,4,0.5,6.1-0.4c1.3-0.6,2.7-1,4.1-1.4c5.9-2,11.3-0.4,16.1,3.1C95,190.3,98.3,192.6,100.5,196.1z
	 M92.2,124.3c-3.7,3.2-7.1,5.3-11.1,6.3c-5.1,1.4-8.6,5-11.8,9c-0.8,1-1.9,2.2-0.7,3.5c1.1,1.1,2.6,1.2,4,0.3
	c4-2.5,8.2-4.8,12.1-7.5C88.6,133.3,91.4,129.9,92.2,124.3z M25.4,181c1.3,6.8,3.6,13.2,8.6,18.2c2.1,2.1,4.6,4,7.5,5
	c1,0.3,2.7,1.1,2.8-0.8c0.2-2.2,0.4-4.7-1.7-6.2C36.2,192.6,30.6,187.1,25.4,181z M27.4,177.9c0.4,2.6,1.4,3.9,2.6,5.1
	c3.2,3.5,6.5,6.9,10.3,9.9c3.8,2.9,8.4,3,12.4,0.6c1.6-1,1.6-2,0.4-3.1c-1.8-1.7-4-2.9-6.3-3C39.3,186.9,33,184.1,27.4,177.9z
	 M37.6,140.5c-0.8,2.9-0.4,4.9,0.6,6.8c3.4,6.3,8.3,11.3,14.2,15.2c0.9,0.6,1.8,2.1,3,0.8c0.9-1,0.2-2.3-0.4-3.3
	c-2-3.5-4.7-6.5-8-8.7C43.1,148.7,39.7,145.6,37.6,140.5z M47.3,58.5c-0.9,4.8,0.8,8.8,3.6,12.5c0.7,0.9,1.4,2.6,3.1,1.3
	c1.5-1.2,2.3-3,0.6-4.4C51.5,65.2,49.5,61.8,47.3,58.5z M56.2,193.9c-2.6,2.1-5.8,2.2-8.6,4.1c2.4,2,4.2,5.4,6.7,4.8
	c1.8-0.5,1.1-4.5,1.9-6.9C56.3,195.4,56.2,194.8,56.2,193.9z M49.5,58.6c2.1,3.7,4.4,6.1,7.4,7.8c0.9,0.5,1.8,0.4,2.6-0.1
	c0.5-0.3,0.6-0.9,0.2-1.3C57,62.3,54.6,59.1,49.5,58.6z M77.4,106.7c3.5,1.1,6,0.8,9.3-1.5C83.1,105.1,80.5,103.9,77.4,106.7z
	 M87.2,102.4c-1.7-1.5-3.7-2.3-5.9-2.2c-0.6,0-1.4,0-1.5,0.9c-0.1,0.8,0.6,1.2,1.2,1.2C83,102.5,85,103.2,87.2,102.4z M59.2,165.5
	c-3.6,2-3.6,2-0.5,4.8C58.8,168.8,59,167.4,59.2,165.5z"/>
</svg>
