<?xml version="1.0" encoding="utf-8"?>
<!-- Generator: Adobe Illustrator 25.3.0, SVG Export Plug-In . SVG Version: 6.00 Build 0)  -->
<svg version="1.1" id="Layer_1" xmlns="http://www.w3.org/2000/svg" xmlns:xlink="http://www.w3.org/1999/xlink" x="0px" y="0px"
	 viewBox="0 0 95.8 231.2" style="enable-background:new 0 0 95.8 231.2;" xml:space="preserve">
<path d="M32.3,145.1c2.5-4.2,4.7-7.7,7.3-11c1.3-1.7,2.9-3,4.9-4c1.9-0.9,3.7-0.9,5.3,0.4c1.8,1.4,2.3,3.2,1.9,5.4
	c-0.3,1.7-0.9,3.2-1.9,4.6c-5,7-10.5,13.4-17.9,18c-1.1,0.7-1.8,1.4-1.7,2.8c0,4.5,0,9,0,13.5c1,0,1-1,1.3-1.7
	c1.1-3.1,2.6-6.1,4.3-8.9c3-5,8.8-6.9,13.4-4.5c3.3,1.7,4.2,3.8,2.7,7.3c-2.4,5.3-6.6,9.2-10.8,13c-2.7,2.5-5.6,4.8-8.6,6.8
	c-1.8,1.2-2.6,2.7-2.5,5c0.2,6.4,0.7,12.8,1.7,19.8c2.7-5.1,5-9.7,7.4-14.2c2-3.8,4.3-7.4,7.3-10.4c1.7-1.8,3.6-3.4,6.2-2.3
	c2.6,1,3.4,3.5,3.6,6.1c0.3,5.3-2.4,9.6-5.4,13.6c-4.3,5.7-9.7,10.4-15.8,14.1c-1.9,1.2-2.3,2.4-2,4.3c0.4,2.1,0.6,4.2,0.9,6.3
	c0.1,1,0.1,2-1.1,2.2c-1.1,0.1-1.2-0.9-1.4-1.7c-0.5-2.2-1.2-4.4-1.3-6.6c-0.1-2.7-1.4-3.6-3.8-4.2c-5.5-1.3-10.6-3.4-15.1-6.7
	c-4.8-3.5-6.7-8.4-5.4-13.6c0.9-3.6,3-4.9,6.6-3.9c3.5,0.9,6,3.1,8.1,6c2.4,3.3,4.9,6.6,7.9,9.7c-0.4-6.2-0.8-12.3-1.2-18.5
	c-0.1-1.6-1.3-1.7-2.4-2.2c-5.3-2.1-10.7-3.7-15.9-6.1c-4.2-2-7-5.2-8.4-9.6c-0.8-2.6-0.8-5.2,1.4-7.2c2.2-2,4.7-2.5,7.6-1.7
	c2.8,0.9,5.1,2.4,7.1,4.6c3.4,3.8,6.7,7.6,9.9,12.1c0.2-1.4,0.4-2.8,0.5-4.2c0.3-4,0.3-8.1,0.8-12.1c0.3-3.1-0.6-5.1-3.4-6.6
	c-3.9-2-7.5-4.6-10.8-7.5c-3.2-2.9-6-6-7.3-10.3c-0.6-2.2-1.1-4.4,0.6-6c1.9-1.8,4.4-2.2,7-1.4c4.6,1.5,7.2,5.2,9.6,9
	c1.6,2.5,2.8,5.2,4.7,7.8c0.5-4,0.6-8.1,1.6-12c1.1-4.5-0.4-7.2-4.2-9.5c-5.6-3.4-11-7-14-13.2c-1.3-2.7-1.9-5.4-1.4-8.3
	c0.6-3.6,3.7-5,6.9-3.4c2.9,1.4,4.7,4,6.5,6.5c2.5,3.5,4.6,7.2,6.4,11.1c0.4,0.8,0.7,1.8,2,2.5c1.4-7.7,2.9-15.3,4.2-22.9
	c0.3-1.5-1.1-1.9-2.1-2.6c-5.8-4.2-11-9-14-15.7c-1.4-3.2-0.6-8.8,1.7-11.1c2.3-2.2,6.6-2.9,9.6-1c2.9,1.9,5.1,4.6,6,8.1
	c0.7,2.9,1.4,5.9,2.3,9.2c1.7-5.1,3.1-9.9,4.9-14.5c0.6-1.5,0.2-2.4-0.7-3.4c-3.1-3.8-7-6.8-9.9-10.6c-2.5-3.2-3.8-6.8-3.8-10.8
	c0-4.8,1.8-7.9,5.2-8.6c3.7-0.8,7.7,1.8,9.3,6c1.9,5,3,10.2,2.9,15.6c0,0.9-0.2,1.8,0.5,2.9c2.3-4.4,4.4-8.7,6.7-12.9
	c0.7-1.2-0.1-2-0.6-2.9c-2.6-4.6-6-8.8-7.1-14.2c-0.7-3.2-1.2-6.3-0.9-9.5c0.2-2.6,1.1-4.9,4.1-5.5c2.4-0.5,4.8,1,6.1,3.8
	c2.2,4.8,2.3,9.9,2.5,15c0.1,1.7,0,3.5,0.4,5.3c4-6.9,9.6-12.8,10.6-21.5c1.2-10,6.9-17.2,16.4-21.1c2.8-1.1,5.5-1.4,7.9,0.8
	c2.3,2.2,2.4,4.8,1.1,8.5c-1.7,4.8-5.5,7.7-9,10.7c-3.5,2.9-7.2,5.8-11.4,7.8c-4.8,2.3-6.9,7-9.4,11.3c2.9-0.6,5.1-2.5,7.7-3.4
	c1.3-0.4,2.5-0.7,3.8-0.7c2.1,0,3.9,0.8,4.8,3c0.9,2.2,0.1,4-1.4,5.5c-1.1,1.1-2.2,2.1-3.7,2.7c-5.3,2.5-10.6,4.8-16.6,3.6
	c-1.7-0.3-2.4,1.1-2.8,2.2c-0.8,2.2-2.1,4.2-3,6.4c3.2-2.2,6.6-3.9,10.2-5.2c2-0.7,4-1,5.7,0.5c1.9,1.5,2.5,3.5,1.3,5.7
	c-0.5,0.9-1.1,1.9-1.9,2.5c-5.7,4.3-11.6,8.2-19.2,8.4c-1.1,0-2-0.1-2.5,1.3c-1.2,3.9-2.6,7.8-3.6,11.9c2.8-2.5,5.3-5.3,8.5-7.3
	c3.7-2.3,7.5-2.7,9.5-0.7c2.3,2.3,2,5.9-0.7,9.7c-3.8,5.3-9.5,8.4-15.2,10.7c-4.9,2-7.6,4.9-8.2,10.2c-0.4,3.6-1.4,7.2-1.8,10.9
	c2.5-3.6,5-7.1,7.4-10.7c1.1-1.6,2.5-2.8,4.2-3.8c4-2.2,8.4,0.2,8.6,4.7c0.3,5.3-2.4,9.4-6.1,12.7c-3.8,3.5-8.2,6.1-13,7.9
	c-2.9,1.1-4.3,2.8-4.3,6C33,138.1,31.7,141.1,32.3,145.1z M71.7,27c5.8-3.5,11.3-7.1,16.1-11.7c1.5-1.4,2.6-3.3,3.9-5
	c1.3-1.7,1.2-3.6,0-5.3c-1.2-1.6-2.9-1.4-4.8-1C77.1,6.1,72.7,18.5,71.7,27z M33.7,215.3c3.1-1.2,5.6-3.3,7.9-5.4
	c4.7-4.3,9.1-9,11.4-15.1c1-2.9,0.5-6.2-1.2-6.8c-2.6-0.9-4.1,1.2-5.5,2.9C40.3,198,37.6,206.9,33.7,215.3z M36.4,96.3
	c1-7.6-0.8-14.2-4-20.4c-1.6-3.1-4.8-4-7.5-2.8c-2.6,1.2-3.5,4-2.2,7.6c0.5,1.4,1.1,2.9,2,4.1C27.9,89.1,31.4,93,36.4,96.3z
	 M25.3,186.4c-3.4-6.7-7.5-12-12.4-16.6c-1.4-1.3-3-2.3-4.9-2.7c-2.8-0.6-4.3,0.4-4.8,3.2c-0.6,2.9,0.3,5.4,2.5,7.3
	C11.1,182.4,17.8,184.4,25.3,186.4z M44.8,66.8c0.4-6.5-0.6-12.2-1.8-17.8c-0.5-2.5-2-4.5-4.2-6c-2.4-1.6-4.3-1.1-5.2,1.7
	c-1,3-1.2,6.2,0.3,9C36.4,58.8,40.6,62.4,44.8,66.8z M31.3,184c5.7-3.7,10.5-8.4,15-13.5c1.3-1.5,2.3-3.3,2.3-5.4
	c0-2.3-1.1-3.5-3.4-3.6c-2.7,0-4.8,1.1-6.3,3.3C35,170.6,33.1,177.2,31.3,184z M28.4,216.3c-3.3-4.5-6.1-8.4-8.9-12.3
	c-1.6-2.2-3.1-4.5-5.5-5.9c-1.4-0.8-3-1.3-4.3-0.5c-1.4,0.9-1.7,2.6-1.4,4.1c0.5,3.7,2.3,6.7,5.4,8.8
	C17.9,213.3,22.5,215.2,28.4,216.3z M35,126.8c6.6-2.8,12.3-6,16.4-11.4c1.3-1.7,2.2-3.7,2.1-5.9c0-1.7-0.4-3.5-2.1-4.2
	c-1.6-0.6-2.8,0.6-3.9,1.8c-3.1,3.4-5.3,7.5-7.8,11.4C38.1,121,36.1,123.3,35,126.8z M27,156.7c-2.1-6.1-4.8-10.9-7.8-15.6
	c-1.6-2.4-4-4-6.7-5c-2.8-1-4.1,0.2-3.5,3.1c0.8,3.5,2.8,6.2,5.3,8.6C17.9,151.4,22.2,153.8,27,156.7z M40.5,96.5
	c5.4-2.2,9.9-4.6,14.1-7.5c2.1-1.4,3.9-3,5.1-5.3c0.9-1.6,1.5-3.4,0.1-4.9c-1.5-1.6-3.3-0.6-4.8,0.2C48.1,82.8,44.5,89.3,40.5,96.5z
	 M31.2,155.3c6.3-4.2,11.5-9.5,15.9-15.6c2.2-3.1,2.6-6.5,1-7.1c-2.9-1-4.7,1.2-6.2,3.1C37.3,141.7,33.6,148.2,31.2,155.3z
	 M29.4,127.5c-0.9-3.6-2.7-6-4.1-8.5c-2-3.8-4.4-7.3-7.1-10.7c-0.9-1.2-2.1-2-3.7-1.3c-1.8,0.7-1.9,2.3-1.7,3.9
	c0.3,1.9,1.2,3.5,2.3,5.1C18.6,121.1,23.6,124.2,29.4,127.5z M55.3,44.6c0.8-5.7,0-10.6-0.5-15.5c-0.2-1.6-0.3-3.4-1.6-4.6
	c-0.8-0.8-1.8-1.7-3.1-1.4c-1.4,0.4-1.5,1.7-1.5,2.9C48.3,32.9,51.3,38.7,55.3,44.6z M49.6,68.5c6.4-0.5,11.9-2.8,16.8-6.9
	c0.4-0.4,0.6-1,0.9-1.5c0.5-0.9,0.6-1.8,0-2.7c-0.8-0.9-1.8-1.1-2.9-0.6C58.7,59.7,53.3,62.8,49.6,68.5z M60.2,48
	c6,0.4,10.6-1,15-3.6c1.4-0.8,2.9-1.5,2-3.4c-0.9-2-2.5-1.7-4.1-1C68.5,41.7,64.7,44.7,60.2,48z"/>
</svg>
