<?xml version="1.0" encoding="utf-8"?>
<!-- Generator: Adobe Illustrator 25.3.0, SVG Export Plug-In . SVG Version: 6.00 Build 0)  -->
<svg version="1.1" id="Layer_1" xmlns="http://www.w3.org/2000/svg" xmlns:xlink="http://www.w3.org/1999/xlink" x="0px" y="0px"
	 viewBox="0 0 103.2 223.3" style="enable-background:new 0 0 103.2 223.3;" xml:space="preserve">
<path d="M54.8,172.3c4.3-10.1,8.2-20.4,13.5-30c0.9-1.8,0.5-2.9-0.7-4.3c-4.7-5.2-4.5-11.4-3.1-17.7c0.8-3.4,2.6-3.6,4.8-1.1
	c2.8,3.1,4.2,7,4.8,12c4.7-5.3,8.5-9.7,5.5-16.6c-1.6-3.9,0-8.1,0.8-12.1c0.2-1.2,0.4-2.7,1.9-2.9c1.1-0.1,1.8,1,2.4,1.9
	c1.6,2.8,2.7,4.5,6.3,1.4c3.6-3,6.5,0.5,9,3.1c2.1,2.2,3.5,4.7,0.6,7.4c-0.6,0.6-1.1,1.3-1.6,2c5.7,3.1,5.7,4.2,0.3,7.6
	c-4,2.5-8.2,3.9-12.6,1.4c-1.9-1.1-2.8-0.5-3.9,1c-4.6,6.5-9.2,13.1-12.6,21.5c3.3-1.9,5.9-3.5,8.7-4.8c1.7-0.8,3.7-1.4,5.6-1.8
	c2.4-0.5,4.9-0.4,6.2,1.9c1.4,2.6-1.3,3.7-2.6,5.1c-5.5,5.7-12,9.6-19.8,11c-3,0.5-4,2.1-5.1,4.6c-7.4,17-10.7,34.7-10.9,53.2
	c0,2.6,0.8,7.3-2.4,7.2c-3-0.1-1.3-4.5-1.2-6.9c1.1-18.5-1.7-36.3-7.7-53.7c-1.2-3.6-3-5.4-6.9-6.1c-9.2-1.7-16.4-6.8-21.4-14.8
	c-0.9-1.4-2.2-3.2-0.9-4.9c1.1-1.4,3-0.8,4.6-0.6c6.3,1,11.4,4.8,17.5,8.8c-4-9.8-9.4-17.4-15.2-24.8c-1.3-1.7-2.8-0.9-4.3-0.3
	c-3.8,1.5-7.7,1.4-11.5-0.2c-3-1.4-3.9-3.2-0.5-5.3c1.9-1.1,3-1.8,1.2-4.3c-4.5-6.6-4.4-7.8-0.3-10.6c7.5-5.2,9.3-5,14.1,1.3
	c0.4,0.5,0.9,1,1.3,1.5c0.5-0.2,0.9-0.3,1.1-0.5c1.5-1.3,1.5-4.8,4.3-3.8c2.5,0.9,2.2,3.8,2.2,6.1c0,3.7-1.1,7.1-3.5,9.9
	c-1.9,2.1-2.2,3.7,0,5.9c4.3,4.4,7.2,9.9,11.1,15.9c0.7-5,1.1-8.8,1.8-12.6c0.4-1.9,1.2-3.7,2-5.5c0.6-1.3,1.4-2.9,2.9-2.8
	c1.9,0,2.5,1.9,2.9,3.4c2.3,9.1,2,18-2.2,26.6c-0.7,1.4-2.1,2.6-1.3,4.4c3.8,9.1,6.8,18.5,9.3,28.1c0.4,0,0.8-0.1,1.2-0.1
	c0-3.8,0-7.6,0-11.4c0.3-21.6,0.1-43.2-2.7-64.7c-0.4-2.7-0.9-3.9-4-4.1c-6.7-0.3-12.2-3.7-16.9-8.3c-1-1-2.4-1.9-1.7-3.6
	c0.7-1.4,2.3-1.6,3.7-1.7c4.7-0.3,9.2,0.3,14.7,2.6c-3.8-6.9-7.7-12-12.1-16.8c-1.8-1.9-3.8-1.7-5.8-0.4c-4.4,2.9-9.1,2.4-13.9,1.3
	c-3.1-0.7-3.6-2-1.5-4.3c1.2-1.3,3-2.2,0.5-4.1c-3.1-2.3-4.5-5.8-1.8-8.8c4.7-5.3,7.4-7.4,12.7-5.1c1.3,0.5,2.4,1.5,3.5,2.3
	c0.3-0.2,0.7-0.2,0.9-0.5c1.2-1.7,1.3-4.9,3.8-4.5c2.5,0.4,2.8,3.5,3.4,5.6c0.8,3.1,1.4,6.6,0.1,9.5c-1.6,3.8,0,5.9,2.4,8.4
	c1.7,1.8,3.1,3.9,4.7,5.9c1.4,1.8,2.7,3.7,4.9,5.3c-0.4-4.1-0.8-8.2-1.3-12.2c-1.6-12.2-3.7-24.4-6.1-36.5c-0.6-3.1-1.7-4.6-4.9-5
	c-4.4-0.5-8.9-1.4-12.5-4.3c-2.2-1.8-4.8-3.9-3.9-7.1c0.8-2.8,4.1-1.2,6.5-2.2c0.1-2.8-2.6-5.8-0.1-8.4c2-2.1,4.5-3.5,7.4-4
	c5.7-1,8.3,1.3,10,9c2,0.6,3-1.5,4.7-1.8c1.4-0.2,2.8-1,4.1,0.2c1.3,1.2,0.8,2.6,0.4,4c-1.5,4.5-4.1,8.4-7.5,11.6
	c-2.2,2.1-2.5,4-1.8,6.6c1.1,3.8,2.2,7.5,3.4,12c2.3-3.4,4.2-6.3,6.3-9c1-1.2,2.3-2.2,3.6-3.1c1-0.7,2.1-1.5,3.4-0.9
	c1.6,0.8,1.1,2.4,1.1,3.8c-0.3,8-2.9,15.1-9,20.5c-1.7,1.5-2.8,2.9-2.4,5.5c2.5,15.2,4,30.5,5.6,45.7c0.1,0.5,0.3,0.9,0.9,2.3
	c1.5-5.7,2.8-10.6,4-15.5c2.4-9.7,5.2-19.3,9.5-28.4c1.4-2.8,1.4-5.2-0.3-8c-1.8-3-2.2-6.4-1.2-9.8c0.7-2.3,0.3-6.2,4.9-3.5
	c1.7,1,1.8-1.1,2.4-2c2.8-4.3,5.4-4.9,9.9-2.2c6.5,3.9,7.7,7.2,5,12.8c4.9,2.6,5,3.7,0.3,6.9c-3.6,2.5-7.7,4-12.1,3.4
	c-3.5-0.5-5.3,0.8-6.3,4c-1.6,5.1-3.3,10.1-5.4,16.3c3.6-2.5,6.1-4.5,8.9-6.1c2.5-1.4,5.4-2.9,7.9-0.5c2.5,2.4,0.5,5.1-0.7,7.4
	c-3.4,6.8-9.4,10.7-16.6,12.5c-2.4,0.6-3.5,1.6-4.2,4c-3.6,12.1-5.6,24.2-4.7,36.9C55.5,147.3,54.8,159.9,54.8,172.3z M27.5,63.5
	c-0.9-4.5-3.1-7.9-5.8-11c-1.5-1.7-3.7-2.9-5.7-1.5c-2.1,1.4-5,2.7-5.4,5.5c-0.4,2.6,2.3,3.3,4,4.5C18.3,63.6,22.8,63.3,27.5,63.5z
	 M36.2,21.2c0.9-5,1.9-8.9,1.1-12.8c-0.5-2.2-1.4-4.1-3.9-4.4c-2.9-0.4-5.2,0.7-7.2,2.7c-1.8,1.9-0.6,3.8,0.2,5.5
	C28.2,16.1,32.9,17.1,36.2,21.2z M16.8,114.4c1.2-5.7-0.5-10-3.9-13.7c-3.8-4.2-6.4,0.8-9.1,2c-2.6,1.1,0.3,3.1,1,4.6
	C7.1,112.2,12.5,111.6,16.8,114.4z M72.3,56.2c3.2-3.5,7.5-4.9,10.9-7.6c1.2-1,2.8-2.2,1.7-3.9c-1.6-2.5-3.7-4.8-6.8-5.6
	c-2-0.5-2.7,1.1-3.5,2.6C72.3,46.2,72.6,51.2,72.3,56.2z M35.6,153.1c-5-7-11.4-11.8-20.8-13.8C20.2,147.6,27.2,151.5,35.6,153.1z
	 M78.8,76.1C71.2,77.5,63,85,62.3,91C70.1,88.6,76.3,84.7,78.8,76.1z M85.5,117.9c5.1-0.1,8.1-2.7,11.1-5.6c1.7-1.7,2.4-2.9,0.3-4.7
	c-1.9-1.6-3.5-3.7-6.2-1C87.5,109.7,86.9,113.7,85.5,117.9z M67.3,154.8c7.9-1.4,14.2-5.4,19.3-11.4
	C78.5,144.5,72.5,149.1,67.3,154.8z M38.4,142.7c3.2-6.8,3.9-16.5,1.9-22.1C37.7,125.4,36.7,135.6,38.4,142.7z M54.2,33.5
	c-6,6.8-7.9,11.7-7.1,18C50.8,46,54.4,41,54.2,33.5z M31.3,87.5c4.2,4.3,9.2,6.3,15.9,6.4C42.8,87.7,37.1,87.4,31.3,87.5z
	 M69.9,136.8c1.6-5.9,0.9-10-2.4-14.3C66,127.7,67.6,131.7,69.9,136.8z"/>
</svg>
