<?xml version="1.0" encoding="utf-8"?>
<!-- Generator: Adobe Illustrator 25.3.0, SVG Export Plug-In . SVG Version: 6.00 Build 0)  -->
<svg version="1.1" id="Layer_1" xmlns="http://www.w3.org/2000/svg" xmlns:xlink="http://www.w3.org/1999/xlink" x="0px" y="0px"
	 viewBox="0 0 102.4 248.6" style="enable-background:new 0 0 102.4 248.6;" xml:space="preserve">
<path d="M65.2,115.5c3.3-1.8,6.8-2.8,8-6.9c2.6-8.3,8.5-13.5,16.8-15.9c2.3-0.7,2.6-0.4,2.1,2c-0.4,2.2-0.7,4.4-1.2,6.6
	c-2.1,9.2-7.8,13.2-17.1,12.2c-0.9-0.1-1.9,0.1-2.6,0.5c-4,2.7-8,5.2-9.5,10.5c-2,7.2-4.7,14.2-7,21.3c-0.1,0.4-0.2,0.8-0.4,1.5
	c3-1.3,5.4-2.8,6.6-5.5c2.9-7,8.7-10.5,15.4-12.9c2.1-0.8,4.3-1.3,6.4-1.8c1.3-0.3,2,0.2,1.4,1.6c-1.6,3.2-2.6,6.8-4.8,9.7
	c-3.9,5.1-8.9,7.7-15.4,7.1c-4-0.3-10,3.1-11.2,6.9c-3,9.6-5.5,19.3-7.1,29.2c0,0.1,0.1,0.3,0.3,1.1c2.1-2.9,5.1-4.4,6.6-7.5
	c3.6-7.6,10.2-10.3,18-10.8c1.8-0.1,1.8,0.8,1.4,2.2c-2.2,7.1-8.8,12.3-16.3,12c-2.9-0.1-4.7,1-6.6,2.8c-3,3-4.8,6.3-5.2,10.5
	c-0.7,7-1.9,13.9-1.7,20.9c0,0.6-0.2,1.3,0.5,2.3c2-3.8,5.6-6.2,6.9-10.3c1.5-4.6,4.9-7.6,9.1-9.6c2.7-1.3,5.7-2.2,8.6-3.1
	c2.1-0.6,2.7,0.1,2.3,2.3c-1.2,6.2-7,11.4-14.4,12.8c-7,1.3-13,8.4-12.9,15.5c0,4.7,0,9.4,0.9,14c0.1,0.5,0.4,1.3-0.3,1.5
	c-0.9,0.3-1-0.6-1.2-1.2c-0.8-3.2-1.2-6.5-0.9-9.8c0.7-6.6-1.7-11.5-6.9-15.6c-2.6-2-5-3.8-8.3-4.5c-4.1-0.9-6.8-3.8-9.1-7.1
	c-2.4-3.4-3.7-7.3-6-10.8c-0.3-0.4-0.6-0.9-0.2-1.4c0.5-0.6,1.2-0.4,1.8-0.3c8.1,1.4,14.3,5.4,16.9,13.3c1.4,4.4,3.3,8.2,7.2,10.8
	c0.4,0.3,0.7,0.8,1.1,1c1.1,0.7,1.5,2.8,2.8,2.3c0.9-0.3,0.3-2.3,0.4-3.5c0.1-7.6,1.1-15.1,2.4-22.6c0.4-2.4,0-4.4-1.3-6.3
	c-1.3-1.8-2.8-3.4-4.2-5.2c-0.8-1-1.9-1.2-3.1-1.2c-5.5-0.2-9.4-2.8-11.9-7.5c-1.4-2.6-2.6-5.3-3.7-8c-0.7-1.7-0.1-2.2,1.7-2
	c8.7,1.3,14.7,6.7,16.9,15.4c0.1,0.5,0.2,1,0.5,1.4c2,2.2,3.9,4.5,6,7.5c0.5-2.6,0.9-4.6,1.3-6.6c1.7-8.5,3.9-16.8,6.5-25.1
	c0.5-1.6,0.4-3-0.4-4.5c-1.4-2.9-3-5.4-6.2-7c-4.1-2-5.7-5.9-6.3-10.3c-0.5-4.1,0-8.2-0.7-12.2c-0.1-0.7-0.1-1.4-0.4-2.1
	c-0.3-0.7-0.6-1.5,0.3-2c0.8-0.5,1.4,0.2,1.9,0.7c2.1,2.1,4.5,4.1,5.9,6.9c1.4,2.7,3.4,5.1,4.5,7.9c1.4,3.5,1.7,7,0.3,10.6
	c-1.2,2.9,1.4,4.4,2,6.7c1.1-0.3,1-1.1,1.2-1.6c2.6-7.8,5.2-15.6,8.2-23.2c0.7-1.8,0.9-3.6-0.1-5.7c-1.7-3.5-3.1-6.7-6.4-9.3
	c-4.2-3.2-5-8.3-4.2-13.5c0.5-3.3,1.7-6.3,3.6-9.1c0.5-0.7,1.1-1.8,2-0.5c1.4,1.7,2.8,3.5,3.8,5.4c3,5.3,2.6,11.1,0.7,16.3
	c-1.5,4.3,0.8,6.8,1.9,10.1c1-0.5,1-1.2,1.2-1.8c2.4-7.4,4.3-14.8,4.8-22.6c0.1-1.7-0.3-2.9-1.6-3.9c-2.2-1.7-4.4-3.4-6.6-5.1
	c-1-0.8-2.2-1.2-3.5-0.9c-5.6,1.5-9.2-1.5-12-5.6c-2.8-4.1-3.3-9.1-4.8-13.7c-0.4-1.2,0.4-1.8,1.5-1.3c7,3,13.3,6.9,16.8,14.1
	c0.2,0.4,0.5,1,0.4,1.4c-0.5,3.6,1.9,5.1,4.5,6.5c1.2,0.7,2.2,1.6,3.4,2.5c0.4,0.3,0.8,1,1.5,0.6c0.6-0.3,0.4-1,0.3-1.6
	c-0.4-4.8-1.2-9.6-2.5-14.3c-0.7-2.4-1.2-4.8-2-7.1c-1.7-4.9-5.7-8-10.3-9.1c-6.6-1.5-10.4-5.3-12.3-11.4c-1-3.1-1.7-6.3-2.6-9.5
	c-0.1-0.5-0.3-1,0.3-1.3c0.4-0.2,0.8-0.1,1.1,0.2c5.1,4.2,10.8,7.7,13.8,13.9c0.6,1.2,1.1,2.4,1.2,3.7c0.1,2,0.9,3.4,2.7,4.4
	c1.3,0.8,2.4,1.9,3.8,2.9c0.5-1.2-0.1-2.1-0.3-3c-2.1-8.3-3.6-16.7-2.6-25.4c0.4-3.6,1.7-6.7,4.1-9.3c2.9-3.2,6.4-5.6,10.1-7.8
	c0.6-0.4,1.3-0.8,2.1-0.4c0.9,0.5,0.6,1.5,0.5,2.2c-1.7,7.5-5,13.8-12.9,16.4c-2.1,0.7-2.5,2.1-2.6,4c-0.2,5.6,0.8,11.1,2.1,16.6
	c0.5,1.9,1,3.8,1.8,5.7c1.3-3.3,4.1-5.9,2.8-10.1c-1.6-5.1-0.1-9.7,3.6-13.7c1.3-1.5,2.7-2.9,4-4.4c0.4-0.4,0.8-0.9,1.5-0.6
	c0.5,0.3,0.5,0.8,0.5,1.3c0,3,0.1,5.9-0.1,8.9c-0.2,4.9-2.5,8.6-6.2,11.9c-3.4,3.1-5.7,7.5-4.7,12.1c1.7,7.7,4.4,15.3,5,23.4
	c2.1-3.1,5.8-5.1,4.6-10c-1-3.9,0.5-7.8,2.4-11.4c2-3.8,5-6.9,8.1-9.9c0.8-0.7,1.9-1.5,2,0.4c0.4,5.1,1.5,10.3-0.1,15.4
	c-1.6,5.2-4.4,9.4-10.2,10.6c-0.5,0.1-1,0.3-1.3,0.7c-2.8,3.5-5.8,6.8-6.1,11.8c-0.3,6.9-2.1,13.6-4.1,20.2
	C65.9,113.1,65.6,114.3,65.2,115.5z M56.6,104.8c-0.1,0-0.1,0.1-0.2,0.1C56.4,104.9,56.5,104.8,56.6,104.8c-1.3-2.5-0.2-6.2-3.7-7.9
	C52.7,100.8,54.2,103.8,56.6,104.8z M63.4,141.8c1.7-1,3.4-2,5.1-2.8c2.5-1.2,3.3-3.2,3.4-5.8c-3,1-5.8,3.2-7.8,6.2
	C63.6,140.1,62.9,140.8,63.4,141.8c0-0.1,0-0.2-0.1-0.3C63.4,141.6,63.4,141.7,63.4,141.8z M57.4,87.2c-0.2,1.1-0.3,1.9-0.4,2.8
	c-0.2,2.9-0.4,5.7-0.1,8.6c0.1,0.7,0,1.9,1.3,1.4c1.3-0.5,3-4.2,2.6-5.7C60.1,91.8,59.3,89.3,57.4,87.2z M79.4,109.5
	c2.1,0.3,3.7,1.1,5.2-0.1c2.3-1.8,3.6-4.2,4.4-6.9c0.4-1.3-0.4-1.4-1.3-1c-0.6,0.3-1.2,0.6-1.6,1.1
	C84.2,105.1,82.1,107.2,79.4,109.5z M52.7,205.8c4.5-0.4,8.5-1.8,11.6-5.1c0.4-0.5,1.2-0.9,0.8-1.6c-0.4-0.8-1.4-0.6-2-0.3
	c-1.8,0.9-3.5,2.1-5.3,3.1C56.1,203.1,54,204,52.7,205.8z M78.6,64.9c-1.5,3.6-2.4,7.1-1.2,11.1C81.7,71.7,81.9,69.3,78.6,64.9z
	 M70.9,139.5c3.9,3,7.7-1,9-6.6C76.8,135.2,73.8,137.4,70.9,139.5z M27.3,206.1c-1.7-2.4-2.9-4.4-4.4-6.2c-1.1-1.4-2.6-0.6-3.8-0.2
	c-0.8,0.3-0.5,0.9-0.1,1.4C21.1,203.5,23.5,205.3,27.3,206.1z M67.4,167c-3.7,0-6.9,1.3-9.6,3.9c-0.3,0.3-0.4,0.7-0.5,1.1
	c-0.2,0.8-0.1,1.4,0.9,0.9C61.5,171.2,64.7,169.6,67.4,167z M79.3,101.2c-2.5,2.7-4,5.5-4.9,8.9C80,108.3,80.8,106.9,79.3,101.2z
	 M33.9,174.5c-1.2-3.6-3.7-5.1-6.6-4.2c-1.4,0.4-1.3,1-0.4,1.8C28.9,173.8,31.1,174.9,33.9,174.5z M74.7,32.7
	c-2.1,3.7-2.5,7.8-3.2,11.9C74.6,41.2,75.6,37.2,74.7,32.7z M61.5,24.6c0.2,0.2,0.3,0.3,0.5,0.5c3-3.3,5.9-6.7,8.9-10
	C66.6,17.2,63.1,20,61.5,24.6z M45.9,133.6c2.2-3.1,2.5-5.1,1.1-7.3c-0.3-0.5-0.6-1.2-1.2-1c-0.3,0.1-0.6,0.7-0.8,1.2
	C44,128.9,45.1,131.1,45.9,133.6z M40.2,121.9c-1.1,2.2-0.3,4.3-0.4,6.3c0,1.4,1.2,1.8,2.4,2c0.7,0.1,0.8-0.5,0.7-1
	C42.4,126.8,42.4,124.1,40.2,121.9z M49.4,43.9c0.1,2.3,1.6,3.9,3.4,5.3c0.2,0.2,0.7,0.3,0.9,0.2c0.4-0.2,0.3-0.7,0.3-1.1
	c-0.4-2-1.3-3.7-2.5-5.3C51,42.6,50.8,41.7,50,42C49.3,42.3,49.5,43.1,49.4,43.9z M21.2,162c0.5,2.6,1.5,4.5,2.6,6.3
	c0.6,1,1.5,0.9,2.4,0.7c0.5-0.1,1.1-0.1,1.3-0.6c0.3-0.6-0.3-0.9-0.6-1.2C25.1,165.7,23.3,164.1,21.2,162z M46.5,139.1
	c-0.9-2.3-1.6-4-2.4-5.7c-0.3-0.7-0.8-1.3-1.6-1.5c-0.4-0.1-0.9-0.5-1.4-0.1c-0.4,0.4-0.3,0.9-0.1,1.4
	C41.9,135.7,43.5,137.6,46.5,139.1z M63.3,175.1c-3.5-1.6-6.1-0.9-8.6,2.3C57.8,177.4,60.5,176.8,63.3,175.1z M53.1,69.3
	c-0.6,1.7-0.7,3.3-0.7,5c0,1.1,0.9,1.5,1.7,1.8c0.5,0.2,0.7-0.1,0.9-0.5C56.2,73.7,55.4,70.9,53.1,69.3z M48.9,47.4
	c0-0.7-3.5-6.2-4-6.4c-0.6-0.2-1.1-0.4-1.3,0.5c-0.2,1.3,2.7,5.9,3.9,6.3C48.1,48,48.7,48.2,48.9,47.4z M56.5,79.2
	C54,77.8,52,76.6,50,75.5c-0.6-0.4-1.4-0.5-1.8,0.2c-0.5,0.8,0.2,1.2,0.7,1.6C51.1,78.6,53.3,79.8,56.5,79.2z M44.2,66.1
	c-0.3,2.7,0.5,5,1.7,7.2c0.4,0.7,1,1.1,1.9,0.7c0.5-0.2,0.8-0.6,0.5-1.1C46.8,70.6,45.5,68.4,44.2,66.1z M71.9,142.2
	c-3.3-1.7-5.7-1.2-7.8,1.6C66.9,144,69.5,144,71.9,142.2z M82,67.1c0.6-1.6,1.3-3,0.8-4.5c-0.2-0.8-0.4-2.3-1.7-2
	c-1.1,0.3-1.4,1.6-1,2.7C80.6,64.6,81,65.9,82,67.1z M51.4,69.6c0-0.5,0-0.9,0-1.3c0-0.8-0.4-1.5-1.2-1.6c-1.2-0.1-0.8,0.9-1,1.6
	c-0.1,0.3-0.1,0.6-0.1,1c0.1,1.3-0.5,3.4,1.2,3.5C51.8,72.8,50.9,70.6,51.4,69.6z M84.2,102.3c1.7-2.5,3.2-4.3,3.7-6.9
	C84.4,96.4,83.7,97.5,84.2,102.3z M86.4,66.6c-1.9,0.4-2.9,1.6-3.5,3.1c-0.2,0.6-0.7,1.4,0.1,1.8c0.7,0.4,1.5,0.1,2-0.5
	C86,69.8,86.5,68.5,86.4,66.6z M84.5,65.1c2.7-1.1,3.3-3.7,1.8-6.9C85.2,60.3,84.9,62.5,84.5,65.1z M55.1,86c-1.2,0.9-1.6,2-1.9,3.1
	c-0.4,1.3,0.3,2.3,1.4,2.5c1.5,0.3,1-1.2,1.1-1.9C55.8,88.6,55.7,87.4,55.1,86z M44.6,63.4c1,1.9,1.4,3.8,3,5.2
	C48.9,64.9,48.3,63.9,44.6,63.4z M18.4,198.2c0.4-0.4,2,0.2,1.8-1.1c-0.2-1.1-1.4-2-2.8-2c-0.7,0-1.7-0.1-1.5,1
	C16.1,197.3,16.7,198.2,18.4,198.2z M41,117.8c0.2,2.2,1,3.9,1.8,5.5c0.2,0.5,0.4,1.2,1.2,0.9c0.6-0.3,0.8-1,0.5-1.5
	C43.6,121.1,43,119.2,41,117.8z M60.7,99.5c-2.7,2.2-3.1,3.9-1.5,5.8C60,103.6,61,101.9,60.7,99.5z M48.8,131.5
	c-0.9,2.3-1.7,3.9-1.3,5.8c0.1,0.5,0.3,1,0.9,1c0.5,0,0.5-0.5,0.6-0.9C49.6,135.7,49.8,133.9,48.8,131.5z M54.8,96.2
	c0.1-0.5,0.3-0.8,0.3-1.1c0-1.3-0.5-2.4-1.9-2.8c-0.4-0.1-0.8,0-0.9,0.5c-0.3,1.3,0.7,1.9,1.4,2.6C54.1,95.7,54.4,95.9,54.8,96.2z
	 M69.8,18.8c2.9,0.5,3.1-1.5,3.2-3.5C71.9,16.4,70.8,17.6,69.8,18.8z M59.3,197.3c-0.7-0.2-1.2,0.2-1.7,0.5
	c-0.7,0.5-1.1,1.2-1.1,2.1c0,0.3,0.2,0.7,0.6,0.7c0.9-0.1,1.4-0.8,1.8-1.5C59.2,198.6,59.5,198,59.3,197.3z M67.3,24.4
	c-2.3-0.2-3.7,0.4-4.6,2.5C64.6,26.8,65.8,26,67.3,24.4z M81.9,104.4c0.3-2.3,0.7-3.9,0.3-6.2C80.7,100.4,81.1,102.1,81.9,104.4z
	 M27.7,203.5c-0.1-2.1-0.7-3.5-1.8-4.7c0,0-0.5,0.2-0.5,0.3C25.1,201,26.3,202.1,27.7,203.5z M73.7,135.2c1.7-1,2.2-2.3,2.2-4.1
	C73.8,131.9,73.7,133.4,73.7,135.2z M15.9,191c1.6,1.2,2.4,2.6,4,2.9c0,0,0.4-0.6,0.3-0.8C19.4,191.6,18,191,15.9,191z M80.1,76.3
	c1.4-0.5,2.4-1.1,2.9-2.2c0.1-0.3-0.2-0.6-0.6-0.5C81.1,73.8,80.3,74.6,80.1,76.3z M68.9,45.4c1.2-1.6,1-2.7-0.2-4.2
	C68,42.7,68.4,43.9,68.9,45.4z M23.7,197.6c0.6-1.5,0.1-2.4-1.1-3.1c-0.3-0.2-0.7,0-0.7,0.4C21.7,196.2,22.4,197,23.7,197.6z
	 M62.4,172.7c1.6,0.6,2.6,1.2,3.6,0.1c0.1-0.1,0.1-0.6,0-0.6C65,171.7,63.9,171.8,62.4,172.7z M44.3,38.8c-0.4-1.4-0.8-2.5-2.3-3.4
	C42.5,37,42.3,38.3,44.3,38.8z M29.5,165c-0.5,0.1-0.7,0.4-0.6,0.9c0.1,0.7,0.2,1.5,1.1,1.7c0.5,0.1,0.6-0.4,0.6-0.9
	C30.6,165.8,30.2,165.3,29.5,165z M75.5,111.9c1.7,0.6,2.9,0.5,4.4-0.4C78.2,111,77,110.9,75.5,111.9z M24.2,162.1
	c0.5,1.4,1.2,2.2,2.6,2.5C26.7,163,26,162.2,24.2,162.1z M46.2,37.9c0.3,1.4,0.7,2.3,1.6,3.3C48.4,39.4,47.9,38.5,46.2,37.9z
	 M52.3,203.4c1.1-0.5,2.1-1,2.3-2.2c0-0.2-0.3-0.5-0.3-0.5c-1.1,0.3-1.5,1.3-2,2.2C52.3,203,52.3,203.1,52.3,203.4z M64.1,195.3
	c-1.6-0.1-2.5,0.4-2.8,2.1C62.7,197.1,63.6,196.5,64.1,195.3z M66.9,22.3c1.5,0.7,2.4,0.4,3.1-0.8C68.9,21.1,68.1,21.5,66.9,22.3z
	 M34.3,171c-0.4-1.5-0.9-2.4-2-3C31.9,169.5,32.8,170.2,34.3,171z M89.8,96.9c-0.7,0.5-1.2,1.1-1.2,1.9c0,0.1,0.4,0.4,0.5,0.3
	C90,98.7,90.1,97.9,89.8,96.9z M69.5,36.9c0.1,1.3-0.1,2.2,1.1,2.8C70.8,38.6,70.6,37.8,69.5,36.9z M84.5,57
	c-1.1,0.6-1.6,1.2-1.3,2.1c0.1,0.2,0.5,0.5,0.5,0.5C84.4,58.9,84.5,58.1,84.5,57z M78,131.7c1.1-0.4,1.7-0.8,1.9-1.8
	C78.7,129.9,78,130.1,78,131.7z M72.2,32.1c-0.7,1.2-1.9,1.7-0.8,3.3C71.9,34.4,72.5,33.7,72.2,32.1z M56.7,74.4
	c0.1,1.4-0.4,2.4,1,3.1C57.9,76.4,57.8,75.6,56.7,74.4z M13.8,191.8c0.5,1.1,0.7,1.9,1.8,1.6C15.5,192.4,14.9,192.2,13.8,191.8z
	 M68.9,168.8c-0.9,0-1.5,0.3-1.6,1.3C68.4,170.3,68.8,169.9,68.9,168.8z"/>
</svg>
