<?xml version="1.0" encoding="utf-8"?>
<!-- Generator: Adobe Illustrator 25.3.0, SVG Export Plug-In . SVG Version: 6.00 Build 0)  -->
<svg version="1.1" id="Layer_1" xmlns="http://www.w3.org/2000/svg" xmlns:xlink="http://www.w3.org/1999/xlink" x="0px" y="0px"
	 viewBox="0 0 72.8 228.1" style="enable-background:new 0 0 72.8 228.1;" xml:space="preserve">
<path d="M33.8,47.4c5-10.3,7.2-20.5,4.2-31.3c-0.9-3.2-1.7-6.4-2.4-9.6c-0.4-2.1-0.1-4.6,2.4-5c2.8-0.4,4,2.1,4.1,4.4
	c0.1,4.9-0.1,9.9-0.2,14.9c0,1.2,0.2,2.4,0.3,4.8c3.6-4.8,5.9-8.8,6.8-13.7c0.9-4.4,3.2-8,6.8-10.8c1.6-1.2,3.4-1.8,5,0
	c1.4,1.5,0.8,3.1-0.3,4.5c-1.4,1.8-2.7,3.7-4.4,5.2c-4.7,4.3-7.6,9.6-10.3,16.4c5.2-2.1,9-4.6,11.9-8.2c2.4-3,5.5-4.9,9.2-6
	c2.2-0.6,4.3-0.7,5.5,1.4c1.2,2.2-0.9,3.3-2.4,4.4c-3.7,2.7-7.7,4.7-12.1,6.2c-11.4,3.8-19.2,10.9-19.6,24.3c3-1.4,5.6-2.9,7.2-5.7
	c2.1-3.6,5.3-5.7,9.1-7.2c2-0.8,4.6-2.2,6,0.6c1.1,2.2-1,3.8-2.7,5c-2,1.4-4.2,2.9-6.5,3.6c-13.4,4.3-17.9,13.9-17,27.1
	c0.1,1.8,0,3.7,0.6,5.9c2.8-3.5,6.2-6.6,6.5-11.4c0.3-4,2.4-6.5,5.3-8.6c1.4-1,3.2-1.3,4.6-0.1c1.6,1.3,0.9,3,0.1,4.5
	c-1.2,2.2-2.6,4.3-4.7,5.7c-3.4,2.3-5.3,5.7-7.2,9.1c-5.1,9.4-6.7,24.1-3.7,35.6c2.5-4.3,6.7-7.1,5.9-12.6c-0.2-1.1,0.5-2.5,1.2-3.4
	c2.2-2.9,5.4-6.3,8.6-4c3.4,2.4,0.4,6.1-1.6,8.5c-1.9,2.4-4.8,4-6.6,6.5c-4.9,6.7-8.8,13.8-8.2,22.7c0.6,8.2,0.3,16.4,0.2,25
	c3.3-12.2,10.4-22.3,17.4-32.9c2.1,1.6,1.5,4,1.7,6c0.8,12.4-2.1,24.2-6.2,35.7c-2.8,7.8-5,15.7-7.9,23.5c-3.9,10.5-3.7,21-0.9,31.6
	c0.5,1.8,0.8,3.6,1.2,5.4c0.2,1,0.4,2.2-0.8,2.7c-1.7,0.6-1.9-1-2.4-2.1c-0.2-0.4-0.4-0.8-0.4-1.2c-1.6-16.3-10.9-29.7-16.9-44.3
	c-8.3-20-13.7-40.6-16.8-62c-0.6-3.9-0.7-7.8-2.9-11.3c-0.5-0.8-1.2-1.8-0.2-2.8c1.3-1.1,2.3,0,3.2,0.7c5.8,4.7,9.4,10.8,12,17.7
	c4.6,12.3,5.8,25.3,8.7,38c2.2,9.8,4.4,19.6,7.3,29.3c0.2-10.6-1.3-21.1-1-31.7c0.4-12.6,0-25.2,0.4-37.8c0.4-12-5.3-21.8-10.4-32
	c-0.9-1.9-2.7-2.4-4.4-3.2c-2.9-1.4-5.2-3.3-6.9-6c-1.3-2.1-2.9-4.6-0.3-6.6c2.9-2.2,5.2,0,6.7,2.2c3.8,5.6,7.3,11.4,10.8,17.2
	c1.2,2,2.2,4.3,3.9,7.8c0.5-14.6-0.8-27.3-5.6-39.5c-0.9-2.3-2.6-3.6-4.6-4.7c-2.8-1.5-5-3.7-6.4-6.5c-1.1-2.2-2.4-5,0-6.8
	c2.8-2,5.1,0,6.7,2.3c1.4,2,2.5,4.3,3.5,6.5c2,4.3,3.8,8.6,6,13.6c2.1-4.7,2.6-9,1.4-13.2c-2-6.9-2.1-14.4-6.9-20.3
	c-0.6-0.8-0.9-1.9-1.1-2.9c-0.6-3.3-1.4-7.7,2.4-8.6c3.9-0.9,3.1,4,4,6.4C32.6,33,30.8,40.3,33.8,47.4z M37,185.1
	c5.3-17,14.4-32.9,13.6-51.5C40.7,149.4,35,166.3,37,185.1z M7.6,115.2c2.5,19.9,7.5,39.3,14.9,58C17.8,153.9,17.3,133.4,7.6,115.2z
	"/>
</svg>
