<?xml version="1.0" encoding="utf-8"?>
<!-- Generator: Adobe Illustrator 25.3.0, SVG Export Plug-In . SVG Version: 6.00 Build 0)  -->
<svg version="1.1" id="Layer_1" xmlns="http://www.w3.org/2000/svg" xmlns:xlink="http://www.w3.org/1999/xlink" x="0px" y="0px"
	 viewBox="0 0 109.4 223.7" style="enable-background:new 0 0 109.4 223.7;" xml:space="preserve">
<path d="M64.1,162c1.8,0.7,2.6-1,3.8-1.6c1.9-0.9,3.8-1.8,5.5,0.2c1.6,1.9,1.4,4.1,0,6.1c-2,2.8-5,4.4-8.1,5.3
	c-3.2,0.9-4.6,2.7-5.3,6c-3,14.1-5.9,28.3-6.8,42.7c-0.1,1.1,0.1,2.2-1.3,3c-3.3-2.3-2.7-5.7-2.3-8.8c2.8-21.1,6.7-41.9,13.4-62.1
	c1.2-3.6,1.9-6.4-2.1-9.2c-3.8-2.6-5.3-7.3-6.6-11.7c-0.6-1.9-0.8-3.8,1.3-4.8c2-1,3.5,0.3,4.8,1.7c2.6,2.8,3.8,6.5,6.1,10.1
	c1.7-3.1,2-5.7,1-8.4c-2-5.1-4.2-10.2-6.1-15.3c-0.7-1.9-1.8-2.4-3.7-2.6c-8.7-1-16.8-3.6-23.4-9.7c-0.6-0.6-1.7-1.2-2.4-1
	c-7.8,2.3-11.2-4.9-16.8-7.5c-1.3-0.6-1.6-2-1-3.3c0.4-0.9,1.1-1.4,2.1-1.5c1.5-0.1,2.4,0.6,2.9,2c1.8,4.7,5.3,6.9,11,7.4
	c-2.4-4.3-4.6-7.6-7.5-10.3c-1.1-1-2.4-1.9-1.4-3.7c0.5-0.9,1.2-1.6,2.1-1.5c1.6,0.3,2.1,1.7,2.7,3.1c2.2,5.3,6.4,9.1,10.3,14.2
	c1-3.4,0.1-5.7-0.9-7.6c-3-5.5-5-11.8-11.1-15.1c-1.7-0.9-1.6-2.8-0.1-4.1c1.4-1.1,3-1,3.7,0.6c2.7,6.2,7.9,11,10.4,17.4
	c0.6,1.5,1.6,3.2,1.4,4.7c-0.9,7.8,4.4,9.4,10.2,10.7c2.6,0.6,5.2,1.5,8.8,1.4c-5.5-11.6-10.6-22.6-16-33.6
	c-4.1-8.2-8-16.4-11.9-24.7c-3-6.5-7.6-12-15.5-13.1c-4.5-0.6-7.7-3.2-9.9-7.1c-1.1-1.9-1.8-4-3.9-5.2c-1.3-0.8-2.1-2-1.1-3.7
	c0.6-1,1.6-1.7,2.7-1.6c1.7,0.2,2.2,1.4,2.5,3C7,30.4,10,33.2,19,34.7c-4.8-5.8-6.2-12.4-10.2-17.6c-0.8-1.1-1.7-2-0.8-3.4
	c0.6-1,1.6-1.5,2.8-1.3c1.4,0.3,2,1.3,2.3,2.7c1.3,7.6,5.9,13.5,10.2,20.2c2.5-3,1.9-6,1.5-8.7C23.7,20.5,22,14.5,19,9
	c-0.8-1.4-1.3-2.6-0.2-4c0.6-0.8,1.5-1.1,2.4-0.7c1.7,0.7,2.4,1.8,2.2,3.9c-0.5,4.4,2.4,7.9,3.3,12c1.3,5.7,2.8,11.2,0.2,17.1
	c-1.8,4.1,3.4,4.6,5.3,8.3c1.8-13.6,4.2-25.9,8.1-37.8C40.6,6.5,40.3,5.2,40,4c-0.5-1.7,0.4-2.8,1.7-3.6c1.1-0.7,2.1-0.4,3,0.4
	c1.2,1.2,1.2,2.4,0.6,4c-5.9,15.1-9,30.7-8.6,47c0.1,2.6,0.2,5.2,1.4,7.5c4.8,9.2,10.1,18.1,14.6,28.6c0-7.1,0-12.9,0-18.8
	c0-1.3,0.1-2.6-0.9-3.6c-6.4-6.2-5.4-15.3-8.9-22.6c-0.7-1.5,0.3-3.1,2.1-3.1c2.1,0.1,3.2,1.5,3,3.7c-0.6,6.4,1.7,12,4.9,17.5
	c0-8.3,2.8-16.7-0.6-24.9c-0.5-1.2-0.3-2.2,0.6-3c1.1-0.9,2.4-0.9,3.6-0.1c1.5,0.9,1.6,2.2,1.1,3.8c-1.7,5.9,0,11.8-0.7,18.6
	c3.9-2,5.7-4.6,6.1-7.6c0.5-4.6,1.9-9.4-0.7-13.9c-0.7-1.1-0.5-2.1,0.3-3c1-1.1,2.3-1.2,3.5-0.7c1.1,0.4,1.8,1.5,1.4,2.6
	c-1.4,4.3-0.3,8.7-0.6,13.1c-0.4,5.3-2.8,9.4-7.2,12.4c-1.6,1.1-2.8,1.9-2.9,4.2c-0.3,12.4-1.3,25,2.5,37.1
	c2.8,9,6.8,17.5,11.3,26.1c1.5-4.8,2.8-9.6,4.4-14.4c0.9-2.7-0.6-3.5-2.6-4.4c-3.7-1.7-6.9-4.3-8.7-8.1c-1.2-2.6-3.1-5.7,0.3-7.8
	c3-1.9,5.1,0.8,6.8,3c2.1,2.7,3.9,5.7,6.4,9.3c1.5-4.9,2.7-9.1,4-13.3c0.7-2.2-0.9-2.8-2.3-3.8c-3-2.1-6.1-4.2-8-7.4
	c-1.7-3-2.9-6.5,0.6-8.9c3.2-2.2,5.4,0.6,7.3,2.9c1.7,2.1,3.1,4.4,5,7.3c2-5.7,3.7-11,5.5-16.2c0.7-2.1-0.8-3-1.9-4.2
	c-3-3.3-5-7.2-6.2-11.5c-0.6-1.9-0.4-3.8,1.6-4.7c2-1,3.6,0.1,4.6,1.8c1.4,2.3,2.5,4.8,4.3,8.2c1.4-8.8,4.6-16.1,2.8-24.4
	c-0.9-4.1-0.3-8.4,1.7-12.3c1.3-2.5,3.3-4.3,6.1-3.7c3.1,0.7,3.3,3.6,3.2,6.2c-0.2,3.6-1.3,7.1-3.3,9.8C97.3,35.7,97.8,43.4,96,51
	c3-0.2,4.3-2.5,6.3-3.5c2.2-1.1,4.1-1.5,6,0.5c1.9,2,1.2,4-0.2,5.9c-2.4,3.1-5.2,6.2-9,6.9c-5.7,1.1-7,5-8.2,9.5
	c-0.4,1.4-0.8,2.8-1.4,4.9c2.3-1,3.9-1.8,5.6-2.5c1.8-0.7,3.6-0.9,4.9,0.9c1.3,1.8,0.4,3.5-0.6,5.1c-1.4,2-3.4,3.6-5.7,4.1
	c-6.8,1.4-9.5,6-10.4,12.2c-0.2,1.2-0.7,2.5-1.1,4.1c2.8,0.5,4.8-1.7,7.2-1.9c1.7-0.1,3.4-0.5,4.4,1.2c1.1,1.8-0.1,3.1-1.3,4.3
	c-2.6,2.7-5.6,5.1-9.2,5.5c-3.1,0.4-4.4,1.7-5,4.6c-0.8,3.5-2,6.9-3.2,10.9c2.7-0.8,4.5-1.5,6.4-2c1.9-0.5,3.7-0.1,4.7,1.8
	c0.9,1.8-0.3,3.2-1.5,4.3c-2.7,2.3-5.7,4-9.2,4.6c-2,0.3-3,0.9-2.2,3.2c2.8,8.2,5.5,16.5,8.6,25.8c1.9-6.6,4.8-11.4,9-15.3
	c3.2-3,5.1-2.4,5.8,2c1.5,9.1-1.2,17.1-7.9,23.4c-2.8,2.6-3.6,5-2.8,8.6c2.3,10.2,2.8,20.6,3.8,31c0.2,1.8,1.3,5-1.1,5.2
	c-2.7,0.2-2.5-3.2-2.7-5.2c-1-10.4-1.9-20.8-3.7-31c-2.3-13.4-6.8-26.1-11.6-40.2c-2.3,8.1-4.3,15-6.2,21.9c0.1,0,0.1,0,0.2,0
	C64.3,162,64.2,162,64.1,162z M88.7,154.4c-0.4,0.8-0.8,1.5-1.3,2.3c-1,1.4-1.9,2.9-1.8,5.4c0.7-1.3,1.2-2.1,1.5-3
	c0.2-0.8,0.1-1.7,0.2-2.6c1.4-0.1,0.9-1.5,1.5-2.1c-0.2-0.4-0.2-0.4,0.2-0.2C88.9,154.3,88.8,154.4,88.7,154.4z M89.5,100
	c-2.6,1.6-6.2,2.1-8.1,6.6C84.8,104.1,88.9,104.3,89.5,100c0,0.1,0.1,0.2,0.2,0.4C89.6,100.3,89.6,100.1,89.5,100z M89.7,80.8
	c3.2-0.5,6.1-1.5,8.1-5.7c-3.9,1.4-7,2.2-8,5.8c-0.5-0.2-0.9-0.2-0.6,0.5C89.4,81.2,89.6,81,89.7,80.8z M88.6,56.7l0.3,0.1l-0.4,0
	c0.4-4-1.3-7.2-4.4-11.1C84,50.9,85.9,53.9,88.6,56.7z M80.9,84.6c0.1-4.7-2.5-7.6-4.5-10.7c-0.6-0.9-1.5-1.8-2.7-1.2
	c-1.5,0.7-1.2,2-0.8,3.3C74.2,79.5,76.9,81.9,80.9,84.6z M97.7,30.4c2.7-4.1,3.8-7.5,4.6-11c0.2-0.9,0.3-2-0.6-2.4
	c-1.3-0.6-2,0.6-2.5,1.5C97.3,21.7,97.2,25.3,97.7,30.4z M73.4,103.7c-1.7-4-3.4-8-7.9-10.5C65.2,99.4,68.8,102,73.4,103.7z
	 M95.6,58.3c4.4-1.3,8.3-3.4,11-9.1C101.1,51.5,97.7,54.1,95.6,58.3z M64.6,143.7c-2-7.5-3.6-10.5-7.6-14.2
	C57.9,135,59.9,139.3,64.6,143.7z M71.6,161.8c-4.1,2-6.5,4.2-8.1,7.2C66.8,167.8,70.4,167.2,71.6,161.8z M88.1,166.2
	c2.9-3.1,5.2-6.7,4.8-12C90.1,158.2,89.2,162.2,88.1,166.2z M73.8,129.6c4.4-0.7,6.8-1.9,9.2-4.7C79.2,124.8,77,126.7,73.8,129.6z"
	/>
</svg>
