<?xml version="1.0" encoding="utf-8"?>
<!-- Generator: Adobe Illustrator 25.3.0, SVG Export Plug-In . SVG Version: 6.00 Build 0)  -->
<svg version="1.1" id="Layer_1" xmlns="http://www.w3.org/2000/svg" xmlns:xlink="http://www.w3.org/1999/xlink" x="0px" y="0px"
	 viewBox="0 0 79.4 250" style="enable-background:new 0 0 79.4 250;" xml:space="preserve">
<path d="M30.6,239.9c-0.3-2.1,1.1-3.8,2-5.6c9-18.9,15.7-38.4,16.7-59.6c0.1-3-0.3-4.2-3.4-4.9c-6.4-1.4-12.1-4.3-15.4-10.4
	c-0.8-1.5-2-3.1-0.9-4.8c1.1-1.7,3.1-1.4,4.8-1.2c6.4,0.5,11.6,3.1,15,9c2.1-6.9,2-7.1-4.4-9.5c-4.8-1.8-8.9-4.7-11.8-9
	c-0.8-1.2-2.3-2.5-1-4.1c1.1-1.5,2.8-1.1,4.3-0.9c5.2,0.8,9.3,3.4,13,8c1-5.6,1-9.5-5.2-10.9c-4.3-1-7.7-3.9-10.1-7.7
	c-0.7-1-1.4-2.1-0.7-3.4c0.7-1.3,2.1-1.1,3.3-1c4.7,0.3,8.4,2.8,11.9,6.8c0.5-5.5,1.2-9.6-5.3-11.3c-4.4-1.2-7.1-5.3-8.7-9.7
	c-0.5-1.5-0.8-3.1,0.7-4.3c1.3-1,2.7-0.5,3.9,0c3.1,1.3,5.7,3.2,8.2,6.6c0.2-5-0.8-7.8-5.9-8.5c-5.4-0.7-10.3-3.2-12.7-8.7
	c-0.8-1.8-1.6-3.7-0.2-5.4c1.2-1.4,3.1-1.4,4.8-1.1c3.4,0.6,6.6,1.9,9.4,4.3c1-2-0.3-3.3-0.4-4.8c-0.5-4.9-2.7-7.3-8.2-7.3
	c-6.8,0-11.2-4.8-14.6-10.4c-0.7-1.2-1.5-2.5-0.6-3.9c1-1.5,2.7-1.4,4.2-1.3c5.3,0.5,9.1,3.9,13.4,6.6c1-1.6-0.3-2.7-0.5-4
	c-0.9-4.3-2.8-6.4-8-6.2c-6,0.2-12.1-1.4-16.3-6.6c-0.9-1.1-1.9-2.2-1.2-3.7c0.6-1.4,2.1-1.6,3.5-1.7c5.5-0.5,10.5,1,15.9,3.7
	c-1-5.2-2.8-8.3-8.1-8.9c-4-0.5-7.4-2.9-9.9-6.2c-1-1.3-2.8-2.6-1.8-4.5c1.1-2.1,3.4-1.3,5.2-0.9c2.3,0.6,4.5,1.4,6.9,2.2
	c-0.1-2.6-1.8-4-3.3-5.6c-4-4.4-5.4-9.6-4.5-15.4c0.2-1.6,0.6-3.2,2.4-3.7c1.8-0.4,2.9,0.9,3.8,2.2c3.3,4.7,3.2,10.2,3,15.5
	c-0.1,2.7,0.3,5,2.4,7.5c1.2-3.6,2.9-6.6,5.5-8.9c1.3-1.2,2.6-2.6,4.5-1.6c1.7,1,1.8,2.9,1.6,4.6c-0.3,3-1.7,5.6-3.4,8
	c-5.4,7.7-5.4,8.2,0.1,17c2.1-6.3,6.1-10.7,11.4-14c1.1-0.7,2.4-1.8,3.8-0.8c1.5,1,1.6,2.5,1.4,4.2c-0.9,6.1-4.1,10.9-9.2,13.8
	c-5,2.7-5.6,5.7-3,10.2c0.9,1.6,0.8,3.7,2.5,5.2c3.3-4,4.8-8.8,7.4-13c1.6-2.5,3.2-6.7,6.7-5.1c3.7,1.7,2.7,6,1.6,9.3
	c-2,5.7-5.6,10.4-10.6,13.8c-2.8,1.9-3.6,3.6-2.3,6.7c1.1,2.6,1.6,5.5,2.5,8.9c2.1-4.4,2.5-8.8,5.4-11.9c1.7-1.8,3.7-3.9,6.1-3.1
	c2.7,0.9,1.6,3.9,1.7,6c0.1,5.9-2.2,11.1-6.3,14.9c-4.3,3.9-4.9,7.9-2.6,13.3c2.3-2.8,4-6.1,7.2-7.9c1.5-0.8,3.2-2,4.8-0.9
	c2,1.3,1.3,3.5,0.8,5.2c-1.1,4.1-3.5,7.5-7.3,9c-6,2.3-5.5,6.4-4.5,11.9c3.2-3.6,6.2-6.4,10.4-7.4c1.5-0.4,3.2-1.1,4.3,0.4
	c1.2,1.6-0.1,2.9-0.8,4.3c-1.8,3.3-4.3,6.3-7.9,7.2c-6.6,1.7-6.2,6-4.9,11.8c2.7-3.6,5.6-6.3,9.6-7.3c1.7-0.4,3.5-1,4.9,0.4
	c1.6,1.6,0.3,3.3-0.5,4.8c-2,3.9-5.2,6.7-9.3,7.7c-5,1.2-5.6,4.2-4.6,9.1c3.2-4.2,7.2-6.4,11.8-7.6c1.3-0.3,2.8-0.7,3.9,0.4
	c1.3,1.4,0.5,2.9-0.2,4.3c-2.5,5.2-6.4,9.2-12.1,10.6c-3.7,0.9-4.9,2.9-5,6.5c-0.9,22.3-8.5,42.6-18.1,62.3
	C32.8,238.8,32.7,240.4,30.6,239.9z M38.6,129.6c-0.3-0.4-0.7-0.7-1-1.1c0-0.4,0-0.7,0-1.1c0.7,0,1.4,0,2.1,0
	c1.5,2.2,3.7,3.4,6.2,4.1l0,0.1c-1.5-2.2-3.3-4.1-6.3-4c-0.7-1.5-1.3-0.2-2,0c-0.4,0-0.9,0.1-1.3,0.1l-0.2-0.2c0,0,0.3,0.1,0.3,0.1
	c0.4,0.3,0.8,0.6,1.2,0.9C37.7,129.1,38,129.5,38.6,129.6c0.1,0.6,0.4,0.9,1.1,1c0.5,1.4,1.7,1.9,3.1,2.1c0.2,0.2,0.1,0.9,0.7,0.4
	c-0.3-0.1-0.5-0.2-0.8-0.3c-0.6-1.3-1.6-2-3-2.1C39.3,130.3,39,129.9,38.6,129.6z M55.3,116c0.4-0.3,0.7-0.6,1.1-0.9
	c2.7-1.2,4-3.5,4.8-6.2c0.2-0.9,0.8-2.2-0.4-2.6c-1-0.3-1.9,0.4-2.4,1.4c-3,1.3-4.1,4-6,7.4c3-1.8,3.6-4.5,6-5.4
	c0.2,2.1-1.9,3.2-2.3,5.1C55.9,115.2,55.6,115.6,55.3,116l-0.1,0.1L55.3,116z M38.7,56.8c-0.1,0-0.2,0-0.4,0
	C38.4,56.8,38.5,56.8,38.7,56.8c0.3-0.4,0.6-0.8,1-1.1c5.3-2.3,7.9-6.5,8.3-12.1c-1.9,4.6-6,7.7-8.2,12.2
	C39.4,56.1,39,56.5,38.7,56.8z M45.8,70.2c-0.3,0.7-0.6,1.4-0.9,2.1l-0.1,0.2l0.1-0.2C45.7,71.8,45.8,71,45.8,70.2
	c0.6,0,1-0.4,1.1-1c1.7-2.1,3.4-4.2,5.2-6.2l0.1,0.1c-0.5,4.9-5.1,7.9-6.2,12.5l-0.2,0.2l0.2-0.1c5-5.1,10.1-10.1,8.9-19.5
	c-4.7,4.2-6.6,8.5-7.8,13.1C46.6,69.6,46.2,69.9,45.8,70.2z M31.4,30.8c0.3,0,0.7,0,1-0.1c-0.3,2.1-0.6,4.2-0.9,6.4L31.5,37
	c2.2-2,3.3-4.7,3.8-7.5c0.2-0.7,0.4-1.9-0.5-2.3c-1.2-0.5-1.7,0.8-2.4,1.5C31.7,29.2,31.5,30,31.4,30.8c-0.6,0-0.9,0.4-1.1,1
	c-1.1,1.3-1.8,2.7-1.5,4.7c1.2-1.5,1.9-3,1.5-4.8C30.6,31.4,31,31.1,31.4,30.8z M44.9,167l0.2,0.1C45.1,167.1,44.8,166.9,44.9,167
	c-0.7-0.5-1.3-0.9-1.9-1.3c-2.4-3.2-6.6-4.5-8.6-8.2c4.7,1.8,8,6.1,13.1,7.8c-2.7-6.9-8-10.1-14-8.7c-1.3-0.8-2.5-1.2-1.4,1
	c2.2,4.4,5.5,7.6,10.6,8.4C43.4,166.4,44.1,166.7,44.9,167z M35.5,143.1c0.4,0.3,0.8,0.7,1.1,1c1.4,3.2,4.3,4.3,8,6.5
	c-2.2-3.4-5.3-3.9-6.1-6.6c3.3,0.4,5.1,3.9,8.4,4.2c0.1,0.1,0.2,0.2,0.3,0.2c-0.1-0.1-0.2-0.1-0.3-0.2c-1.7-4-5.1-5.6-9.4-6.8
	c0.5,1.2,0.9,1.9,1.2,2.6c-0.7,0-1.4,0-2.1,0.1c0-0.8-0.5-1-1.2-1c-0.1-0.4-0.1-0.9-0.2-1.3c-0.1,0-0.3,0.1-0.4,0.1
	C35,142.3,35.2,142.7,35.5,143.1z M54.3,131.7c1.4-1.3,2.9-2.7,4.3-4c0.7-0.1,1.4-0.2,2.1-0.3c-0.7,2.4-3.1,3.3-4.4,5.2l-0.1,0.2
	l0.2-0.2c3.8-1,6.3-3.4,7.3-7.2c0.1,0,0.3-0.1,0.4-0.1c-0.1-0.1-0.2-0.2-0.3-0.3c0,0.1-0.1,0.3-0.1,0.4c-1,0.7-2,1.4-3,2.1
	c-0.7-1.1-1.4-1.5-2.4-0.3C56.3,128.2,54.9,129.6,54.3,131.7c-0.1,0-0.2,0-0.3,0C54.1,131.7,54.2,131.7,54.3,131.7z M57.2,149.1
	c4.1,0,6.1-2.7,7.4-6.1c0.9-1.5,0.1-1.9-1.1-1.7c-3.3,0.8-6,2.4-8.1,6c3.6-1.1,5.2-4.1,8.3-4.4c-1.4,2.8-4.5,3.8-6.4,6.2l0,0.3
	L57.2,149.1z M19,14c-0.5,3.2,1,5.8,1.9,8.6C21.1,19.6,21.2,16.6,19,14c-0.7-0.2-1.5-1.7-1.8-0.1c-0.7,3.1-1.1,6.4,1.1,9.6
	C19,20.2,16.2,16.8,19,14z M43.9,116.9l0.1,0.2L43.9,116.9c-1.3-2.1-3.9-3.3-4.2-6.1c2.7,0.7,3.5,3.9,6.5,4.8c-1.2-3.5-3-6-6.5-6.8
	l-0.2-0.2c0,0,0.3,0.1,0.3,0.1c0,0.7,0,1.5,0,2.2c-1.6-0.1-1.4-2.4-3.9-3.5C38.1,112.1,39.6,115.7,43.9,116.9z M44.9,44.3
	c-3.9,2-6.4,5-7.2,9.4c-0.3,0.2-1.1,0.1-0.4,0.8c0.1-0.3,0.2-0.6,0.3-0.9C40.9,51.2,43.8,48.5,44.9,44.3c0.2-0.1,0.4-0.3,0.5-0.5
	c-0.1,0-0.3,0-0.4,0C45,44,44.9,44.2,44.9,44.3z M65.7,158.7c0.7-0.8,1.3-1.7,0.6-2.7c-0.3-0.5-1.3-0.2-1.6,0.6
	c-5.1,0.3-8.3,3.3-10.8,8.2c3.8-2.1,6.2-5.1,9.8-6.2c-1.3,3.6-5.7,4.2-7.4,8C60.8,165.1,63.7,162.5,65.7,158.7z M13.7,52.7l-0.2-0.2
	L13.7,52.7c3.2,6.5,9.6,5.4,15,6.4C23.7,57,18.6,55.2,13.7,52.7z M35.5,95.2c3.5,0.1,5.4,3.7,9.3,4.3c-2.8-5-5.9-8.5-11.9-8.3
	C33.9,92.8,34.7,94,35.5,95.2c-2.2,0.2-2.7-2.6-5.1-2.9c1.7,5.7,5.6,8,11.2,8.8C39.8,98.4,36.5,98,35.5,95.2z M52.3,97.5
	c2.9-3.8,5-7.8,5-12.8c0-1.1,0.6-2.7-0.9-3.1c-1.3-0.4-2.3,0.7-3,1.7c-2.8,4.2-4.4,8.9-4.4,14.1c-0.1,0.1-0.3,0.1-0.4,0.3
	c-0.1,0.1,0,0.2-0.1,0.4c0.1-0.2,0.3-0.5,0.4-0.7c3-3.3,3.3-8.1,6-12.3C55.5,89.9,52,93.3,52.3,97.5l-0.2,0L52.3,97.5z M27.3,71.2
	c3.3,1.6,6.5,3.2,9.8,4.9c-4.4-4.4-8.8-8.8-16.1-8.5c3.1,6.5,7.3,10.4,15.1,10.9c-3.1-3.1-7-3.8-9.1-6.9
	C27,71.6,27.3,71.2,27.3,71.2z M15.8,52c4.9,2.5,8.8,3.3,14.3,4.2C25.3,52.9,21.5,51.5,15.8,52z M23.2,40.1c-2.4-3.7-5-4.8-9-5.1
	C16.9,37.7,19.4,38.8,23.2,40.1z"/>
</svg>
