<?xml version="1.0" encoding="utf-8"?>
<!-- Generator: Adobe Illustrator 25.3.0, SVG Export Plug-In . SVG Version: 6.00 Build 0)  -->
<svg version="1.1" id="Layer_1" xmlns="http://www.w3.org/2000/svg" xmlns:xlink="http://www.w3.org/1999/xlink" x="0px" y="0px"
	 viewBox="0 0 64 230.2" style="enable-background:new 0 0 64 230.2;" xml:space="preserve">
<path d="M39.8,100.3c3.2,1.1,6-1.2,9-1.4c1.7-0.1,3.5-0.5,5.3-0.6c2.7-0.3,3.2,1.1,2.9,3.5c-0.7,4.2-4,6.4-6.4,9.2
	c-3.9,1.1-7.8,3.3-12,2.1c-4-1.1-4.4,0.3-4.5,3.5c-0.1,1.5-0.5,3.1,0.2,5c4.2-2.8,8.5-3.8,13.1-4.4c2.4-0.4,5.3,0.2,7.3-2
	c1.2,0.8,1.8,1.5,1.4,3.4c-1.7,8-8.8,12.8-18.3,12.1c-4.6-0.4-4.6-0.4-4.7,4.4c0,1.7-0.4,3.5,0.4,5.8c5.9-5.3,13.1-5.7,20.3-6.2
	c4.3-0.3,5.1,0.6,3.4,4.7c-3.2,7.6-9.8,9.9-17.3,11c-2.5,0.4-5.9-1.4-7.3,1c-1.1,1.9-0.4,4.9-0.5,7.3c0,1.7,0,3.5,0,6
	c5.7-6.7,12.7-9.4,20.4-10.3c4.6-0.5,5.2,0.3,4.1,4.8c-1.9,7.3-6.9,11.1-14,12.5c-2.6,0.5-5.2,0.9-7.8,0.9c-2.6,0-3.4,1-3.3,3.4
	c0.1,3.6,0,7.2,0,11.4c3.8-3.1,6.7-6.5,10.6-8.8c4.6-2.8,9.4-4.6,14.7-5.5c2.5-0.4,3.5,0.6,2.6,3c-0.9,2.3-1.7,4.7-2.8,6.9
	c-4.3,9.1-12,13.4-22,11.7c-2.8-0.5-3.4,0.1-3.3,2.7c0.2,4.9-0.3,9.9,0.8,15.3c4.9-5,9.4-9.7,14.9-13.3c4.3-2.8,9.1-4,14-5.1
	c2.6-0.6,3.3,1,2.7,3.2c-1.8,5.9-4,11.6-8.4,16.1c-4,4.1-8.9,5.8-14.7,5.7c-7.7-0.1-7.7,0.1-6.7,7.5c0,0.3,0.1,0.5,0.2,0.8
	c0.2,1.2,0.3,2.3-1.3,2.5c-1.3,0.2-1.7-0.8-1.9-1.8c-0.3-1.5-0.6-3-0.8-4.5c-0.4-2.5-1.2-3.7-4.2-3.2c-6.3,0.8-12.4-0.2-17.9-3.9
	c-3-2-5.2-4.6-7-7.5c-1.9-3.1-1.4-4.4,2.1-4.7c8.8-1,17.2-0.1,23.9,6.5c0.3,0.3,0.6,0.4,1.1,0.7c0-5.3,0-10.4,0-15.6
	c0-2.5-2-1.8-3.4-1.8c-6.6-0.2-12.9-1.5-18.4-5.5c-1.4-1-2.6-2-3.7-3.3c-3.1-3.5-2.8-4.6,1.8-6.1c7-2.3,13.4-0.9,19.3,3.3
	c1.4,1,2.8,2.1,5.1,3.8c0-4.7,0-8.6,0-12.5c0-1-0.6-1.4-1.5-1.6c-1-0.2-1.9-0.6-2.8-0.6c-9.1,0-15.6-5-21.3-11.3
	c-2.4-2.7-2.1-3.6,1.5-4.7c6.8-2.1,12.5,0.4,18,4c2,1.3,3.8,3.1,6.4,5.3c0-4.5,0-8.3,0-12.1c0-2.4-1.6-2.1-3.2-2.1
	c-6,0.1-11.6-1.1-16.4-4.8c-1.9-1.4-3.5-3.1-4.7-5.2c-1.9-3.5-1.2-4.9,2.8-4.9c6.8,0,13.1,2,18.8,5.7c0.8,0.5,1.4,1.4,2.9,1.2
	c0.8-3.8,0.4-7.8,0.6-11.8c0.1-2.1-1.6-1.4-2.7-1.4c-7,0.1-13-2.3-18-7.2c-1.3-1.3-3.5-2.7-2.8-4.7c0.7-2.2,3.3-1.5,5.2-1.5
	c6.8-0.1,13.1,1.7,18.5,5.8c0.3-0.3,0.5-0.4,0.5-0.5c0.3-3.2,1.6-6.9,0.4-9.4c-1.4-2.8-5.5-0.5-8.3-1c-4.8-0.9-9.1-2.4-11.7-6.9
	c-0.7-1.1-2.1-2.2-1.1-3.7c0.8-1.3,2.5-1.1,3.8-1c4.6,0.1,9.1,0.8,13.2,3.1c1.4,0.8,2.9,1.5,4.6,2.4c1.4-3.3,0.9-6.7,1.7-10.6
	c-4.3,1.2-8,0.7-11.5-1c-1.2-0.6-2.5-1.3-3.6-2.1c-2.6-2.1-4.5-7-3.1-8.4c2.3-2.3,5.2-1.5,8.1-0.8c2.9,0.7,5.5,1.8,8,3.4
	c2.5,1.7,3.1,0.8,3-1.8c0-1.1,0.1-2.2,0.4-3.3c0.7-2.3-0.2-2.9-2.4-2.6c-6.1,0.6-10.8-1.8-14-7c-0.9-1.4-2.2-2.9-1.1-4.6
	c1.1-1.7,3-1,4.6-0.9c5,0.5,9,3.3,12.9,5.2c0.9,0.1,1-0.1,1-0.5c0.3-2.9,1.8-6.2,0.8-8.5c-1.1-2.5-5-0.9-7.6-1.7
	c-4-1.2-7.6-2.6-9.1-7c-0.8-2.5,0-3.9,2.6-3.6c4.4,0.4,8.8,1,12.8,3.1c1.9,1,3.1,1.3,3.1-1.5c0-1.4,0.9-2.6,0.4-4.1
	c-6.5,0.5-11-2.9-14.7-7.6c-0.6-0.8-1.2-1.7-0.6-2.6c0.6-1,1.6-1,2.6-0.9c4.7,0.3,9.4,0.6,13.4,3.2c0.9-1.2,1-2.3,1.3-3.3
	c0.8-2.9,0.2-4.2-3.2-4.3c-3.9-0.1-7.7-1.1-10.2-4.6c-2-2.9-1.5-3.9,1.8-4.8c4.7-1.2,9.1-0.7,12.7,2.9c1.5-2.8,1.9-5.5,1-8
	c-2-5.4,2.8-12.6,7.3-16.1c2-1.5,3,0.3,3.7,1.9c2.3,5.3,1.1,10-2.4,14.3c-1.1,1.4-2.5,2.6-3.9,3.7c-1.3,1.1-2,2.2-1.4,4.2
	c3.3-0.8,6.5-1.5,9.8-1.4c2.7,0.1,3.4,1.2,2.6,3.7c-1.2,3.8-4.5,5.9-9.5,5.9c-4.8,0-4.8,0-5.2,5.2c3.7-0.7,7.2-1.9,11-1.9
	c4.4,0,5,0.8,3.4,4.8c-2.2,5.5-5.5,7.5-11.7,7c-4.8-0.4-4.8-0.4-4.5,5.2c3.8-2.2,7.7-3.4,12-2.9c4.1,0.5,4.7,1.8,2.6,5.4
	c-2.6,4.5-7,5.7-11.7,5.8c-4.8,0-4.8-0.1-5.4,4.4c-0.1,0.9-0.1,1.9-0.2,3.5c4.6-2.7,9.2-3.9,14.2-3.4c3.6,0.4,4.1,1,3.2,4.5
	c-1.3,5.1-7.3,8.6-13.6,7.8c-0.8-0.1-1.7-0.2-2.4-0.5c-1.8-0.6-2.6,0.2-2.7,1.8c-0.2,1.9-0.3,3.9-0.4,6.1c3.4-0.8,6.1-2.8,9.4-3.4
	c2.5-0.5,4.9-0.8,7.4-0.7c3.3,0.1,3.9,1.1,2.9,4.2c-2.2,6.8-10.1,10.8-18.4,9.2c-1.7-0.3-3.3-1.3-2.2,1.7c-1.3,2.1-0.8,4.3-0.5,7
	C37.5,102.6,39.4,102.5,39.8,100.3z M47.3,107.7c2.7,0.3,4-1.7,5.2-3.4c1.1-1.6,0.6-2.7-1.5-2.4c-2.6,0.3-5.2,0.4-7.2,2.5
	c-3.6-0.1-6,1.9-8.2,4.8C40,109.9,43.9,110.7,47.3,107.7z M29.7,89.5c-3.4-2.4-6.7-4.8-11.2-4c2.2,5.5,6.6,7.5,12,5.6
	c0.4,0,0.8,0,1.2,0C31.5,89.8,30.8,89.4,29.7,89.5z M34.4,215.9c4.7,0.1,8.4,0.5,12.2-0.6c6.9-2.1,9.6-7.9,12.3-13.7
	c0.4-0.9,1.2-1.8,0.4-2.7c-0.7-0.8-1.8-0.3-2.7,0C47.7,201.9,40.7,207.5,34.4,215.9z M33.5,191.1c11.6,2,18.8-2.9,21.7-14.5
	C46.2,179,39.2,183.5,33.5,191.1z M27.5,217c-4.8-7.8-14.9-11.4-22.9-8.5C7.9,215.7,19.8,219.1,27.5,217z M32.8,169.2
	c2.7,0,4.7,0.2,6.5,0c5.7-0.7,10.4-3.3,13.4-8.5c0.4-0.7,0.6-1.7,0.4-2.4c-0.3-1-1.4-0.5-2.2-0.4C43.4,158.7,37.8,162.7,32.8,169.2z
	 M4.9,182.9c5.5,6.1,15.3,9.3,21.6,7.2C21.7,183.5,12.4,179.3,4.9,182.9z M33,146.5c10.7,1.5,18.8-1.8,20.4-8.4
	C45.6,138.1,38.3,139.4,33,146.5z M6.4,158.8c5.1,7.9,12.5,9.3,21.1,10.4C21.7,162.3,15.8,158,6.4,158.8z M8,139.4
	c3.7,6.4,12.5,9.5,19.8,7.5C22.1,142.4,15.8,139.6,8,139.4z M52.1,119.8c-6.6,1.4-12.8,1.4-17.9,6.3
	C43.1,128.5,48.9,126.5,52.1,119.8z M52.9,85.2c-6-0.1-11.1,1.5-15.5,5.4C44,93.8,50.1,91.7,52.9,85.2z M11.3,119.6
	c4.5,5.5,11.5,7.8,17.3,5.9C23.6,121.3,18.1,119.4,11.3,119.6z M39.1,73.8c7.7,2.3,12.2,0.8,13.6-4.2C47.6,68.7,43.3,70.1,39.1,73.8
	z M45.9,16.9c5.2-4,6.3-7,4.7-12C46.1,8.4,45,11.1,45.9,16.9z M42.9,43.1c5.7,3.4,8.9,2.4,11.4-3.4C50.2,39.4,46.4,40.1,42.9,43.1z
	 M27.5,107.5c-3.8-3.1-8.3-4.1-13.5-4.4C17.8,107.9,22.4,108.5,27.5,107.5z M33.2,74.1c-4-2.5-7.5-5.1-12.3-5.1
	C23.8,74,27.3,75.5,33.2,74.1z M42.3,57.6c4.7,1.5,8.1,0.3,10.8-3.7C48.8,53.2,45.4,54.7,42.3,57.6z M23.4,53.2
	c3.1,4,7.6,3.6,11.9,3.9C31.8,54.5,27.9,53.1,23.4,53.2z M38.3,42.8c-3.1-3.2-6.6-3.2-10.6-4C31,41.8,33.3,44.7,38.3,42.8z
	 M39.9,27.8c-2.8-3-5.5-3.9-9.5-2.7C33.2,27.9,36.1,28.3,39.9,27.8z M54.8,26.7c-4.3-0.2-5.5,0.1-8.3,2.5
	C51.7,29.8,51.8,29.8,54.8,26.7z"/>
</svg>
