<?xml version="1.0" encoding="utf-8"?>
<!-- Generator: Adobe Illustrator 25.3.0, SVG Export Plug-In . SVG Version: 6.00 Build 0)  -->
<svg version="1.1" id="Layer_1" xmlns="http://www.w3.org/2000/svg" xmlns:xlink="http://www.w3.org/1999/xlink" x="0px" y="0px"
	 viewBox="0 0 138.6 256.1" style="enable-background:new 0 0 138.6 256.1;" xml:space="preserve">
<g>
	<path d="M45.2,90.2c-1.3-2.1-3.7-4.1-1.5-7.2c0.6-0.9-0.2-2.2-0.6-3.2c-0.6-1.5-1.4-2.9-2.2-4.5c3.5-0.8,8.6,1,9-4
		c0.4-5.2-5.1-4.1-8.7-5.6c1.9-1.7,3.5-3.5,4.5-5.5c0.7-1.4,1.1-2.8,0-4.1c-1.1-1.3-2.6-1.3-4-0.8c-0.9,0.3-1.8,0.9-2.7,1.3
		c-0.9,0.4-1.6,1.6-2.7,1.1c-1.1-0.5-0.6-1.8-0.5-2.8c0.1-1.3-0.2-2.5-0.7-3.6c-0.6-1.5-1.4-3-3.2-3c-2,0.1-3.3,1.2-4,3.1
		c-0.5,1.2,0,2.7-1.2,3.7c-2.5-1.4-3.9-5.1-7.3-3.9c-2.9,1-1.7,3.9-1.7,6.2c-2.5-0.2-5.2-2.3-6.9,0.7c-2,3.4,0.9,5.3,3.1,7.6
		c-1.6,1.1-4.1,1.5-3.8,3.9c0.6,3.9,4.5,3.4,7.4,4.9c-2,2.7-4.4,5.5-2,8.8c1.9,2.6,4.3-0.1,6.6-0.5c0.4,2.9,1.2,6.1,4.5,6.3
		c3.9,0.2,4-4.1,5.9-6.8c1.5,2.6,3.5,4.5,6.2,4.9c1.6,0.2,2.4,0.9,3.2,2c5.4,7.7,9,16.4,12,25.2c9.5,27.5,11.1,55.9,9.8,84.6
		c-0.1,2.8-0.4,5.7-0.6,8.5c-0.2,0-0.4,0-0.7,0c-0.3-2.5-0.6-5-0.9-7.5c-1.8-14.1-4-28.1-9.1-41.4c-2.1-5.4-4.6-10.5-9-14.5
		c-5.2-4.7-10.4-9.3-15.7-13.9c-0.9-0.7-1.7-2.3-3.1-1.3c-1,0.8-0.2,2.1,0.1,3.1c3.7,11.6,7.2,23.2,11.2,34.7
		c6,17.4,11,35.4,20.3,51.4c4.5,7.8,4.6,14.6,2.8,22.4c-0.2,0.9-0.4,1.8-0.5,2.7c-0.1,1-1.1,2.5,0.5,2.9c1.8,0.4,1.6-1.5,1.8-2.6
		c6.3-34.8,8.2-69.7,2-104.7C59.6,121.7,54.7,105.1,45.2,90.2z M46,69.5c0.8,0.3,1.6,0.6,1.6,1.5c0,0.9-0.9,1.3-1.6,1.5
		c-3.1,0.7-6,0.1-8.8-1.2c-0.6-0.3-1.3-0.6-1.2-1.4c0.1-1.1,1-1.1,1.8-1.1c0.9-0.1,1.8,0,2.7,0C42.2,68.7,44.1,68.8,46,69.5z
		 M34.5,63.7c2.2-2.2,4.3-4.6,7.2-6c1-0.5,2.1-0.7,2.7,0.7c-0.3,0.5-0.4,1-0.7,1.3c-1.9,2.5-4.3,4.5-7.1,6c-0.7,0.4-1.5,0.4-2.2-0.2
		C33.7,64.8,34,64.1,34.5,63.7z M21.7,54c1.9,0.5,5.9,6.2,5.9,8.2c0,0.5,0.1,1.2-0.5,1.5c-0.6,0.3-1.1,0-1.5-0.4
		c-2.4-2.1-4.3-4.6-5.3-7.6C19.8,54.4,20.3,53.7,21.7,54z M12.9,60c0.6-1.3,1.8-0.7,2.6-0.3c3,1.5,6.2,3,8.9,6.4
		c-4.3-0.4-7.5-1.4-10.3-3.5C13.2,61.9,12.4,61.1,12.9,60z M16.7,71.5c-1.4-0.4-3.8-0.2-3.7-1.9c0.1-1.6,2.5-1.3,4-1.6
		c0.4-0.1,0.9-0.1,1.6-0.2c1.7,0.5,5.3-0.4,5.2,2.2c-0.1,2.8-3.4,1.6-5.5,1.7C17.8,71.8,17.2,71.7,16.7,71.5z M18.5,81.5
		c-0.4,0.3-0.9,0.3-1.2-0.1c-0.5-0.7-0.4-1.5,0-2.2c1.6-3.3,4.7-4.4,8.3-5.9C24.5,77.9,21.2,79.5,18.5,81.5z M30,77.8
		c0.3,2.6-0.9,4.8-1.8,7.1c-0.3,0.8-0.9,1.6-2,1.4c-1.1-0.2-1.5-1-1.5-1.9C24.6,80.8,26.5,78,28,75c0.2-0.5,0.9-0.7,1.5-0.3
		C30.6,75.6,29.9,76.8,30,77.8z M31.8,62.6c-0.2,0.5-0.6,1.1-1.2,0.9c-0.6-0.1-0.8-0.7-0.8-1.3c-0.2-1.5-0.3-3.1-0.5-5.4
		c0.1-1,0.3-2.6,0.6-4.2c0.1-0.8,0.5-1.6,1.4-1.6c0.9,0,1.4,0.8,1.6,1.5C33.5,56,33.3,59.4,31.8,62.6z M40.8,83.8
		c-1.3,1.2-3.1,1.1-4.3-0.1c-2.6-2.6-3.2-6.1-3.9-9.5c-0.2-0.8,0.5-1.2,1.5-1.2c0.5,0.3,1.2,0.7,1.8,1.2c2.1,1.6,3.6,3.7,4.9,5.9
		C41.5,81.2,42.1,82.7,40.8,83.8z M32.2,146.5c11.6,22.9,20.6,46.9,27,71.8C54.3,212.2,35.9,163.2,32.2,146.5z M30.8,136.9
		c8,6.3,15.7,12.4,19.4,22.6c5.7,16.1,8.1,32.8,9.6,49.8C52.3,184.2,42.3,160.3,30.8,136.9z"/>
	<path d="M125.5,108.2c-1.5-0.3-3-0.4-4.9-0.6c0.9-1.1,1.7-2,2.2-2.9c0.6-1,1.1-2,1.3-3.1c0.7-3.4-1.8-6-4.7-4.9
		c-3.1,1.3-3.3,0.1-3-2.5c0.2-2-0.7-3.6-2.6-4.3c-1.7-0.7-3,0.3-4.1,1.5c-0.4,0.5-0.9,1-1.7,1.8c-1.2-2.6-2.3-4.9-5-4.3
		c-5.1,1.2-3.6,5.9-4.4,9.3c-4.6-2-8.3-2-9.4,0.4c-1.9,4.3,2.4,5.7,4.5,8.4c-2.4,1.2-5.6,2.4-4,5.8c2.1,4.6,6.4,2.9,10.1,2.8
		c0.1,0.3,0.3,0.6,0.2,0.7c-0.2,0.9-0.5,1.7-0.8,2.6c-9,24.8-16,50.1-20.6,76.1c-2.7,15.5-4.5,31.2-4.2,47c0,1.4-0.8,3.9,1.1,4
		c2.2,0.1,1-2.4,1.1-3.8c0.2-1.2-0.1-2.4,1.2-3.2c6.3-3.8,10.2-9.8,13.4-16.1c12.3-23.9,18.8-49.8,24.7-75.8
		c0.2-0.9,0.5-1.9-0.6-2.4c-0.9-0.4-1.4,0.4-1.9,1c-7.5,9.3-15.5,18-20,29.4c-4.8,12.4-8.9,25-12.5,37.8c-0.6,2.1-1.1,4.1-1.7,6.2
		c-0.6,2-1.1,4.1-1.7,6.1c2.5-35.6,11.3-69.7,23.1-103.5c3.9,5,4.3,5,8,0.7c0.9-1.1,1.3-0.8,2,0.1c0.5,0.7,1.1,1.4,1.8,2
		c1.7,1.5,3.7,2.4,5.7,0.6c2-1.7,2-3.9,0.9-6.1c-0.5-1-1.7-1.5-1.7-2.8c1.4-0.7,2.9-0.5,4.3-0.8c1.4-0.3,2.8-0.7,4.2-1.1
		c1.4-0.5,2.8-1.2,2.8-3C128.6,109.3,127.1,108.6,125.5,108.2z M81.5,232.6c0,0-0.3-0.1-0.5-0.2c9.9-19.7,17.5-40.5,26-60.7
		C100.7,192.9,95.8,214.7,81.5,232.6z M98.6,169.5c2.8-6,7.2-10.8,11.6-15.6c-9.4,26.1-19.1,52-31.4,76.8
		C84.3,209.9,89.4,189,98.6,169.5z M118.7,99.4c1.5-0.8,2.9-0.7,3,1.2c0,3.2-5.9,8.3-8.7,7.8c-1.5-0.3-1.9-1.2-1-2.5
		C113.8,103.3,115.9,100.9,118.7,99.4z M92.1,102c-0.5-0.6-1.1-1.2-0.6-2.1c0.4-0.8,1.3-0.8,2-0.8c2.4,0,6.5,3.5,7,6
		c0.4,1.8-0.9,1.5-1.8,1.2C96.1,105.5,93.9,104,92.1,102z M94.3,113.6c-1.1-0.1-2.4-0.5-2.4-1.9c0-1.3,1.1-1.6,2.1-1.8
		c2.8-0.7,5.4-1,6.7,2.6C98.7,113.5,96.5,113.8,94.3,113.6z M101.6,93.3c0.2-1,1-1.8,2.2-1.5c1.1,0.2,1.3,1,1.4,2
		c0.2,3.6-0.2,7.1-1.8,11.3C100.8,100.7,100.9,97,101.6,93.3z M107.9,116.3c-0.4,2.2-0.5,5.4-2.8,6c-1.8,0.5-2-2.3-2.1-3.8
		c-0.1-1.7,0.1-3.5,1.9-4.5C106.1,114.8,108.2,114.3,107.9,116.3z M110.1,103.9c-0.8,0.8-1.5,0.8-2.4,0.5c-1.2-0.4-1-1.4-0.7-2.2
		c0.8-2.7,1.9-5.3,3.5-7.6c0.6-0.9,1.1-2.3,2.5-1.9c1.3,0.4,1,1.8,1.2,3.2C113.8,98.8,112.4,101.5,110.1,103.9z M114.8,123.1
		c-0.8-0.4-1.4-1.1-1.9-1.8c-1-1.4-2.5-2.7-2.1-4.7c0.2-0.9,1.1-0.6,1.7-0.2c2.1,1.2,4.3,2.3,4.9,4.9
		C117.1,123,116.3,123.8,114.8,123.1z M114.6,113.5c-0.5,0-1.2-0.2-1.1-0.9c0-0.4,0.4-0.9,0.7-1c3.6-0.8,7.3-1.8,11.1-0.4
		C122.1,113.4,118.4,113.3,114.6,113.5z"/>
	<path d="M77.8,33.6c2.6,2.2,4.4,4.9,7.6,5.8c2.9,0.9,4.7-0.3,4.7-3.3c0-1.6-0.4-3.2-0.7-5.2c1.6,0.6,2.9,1.1,4.1,1.4
		c1.4,0.4,2.9,0.8,4.1-0.5c1.3-1.4,0.9-3,0.2-4.4c-0.9-1.7-2-3.3-3.1-4.9c1.9-1.3,5.2-0.8,5.2-3.8c-0.1-2.9-3.1-3.5-5.2-4.7
		c-0.2-0.1-0.4-0.2-0.6-0.2c-7.7-2.5-15.6-0.3-23.3-1c-2-0.2-4.1,0.3-6.2-0.3c-5.1-1.4-10.2-2.8-15.6-2.6c-1.9,0.1-3.7,0.5-4.2,2.7
		c-0.5,2.1,0,4,1.8,5.4c1.6,1.2,3.5,1.9,5.8,2.6c-1.3,0.9-2.4,1.5-3.2,2.3c-1.5,1.5-3.2,3.1-2.4,5.5c0.8,2.4,2.8,3.4,5.2,3.7
		c0.6,0.1,1.1,0.1,1.7,0c2.1-0.5,3.4-0.3,3.2,2.4c-0.2,2.1,1.3,3.2,3.3,3.6c1.8,0.3,3.5,0,4.8-1.2c2.9-2.8,3-0.7,3.1,1.6
		c0.1,2.3,0.1,4.7,1.8,6.4c1.4,1.4,1.5,2.9,1.5,4.6c-0.4,15.1-0.7,30.3-1,45.4c-0.9,49-1.8,98-2.7,147.1c0,0.9,0,1.8,0,2.7
		c0,0.6,0.3,1.1,0.9,1.2c0.9,0.1,1.2-0.5,1.3-1.2c0.1-1,0.1-2,0.2-3c0.3-15.6,0.6-31.3,0.9-46.9c0.7-36.6,1.2-73.3,2-109.9
		c0.2-11.6,0.6-23.1,0.5-34.7c0-1.4-0.3-3.3,0.5-4.3C76.6,42.5,76.9,38.1,77.8,33.6z M48.9,17.1c-1.5-0.4-2.5-1.6-2.3-3.3
		c0.2-1.8,1.8-1.8,3.1-1.8c5,0.2,9.8,1.3,14.6,3.3C59.4,18.1,54.2,18.6,48.9,17.1z M53.7,30.2c-0.3,0.1-0.7,0.1-1,0.1
		c-1.7-0.1-3.2-0.5-3.9-2.1c-0.8-1.7,1-2.3,1.9-3.1c3.1-2.7,6.9-4.1,10.7-5.5c0.7-0.3,1.9-0.8,1.8,0.8
		C62.9,23.2,56.7,29.6,53.7,30.2z M68.3,23.2c0.1,4-1,7.6-3.4,10.7c-0.7,0.9-1.5,1.7-2.6,2.1c-1.1,0.4-2.3,0.5-3.2-0.4
		c-0.8-0.8-0.7-1.9-0.3-2.9c1.7-3.9,3.8-7.7,6.6-10.9c0.5-0.6,1.2-1.1,2.1-0.8C68.8,21.4,68.4,22.3,68.3,23.2z M95.1,27.1
		c0.7,0.8,1.5,2,0.7,3c-0.9,1.2-2.1,0.2-3.1-0.2c-5-2-8.8-5.3-11-10.9C87.3,20.7,91.7,23.1,95.1,27.1z M96.9,18.6
		c-6,3.4-10.4,0-15.6-3C87.3,14.9,92.4,14.8,96.9,18.6z M77.1,22.9c0.1-0.7,0.1-1.3,0.9-1.6c0.7-0.3,1.4-0.3,1.8,0.3
		c3.1,4,6.6,7.7,7.9,12.8c0.1,0.3,0.1,0.7,0.2,1c0,2.1-1.1,2.8-2.7,1.5C80.6,33.4,76.2,29.7,77.1,22.9z M71.4,43.5
		c-1.2-0.2-1.3-1.5-1.3-2.5c-0.1-2.5,0-4.9,0-7.4c0,0-0.1,0-0.1,0c0.3-3.2,0.6-6.5,0.8-9.7c0.1-1.3,0.4-2.4,2.1-2.3
		c1.6,0.1,1.7,1,1.9,2.2c1,6,0.7,11.8-1.3,17.6C73.2,42.4,72.9,43.8,71.4,43.5z"/>
</g>
</svg>
