<?xml version="1.0" encoding="utf-8"?>
<!-- Generator: Adobe Illustrator 25.3.0, SVG Export Plug-In . SVG Version: 6.00 Build 0)  -->
<svg version="1.1" id="Layer_1" xmlns="http://www.w3.org/2000/svg" xmlns:xlink="http://www.w3.org/1999/xlink" x="0px" y="0px"
	 viewBox="0 0 180.7 249.3" style="enable-background:new 0 0 180.7 249.3;" xml:space="preserve">
<path d="M89.5,223.8c3.1-6.5,6.1-12.9,9.6-19.1c2.6-4.6,5.5-9.1,8.7-13.4c1.1-1.5,1.4-2.9,0.6-4.6c-2.2-5.1-2.6-10.5-1.6-15.9
	c0.3-1.4-0.1-2.5-1-3.6c-3.5-4-3.8-8.4-1.5-13.1c0.4-0.7,0.9-1.4,1-2.1c0.1-4.6,2.9-8,5.2-11.7c2.8-4.7,6.7-7.7,11.2-10.3
	c1.7-1,2.6-0.5,3,1.3c0.7,3,0.7,5.9-0.8,8.7c-1.3,2.5-1.3,5.2-2,7.8c-2,7.8-3.5,16.1-11.6,20.4c-0.7,0.4-1.4,0.8-1.6,1.6
	c-1.2,5.9-1,11.7,1.7,17.4c1.7-0.9,2.4-2.5,3.5-3.7c3.5-4,6.9-8.1,11.1-11.5c1-0.8,1.5-1.8,1.5-3.1c0.1-4.6,1.8-8.1,6.3-9.9
	c1.4-0.6,2.6-1.5,3.4-2.8c2.9-4.8,7.8-6.9,12.8-8.5c5.2-1.7,10.9-1.5,16.4-1.7c1.7,0,2.2,0.6,1.6,2.3c-1.6,4.4-4.3,8-8.1,10.7
	c-2.2,1.5-4.2,3.1-5.5,5.5c-0.1,0.2-0.2,0.3-0.3,0.4c-4.1,2.3-7.4,5.7-11.3,8.3c-3.5,2.3-7.7,2-11.6,0.2c-2-1-3.5-0.6-5.2,0.8
	c-4.3,3.9-8,8.3-11.7,12.7c-0.8,1-1.2,1.8,0.6,2.2c4.1,0.9,8.1,1.9,12.4,2c2.1,0,3.8-0.6,4.7-2.6c1.6-3.3,4.3-5.2,7.7-6.2
	c2.6-0.8,5-2.1,7.1-3.8c2-1.6,4.1-2.8,6.7-2.7c5.1,0.2,10.1-0.9,15-2.2c1-0.3,2.2-0.9,2.9,0.1c0.8,1,0.3,2.2-0.1,3.2
	c-0.8,1.7-1.6,3.3-3,4.6c-3.5,3.5-7.7,6.3-11.2,9.8c-1.7,1.7-4.3,1.7-6.7,1.5c-2.3-0.2-4.3,0.4-6.2,1.7c-3.8,2.5-8,2.3-11.6-0.6
	c-1.2-1-2.3-1.3-3.8-1.2c-4.9,0.3-9.6-0.8-14.2-2c-1.9-0.5-3,0-4.2,1.5c-8.8,12.2-15.6,25.4-20.2,39.7c-0.6,1.8-1.1,3.7-1.3,5.6
	c-0.1,0.8,0,2.1-1.2,1.9c-1-0.2-0.7-1.4-0.6-2.3c0.2-1,0.3-2.1,0.5-3.1c0.3-1.8,0.2-3.4-0.6-5.1c-0.5-1-1.5-2.5,0.9-2.8
	c0.9-0.1,0.8-1,0.9-1.7c1.3-10.2,1.9-20.5,2.4-30.8c0-0.7-0.1-1.5-0.4-2c-0.9-1.5-2.6-2.8,0.5-3.9c0.3-0.1,0.3-1.3,0.4-2
	c1.1-8.3-1.8-15.4-6.4-22.1c-2.7-3.9-5.8-7.7-8.9-11.3c-2.4-2.7-6.2-2.4-7.9,0.7c-1.3,2.4-3.2,3.6-6,3.3c-1.8-0.2-3.2,0.3-4.5,1.5
	c-2,1.9-4.4,2.4-7.1,1.8c-3-0.7-6-0.9-9-1.1c-5.3-0.3-9.9-2.7-13.6-6.5c-1.1-1.2-0.9-2,0.2-3.1c3.8-3.5,8.5-3.2,13.1-2.8
	c2.3,0.2,4.5,0.8,6.9-0.4c1.7-0.9,3.6,0.2,5.3,0.8c1.9,0.7,3.6,0.8,5.5-0.3c3-1.8,5.5,0.1,8,1.5c1.3,0.7,2.5,1.5,4.1,1.3
	c0.5-0.1,1.2,0.2,1.3-0.5c0.1-0.3-0.3-0.8-0.5-1.1c-5.7-6.5-11.7-12.7-17.8-18.8c-1-1-1.9-0.7-3.1-0.3c-6.5,2.6-11.6,1-15.7-4.6
	c-0.9-1.2-2-1.9-3.3-2.5c-4.2-1.8-7.5-4.5-9.2-8.8c-0.6-1.5-1.9-2.3-3-3.2c-4.2-3.5-7.1-7.8-8.8-13c-0.7-2.1-0.3-3.2,2.2-3.9
	c6.6-1.8,12.4-1.1,17.7,3.4c0.5,0.4,1.2,0.9,1.8,1c4.4,0.2,7.2,2.9,9.7,6c2.3,2.9,5.9,4.4,7.6,8.1c1.9,4.2,3.5,8.4,3.8,13
	c0.1,2.2,1.1,3.9,2.6,5.3c6,5.5,11.3,11.6,16.8,17.6c0.6,0.6,1,1.8,1.9,1.5c0.9-0.3,0.5-1.5,0.7-2.3c0.7-2.9-0.2-4.5-3.2-5.7
	c-4.1-1.7-6.5-6.5-5.8-11.1c0.4-2.6-0.1-4.8-1.9-6.8c-2.5-2.7-2.8-5.8-1.7-9.2c0.4-1.3,0.9-2.7,0.5-4.1c-1.3-4.4,0.9-8.2,2.2-12.1
	c0.5-1.5,1.5-1.3,2.5-0.7c4.4,2.7,8,6.2,9.3,11.5c0.3,1.3,0.9,2.4,1.9,3.4c2.3,2.4,3.3,5.3,2.6,8.6c-0.7,3-0.6,5.8,0.7,8.6
	c1.3,2.8,1.2,5.8,0.3,8.7c-0.5,1.6-1.3,3.3-3,3.8c-2.4,0.7-2.3,2.4-2.8,4.3c-1.1,4.3,0.5,7.4,3.3,10.5c4.4,4.7,7.9,10.2,10.5,16.2
	c1-0.8,0.8-1.8,0.8-2.6c0.4-10.1,0.8-20.2,0.5-30.4c-0.1-1.9-0.1-3.7-1.7-5c-0.4-0.4-0.8-1-1-1.5c-0.4-1-1.5-2.1-0.4-3.1
	c0.9-0.8,1.5,0.9,2.6,0.9c0.5-4.6-0.1-9.1-0.4-13.5c-0.5-7.1-0.4-14.3-0.8-21.4c-0.1-1.7-0.4-3.3-0.6-4.9c-0.2-1.5-0.7-1.7-2.2-1.4
	c-4.7,1-9.3,2-13.8,3.5c-5.8,1.9-10.6-1-14.3-5.3c-2.1-2.4-4.2-3.9-7.5-4c-6.5-0.2-9.5-7.2-9.3-12.2c0.1-2-0.4-3.2-2.4-3.6
	c-6.7-1.4-11.3-10.1-7.2-18c1.1-2,2.4-3.9,3.7-5.7c1.2-1.7,1.5-3.5,1-5.5c-2.3-9.1,3.1-16.6,12.7-17.7c1.9-0.2,3.8-0.4,5.7-0.5
	c2.5-0.1,4.8-0.7,6.6-2.6c1.3-1.3,3-1.9,4.8-1.5c1.6,0.3,2.6-0.2,3.6-1.4c4.2-5.1,8.9-5.6,14-1.3c2.2,1.8,4.5,2.5,7.2,2.3
	c7.7-0.4,11.4,2.4,13.2,10c0.2,1.1,0.8,1.5,1.7,1.6c5.1,0.4,7.4,3.4,7.6,8.3c0.1,1.2,0.7,1.9,1.7,2.4c3.2,1.7,5.2,4.6,6.9,7.7
	c1.2,2.3,1.2,4.7,0.2,7.1c-1.5,3.5-1.5,7-0.7,10.8c1.5,6.6-0.5,9.5-7.1,10.9c-3.5,0.7-6.3,2.4-8.5,5.1c-2.9,3.6-6.8,5.7-11.4,6.2
	c-1.3,0.1-2.5,0.8-3.7,1.3c-1.4,0.6-1.7,1.5-1.5,2.9c0.5,2.9,0.9,5.9,0.9,8.8c0,1-0.5,2.3,1.7,2.2c1.2-0.1,1,2.4,0.4,3.3
	c-2.9,4.6-1.1,9.5-1.1,14.2c0.1,6.1,0.5,12.1,0.9,18.2c0,0.6-0.1,1.2,0.5,1.8c2.9-3.3,5.8-6.7,8.7-10c0.6-0.7,0.4-1.4,0-2.2
	c-2.4-4.4-1.5-8.4,1.3-12.2c0.9-1.2,1.5-2.5,1.5-3.8c0.1-6.9,3.9-12.1,7.8-17.3c2.9-3.9,6.6-7,10.1-10.1c1.7-1.5,2.3-1,2.9,1
	c3.6,12.1,1.1,23-6.5,32.9c-0.5,0.7-0.9,1.5-1.1,2.3c-2,6.6-5.9,9.7-12.9,10c-0.8,0-1.5,0.2-2.1,0.9c-0.3,0.3-0.6,0.6-0.9,0.9
	c-9.1,9.7-9.1,9.7-9.3,23c0,2.4-0.1,4.7-0.2,7.1c0,1.4-0.2,2.7,1,3.8c0.9,0.8,0.5,2.3-0.2,3.2c-1.1,1.4-1.2,3-1.3,4.7
	c-0.5,10.3-1,20.6-1.6,30.9c0,0.6-0.4,1.5,0.2,1.7c2.7,1.2,0.8,2.6,0.3,3.9c-0.3,0.6-0.7,1.2-0.8,1.9
	C90.4,214.9,90,219.3,89.5,223.8z M164.3,181.6c-2.3-0.4-4.6-0.7-6.3,1.5C160.2,182.8,162.8,184.6,164.3,181.6L164.3,181.6
	L164.3,181.6z M67.5,25.4c1.3,0.1,2.6,0,3.9-0.5c1.6-0.6,3.5-1.2,3.7-2.9c0.2-1.6-1.8-2.2-2.9-2.9C68,16.5,66,16.6,62,19.6
	c-1.4,1-2.9,1.5-4.6,1.7c-2.2,0.2-4.3,0.4-6.5,0.6c-4.6,0.4-8.3,2.4-11.1,6.2c-1.9,2.6-2.5,5.3-1.2,8.4c1.4,3.3,0.6,6.3-1.6,9.1
	c-1.8,2.3-3.3,4.7-4,7.6c-1.3,5.4,2.4,11.7,7.6,13c0.8,0.2,2,0.8,2.1-0.6c0.1-1.8,0.8-3.9-0.3-5.4c-3.2-4.1-2.5-8.2,0.3-11.8
	c3.2-4.3,4.5-8.6,3.3-13.9c-0.9-4.2,1.4-7.4,5.3-9.2c2.5-1.1,5-1.3,7.7-1C61.8,24.5,64.6,25.4,67.5,25.4z M108,51.3
	c-0.1-3.2-1.6-5.8-4.9-7.4c-1.2-0.6-2.4-1-3.6-1.5c-2.9-1.1-4.8-3.1-5.8-6c-1.7-4.7-4-6-9-5.3c-1.1,0.2-2.6,0.3-2.8,1.5
	c-0.2,1.2,0.8,2.3,1.8,3c0.5,0.3,1.1,0.6,1.6,0.8c1.1,0.6,1.8,1.6,1.5,2.8c-0.7,2.4,0.5,2.8,2.4,3.5c5.7,2.1,6.9,8.6,2.5,12.6
	c-0.5,0.5-1,1-1.3,1.6c-1.8,3.8-5,4.2-8.6,3.7c-1.8-0.3-3.6-0.9-5.3-1.2c-1.1-0.2-2.3-0.2-3.1,0.8c-0.8,1.1,0,2,0.5,2.9
	c2.7,4.9,8.2,5.6,13.1,1.5c4.5-3.8,9.3-6.4,15.2-6.8c0.5,0,1-0.2,1.5-0.4C106.7,56.5,108,54.8,108,51.3z M58.7,60.5
	c-1-0.1-1.5-0.1-2-0.1c-3.8-0.2-6.8-1.8-6.5-6.1c0.1-1.2-0.6-2.2-1.4-3c-1.8-2-1.5-3.8,0.4-5.5c2.6-2.4,3.8-5.3,4.1-8.8
	c0.2-3.3,2.1-5.5,5.2-6.5c2.2-0.7,4.5-1.2,6.7-0.6c4.7,1.3,9.5-0.2,14.1,1.2c0.6,0.2,1.4-0.1,2-0.4c1.7-0.9,3.5-1.5,5.5-1.4
	c1.1,0.1,1.6-0.4,1.4-1.6c-0.5-2.6-2.2-4.3-4.6-5.3c-2.4-1-4.9-1.4-6.9,0.6c-3.8,4.1-8.4,4.5-13.4,3.5c-3-0.6-6-1.2-9.1-0.7
	c-4.8,0.8-7.8,4.2-6.7,8.8c1.3,5.4-0.1,9.7-3.4,13.9c-0.7,0.9-1.1,2-1.6,3c-0.8,1.7-0.9,3.5-0.2,5.3C44.9,63,53.1,65,58.7,60.5z
	 M44.3,68.7c-0.2,0.1-0.4,0.3-0.6,0.4c0.1,1.3,0.1,2.5,0.2,3.8c0.3,4.8,2.8,7.9,7.5,8.1c4,0.2,6.7,1.9,9.2,5
	c3.5,4.3,8.6,6.5,13.8,4.5c4.5-1.7,9.2-2.4,13.7-3.9c5.7-1.8,10.4-4.9,11.6-11.4c0.1-0.7,0.6-1.7-0.4-2.1c-0.7-0.3-1.3,0.4-1.7,1
	c-2.7,3.9-6.6,5.5-11.1,6c-1,0.1-1.7,0.5-2.4,1.4c-2.9,4.2-5.5,5-10.3,3.5c-2-0.6-4-1.1-6.1-1.2c-2.9-0.2-5.1-1.7-6.6-4.2
	c-0.9-1.5-1.6-3.1-2.3-4.7c-0.6-1.3-1.4-2.1-2.8-1.8C51.3,74.1,47.2,73,44.3,68.7z M98.4,82.8c2.7-0.9,5.4-2,7-4.3
	c2.5-3.3,5.6-5.3,9.6-6.3c6.3-1.5,7.3-3.2,5.9-9.7c-0.6-2.9-1.1-5.9,0.2-8.7c2.4-5.1,0.8-9.1-2.9-12.8c-1-1-2.1-2.9-3.5-1.8
	c-1.3,1-0.5,3,0.5,4.3c4.8,6.6,1.6,13.4-2.9,17.5c-1.1,1-1.7,2-2.1,3.5c-0.9,4.1-2.4,7.8-7.5,8.1c-1.4,0.1-1.5,1.2-1.7,2.3
	C100.6,77.6,99.9,80.3,98.4,82.8z M113,36.4c0-5.5-1.6-7.5-6.4-8c-3.1-0.3-5.9-1.4-8.7-2.7c-1.8-0.8-3.7-1.6-5.8-1.4
	c-1.9,0.2-2.9,0.9-2.3,3.1c0.8,3.2,2.8,4.5,6.1,4c2.3-0.4,4.9-0.8,6.4,1.2c2,2.7,4.7,4.3,7.4,6c2.1,1.3,3.6,3.6,2,5.8
	c-1.9,2.6-2.4,5.2-1.9,8.2c0.1,0.5-0.1,1.1-0.3,1.5c-1.1,1.8-0.2,3.3,0.5,4.9c0.5,1.1,0.9,1.2,1.8,0.5c4.3-3.4,5.5-10,2.4-14.6
	c-1.3-1.9-1.8-3.9-1.4-6.2C112.9,37.7,112.9,36.8,113,36.4z M70.4,75.7c5.2,0,7.6-1.3,8.7-4.6c0.4-1.3,0.1-1.8-1-2.7
	c-2.9-2.1-5.4-3-7.9,0.3c-0.3,0.4-0.9,0.5-1.4,0.6c-4.2,1.3-7.6,0.1-10.6-3.9c-0.8-1.1-1.6-1.8-3-1.3c-3.1,1.2-6,0.5-8.7-1
	c-0.6-0.3-1.3-1.2-2.1-0.6c-0.7,0.6-0.4,1.4-0.2,2.2c0.7,3.8,5.4,7.6,9.6,7.4c3.9-0.3,7.4,0.3,10.7,2.3
	C66.1,75.6,68.3,75.7,70.4,75.7z M101.9,70.6c3.3,0.2,4.3-0.3,5.8-3.1c0.7-1.3,1.1-2.8,1.1-4.3c0.1-1.7,0.2-3.5-1.1-4.7
	c-1.3-1.3-2.4,0.7-3.8,0.6c-0.2,0-0.3,0.1-0.5,0.1c-1.7,0.1-2.5,0.9-2.9,2.7c-0.7,2.7-2.5,4.8-5.3,5.7C93.5,68.1,92,69,91,70.4
	c-2.4,3.4-5.5,4.7-9.5,3.3c-1.7-0.6-2.4,0.6-3,1.8c-0.7,1.4,0.6,1.9,1.5,2.3c4.3,1.9,13.2,1.7,16.7-4.6
	C97.8,71.2,99.5,70.1,101.9,70.6z M64.4,31.3c-6.1,0.1-9,1.8-9.4,5.8c-0.4,3.8-1.7,7.1-4.5,9.7c-0.8,0.7-1.6,1.8-0.7,2.8
	c1.7,2,2.1,4.3,2.5,6.7c0.3,1.8,3.3,2.8,5.8,2.4c2.8-0.5,0.8-2.2,0.9-3.4c0.1-0.8,0-1.6,0.1-2.3c0.1-1.5-0.4-2.9-1.2-4.2
	c-2.6-3.8-2-5.9,2.3-7.8c1.1-0.5,2-1,2.5-2.1c0.9-2.2,2.7-3,4.9-3.4c1.3-0.2,2.6-0.4,3.8-0.7c0.7-0.2,1.3-0.7,1.2-1.5
	c-0.1-0.8-0.8-0.8-1.4-0.9C68.6,31.9,66.1,31.6,64.4,31.3z M103.6,24.3c-0.1-0.4-0.3-1.1-0.6-1.7c-1.7-4-5.1-6.1-10.1-5.8
	c-3.6,0.3-6.7-0.3-9.4-2.8c-0.9-0.8-2-1.3-3.2-1.8c-3.4-1.4-6.7-0.1-8.4,3.1c-0.2,0.4-0.8,1.1-0.2,1.4c2.3,1.1,3.7,4.1,6.9,3.6
	c3.1-0.5,5.9,0.3,8.3,2.3c0.8,0.7,1.6,1.1,2.6,0.7c3.1-1.2,6-0.6,8.8,0.9c1.2,0.6,2.4,1,3.6,1.5C103,26.2,103.7,25.9,103.6,24.3z
	 M60.6,52.9c-0.2,3.4,1.4,6.2,4,7.4c2.3,1.1,5.5,0.3,7.7-1.8c0.5-0.5,1.4-1.3,0.7-1.7C69.3,55,68,51.9,67.8,48
	c0-0.1-0.1-0.1-0.2-0.2c-1.3-2.5-4.4-3.1-5.9-5.3c-0.3-0.4-0.8-0.2-1.2-0.1c-2.7,0.7-3.5,3-1.7,5.1C60.3,49.2,61,50.9,60.6,52.9z
	 M75.9,55.1c0.8-0.1,1.6-0.2,2.3-0.3c5.9-0.9,8-4.3,6-10c-0.5-1.4-0.2-2.5,0.4-3.7c0.6-1,1-2.1,0.1-3.2c-0.6-0.7-1.5-0.8-2.4-0.6
	c-1.3,0.4-1.7,1.4-1.9,2.6c-1,6.7-2.2,7.9-8.9,9.1c-1.8,0.3-1.9,1.2-1.4,2.6C71.1,54.3,73.2,55.3,75.9,55.1z M76.5,84.7
	c2.1-0.4,3.7-1,5-2.2c1.6-1.5,1.4-2.5-0.7-3c-1.5-0.4-2.8-0.7-3.9-1.9C76.4,77,75.7,76.9,75,77c-4.8,0.8-9.3,0.5-13.6-2.2
	c-0.9-0.5-1.4-0.2-1,0.9c1,2.7,2.4,5.4,5.3,6.5C69.2,83.4,73.2,83.1,76.5,84.7z M76.2,56.9c4.9,3.6,10.1,2.9,13.3-1.5
	c0.3-0.4,0.6-0.9,1.1-1.1c1.9-1.2,2.8-2.8,2.3-5.1c-0.6-2.6-2.1-4.4-4.7-5.2c-1.5-0.5-2.3-0.4-1.8,1.6c1.4,5.4-1.3,9.5-6.7,10.6
	C78.6,56.6,77.5,56.7,76.2,56.9z M98.1,32.9c-3.4,0-3.9,0.7-2.5,3.7c1.1,2.4,2.9,3.9,5.3,4.7c2.5,0.9,5,1.7,6.6,3.9
	c0.9,1.2,1.6,0.6,2.3-0.3c1.4-1.8,0.7-4-1.7-5.4c-2.1-1.3-4.5-2-5.7-4.3C101.3,33.4,99.8,32.7,98.1,32.9z M63.6,40.8
	c0,1.7,1,3,2.3,2.5c2.5-0.9,5.4-1.2,7.1-3.5c1.1-1.5,2.4-2,4-1.4c2.4,0.8,3.4-1.5,3.8-2.7c0.6-1.9-1.5-2.6-3-3.3
	c-1.4-0.6-3-0.9-3.6,1.1c-0.6,2-2.2,2.8-4.1,3.1c-1.3,0.2-2.6,0.4-3.8,0.8C64.7,37.9,63.8,39.2,63.6,40.8z M84.5,73
	c1.9-0.4,3.8-0.7,4.9-2.5c1.2-1.8,2.8-3.1,4.8-3.9c1.8-0.8,3.1-2.2,4.2-3.8c0.5-0.6,0.9-1.4,0.5-2.2c-0.6-0.9-1.4-0.3-2.1-0.1
	c-2.3,0.7-4.2,1.9-6.2,3.3c-2.3,1.7-4.3,3.9-7.1,4.8c-1.3,0.4-2.8,0.9-2.5,2.5C81.4,73,83.2,72.6,84.5,73z M65.8,68.1
	c2.3-0.3,4.6-0.7,6.3-2.6c0.8-0.9,0.6-1.9,0.1-2.9c-0.4-0.8-1-1.3-1.9-1C67.8,62.4,65.5,62,63,61c-1.8-0.7-3.2,0.7-4.1,2
	c-0.9,1.3,0.3,2.4,1.3,3.3C61.8,67.7,63.8,67.9,65.8,68.1z M74.3,130.5c0.1-5.3-0.9-7.1-5.6-10.1c-0.7-0.5-1.4-1.1-2.1-1.6
	c-0.7-0.5-1.6-1.4-2.2-0.7c-0.8,0.7,0.2,1.6,0.7,2.3c1.1,1.8,2.9,3.3,3,5.7c0.1,2,2.6,5.1,4.5,5.7C73.5,132.1,74.4,132.1,74.3,130.5
	z M64.7,108.2c0.4,2.1-0.1,3.9-0.7,5.6c-0.3,0.7-0.7,1.7,0.3,2c2.3,0.8,4,2.3,5.7,4c0.5,0.5,1.9,1.2,2.1-0.4
	C72.7,115.3,69.2,109.9,64.7,108.2z M39.8,115.3c-1.1-1.3-1.9-3.2-3.5-3c-2.5,0.2-4.6-0.5-6.9-1c-1.4-0.3-2.9,0-4.4,0.1
	c-0.8,0-1.2,0.3-0.9,1.1c0.4,1.3,0.9,2.7,2.4,2.7C30.8,115.4,35.1,115.3,39.8,115.3z M29,117.8c1.7,1.9,3.7,2.3,5.5,3.1
	c3,1.5,6.2,1,9.3,0.3c1-0.2,1.3-0.8,0.4-1.6c-0.8-0.7-1.5-2-2.6-2C37.5,117.7,33.4,116.5,29,117.8z M74.9,106.6
	c-2,2.7-3,5.3-2.2,8.4c0.4,1.5,0.9,3,1.4,4.5c0.2,0.6-0.1,1.6,0.9,1.6c0.7,0,1.2-0.7,1.3-1.5c0.3-1.9,1-3.7,2.3-5.2
	c0.6-0.7,0.5-1.4-0.2-1.8C76.3,111.3,75.6,109.1,74.9,106.6z M71.8,47.5c3,0,5.9-2,6.7-4.6c0.3-1,0.5-2-0.4-2.6
	c-1-0.7-2.4-0.8-3.1,0.2c-1.5,2-3.7,2.6-5.7,3.5c-1.9,0.8-1.6,1.8-0.1,2.8C69.8,47.3,70.8,47.5,71.8,47.5z M107.1,110.1
	c-0.5,2.2,1,4.2,1.6,6.3c0.1,0.5,0.3,1.1,1,1.1c0.7,0,1-0.6,1.2-1.2c0.7-2,1.7-4,0-6.1c-0.7-0.8-0.6-2-0.6-3c0-0.9-0.1-1.7-0.3-2.6
	c-0.1-0.5-0.3-1.3-1.1-1.2c-0.6,0-0.7,0.7-0.9,1.2C107.4,106.3,107.3,108.1,107.1,110.1z M109.7,145.3c-1.4,0.4-1.6,1.5-1.9,2.4
	c-1.6,3.9,1,7.7,0.6,11.5c0,0.2,0.4,0.6,0.6,0.7c0.5,0.1,0.7-0.4,0.8-0.8c0.7-1.7,1.3-3.4,2-5.1c0.5-1.2,0.3-2.2-0.5-3.1
	C109.9,149.4,109.4,147.6,109.7,145.3z M134.6,167.2c2.4,0.7,4.5,1.3,6.7,2c1.4,0.4,5-1.7,5.2-3.1c0.1-0.5-0.3-0.7-0.7-1
	C142.9,163,137.3,163.9,134.6,167.2z M145.1,159c2.7,0.3,5,0.3,7.3,0.8c2.4,0.6,3.7-1.1,5.2-2.2c0.8-0.5,0.1-0.9-0.5-1.2
	C152.4,154.2,149.3,154.8,145.1,159z M149.1,178.1c-2.8,1.8-5.4,3.3-7.6,5.1c-1.1,0.9-1.8,2.4-2.1,3.9c-0.1,0.5-0.2,1.4,0.5,1.2
	c1.9-0.6,4.3-0.5,5.3-2.7c0.5-1.2,1.3-2.2,2.2-3.2C148.4,181.3,149.2,180.2,149.1,178.1z M114.2,100.5c0-0.4,0-0.7,0-1.1
	c-0.1-1.1-0.3-2.5-1.5-2.7c-1.1-0.2-1.3,1.2-1.8,1.9c-1,1.5-1,2.8,0.1,4.3c0.8,1,1,2.4,0.9,3.7c0,0.9-0.2,1.9,0.3,2.8
	c0.3,0.5,0.8,1.3,1.3,0.2c0.9-1.9,2.2-3.9,1.1-6.2C114.2,102.5,113.9,101.5,114.2,100.5z M76.4,131.2c0.9-0.3,1-1.1,1.4-1.7
	c1.8-2.7,1.5-6,2.1-9c0.3-1.2,0.6-3.3-0.3-3.6c-1.5-0.5-0.9,1.9-1.8,2.6c-0.1,0-0.1,0.1-0.1,0.2C75.7,123.4,74.2,127.1,76.4,131.2z
	 M122.2,109.2c-3.8,2.2-9.2,2.6-10.1,8.4C117.5,117.2,120.6,114.2,122.2,109.2z M38.9,111.1c0-0.7,0.1-1.1,0-1.5
	c-1-2.7-2-5.4-1.9-8.3c0.1-1.3-1.1-1.9-2.2-2.3c-1.5-0.6-2.2-0.2-1.8,1.5c0.5,1.9,0.8,3.9,1.5,5.8C35.2,108.4,36.6,110,38.9,111.1z
	 M44.2,116.6c-1.7-4.1,0.6-9.1-3.3-12.6c-0.5-0.5-0.7-1.8-1.6-1.4c-1.1,0.5-0.7,1.7-0.4,2.6c0.7,2,1.7,4,1.6,6.2
	C40.5,114,42,115.5,44.2,116.6z M32.2,104.9c-0.3-5.6-2.8-9.1-7.2-10.1C25.3,99.5,27.7,102.8,32.2,104.9z M80.3,128.3
	c-1.8,3.1-3.8,5.5-3.4,9c0.1,0.8-0.3,2,0.8,2.2c1,0.2,1.8-0.5,2.3-1.4C81.7,135.1,81.9,132,80.3,128.3z M68.1,130.5
	c-0.3,3.9,2.5,8,5.6,8.8c0.6,0.2,1.4,0.2,1.5-0.5c0.2-1.7,0.5-3.7-1.3-4.6C71.9,133.1,69.8,132.3,68.1,130.5z M141.2,171.2
	c-2.3-1.4-4.7-1.9-7.1-2.2c-1.4-0.2-2.8,0.1-3.9,0.9c-0.7,0.5-1.2,1-0.1,1.7C132.8,173.4,138.2,173.3,141.2,171.2z M126.5,96.4
	c0,0,0.1-0.6-0.4-0.9c-0.6-0.4-0.9,0.3-1.2,0.6c-0.8,0.8-1.8,1.4-2.9,1.6c-2.4,0.4-3.1,2.3-3.7,4.2c-0.2,0.5-0.4,1,0.1,1.4
	c0.5,0.4,1,0.1,1.5-0.1c1.3-0.7,2.5-1.7,3.8-2.2C125.8,100.4,126.2,98.8,126.5,96.4z M24.7,102.4c-2.8-3.4-4.7-3.9-8.6-2.7
	c-0.7,0.2-1.9,0-1.7,1.1c0.1,1.1,0.8,2.5,2,2.5C19.1,103.2,21.8,102.7,24.7,102.4z M73.4,104.4c0-1.8-2.6-5.4-4.3-6
	c-1.6-0.6-1.4,0.4-1.1,1.3c0.6,2,1.3,4,2.1,5.9c0.4,1,0.4,2.9,1.4,2.8c1.4-0.1,1.4-1.9,1.8-3.1C73.4,105,73.4,104.7,73.4,104.4z
	 M125,103.2c-0.3-1.4-1.2-0.9-1.9-0.6c-1.6,0.6-2.5,2.5-4.3,2.8c-2.1,0.3-2.5,2-3,3.5c-0.4,1.1,0.2,1.5,1.2,1
	c2.2-1.1,4.3-2.2,6.4-3.4C124.4,105.8,124.3,104.3,125,103.2z M124.7,85.5c-1.3,3.3-2.4,6.2-3.5,9.2c-0.2,0.5-0.7,1.2,0,1.6
	c0.3,0.2,1-0.1,1.4-0.4C126.6,93.6,127.4,90.1,124.7,85.5z M141.1,190.2c3.5,1.2,7.1,1,10.7,0.8c1,0,2.7,0.1,2.7-1.2
	c0-1.1-1.6-0.5-2.5-0.7c-0.7-0.1-1.4-0.1-2-0.4C146.7,187.1,143.9,188.7,141.1,190.2z M140.4,162.3c3.5,0.3,6.2,1.3,8.9,2.4
	c1.4,0.6,2.8-0.8,3.1-2.1c0.3-1.7-1.4-1.3-2.4-1.4c-1.1-0.1-2.3-0.1-3.4-0.1C144.8,161,142.7,160.5,140.4,162.3z M23.9,106.3
	c0.4,0.1,1.4,0.2,2.4,0.5c1.4,0.4,3.3,0.9,3.5-0.6c0.2-1.3-1.8-2.1-3.2-2.4c-0.2,0-0.4-0.1-0.5,0c-2.3,0.6-4.6,0.8-7,0.8
	c-0.6,0-1.3,0.2-1.3,1c0,0.7,0.6,1.1,1.2,1.1C20.5,106.6,21.9,106.4,23.9,106.3z M58.5,152.2c-1.6,0-3.1-0.3-3.9,0.7
	c-1.2,1.5-2.7,2.6-4.4,3.6c-1.1,0.6-0.8,1.4,0.4,1.8c0.9,0.3,1.7,0.1,2.6-0.1C56.1,157.4,57,154.8,58.5,152.2z M34.3,148.4
	c2.5,1.2,4.7,2.3,7,3.2c0.8,0.3,1.7,0.1,2.6,0.1c0.4,0,0.9,0,1.1-0.5c0.1-0.5-0.3-0.8-0.6-1.1C41.9,147.5,38.1,146.8,34.3,148.4z
	 M46.9,119.8c2.3-3.3,1.8-8.4-0.7-10.7c-0.3-0.2-0.5-0.6-0.9-0.3c-0.2,0.2-0.5,0.6-0.4,0.9C45.6,112.9,45.3,116.5,46.9,119.8z
	 M118.1,98.7c-0.3-1.7-0.5-3.2-0.8-4.7c-0.2-0.8-0.2-2.4-1.4-2.1c-1.1,0.2-1.9,1.5-1.9,2.8c0,0.6,0.3,1.2,0.6,1.7
	c0.5,0.9,0.8,1.9,0.9,3c0.1,1-0.5,2.6,0.7,2.7c1.5,0.1,1.2-1.8,1.8-2.7C118,99.1,118,98.9,118.1,98.7z M106.7,154.7
	c-2.8,2.6-2.7,8.7-0.5,10.8c0.7,0.7,1.2,0.6,1.6-0.3c0.3-0.8,0.7-1.8,0.4-2.5C106.9,160.3,106.2,157.8,106.7,154.7z M113.2,123
	c1.9,0.2,2.8-0.7,3.2-2c0.3-0.8,0.9-1.8,0.3-2.4c-1-1.1-2,0.3-3,0.5c-0.2,0.1-0.5,0.2-0.7,0.2c-1.4,0.5-3.3,1.3-3,2.7
	C110.2,123.4,112.4,122.6,113.2,123z M131.9,163.6c0.4,0.6-0.9,2.2,0.8,2.2c1.6,0.1,4.4-3.8,4.2-5.3c-0.1-0.6,0-1.5-1.1-1.4
	C134,159.3,132,161.5,131.9,163.6z M40.2,126.5c1.8-1.3,4.3-1.3,6.5-2.4c0.4-0.2,0.8-0.5,0.6-1c-0.3-0.7-1-0.9-1.5-0.6
	c-2.4,0.9-4.9,0.8-7.4,0.9c-0.5,0-1.1,0-1.3,0.6c-0.2,0.6,0.3,1,0.6,1.3C38.3,125.9,38.9,126.4,40.2,126.5z M112.6,140.8
	c-1.4,1.7-1.9,6.2-0.9,7.8c0.3,0.5,0.7,1.1,1.3,1.2c0.8,0,0.8-0.8,1.1-1.3C116.3,145.5,113.7,143.3,112.6,140.8z M141.6,192.8
	c-3.4-2.2-5.1-2.4-8.2-1.3c-0.4,0.2-0.9,0.2-0.9,0.7c-0.1,0.5,0.4,0.7,0.8,0.9C135.7,194.9,139.3,194.8,141.6,192.8z M149.4,187.1
	c2.4,0.3,4.2,0.4,5.9,0.8c1.6,0.4,2.4-0.5,3.3-1.5c0.6-0.7,0.6-1.2-0.4-1.4C155.2,184.5,152.4,184.4,149.4,187.1z M109.8,166.2
	c4.2-1.8,6.5-4.7,6.1-8C113.3,160.5,109.6,161.6,109.8,166.2z M66.1,99.2c-0.9,0.6-1,1.5-1.2,2.3c-1.1,3.3-0.6,4.5,2.5,6
	c0.8,0.4,1.5,0.4,1.2-0.7C67.8,104.2,67.7,101.5,66.1,99.2z M108.2,119.6c-0.4-1.6-0.9-3.2-1.8-4.8c-0.6-1.1-1-0.6-1.5,0
	c-1.5,1.7-1.4,3.6,0.5,5.8c0.5,0.6,1,1.4,1.9,1.1C108.1,121.4,108.1,120.5,108.2,119.6z M147.9,151.3c0-0.5,0.3-1.2-0.3-1.4
	c-0.4-0.1-1,0.1-1.5,0.4c-2.1,1.2-1.9,3.6-2.8,5.4c-0.2,0.4-0.6,1-0.1,1.4c0.5,0.4,0.9-0.1,1.4-0.3
	C147,155.8,147.8,153.8,147.9,151.3z M119.3,151.8c-3.9,1.1-7,2.6-7,7.2C114.5,156.4,118.7,156.1,119.3,151.8z M146.7,185.3
	c1.1-0.1,1.5-0.1,1.8-0.1c3.3-0.4,3.7-3.6,5.2-5.6c0.5-0.6,1.2-1.6,0-2.2c-1-0.5-2.1-0.1-2.4,0.9
	C150.5,180.8,149.2,183.1,146.7,185.3z M114.5,140.4c0.1,1,0.2,2.3,1.3,2.5c1,0.2,1-1.2,1.4-1.9c0.3-0.7,0.7-1.4,0.9-2.2
	c0.3-1.3,0.3-3.1-0.9-3.4c-1.4-0.3-2,1.2-2.2,2.6C114.9,138.8,114.7,139.5,114.5,140.4z M141.6,153c-0.2,0.1-0.5,0.2-0.8,0.4
	c-2.2,1.4-3.3,3.3-2.4,5.9c0.2,0.5-0.1,1.2,0.5,1.3c0.7,0.2,1.2-0.4,1.5-0.9c1.3-1.8,0.9-4.2,1.8-6.2
	C142.4,153.3,142.2,153,141.6,153z M24,107.9c-0.9,0.3-2.2-0.3-2.3,0.9c0,0.9,1.1,0.8,1.9,0.9c0.7,0.1,1.4,0.1,2.1,0
	c2.3-0.2,4.5-0.1,6.6,0.8c0.7,0.3,1.8,0.7,2.1,0c0.5-1-0.7-1.4-1.4-1.9c-0.5-0.3-1.2-0.7-1.7-0.5C28.9,109.1,26.4,108.7,24,107.9z
	 M64.8,151.1c-2.1,0.1-4.3,0.2-4.9,2.7c-0.3,1.2,1.2,1,1.9,1c2,0.1,3.6-0.8,4.2-2.8C66.4,150.9,65.3,151.2,64.8,151.1z M44.4,153.7
	c-3.3-1.1-5.6,1-8.5,1.6C39.9,157.8,40.7,157.3,44.4,153.7z M119.4,94.4c1.2-3,2.2-5.6,3.2-8.3C117.6,89.3,117.3,90,119.4,94.4z
	 M138.2,184.2c-2.5,0.7-4.2,2.2-5.6,4.2c-0.2,0.3-0.5,0.9-0.3,1.2c0.3,0.6,0.9,0.3,1.4,0.2C136.5,189.2,138.2,187.6,138.2,184.2z
	 M154.1,182.3c2-0.6,3.3-1.4,4.6-2.2c0.9-0.6,1.4-1.3,1.4-2.3c0-0.7-0.6-0.9-1.1-0.8c-1.1,0.2-2.3-0.1-2.9,1.2
	C155.5,179.4,154.9,180.6,154.1,182.3z M120.4,147.2c0-0.8-0.2-1.6-1.5-1.1c-1.9,0.8-3.2,2-3.7,4c-0.1,0.6-0.2,1.2,0.7,1.2
	C117.3,151.2,120.3,148.5,120.4,147.2z M153.2,148.4c-0.5,0.1-0.8,0.1-1.2,0.2c-1.8,0.3-2.3,1.6-2.5,3.1c-0.1,0.5-0.3,1.3,0.3,1.3
	c1.3,0.1,2.2-0.9,3.1-1.7c0.5-0.4,0.8-0.9,1.1-1.4c0.3-0.4,0.7-0.9,0.3-1.4C154,148.4,153.4,148.5,153.2,148.4z M44.7,156.6
	c2.6,0.6,3.6,0.1,6.9-3.3C48.4,152.4,47.5,152.8,44.7,156.6z M117.8,144.4c3.1-0.8,3.7-3,4.6-5c0.2-0.4,0.7-1,0.2-1.4
	c-0.6-0.5-1.2-0.1-1.7,0.3C118.9,139.7,118.9,142,117.8,144.4z M20.9,93.1c-0.6,0-1.3,0.1-1.2,0.7c0.4,1.9,1.3,3.6,3,4.7
	c0.4,0.2,1,0.5,1.1,0c0.3-1.3-0.5-2.5-0.9-3.7C22.7,93.8,22,93.2,20.9,93.1z M42.7,127.3c2.4,0.8,4.5,0.7,6.6-0.2
	c0.5-0.2,1.3-0.4,1-1.2c-0.2-0.7-0.9-1.3-1.6-1C46.8,125.8,44.6,125.7,42.7,127.3z M36.5,151.4c-1.5-0.7-2.8-1.7-4.1-2.6
	c-1.3-0.8-2.6-0.2-3,1c-0.4,1.1,1,1.1,1.8,1.3C32.8,151.7,34.6,151.9,36.5,151.4z M153.6,153.4c2.2,1.3,4.1,1.5,6,1.7
	c0.9,0.1,1.9-0.3,1.9-1.4c0-1-1-0.8-1.6-0.8C157.9,152.7,156,152.6,153.6,153.4z M49.8,116.8c-0.4,2.6-1.2,4.5,0.2,6.3
	c0.3,0.3,0.6,0.7,1.1,0.6c0.6-0.2,0.5-0.7,0.4-1.1C51.3,120.9,51.2,119.1,49.8,116.8z M158.5,151c1.6,0.7,3.1,0.5,4.6,0.1
	c1-0.3,1.5-1.2,1.3-2c-0.3-1.1-1.3-0.4-1.9-0.2C161.2,149.5,159.7,149.7,158.5,151z M51.5,150.8c-1.5-1-2.6-1.8-3.7-2.6
	c-0.6-0.4-1.1-0.5-1.6,0.1c-0.7,0.7-0.1,1.3,0.4,1.8C47.8,151.3,49.3,151.6,51.5,150.8z M112.4,124.7c-2-0.5-3.5-0.5-5,0.2
	c-0.6,0.3-1,0.8-0.9,1.4c0.2,0.8,0.9,0.7,1.5,0.6C109.5,126.6,111,126.1,112.4,124.7z M64.4,148.7c-1.6-1-3.1-2-5.1-1.1
	c-0.5,0.2-0.5,0.7-0.1,1.1c1.6,1.4,3.3,1.3,5.1,0.5C64.2,149.2,64.2,149,64.4,148.7z M16.6,97.5c-0.6-0.9-1.5-1-2.3-1.3
	c-0.7-0.3-1.4-1-2.1-0.3c-0.2,0.2-0.1,0.7,0,1c0.3,1,1,1.4,1.9,1.4C15,98.3,15.9,98.4,16.6,97.5z M103.3,120.7
	c-0.6,1.6,0,2.7,0.4,3.9c0.2,0.5,0.5,1,1.1,0.8c0.5-0.1,0.8-0.7,0.8-1.2C105.7,122.5,104.7,121.6,103.3,120.7z M130,163.4
	c-1.8,1.7-2,3.4-2,5.7C130.8,167.6,130.3,165.7,130,163.4z M57.5,150.1c-2.2-1.1-3.9-1.5-5.8-1.6C53.4,149.3,54.7,151.1,57.5,150.1z
	 M13.8,94c1.9,0.6,2.8,1.9,4.3,1.3c0.4-0.2,0.2-1-0.1-1.4C16.8,92.6,15.7,93.3,13.8,94z M168.2,176.3c-1.7,0.8-3,1.4-3.8,2.9
	C166.7,179.7,167.6,178.5,168.2,176.3z M123.1,133c-1.1,0.7-1.6,1.4-1.3,2.5c0,0.1,0.5,0.2,0.7,0.1C123.5,135,123.7,134.2,123.1,133
	z M162.6,177.7c0.5-0.5,1.7-0.4,1.7-1.5C163.2,176.1,162.5,176.4,162.6,177.7z M32,153.4c0.3,0.3,0.4,0.6,0.6,0.7
	c0.4,0.2,1.1,0.6,1-0.3C33.6,153.2,32.9,153.3,32,153.4z M159,148.3c-0.4-0.1-0.6-0.3-0.8-0.2c-0.3,0.1-0.5,0.4-0.7,0.6
	c0.2,0.1,0.4,0.3,0.5,0.2C158.3,148.8,158.6,148.6,159,148.3z"/>
</svg>
