<?xml version="1.0" encoding="utf-8"?>
<!-- Generator: Adobe Illustrator 25.3.0, SVG Export Plug-In . SVG Version: 6.00 Build 0)  -->
<svg version="1.1" id="Layer_1" xmlns="http://www.w3.org/2000/svg" xmlns:xlink="http://www.w3.org/1999/xlink" x="0px" y="0px"
	 viewBox="0 0 59.2 109.2" style="enable-background:new 0 0 59.2 109.2;" xml:space="preserve">
<path d="M32,52c-5.3-2.9-10.5-2-15.6-2.2c-2-0.1-4.7,1.4-5.7-1.2c-0.8-2.3,1.8-3.6,3.2-5c2.4-2.3,5.4-3.6,9.1-5.1
	c-5.5-3.9-11.2-4.6-17.1-5.2c-2-0.2-4.9,1.4-5.8-1c-0.9-2.7,2.2-3.9,3.9-5.5c3.8-3.6,8.7-3.9,14-4.3c-2.1-4.9-5.5-8.3-9-11.5
	C6.8,9,4.4,7.1,2,5.1C1.1,4.4,0.4,3.5,0.6,2.2c0.2-1.6,1.6-1.4,2.6-1.5c21.9-3.2,41.5,4.7,51,27.2c6.6,15.7,6.3,30.9,0.9,46.6
	c-1.5,4.3-2.6,8.4-1.8,13.2c1,6.2,1,12.7-0.6,18.9c-0.3,1.3-0.4,2.9-2.2,2.5c-1.7-0.3-1.5-1.9-1.2-3.2c1.4-8.1,1.1-16.2-0.5-24.3
	c-1-5-2.9-9.6-5.8-13.8c-3.7-5.4-9.1-7.6-15.4-7.9c-1.5-0.1-3.6,0.9-4.2-1.3c-0.5-2,1.7-2.6,2.9-3.4C27.9,54.1,29.8,53.2,32,52z
	 M50.8,75.8c7.4-19.3,6.3-36.8-3.8-53.6C38.4,7.8,24.4,1.3,7.4,4.4c1.5,1.4,2.9,2.7,4.3,4.1c4.4,4.2,8.4,8.6,10.8,14.3
	c0.6,1.4,1.4,2.8,0.3,4.1c-1,1.2-2.4,0.4-3.7,0.2C13.8,26,11,26.6,7.7,29.8c7.4,0.3,13.8,2.8,19.6,7c1.1,0.8,2.8,1.6,2.5,3.3
	c-0.4,1.8-2.3,1.6-3.6,1.8c-3.1,0.4-5.7,1.4-8.3,3.9c5.8,0.4,11,0.1,15.8,2.7c2.1,1.2,5.1,2.1,5.1,4.7c0,3.1-3.8,1.5-5.8,3.4
	C42.1,59.4,47.5,66,50.8,75.8z"/>
</svg>
