<?xml version="1.0" encoding="utf-8"?>
<!-- Generator: Adobe Illustrator 25.3.0, SVG Export Plug-In . SVG Version: 6.00 Build 0)  -->
<svg version="1.1" id="Layer_1" xmlns="http://www.w3.org/2000/svg" xmlns:xlink="http://www.w3.org/1999/xlink" x="0px" y="0px"
	 viewBox="0 0 155.9 225.4" style="enable-background:new 0 0 155.9 225.4;" xml:space="preserve">
<path d="M96.8,50c-1.4-7.4-3.7-9.6-11.5-10.9c-2-0.4-3.8-1.4-3.7-3.8c0.1-2.2,1.5-3.6,3.7-3.9c2.2-0.2,4.2,1,4.2,3.1
	c0.1,3.1,2,4.2,4.8,6c-0.8-3.4-0.2-6.3-3-8.2c-1.6-1.1-2.6-2.6-1.8-4.7c0.5-1.3,1.6-2,3-1.9c2,0.1,3.5,1,4.3,2.9
	c0.2,0.6,0.1,1.4,0.2,2c-2.6,2.8-1.6,5.6,0,8.8c2.3-2.2,3.5-4.1,0.8-6.5c-0.5-0.5-0.6-1.5-0.8-2.3c0.9-0.9,1.7-1.9,2.7-2.6
	c2-1.3,3.8-0.5,5.2,1.1c1.4,1.7,1.1,3.6-0.4,4.9c-1.6,1.2-2.6,2.8-3.9,4.2c-4.1,4.4-2.4,8.6-0.4,13c6-3.1,7.7-6.6,5.9-13.4
	c-0.8-2.9-0.6-5,2.2-6.3c1.6-0.8,3.2,0.1,3.8,1.7c0.9,2.5,0.6,4.7-2.2,5.9c-2.4,1-1.3,3-1.5,5.2c3-2.4,5.9-3.9,5.2-8.1
	c-0.3-1.8,1.3-3.1,3.3-3.1c2.1-0.1,3.4,1.2,3.9,3.2c0.4,1.7-0.3,3.5-2,3.5c-4.1,0.1-5.2,3.8-8.2,5.7c4.8,1.5,7.4,0.7,9.1-3
	c1-2.1,2.5-3.1,4.7-2.1c2.2,1,3.3,2.8,2.4,5.1c-0.8,2.2-2.5,3.4-5,2.4c-4.5-1.9-8.9,1-13.5,0.4c-2.2-0.3-4,3.1-6.4,5
	c3.1,1.8,6.1,2.2,9,3c0.8,0.2,1.8,0.1,2.3-0.7c2.2-3.2,6.2-3.6,8.9-6.1c1.3-1.2,3.2-1.1,4.7,0c1,0.8,1.2,2,0.9,3c-0.8,2.6-3,3.3-5,2
	c-3.3-2-5.1-0.1-7.7,2c2.6,1.5,4.8,1.8,7.2,1.2c0.9-0.2,1.9-0.6,2.9-0.5c1.8,0.1,3.4,0.7,3.8,2.7c0.3,1.5-0.2,2.8-1.5,3.7
	c-1.7,1.2-3.3,0.6-4.6-0.6c-1.4-1.2-2.2-3.4-4.6-3.1c-1.1,0.2-3.1-1.9-3,0.9c0.1,1.6-0.4,4.4,2.7,4.1c1.9-0.2,3.4,0.3,4.1,2.1
	c0.7,1.6,0,3.1-1.1,4.2c-2.1,2.2-5.4,1.4-5.7-1.6c-0.3-3.2-2.2-5.8-2.3-8.9c-0.1-1.5-0.8-2.2-2.3-2.5c-2.5-0.5-4.8-1.7-7.3-1.8l0,0
	c1,2.6,2.6,5,2,8c-0.3,1.4-0.6,2.9-2.2,3.2c-1.4,0.3-2.3-0.7-3.2-1.7c-2.1-2.4-2.3-5.3-2-9.1c-3.9,3.1-7.2,5.9-10.7,8.5
	c-3.4,2.6-7,5.1-11,8c2.6,0.5,4.9,0.9,7.1,1.5c2.4,0.7,4.8,1.6,6.8,3.2c1.7,1.4,4.2,2.9,3.5,5.3c-0.7,2.7-3.7,3.2-6.2,3.4
	c-4.6,0.3-8.3-2.1-12.1-4.3c-1.2-0.7-2-1.9-3.7-2.2c-0.6,4.4,0.3,8.7,0.3,13c0.2,15,0.6,30,1.9,45c0.5,6.1,1.4,12.2,2.1,18.4
	c0.3,2.7,1,3.7,4,2.4c9.4-4.3,18.5-9.2,27.8-15.2c-5.7-1.2-9.7-4.2-13.4-7.6c-0.9-0.8-2.2-1.7-1.5-3.1c0.5-1.2,1.9-0.9,3-0.9
	c4.7-0.3,9.1,0.8,13.7,3.8c-1.3-5.4-1.6-10.2-1.6-15.1c0-2.7-2.7-5.1-5.3-4.3c-5.7,1.7-11-1.1-16.5-1c-1.7,0-2.8-1.5-2.8-3.2
	c0.1-2.1,1.5-3.2,3.5-3.6c1.7-0.3,3.2,0.1,3.8,1.8c0.5,1.5,0.2,3.3,2.4,4c2.7,0.8,5.6,0.7,9.1-0.9c-2.2-2.2-2.9-5.7-7.1-5.5
	c-2.2,0.1-3.4-2-3.4-4.1c0-1.7,1.1-2.9,2.9-3c2.4-0.1,3.9,1.2,4.6,3.5c1.3,4.3,4.8,8.7,9.4,11.4c-0.3-4.6,3.4-8.4,0.8-13.1
	c-1-1.8,0.3-3.3,1.9-4.1c1.8-0.9,3.6-0.8,4.9,0.9c1.1,1.5,0.7,3.2-0.7,4.1c-4.5,2.9-4,7.5-4.9,12.8c4.8-3,9.9-4.4,10.2-10.7
	c0.1-1.9,1.1-3.3,3.1-3.3c1.9,0,3,1.3,3.5,3.1c0.5,1.8,0,4.2-1.6,4.2c-4.4,0.2-6.1,4-9.3,5.7c-0.1,0.1-0.2,0.2-0.4,0.2
	c-6.8,1.8-6.6,7-5.9,12.3c0.4,3,1.2,6.1,1.8,9.1c0.5,2.1,1.4,2.8,3.4,1.2c5.7-4.4,10.5-9.7,15.3-15c0.4-0.5,0.9-1.3,0.8-1.8
	c-0.9-5.1,0.9-10.3-1.1-15.3c-0.9-2.3,0.1-3.9,1.9-5c1.8-1,3.6-0.6,4.7,1.2c1.3,2,0.3,3.5-1.3,4.7c-4.5,3.2-1.7,7.6-1.8,11.6
	c2.5-2.5,6.2-4.1,5.2-8.8c-0.4-2.1,1.3-3.3,3.3-3.7c1.9-0.4,3.4,0.2,4.1,2.1c0.6,1.9-0.3,3.7-1.9,4.2c-4.6,1.5-6,6-9.7,9
	c3.3,1.9,6.2,1.4,9.2,0.6c3-0.8,5.5-1.8,5.7-5.7c0.1-1.9,1.5-3.5,3.7-3.2c2.2,0.3,2.9,2,2.9,4c0,2.3-1.1,3.9-3.5,3.7
	c-1.4-0.1-2.3,0.3-3.5,1c-4.3,2.4-8.8,3.7-13.7,2.3c-1.3-0.3-2.5-0.5-3.5,0.6c-5.4,6-10.9,11.9-18.1,17c6.3,2.8,12.1,3.3,17.9,3.6
	c1.5,0.1,2.3-0.9,3-1.9c2.2-3.1,4.6-6,7.5-8.5c1.3-1.1,1.6-2.5,2.1-4c0.7-1.8,2.2-2.5,4.1-1.8c2,0.7,3.6,2,3.1,4.3
	c-0.3,1.8-2.1,3.4-3.6,2.7c-4-1.6-5.6,1.3-7.6,3.4c-1.4,1.5-2.9,3-4,5.7c4.7-0.3,9.1,1.7,12.9-2.6c1.3-1.4,3.3-1.5,5-0.3
	c1.5,1.1,1.5,2.7,0.6,4.1c-1.1,1.8-3,3-5,1.9c-4.3-2.4-8.7-0.5-13.1-0.6c4.2,3.7,7.3,9.1,14.2,7.8c2.1-0.4,3.8,1,4.4,3.2
	c0.5,1.8-0.5,2.9-1.9,3.8c-1.6,1-3.4,0.5-4.1-0.8c-2.5-5.2-8.3-5.9-11.8-9.9c-1.7,5.5-1.3,6.9,2.8,10.1c1.6,1.2,1.9,2.9,1,4.5
	c-1.1,2.1-3,2.4-5.1,1.8c-1.8-0.6-2.6-1.9-2-3.9c1.4-4.8,0-9.7,0.2-14.5c0.1-1.7-1.5-2.5-3.3-2.6c-4.6-0.1-9.2-1.1-14.2-2
	c1.4,4.8,1.8,9.4,0.7,14c-0.3,1.2-0.2,2.9-1.7,3.2c-1.7,0.3-2.3-1.4-2.9-2.6c-2.5-4.4-4.7-9-3.8-15.1c-9.2,5.4-17.8,10.6-28,15.1
	c4.8,1.3,8.7,2.3,12.2,4.6c1.9,1.2,3.7,2.5,5,4.4c0.9,1.3,2.1,2.7,1.4,4.2c-0.8,1.7-2.8,1.8-4.5,1.7c-5.6-0.2-10.9-1.2-15.2-5.1
	c-0.9-0.8-1.6-2-2.7-2.2c0,9.6,0,19.2,0,28.8c0,9.5,0.2,19-1.3,28.4c-2-6.2-0.4-12.5-0.7-18.7c-0.2-6.6-0.2-13.2-0.4-19.8
	c-0.2-6.4-0.4-12.8-0.6-19.9c-4.9,4.5-9.6,7.8-15.4,9c-3.2,0.7-7.3,1.5-8.7-1.7c-1.3-3.1,2.3-5.3,4.8-7.1c3.7-2.8,8.2-4,13-5.5
	c-7.6-3-14.3-6.7-20.9-11.9c0.1,5.8-1.5,10.7-4.8,15c-0.8,0.9-1.5,2.5-2.9,2.1c-1.6-0.4-1.6-2.2-1.7-3.5c-0.3-4.9-0.9-9.8,1.9-14.4
	c-8.1-0.3-16.4,4.5-19.7,11.1c-0.6,1.1-0.6,2.2-0.3,3.3c1.1,3.8-0.5,8.1,2.6,11.6c1,1.2,0.2,3-1.4,3.9c-2,1.1-3.8,0.8-5.3-0.9
	c-1.2-1.3-1.3-3.1,0.1-4.1c3.9-2.7,2.4-5.9,1.6-9.5c-2.2,1.2-3.3,2.8-4.2,4.8c-1.1,2.3-3.2,3.2-5.6,2.1c-1.4-0.6-1.9-2.2-1.5-3.6
	c0.4-2.1,2.4-3.4,4-2.9c3.6,0.9,5.1-1.4,6.7-3.6c1.6-2.1,3.6-3.9,4.6-7.4c-5.3,1.4-10.7-0.7-15.3,3c-1.7,1.3-3.5,0.6-4.9-0.9
	c-1.3-1.4-1.8-3-0.4-4.5c1.3-1.5,3.2-1.7,4.6-0.6c5.2,4,10.3,0.9,16.3,0.8c-2.8-3.1-5.6-4.7-8.3-6.4c-1.3-0.8-2.3-0.3-3.5,0.4
	c-1.9,1.1-3.7,0.8-4.7-1.1c-1-2.1-0.7-4.3,1.3-5.6c1.9-1.2,3.2,0,4.5,1.6c3.6,4.1,8.9,6.1,13,9.7c0.3,0.3,1.1,0.2,1.6,0.1
	c5.2-1.5,10.4-3.1,15.2-4.6c-3.6-3.9-6.9-7.5-10.2-11c-1.2-1.3-2.8-1.2-4.3-0.7c-4.4,1.3-8.9,0-13.4,0.2c-1.5,0.1-2.9-1.1-3.2-2.9
	c-0.2-1.5,0.3-2.8,1.7-3.5c1.7-0.8,3,0.1,4.1,1.3c3.6,3.9,5.4,4.3,11.5,2.2c-4.8-3.6-7-9.6-13.6-10.6c-2.2-0.3-3.6-2.1-3.6-4.6
	c0-2.1,1.4-3.4,3.4-3.6c2.4-0.2,3.5,1.5,4.1,3.5c1.5,4.6,6.3,10.2,11.3,13.1c1.4-5.5,1-6.8-3.1-9.5c-1.7-1.1-2.1-2.6-1.4-4.4
	c0.8-2.1,2.7-2.4,4.6-2c1.9,0.4,3.2,1.7,2.6,3.6c-1.4,4.7,0.9,9.4-0.1,14.1c-0.2,1,0.5,1.9,1.2,2.6c3.3,3.2,6.6,6.4,10.3,9.9
	c1.6-3.7,1.6-7.1,2.4-10.5c0.2-0.8,0.1-1.7-0.6-2.3c-3.1-2.8-3.8-7.5-8.1-9.3c-1.7-0.7-2.3-2.9-1.1-4.8c0.9-1.5,2.3-2,4-1.3
	c1.9,0.8,3.8,2.1,2.9,4.4c-1.5,4.1,1.5,6,3.3,8.5c1-3.9,0.3-7.5-0.8-11.1c-0.4-1.2-1.2-1.7-2.3-2.2c-1.9-1.1-3-2.7-1.6-4.8
	c1.2-1.8,3.1-2.5,5.2-1.5c2,1,2.4,2.7,1.2,4.6c-1.7,2.6,0.1,4.7,0.5,7.8c2.6-3.3,5.1-5.5,3.6-9.5c-0.7-2-0.1-4,2.1-4.9
	c1.9-0.8,3.3,0.1,4.1,1.9c1,2.2,0.9,4.1-1.4,5.4c-3.9,2.3-4.9,7-7.7,10.2c-0.8,0.9-0.8,3,0.2,4c1.1,1.1,2.3-0.5,3.2-1.1
	c1.8-1.1,3.4-2.5,5-3.8c1.4-1.1,2.2-2.3,1.8-4.3c-0.5-2.4,0.9-3.7,3.2-3.9c2.2-0.2,4.1,0.5,4.3,3c0.2,2.3-1.1,3.9-3.4,3.9
	c-1.8,0.1-2.7,1.2-3.9,2.1c-1.8,1.5-3.5,3.5-5.6,4.3c-5.6,2.3-6.9,6.7-6.8,12l-0.1,0.1l0.1-0.1c4.5-2.8,9.3-4.3,14.6-3.6
	c0.9,0.1,2.1-0.1,2.4,1.2c0.2,0.9-0.5,1.5-1.1,2.1c-4,3.9-8.2,7.6-14.2,7.9l-0.1-0.1l0.1,0.1c6.5,5.3,13.5,9.6,21.5,12
	c3.9,1.2,4.4,0.8,3.8-3.4c-3.3-23.2-3.5-46.7-4.3-70.1c-0.1-1.8,0-3.6,0-6.3c-3,2.5-5.2,4.5-7.8,6.1c-2.9,1.8-6,2.3-9.3,2.1
	c-3.1-0.2-3.7-1.3-2.4-4.1c2.3-5.2,6.8-7.6,12-9c0.8-0.2,1.7-0.1,2.5-1.2c-7.2-3.9-13.6-8.8-18.7-15.9c-1.5,3.6-2.7,6.7-6.1,8.1
	c-1.4,0.6-2.9,1.6-4.3,0.2c-1.3-1.3-0.7-2.9,0.2-4.3c1-1.5,2.1-2.9,3.2-4.3c-3.5-0.3-6.1,0.1-7.1,4.3c-0.7,3.1-3.7,5.1-4.7,8.3
	c-0.5,1.6-2.5,2.2-4.3,1.6c-1.7-0.5-2.4-1.9-2.2-3.6c0.2-2,1.7-3.2,3.4-3.1c3.5,0.2,5.1-1.6,6.3-4.4c0.4-0.9,0.8-2.4-0.4-2.5
	c-3-0.3-5.9-1.9-8.9-0.4c-0.4,0.2-0.7,0.5-1,0.7c-1.9,1-3.8,1.1-5.3-0.7c-1.3-1.6-0.9-3.3,0.6-4.5c1.8-1.5,4-2,5.7-0.1
	c2.4,2.7,5.3,2.6,8.5,2.3c-0.5-2.9-2.5-2.7-4.5-2.6c-1.9,0.1-3.3-0.8-3.3-2.9c0-2.2,1.3-3.7,3.4-4.2c2-0.5,3.2,0.7,3.8,2.5
	c3.3,9.6,5.1,8.2,13.6,6c-2.8-3-3.8-7.1-8.8-7.4c-3.4-0.2-6.3-2.5-10.1-2c-1.8,0.3-2.9-1.9-2.9-4c0-1.6,0.7-2.7,2.3-3.1
	c2.1-0.4,3.9,0.5,4.5,2.3c1.1,3.6,3.8,4,7.3,4.9c-1.6-3-2.9-5.2-5.8-6.3c-2.1-0.8-3.3-2.7-2.5-5.1c0.5-1.7,1.9-2.6,3.6-2
	c2.4,0.7,4.2,2.5,3.4,5c-1.1,3.5,2.2,4.4,3.3,6.6c0.6-2.8,2.3-5.7-1.3-7.8c-1.6-1-1.9-2.8-0.9-4.5c1-1.6,2.6-2.1,4.4-1.3
	c1.9,0.9,3.2,2.7,2.1,4.4c-2.2,3.4-0.8,7.2-1.9,10.6c-0.4,1.4,2.9,6.7,4.3,7.2c0.6,0.2,1.3,0.1,1.4-0.4c0.5-1.6,2.7-3.1,1.2-4.9
	c-1.6-2-2-4.6-4-6.3c-1.6-1.4-1.6-3.3,0-4.8c1.6-1.5,3.4-1.4,4.9,0c1.5,1.4,2,3.3,0.5,4.8c-1.5,1.5-1.9,2.6,0,4.3
	c1.7-2.8,2.5-5.5,1.6-8.6c-0.1-0.4-0.4-0.8-0.4-1.2c-0.4-2.1,0.1-4,2.1-5c1.6-0.8,3-0.2,3.9,1.3c1.1,2,1.1,4-0.8,5.2
	c-3.2,2-2.7,5.3-3.4,8.1l0,0c1.9-0.8,2.8-2,2.6-4.2c-0.2-2.2,1.1-3.5,3.2-3.5c2.5,0.1,3.8,1.8,4.1,4c0.3,2.3-1.5,3.2-3.4,3.4
	c-4.6,0.6-8.1,3.4-9.4,8c3-0.7,5.8-1.6,8.7-0.5c2.5,1,2.6,2.2,1,4c-2.2,2.4-5.1,2.7-8.7,2.4c5.3,6.9,11.5,11.4,18.7,14.8
	c1.5,0.7,2.4,0.5,2.4-1.4c-0.2-13-0.5-26-1.2-38.9c-1.6-0.6-2.1,0.6-2.9,0.9c-1.3,0.3-2.6,1.7-3.9,0.3c-1.4-1.6-0.3-3.1,0.7-4.5
	c0.1-0.1,0.3-0.2,0.3-0.3c0.2-1.8,4.7-1.6,2.3-4.7c-2.8-3.6-6.9-5.4-9.7-3.7c-1.8,1.1-3.8,2.2-4.6,4.6c-0.8,2.3-2.9,3-5.2,2.1
	c-1.6-0.6-2.5-1.9-2-3.7c0.7-2.5,2.6-3.1,4.9-3.1c0.5,0,1,0.3,1.6,0.5c1.2,0.4,2.1-0.2,2.2-1.2c0.2-1.3-1.1-1.3-2.1-1.4
	c-0.4,0-0.8,0.1-1.2,0.2c-2.7,0.7-4.3-0.7-5.1-3.1c-0.5-1.6,0.1-3.2,1.8-3.8c2.4-0.9,4.3,0.2,5.2,2.3c1.7,3.9,4.8,4.1,8.7,3.8
	c-1.7-3.3-1.8-6.9-5.7-8.6c-1.9-0.8-2.4-2.8-1.1-4.7C53,2.5,55,2,56.9,3c1.8,0.8,2.3,2.5,1.2,4.2c-1.1,1.7-0.5,3.2,0.2,4.7
	c1.7,3.9,3.9,7.4,7.5,10.2c0.2-5.1,1-10.2-1.3-15.1c-0.2-0.4-0.5-0.7-0.7-1c-0.9-2-0.8-3.9,1-5.3c1.2-1,2.7-0.9,3.8,0.2
	c1.6,1.5,2.2,3.6,1,5.3c-3.8,5.5-0.2,10.9-1.2,16.4c2.5-0.1,2.9-1.5,3.3-2.5c1.9-4.7,5-9.1,3.4-14.7c-0.5-1.7,0.8-3,2.5-3.3
	c2-0.4,3.7,0.5,4.6,2.2c0.9,1.7,0.3,3.3-1.2,4.4c-4.1,2.9-4.1,2.9-4.9,7.2c5.1-0.5,8.3-3.2,9.9-8c0.7-2.1,2.2-2.9,4.2-2.4
	c1.9,0.5,3.4,1.6,3.3,3.8c-0.1,2.1-1.4,3.4-3.6,3.3c-1.4-0.1-2.8-0.5-3.9,0.7c-0.7,0.7-2.4,1-1.7,2.4c0.5,1.1,1.8,1.8,3.2,1.7
	c0.7,0,1.3-0.5,1.9-0.8c2.1-0.9,3.6,0.1,4.4,2c1,2.3-0.2,3.8-2.2,4.8c-1.9,1-3.5,0.5-4.7-1.3c-0.6-0.9-0.5-2.1-1.4-3
	c-3.9-3.4-12.2-0.7-13.4,4.3C72,24.1,72,24.5,72.5,25c0.3,0.3,0.7,0.5,1,0.8c1.8,1.8,4.2,4.2,2.2,6.4c-2.2,2.4-3.9-1.2-6.3-2.1
	c0.2,3.2,0.5,6.3,0.6,9.5c0.3,10.1,0.5,20.2,0.8,30.3c0.1,3.8,0.3,3.9,3.4,2.1c7.3-4.2,13.7-9.5,20.8-15.5c-3.4-0.2-5.8-0.7-7.6-2.7
	c-0.9-0.9-1.9-1.9-1.5-3.3c0.5-1.5,1.9-2,3.3-2.3C92,47.5,94.3,49.1,96.8,50C96.8,50,96.8,50,96.8,50z M65.6,28.2
	c-1.6,0.4-2.3,1.6-3.5,3.7C64.6,30.8,65.6,29.8,65.6,28.2l0.1-0.2L65.6,28.2z M77.4,163.1c2.2,6.1,9.6,10.5,16.8,10.4
	c1.1,0,2.5,0.2,2.9-1c0.4-1.1-0.6-2.1-1.4-2.9C90.5,165,84.6,162.6,77.4,163.1z M72.6,164.2c-7.1-0.6-13.1,1.8-18.4,6.3
	c-0.8,0.7-2,1.6-1.5,2.8c0.6,1.4,2.2,1.2,3.3,1C62.9,173.5,68.7,170.6,72.6,164.2z M71.3,76.6c4.6,5.4,9.6,8.1,15.7,8.4
	c1.3,0.1,3.1-0.3,3.6-1.6c0.5-1.5-1.1-2.4-2.2-3.2C83.5,76.9,78.2,75.6,71.3,76.6z M68.1,77c-6.3-1-13.4,2-16,6.3
	c-1.3,2.2-0.9,3,1.7,2.9C60.1,85.9,64,81.9,68.1,77z M43.5,148.3c-5,4.5-3.7,9.9-3.6,15.8C45,158.1,46,153.6,43.5,148.3z
	 M95.4,134.6c2.9,3.4,5.8,5.4,9.3,6.6c1.4,0.5,3.4,1.1,4.2-0.4c0.9-1.7-0.9-2.8-2.1-3.6C103.6,135.1,100,134.1,95.4,134.6z
	 M60,138.8c-4.3-0.6-7.7,0.1-10.7,2.1c-1.3,0.8-3,1.9-2.3,3.5c0.7,1.7,2.8,0.9,4.2,0.6C54.7,144.1,57.3,141.8,60,138.8z
	 M115.2,159.4c0.9-4.1,1.6-8.1-0.5-12.1c-0.5-1-1.2-2.2-2.4-2.1c-1.5,0.2-1.2,1.7-1.2,2.7C110.8,152.4,112.4,156.1,115.2,159.4z
	 M96.5,53.2c-1.8-2.3-3.8-3-6.1-3.1c-0.8,0-1.8,0-2,1c-0.2,0.7,0.5,1.2,1.1,1.6C91.5,54.2,93.7,54.5,96.5,53.2z M102.1,65.7
	c1.3-3.6-0.1-6.1-2.4-9C99.2,60.4,98.8,63.3,102.1,65.7z M42.1,57.9c-2.3,1.7-5,3.1-5.6,6.7C40.5,63.9,42,61.4,42.1,57.9z
	 M46.6,54.9c3.2,1.4,5.7,1.6,8.2-0.9C51.8,52,49.5,53.2,46.6,54.9z M15.6,117c-0.3-1.1-0.7-2.2-2-2.3c-0.9-0.1-1.6,0.5-1.6,1.5
	c0,1.3,0.9,2.1,2,2.3C15.1,118.7,15.6,118,15.6,117z M87.4,35.3c-0.1-1.1-0.7-1.7-1.7-1.8c-1.1-0.1-1.9,0.5-2,1.6
	c-0.1,1.2,0.8,1.7,1.8,1.9C86.5,37.2,87.1,36.4,87.4,35.3z M124.4,45c-0.1-2-0.8-2.6-1.9-2.6c-1.2,0-1.6,1.1-1.6,2.1
	c0,1,0.7,1.9,1.9,1.8C124,46.2,124.4,45.3,124.4,45z M101.2,29.5c-0.9,0.3-1.8,0.7-1.7,1.9c0,1,0.7,1.5,1.6,1.5c1.1,0,2-0.3,2.1-1.5
	C103.3,30.1,102.3,29.7,101.2,29.5z M54.7,108.5c-0.9,0-1.3,0.5-1.4,1.2c-0.1,0.9,0.1,1.7,1.1,1.9c1,0.2,1.6-0.4,1.6-1.4
	C56.1,109.3,55.5,108.7,54.7,108.5z M90.9,18.4c-1.1,0.1-1.7,0.8-2.1,1.7c-0.3,0.8,0.2,1.4,0.9,1.5c1.3,0.2,2.1-0.6,2.4-1.7
	C92.3,19.2,91.6,18.7,90.9,18.4z M149.4,133.5c-0.1-1.1-0.9-1.6-1.8-1.9c-0.7-0.2-1.5,0-1.6,0.8c-0.2,1.1,0.5,1.8,1.4,2.2
	C148.4,135,149,134.3,149.4,133.5z M55.3,38.5c-0.8,0.2-1.2,0.7-1,1.5c0.3,0.9,0.8,1.8,2,1.7c0.7-0.1,1.3-0.6,1-1.4
	C57.1,39.2,56.4,38.6,55.3,38.5z M123.9,108.5c0.6-0.4,1.3-0.9,1-1.9c-0.3-0.8-0.6-1.7-1.7-1.4c-0.8,0.2-1,0.9-0.9,1.7
	C122.3,107.7,122.7,108.4,123.9,108.5z M136,166.2c0.3,0.6,1,0.8,1.7,0.8c0.9-0.1,1.7-0.4,1.7-1.5c0-1-0.7-1.5-1.7-1.2
	C136.8,164.6,136.2,165.1,136,166.2z M62.5,119.5c0.9-0.2,1.6-0.7,1.5-1.6c-0.1-1-1-1.2-1.9-1.2c-0.7,0-1.5,0.2-1.5,1
	C60.6,118.9,61.5,119.3,62.5,119.5z M95.2,106.2c0.8-0.1,1.4-0.5,1.2-1.4c-0.2-1.1-1.1-1.6-2.2-1.5c-0.6,0.1-1.1,0.5-1,1.1
	C93.3,105.6,94,106.3,95.2,106.2z M38.1,116.9c-0.9,0.2-1.2,0.7-1.1,1.5c0.2,1.1,0.9,1.8,2,1.8c0.7,0,1.2-0.8,1.1-1.5
	C39.9,117.5,39,117.1,38.1,116.9z M52.6,32.8c-0.1-0.7-0.5-1.4-1.2-1.4c-1.3,0-1.5,1-1.4,2c0,0.8,0.5,1.3,1.3,1.2
	C52.2,34.4,52.5,33.7,52.6,32.8z M28.6,33.5c-0.7,0.3-1.4,0.6-1.1,1.5c0.3,0.9,0.8,1.9,2,1.7c0.7-0.1,1.4-0.5,1.2-1.4
	C30.4,34.3,29.7,33.7,28.6,33.5z M24.9,41.1c-0.3-0.8-1.1-1.4-2.1-1.4c-0.9,0-1,0.9-0.9,1.5c0.2,1,0.7,1.8,1.9,1.6
	C24.6,42.7,24.9,42,24.9,41.1z M108.7,33.6c-1,0.2-1.4,0.9-1.4,1.8c0,1,0.7,1.6,1.6,1.6c0.8-0.1,1.1-0.8,1.1-1.5
	C110,34.5,109.8,33.7,108.7,33.6z M46.6,16.2c0.9-0.1,1.4-0.5,1.3-1.3c-0.2-1.1-1-1.6-2.1-1.6c-0.6,0-1,0.5-1,1.1
	C45,15.5,45.6,16.1,46.6,16.2z M144,109.6c-0.1-0.6-0.3-1.1-1.2-1.2c-0.9,0-1.6,0.4-1.9,1.3c-0.2,0.7,0,1.4,0.9,1.5
	C142.9,111.3,143.6,110.8,144,109.6z M91.4,9c-0.2-1-1-1.5-2-1.5c-0.6,0-1.1,0.4-1.1,1c0,1.1,0.7,1.7,1.8,1.8
	C90.9,10.3,91.3,9.9,91.4,9z M151.1,117.5c0,0.8,0.5,1.3,1.3,1.3c1,0.1,1.5-0.6,1.5-1.5c0-0.8-0.2-1.8-1.3-1.6
	C151.6,115.8,151.2,116.7,151.1,117.5z M80.5,6c0.1-1.3-0.9-1.6-1.7-1.9c-0.7-0.2-1.4,0.3-1.4,1c-0.1,1.1,0.8,1.7,1.7,1.9
	C79.9,7.3,80.2,6.7,80.5,6z M9.6,166.6c-0.5,0.4-1.5,0.5-1.5,1.5c0,1,0.7,1.4,1.7,1.3c0.9-0.1,1.5-0.8,1.5-1.7
	C11.3,167,10.6,166.6,9.6,166.6z M18.8,174.7c-0.8,0.1-1.7,0.3-1.6,1.4c0.1,1,1,1.2,1.8,1.2c0.7,0,1.4-0.4,1.4-1.2
	C20.5,175.1,19.7,174.8,18.8,174.7z M88.1,112.4c0.1-0.7-0.2-1.4-1.1-1.4c-1.1-0.1-1.9,0.5-2.2,1.6c-0.2,0.6,0.3,1,0.9,1.2
	C86.9,113.9,87.7,113.6,88.1,112.4z M151.4,158.5c-0.9-0.1-1.3,0.4-1.3,1.2c-0.1,1,0.5,1.6,1.3,1.8c0.8,0.3,1.4-0.3,1.6-1
	C153.2,159.3,152.4,158.8,151.4,158.5z M94.6,29.4c-0.4-1-1.2-1.5-2.2-1.6c-0.7,0-1.3,0.6-1.1,1.3c0.2,1,1,1.7,2.1,1.6
	C94.1,30.7,94.6,30.3,94.6,29.4z M118.2,36.8c-0.2-0.9-0.8-1.5-1.7-1.5c-0.8,0-1.1,0.7-1,1.5c0.1,0.8,0.6,1.2,1.4,1.2
	C117.6,37.9,118.2,37.6,118.2,36.8z M29.1,116.5c0.1-0.9-0.5-1.2-1.3-1.3c-0.8-0.1-1.4,0.2-1.6,1c-0.2,0.8,0.3,1.4,1,1.6
	C28.3,117.9,28.9,117.3,29.1,116.5z M68,4.1c0-0.8-0.1-1.7-1.2-1.8c-0.9-0.1-1.2,0.5-1.3,1.2c-0.1,1,0.2,2,1.4,2
	C67.7,5.6,68,4.9,68,4.1z M54.8,7.5c0.6-0.3,1.5-0.6,1.6-1.6c0.1-0.9-0.6-1.2-1.3-1.1c-0.9,0.1-1.7,0.5-1.7,1.5
	C53.3,7,53.9,7.4,54.8,7.5z M9.5,141.9c-0.3-0.5-0.5-1.6-1.5-1.3c-0.9,0.2-1.1,1.1-1,2c0.1,0.7,0.5,1.4,1.2,1.3
	C9.2,143.7,9.4,142.9,9.5,141.9z M151.2,147.2c0.8-0.3,1.5-0.7,1.6-1.6c0.1-0.9-0.5-1.1-1.3-1.1c-0.9,0-1.6,0.5-1.6,1.5
	C150,146.7,150.3,147.2,151.2,147.2z M114,101.5c-0.2-0.8-0.9-0.9-1.6-0.9c-0.8,0.1-1.7,0.4-1.7,1.4c0,1.1,0.8,1.3,1.7,1.1
	C113.2,103,113.8,102.4,114,101.5z M4,155c0.9,0,1.4-0.4,1.5-1.2c0.1-1-0.7-1.5-1.5-1.6c-0.7-0.1-1.6,0.1-1.6,0.9
	C2.2,154.2,3,154.7,4,155z M133.4,103.2c-1,0.2-1.6,0.9-1.5,2c0.1,0.6,0.6,1,1.2,0.8c1-0.2,1.9-0.7,1.9-1.8
	C135,103.5,134.2,103.2,133.4,103.2z M24.5,47.8c-0.8,0.2-1.4,0.7-1.4,1.6c0,0.8,0.5,1.2,1.3,1.1c0.9-0.1,1.5-0.7,1.5-1.6
	C25.9,48.2,25.4,47.7,24.5,47.8z M17.1,54.3c-0.9,0.2-1.6,0.6-1.6,1.5c0,0.8,0.6,1.2,1.3,1.2c1-0.1,1.9-0.5,1.9-1.7
	C18.6,54.6,17.9,54.3,17.1,54.3z M45.6,111.2c-0.1-0.9-0.7-1.2-1.5-1.1c-0.9,0.1-1.7,0.5-1.6,1.5c0,0.7,0.6,1.3,1.4,1.2
	C44.8,112.7,45.3,112,45.6,111.2z M126,61.1c0-1-0.5-1.5-1.5-1.6c-0.7-0.1-1.5,0-1.6,0.8c-0.2,1.2,0.7,1.7,1.6,1.9
	C125.4,62.4,125.8,61.8,126,61.1z M23.2,69.9c0.9-0.1,1.6-0.5,1.7-1.4c0.1-0.6-0.2-1.1-0.8-1.2c-1-0.2-1.6,0.3-1.9,1.1
	C22,69.1,22.4,69.7,23.2,69.9z M119.4,68.6c-0.2-0.7-0.6-1.4-1.4-1.1c-1,0.3-1.6,1.1-1.4,2.2c0.1,0.6,0.6,1,1.2,0.9
	C118.9,70.4,119.4,69.7,119.4,68.6z M47.7,23.7c0-0.8-0.4-1.2-1.2-1.2c-0.9,0-1.7,0.5-1.8,1.3c-0.2,1,0.6,1.5,1.5,1.5
	C47,25.2,47.6,24.7,47.7,23.7z M43.6,36.4c-0.7,0.2-1.3,0.6-1.1,1.4c0.2,0.8,0.8,1.1,1.5,1c0.8-0.1,1.3-0.4,1.1-1.3
	C44.9,36.8,44.3,36.4,43.6,36.4z M70.4,26.9c1.3,1.6,1.8,2.9,3.7,3.1C73.6,28.2,72.6,27.3,70.4,26.9z M36.9,31.4
	c-0.8,0-1.3,0.3-1.4,1.1c0,0.9,0.5,1.2,1.3,1.3c0.7,0,1.4-0.1,1.4-1.1C38.2,32,37.6,31.6,36.9,31.4z M14.3,131
	c-0.2-0.7-0.6-1.3-1.4-1.3c-0.6,0-1,0.5-0.9,1.1c0.1,0.7,0.6,1.3,1.3,1.3C14,132.1,14.4,131.6,14.3,131z M123.5,51.1
	c-0.6,0.2-1.3,0.4-1,1.3c0.2,0.6,0.7,0.8,1.3,0.7c0.7-0.2,1.3-0.5,1.1-1.4C124.8,51.1,124.2,51,123.5,51.1z"/>
</svg>
