<?xml version="1.0" encoding="utf-8"?>
<!-- Generator: Adobe Illustrator 25.3.0, SVG Export Plug-In . SVG Version: 6.00 Build 0)  -->
<svg version="1.1" id="Layer_1" xmlns="http://www.w3.org/2000/svg" xmlns:xlink="http://www.w3.org/1999/xlink" x="0px" y="0px"
	 viewBox="0 0 108.4 229.2" style="enable-background:new 0 0 108.4 229.2;" xml:space="preserve">
<path d="M46.5,187.3c-1.2-1-2.5-2-3.6-3.1c-0.8-0.8-1.4-1.8-0.5-2.9c1-1.1,2-0.6,2.9,0.1c0.6,0.5,1.2,1,2,1.6c0.7-2.3,0-3.6-2.3-4.1
	c-1.4-0.3-2.8-1-3.8-2.3c-0.6-0.8-1-1.8-0.3-2.8c0.8-1,1.8-0.6,2.7-0.1c1,0.6,1.9,1.4,3.1,2.2c0.4-1.8-0.3-3-1.5-4
	c-1.4-1.2-2.7-2.4-3.4-4.1c-0.6-1.3-0.6-2.6,0.8-3.4c1.3-0.7,2.3,0,3.1,1.1c0.7,1.1,1.3,2.2,2,3.6c1.4-1.5,2.4-3.6,4.9-2.3
	c0.9,2.7-0.7,4.2-2.5,5.5c-1.3,0.9-2.2,1.9-1.2,3.8c0.4-0.5,0.7-0.8,1.1-1.2c0.7-0.8,1.4-1.7,2.5-1c1.2,0.7,0.9,1.9,0.5,3
	c-0.5,1.3-1.4,2.4-2.6,3.2c-1.4,0.9-1.5,1.8-0.6,3.2c0.5-0.4,0.8-0.6,1.1-0.9c1-0.9,2.3-1.8,3.4-0.5c1.2,1.4-0.2,2.4-1.1,3.2
	c-0.9,0.8-2,1.3-3,2c-0.5,0.4-0.5,1.1-0.3,1.7c0.2,0.5,0.6,0.4,1,0.2c1.1-0.6,2.2-0.7,2.8,0.6c0.5,1.2-0.2,2.3-1.1,2.9
	c-4.2,2.9-3.2,7.5-1.9,10.6c2.1,5.3,6.4,9.6,10.3,14.3c0.3-0.8,0.4-1.1,0.4-1.3c0.4-11.4,0.9-22.7,0.5-34.1c0-0.8-0.1-1.7-0.5-2.3
	c-2.9-4.3-5.8-8.5-8.8-12.8c-1.3-3.8-3.7-7.1-5.4-10.7c-2.5-5.2-5-10.5-6.8-16c-0.8-2.3-1.9-4.1-3.6-5.7
	c-5.7-5.5-11.5-10.9-18.4-14.8c-1.5-0.8-2.7-1.4-4.6-0.3c-2.5,1.5-5.5-0.1-6.2-2.7c-0.7-2.4,0.8-5,3.2-5.6c2.8-0.7,5,0.9,5.5,4
	c0.2,1,0.3,1.9,1.4,2.4c7.1,3.6,13.1,8.8,18.8,14.2c0.2,0.2,0.5,0.3,1,0.6c0-2.1-0.9-3.8-1.4-5.5c-4.3-15.5-11.3-29.7-20.4-42.9
	c-1-1.4-1.9-2.3-3.8-2.2c-2.8,0.2-4.7-2.2-4.5-4.8c0.2-2.6,2.8-4.5,5.3-4c2.6,0.5,4.3,3,3.4,5.7c-0.5,1.6-0.4,2.7,0.6,4.1
	c9.5,13.4,16.5,28.1,21,43.9c4.8,16.9,11.7,32.7,21.6,47.3c0.4,0.7,0.9,1.3,1.4,1.9c0.1,0.1,0.3,0.2,0.8,0.4c0.4-3.3,0.1-6.6,0-9.8
	c-0.9-19.2-2.9-38.3-6.2-57.2c-0.7-3.8-3.2-6.1-5.4-8.7c-1-1.2-2.5-0.3-3.7-0.4c-2.1-0.2-4.3-0.2-3.6-3.3c0.2-0.9-0.3-1-0.9-1.1
	c-0.1,0-0.2,0-0.3,0c-1.8-0.3-4.5,0.2-4.2-2.4c0.3-2.4,2.9-1.3,4.8-1.4c-1-2.1-2.2-3-4.4-1.9c-1.3,0.7-2.7,0.8-4.1,0.5
	C32,90,31,89.4,31.1,88.1c0-1.3,1.1-1.5,2.2-1.6c1-0.1,2-0.1,3.2-0.2c-0.4-1.8-1.7-2.1-3.1-2.2c-1.8-0.1-3.6-0.3-5.2-1.1
	c-1.3-0.7-2.1-1.7-1.4-3.2c0.6-1.4,1.9-1.4,3.1-1c1.2,0.4,2.4,0.9,3.5,1.4c0.6-0.8,0.4-1.5,0.4-2.2c0.1-1.2,0.6-2.2,2-2.1
	c1.3,0.1,1.9,1.1,2,2.3c0.1,1.2-0.1,2.4-0.4,3.6c-0.4,1.2-0.5,2.4,1.1,2.9c0.1-0.2,0.3-0.3,0.4-0.4c0.3-1.2-0.2-3.1,1.6-3
	c1.9,0,2.2,1.8,2.3,3.4c0.1,0.9,0,1.8-0.3,2.7c-0.5,1.4-0.1,2.3,1.3,3c0.9-0.6,0.4-1.8,0.9-2.6c0.6-0.8,1.1-1.5,2.2-1.1
	c0.9,0.3,1.1,1.1,1.1,1.9c0,1.4-0.6,2.7-1.1,4c-0.4,1-0.1,1.9,0.8,2.3c1.2,0.6,0.7-0.8,1-1.2c0.9-1.3,2.1-0.7,3-0.5
	C51,79.7,43.3,70.7,34,62.7c-1.3-1.1-2.7-2.1-4-3.2c-1.1-0.9-2-1.2-3.5-0.7c-2.4,0.8-4.4-0.4-4.9-2.6c-0.4-1.9,0.9-3.9,2.8-4.3
	c2.2-0.5,3.8,0.7,4.3,3.4c0.2,1,0.4,1.7,1.2,2.2c6,4.2,11.2,9.3,15.8,15.2c0.6-0.9,0.1-1.5-0.1-2c-3-9.3-6.6-18.5-10.8-27.3
	c-0.8-1.6-1.5-3-3.8-3.2c-2.7-0.2-4.1-3.1-3.2-5.7c0.8-2.4,3.4-3.6,5.8-2.7c2.4,0.9,3.9,3.7,2.5,5.8c-1.3,2.1-0.6,3.6,0.3,5.5
	c6,12.2,10.3,24.9,14,37.9c0.3,1.1,0.7,2.2,1.6,3.3c0.7-4.9,1.5-9.8,2.2-14.7c0.2-1.1-0.7-1.5-1.3-2.2c-2-2.2-1.8-5.3,0.3-6.9
	c2-1.5,5-1,6.4,1c1.5,2.2,0.8,5.4-1.8,6.6c-1.5,0.7-2,1.7-2.2,3.2C55,77,54.1,82.5,53.2,88c-0.2,1.2-0.3,2.4,0,3.6
	c2.4,10.3,4.3,20.8,5.8,31.3c0.1,0.4,0.2,0.7,0.8,1.2c1.3-4.7,2.7-9.3,3.9-14c4-15.7,7-31.6,8.8-47.8c0.5-4.5-0.6-8.8-1.9-13
	c-2.9-9.2-7.7-17.3-13.3-25.1c-1.1-1.5-2.3-1.3-3.7-1.3c-1.6,0-2.7-0.9-3.1-2.4c-0.4-1.5-0.2-3,1.2-4c1.2-0.9,2.6-1,4-0.3
	c1.2,0.6,2,1.7,1.8,2.9c-0.5,2.3,0.8,3.7,2,5.4c5.8,8.2,10.7,16.9,13.7,26.6c1-7.8,1-15.5,0.6-23.3c-0.2-5.4-0.8-10.8-1.6-16.1
	c-0.2-1.5-0.6-2.5-2.2-3.2c-2.8-1.2-3.6-4.1-2.1-6.5c1.4-2.3,4.4-2.8,6.5-1.2c2.1,1.6,2.3,4.6,0.3,6.8c-0.7,0.8-1.3,1.4-1.1,2.6
	c1.6,9.7,2,19.5,2,29.3c0,0.3,0.2,0.5,0.3,1c2-1.9,3.7-3.6,1.6-6.4c-0.6-0.8-0.8-1.8-1-2.8c-0.3-1.5-0.8-3.1,1-4
	c1.8-0.9,2.3,0.9,3.2,1.9c-0.2,1.2-0.1,2.4,0.3,4c1.4-1.9,0.6-2.9-0.3-4c-0.4-1.6-1-3.2-1.3-4.9c-0.2-1.1,0.2-2,1.5-2.3
	c1.1-0.2,1.7,0.5,2.1,1.4c0.4,1.2,0.7,2.4,1.2,3.8c1.5-2.4,2-4.4,0.4-6.8c-0.8-1.2-1.3-2.7-1.9-4.1c-0.3-0.8-0.3-1.6,0.6-2.1
	c0.8-0.5,1.6-0.1,2.2,0.4c1.1,0.8,1.6,2.1,1.9,3.3c0.3,1.3,0.7,1.8,2,0.7c0.9-0.8,2.1-1.5,3.1-0.1c1,1.4,0.4,2.8-0.8,3.6
	c-1.3,0.9-2.7,1.6-4.1,2.4c0,0.9,0.7,0.6,1.1,0.6c1.1,0.1,2,0.5,2.2,1.7c0.2,1.3-0.5,2.1-1.6,2.6c-1,0.4-2.1,0.7-3.1,0.9
	c-0.9,0.2-1.5,0.4-1.7,1.6c1,0.6,2.5,0.1,3.5,0.9c0.7,0.6,1.5,1.1,1.3,2.1c-0.2,1-1.1,1-1.9,1.2c-0.2,0-0.4,0.1-0.6,0.1
	c-6.2-1.5-7.7,3.9-10.5,7.3c-0.3,0.4-0.4,1.1-0.5,1.7c-0.4,9.2-1.4,18.4-2.6,27.5c0,0.4,0,0.8,0.1,1.9c1-1.5,1.7-2.4,2.4-3.4
	c4.2-6.7,8.4-13.4,12.6-20.1c0.9-1.4,1.3-2.6,0.5-4.4c-1.3-2.7,0.2-5.3,3-6.1c2.4-0.6,4.9,0.9,5.5,3.4c0.6,2.6-1.1,5.2-3.9,5.3
	c-1.9,0.1-2.8,1-3.7,2.4c-5.3,8.9-10.6,17.6-16.6,26c-0.3,0.4-0.7,0.8-0.7,1.3c-0.9,4.7-1.8,9.4-2.8,14.8c3.6-1.8,6.2-3.8,8.6-6.2
	c0.7-0.7,0.2-1.5,0.1-2.2c-0.3-2.5,1-4.3,3.3-4.4c2.1-0.1,3.7,1.3,3.8,3.3c0.1,2.2-1.3,4-3.6,3.8c-1.6-0.1-2.4,0.6-3.3,1.5
	c-2.1,1.9-4.2,3.7-6.7,5c-2.1,1-3,2.5-3.5,4.8c-1.6,7.2-3.5,14.3-5.4,21.8c2.4-1,4-2.5,5.8-3.8c0.9-0.7,0.5-1.6,0.2-2.5
	c-0.5-1.3-1-2.6-1-4c0-2,0.5-3.5,3-2.6c0.5,0.2,0.7,0.3,1.3,0c2.7-1.5,3.1-1.3,3.8,1.5c0.1,0.5-0.1,1.4,0.8,1.2
	c0.8-0.2,1-0.9,0.8-1.7c-0.2-1.1-0.6-2.2-0.5-3.2c0.1-1.6,0.5-3.6,2.5-3.4c2.1,0.2,1.5,2.1,1.3,3.6c-0.1,0.4-0.1,0.8-0.1,1.3
	c1.4-0.6,2.2-1.3,1.4-2.8c-0.8-1.5-0.7-3.1-0.5-4.7c0.1-1.1,0.6-2.3,2-2.2c1.4,0.1,1.7,1.2,1.9,2.3c0.2,0.9-0.3,1.8,0.3,2.7
	c1.6-0.8,2.5-1.8,1.6-3.7c-0.6-1.4-1.1-2.8-1-4.3c0.1-1.2,0.5-2.2,1.9-2.3c1.2-0.1,1.8,0.8,2,1.9c0.2,1,0.3,1.9,0.4,3
	c1.6-0.5,1.4-1.6,1.1-2.7c-0.5-1.8-0.5-3.6,0-5.3c0.3-0.9,0.7-2.2,1.4-2.2c2.5,0,2.5-1.7,2.8-3.4c0.2-1.1,0.7-2.2,2-2.4
	c1.6-0.3,1.6,1.3,2.3,2.5c0.2-1.9,0.3-3.4,0.6-4.9c0.2-0.9,0.7-1.7,1.7-1.9c1.1-0.2,1.7,0.4,1.8,1.5c0.1,1.2,0.8,1.2,1.7,0.9
	c1.2-0.4,2.3-0.2,2.6,1.2c0.3,1.3-0.4,2.1-1.5,2.6c-1,0.4-2.1,0.8-3.2,0.9c-1.9,0.1-2.9,1.2-3.2,2.9c0.8,0.7,1.5,0,2.3,0.1
	c1.2,0.2,2.2,0.6,2.2,2c0,1.6-1.1,2-2.4,2c-0.8,0-1.6-0.1-2.4-0.4c-1.7-0.6-2.6,0.1-3.1,1.8c0.7,0.7,1.7,0.2,2.5,0.3
	c0.9,0.1,1.9,0.3,1.9,1.5c0.1,1.2-0.7,1.9-1.8,2c-1,0.1-2,0.1-3-0.2c-1.9-0.6-3,0.1-3.7,1.9c1.1,0.5,2.2-0.2,3.2-0.2
	c1.1,0.1,2.4-0.1,2.6,1.4c0.2,1.4-1,1.8-2.1,2.1c-1.7,0.5-3.5,0.7-5.3,0.4c-1.1-0.2-2.2-0.4-2.7,1.1c0.7,0.6,1.3,0.1,2,0.1
	c1.3-0.1,2.6,0,2.8,1.6c0.2,1.4-0.8,2.1-2.1,2.5c-1.8,0.6-3.5,0.6-5.3,0.2c-1.1-0.2-2.1-0.7-3.1,0.8c1.6,0.5,3.3,0.1,4.7,0.8
	c0.8,0.4,1.7,0.9,1.6,2c-0.2,1.1-1.2,1.3-2.1,1.3c-1.9,0.2-3.8-0.3-5.6-0.8c-1-0.3-2.1-1-3.1,0.5c1.1,0.2,2.1,0.4,3.1,0.7
	c0.9,0.3,1.6,0.9,1.4,2c-0.2,1.1-1.1,1.3-2.1,1.3c-1.4-0.1-2.7-0.6-4-1.1c-0.9-0.4-1.9-0.8-2.9,0.5c1.3,0.4,2.5,0.7,3.7,1.1
	c1,0.4,1.7,1.1,1.5,2.3c-0.2,1.3-1.3,1.4-2.3,1.4c-1.7,0-3.2-0.6-4.5-1.4c-1.4-0.8-2.6-0.6-3.8,0.3c-1.6,1.2-3.2,2.4-4.9,3.4
	c-3,1.7-3.6,4.6-3.3,7.5c2.3,19.6,3.4,39.2,3.4,59c0,0.4,0,0.8,0.4,1.2c1.1-4.4,2.2-8.8,3.3-13.3c2.9-11.7,6-23.2,10.4-34.4
	c0.4-1.1,0.3-2-0.1-3.1c-1.2-2.8,0-5.5,2.7-6.3c2.7-0.8,5.4,0.9,5.8,3.7c0.4,2.6-1.6,5-4.6,5.2c-0.9,0.1-1.9-0.3-2.3,0.9
	c-2.1,5.9-4.6,11.7-5.6,18l-0.1,0l0.1-0.1c2.2-1.9,4.4-3.7,6.6-5.6c0.8-0.7,0.6-1.6,0.7-2.5c0.5-2.3,2.3-3.6,4.3-3.2
	c2,0.4,3.3,2.3,2.9,4.2c-0.4,2.1-2.2,3.5-4.4,2.8c-1.8-0.5-2.8-0.1-4,1.1c-0.2,0.2-0.4,0.4-0.7,0.6c-5,3.9-8.2,8.8-9.4,15.3
	c-1.3,7.3-3.4,14.5-5.2,21.8c-0.3,1.1-0.5,2.1-0.4,3.2l-0.1,0.1l0.1-0.1c3.6-1.6,2.5,1.8,3.6,3.4c1.7-1.5,3-2.7,1.5-5.2
	c-0.6-1-0.9-2.2-1.1-3.4c-0.2-1.1-0.1-2.3,1.3-2.7c1.2-0.3,1.8,0.6,2.3,1.5c0.4,0.9,0.8,1.8,1.2,2.8c1.6-0.7,1.5-1.7,0.7-2.9
	c-0.9-1.3-1.6-2.8-1.6-4.5c0-1,0.3-2.1,1.5-2.4c1.3-0.3,1.7,0.7,2.1,1.7c0.4,1,0.3,2.2,1,3.1c1.3-0.7,0.7-1.7,0.4-2.6
	c-0.4-1.1-0.9-2.2-1.2-3.4c-0.3-1-0.1-2.1,1.1-2.4c1.2-0.4,1.9,0.5,2.2,1.5c0.2,0.6,0.3,1.3,0.5,2.1c2-1.8,2-1.8,0.8-3.7
	c-0.7-1.1-1.3-2.2-1.4-3.6c-0.1-0.9-0.2-1.9,0.9-2.3c1.1-0.4,1.9,0.3,2.5,1.2c0.5,0.8,0.7,1.6,1.1,2.5c1.1-1,1.6-1.9,0.6-3.1
	c-0.2-0.2-0.4-0.5-0.5-0.7c-0.8-1.4-2-3-0.3-4.2c1.8-1.3,2.3,1,3.3,1.9c1-0.4,0.8-1.1,0.3-1.7c-0.5-0.6-1.1-1.2-1.5-1.9
	c-0.8-1.2-1.5-2.6,0.1-3.7c1.4-0.9,2.4-0.1,3.2,1.2c0.1,0.3,0.3,0.5,0.4,0.8c1.3-1.1,1.4-1.9,0.1-2.8c-1-0.7-1.9-1.5-2.5-2.5
	c-0.6-1-0.8-2.1,0.3-3c1.2-0.9,2.2-0.4,3.1,0.6c0.5,0.6,0.5,1.8,1.6,2c0.8-1.1-0.3-1.6-0.7-2.3c-0.7-1-1.4-2-1.4-3.2
	c-0.1-1.4,0.4-2.7,1.9-3c1.6-0.3,2,1,2.3,2.2c0.2,0.6,0.3,1.2,0.3,1.8c0,1.5,0.5,2.2,2.2,1.9c1.5-0.3,3.4-0.1,3.1,2
	c-0.3,2.1-2.2,1.8-3.6,1.4c-2-0.6-2.7,0.2-3,2.3c1.5-0.4,2.8-0.9,4.1-1.2c1.1-0.3,2.3-0.2,2.8,1.1c0.5,1.3-0.2,2.2-1.4,2.6
	c-1.1,0.4-2,0.6-1.4,2.2c0.2,0.4-0.4,1.3-0.9,1.8c-1.1,1.1-2.2,1.9-1.8,4c0.3,1.5-1.4,2-2.7,2.3c-1.5,0.3-3,0.4-4.5,0.5
	c-0.8,0.1-1.5,0.5-1.5,1.3c0,1.2,1,0.5,1.6,0.6c0.5,0,1-0.1,1.5,0c0.9,0.2,1.7,0.6,1.8,1.7c0.1,0.9-0.5,1.5-1.2,1.9
	c-1.3,0.7-2.7,1-4.1,0.7c-2.5-0.6-3.4,0.7-4.1,2.8c1.3,0.7,2.3-0.3,3.5-0.2c1.1,0.1,2.4-0.2,2.6,1.3c0.2,1.4-0.8,2.2-2.1,2.5
	c-1.5,0.4-3,0.2-4.4-0.3c-1.4-0.5-2.3-0.3-2.6,1.4c1.3,0.4,2.4-0.3,3.5-0.3c1.1-0.1,2.4-0.1,2.8,1.2c0.5,1.4-0.5,2.2-1.7,2.7
	c-0.8,0.3-1.7,0.5-2.8,0.8c0.8,1,2.6,1.4,1.8,3c-0.7,1.2-2.1,1.1-3.3,1c-1.5-0.1-3-0.4-4.4-0.8c-1.6-0.5-2.4,0-3,1.7
	c1.8,0.1,3.4-0.5,4.9,0.2c0.9,0.4,1.9,0.9,1.8,2.1c-0.1,1.4-1.3,1.3-2.3,1.3c-1.7,0-3.4-0.1-5.1-0.2c-0.7,0-1.6-0.5-2.1,0.9
	c1.6,0.2,3.2-0.5,4.7,0.2c1.2,0.6,2.5,1.3,2.2,2.8c-0.3,1.7-1.9,1-3,1c-0.2,0-0.4-0.1-0.6-0.1c-5.9-1-8.2,0.9-8.6,7
	c-0.2,3.4-0.4,6.8-0.6,10.2c-0.1,0.7,0.1,1.9-0.9,1.9c-1.1,0-0.9-1.2-0.7-1.9c1.3-5-0.7-8.6-3.9-12.4c-6.8-8-12.3-17-17.6-26.1
	c-1.2-2.1-5.6-4.2-7.8-3.9c-0.9,0.2-1.2,1-1.7,1.6c-0.8,1-1.5,2.2-3.1,2c-0.7-0.1-1.3-0.6-1.5-1.3c-0.3-1.6,0.9-2.2,2-3
	c0.1-0.1,0.2-0.3,0.3-0.5c-1-1.2-1.9-1-3,0c-1.3,1.1-3.1,2.4-4.6,1.5c-2-1.2-3.5-3-6.1-3.4c-1.1-0.2-0.5-1.9,0.5-2.6
	c0.8-0.6,1.9-0.9,2.9-1.4c-0.9-1-1.6-0.3-2.3-0.1c-1.1,0.3-2.1,0.6-3.2,0.8c-1.2,0.2-2.5,0.2-3.2-1c-0.8-1.2,0.1-2.2,1-3
	c-6.2-1.9-6.7-2.6-4.3-5.3c-1.5-1.1-3.9-2-3.2-4.1c0.8-2.6,3-0.2,4.7-0.3c-0.4-1.5-1.8-1.3-2.6-1.8c-0.9-0.6-1.9-1.1-2.8-1.8
	c-0.9-0.8-1.3-1.8-0.7-2.9c0.7-1.3,1.8-0.9,2.9-0.3c0.3,0.2,0.7,0.3,1,0.5c0.7-0.9,0.3-1.8,0.4-2.7c0.2-1.1,0.4-2.3,1.8-2.4
	c1.4-0.1,2.2,0.8,2.5,2.1c0.6,2.1-0.4,4.2-0.2,6.2l-0.1,0.1l0.1-0.1c0.9-0.8,1.9-1.2,3-0.3c1,0.8,0.8,2,0.5,3.1
	c-0.3,1.3-1.4,2.4-1.4,3.7c1,0.5,1-0.3,1.2-0.6c0.6-1,1.4-1.4,2.5-1c1.1,0.4,1.3,1.4,1.3,2.5c0,1.4-0.9,2.7-0.6,4.3
	c1-0.3,0.6-1.1,0.8-1.6c0.2-0.8,0.5-1.5,1.5-1.7c0.9-0.1,1.7,0.4,1.8,1.2c0.3,1.4,1,1.2,2.2,1.3c2.1,0.2,1.7,2.3,1.9,3.8
	c0.2,1.1-0.8,2.5,0.8,3.5c-0.1-5.3-0.2-5.3,7.2-4.9c0.2-1.6-1-2-2.1-2.4c-1.5-0.5-3-1.2-4.2-2.2c-0.6-0.5-1.6-1.3-1.3-1.9
	c2.1-3.1-0.9-2.7-2.2-3.5c-0.5-0.3-1.3-0.8-1.3-1.2c0-1.9-0.6-3.3-1.8-4.9c-1.2-1.6,1.1-2.2,2.6-2.6c0.7-0.2,2,1,2.1-0.6
	c0.1-1.1-1.1-1.2-1.9-1.5c-1.7-0.6-3.4-1.1-5-1.9c-1.1-0.5-2-1.5-1.3-2.9c0.6-1.3,1.9-1.4,3.1-1c0.9,0.3,1.8,0.7,2.7,1.1l0,0.1
	l-0.1,0c0.2-1.8-0.9-2.7-2.4-3.3c-2.1-0.9-3.8-2.2-4.3-4.6c-0.2-1-0.4-2.3,0.8-3c1.1-0.6,1.9,0.3,2.6,1c0.5,0.5,0.9,1,1.4,1.5
	c1.1-0.1,0.9-1.1,1.2-1.6c0.5-0.8,1.4-1.4,1.9-0.9c1.3,1.4,3.2,1.7,4.4,3c1.1,1.1,0.8,2.8,0.7,4.3c-0.2,2.1-0.9,4.1-2,5.9
	c0,0.2-0.4,0.3-0.1,0.5c0-0.2,0-0.4,0-0.6c4.1-0.6,4.8,0.2,4.3,5.2c3-0.4,4,0.8,3.2,3.7c-0.4,1.5-1.2,2.8-2.1,4
	c-0.8,1.1-0.9,2.2,0.3,3.4c0.4-1.3,0.6-2.5,1-3.7c0.3-0.9,0.8-2,2-1.9c1.3,0.1,1.7,1.2,2,2.3c0.5,1.7-0.9,3-1.2,4.5
	c-0.2,0.2-0.4,0.4-0.6,0.6c-1.1,0.6-2.3,1.2-1,3.3c0.4-1.5,0.7-2.4,0.9-3.3c0.2-0.2,0.4-0.4,0.6-0.6c1.2-0.1,2.5-0.6,3.3,0.6
	c0.9,1.3,0.4,2.8-0.5,3.6c-3.2,3-1.7,5.7,0,8.7c3.4,5.9,6.6,11.8,10.5,17.5c1.1-4.2,0.9-5-2.3-7.5c-1.1-0.9-2.3-1.8-1.8-3.4
	C44,187.4,45.3,187.3,46.5,187.3c0.2,0.2,0.4,0.5,0.5,0.7l0.2,0l-0.3,0C46.8,187.8,46.7,187.5,46.5,187.3z M84.9,17.5
	c-0.1-0.2,0.2-0.6-0.3-0.4C84.7,17.2,84.8,17.4,84.9,17.5c0.1,0.1,0.1,0.2,0.1,0.2c0,0.1,0.1,0.1,0.2,0.1
	C85.1,17.8,85,17.6,84.9,17.5z M50.7,177.1c0.1,0,0.2-0.1,0.2-0.1c0,0,0-0.1,0-0.2C50.9,176.9,50.8,177,50.7,177.1
	C50.8,177.1,50.7,177.1,50.7,177.1z M89.1,163.3L89.1,163.3c0-0.5,0-1-0.5-1.2c-0.1,0-0.4,0.1-0.4,0.2
	C88.2,162.9,88.7,163.1,89.1,163.3z M28,159.8c-0.6,0.4-0.9,0.7-0.1,1.4C27.9,160.7,27.9,160.2,28,159.8c0-0.1,0.1-0.2,0.1-0.3
	c0-0.1,0-0.1,0-0.2C28.1,159.5,28,159.7,28,159.8z M3.3,160.3L3.3,160.3c-0.1-0.5-0.4-0.8-0.9-0.9c-0.1,0-0.3,0.3-0.2,0.3
	C2.4,160.2,2.8,160.3,3.3,160.3z M44.1,176.5l0.1,0.2L44.1,176.5c-0.4-0.3-0.7-0.6-1-0.9c-0.1,0.1-0.2,0.3-0.2,0.4
	C43.2,176.4,43.6,176.5,44.1,176.5z M27.9,169.9c0,0.3,0.1,0.4,0.2,0.2C28,170,28,170,27.9,169.9c-0.4-0.7-1-1.2-2.4-1.2
	C26.5,169.5,27,170,27.9,169.9z M45.9,184.2l0.1,0.1L45.9,184.2c-0.5-0.4-0.7-1.2-1.7-1.2C44.5,183.9,45.1,184.2,45.9,184.2z
	 M81.9,27.1L81.9,27.1c0.1-0.9,0.2-1.8-0.7-2.8C81,25.6,81.4,26.4,81.9,27.1z M94.5,171.2c-1,0.1-1.9,0.4-2.4,1.6
	C93.4,172.6,94.2,172.2,94.5,171.2l0.1-0.2L94.5,171.2z M20.1,151.9L20.1,151.9c-0.8-1.2-1.8-1.9-3.9-1.9
	C17.5,151.5,18.7,151.9,20.1,151.9z M71.7,111.7l0-0.1L71.7,111.7c-0.3,1-0.6,2.1,0,3.4C74,113.7,72.9,112.7,71.7,111.7z M36,184.1
	c-1.2-4.4-1.8-4.9-6.1-5c-0.8,0-1.7-0.3-1.9,0.8c-0.2,0.9-0.1,1.9,0.9,2.3C31.1,183.1,33.4,184,36,184.1z M52.3,95
	c-1.2,2.7-1.8,4.9,1.4,6.6C53.2,99.3,52.8,97.3,52.3,95z M23.8,149.9c1.3-2.6,1.9-4.6,0.9-7.4C23.8,145.1,23.5,147.1,23.8,149.9z
	 M63.4,209.6c2.4-2,1-3.7,0-5.3C63.4,205.9,63.4,207.5,63.4,209.6z M18.8,144.4c-1-1.8-1.7-3.1-3.4-4
	C15.7,142.5,16.6,143.6,18.8,144.4z M45.8,169.9c-0.4-1.5-0.7-2.9-2-3.7c-0.1,0-0.6,0.3-0.6,0.5c0.1,1.4,1,2.2,2,3.1
	C45.3,169.8,45.4,169.8,45.8,169.9z M26.7,157.5c0.8-1.4,1.5-2.4,0.8-3.8c-0.1-0.2-0.6-0.3-0.7-0.2c-1.1,1-0.6,2.2-0.5,3.3
	C26.3,156.8,26.4,156.9,26.7,157.5z M79,32.7c0.2-1.2,0.3-2.4-1-3.7C77.8,30.7,78.3,31.7,79,32.7z M94.3,169
	c-3.1-0.2-3.1-0.2-3.5,1.9C91.9,170.4,92.8,169.9,94.3,169z M32.3,82c-1.5-1-2.5-1.9-4.3-1.2C29.3,81.9,30.4,82.4,32.3,82z
	 M6.7,154.8c-0.6,1.6-0.5,2.7,0.4,4.2C7.6,157.4,7.7,156.4,6.7,154.8z M33.7,164.4c-1.1,1.4-1.1,2.5-1.3,4.1
	C33.7,167.2,34.4,166.3,33.7,164.4z M91.8,105.4c-1.7-0.4-2.7-0.2-3.6,0.7C89.3,106.4,90.3,106.6,91.8,105.4z M36.4,170.5
	c-1.4,1-1.7,1.9-1.6,3.3C36,173.1,36.4,172.2,36.4,170.5z M21.8,162.8c0.9,1.1,1.8,1.5,3.3,1.2C24.1,163,23.3,162.3,21.8,162.8z
	 M92.3,159.4c0.3-1.5,0.1-2.3-0.7-3.3C90.8,157.5,91.4,158.2,92.3,159.4z M83.3,103.4c0.2-1.2,0.8-2-0.3-2.5
	C82.6,101.7,82.4,102.4,83.3,103.4z M30.7,158.7c-1.2,1-1.1,2.1-1,3.2C30.5,161.2,31.1,160.3,30.7,158.7z M6,171.5
	c1.1,0.9,2.2,0.9,3.3,0.5C8.3,171.5,7.4,170.9,6,171.5z M93.7,89.4c-1,1.1-1,2.2-0.7,3.6C93.8,91.8,94.1,90.8,93.7,89.4z M79,195
	c1.2,0.2,2.2,0.4,3.1-0.7C80.8,193.9,79.9,194.1,79,195z M86.7,28.6c1,0.1,1.7-0.1,2.1-1.2C87.6,27.1,87.1,27.6,86.7,28.6z
	 M20.4,158.4c1,0.6,1.7,0.8,2.5,0.2C22.2,157.8,21.5,157.8,20.4,158.4z M51,168.1c-1.1,0.8-1.6,1.3-1.8,2.8
	C50.2,170.1,50.8,169.7,51,168.1z M78,196.5c-1.4-0.3-2.1-1.2-3-0.3c-0.1,0.1-0.2,0.5-0.1,0.5C75.8,197.3,76.6,197.1,78,196.5z
	 M3.8,165.9c0.7,1.1,1.3,1.5,2.5,1.3C5.6,166.5,5.1,166,3.8,165.9z M88.1,183c-1.1-0.5-1.9-0.3-2.6,0.5
	C86.4,183.8,87.1,183.7,88.1,183z M97.5,84.5c-0.7,0.8-0.6,1.6-0.2,2.5C97.7,86.2,98.1,85.5,97.5,84.5z M47.3,191
	c-0.8-0.9-0.9-1.8-2-1.7C45.4,190.2,45.9,190.7,47.3,191z M35.3,88.5c-0.6-0.6-1.1-0.6-1.6-0.4c-0.1,0-0.3,0.4-0.2,0.5
	C34,88.9,34.6,88.9,35.3,88.5z M28.4,176.8c0.7,0.3,1,0.5,1.3,0.5c0.4,0,1,0.5,1-0.5C30.1,176.6,29.5,176.2,28.4,176.8z M74.8,118.6
	c0.6,0.6,1.2,1.1,2,0.4C76.2,118.2,75.6,118.2,74.8,118.6z M69.6,112.5c0.1-0.2,0.2-0.4,0.2-0.5c-0.1-0.4,0.1-1.3-0.6-0.9
	C68.6,111.4,68.9,112.2,69.6,112.5z M18,179.8c-1.3,0.1-2,0-2.7,0.8C16.2,180.8,16.9,180.9,18,179.8z M35.5,77.9
	c-0.5,0.7-0.5,1.3,0,2C36.2,79.2,36.3,78.6,35.5,77.9z M72.8,203.6c-0.2,0.2-0.1,0.4,0.2,0.4c0.6,0,1.1,0,1.7,0
	c0.3,0,0.4-0.1,0.2-0.4C74.2,203.1,73.5,203.2,72.8,203.6z M96,89.1c-0.2,0.5-0.4,0.7-0.3,1c0.1,0.3-0.6,1.2,0.3,1
	C96.5,91,96.9,90.2,96,89.1z M89.8,174.8c0.1-0.6-0.2-0.7-0.5-0.7c-0.5,0-0.7,0.3-0.9,0.7c-0.1,0.4,0.1,0.6,0.4,0.5
	C89.2,175.3,89.5,175,89.8,174.8z M84.8,189.7c-0.1-0.4-0.4-0.3-0.7-0.3c-0.3,0.1-0.6,0.2-0.7,0.4c-0.2,0.4,0.2,0.4,0.5,0.4
	C84.3,190.2,84.7,190.1,84.8,189.7z M89.3,21.6c1.1,0.2,1.4-0.4,1.5-1.4C89.9,20.5,89.5,20.9,89.3,21.6z M97.4,166.9
	c-0.1-0.5-0.4-0.5-0.7-0.4c-0.3,0.1-0.7,0.1-0.8,0.3c-0.2,0.4,0.1,0.5,0.4,0.5C96.7,167.2,97.1,167.1,97.4,166.9z M8.9,169.8
	c0.3-0.1,0.7-0.1,0.4-0.5c-0.1-0.2-0.4-0.4-0.7-0.4c-0.2,0-0.6,0.3-0.6,0.4C8.1,169.8,8.5,169.8,8.9,169.8z M90.4,176.9
	c0.7,0.1,1.5,0.5,1.5-0.7C91.3,176.1,90.8,176.3,90.4,176.9z M20.3,183.5c0.5,0.3,0.9,0.2,1.3-0.1c0,0-0.1-0.4-0.1-0.4
	C21,183,20.5,183,20.3,183.5z M81.2,179.3c-0.1-0.4-0.2-0.8-0.6-0.8c-0.1,0-0.2,0.3-0.2,0.4c0.1,0.3,0.3,0.8,0.5,0.9
	C81.3,180,81.2,179.6,81.2,179.3z M11.3,173.9c0.3,0.2,0.5,0.4,0.8,0.4c0.4,0,1.2,0.2,0.8-0.5C12.6,173.2,11.9,173.5,11.3,173.9z
	 M70.2,195.7c0.4-0.7,0.3-1.2-0.5-1.6C69.5,194.7,69.8,195.2,70.2,195.7z M77,198.9c0.5,0.2,1.1,0.7,1.8,0
	C78,198.9,77.5,198.9,77,198.9z M24.1,160.6c0,0.5,0.3,0.8,0.7,0.8c0.1,0,0.4-0.1,0.5-0.2c0.1-0.4-0.1-0.7-0.5-0.8
	C24.6,160.4,24.3,160.6,24.1,160.6z M12,176.2c-0.7-0.3-1.2-0.4-1.8,0.2C10.9,176.9,11.5,176.8,12,176.2z M21,181.2
	c0.2-0.1,0.5-0.1,0.5-0.3c0.1-0.4-0.2-0.5-0.5-0.4c-0.2,0-0.3,0.3-0.4,0.4C20.8,181,20.9,181.1,21,181.2z M40.8,93.4
	c-0.2-0.1-0.4-0.2-0.5-0.2c-0.2,0-0.8-0.3-0.7,0.3C39.7,93.7,40.4,93.8,40.8,93.4z M105.5,81.8c-0.1,0.2-0.3,0.4-0.4,0.6
	c0.1,0.1,0.3,0.2,0.4,0.2c0.2-0.1,0.4-0.3,0.6-0.5C105.9,82,105.8,82,105.5,81.8z M10.8,164c-0.2-0.5-0.2-0.9-0.4-0.9
	c-0.4-0.1-0.5,0.3-0.5,0.5c0,0.3,0.1,0.5,0.2,0.8C10.3,164.2,10.6,164.1,10.8,164z M45.8,98.1c0-0.5-0.2-0.6-0.5-0.6
	c-0.3,0-0.5,0.1-0.8,0.2c0.2,0.2,0.3,0.4,0.6,0.5C45.3,98.2,45.6,98.1,45.8,98.1z M86.8,169.3c0.1-0.2,0.3-0.4,0.3-0.4
	c-0.1-0.2-0.3-0.4-0.5-0.7c-0.1,0.1-0.3,0.3-0.3,0.3C86.5,168.8,86.7,169,86.8,169.3z M101.3,89.8c0.5,0.4,1,0.5,1.6,0
	C102.3,89.2,101.8,89.4,101.3,89.8z M88.2,97c0.4-0.5,0.4-1,0-1.5C87.6,96.1,87.8,96.5,88.2,97z M84.7,110.6c-0.2,0-0.4,0.1-0.5,0.1
	c0.2,0.1,0.4,0.2,0.5,0.3c0.2,0,0.5,0,0.5-0.1C85.3,110.5,84.9,110.7,84.7,110.6z M78.5,105.4c-0.1,0.4-0.3,0.7-0.3,0.9
	c0,0.1,0.2,0.4,0.2,0.4c0.5-0.2,0.4-0.6,0.3-0.9C78.8,105.7,78.7,105.6,78.5,105.4z M73.8,110.2c-0.1-0.1-0.1-0.2-0.2-0.2
	c-0.3-0.1-0.3,0.1-0.2,0.3c0,0.1,0.2,0.1,0.2,0.1C73.7,110.4,73.7,110.2,73.8,110.2z M26.9,166.8c0.2,0.1,0.4,0.1,0.5,0.2
	c0-0.1,0-0.3,0-0.4c0,0-0.2-0.1-0.2,0C27.1,166.6,27,166.7,26.9,166.8z M65.4,202.1c-0.1,0-0.2,0.1-0.2,0.1c0,0.2,0.1,0.4,0.1,0.6
	c0.1,0,0.2-0.1,0.2-0.1C65.5,202.5,65.4,202.3,65.4,202.1z M21.6,142c0-0.2,0.1-0.3,0.1-0.5c0,0-0.1-0.1-0.2-0.1
	c0,0.2-0.1,0.3-0.1,0.5C21.4,141.9,21.5,141.9,21.6,142z M85.5,34.3c-0.2,0.1-0.3,0.2-0.5,0.2c0.1,0.1,0.3,0.3,0.4,0.3
	c0.2-0.1,0.4-0.2,0.6-0.3C85.8,34.5,85.7,34.4,85.5,34.3z M13.6,168.4c-0.1,0.3-0.2,0.6-0.2,0.8c0,0.2,0.2,0.5,0.2,0.5
	c0.4-0.2,0.4-0.6,0.3-0.9C14,168.7,13.8,168.6,13.6,168.4z M71.2,208.3c0.2-0.1,0.3-0.1,0.5-0.2c-0.2-0.1-0.3-0.2-0.5-0.2
	c-0.2,0-0.3,0.1-0.5,0.2C70.9,208.1,71,208.2,71.2,208.3z M94.8,100.7c0.1,0,0.2-0.1,0.2-0.1c-0.1,0-0.1-0.1-0.2-0.1
	c-0.1,0-0.1,0.1-0.2,0.1C94.7,100.6,94.7,100.7,94.8,100.7z M73.9,189.1c-0.1,0-0.2,0.1-0.2,0.2c0,0.1,0,0.2,0,0.3
	c0.2,0.2,0.3,0.1,0.3-0.2C74,189.3,73.9,189.2,73.9,189.1z M21.7,175.6c0-0.1-0.1-0.1-0.1-0.2c-0.1,0.1-0.2,0.2-0.2,0.2
	c0.1,0.1,0.2,0.2,0.2,0.3C21.6,175.7,21.6,175.7,21.7,175.6z M27.6,186.3c0-0.1-0.1-0.2-0.1-0.2c-0.1,0-0.2,0-0.2,0.1
	c-0.2,0.2-0.1,0.3,0.1,0.3C27.5,186.5,27.5,186.4,27.6,186.3z M19.3,176.1c0-0.1,0-0.1-0.1-0.2c0,0.1-0.1,0.2-0.1,0.3
	C19.2,176.1,19.3,176.1,19.3,176.1z M77.5,184.9l-0.1,0.2l0.2,0L77.5,184.9z"/>
</svg>
