<?xml version="1.0" encoding="utf-8"?>
<!-- Generator: Adobe Illustrator 25.3.0, SVG Export Plug-In . SVG Version: 6.00 Build 0)  -->
<svg version="1.1" id="Layer_1" xmlns="http://www.w3.org/2000/svg" xmlns:xlink="http://www.w3.org/1999/xlink" x="0px" y="0px"
	 viewBox="0 0 100.7 229.9" style="enable-background:new 0 0 100.7 229.9;" xml:space="preserve">
<path d="M13.5,25.4C12,13.8,13.3,11.9,24.6,8.7c1.7-0.5,3.5-0.9,4.8-1.9c8.2-6.3,17-8,26.7-3.8c1.3,0.6,2.5,0.4,3.6-0.3
	C68-2.9,75,1.4,81.9,5.7c1.4,0.9,3.8,2.8,3.5,3.6c-2.6,7.9,4.2,6.2,7.8,8.1c6.2,3.3,6,9.3,4.9,15.2c-0.4,2.4-1.9,4.5-0.5,7.1
	c3.5,6.5,0,10.7-5.5,13.3c-6.6,3-13.4,5.4-20.3,7.8c-10.2,3.5-11.5,5.3-9.9,15.5c2.4,15.8,3.9,31.7,3.1,48
	c3.7-6.1,6.8-12.4,10.8-18.1c4.6-6.6,9.6-12.8,15.2-18.6c1.9-2,4-4.2,7.1-2.8c2.6,1.2,2.7,4.2,2.7,6.6c-0.7,32.2-8.8,61.4-34.7,83
	c-3.4,2.8-5,5.6-5.4,10c-1.3,14.9-3.8,29.6-7.1,45.6c-3.7-3.7-3.3-6.9-3-9.9c0.8-6.7,1.6-13.4,2.7-20.1c0.6-3.9-0.2-6.6-3.9-8.7
	c-6.7-3.8-11.4-9.8-15.1-16.4c-13.4-23.4-21.4-48.4-21.4-75.7c0-3.5-0.2-7-0.4-10.5c-0.1-1.5-0.5-3.1,1.3-3.9c2.1-1,3.2,0.7,4.2,2.1
	c1.6,2.3,3,4.6,4.4,7c2.8,4.7,5.2,9.8,8.4,14.2C44,126.6,52.3,146.9,55,170.1c2.5-1.7,1.7-3.8,1.8-5.6c1.2-20.2,3.1-40.4,2.4-60.7
	c-0.4-10.7-1.5-21.5-2-32.2C57.1,68,55.6,67,52.1,67c-11.3,0.2-22.2-3.1-33.5-3.6C11,63.2,4.8,56.3,1.7,49.8
	C-1.6,42.9,0,34.7,4.9,27.8C7.1,24.6,10.4,25.4,13.5,25.4z M74.7,159c0.2-1.3,0.5-2.6,0.7-3.9c0.6-0.2,1.5-0.2,1.8-0.6
	c11.9-15.5,15.9-33.6,17.1-52.6c-6.5,17.7-11.9,35.8-18.8,53.4c-1.6,0.9-1.1,2.3-0.7,3.7c-0.1-0.1-0.2-0.2-0.3-0.3
	C74.6,158.7,74.7,158.9,74.7,159z M45.6,179.3c-0.4,0.8,0,1.2,0.7,1.5c0.1,0,0.4-0.3,0.4-0.4C46.7,179.6,46.5,179.1,45.6,179.3
	c0.6-2.9-1.1-5.3-2.1-7.8c-6.2-15.8-12.5-31.6-18.9-47.4c-1.6-4-2.5-8.3-5.5-12.5c2.1,21.2,10.6,45.8,21.5,62.5
	C41.9,176.2,42.7,178.8,45.6,179.3z M47.1,57.6c0.2,0.4,0.2,1.5,0.9,0.3c-0.3-0.1-0.7-0.1-1-0.2c0.8-2.7-4.2-3.8-1.9-7.1
	c1.6,0.8,3.1,1.6,4.9,2.5c-1.6-8.7-2.5-16.5-1.4-24.5c0.2-1.6,1.6-3.4-0.8-4.5c-1.7-0.8-3.4-0.8-5,0.3c-4.9,3.8-9.9,7.5-14.6,11.6
	c-2.9,2.6-4,6.4-0.4,9C34,49.7,39.6,55.2,47.1,57.6z M57.4,56.4c0.7-3.3,1.4-6.6,2.3-10.6c1.5,1.5,2.4,2.5,3.1,3.3
	c2.1-1.6,0.4-5,3.4-6.3c2.6,3.1-0.8,6.3,0.4,10.7c4.2-9.7,11.3-16.7,10.7-27.1c-0.3-5.2-2.6-8.7-7.5-9.9c-4-1-15,5.9-15.8,10.1
	C51.9,36.6,51.8,46.6,57.4,56.4z M63.2,165.4c15-21.5,18.7-47.4,28.5-70.8C72.9,114.4,63.2,138,63.2,165.4z M54,14.3
	C55.1,7.8,51.7,6,46.3,6c-3.5,0-7,0.3-10,2.4c-4.1,2.9-8.4,5.3-13.4,6.4c-4.8,1.1-5.6,4.2-4,8.5c3.4,8.9,5.2,9.5,13,3.6
	c1.2-0.9,2.3-1.9,3.4-2.9c3.8-3.5,7.7-5.9,13.4-4.2C53.2,21.2,54,17.5,54,14.3z M49.7,176c-0.6-22.8-13.7-55.3-28.7-70.9
	C30.7,129.2,39.9,151.9,49.7,176z M20.1,39.8c2.2-6.1-1.4-8.4-5.4-10c-2.8-1.2-6.1-1.4-7.6,2.2c-2,4.9-2.9,10.1-1.5,15.3
	c1.6,5.8,5.4,6.8,10.8,4.2c4.3-2,7-3.8,3.7-8.8C19.6,41.9,20.1,40.4,20.1,39.8z M81.3,39c2.6-1.1,4.3-2.2,6.2-2.6
	c7.1-1.3,6.5-6.6,5.8-11.5c-0.7-4.6-4.8-4.3-8.3-4.4c-4.5-0.1-2.9,3.2-2.5,5.3C83.4,30.1,81.7,34.1,81.3,39z M72,55
	c7.5-1.5,13.5-4,19.1-7.5c2.3-1.4,3.3-3.8,1.7-6.4c-1.7-2.8-3.9-1.2-5.8-0.2C80.9,43.9,75.2,47.4,72,55z M59.4,14.7
	c4.5-1.1,7.8-4.3,12.5-3.5c2.7,0.5,6,5.8,7.9,0.9c1.3-3.3-4.5-3.4-6.7-5.4c-0.5-0.5-1.3-0.8-1.9-1.1C64.4,2.5,58.8,6.5,59.4,14.7z
	 M16.6,58.6c7.8,0.4,14.1,0.7,20.7,1C29.2,51.7,24.7,51.2,16.6,58.6z"/>
</svg>
