<?xml version="1.0" encoding="utf-8"?>
<!-- Generator: Adobe Illustrator 25.3.0, SVG Export Plug-In . SVG Version: 6.00 Build 0)  -->
<svg version="1.1" id="Layer_1" xmlns="http://www.w3.org/2000/svg" xmlns:xlink="http://www.w3.org/1999/xlink" x="0px" y="0px"
	 viewBox="0 0 109.5 110.5" style="enable-background:new 0 0 109.5 110.5;" xml:space="preserve">
<path d="M31.9,37.1c9,8.1,16.2,17.1,21.2,28.1c3.5-4,4.1-9,6.3-13.1c2.8-5.3,5.1-11,8.7-15.8c1.7-2.3,1.8-3.9-0.6-5.8
	c-3.2-2.4-5.2-5.8-6.7-9.4c-1.7-4-1.9-8.2,1.8-11.3c3.6-3,8-2.8,11.3,0.1c3.8,3.2,6,2.3,8.6-1.2c2.2-3,5.6-4.9,8.8-6.6
	c6.4-3.5,12.9-2.6,16.3,2.2c3.1,4.5,2.3,13.4-2.7,17c-4.9,3.5-7.5,6-4.1,12.5c2.5,4.7-0.3,9-5.2,12.2c-4.7,3.1-9.1,3.1-13.6-0.1
	c-1.7-1.2-3.3-2.7-4.9-4.2c-1.4-1.4-2.5-2.9-4-4.7C66.3,46.3,62,56.4,58.5,66.9c-4.4,13-6.4,26.4-6.6,40.2c0,1.4,0.6,3.5-1.9,3.5
	c-2.3,0-2-2-2-3.5c-0.3-10.2,0.6-20.2,2.9-30.2c0.4-1.7,0.8-3.4,0-5.1C46.1,61.2,40.8,51.1,32,43.2c-2.4-2.2-4.3-2.6-7.2-1
	c-4.4,2.5-9.3,4.2-14.5,3.6c-4.5-0.5-8.5-2.3-9.9-6.9c-1.3-4.1,0.9-7.3,4-9.6c2.8-2,2.4-3.8,0.6-6.2c-1.9-2.7-3.3-5.6-4-9
	C0.1,10.1,0.4,6.5,4,3.7c3.7-2.8,7.7-3.6,12-1.5c0.9,0.4,1.8,0.8,2.5,1.5c4.3,4.1,8.2,7.7,15,3.1c3.5-2.4,8.5,2.1,9.1,7.1
	c0.9,8.2-2.2,14.8-7.8,20.5C33.9,35.2,33.1,36,31.9,37.1z M64.8,17.3c0.1,0.4,0,1.1,0.3,1.6c5.1,9.3,11.7,17.4,20.7,23
	c3.3,2,7.6,0,9.4-3.3c2-3.9,0.4-6.6-2.8-9c-4.5-3.5-4.4-4.5,1-6.7c5.1-2.1,9.1-5.1,11-10.4c1.9-5.1-0.1-8.2-5.5-7.7
	C91.9,5.4,86.7,9.4,82.7,15c-3.9,5.4-3.8,5.4-8.1,0.5c-0.8-0.9-1.6-1.8-2.6-2.3C68.2,10.9,64.7,12.9,64.8,17.3z M12.6,41.3
	c4.9,0.2,9.3-2.4,13.5-5.1C32,32.3,36.2,27,38.2,20.2c1-3.5-0.3-6.3-3.4-7.9c-3.3-1.6-5,0.6-5.9,3.5c-1.4,4.1-3.3,3.4-4.9,0.3
	c-2.2-4.3-5.2-7.8-9.6-9.8c-2.1-1-4.2-2.1-6.6-0.3C5.4,8,4.8,10.6,5.3,13.4c0.7,3.9,2.2,7.5,5.1,10.3c3.2,3.1,3.5,5.3-1.2,7.1
	c-2.8,1.1-5.1,3.5-4.3,6.8C5.9,41.1,9.1,41.3,12.6,41.3z"/>
</svg>
