<?xml version="1.0" encoding="utf-8"?>
<!-- Generator: Adobe Illustrator 25.3.0, SVG Export Plug-In . SVG Version: 6.00 Build 0)  -->
<svg version="1.1" id="Layer_1" xmlns="http://www.w3.org/2000/svg" xmlns:xlink="http://www.w3.org/1999/xlink" x="0px" y="0px"
	 viewBox="0 0 86.9 249.2" style="enable-background:new 0 0 86.9 249.2;" xml:space="preserve">
<path d="M43.6,209.4c0.2-4.7,0.4-9.4,0.7-14.1c0.1-1.5-0.7-2-1.9-2.3c-3.1-0.9-6-2-8.9-3.5c-12-6.1-16.9-15.6-14.9-29
	c0.2-1.2,0.4-2.4,0.7-3.6c0.1-0.6,0.2-1.3,1-1.4c0.7-0.1,1,0.6,1.3,1.1c0.7,1.2,1.4,2.5,2.2,3.7c1.8,2.7,3.7,5.3,6.5,7
	c6.4,3.8,10.1,9.5,12.8,16.1c0.2,0.4,0.2,1,1.2,1.3c0.2-6.5,0.1-12.9-0.2-19.3c-0.1-1.4-1.4-1.6-2.4-2
	c-16.1-6.6-25.9-18.8-31.1-35.1c-0.2-0.6-0.3-1.2-0.5-1.8c-0.1-0.6-0.3-1.3,0.3-1.7c0.8-0.5,1.3,0.2,1.8,0.7
	c6.4,7.5,13.9,13.7,21.6,19.8c3.9,3.1,6.8,7.1,10,11.4c-0.5-4.6-0.9-9.2-1.4-13.7c-0.1-1.3-1.5-1.3-2.4-1.6
	c-7.7-3-12.4-9.7-12.4-17.9c0-2.9,0.7-3.4,3.3-2c4.5,2.4,6.9,6.6,10.1,10.6c-0.7-4-1-8.2-2.2-12.1c-0.5-1.9-3-2.7-5-3.2
	c-6.3-1.5-11.6-4.9-15.9-9.6c-7.1-7.8-7.3-16.9-4.8-26.4c0.2-0.6,0.4-1.3,1.1-1.3c0.8,0,0.9,0.7,1.1,1.3c1.9,7,6.2,11.8,12.5,15.3
	c4.5,2.5,6.7,7.2,8.6,11.7c0.4,1,0.8,2,1.5,3c-0.3-6.8-0.5-13.6-0.1-20.3c0.1-1.3-0.7-2.1-1.6-2.8c-2.5-1.8-4.9-3.8-6.9-6.2
	c-2.8-3.2-4.7-6.6-4.8-11.1c-0.1-2.4-0.8-4.9-1.2-7.3c-0.1-0.7-0.5-1.5,0.2-2c0.9-0.6,1.5,0.3,2.1,0.8c4.8,4.7,8.8,10.1,11.6,16.3
	c0.4,0.8,0.8,1.6,1.5,3.1c1.1-5.9,2-11.2,3.5-16.2c0.4-1.2-0.1-1.8-1.3-2.3c-11.9-5.3-16.2-14.6-12.9-27.1c0.2-0.8,0.3-1.6,0.6-2.4
	c0.3-0.8-0.1-2.1,1.2-2.2c1.1-0.1,1.4,1,1.9,1.8c5,7.3,9,15,11.2,23.6c0.2,0.8,0.2,1.7,1.3,2.5c1.7-5.4,5.9-9.6,6.3-15.5
	c0.3-4.1,1.6-8.1,3-12c2.6-7.2,6.7-13.2,13.7-16.8c2.5-1.3,4.8-2.9,7.1-4.3c0.5-0.3,1.1-0.7,1.7-0.3c0.6,0.4,0.5,1.1,0.3,1.7
	c-2.9,11.9-7,23.1-16,31.9c-1.6,1.6-3.4,3.2-5.5,3.9c-5.4,1.8-6.2,6.8-8.2,11.2c4-2.9,8.4-4.3,13.1-5c0.9-0.1,2.2-0.9,2.7,0.4
	c0.4,1-0.8,1.5-1.5,2.1c-4.2,3.8-8.9,6.7-14.5,7.9c-1.1,0.2-2.3,0.4-2.7,1.7c-2,6.6-3.4,13.3-3.3,20.3c1.5-2.9,2.9-5.8,4.6-8.6
	c3.2-5.4,6.7-10.4,12-13.9c2.2-1.4,5.2-3.8,7.2-2.4c2.1,1.5,0.1,4.8-0.7,7.1C60,79.3,53.1,87.5,42.5,92.2c-2.5,1.1-3.5,2.4-3.2,5.1
	c0.2,1.5,0,3.1,0,4.6c1.3,0.2,1.4-0.7,1.7-1.3c1.7-2.8,4-4.9,7.1-6.1c2.1-0.8,4.1-2,5.9-3.3c0.5-0.4,1.2-1.1,1.9-0.4
	c0.5,0.5,0.2,1.2-0.1,1.7c-3.3,6.5-7.2,12.6-14.3,15.6c-1,0.4-1.9,0.7-1.8,2.1c0.5,6.3,1.3,12.7,3.2,19c0.9-1.7,1.7-3.4,2.6-5.1
	c1.3-2.5,2.6-4.9,4-7.3c0.6-1,0.8-2.8,2.4-2.3c1.2,0.4,1.1,2.1,1.3,3.3c1.1,7.8-1.4,12.5-8.3,15.7c-1.2,0.6-1.8,1.1-1.6,2.5
	c1.2,8.2,1.9,16.5,2.5,25.1c1.2-1.6,1.1-3.2,1.4-4.6c2.4-10.9,6-21.4,10.7-31.6c0.4-0.9,0.6-2.4,1.8-2.2c1.5,0.1,1.2,1.8,1.3,2.8
	c0.7,5.8,1.3,11.7,1.9,17.5c1.2,12.4-4.1,21.8-13.7,29c-2.1,1.6-3,3.3-2.9,5.9c0.2,7,0.1,13.9,0.1,21.2c1.6-3.8,3.1-7.4,5-10.8
	c1.2-2.1,2.5-4.1,4.2-5.7c0.5-0.5,1-1.1,1.8-0.8c0.7,0.3,0.7,1,0.7,1.6c0,9.5-1.2,18.5-11.2,23.2c-1,0.5-1.4,1.2-1.4,2.2
	c-0.5,5.9-1,11.9-1.6,18.1c1.3-0.5,1.7-1.7,2.2-2.5c6.3-9.9,12.5-19.9,20.1-28.9c2.4-2.8,4.9-5.6,7.9-7.8c0.6-0.5,1.4-1.2,2.2-0.6
	c0.9,0.6,0.4,1.5,0.2,2.3c-1.8,7-3.9,13.9-6.5,20.6c-2.8,7.5-8.7,12.1-14.7,16.7c-3.4,2.6-6.8,5-10.9,6.4c-2.2,0.8-1.7,2.5-2.1,4
	c-0.2,0.8,0,2.3-1.2,2.1c-1.3-0.2-0.7-1.5-0.6-2.3c0.7-6,1.3-12.1,2.2-18.1c0.4-2.7-0.1-4.1-2.9-5.4c-9.7-4.3-13.1-10.9-11.7-21.3
	c0.1-0.9-0.1-2.1,1-2.4c1.3-0.4,1.7,0.9,2.3,1.6c4.3,5,7.2,10.8,10.3,16.5c0.3,0.6,0.7,1.2,1.1,1.8
	C43.1,209.5,43.4,209.4,43.6,209.4z M19.1,135.3L19.1,135.3L19.1,135.3c0.2,0.2,0.5,0.4,0.7,0.6c0.4,2.2,2.2,3.4,3.5,4.9
	c5.6,6.6,11.7,12.6,18.5,18.1c-2.1-5.1-5.4-9.3-9.6-12.8c-4.1-3.4-8.3-6.8-12.5-10.1C19.5,135.8,19.3,135.6,19.1,135.3z M48.8,228.8
	c0.2-0.2,0.4-0.5,0.5-0.7c4.7-1.9,8.1-5.5,11.9-8.6c7.3-6.1,8.9-14.9,11.7-23.5c-1.2,0.3-1.4,1.1-1.8,1.7
	c-6.4,10.6-11.8,22-21.6,30.2c-0.1,0.1-0.1,0.2-0.1,0.3C49.2,228.4,49,228.6,48.8,228.8C48.8,228.8,48.8,228.8,48.8,228.8z
	 M32.6,82.2C32.6,82.2,32.6,82.2,32.6,82.2c-1.9-3.6-3.8-7.3-5.6-11C26.5,75.3,28.6,79.1,32.6,82.2z M58,56.3c-4.6,0-8,2.3-11,5.5
	C51.3,61.1,55,59.3,58,56.3L58,56.3z M52.4,94.6c-5.9,1.7-10,5.1-11.9,12C46.4,103.8,50.1,99.8,52.4,94.6L52.4,94.6z M43.8,84.6
	c6.1-6.4,11.3-13.5,16.7-20.4C52.2,68.9,47.1,76,43.8,84.6l-0.1,0.1L43.8,84.6z M14.7,133.5L14.7,133.5L14.7,133.5
	c2.7,8.4,8.2,14.8,14.8,20.5c2.7,2.4,5.7,4.5,9.3,5.5C30.1,151.5,22,142.8,14.7,133.5z M51.2,167.6c9.5-7.7,13-22.8,8.3-35.5
	c-0.1,0.6-0.2,0.9-0.3,1.3C57.3,144.9,57.6,157,51.2,167.6l-0.2,0.1L51.2,167.6z M43.1,189.2L43.1,189.2c0.2-1.2-0.5-2.1-0.8-3.2
	c-2.8-10.5-11.4-16.1-19.5-22.9C27.6,173.8,34.7,182,43.1,189.2z M41.3,190.3l0.1,0.1L41.3,190.3c-8.4-8-16.2-16.4-20.8-28
	C18.4,176.3,28.2,189,41.3,190.3z M53,46.2c11.9-6.5,16.4-18,20-30C65.4,25.5,58.4,35.3,53,46.2z M57.8,130.4
	c-4.9,8.6-11.4,33.3-10.3,38.8c3.4-4.8,6.3-9.7,7.1-15.4C55.8,146.3,56.7,138.7,57.8,130.4z M35,114.4c-9.8-7-18.4-15-21-27.5
	C12.3,100.9,22,113.7,35,114.4z M71.7,192.5c-9.9,10.3-17.5,22.2-24.7,34.3C59.2,218.3,64.3,204.6,71.7,192.5z M17.2,89.7
	c2,8.5,9,16.9,18.8,22.5c-1.9-6.1-4.2-11.5-9.6-14.9C23,95.2,19.7,92.9,17.2,89.7z M70.5,15.5C60.6,19.8,53.1,31.1,53,41.5
	C58.3,32.2,64.5,24,70.5,15.5z M62,65.9c-6.8,8-13.2,15.6-19.5,23.9C51.8,87.2,61.5,73.5,62,65.9z M30.2,193.1
	c-2,8.8,3.5,17.7,11.2,18.4C39.7,206.6,33.3,195.9,30.2,193.1z M41.2,139.4c-0.7-3.6-4.1-9.9-7.3-13.3c-0.8-0.9-1.8-1.7-2.8-2.5
	c-0.8-0.6-1.5-0.6-1.7,0.7C28.6,130.1,35.1,138.4,41.2,139.4z M47,204.2c5.8-2,10.2-11.5,8.8-18.6C52.7,188,47.6,198.9,47,204.2z
	 M39.3,60.1c-4.8-6.5-7.7-13.9-9.8-22.3C26.6,46.8,30.9,56.1,39.3,60.1z M31.6,36.6c0.7,8,5.8,19.2,9.8,21.6
	C39.4,50.2,36.2,43.1,31.6,36.6z M51.1,118.1c-2.7,4.2-5,8.5-7,13.3C49.9,129.9,52.4,125.1,51.1,118.1z M36.6,83.9
	c-1.1-6.4-4.6-11.6-8.9-16.3C30.1,73.4,32.8,79,36.6,83.9z"/>
</svg>
