<?xml version="1.0" encoding="utf-8"?>
<!-- Generator: Adobe Illustrator 25.3.0, SVG Export Plug-In . SVG Version: 6.00 Build 0)  -->
<svg version="1.1" id="Layer_1" xmlns="http://www.w3.org/2000/svg" xmlns:xlink="http://www.w3.org/1999/xlink" x="0px" y="0px"
	 viewBox="0 0 103.2 110.1" style="enable-background:new 0 0 103.2 110.1;" xml:space="preserve">
<path d="M60.7,99.3c4.1-9.7,6.6-19.8,9.2-29.8c0.6-2.3,0.5-3.9-2.4-4.5c-4.2-0.9-5.9-3.7-5.3-8.2c0.5-4.6-1.2-9.2-1-13.9
	c0.3-8,3-14.7,9.8-19.3c4.9-3.4,4.9-3.6,1-8.6c-0.9-1.1-1.4-2.1-0.6-3.5c0.9-1.4,2.2-1.8,3.7-1.5c1.6,0.2,2.6,1.1,2.7,2.8
	c0,0.6-0.2,1.3-0.1,1.9c0.1,1.1,0.2,2.2,0.5,3.3c0.7,2.8,3,2.9,5,2.3c1.9-0.6,2.1-2.7,1.3-4.3c-0.9-1.9-1.2-3.4,0.7-4.6
	c1.4-0.9,3.1-1,4.4,0.4c1.4,1.6,1,3-0.1,4.8c-1.5,2.5-2.7,4.9,0.8,7.3c3.4,2.3,4.4,2.3,6-1.6c0.1-0.3,0.2-0.6,0.2-0.9
	c0.5-2.1,1.7-3.6,3.9-3.5c1.8,0.1,2.8,1.4,2.9,3.2c0.2,2.3-1,3.3-3.1,4.1c-3.8,1.4-5,3.9-3.9,7.7c2.5,8.7-0.4,16.1-5.5,22.9
	c-1.5,2.1-2.9,4-3.4,6.7c-0.8,4.3-4.7,5.2-8.3,4.8c-4.2-0.5-5.4,1.1-6.1,5c-2.3,12-6.4,23.5-10.6,34.9c-0.5,1.2-0.7,3.2-2.6,2.9
	c-2.1-0.3-1.8-2.4-2-3.9c-1.7-17.6-8.2-33.5-17.5-48.4c-2-3.2-3.8-4.5-7.5-2.3C30,57,27,58,23.9,56.6c-1.2-0.6-2.8-1.1-2.8-2.3
	c-0.2-3.7-3.2-5.4-5.3-7.6c-3.9-4.1-6.8-8.9-8.9-14.2c-1.5-3.6-2.3-7.7-1-11.3c1.4-3.7,0.8-5.7-3-6.7c-0.5-0.1-0.9-0.3-1.3-0.6
	c-1.1-0.8-1.8-2-1.4-3.3c0.3-1.2,1-2.3,2.5-2.5c1.6-0.2,3,0.2,3.5,1.8c0.9,2.7,2,4.8,5.3,3.1c3.6-1.9,3.8-3.3,0.5-5.6
	C9.8,5.7,8.5,4.4,10.7,2c1.1-1.2,2.4-1.7,3.9-1.3c1.5,0.4,1.5,1.8,1.8,3.1c0.4,2.8-0.2,6.5,4.8,5.5c4.3-0.8,4.4-0.7,2-4.7
	c-0.8-1.4-0.4-2.4,0.7-3.3c1.6-1.3,3.5-1.8,5.4-0.7c1.4,0.8,1.3,2.1,0.5,3.3c-0.5,0.8-1.4,1.4-1.7,2.2c-0.5,1.3-1.1,3,0.5,3.8
	c9.2,4.7,12.3,13.4,14.6,22.5c0.3,1.1,0.7,2.1,1.5,2.9c3,3.6,3.6,6.4,0.2,9.6c-5.2,4.9-3.7,8.6-0.2,13.7
	C52.9,71,57.6,84.8,60.7,99.3z M9.1,25.7c0.5,9,5.8,15.3,11.9,21.1c1.6,1.5,2.5-0.5,3.8-0.8c1.4-0.3,1.3-1.1,1.1-2.5
	c-0.9-5.8,1.5-7.7,7.5-6.1c2.3,0.6,6.7-2.3,6.2-4.6c-1.4-7-3.9-13.6-10-18c-4.1-2.9-8.4-3-12.7-0.9C12.1,16.3,8.8,19.8,9.1,25.7z
	 M65.2,45.6c0.1,1.8,0.1,3.3,0.2,4.7c0.2,1.7-0.3,3.7,1.8,4.6c2.4,1,2.9-1.4,4-2.6c4.4-4.6,8.4-3.7,10.2,2.3
	c0.6,2.1,3.1,2.8,4.6,1.3c6.6-6.1,8.9-15,6-22.9c-3.7-10-15.2-12-22.3-3.9C65.6,34,65.5,40,65.2,45.6z M28,52.7
	c4.5-0.2,11.7-5.3,13.1-9.4c0.5-1.5,0.7-3.1-0.8-3.9c-1.6-0.9-2.3,0.9-2.8,1.9c-1.2,2.4-2.4,2.8-4.3,0.8c-1.6-1.7-3.4-1.2-3.1,1
	c0.6,3.4-0.8,5-3.4,6.5c-0.7,0.4-1.4,1.5-0.9,2.5C26.3,53,27.2,52.8,28,52.7z M77.1,56.5c0-0.9,0.9-2.4-1-2.9
	c-1.6-0.4-2.2,1.1-2.8,2.2c-1,1.7-1.9,3.4-4.4,2.6c-0.6-0.2-1.3,0.2-1.5,0.9c-0.3,0.9,0.1,1.7,0.9,2c3.6,1.5,7.2,2.7,11.2,2.1
	c1-0.1,2.3-0.5,2.1-2.1c-0.1-1.2-1-1.7-2-1.7C77.5,59.7,76.4,59.1,77.1,56.5z"/>
</svg>
