<?xml version="1.0" encoding="utf-8"?>
<!-- Generator: Adobe Illustrator 25.3.0, SVG Export Plug-In . SVG Version: 6.00 Build 0)  -->
<svg version="1.1" id="Layer_1" xmlns="http://www.w3.org/2000/svg" xmlns:xlink="http://www.w3.org/1999/xlink" x="0px" y="0px"
	 viewBox="0 0 80.2 223.1" style="enable-background:new 0 0 80.2 223.1;" xml:space="preserve">
<path d="M53,71.8c5.4-4.6,11.6-6.3,16.3-10.6c0.7-0.6,1.4-1.5,2.5-1c1.3,0.6,1.2,1.8,1,2.9c-0.6,5.4-2.2,10.5-6.1,14.4
	C61.2,83.1,55,87.8,47.9,91.1c-2.1,1-3.3,2-4,4.2c-1,3-2.1,6.1-3.6,9c-1.5,2.9-1.6,5.7-0.4,8.7c1.9,4.9,3.5,9.9,5.6,15
	c1-3.5,0.8-7.3,2.5-10.5c1-2,2.3-4.5,4.9-3.7c2.8,0.8,2.4,3.5,2.1,5.8c-0.6,4.4-2.4,8.4-5,11.9c-2.3,3-2.6,5.9-1.7,9.5
	c5.3,19.2,8.8,38.8,11.9,58.4c0.3,1.6,1.2,3.2,0,5.4c-3.5-3.5-4.2-8-4.9-12.3c-2.3-12.3-4.1-24.7-7-36.8c-1-4.3-2.6-7.8-7.1-9.4
	c-2.3-0.9-4.3-2.5-5.7-4.5c-1-1.4-1.8-3.1-0.4-4.7c1.6-1.6,3.1-0.4,4.6,0.4c1.5,0.8,2,2.8,4.6,2.9c-1.7-8.5-4.9-16.3-7.7-25.4
	c-4.9,13.5-6.9,26.3-6.6,39.4c0.4,17.3,4.1,33.8,11.4,49.4c2.1,4.5,3.8,9.1,5.1,13.8c0.5,1.8,1.1,3.5,0,5.5c-0.7-0.5-1.4-0.7-1.5-1
	c-8-20-18-39.5-18.6-61.6c-0.2-9.2-0.5-17.2-8.8-23.6c-5.2-4.1-5.7-11.7-6.3-18.4c-0.5-4.7-0.8-9.5-3.3-13.7c-0.5-0.8-1-1.8,0-2.5
	c0.5-0.3,1.5-0.1,2.1,0.2c3.3,1.3,5.7,3.7,7.9,6.4c4.5,5.4,7.2,11.9,10.5,18.8c2-6,3.9-11.3,5.4-16.7c1.2-4.1-1.3-7.8-5.4-9
	c-2.3-0.7-4.7-1.4-6.9-2.5c-1.6-0.9-3.2-2.4-1.9-4.6c1.3-2.1,3.1-1.6,5-0.9c1.4,0.5,2.2,2.1,4.5,2c-2.4-6.1-4.6-12-6.9-17.9
	c-0.8-2.1-2.6-2.6-4.6-2.8c-1.5-0.2-3-0.3-4.5-0.6c-3.1-0.8-5.4-2.8-4.2-6.1c1.3-3.7,4.1-2.3,6.6-0.9c0.6,0.3,1.3,0.8,2.5,0.7
	C14.1,61,15.9,51,6.3,46.8C3.7,45.7,2,43,0.6,40.5c-0.6-1-1.1-2,0-3c1-0.9,2.1-1,3.1-0.3c2,1.3,3.9,2.8,6.3,4.7
	c0.2-5.1-0.9-9.4-2.2-13.6c-0.7-2.1-1.4-4.4-1.6-6.6c-0.4-2.9,0.6-5.9,3.8-5.9c3.5-0.1,3.2,3.4,2.9,5.6c-1.2,8.2-0.5,16.2,1.4,24.2
	c0.5,2.2,1.1,4.3,1.9,7.5c1.4-2.5,2.3-4.2,3.3-5.9c0.6-1,1.6-1.7,2.9-1.3c1.3,0.4,1.5,1.6,1.6,2.8c0.1,2.9-0.8,5.7-2.4,8
	c-2.1,3.1-1.7,5.9-0.4,9.1c2.2,5.2,4.2,10.5,6.4,16.2c2.1-1.8,1-4.5,2.3-6.3c0.9-1.3,1.7-2.6,3.5-2.3c1.8,0.3,2.4,1.8,2.6,3.3
	c0.4,2.6-0.1,5.2-1.7,7c-3.8,4.3-2.9,8.6-0.6,13.1c1,2,1.1,4.4,2.9,6c9.6-15.7,11.1-32.2,5.6-49.6c-0.6-2-1.9-3.1-3.5-4.2
	c-3.6-2.5-5.7-6.1-6.9-10.1c-1-3.6,0.9-5.5,4.4-4.2c1.4,0.5,2.2,0.8,3.4-0.3c3.4-3.2,4.5-0.5,5.2,2.3c0.3,1.1,0.6,2.3,0.3,3.4
	c-2.8,10.5,3.1,20,3.2,30.5c2.2-1.3,2.2-3.1,2.6-4.5c2.2-7.7,4.1-15.4,6.3-23c1.2-4.1,2.4-7.6-2.5-10.5c-2.5-1.5-3.1-5.1-3.8-8
	c-1.6-6.6-0.8-13.2,0.4-19.7c0.4-2.1,1.2-4.7,3.5-4.6c4.1,0.1,8,1.5,12.2,1.6c1.9,0,4.3,1.8,7.2,1.2c3.5-0.7,5.6,1.5,5.9,5.2
	c0.7,9.4-7.5,23.4-16.1,27.2c-1.3,0.6-2.4,1.1-2.7,2.6c-0.1,0.4-0.1,0.7-0.2,1.1C58.5,49.6,55.9,60.2,53,71.8z M56.8,81.7
	c4.5-2.3,8-5.5,9.5-10.7c-3.3,3.4-6.7,6.8-10,10.2c-1.5,0.6-2.7,1.6-3.5,3.8c1-0.7,1.6-1,2.1-1.4C55.6,83,56.2,82.3,56.8,81.7z
	 M65.6,67.8C58,70.4,52.6,75.3,49.8,83c5.1-5.3,11.5-9.2,15.7-15.4c0.4-0.1,1.2,0.2,0.6-0.7C65.9,67.2,65.8,67.5,65.6,67.8z
	 M15.5,111c0.4-0.6,0.1-1-0.3-1.3c0,0-0.4,0.2-0.4,0.3c-0.1,0.6,0.2,1,0.9,0.9c3.5,8.5,7,17.1,10.5,25.6
	C27.2,129.4,21.2,115.9,15.5,111z M15.3,116.7c-0.2,8.1,1.3,15.5,8.3,20.8C20.8,130.6,18.1,123.7,15.3,116.7z"/>
</svg>
