<?xml version="1.0" encoding="utf-8"?>
<!-- Generator: Adobe Illustrator 25.3.0, SVG Export Plug-In . SVG Version: 6.00 Build 0)  -->
<svg version="1.1" id="Layer_1" xmlns="http://www.w3.org/2000/svg" xmlns:xlink="http://www.w3.org/1999/xlink" x="0px" y="0px"
	 viewBox="0 0 176.7 249.9" style="enable-background:new 0 0 176.7 249.9;" xml:space="preserve">
<path d="M67.4,135c1.7-2.8,2.9-5,4.2-7.1c3.5-5.8,7.7-11.1,12.5-15.9c1.2-1.2,2.6-2.3,4.4-1.7c1.9,0.6,1.8,2.5,1.8,4
	c0.1,7.7-2.8,14.2-8,19.7c-1.2,1.3-1.8,2.1-0.7,3.9c1.6,2.5,1.6,5.6,1.7,8.5c0.3,7.8-0.4,15.6-1.5,23.4c-0.1,0.8-0.2,1.6-0.3,2.5
	c1.2-0.1,1.3-1.1,1.6-1.8c4.1-7.6,8.5-15.1,13.7-22c1.1-1.5,1.1-2.7,0.6-4.3c-3-9.3-4.5-18.8-3.4-28.7c0.4-3.7,1.8-7,4.3-9.8
	c1.1-1.2,2.2-2.4,4-1.9c1.8,0.5,2.1,2.2,2.4,3.7c1,5.3,0.4,10.6-0.3,15.9c-0.8,6.1-1.8,12.1-2.8,18.3c1.4-0.2,1.8-1.4,2.5-2.1
	c7-7.5,13.8-15,20.8-22.4c1.3-1.4,1.7-2.8,1.3-4.8c-1.2-6.6-2.1-13.2-0.4-19.8c0.5-1.8,1.2-3.6,2.7-4.8c1.4-1.2,3.1-1.9,4.9-1.2
	c1.9,0.8,2.4,2.5,2.4,4.4c0,3.7-1.1,7.2-2.1,10.7c-0.8,2.8-1.8,5.5-2.8,8.6c1.6,0,2.5-0.9,3.5-1.5c6.8-3.8,13.8-7,21.6-7.8
	c3.1-0.3,6.1,0.1,8.6,2.1c3,2.4,2.6,5.6-0.8,7.2c-3.4,1.6-7.1,2.6-10.8,2.9c-6.7,0.7-13.4,1.7-20.2,1.4c-2-0.1-3.6,0.5-4.9,2.1
	c-2.8,3.2-5.7,6.2-8.6,9.3c0.2,0.2,0.3,0.5,0.5,0.7c2.2-1.1,4.5-2.1,6.7-3.2c3.9-2,7.8-3.9,12.4-3.7c2,0.1,4.1,0.2,5,2.5
	c0.9,2.4-0.6,4-2.4,5.2c-6.3,4.4-13.6,6.1-21,7.7c-2.1,0.5-4.3,1-6.5,0.9c-3.7-0.1-5.9,1.7-8.1,4.3c-7.1,8.3-13.5,17-18.2,27.1
	c1.2-0.7,2.3-1.4,3.5-2.1c7.4-4.3,15-8.2,23.5-10.1c2.8-0.6,5.6-1.1,8.4-0.3c1.9,0.5,3.6,1.4,4,3.5c0.5,2.2-1,3.5-2.6,4.6
	c-3,2-6.4,3-9.8,4c-9.1,2.6-18.5,4.3-27.9,5.6c-2,0.3-3.2,1-4,2.8c-4.3,9.2-8.7,18.5-12.5,28c-0.8,2-0.7,3.9-0.5,5.8
	c1.2,9.3,2.8,18.6,5,27.7c0,0.1,0.1,0.2,0.1,0.3c0.2,1,1.1,2.4-0.2,2.7c-1.4,0.4-1.3-1.3-1.5-2.2c-0.9-3.8-1.8-7.5-2.5-11.3
	c-2.9-14.9-4.5-29.9-5.1-45c-0.2-3.5-0.9-6.7-2.9-9.7c-2.1-3.1-4-6.4-5.5-9.8c-1.2-2.7-3-3.4-5.8-3.7c-10.3-0.8-20.2-2.9-29.2-8.2
	c-4.1-2.4-7.5-5.6-9.6-10c-2.2-4.7-0.5-7.5,4.7-7c7.5,0.7,14.1,4.2,20.7,7.6c4.1,2.2,7.9,4.9,12.3,8.2c-2.9-7.3-5.4-13.8-8.2-20.2
	c-1.1-2.5-4.2-2.9-6.5-4c-8.1-4.2-15.8-8.8-22-15.6c-2.3-2.5-3.7-5.6-3.6-9.1c0.1-3,1.8-4.3,4.8-3.8c2.1,0.4,3.9,1.5,5.6,2.7
	c5.9,4.1,11.3,8.9,15.6,14.8c0.3,0.4,0.7,0.8,1.3,1.5c0.4-1.8-0.3-3.1-0.7-4.4c-2.2-6.9-3.5-14-4.5-21.1c-0.4-2.7-1.3-4.8-3.2-6.9
	c-5.3-5.8-9.4-12.2-10.1-20.3c-0.2-2,0-4,0.7-5.8c1-2.5,2.5-2.9,4.5-1.1c2.5,2.2,3.9,5.2,5,8.2c1.5,4,2.8,8.1,4.2,12.4
	c1.8-2.6,2.7-5.5,4.6-7.8c1.6-1.9,3-4,4.8-5.7c3-2.8,4.8-3.1,8.4-1.2c0.1-0.2,0.3-0.3,0.3-0.5c0.1-2.3,0.1-4.8,2.9-5.7
	c3-1,5,0.8,6.5,3.1c2.9,4.4,4.2,9.5,5.9,14.4c0.7,2.1,1.1,4.4,2.1,6.5c0.7-5.2,1.3-10.4,2-15.6c0.2-1.7-0.7-2.7-1.8-3.7
	c-5.2-4.7-10-9.8-13.8-15.7c-2.3-3.6-4-7.3-3.9-11.7c0.1-1.9,0.1-4,2.1-4.9c2.1-0.9,3.5,0.9,4.7,2.3c5.1,6,8.3,13,11.4,20.1
	c0.6,1.3,1.1,2.7,2.3,4c0.5-4,1.1-7.9,1.6-11.9c0.2-1.3-0.9-2-1.6-2.9C68,35,64.8,30.5,63.6,25c-1-4.5-0.5-8.7,2-12.6
	c0.8-1.3,1.8-2.5,3.4-2.3c1.7,0.1,2.5,1.5,3,2.9c2.3,5.7,2.7,11.7,3.3,17.8c0.1,1.4,0.2,2.8,0.3,4.4c1.5-0.6,1.9-1.8,2.6-2.7
	c2.9-3.7,6.2-6.8,10.4-8.8c2.6-1.2,5.3-1.9,8.2-1c2.9,0.9,5.5,2.4,6.1,5.7c0.6,3.2-1.7,5-4,6.5c-6.3,4-13.3,5.9-20.5,7.5
	c-2.6,0.6-3.6,1.7-3.8,4.3c-0.4,4.9-1.2,9.7-1.9,14.6c1.8,0.2,2.2-1,2.9-1.8c4.5-4.6,9.2-9.1,14.6-12.7c2.3-1.5,4.6-2.9,7.4-3.1
	c3.4-0.2,4.9,2,3.4,5c-0.6,1.3-1.5,2.6-2.5,3.6c-7,7.2-14.6,13.4-25.1,14.5c-1.8,0.2-1.8,1.5-1.9,2.7C71,75.7,70.5,82,69.9,89.2
	c4.3-5.5,8.2-10.3,12.6-14.7c2.5-2.5,5.1-4.6,8.7-5.3c1.8-0.3,3.6-0.5,4.8,1.2c1.1,1.6,0.6,3.3-0.3,4.7c-3.9,6.4-9.2,11.6-15.7,15.4
	c-2.9,1.8-6,3.4-9.6,3.6c-1,0.1-1.4,0.8-1.5,1.7c-0.1,1.3-0.3,2.8,0.3,4c0.3,0.6,1.1-0.1,1.7-0.3c2.7-1.1,5.8-2.5,8.2,0
	c2.5,2.5,0.7,5.5-0.4,8.2c-1.8,4.5-4.2,8.8-7.5,12.2C67.4,124.2,66.8,128.8,67.4,135z M43.9,98.6c6.2-6.8,11.7-14.1,15.3-22.6
	c-1.4,1.2-2.5,2.5-3.5,4C51.4,85.9,47.2,92,43.9,98.6c-0.2,0.3-0.5,0.6-0.7,0.9c0.1,0,0.1,0.1,0.2,0.1
	C43.6,99.3,43.7,98.9,43.9,98.6z M48,138c0.8-2.4,1.4-4.2,2-5.9c3.3-9.3,6.9-18.7,13.6-26c4-4.4,3.5-9.2,4-14.2
	c0.1-0.5-0.3-1.2-0.6-1.7c-2-2.7-4.1-5.3-6-8c-1.2-1.7-1.8-1.3-2.8,0.2c-4.8,7.2-9.4,14.6-15.3,20.9c-4.1,4.4-4.9,8.5-2.7,13.9
	C42.9,123.9,44.7,130.8,48,138z M64.7,170.5c0.1-13.9,0.2-27.7,0.6-42.3c-5.1,5.1-9.4,9.8-14.8,13.1c-0.7,0.5-0.7,1.2-0.4,1.9
	C54.2,152.7,58.9,161.8,64.7,170.5z M73.4,141.6c-1.7,0.1-2.6,1.5-4,1.8c-2,0.4-2.5,1.6-2.6,3.6c-0.2,16.9,0.3,33.8,1.8,50.6
	c0.1,0.8-0.2,1.8,1,2.6c1-2.5,2-4.7,3-7c0.6-1.4,1.3-2.7,1.1-4.5C71.8,173,70.1,157.3,73.4,141.6z M14.2,138.2
	c3.5,9.8,25.5,19.9,37.2,17.5C39.5,148.9,27.1,143.8,14.2,138.2z M52.3,66.4c-1.2,1.9-2.2,3.8-3.4,5.6c-3.4,5.1-8.5,8.2-13.2,11.7
	c-0.9,0.7-2.1,1-2.1,2.5c0.1,5.7,1.5,11.1,3.2,17.2c0.9-3.4,1.7-6,2.3-8.6c2.1-9.1,5.8-17.2,14.5-21.9c0.9-0.5,1.4-1.2,0.9-2.3
	C53.8,69.3,53.6,67.6,52.3,66.4z M78.3,103c-5.2,2.7-24.9,29.4-26.2,35.3C63.4,127.9,73.4,117.3,78.3,103z M77.2,100.2
	c-4.7,0.1-7.7,2.1-10.2,4.8c-7.3,7.7-11.8,17-14.6,27.1C60,121.2,67.2,110.1,77.2,100.2z M51.3,153.1c-3.2-3.9-7.3-6.7-11.6-9.2
	c-6.7-4-13.6-7.6-21.4-9c-1.5-0.3-3-0.5-4.5,1.1C26.6,141.5,39.1,146.8,51.3,153.1z M77.1,139.4c-5.9,14.1-3.2,28.6-2.2,43
	C76.5,168.1,77.3,153.8,77.1,139.4z M58.3,72.9c-11.1,2.8-17.4,16-18.5,28.3C45.4,91,52.2,82.6,58.3,72.9z M37.5,123.2
	c-7.5-8.4-16.3-15.4-25.3-22.1C16.4,113.2,27.6,117.5,37.5,123.2z M88,113.9c-4.7,10-10.9,18.9-18.7,26.7
	C80.2,135.7,88.6,126.7,88,113.9z M79.2,39.8c6.9-1.4,13.7-3.2,19.6-7.3c1.3-0.9,2.8-2.2,1.9-3.8c-0.9-1.6-2.7-0.8-4-0.4
	C89.8,30.5,84.4,34.9,79.2,39.8z M124.6,159.9c-11.3,1-21.7,5.4-32,9.6C103.6,167.4,114.9,166.6,124.6,159.9z M94.9,72.4
	c-3.6,1.3-6.2,3-8.3,5.5c-1.3,1.6-2.3,3.4-3.8,4.8c-3.4,3.4-7.2,6.3-11.7,9.5C78.7,91.6,92.9,79.7,94.9,72.4z M137.1,112.3
	c1.3,0,2.6,0.1,3.9,0c7.1-0.7,14.3-0.9,21.2-3.4c1-0.4,2.3-0.7,2-2c-0.2-1-1.6-0.8-2.5-0.8C152.9,106.1,145,109,137.1,112.3z
	 M80.7,139.8c-0.3,0-0.6,0-0.8,0c-0.8,13.6-1.6,27.2-2.4,40.8C80.6,167.1,82.8,153.6,80.7,139.8z M100.9,106.6
	c-6.2,2.8-6.6,21.8-3.3,28C97.8,125.2,99.8,116.1,100.9,106.6z M37.7,119.7c-4.3-9-19.2-21.9-24.3-21.1
	C21.5,105.8,30.1,112.2,37.7,119.7z M98.1,25.8C92.4,21.4,80,29.1,77,38.6C83.5,33.3,89.8,28.1,98.1,25.8z M69,137.2
	c7.6-6.2,12-14.6,16.2-23.1C78.5,120.9,72.7,128.4,69,137.2z M141.5,124.2c-8.7,1.8-16.7,5.6-24.7,9.3
	C125.7,132.1,134.5,130.5,141.5,124.2z M98,45.8c-8.6,1.8-13.9,8.3-19.7,14C85.5,56,92.5,51.9,98,45.8z M93.5,166.5
	c9.8-3.3,19.4-7.2,29.6-9.5C111.9,155.9,102.8,161.5,93.5,166.5z M21.1,59.6c-1.2,6.5,3.5,17.6,8.6,20.3
	C27,73.1,24.7,66.4,21.1,59.6z M99.9,138.6c2.1-9.5,3.8-19.1,3-28.9C100.9,119.2,99.4,128.7,99.9,138.6z M66.6,83.8
	c-0.3-9.6-4.8-22.3-8.7-25.2C60.2,67.4,63.5,75.6,66.6,83.8z M53.7,31.4c-1.5,5.3,4.5,16.6,11.1,21C61,45.3,57.4,38.5,53.7,31.4z
	 M35.2,79c4.3-5.5,8.6-11,12.9-16.5c-0.2-0.2-0.5-0.4-0.7-0.6C39.8,64.8,37.8,72.1,35.2,79z M70.7,34.2c-1.2-6.6-2.5-13-3.8-19.9
	C63.5,20.2,65.4,29.4,70.7,34.2z M53.3,60.5c0.5,3.2,1.1,6.5,2.7,9.6c0.7,1.3,1.9,1.3,2.9,0.9c1.4-0.5,0.6-1.5,0.3-2.3
	c-1-3-2-6.1-3.1-9.1c-0.3-0.9-0.1-2.5-1.6-2.2C53.2,57.7,53.4,59.2,53.3,60.5z M92.7,71.2c-5,0-17.5,11.4-19.4,17.4
	c3.7-2.5,7.1-5,9.3-8.6c2-3.3,4.8-5.3,7.8-7.4C91.2,72.2,92,71.7,92.7,71.2z M68.5,54.1c-1.6-7.3-9.3-21-13-23.4
	C59.6,38.8,63.6,46.6,68.5,54.1z M97.3,50.4c-7,5.1-14.4,9.4-21.6,14.1C84.5,62.3,91.5,57.2,97.3,50.4z M73.6,35.4
	C73,27.9,73.2,20,69.4,13C70,20.6,71,28.1,73.6,35.4z M37.6,79.6c5.3-3.9,10.7-7.7,12.1-14.8C45.1,69.2,41.2,74.3,37.6,79.6z
	 M22.5,57.6c2.7,6.7,5.4,13.5,8.5,21.1C30.8,71.2,26.7,60.5,22.5,57.6z M139.9,108.2c7.3-1.8,14.5-4,22-4.6
	C153.7,101,146.9,104.9,139.9,108.2z M133.3,88.6c-2.4,6-3.1,12.4-3.8,18.8C131.4,101.3,134.9,95.4,133.3,88.6z M127.5,104.4
	c1.1-5.2,2.2-10.4,3.4-15.7c-0.3-0.1-0.7-0.1-1-0.2C125.6,93.2,126.7,98.8,127.5,104.4z M121.1,128.9c6.3-2.6,12.6-4.9,19-7.2
	C132.8,121.6,126.9,125.2,121.1,128.9z M61.3,76.9c-0.9,2.2,0.5,3,1.6,3.9C62.7,79.6,62.6,78.3,61.3,76.9z M118,128
	c-0.2-0.1-0.3-0.2-0.4-0.2c-0.1,0-0.2,0.1-0.2,0.2c0,0.1,0.1,0.3,0.2,0.4C117.7,128.3,117.8,128.1,118,128z"/>
</svg>
