<?xml version="1.0" encoding="utf-8"?>
<!-- Generator: Adobe Illustrator 25.3.0, SVG Export Plug-In . SVG Version: 6.00 Build 0)  -->
<svg version="1.1" id="Layer_1" xmlns="http://www.w3.org/2000/svg" xmlns:xlink="http://www.w3.org/1999/xlink" x="0px" y="0px"
	 viewBox="0 0 86.7 228.1" style="enable-background:new 0 0 86.7 228.1;" xml:space="preserve">
<path d="M72.7,82c3.7-2.3,6.2-4.1,9-5.5c3.6-1.7,5.3-0.2,4.9,3.7c-0.5,5.7-3.8,10.2-8.7,11.8c-10.3,3.3-13.8,11.6-17.6,20.2
	c-1.4,3.3-3.1,6.6-5.3,9.5c-9.4,12.3-8,27.2-9.9,41.5c3.6-5.8,10.5-8.8,11.4-16.8c0.6-5.5,4.5-9.5,9.2-12.5c3.1-2,4.9-1.2,4.8,2.6
	c-0.1,7.4-3.6,13-9.6,17c-2.5,1.6-5.3,2.6-7.4,6.1c4.1-0.4,7.7-1.4,11.3-0.8c3.7,0.7,4.1,2.2,1.8,5.1c-3.7,4.8-8.9,5.4-14.3,5.6
	c-7.1,0.2-8.7,1.3-8.7,8.5c-0.1,15.3-2,30.7,0.5,46c0.2,1.5,1.4,3.8-1.2,4.2c-2.1,0.3-2.7-1.8-3-3.5c-0.9-5-1.6-10.1-1.3-15.3
	c0.4-7.5-0.3-14.6-3-21.9c-4.7-12.6-7.4-25.8-9.9-39c-0.6-3.2-1.5-4.6-4.9-5.3c-7.4-1.6-12.2-6.7-15.3-13.4c-1.9-4-0.5-5.5,3.9-5
	c5.6,0.6,8.6,5.2,13.2,8.7c0.1-7.1-2.2-13.2-3.3-19.5c-0.3-1.7-2.2-1.9-3.5-2.5c-7.2-3.2-11.5-9.3-15-16c-0.9-1.7-1.4-3.2,0.3-4.6
	c1.4-1.2,2.9-0.3,4.1,0.5c3.6,2.6,7.1,5.3,11.9,9c-2.7-7.8-3.1-14.3-8.9-19.9c-7.3-7-6.9-17.3-5.4-26.6c0.7-4.3,4.1-1.3,5.5,0.5
	c4.8,6.3,8,13.5,7.5,21.3c-0.5,6.8,2,12.4,4.1,19.5c2.5-3.9,3.3-7.9,6.2-10.4c1.1-0.9,1.7-2.9,3.4-2.5c2.1,0.5,1.6,2.8,1.9,4.3
	c1.3,6.6-0.4,13.1-4,18.4c-3.9,5.9-4.2,11.3-1.4,17.8c2.7-3.5,3.9-7.9,7-10.9c1.1-1,2-2.5,3.7-2.1c1.8,0.5,1.6,2.3,1.7,3.7
	c1.1,10.1,0,19.6-7.3,27.5c-1.2,1.3-2.3,2.6-1.9,4.5c2.8,12.2,4.9,24.5,9.6,37.7c1.6-27.4,5.8-53,8.2-78.8c0.4-4.2-0.2-7-4.2-10.1
	c-8-6.1-10.4-15.8-12.3-25.3c-0.2-1.1-0.1-2.2,1.1-2.7c1.8-0.8,3.4,0,4.7,1.1c4.4,3.5,7.4,8.2,10.3,12.9c0.4,0.7,0.5,1.7,1.9,1.7
	c1.1-4.5,0.5-9.1,0.7-13.7c0.1-2-0.9-2.9-2.4-4.1c-8.6-6.7-9.8-17-12.2-26.6c-0.3-1.2,0.3-2.1,1.4-2.6c1.4-0.5,2.5,0.3,3.4,1.2
	c3.5,3.2,5.9,7.2,8.5,12.7c0.2-5.7,1.3-9.6-2.1-13.9c-4.8-6-3.2-27.3,1.4-33.3c0.8-1,1.6-2.3,3.1-1.7c1.7,0.6,2.6,2.3,3,3.9
	c2.2,8.6,3.1,17.5,0.2,25.9c-2.8,8.3-1.8,16.2-1,25.9c3.1-6.1,4.7-11.5,8.6-15.4c1.5-1.5,2.9-3.9,5.1-3.3c2.9,0.8,1.3,3.7,1.2,5.6
	c-0.4,9.9-5.5,17.7-11.6,25c-1.5,1.8-3.1,3.3-3.1,6c0,15.2-1.9,30.2-3.3,45.3c-0.1,1,0,2.1,0,4.2c4.7-6.5,7.4-13.1,10.7-19.3
	c0.9-1.6,0.2-2.7-0.6-4.1c-3.7-6.1-2.8-12.7-2-19.3c0.2-1.4,0.5-3.3,2.2-3.5c2.1-0.3,2.8,1.7,3.4,3.2c0.9,2.4,1.4,4.9,2.9,7.5
	c3-9.4,8.8-18,7.8-28.5c-0.6-6.6,0.2-12.8,4.1-18.3c0.8-1.2,1.7-2.7,3.4-2.5c1.8,0.2,2.1,1.9,2.5,3.3c2.3,8.3,1.8,16.1-4.5,22.6
	C75,69.2,75.8,75.8,72.7,82z M56,61.2c4.8-5,7.3-10.9,7.6-17.7c-4.3,5.2-7.4,11-7.5,17.8c-0.2,0.2-0.4,0.3-0.6,0.5
	c0.1,0,0.4,0,0.4-0.1C56,61.5,56,61.3,56,61.2z M34.7,71.2c2.2,8.3,4.5,16.5,12.6,22.8C46.4,83.7,41.1,77.1,34.7,71.2z M34.7,114.8
	c-5.6,7.5-6.8,14.7-5.6,23.3C35,129.6,35.9,126.1,34.7,114.8z M48.9,32.6c3.4-8.3,3.6-20,0.7-26.4C46.6,13.4,46.2,24.7,48.9,32.6z
	 M12,80c0.7-10.2-1.6-17.4-6.3-21.4C5.8,66,6.3,72.9,12,80z M7.2,127.2c4.1,6.8,8.1,11.4,16.3,13.2C19,134.1,15.2,129.2,7.2,127.2z
	 M83.1,78.8c-5.4,3.5-9,6.8-11.5,12.9C77.3,88.4,82.6,86.6,83.1,78.8z M77.6,61.2c4.8-5.9,4.7-11.3,3.2-18
	C76.9,49,77.1,54.3,77.6,61.2z M17.6,107.7c-2.8-5.3-7.4-8.8-12.2-12C8.1,101.2,11.7,105.6,17.6,107.7z M23.1,105
	c2.7-4.9,5.7-9.7,4.4-17.3C24.1,94.1,21.8,99.1,23.1,105z M67.4,136.4c-6,5.3-7.2,7.6-7.6,14.1C63.4,146.5,66.7,142.8,67.4,136.4z
	 M65.2,161.7c-8.4-0.2-10.5,0.6-13.7,4.4C56.3,165.7,60.9,166.2,65.2,161.7z M46.4,58c-0.7-5.8-2.2-11.2-6.5-15.3
	C41.1,48.2,42.6,53.6,46.4,58z M61.6,85.8c-0.8-0.8-1.2-0.8-1.2-0.1c-0.3,3.7,0.1,7.3,1.9,10.7C63.6,92.5,62.7,89,61.6,85.8z"/>
</svg>
