<?xml version="1.0" encoding="utf-8"?>
<!-- Generator: Adobe Illustrator 25.3.0, SVG Export Plug-In . SVG Version: 6.00 Build 0)  -->
<svg version="1.1" id="Layer_1" xmlns="http://www.w3.org/2000/svg" xmlns:xlink="http://www.w3.org/1999/xlink" x="0px" y="0px"
	 viewBox="0 0 104.2 249.7" style="enable-background:new 0 0 104.2 249.7;" xml:space="preserve">
<path d="M47.9,163.6c2.6-5.8,4.3-11.6,7.1-17.1c2-3.9,4.2-7.6,7.6-10.5c3.5-3.1,7.5-4.3,12.1-2.9c5.2,1.5,6.9,5.1,4.6,10
	c-1.7,3.6-4.3,6.5-7,9.2c-6.2,6.1-12.5,12.1-18.8,18.1c-3.2,3-4.4,6.4-3.9,11c2,18.2,4.1,36.4,6.9,54.6c0.1,0.7,0.2,1.4,0.3,2.1
	c0,0.7-0.1,1.5-0.9,1.7c-1,0.2-1.5-0.4-1.7-1.3c-0.4-2.1-0.7-4.2-1-6.3c-2.5-16.9-4.7-33.8-6.1-50.7c-0.4-4.4-2.1-7.6-5.2-10.3
	c-5.1-4.3-10.4-8.5-15.5-12.8c-4.1-3.4-8.3-6.6-11.6-10.8c-2.1-2.7-4.2-5.6-2.3-9.3c1.5-2.9,6.7-4.8,10.6-4.1
	c5.2,0.9,8.7,4.4,11.7,8.4c3.8,5,6.3,10.7,8.7,16.5c0.4,1.1,0.9,2.1,1.8,3.1c-0.1-1.2-0.1-2.4-0.2-3.6c-2-29.7-2.9-59.4,0.4-89.1
	c0.2-1.9-0.1-3.1-1.8-4.1c-2.3-1.5-4-3.7-4.8-6.4c-0.7-2.3-2.1-2.6-4.2-2.7c-7.1-0.3-14.2-0.7-20-5.3C10.3,47.6,9,42.7,10.8,38
	c0.7-1.8,1.8-3.6,3.7-4c2.9-0.6,3.1-1.5,1.5-3.8c-0.8-1.2-1.3-2.8-1.6-4.2c-1-5.7,3-9.1,8.5-7.5c3.7,1.1,6.7,3.3,9.6,5.8
	c1.7,1.4,3.2,3,5.4,5.1c-0.4-2.3-0.7-4-0.9-5.6c-0.2-1.6-0.4-3.3-0.3-4.9c0.1-4.9,2-8,5.2-8.6c3.2-0.6,6.1,1.6,8.2,5.9
	c1.6,3.3,2.3,6.9,3.1,10.7c1.4-1.1,1.6-2.6,2.2-3.8c1.8-3.6,3.7-7.2,7-9.5c4.9-3.5,9.9-1.2,10.3,4.8c0.2,2.1,0,4.1,0,6.4
	c2-1.1,3.8-2.3,5.8-3.3c2.9-1.4,5.9-2,8.6,0.3c2.8,2.4,2.6,5.6,1.6,8.8c-1.3,4.1-4.1,7.3-7.1,10.9c2.5,0,4.5-0.1,6.4,0
	c2.6,0.2,4.9,1.1,5.9,3.8c1,2.8-0.1,5.3-2.3,6.8c-2.3,1.6-2.3,2.7-0.8,5c2.1,3.1,0.9,5.9-2.9,7c-6.7,2-13.1,0.9-19-2.5
	c-1.9-1.1-2.9-1.3-4.5,0.7c-3.2,3.8-7.7,5.9-12.8,5.7c-2.7-0.1-3.3,0.8-3.6,3.3c-2.4,21.7-2.3,43.4-1.5,65.1
	C46.7,145.4,47.4,154.5,47.9,163.6z M69.9,20.2c-0.3-2,0.1-4.3-2.2-5c-2-0.7-3.6,0.6-5,1.9c-1.8,1.7-3,3.9-4.1,6.1
	c-2.6,5.4-4.3,11.2-5.6,17c-0.3,1.2-1.2,2.9,0.7,3.6c1.8,0.7,3.5,1.8,5.4-0.2C65.3,36.8,68.8,29,69.9,20.2z M17.3,25.1
	c0.2,1.8,1.1,3.6,2.3,5.2c1.8,2.3,3.9,4.4,6.4,6c4.4,2.8,8.4,6,12.3,9.5c0.9,0.8,1.6,2.3,3.2,1.1c1.6-1.1,1.7-2.4,1-4.3
	c-3.6-9-9.9-15.5-18.1-20.4c-0.8-0.5-1.7-0.8-2.6-1C18.9,20.6,17.2,22,17.3,25.1z M82.1,23.1c-4.9,1.8-9.7,4.8-12.4,10
	c-2.2,4.2-4.3,8.3-7.6,11.8c-0.5,0.5-1.6,1-0.8,2c0.6,0.8,1.6,0.9,2.6,0.6c8.5-2.7,16-6.8,20.6-14.9c1-1.8,1.9-3.6,1.9-5.6
	C86.3,24.6,85.2,23.2,82.1,23.1z M33.1,53.1c1.1-0.3,3.2,1.1,4.2-0.9c0.6-1.1,0.6-2.6-0.5-3.6c-5.3-4.8-10.6-9.6-17.7-11.7
	c-2.8-0.9-4.7,0-5.6,3.1c-1.2,4.6,0.6,8.4,5,10.2C23,52,27.7,53,33.1,53.1z M50.4,32.1c-0.1-4.9-0.7-11-3.9-16.4
	c-0.8-1.4-1.9-2.9-3.8-2.6c-2.1,0.4-2.5,2.2-2.8,4c-0.2,0.9-0.2,1.9-0.1,2.8c0.6,7.7,2.7,14.9,6,21.9c0.3,0.7,0.6,1.6,1.7,1.4
	c1.1-0.2,2-0.6,2.2-1.9C50.2,38.7,50.3,36,50.4,32.1z M51.7,65.2c2.7-0.2,5.6-1.1,8.2-2.9c3.6-2.6,3.5-4.9-0.4-7.1
	c-0.8-0.4-1.8-0.7-2.7-0.8c-5-0.1-9.8-0.6-14.2-3.2c-1.3-0.8-2.1-0.4-2.2,1.3C39.7,58.9,45.1,65.1,51.7,65.2z M74.6,54.3
	c4.1,0,8.9-0.9,13.3-3.4c1.7-1,3.7-2.2,3-4.6c-0.7-2.2-2.9-2-4.8-2c-7.2-0.1-13.3,3.3-19.5,6.3c-1.6,0.8-1.4,2.4,0.5,3
	C69.3,54.2,71.5,54.2,74.6,54.3z M53.6,165.5c7.3-6.4,14.7-12.5,20.8-20c1.3-1.5,2.4-3.2,3-5.1c0.3-0.9,0.5-2-0.4-2.6
	c-1.1-0.8-1.7,0.3-2.3,0.9c-5.6,5.1-10.7,10.5-15.1,16.6C57.1,158.5,54.9,161.7,53.6,165.5z M40.4,165.6
	c-6.1-10.3-14.5-18.5-23.9-25.7c-0.4-0.3-1-0.8-1.6-0.4c-0.8,0.6-0.7,1.5-0.5,2.3c0.7,2.6,2.6,4.5,4.4,6.3
	C25.3,154.7,32.9,160,40.4,165.6z M16.8,137.9c9.3,7,17.1,14.7,23.9,23.5c-2.8-7.9-6-15.5-12.3-21.3
	C25.3,137.1,21.7,135.8,16.8,137.9z M52.6,161.7c5.8-8.8,12.5-16.9,20.3-24c0.4-0.4,0.9-1.1,0.8-1.4c-0.2-0.8-1.1-0.8-1.8-0.8
	c-4.2-0.4-7.2,1.8-9.7,4.8C57.1,146.4,54.6,153.9,52.6,161.7z M68.9,57.4c4.8,4,10.3,5.1,16.3,4.1c1.3-0.2,3.6-0.4,3.1-2.5
	c-0.5-2-1.8-4-4.6-3.2C78.9,57.4,74,57.4,68.9,57.4z"/>
</svg>
