<?xml version="1.0" encoding="utf-8"?>
<!-- Generator: Adobe Illustrator 25.3.0, SVG Export Plug-In . SVG Version: 6.00 Build 0)  -->
<svg version="1.1" id="Layer_1" xmlns="http://www.w3.org/2000/svg" xmlns:xlink="http://www.w3.org/1999/xlink" x="0px" y="0px"
	 viewBox="0 0 138.6 251.3" style="enable-background:new 0 0 138.6 251.3;" xml:space="preserve">
<path d="M74.6,87.5c5.2-3.3,10.4-6.2,16.2-7.8c1-0.3,1.5-1,2-1.8c5-7.9,12.9-10.6,21.6-11.1c5.3-0.3,7.2,2.2,5.9,7.3
	c-0.4,1.5-0.1,2.2,1.1,3c1.6,1,3.2,2.1,4.5,3.5c4.2,4.2,3.4,8.1-2.1,10.4c-3.9,1.7-8,1.5-12,0.5c-5.5-1.5-10.3-4.4-14.7-7.8
	c-1.9-1.5-3.7-2-6-1.1c-2.5,1-5.2,1.7-7.7,2.8c-6.9,3-11.8,7.3-13.4,15.5c-2.6,13.3-5.4,26.5-7.1,41c6.3-7.4,13.2-12.6,21.2-16.4
	c1.1-0.5,1.3-1.6,1.9-2.5c3.8-6.2,8.3-11.8,14.5-15.7c4.6-2.8,9.4-3.5,14.4-1.4c3.9,1.7,5.1,4.7,3.7,8.7c-0.6,1.5-0.8,2.4,0.5,3.8
	c4.4,4.6,3.5,10.8-1.9,14.7c-4.4,3.1-9.4,3.6-14.5,2.8c-5.4-0.8-10.7-2.2-15.2-5.5c-1.6-1.2-2.8-1-4.4-0.1c-7.4,4-13.9,9-19.5,15.2
	c-1,1.1-1.5,2.2-1.6,3.6c-1.9,17.2-2.4,34.5-1.5,51.8c0,0.3,0.2,0.7,0.4,1.7c4.2-7.5,8.6-14.1,14.5-19.6c1-0.9,0.6-2.3,0.8-3.5
	c1.7-10.1,8.8-18.1,17.6-19.8c5.9-1.1,8.1,0.1,9.8,5.8c0.4,1.4,1.4,1.4,2.4,1.8c6.9,2.9,8.5,8.9,3.9,14.8c-3.9,5-9.3,6.3-15.3,5.9
	c-4.9-0.3-9.7-1.6-14.4-3c-1.8-0.5-3-0.3-4.4,1c-6.1,6.2-9.9,13.9-14.4,21.2c-0.7,1.1-0.3,2.4-0.2,3.6c0.8,8.5,2,17,3.7,25.4
	c0.3,1.6,1,3.1,0.4,5.1c-1.7-0.8-1.6-2.4-2-3.6c-5.2-19.5-7-39.4-6.3-59.5c0.4-10.9-5.3-18.4-12.1-25.7c-0.9-0.9-1.8-0.9-2.9-0.8
	c-10.1,1.5-18.8-2.2-26.7-7.7c-4.4-3-6.5-8-5-13.7c1.1-4.4,3.7-6.4,8.2-6c1.5,0.1,2.4,0,2.6-1.6c0-0.3,0.2-0.5,0.3-0.8
	c1.5-3.5,2.9-7.5,7.4-7.9c4.2-0.3,6.4,3.2,8.5,6.2c4.8,7.1,6.1,15.3,7.4,23.5c0.5,3.1,1.5,5.6,3.8,7.8c3.5,3.2,6.2,7.2,9,11.4
	c0.3-2.7,0.7-5.5,0.9-8.2c1-11.5,2.7-23,4.8-34.3c0.4-2.2,0-3.9-1.2-5.7c-2.7-4.1-5.3-8.3-7.7-12.5c-1.3-2.3-2.8-3.2-5.5-3.1
	c-6.7,0.3-13.4-0.1-19.8-2.3c-5.2-1.8-9.5-4.4-11.5-10.1c-2-5.5,0.4-9.8,6.2-9.9c2.3,0,3-0.6,3.5-2.6c1.1-3.9,2.4-7.9,7-8.7
	c4.5-0.8,7.2,2.5,9.7,5.6c4.3,5.4,6.1,11.8,7.2,18.4c0.5,3.1,1.6,5.6,3.6,8c3.7,4.5,6.4,9.8,9.2,15.4c1.6-3,1.8-5.9,2.4-8.7
	c2.4-10.4,5.1-20.6,8.7-30.6c0.8-2.1,0.7-3.9-0.4-5.8c-0.7-1.2-1.3-2.4-1.9-3.6c-2.6-5.3-5.9-9.3-12.8-9.2c-4.4,0-8.6-2.3-12.2-5.2
	c-2.5-2-4.3-4.5-5.2-7.7c-1.1-3.9,1.1-9.1,6.4-8.4c2.9,0.4,5.2-0.7,7.2-2.9c3.3-3.7,7.2-3.2,9.6,1.4c2.5,4.6,3.7,9.8,3.9,14.9
	c0.1,5.1,1.4,9.5,4.6,13.5c1.2,1.5,1.9,3.5,3.1,5.9c1.5-3.6,2.8-6.7,4.1-9.7c3.5-7.6,7.2-14.9,11.8-21.9c1.2-1.8,1.6-3.6,1.5-5.7
	c-0.3-4.5-0.2-9,1.1-13.4c0.8-2.7,1.9-5.2,5.1-5.8c3.1-0.5,5.2,1.2,6.7,3.7c1.1,1.9,2.8,2.7,5,3.1c4.5,0.9,5.6,2.9,4.4,7.3
	c-0.8,2.7-2.6,4.8-4.9,6.3c-4,2.8-8.5,4.2-13.2,5.1c-2.2,0.4-3.6,1.4-4.7,3.4c-2.8,5.4-5.9,10.6-7.8,16.5c4.7-3.3,10.4-4.4,14.3-9.4
	c3.7-4.8,9.5-6.8,15.7-6.4c5.6,0.4,7.1,3.4,4.2,8.2c-0.9,1.4-0.7,2.2,0.2,3.5c2,3.1,1.3,5.4-2,7c-5.9,2.9-11.8,1.9-16.5-1.9
	c-4.7-3.9-8.2-2.5-12.6-0.1c-4.4,2.4-7.3,5.6-8.9,10.4C79,73.7,76.1,80.3,74.6,87.5z M41.7,144.7c-1.5-7.8-2.4-14.8-5.7-21.2
	c-1.6-3.1-3.6-6.5-7.5-5.9c-3.8,0.6-4.3,4.6-4.8,7.8c-0.5,3-1.3,4.4-4.3,2.3c-1.6-1-3.4-1.2-4.9,0.1c-1.5,1.3-1.7,3-1.3,4.9
	c0.7,3.1,1.6,6.1,4,8.3c6.6,6,14.6,7.5,23.1,7.8c-2.4-3.1-5.3-5.6-7.4-8.7c-0.5-0.7-1-1.5-0.2-2.1c0.6-0.5,1.2,0.1,1.8,0.5
	C36.7,140.4,38.8,142.2,41.7,144.7z M89.1,127.6c6.6,3.5,13.2,5.9,20.5,4.9c3.9-0.6,7.2-2.4,9.1-6.1c1.3-2.7,1.1-5.2-1.7-6.7
	c-2.5-1.3-2.9-2.4-1.4-4.9c2.2-3.6,0.5-6.7-3.7-7.4c-3.6-0.6-7,0.2-10.1,2.3c-4.9,3.4-8.5,8.2-12.6,13.2c3.7-0.9,6.9-1.7,10-2.3
	c0.9-0.2,2.4-0.8,2.8,0.6c0.4,1.5-1.1,1.6-2,2C96.5,124.5,92.8,125.5,89.1,127.6z M47.9,89.4c-1-5.7-2.1-11-5.3-15.5
	c-1.9-2.8-4-6.1-8-5.3c-4.2,0.9-4.7,5-5,8.5c-0.2,2.9-0.8,3.8-4,2.8c-4-1.2-5.8,0.8-5.3,5c0.3,2.1,1.4,3.6,2.9,4.8
	C31,96.1,40.1,96,50,96c-4.3-5.8-9.3-9.3-14.9-12.1C40.2,83.7,43.8,86.7,47.9,89.4z M81.3,181.9c5,1.5,9.4,3,14,3.4
	c5,0.5,9.1-1.2,11.9-5.6c3.4-5.2,1.7-9.1-4.5-10.2c-1.5-0.3-2.4-0.6-2.4-2.5c0-4.6-1.4-5.6-5.9-4.7c-7.4,1.6-13.8,8.7-15,16.8
	c4.4-2.3,8.1-5.5,13.1-5.8C89.6,176.9,84.9,178.2,81.3,181.9z M95.6,78.4c3.8-0.1,7.6-1.2,11.8,0.3c-2.6,2.3-5.6,1-8.2,2.7
	c5.9,3.8,11,8.4,18.2,8c3.2-0.2,6.8,0,8.3-3.7c0.8-2-2.3-5.7-6.3-7.1c-3.5-1.2-3.3-2.5-1.4-5.1c1.8-2.5,1.1-3.7-1.7-4.2
	C110.3,68.1,99,73.1,95.6,78.4z M65.5,53.5c-2.3-4-5.3-6.8-6.5-10.6c3.3,1.3,4.4,4.8,7.6,6.5c-0.6-5.9-0.8-11.5-3.7-16.5
	c-1.2-2.1-2.5-3.4-4.4-0.5c-2,2.9-4.7,4.2-8.4,4c-4.5-0.2-5.9,1.9-4.2,6c0.7,1.8,1.9,3.3,3.3,4.6C53.7,51,59,52.8,65.5,53.5z
	 M98.7,33.4c5.4-1.2,10.4-2.4,14.3-6c1.5-1.4,2.7-3.1,2.9-5.2c0.2-1.4,0-3.2-1.7-3.2c-4.2,0-6.9-2.7-10-4.9c-2.1-1.5-3.8-1-4.8,1.5
	c-1.6,4-2.1,8.2-2.2,12.8c1.7-0.9,2.2-2.4,3.2-3.4c0.6-0.6,1.1-1.3,2-0.6c0.6,0.5,0.2,1.2-0.1,1.8C101.3,28.4,99.4,30.3,98.7,33.4z
	 M101,52.2c1.5,1.8,3.4,2.6,5.1,3.6c3.5,2.1,7.2,2.2,11,0.7c2.4-0.9,3.4-2.6,1.2-4.6c-2.1-1.9-1.2-3,0.2-4.6
	c2.3-2.7,1.8-3.9-1.6-4.6c-5.8-1.1-10.1,1.4-14.3,5.7c3,0.5,5.7-0.7,8.6,1C107.7,51.4,104.2,50.5,101,52.2z"/>
</svg>
