<?xml version="1.0" encoding="utf-8"?>
<!-- Generator: Adobe Illustrator 25.3.0, SVG Export Plug-In . SVG Version: 6.00 Build 0)  -->
<svg version="1.1" id="Layer_1" xmlns="http://www.w3.org/2000/svg" xmlns:xlink="http://www.w3.org/1999/xlink" x="0px" y="0px"
	 viewBox="0 0 153.4 250.8" style="enable-background:new 0 0 153.4 250.8;" xml:space="preserve">
<path d="M44,162.4c0.7-8.4,1.3-16,2.1-23.6c0.2-2.1-1.1-3.2-2.3-4.4C32.4,122.4,24,108.9,20.1,92.7c-1.1-4.4-0.5-4.9,3.7-3.8
	c8.5,2.3,14.1,8,17.8,15.8c2.7,5.9,4.2,12.1,6.4,18.4c0.7-3.9,1.3-7.8,2.1-11.6c3.8-20.1,8.3-40.1,18.7-58.1
	c5.6-9.7,12.9-18.2,20-26.9c4.2-5.1,9-9.7,14.6-13.3c8.8-5.7,15.9-4.1,21.4,5c1.5,2.4,2.4,4.8,6.1,4.7c2.3-0.1,3.9,2.3,5.2,4.1
	c3.1,4.5,5.5,9.3,6.9,14.5c1.4,5.3,0.3,7.6-4.7,10.1c-0.7,0.4-1.5,0.8-2.2,0.9c-14.8,2.2-18.2-0.8-18.6-15.1
	c-0.1-2.8-0.1-5.7,0.7-8.4c0.5-1.8,1-4,2.7-4.9c3.9-2.1,1.9-4.1,0.3-6.2c-4.7-6.4-8.9-7.3-15.4-3.1C98,19.8,91.7,26.1,86.1,33
	c-0.8,0.9-1.5,1.9-1.3,3.4c11.9-1.2,18,6.1,22.2,15.7c0.9,2.1,1.8,3.1,4.2,3.4c4.3,0.6,7.5,3.5,10.1,6.9c3.8,5,5.5,10.7,6.4,16.8
	c0.2,1.3-0.5,2.4-1.1,3.4c-2.1,3.6-5.3,5.8-9.3,6.5c-6.4,1.1-12.8,0.7-19.2-0.8c-1.5-0.3-2.5-0.9-2.7-2.5c-1.1-7-1.7-13.9,0.9-20.7
	c1.4-3.9,3.6-6.9,7.5-8.4c1.6-0.6,2-1.4,1.3-3.1c-1.7-4.2-4.1-7.9-7.5-10.9c-6.5-5.7-15.5-4.6-20.4,2.6c-7.5,11-12.8,23-16.8,36.2
	c8.6-0.7,13.4,4.3,17.2,10.6c1.2,2,2.5,2.5,4.6,1.7c4.7-1.8,9.2-0.6,13.1,1.9c4.5,2.8,7.8,6.8,9.9,11.9c1.9,4.6,1.1,8.6-2.2,11.8
	c-6.2,6.3-14,8.3-22.6,7.5c-1.7-0.2-2.7-0.9-3.4-2.8c-1.5-4.4-4-8.5-5-13.2c-1-5-1.7-9.9,2.8-13.8c0.8-0.7,1.1-1.5,0.5-2.5
	c-2.1-3.8-4.5-7.4-8.6-9.3c-4.8-2.2-7.4-0.7-8.7,4.3c-6.7,27.3-9.9,55.1-10.6,83.2c-0.2,8.3,0.1,16.7,0.5,25.6
	c2-4.1,3.6-7.7,5.5-11.2c5.5-9.9,13.3-17.9,21-26c4.7-5,9.4-10,14.1-15c0.6-0.7,1.2-1.6,2.3-1.1c1.1,0.5,0.9,1.5,0.7,2.5
	c-2.3,11.1-2.7,22.5-5.2,33.5c-4.1,17.4-14.8,28.6-31.4,34.5c-5.3,1.9-5.3,2-4.3,7.7c0.8,4.6,1.8,9.3,2.6,13.9
	c0.2,1.3,1.2,3.3-1,3.6c-1.7,0.2-1.7-1.8-2-3c-4.2-19.4-6.2-39.1-6.2-59c0-3.9-1.2-5.8-4.5-7.9c-11.6-7.2-20-17.4-26.8-29.2
	c-1.5-2.6-2.4-5.4-2.6-8.4c-0.3-3.1,0.6-3.7,3.4-2.4c7.8,3.6,14.4,8.9,20.2,15.3C37.8,150.9,41,156.1,44,162.4z M49.2,209.6
	c6-9.9,12.1-19.6,20.4-27.8C64.9,193.4,56.9,203,50,213.3c1.2,0.5,1.8,0.2,2.4-0.1c16.8-7.2,28.3-18.9,31.6-37.5
	c0.5-2.8,1.1-5.6,1.5-8.3c0.7-4.8,1.3-9.6,2.1-15.1C64.9,172.2,49.2,195.5,49.2,209.6z M44.4,130.6c0.3-0.1,0.6-0.3,0.9-0.4
	c-0.7-4-1.2-8-2-11.9c-1.1-5.4-2.5-10.8-5.4-15.6c-3.2-5.3-7.5-8.8-14.3-9.8C27.4,107.7,35.6,119.3,44.4,130.6z M13.9,135.1
	c4.9,15.3,16,25.1,28.5,33.8C38.2,153.2,28.3,142.2,13.9,135.1z M82.8,97.9c1.5-0.5,2.3,0.5,2.9,1.2c3.4,3.6,7.5,6.7,9.4,11.4
	c0.7,1.7,1.6,2,3.4,1.7c4.6-0.9,4.6-0.8,2.6-5.2c-0.2-0.5-0.4-1-0.7-1.5c-2.5-5-9.2-10.9-18-9.7c-1.2,0.2-3.6,0.1-3.1,2.1
	c1.5,5.9,3.9,11.5,7.9,16.1c1.9,2.2,4.1-0.1,5.8-0.8c1.8-0.8-0.1-2.3-0.7-3.2c-2.1-3.1-4.2-6.2-7.1-8.7
	C84.3,100.3,83,99.5,82.8,97.9z M108.9,57.2c2.2,6.8,7.7,11.6,7.3,18.7c-4.6-4.9-5.4-11.7-8.8-17.5c-0.4,0.6-0.8,0.9-0.8,1.2
	c-0.5,5.9-0.9,11.8-1.4,17.7c-0.1,1.6,0.7,1.8,2,1.4c4.8-1.3,9.8-1.9,14.8-1.3c1.6,0.2,1.8-0.7,1.5-2c-1.2-4.5-2.3-9.1-5.4-12.9
	C115.8,59.7,113.1,57.7,108.9,57.2z M100.4,86.2c8.4,0.2,17.6,3.8,24.4-5.7C115.4,78.7,107.6,81.1,100.4,86.2z M104.1,59.9
	C97.3,63.7,95,74,98.6,82.8c1.6-1.1,4.4-1.4,4.4-3.6C102.8,72.8,103.4,66.5,104.1,59.9z M77,98.4c-5.5,8.6-0.6,15.1,2.3,22.2
	c1.9-1.4,3.4-2.6,5.1-3.7c1.3-0.8,1.3-1.5,0.2-2.4C80,110.4,78.9,104.6,77,98.4z M80.9,123.9c7.7,2.1,17.8-2.8,21.2-10.1
	C91.5,115.7,84.9,118.8,80.9,123.9z M123.5,26.2c-3,1.8-3.7,2.7-4,5.7c-0.5,4.8,0.9,9.3,1.9,13.8c0.1,0.7,0.5,1.5,1.3,1.1
	c1.5-0.8,3.2-1.6,4.4-2.7c1.1-1.1-0.5-2.1-0.9-3.1c-1.2-2.4-2-4.9-2.2-7.7C123.8,31,123.7,28.7,123.5,26.2z M128.5,24.3
	c-0.5,0.5-3.1-0.2-1.7,1.7c3.2,4.5,6.4,9,8.7,14c0.4,0.8,1.3,0.9,2.1,0.7c1.2-0.3,0.9-1.2,0.7-1.9c-1-3.6-1.8-7.3-3.8-10.6
	C133.2,26.1,131.4,24.6,128.5,24.3z M124.4,49.7c5,1,9.9,1.4,14.4-1.3c1.5-0.9,2.5-2.2,1.8-4c-0.7-1.9-2.3-1.4-3.8-1.1
	C132.1,44.1,128.3,46.9,124.4,49.7z M125.3,28.1c0,3.2,2.1,11,3.2,13.4c0.9,2,2,1.1,3.2,0.7c1.9-0.5,1.3-1.6,0.8-2.7
	c-0.8-1.7-1.3-3.5-2.2-5.1C129,32.2,128.1,29.5,125.3,28.1z"/>
</svg>
