<?xml version="1.0" encoding="utf-8"?>
<!-- Generator: Adobe Illustrator 25.3.0, SVG Export Plug-In . SVG Version: 6.00 Build 0)  -->
<svg version="1.1" id="Layer_1" xmlns="http://www.w3.org/2000/svg" xmlns:xlink="http://www.w3.org/1999/xlink" x="0px" y="0px"
	 viewBox="0 0 129.6 250.8" style="enable-background:new 0 0 129.6 250.8;" xml:space="preserve">
<path d="M58.5,12.2c3.7-2.4,10.9,0.2,15.8-1.2c1.9-0.3,4.2,1,6.5-0.5c3-2,7.5,2.6,5.5,5.6c-3,5.3-1.2,10.2,0.7,15.7
	c3.5-2.1,4.5-5.5,5.9-8.6c1.1-3.8-7.6-2-3.8-8.6c4.6-6.3,7.2,2.4,10.3,0c10-5,4.7,11.1,3.4,15.7c12.2-3.3,0.5-10.2,7.1-14.2
	c5.6-2.6,5.8,1.5,8.6,5.1c1.9,1.4,1.4,3.1,0.2,4.6c-3.3,4.2-4.5-3.4-7.9,1.5C98.4,36.8,89.3,47.4,83.2,62c9.3-0.9,34.5-6.1,17,8.8
	C87,75.2,79.6,58.4,68.4,79.5c1.2,0.9,2-0.1,2.9-0.5c9.3-3.6,3.5,9.7-2.9,8.1c-7.4-1.3-2.8,15.1-4,19.7c2.7,0.4,3-1.4,3.8-2.3
	c4.8-6.1,10.8-10.7,17.1-15.2c1.9-1.4,4.3-2.5,6.1-0.1c5.1,6.1-11.8,16.3-17.3,17.7c-7.4,1.8-8.8,4.6-8.9,12.4
	c-0.1,16.9,1,33.7,2,50.6c0.1,1-0.3,2.1,1.2,3.3c4.7-8.4,21.9-62.1,34.1-57.7c8.8,13.6-16.5,42.1-26.3,52c-6.2,5.7-8.6,12.4-7.1,21
	c2.4,14,3.3,28.2,5.5,42.2c0.7,4.2-4,6-6.9,10.1c-2.1-12.4-3.4-23.6-3.4-34.8c-0.3-21.9-30.2-10.5-36.8-37
	c-10.9-21.3,9.9-11.6,18.7-3.6c5.7,5.2,10.5,11.1,13.9,18c0.4,0.9,1.1,1.7,2.4,2.2c-1.2-12.8-1.9-25.6-1.1-38.5
	c1.1-13.8-14.5-18.1-22.6-26.5c-5.5-4.1-1-12.7-3.2-18.6c-0.4-2.2,1.1-2.2,3.1-1.8c13.2,2.3,17.4,13.3,23.2,23.5c0-12,0-23.9,0-35.9
	c0.1-2.9-0.5-4.1-4-3.3c-13.1,3.8-15.9-13.9,3.6-6.6c0.5-2.3-0.8-3.1-2-3.6c-8.1-1.2-15.5-15-22.8-10.4c-3.8,2.1-11.2,4.3-13.8-0.6
	c-2-4.1-1.7-5,2.8-5.2c3.3-0.1,6.7,0,10.5-0.7c-5.8-5.4-7.9-13.4-14.1-18.2c-3.2-2.5-5.3-5.7-6.6-9.4c-1-8.4-7.8-8.8-4.4-14.2
	c1.5-2,4.4-2.2,5.8-0.8c4.1,3.9,8.7,0.9,12.6,0.6c3.3-0.2,8-0.4,10.6-4.3c4-3.5,5.6,4.6,18.7,0.9c-0.3,2.4,0,5.1,2.9,4.8
	c1.1,0,2.1-0.8,2.1-2C63.9,11.8,60.6,12.4,58.5,12.2z M60.6,70.9C60.5,56.8,60.6,41.4,50,29.8c-2.5-1.7-3.8-11.1-6.7-10.1
	c-4.5,1.2,2.9,27.7-0.6,35.1C42.2,62.8,54.2,68.1,60.6,70.9z M79.5,62c5.1-6.6,10.2-12,6.6-20.3c-0.9-7.8-2.5-14.3-4.3-23.1
	c-3.9,12.2-8.4,22.7-14.3,32.2c-5.5,8.9-2.7,17.5-2.9,27.4c4.9-5.3,12.8-8.2,8.7-16.9c-0.9-1.6,0.1-4.2,0.3-6.3
	c-0.2-2.6,2.2-3.3,3.6-1.1C79.1,55.9,78.8,58.5,79.5,62z M61.1,191.8c-5.5-14.3-15.3-27.7-30.3-32.8c-2-0.7-4.7-1-3.8,2
	C31.9,181.4,42.5,185.5,61.1,191.8z M74.6,165.3c10.4-8.3,28.5-30.9,26.8-44.5c-0.3-3.5-1.8-3.5-4-1.6
	C86.8,132.3,78.2,148.7,74.6,165.3z M38.3,103.3c0.7,4.7-1.7,10.9,1.4,14.8c6.8,4.6,12.8,11.7,20.2,14.9
	C61.7,123.6,50.4,102.8,38.3,103.3z M40,56.5C46.9,38.6,29.6,43,28.6,27c-0.1-1.5,0.8-3.9-2.3-3.5C16.5,25.2,33.7,53.4,40,56.5z
	 M62.7,54.9c13.8-17,0.4-16.6-0.8-33.6c-0.1-2.9-4.5-2.2-3.1,0.5C61.7,33.1,57.7,43.7,62.7,54.9z M95.8,19.3
	c-1.1,8.8-9.3,13.5-7.5,22.1c-0.3,3,2.6,4.2,4.1,1.4C97.8,34.5,107.2,27.6,95.8,19.3z M40.5,31.5c-0.6-3.3,1-10.6-2.7-11.7
	c-6.3,0.4-8.7,4.5-6.1,10.4c1.9,2.9,4.2,9.4,8,8.8C42.5,38.3,39.9,34,40.5,31.5z M70.1,105c8.7-0.3,13.7-5.3,18.7-10.3
	C93.6,82.1,72.3,101.4,70.1,105z M81,65.8c7.7,1.8,15.8,7.7,20.9,0.6C105.1,60,85,63.5,81,65.8z M58.4,31C57,28,59,17.3,52.7,19.4
	c-5.2,1.9-5.5,2.1-2.6,6.7C52,28.5,58.4,40.7,58.4,31z M65.9,16.8c-6.9,0.8,5.8,29.3,6.3,18.1C68,29.5,72.4,20.3,65.9,16.8z
	 M73.5,31.4c3.2-2,8.3-14.1,3.3-14.5C69.2,16.8,70.8,26.3,73.5,31.4z M22.6,36.2c-1.2-3.6,0.2-14.6-3.4-14.1
	C12.5,24.4,18.4,32.8,22.6,36.2z M55.6,83.2c0.9-0.8,3.8,0,3.8-2c-0.1-2.8-3.2-2.7-5.3-2.9C48.1,77.3,50.5,83.7,55.6,83.2z
	 M36.8,60.8c-3.6-1.5-6.3-0.6-9.1-0.5C21,61.3,30,67.3,36.8,60.8z M45.2,15.3C45.1,12,40,11,39.5,14.6
	C38.9,17.9,44.7,18.5,45.2,15.3z M103.9,18.1c-0.2-3.5-4.5-3-4.4,0.4C99.3,21.8,104.2,21.3,103.9,18.1z M74,80.7
	c-3.6,0.8-6.2,1.4-8.8,3.7C69.2,85.4,72.1,85.4,74,80.7z M17.8,19.1c-0.1-2.6-5-4.3-5.4-1.1C12.3,20.8,17.1,22.2,17.8,19.1z
	 M114.9,19.7c0-2.5-4.3-3.2-4.6-0.2C109.7,22.9,114.8,23.5,114.9,19.7z M84.6,14.4c-0.4-3.1-5-2.5-4.6,0.5
	C80,17.5,84.7,16.9,84.6,14.4z M72.2,16.5c1.4-0.1,2.4-0.7,2.5-2.2C74,9.6,65.8,15.4,72.2,16.5z M94.9,16.8c0.1-2.6-3.8-2.7-4.1-0.2
	C90.5,19,94.9,19.3,94.9,16.8z M24.4,17.6c-2.7,0.2-2.6,4.6,0.3,4C27.7,21.4,27.5,17.3,24.4,17.6z M51.1,18.2
	c2.4-0.1,3.6-3.6,0.4-3.7C48.9,14.2,48,18.4,51.1,18.2z M35.2,17.9c-0.3-2.2-4-1.9-3.9,0.3C31.2,21,35.4,20.3,35.2,17.9z M76.7,63.8
	c0.6-2.8,0.8-4.7-1.1-7.1C75.2,59.4,74.1,61.3,76.7,63.8z M116.8,24.2c0.7-0.5,0.6-1.9-0.4-1.3C115.7,23.5,116.2,23.9,116.8,24.2z"
	/>
</svg>
