<?xml version="1.0" encoding="utf-8"?>
<!-- Generator: Adobe Illustrator 25.3.0, SVG Export Plug-In . SVG Version: 6.00 Build 0)  -->
<svg version="1.1" id="Layer_1" xmlns="http://www.w3.org/2000/svg" xmlns:xlink="http://www.w3.org/1999/xlink" x="0px" y="0px"
	 viewBox="0 0 110.5 229.2" style="enable-background:new 0 0 110.5 229.2;" xml:space="preserve">
<path d="M61,59.9c0.9-0.3,1-1.1,1.4-1.7c2.4-4.9,5.6-9.2,9.5-13c4.6-4.4,8.7-9.4,13.8-13.2c1.8-1.3,3.8-2.1,5.9-2.9
	c2-0.7,3-0.1,2.6,2.2c-0.1,0.8-0.3,1.5-0.5,2.3c-0.2,0.8-0.2,1.6,0.4,2.2c0.9,0.8,1.3-0.3,1.9-0.6c3-1.6,5.6-0.4,5.9,3.1
	c0.2,2.6,0.3,4.4,3.9,4.1c2.7-0.2,5.3,4.2,4.4,7c-0.6,2-1.4,3.9-2.5,5.7c-1.8,3-4.8,2.6-7.7,2.3c-1.2-0.1-2.3-0.6-3.5-0.9
	c-3.7-0.7-6.1,0.3-8.1,3.5c-3.6,5.8-7.5,11.4-11.4,17c-7.4,11-10.4,23.2-11.2,36.2c-0.5,7.8-0.2,15.6,1.7,23.4
	c0.8-2.2,1.6-4.5,2.4-6.7c3-8.2,6.9-16,13-22.5c1.6-1.6,1.5-3-0.4-4.4c-1.6-1.2-3-2.6-3.9-4.4c-1.6-3.7,0.7-5.6,4-7.3
	c3.8-1.9,5.9-1.2,9.3,0.7c4.3,2.3,4.9,1.5,4.8,6.3c0,2,1.3,2.4,2.3,3.2c2.9,2.1,3.1,4.6,0.4,7c-0.9,0.8-1.2,1.2-0.6,2.4
	c1.3,2.5-0.2,3.4-2.4,3.8c-3.3,0.5-5.7-1.2-7.6-3.7c-2.9-3.8-3.7-3.8-6.6-0.1c-8.3,10.6-12.3,23-15.2,35.9c4-4.4,7.4-9.4,13-11.9
	c2.2-0.9,4.3-2.1,6.8-2.6c-0.1,1.5-1.2,2.1-1.9,2.8c-5.6,5.4-11.3,10.8-17.5,15.7c-1.2,0.9-2.1,1.9-2.3,3.4
	c-1,6.3-2.1,12.6-1.4,19.1c0.4,0.1,0.6-0.2,0.6-0.5c2.6-9.7,8.5-17,15.9-23.5c4.4-3.8,8.8-7.8,12.3-12.5c0.5-0.6,0.9-1.5,1.8-1.2
	c0.9,0.3,0.7,1.3,0.7,2c-0.7,12-3.1,23.4-11.1,33c-5.8,6.9-11.4,14-17.3,20.9c-2.7,3.2-4,6.6-4.2,10.8c-0.4,8.1-1.2,16.3-1.9,24.4
	c-0.1,1,0.3,2.7-1.2,2.5c-1.4-0.2-0.6-1.8-0.6-2.8c0.2-3.4,0.5-6.8,0.9-10.2c0.3-2.1-0.5-3.5-2-4.9c-5-4.5-10.2-8.7-13.9-14.6
	c-6.4-10.3-9.5-21.8-11.4-33.6c-0.6-3.7-0.9-7.4-1.3-11.2c-0.1-0.6-0.2-1.4,0.7-1.7c0.6-0.2,1,0.4,1.2,0.9
	c3.6,7.7,9.9,13.2,15.6,19.1c7,7.3,12.6,15.1,11.9,26c0.6-7.5,0.6-15.1-3-21.8c-3.4-6.5-8.5-12-13.8-17.3c4.7,1.7,7.9,5.3,11.5,9.1
	c-4.4-15.2-9.1-22.1-24.2-25.1c-4.8-1-9.7-2.2-14.6,0.2c-1.4,0.7-2.6,1.5-3.9,2.4c-2.8,1.8-5.6,3.6-9.1,3.8
	c-3.2,0.2-4.6-1.7-3.3-4.6c0.7-1.7,2.1-3.1,0.7-5.1c-0.4-0.5,0-1.4,0.6-1.8c1.1-0.8,0.8-1.6,0.2-2.5c-1.5-2.3-1.5-4.3,1.3-5.7
	c0.6-0.3,1.1-0.6,1.2-1.4c0.4-3.1,2.2-2.5,4-1.5c3.2,1.9,5.6,4.6,7.7,7.6c0.5,0.7,0.8,1.6,1.5,2.2c2,2,4,3.6,7.2,3.7
	c7.2,0.2,14.1,2,20.4,6c-3.7-7-8.2-13.2-13.2-19.2c-3.7-4.5-7.8-8.7-11.8-13c-2.1-2.3-4.2-2.4-6.7-0.6c-2.6,1.9-5.5,2.8-8.7,1.1
	c-2.4-1.2-2.7-2.7-0.9-4.6c1-1.1,0.5-1.5,0-2.4c-1.6-3.2-0.1-6.1,3.5-6.3c2-0.1,3.1-0.6,3-2.8c0-0.5,0.3-1.1,0.6-1.5
	c1.8-2.8,4.7-1.3,7-1.9c2.9-0.8,4.9-1.8,6.6,1.4c0.2,0.5,0.6,1.2,1,1.2c2.6,0.3,3,2.1,3.1,4.3c0,2.5-1.3,4.1-3.4,5.3
	c-1.2,0.6-2.4,1-3.7,1.5c-2.1,0.7-2.3,1.9-0.8,3.4c7.4,7.3,14.1,15.2,20.2,23.7c0.9-4.2-1.1-14.2-3.2-17.4c-3.4-5.3-4.9-11-4-17.3
	c0.4-2.6,0.7-5.2,1.1-7.9c0.3-2,1.3-2.1,2.6-0.8c1.4,1.3,2.3,3,2.9,4.8c1.7,5.3,2.8,10.7,3,16.2c0.1,2,0,4-1.2,5.7
	c-0.8,1.1-0.5,2.3-0.3,3.5c0.7,5.4,1.3,10.7,2,16.1c0.1,1,0.4,1.9,0.9,2.8c7.3,11.9,13.2,24.4,16.2,38.2c0.9-0.5,0.6-1.3,0.6-1.8
	c0.4-23.5-1.2-46.7-6-69.8c-0.9-4.6-3.3-7.4-6.7-10C34,85,26.5,68.9,22.1,51.1c-0.8-3-1.3-6-1.9-9.1c-0.1-0.6-0.3-1.4,0.6-1.7
	c0.6-0.2,1,0.3,1.3,0.8c4.3,7.1,11,11.7,17,17c5.6,4.9,11.3,9.6,13.5,17.2c0.6-3.7-0.3-7.2-0.8-10.6c-1.1-8.2-3.2-16.2-6.1-24
	c-1.3-3.7-3-4.6-7-4c-2.4,0.4-4.8,1-7.2,0.8c-2.7-0.2-4.6-1.5-5.2-4.2c-0.2-0.9-0.4-1.7-1.1-2.3c-2.1-1.8-1.4-4-0.5-6.1
	c1-2.2,2.8-3.6,5.3-3.2c2.3,0.4,2.4-0.5,2.5-2.4c0.3-5,2.8-6.4,7-3.9c1,0.6,1.3,0.3,1.8-0.4c1.4-2,3-2.4,5.1-0.9
	c0.2,0.2,0.6,0.2,0.9,0.2c4.1,0.3,5.5,1.9,5.3,5.9c-0.1,2.7-0.8,5.3-2.3,7.5c-1.8,2.6-2.1,5.8-3.8,8.3c-0.4,0.5-0.2,1,0,1.6
	C51,49.4,53,61.8,54.7,74.2c0,0.1,0.1,0.2,0.2,0.3c1.7-2,3.2-9.9,2.5-13.3c-1.7-7.6-1.7-15.1,1.2-22.5c0.3-0.7,0.3-1.5,1.6-2.1
	c0.7,5.9-0.2,11.6-0.1,17.4c0.8-0.2,0.9-0.8,1-1.3c2.9-9.3,6.9-18.1,10.5-27.1c1.2-3,0.2-7-2.6-8.9c-2.1-1.4-4.3-2.7-6.4-4
	c-1.1-0.7-2.3-1.4-3.3-2.2c-1-0.8-1.5-1.9-1-3.2C58.8,6,60,5.7,61,6c2.3,0.5,3.7-0.2,4.7-2.3C66,2.9,67.1,2,67.8,2.3
	c3.8,1.7,6-3.2,9.6-2.1C78,0.4,78.7,0.6,79.1,1c1.3,1.4,2.5,1.8,4.5,1.5c2.8-0.5,4.4,1.9,4.3,6c0.2,0.1,0.4,0.3,0.6,0.2
	c5.8-1.3,7.3,0.2,5.7,6c-0.4,1.5,0.3,1.7,1.2,2.2c1.6,0.9,3,1.9,2.8,4.1c-0.2,2.1-1.9,2.8-3.6,3.4c-1.8,0.7-3.6,0.5-5.5-0.1
	c-4.5-1.5-9.1-2.7-13.8-0.8c-0.9,0.4-1.6,0.6-1.9,1.5C68.6,36.4,64,47.9,61,59.9c0.1,0.3-0.5,0.5-0.1,0.8C61,60.4,61,60.1,61,59.9z
	 M62.5,71.9c0.2-0.2,0.4-0.5,0.6-0.7c8-2.9,14.5-7.7,19.1-15c1.1-1.8,2.3-3.5,3.4-5.3c1.2-1.9,0-3.7-1.3-4.6
	c-1.3-0.9-1.8,1.1-2.5,1.9c-3,3.6-6.1,7.3-8.9,11c-3.1,4.1-7.5,7.2-9.7,12C62.9,71.5,62.7,71.7,62.5,71.9L62.5,71.9L62.5,71.9z
	 M41.3,108.2c0.1,0.3,0.1,0.6,0.2,0.8c0-0.1,0.1-0.2,0.1-0.2C41.5,108.6,41.4,108.4,41.3,108.2c0-2.8-0.6-5.5-1.7-8
	C39.3,103,39.8,105.7,41.3,108.2z M92.2,144.7c-0.4,0.4-0.9,0.7-1.1,1.1c-4.5,8.7-10.4,16.6-15.6,24.9c-3.4,5.4-6.5,10.9-8.4,17
	c6.8-8.5,14.8-15.9,20.2-25.4C90.4,156.9,92.2,151,92.2,144.7C92.2,144.7,92.2,144.7,92.2,144.7z M87.4,51.8
	c-1.2,0.3-1.2,1.4-1.7,2.2c-3.4,5.3-6.5,10.8-12.4,13.8c-4.9,2.5-9.4,5.8-14.1,8.6c-1.6,0.9-2.4,2.1-2.6,3.9
	c-0.6,6.2-1,12.3-0.1,18.5c1.4,10.4,4.1,20.5,5.1,31c0.7,7.4,1.4,14.7,2.1,22.1c0.9-4.6,3.2-8.9,2.1-13.8
	c-1.3-5.5-1.4-11.1-1.5-16.8C63.8,105.6,66,90.4,75,77.1c4.1-6.1,7.8-12.5,12.1-18.5C88.9,56.2,88.8,54.2,87.4,51.8z M37.1,161.2
	c6,16.5,12,32.9,22.3,47.4c-0.2-6.6-0.7-13.1-1.4-19.6c-0.4-3.9-2.1-7.4-4.6-10.5C48.5,172.3,42.7,166.9,37.1,161.2z M26.7,50.4
	c7.7,15.2,20.7,27,26.4,43.5c-0.2-5.7-0.9-11.2-2-16.6c-1-4.7-3.4-8.3-6.6-11.5C39,60.1,32.8,55.4,26.7,50.4z M51.8,96.1
	c-2.5-6.9-24.1-41.5-27.5-44.2C28.8,71.4,36.4,83.7,51.8,96.1z M64.6,187.4c6.1-16.2,18.4-28.9,25.6-44.4c-3.4,2.9-6.5,6-9.8,8.8
	C69.3,161.1,64.6,173.2,64.6,187.4z M83.1,36.7C68,50,63.5,57.1,59.6,71c0.2,0,0.5,0,0.6-0.1c7.9-8.2,14.6-17.3,22-25.9
	c0.7-0.8,1.2-1.6,0.8-2.7C82.5,40.6,83.1,38.8,83.1,36.7z M53.2,204.1c-7.5-13.9-13.2-28.5-19-43.1C36.9,177,40.4,192.7,53.2,204.1z
	 M38,31.8c-1.9-2.2-3.4-4.4-4.8-6.7c-1-1.7-2.9-2-4.7-1.5c-2,0.5-2.6,2.3-2.7,4.1c-0.1,2,1.7,2.4,3.1,2.9
	C31.8,31.6,34.7,32.2,38,31.8z M6.6,126.2c0.1,2.1,0.3,3.8-2.4,3.5c-1.2-0.1-1.5,1.2-1,2.2c0.9,1.7,2,3.4,4.4,3.2
	c2-0.2,3.9-0.3,5.8,0.5c0.5,0.2,1.1,0.3,1.5-0.2c0.4-0.5,0.2-1-0.1-1.5C12.8,130.7,10.4,127.9,6.6,126.2z M96.7,52.1
	c3.1-0.1,6.2-0.4,9.1-1.4c1.5-0.5,3.1-1,2.7-3.1c-0.3-1.7-0.6-3.6-2.8-4c-1.7-0.3-3.5,0.1-4.2,1.8C100.4,48,98.6,50,96.7,52.1z
	 M81.7,18.8c2.7-0.4,5.4-0.8,7.9-2.2c1.3-0.7,2.4-1.6,3.1-2.9c0.6-1.2,0.7-2.4-0.2-3.4c-0.8-0.9-1.9-0.3-2.8,0.1
	c-3.3,1.6-6.2,3.8-8.9,6.2c-0.5,0.4-1.2,0.9-0.9,1.6C80.2,19.1,81.1,18.7,81.7,18.8z M40.3,30.5c-0.2-4-0.2-7.3-0.7-10.5
	c-0.3-1.9-0.9-4.5-3.5-4c-2.5,0.5-2.2,3.1-2,5C34.6,24.8,36.5,27.8,40.3,30.5z M94.7,50.7c2.4-1.6,3.5-3.3,4.6-4.8
	c1.5-2.1,1.8-4.4,1.5-6.9c-0.2-1.3-0.9-2.4-2.2-2.5c-1.3-0.2-1.9,0.9-2.3,1.9c-0.4,0.9-0.7,1.9-0.8,2.8C95.2,44.1,95.4,47,94.7,50.7
	z M77.4,16.6c3.7-2.5,6.4-5,8.3-8.1c0.9-1.5,0.9-3.1-0.8-4c-1.5-0.8-2.8,0-3.5,1.4C79.8,9.2,78.5,12.4,77.4,16.6z M45.4,30.3
	c4.4-2.1,6.9-9.5,4.8-13.2c-0.3-0.6-0.7-1.2-1.4-1.2c-1,0.1-1.5,0.9-1.5,1.9C47.4,21.9,46.3,25.9,45.4,30.3z M82.1,20.8
	c3.4,0.7,6.5,1.9,9.8,2.6c1.5,0.3,2.8-0.6,3.8-1.6c0.7-0.7,0.9-1.6,0.1-2.3c-1.4-1.2-3-2.3-4.8-1.4C88.2,19.6,85.1,20,82.1,20.8z
	 M73.9,13.5c-0.6-2.9-1.2-6-3.3-8.6c-0.7-0.9-1.7-1.5-2.9-0.7c-1,0.6-1.7,1.6-0.9,2.8c1.7,2.6,3.4,5.1,5.2,7.6
	c0.3,0.4,0.8,0.8,1.4,0.6C74,14.9,73.9,14.3,73.9,13.5z M84.7,39.4c0,4.1,1.4,7.1,3.3,9.8c0.4,0.5,0.7,1.3,1.5,1
	c1-0.3,0.6-1.3,0.5-2c-0.8-3.2-1.9-6.3-1.8-9.6c0-1-0.2-2.2-1.3-2.3c-1.5-0.2-1.6,1.2-1.9,2.2C84.7,39,84.7,39.6,84.7,39.4z
	 M76.1,13.2c1.6-2.5,2.4-5.1,3.2-7.6c0.5-1.4-0.5-2.5-1.7-3.2c-1.2-0.7-2.3-0.6-3.3,0.4c-0.9,0.9-1.5,1.9-0.9,3.2
	C74.3,8.2,75.1,10.5,76.1,13.2z M42.9,29.5c1.6-3.8,2.5-7.7,2.5-11.7c0-1,0.1-2.3-1-2.5c-1.4-0.3-1.8,1.1-2,2.2
	C41.5,21.4,41.8,25.5,42.9,29.5z M92.6,49.6c0.4-4.3,1.4-8.5-0.1-12.8c-0.2-0.6-0.6-1.3-1.4-1.2c-1,0-1.2,0.9-1.2,1.7
	C90,41.5,90.7,45.6,92.6,49.6z M8.2,136.9c-0.8,0-1.6-0.1-2.3,0c-0.9,0.2-2.8-0.5-2.2,1.3c0.4,1,0,3.5,2.5,2.9
	c2-0.4,4.1-0.8,6.1-1.2c0.7-0.2,1.6-0.3,1.6-1.3c0-0.9-0.9-1.2-1.6-1.5C11,136.6,9.6,136.9,8.2,136.9z M17.1,98.2
	c-0.7-1,0.7-4-2.6-3.3c-2.1,0.5-2.4,2.4-2,4.2c0.5,2,1.1,4.8,3,5.1c1.7,0.2,1-2.6,1.4-4C17,99.7,17,99.1,17.1,98.2z M95.3,96.9
	c0-1.5-0.9-2.3-2-2.8c-1.1-0.5-1.7,0.4-2,1.2c-0.8,2-1.5,4.1-2.1,6.2c-0.3,1.3,0.6,2,1.7,1.2C93.1,101.3,94.6,99.3,95.3,96.9z
	 M86.9,100.7c0.2,0,0.5,0,0.7,0.1c0.6-2.2,1.2-4.4,1.6-6.6c0.2-1.1-0.1-2.2-1-3c-0.7-0.6-1.5-0.3-2,0.4c-0.8,0.9-2.1,1.6-1.4,3.3
	C85.7,96.8,86.2,98.8,86.9,100.7z M18.5,103.7c1.8-2,3-3.5,4.3-4.9c1.1-1.2,0.8-2.4,0.1-3.6c-0.4-0.8-1-1.6-2.1-1.1
	c-1.2,0.6-2.1,1.6-2.1,3.1C18.7,99.1,18.6,100.9,18.5,103.7z M9.5,105.7c2.8,0,3.2-0.1,3.3-0.9c0.1-1.4-2.2-3.6-3.9-3.6
	c-1.6,0-3.3,0.3-3.3,2.3C5.6,106.3,8.1,105.4,9.5,105.7z M96.8,106.9c1.7,0.2,2.7-0.3,2.7-1.9c-0.1-2.2-1.7-3-3.6-3.1
	c-1.7-0.1-3.6,1.1-3.5,2.4C92.7,106.6,95.4,106.2,96.8,106.9z M8.1,111.8c1.9-0.1,3.4-0.8,4.8-1.7c0.7-0.5,1.2-1.1,1-1.9
	c-0.3-1.1-1.2-0.8-1.9-0.6c-1.4,0.3-2.8,0.5-4.2,0.9c-1.1,0.4-2.8,0.5-2.5,2C5.5,111.7,7.1,111.7,8.1,111.8z M95.3,112.8
	c0.7-0.1,1.6,0.2,2-0.7c0.3-0.7-0.2-1.2-0.7-1.7c-1.5-1.4-3.2-2.7-5.1-3.5c-0.5-0.2-1-0.4-1.5,0.1c-0.4,0.5-0.5,1-0.2,1.5
	C91.1,110.7,92.7,112.4,95.3,112.8z M36,101.8c-0.5,3.9,0.3,6.9,1.6,9.9c0.2,0.5,0.6,1,1.3,0.7c0.6-0.2,1-0.6,0.8-1.2
	C38.9,108.1,38.5,104.8,36,101.8z M68.6,14c-2.4-5.3-3.6-7-8.8-5.6C62.3,11,65.6,12,68.6,14z M84.8,101.4c-0.3-2.5-1.3-4.7-2.2-6.8
	c-0.2-0.5-0.5-1.2-1.1-0.9c-0.4,0.2-0.8,0.7-1,1.2C79.4,97.2,81.2,100,84.8,101.4z M20.5,104.8c4.2-0.5,6.5-2.2,6.6-4.5
	c0-0.6,0.1-1.4-0.6-1.7c-0.6-0.3-1,0.2-1.4,0.6C23.5,100.8,22,102.4,20.5,104.8z M10.8,142.5c-2.8,0.2-4.9,0.4-7,0.5
	c-1.1,0.1-2.1,0.5-1.9,1.7c0.2,1.3,1.4,1.2,2.4,1C6.5,145.3,8.5,144.5,10.8,142.5z M37.8,34.4c-3.2-0.5-6.2-1-9.4-1.6
	C30,36,33.4,36.5,37.8,34.4z M97.2,54.4c2.5,1,4.9,1.6,7.4,1c1-0.2,2-0.9,1.7-2c-0.3-0.9-1.3-0.3-2-0.2
	C101.8,53.6,99.5,54,97.2,54.4z M37.1,93.4c-0.3,1.9-1.6,3.9-0.1,5.8C37.5,97.2,38,95.3,37.1,93.4z M87.1,33.9l0-0.2l-0.2,0.1
	L87.1,33.9z"/>
</svg>
