<?xml version="1.0" encoding="utf-8"?>
<!-- Generator: Adobe Illustrator 25.3.0, SVG Export Plug-In . SVG Version: 6.00 Build 0)  -->
<svg version="1.1" id="Layer_1" xmlns="http://www.w3.org/2000/svg" xmlns:xlink="http://www.w3.org/1999/xlink" x="0px" y="0px"
	 viewBox="0 0 101.3 249.2" style="enable-background:new 0 0 101.3 249.2;" xml:space="preserve">
<path d="M62,140c8-4.9,12.2-12.5,14.9-21.2c0.5-1.7,0.9-3.5,1.4-5.3c0.1-0.5,0.3-1.1,0.9-0.9c0.6,0.1,0.6,0.7,0.5,1.2
	c-1.3,5.3-0.9,10.9-2.3,16.2c-1.2,4.6-3.9,8.2-7.4,11.2c-2.8,2.4-5.7,4.8-9.2,6.2c-1.1,0.4-1.7,1.1-2.1,2.2
	c-3.5,10.7-7.2,21.3-12.3,31.4c-0.1,0.1,0,0.3,0,0.9c2.4-1.9,4.6-3.5,6.7-5.2c11.6-9.3,20.9-20.4,27-34c1.5-3.3,2.7-6.7,4.1-10.1
	c0.2-0.6,0.3-1.5,1.1-1.3c0.9,0.2,0.4,1.1,0.4,1.7c-0.3,2.7-1.4,5.1-2.2,7.6c-2.2,7-4.1,14.1-7.2,20.8C69.9,175.1,60,184.4,44.5,187
	c-0.9,0.1-1.5,0.5-1.9,1.3c-5.2,10.4-11,20.6-16.8,30.7c-0.1,0.2-0.1,0.4-0.3,1c1.7-1,2.9-2.3,4-3.5c8.4-9.4,18.8-16.2,29.9-21.8
	c8.7-4.3,15-10.6,20.3-18.4c3.8-5.5,6.6-11.4,8.9-17.7c0.3-0.9,0.6-1.7,1-2.5c0.2-0.4,0.5-0.7,0.9-0.6c0.5,0.1,0.7,0.5,0.6,0.9
	c-0.1,1.2-0.1,2.5-0.3,3.7c-3,16.5-10.6,30.3-24.1,40.6c-9.8,7.5-20,14.3-31,20c-3.8,2-7.9,3.4-12.1,4.2c-1,0.2-1.6,0.5-2.2,1.3
	c-2.4,3.8-5.3,7.4-6.9,11.7c-0.2,0.6-0.4,1.5-1.3,1.1c-1-0.4-0.6-1.2-0.3-1.9c1.1-3.2,2.9-6.2,5-8.8c2.3-2.9,2.5-5.8,1.7-9.4
	c-2.8-11.6-6.1-23-8.1-34.8c-1.8-10.4-1.8-20.9-1.5-31.4c0-0.6-0.3-1.7,0.7-1.8c0.8,0,0.7,1,0.8,1.6c1.7,12,5,23.6,9,35
	c3.6,10,4.3,20.3,2.6,31c1-0.2,1.1-1.1,1.5-1.6c6.5-11,12.6-22.3,18.4-33.8c0.7-1.4,0.8-2.7,0.3-4.2c-4.2-12.3-6.5-24.9-5.3-38
	c0.7-7.6,3.3-14.8,5.1-22.2c0.5-2.2,1.2-4.3,1.8-6.5c0.2-0.7,0.2-1.8,1.2-1.5c0.8,0.2,0.4,1.1,0.3,1.7c-1.1,7.3-1.7,14.6-2.1,22
	c-0.8,14.5-0.6,28.9,0.8,43.6c1.1-0.9,1.3-2,1.8-2.9c3.4-7.4,6.2-15.2,8.9-22.9c0.3-0.9,0.5-1.8,0-2.8c-4.6-9.3-6.3-19.2-5.6-29.6
	c0.8-9.9,2.3-19.7,3.7-29.5c0.1-0.4,0.2-0.8,0.7-1.1c0.3,19.3,1.5,38.5,2.4,57.7c2.4-5,3.7-10.3,5.2-15.4c2-6.7,4-13.4,5.7-20.3
	c0.4-1.5,0.1-2.4-1-3.5c-2.9-2.8-5.4-5.8-7.3-9.3c-1.1-2.1-2-4.2-1.4-6.6c0.6-2.9,2.2-3.4,4.5-1.5c0.5,0.5,1,1,1.5,0
	c1.1-2.2,2.4-1.5,3.7-0.3c0.3,0.3,0.6,0.9,1.2,0.7c0.2-0.1,0.3-0.5,0.3-0.9c0.1-0.6-0.4-0.9-0.9-1c-1.7-0.5-3.3-0.9-5-1.4
	c-2.4-0.7-4.7-1.7-6.5-3.4c-2.1-2-1.8-4,0.8-5.3c2-1,4.2-0.8,6.3-0.3c1,0.2,2.1,0.5,3.2,0.8c0.3-1.3-0.3-2.3-0.5-3.4
	c-0.3-1.6-0.7-3.3,0.1-4.6c1.1-1.8,0.2-2-1.2-2.6c-3.5-1.4-5.4-4.4-5.3-7.9c0-0.9,0.1-1.9,1.1-2.3c1-0.5,1.8,0,2.5,0.7
	c0.7,0.7,1.4,1.4,2.3,2.1c-0.8-3.2,1.2-6.2,0.3-9.5c-0.7-2.9,1.2-4.6,4.2-4.1c0.5,0.1,1,0.3,1.1-0.4c0.1-1.4,0.8-2.5,1.7-3.5
	c0.7-0.8-0.1-1.2-0.5-1.6c-1.7-1.7-3.3-3.5-4.3-5.7c-0.7-1.4-1.1-2.9,0.5-4c0.9-0.6,0.6-1.2,0.3-1.9c-0.5-1.1-0.6-2.4,0.3-3
	c2-1.3,1.2-2.6,0.5-4.1c-0.3-0.6-0.5-1.4-0.1-1.9c0.9-1,0.6-1.8-0.1-2.7c-0.4-0.5-0.5-1.5,0-1.8c1.8-0.9,1.3-2.3,1.3-3.8
	c0-2,1.8-3.3,4.4-3.1c1.7,0.1,2.4,1.4,2.4,2.9c0,1.2,0,2.2,1.6,2.5c0.9,0.1,1.3,1,1.3,1.9c0,1.2-0.8,1.9-1.7,2.2
	c-1.9,0.6-1.7,1.7-1.3,3.2c0.3,1,0.6,1.4,1.7,1.1c1.8-0.5,3.5-0.3,4.1,1.7c0.6,2.1-1.3,2.5-2.8,3.1c-0.2,0.1-0.4,0.2-0.7,0.3
	c0.2,0.7,1,0.6,1.4,1c1.4,1.2,1.4,2.6-0.1,3.7c-1.3,1-2.9,1.6-4.5,1.9c-2.3,0.4-2.2,1.4-0.9,3c1.1-0.9,2.1-1.9,3.2-2.7
	c1.2-0.8,2.7-1.1,3.8,0.2c1,1.3,0.3,2.5-0.7,3.5c-0.2,0.2-0.3,0.4-0.5,0.5c-3.1,1.5-4.6,3.6-2.4,7.2c0.5,0.1,1.1-0.7,1.9-0.8
	c1.3-0.2,2.5,0.1,3.2,1.3c0.7,1.2,0.2,2.2-0.6,3.2c-0.3,0.3-0.5,0.7-0.9,0.9c-2.2,1.1-3.2,2.5-2.1,5.2c0.5,1.1,0.3,1.9,1.9,1.9
	c2.4,0.1,3.3,1.7,2.3,4c-0.2,0.4-0.3,0.8-0.6,1.1c-1.4,1.9-2.7,3.5-0.4,5.9c1.2,1.2,0.8,3.3,0.7,5c0,0.7-0.2,1.2,1,1.1
	c3.8-0.2,5.7,2.4,4.6,6c-0.8,2.8-2.7,4.9-5.2,6.4c-1.6,1-3.2,2-4.9,3c-0.6,0.3-1.1,0.7-1.2,1.4c-0.1,1-0.5,2.1-0.2,2.9
	c0.5,1.1,1.6,0.1,2.5,0.1c2.1,0.2,3.6,1.4,3.3,3.5c-0.3,1.8,0.5,2.2,1.9,2.6c1.4,0.3,2.5,1.3,3.2,2.6c1.7,3.2,0.5,5.8-3,6.5
	c-4.7,0.8-9.4,0.1-14-0.9c-2.9-0.6-2.8-0.6-3.6,2.2c-2.4,8.8-4.8,17.5-7.2,26.3C62.1,139,62.1,139.5,62,140L62,140z M74.8,155.4
	c-0.3,0.3-0.4,0.6-0.4,1.1c-0.5,0-0.7,0.4-0.9,0.7c-6.9,10-15.9,17.9-25.5,25.1c-0.9,0.6-1.7,1.4-2.5,2c0.1,0.1,0.3,0.3,0.4,0.4
	c12.4-6.5,21.6-16.2,28.5-28.4C74.5,156,74.6,155.7,74.8,155.4L74.8,155.4z M72.8,24.9c0-0.4,0-0.8-0.5-1c0-0.3-0.1-0.6-0.4-0.8
	c0,0-0.2,0.1-0.1,0.1c0.1,0.3,0.2,0.6,0.6,0.6C72.3,24.3,72.4,24.7,72.8,24.9c0.1,0.2,0.2,0.3,0.3,0.5c0,0,0.1-0.1,0.1-0.1
	C73.1,25.2,73,25,72.8,24.9z M60.5,145.4c3.7-2.7,6.5-6.3,9.2-10c-1.6,1.4-3.5,2.4-4.9,3.9C63.1,141.1,61,142.8,60.5,145.4
	L60.5,145.4z M43.2,131.7c-0.9,1.8-0.6,3.7-0.7,5.6c-0.7,9.6-0.7,19.2,0.5,28.8C42.2,154.6,42.8,143.1,43.2,131.7c0.3-1,0.3-2,0-2.9
	C43.2,129.7,43.2,130.7,43.2,131.7z M66.9,141.4c0.4-0.1,0.9,0,1.2-0.2c4.1-3.7,7.7-7.7,8.3-13.6c0-0.1,0-0.1,0-0.2
	c0,0.1,0,0.1,0,0.2C73.7,132.6,70.3,137,66.9,141.4c-0.6,0.1-1.1,0.3-1.1,1.2C66.7,142.6,66.9,142.1,66.9,141.4z M77.8,153.4
	c-0.9,0.8-1.3,1.9-1.8,2.9c-6.4,11.3-14.8,20.7-26.2,27.3c-0.5,0.3-1.1,0.4-1.2,1.1c0,0,0,0,0,0C62.4,181.4,73.4,169.4,77.8,153.4
	c0-0.1,0.1-0.1,0.1-0.2c0,0,0-0.1,0-0.2C78,153.2,77.9,153.3,77.8,153.4z M12.7,166.9c0-0.4,0-0.7,0-1.3
	C12.4,166.2,12.7,166.5,12.7,166.9c0.3,3.6,1.1,7.1,1.8,10.7c1.7,8.3,4.4,16.4,5.5,24.9c0.8,5.8,1.2,11.6,1.2,17.6
	c0.3-0.3,0.4-0.4,0.5-0.5c0.1-0.3,0.2-0.6,0.2-1c1.3-8.9,1.3-17.8-1.3-26.5c-1.8-6.2-3.9-12.3-5.8-18.4
	C14.1,171.4,14,169,12.7,166.9z M26.2,221.7c15.1-8.5,29.5-17.2,42.1-28.5c6.4-5.7,11.7-12.3,15.6-20c0.4-0.7,0.9-1.4,0.8-2.5
	c-1.1,1.7-2,3.3-3,4.8c-5.4,8.3-12,15.3-21.2,19.9C47.6,201.9,35.9,210.2,26.2,221.7z M26.8,222.4c2.9-0.2,5.5-1.3,8-2.5
	c11.3-5.7,21.8-12.8,31.8-20.5c10.4-8,17.3-18.5,21.1-31c0.1-0.4,0.5-0.8,0-1.4c-0.4,0.9-0.7,1.8-1.1,2.6c-3.9,9.2-9.3,17.3-16.8,24
	c-8.7,7.7-17.9,14.6-28,20.4C36.9,216.7,31.9,219.5,26.8,222.4z M11.7,169.8c0,15.4,4.7,29.9,8.2,44.6
	C19.8,199,14.1,184.7,11.7,169.8z M76.6,86.4c0.2,0,0.4,0.1,0.5,0.1c1.4-2.1,2.6-4.4,4.2-6.4c2.1-2.8,2.1-5.8,1.6-8.9
	c-0.2-1.1-0.8-2-2.1-2.2c-1.2-0.2-2.1,0.5-2.7,1.4c-1.1,1.8-1.8,3.9-1.4,5.9C77.4,79.8,77.5,83.1,76.6,86.4z M71.1,102.3
	c1.5-1.3,2.5-2.3,3.7-3.3c2.2-1.9,2.8-4.4,2.5-7.2c-0.2-2.3-1.8-4.2-3.7-4.5c-1.4-0.3-2.4,0.1-2.5,1.6
	C70.8,93.2,70.2,97.5,71.1,102.3z M75.6,83.1c-0.2-4-0.7-7.7-3.5-10.7c-0.8-0.9-1.8-1.7-3-1.1c-1.3,0.6-1,1.9-0.9,3.1
	c0.5,3.4,2,6.4,3.1,9.6c0.6,1.6,1.8,2,3.1,1.7C75.8,85.4,75.3,83.9,75.6,83.1z M72.4,107.8c3.1,1.1,5.8,1.1,8.5,1.7
	c1.8,0.4,3.8,0.4,5.6-0.1c2.2-0.5,2.9-2.8,1.4-4.6c-1.2-1.4-4.6-2.2-6.1-1.4C78.9,105.1,75.9,106.4,72.4,107.8z M88.9,80.2
	c0-1-0.3-1.8-1.2-2.3c-1-0.6-1.8,0-2.4,0.6c-2.8,2.6-5,5.7-6.7,9c-0.3,0.5-0.5,1.1,0,1.6c0.5,0.6,1.2,0.4,1.8,0.2
	c2.8-1.3,5.3-3,7.1-5.5C88.3,82.8,88.9,81.6,88.9,80.2z M61.7,79.9c-0.8,0-1,0-1.3,0c-1.2,0.1-2.5,0.2-2.9,1.5
	c-0.4,1.3,1,1.8,1.8,2.3c2.8,1.5,5.7,2.6,8.7,3.4c0.6,0.2,1.3,0.4,1.8-0.2c0.6-0.7,0.3-1.3,0.1-2.1C68.6,80.5,64.6,80.7,61.7,79.9z
	 M67.9,58.4c0,0.5,0,1,0.1,1.4c0.3,3,0.9,5.9,2.2,8.6c0.5,1.1,1.6,1.7,2.6,1.7c1.1-0.1,0.9-1.4,1-2.3c0.3-3.8-0.9-7.2-3.2-10.2
	c-0.5-0.7-1-1.9-1.9-1.7C67.4,56.2,68.1,57.6,67.9,58.4z M41.8,168.3c-1.6-13-1.4-25.9,0-38.9C37.7,142.4,38.7,155.4,41.8,168.3z
	 M71.5,105.6c4.4-0.8,8.1-2.1,11-5.1c0.5-0.5,1-1.2,0.5-2c-0.4-0.8-1.2-0.8-1.9-0.7c-1.7,0.1-3.1,1-4.5,1.9
	C74.5,101.1,72.5,102.7,71.5,105.6z M68.9,104.1c0-3.5,0.1-7,0-10.5c0-1.5-1.3-2.4-2.4-3.2c-0.5-0.3-1-0.2-1.3,0.3
	c-0.6,1.2-0.8,2.5-0.2,3.8C66.3,97.7,67.6,100.9,68.9,104.1z M66.9,105c-0.7-3.8-2-7.3-3.7-10.7c-0.6-1.1-1.2-3.1-2.5-2.6
	c-1.6,0.7-0.8,2.6-0.3,4C61.7,99.3,64.2,102.2,66.9,105z M52.8,107.9c-2.1,10.2-2.1,20.4,0.4,30.6C52.1,128.3,52.9,118.1,52.8,107.9
	z M75.2,71.2c1.5-1.5,1.9-3.2,3.4-3.6c2.4-0.7,3.3-2.8,4.5-4.7c0.4-0.6,1-1.3,0.2-2c-0.7-0.6-1.5-0.3-2.1,0.2
	C77.9,63.4,75.3,66.2,75.2,71.2z M74.2,56.9c-0.3-2.7-1.5-4.7-3-6.6c-0.6-0.7-1.3-1.8-2.4-0.9c-1,0.8-0.8,1.9-0.2,2.9
	C69.9,54.3,71.7,55.8,74.2,56.9z M72.9,48.2c0.2,1.6,0.7,3.3,1.9,3.6c1.1,0.2,1.3-1.6,1.7-2.6c0.2-0.6,0.3-1.3,0.4-1.9
	c0.1-1,0.7-2.4-0.7-2.7c-1.2-0.3-2.2,0.6-2.7,1.7C73.3,46.9,73.1,47.6,72.9,48.2z M67.5,67.8c-0.2-3-2-5.6-5.2-7.3
	C61.8,63.7,63.8,66.5,67.5,67.8z M54.1,113.7c-0.8,6.5,0,12.9,0.2,19.3C55,126.6,55,120.1,54.1,113.7z M79.3,57.2
	c0-0.3,0-0.9-0.6-1.2c-0.3-0.2-0.7,0-0.9,0.2c-1.4,2-2.4,4.1-2.7,6.5c-0.1,0.4,0.3,1.2,0.9,0.6C77.5,61.6,79.3,60,79.3,57.2z
	 M74.7,41.2c-0.3-3.1-1.4-5.2-3.1-7c-0.4-0.5-1.1-0.9-1.7-0.4c-0.6,0.4-0.4,1-0.1,1.6C70.9,37.5,72.4,39.3,74.7,41.2z M76.9,53.1
	c2.3-1,3.9-1.9,5.3-3.1c0.4-0.4,1-0.8,0.6-1.4c-0.5-0.6-1.2-0.4-1.8-0.1C79.3,49.5,78.1,50.9,76.9,53.1z M74.2,33.2
	c-0.3-1.9-0.9-3.3-1.9-4.5c-0.3-0.4-0.7-0.8-1.2-0.5c-0.6,0.3-0.6,0.9-0.3,1.5C71.4,31.1,72.4,32.2,74.2,33.2z M77.2,40.7
	c1.6-0.3,2.8-1.3,4-2.2c0.4-0.4,1-0.9,0.6-1.4c-0.5-0.7-1.2-0.3-1.7,0.1C78.8,38,77.8,39.2,77.2,40.7z M76.4,33.7
	c0.9,0.3,1.6-0.1,2.2-0.4c0.9-0.3,1.9-0.6,2.3-1.6c0.1-0.4-0.2-0.6-0.5-0.7c-1.1-0.4-2.1,0-3,0.7C76.9,32.2,76.4,32.7,76.4,33.7z
	 M77.7,27.5c0.6,0.4,1.1,0.1,1.6-0.1c1-0.4,2.2-0.3,2.7-1.5c0-0.1-0.2-0.5-0.4-0.5c-1.3-0.5-2.4,0-3.4,0.8
	C77.8,26.5,77.5,26.9,77.7,27.5z M75.7,26.7c0.9-1.4,0.8-2.7,0.6-4c-0.1-0.4-0.3-0.9-0.7-0.8c-0.5,0-0.7,0.4-0.7,0.9
	C74.9,24,74.9,25.2,75.7,26.7z M75.7,11.8c-0.5,1.4-0.6,2.3,0.2,3.5C76.5,14,76.7,13.1,75.7,11.8z M73.6,15.4
	c0.1-0.9,0.3-1.8-0.6-2.7C72.4,13.9,72.8,14.7,73.6,15.4z M76.8,18.8c1-0.3,1.9-0.4,2.4-1.3c0.2-0.3-0.2-0.6-0.5-0.6
	C77.7,17,77,17.5,76.8,18.8z M77.2,29.7c-1.3,0.2-1.3,0.2-1.8,1.3C76.3,30.8,76.8,30.4,77.2,29.7z M54.7,136.6
	c0.1-0.2,0.1-0.5,0.1-0.7c0-0.3-0.2-0.5-0.5-0.2c-0.1,0.1-0.1,0.4-0.1,0.7C54.3,136.5,54.5,136.5,54.7,136.6z M72.8,19.1
	c-0.1-0.2-0.1-0.4-0.1-0.4c-0.3-0.1-0.6-0.8-0.9-0.2C71.6,18.7,72.2,19.2,72.8,19.1z M54.8,138.8c0-0.1-0.1-0.2-0.1-0.2
	c0,0.1,0,0.2,0,0.2c0,0.1,0.1,0.2,0.1,0.2C54.8,139,54.8,138.9,54.8,138.8z"/>
</svg>
