<?xml version="1.0" encoding="utf-8"?>
<!-- Generator: Adobe Illustrator 25.3.0, SVG Export Plug-In . SVG Version: 6.00 Build 0)  -->
<svg version="1.1" id="Layer_1" xmlns="http://www.w3.org/2000/svg" xmlns:xlink="http://www.w3.org/1999/xlink" x="0px" y="0px"
	 viewBox="0 0 81.1 228.6" style="enable-background:new 0 0 81.1 228.6;" xml:space="preserve">
<path d="M44.8,19.5c2.4-1.3,3.6-2.8,2.3-5.9c-1.5-3.9,0.6-7.8,4.3-8.8c2.9-0.8,6.6,1.2,7.4,4c1.1,3.6-1,7.5-5.2,8.4
	c-8.4,1.7-9.1,9.2-12.3,14.9c2.8-2.3,5.5-4.5,8.7-6.1c7.2-3.7,16.1-0.1,16.9,6.9c0.6,5.5-3.7,9.4-8.4,7.6c-0.5-0.2-1.1-0.6-0.9-1.4
	c0.3-0.6,0.9-0.9,1.5-0.7c2.8,0.9,4.6-0.3,5.4-2.9c0.7-2.5,0.1-4.9-2-6.7c-3.3-2.8-9.6-2.6-13.8,0.5c-3.2,2.3-5.5,5.3-7.3,8.8
	c-5.5,10.7-6.2,25.5-3.1,40.3c2.2-5.2,3.2-10.4,5.6-15c0.8-1.5-0.5-2.2-1.1-3.2c-1.7-3-1.7-5.9,0.6-8.6c1.7-2,3.9-3.1,6.6-2.3
	c2.1,0.7,3.9,1.8,4.4,4.3c0.5,3-0.2,6-3,7.1c-7.2,2.8-7.7,9.2-9.2,15.2c-0.2,0.2-0.9,0.3-0.3,0.8c0.1-0.3,0.2-0.5,0.2-0.8
	c2.3-1.8,3.3-4.4,4.9-6.7c4-5.5,8.8-9.9,15.2-12.3c3.3-1.2,7-2.4,9.7,1.2c2,2.6,1.3,7.4-1.4,10.8c-2.5,3.2-5.9,5.4-9.4,7.4
	c-5.5,3.1-11.4,5.5-17.3,7.7c-2.6,1-3.6,2-2.9,5.1c1.2,4.9,1.7,9.9,2.5,15c12.4-18.3,20.1-22.3,32.9-16.9l0,0
	c0.8,1.6,1.9,3.2,2.5,4.9c2.5,7.2-2,14.1-9.6,14.5c-3.2,0.2-5.9-0.8-6.9-5.7c3.6,3.3,6.7,4.6,10.5,2.4c3.7-2.2,5.1-4.7,4.2-9.3
	c-0.7-3.8-3-6.1-6.8-6.6c-6.4-0.8-11.9,1.5-16.4,6c-6.8,6.8-10.4,15.2-11.6,24.7c-0.8,6.1-1.4,12.3-1.6,18.4c-0.3,8-0.1,16-0.1,25.1
	c2.7-5.1,4.7-9.5,7.6-13.4c0.8-1.1,0.1-2-0.2-3c-1-3.2,0.5-5.5,2.9-7.2c2.3-1.6,5-1.6,7.5-0.2c2.1,1.2,3.5,3.1,3.1,5.7
	c-0.4,2.8-3.9,6.2-7,5.6c-4.4-0.8-5.7,1.9-7.3,4.8c-2.2,3.9-4.1,8-5.6,12.2c-0.6,1.7-1.3,3.5,0.1,5.8c4.7-9.8,11.3-17.3,20-23.1
	c3.4-2.3,7.1-3.8,11.1-4.2c3.1-0.3,5.8,0.6,7.4,3.6c1.6,3,0.9,5.6-1.1,8.2c-2.6,3.4-6,5.8-9.7,7.8c-7.7,4-15.3,8-23.1,11.7
	c-3.1,1.5-4.2,3-3.8,6.7c1.6,14.5,1.3,29-0.5,43.4c-0.1,1-0.1,2.2-1.8,2.7c-0.9-3,0-6,0.2-8.9c1.3-19.8,1.5-39.5-4.4-58.8
	c-2.6-8.3-6.2-16.2-13.2-21.9c-2.2-1.8-4.6-2.9-7.4-3.6c-4.3-1-8.1-0.4-10.9,3.1c-2.8,3.6-3.1,7.7-1.4,11.8c2.4,5.6,7.3,7,12.4,3.5
	c0.8-0.6,1.5-1.6,2.8-1.4c-1.2,5.1-7.8,7.2-12.8,4.2c-4.9-3-7-9.9-4.7-16c2-5.5,7.3-8.6,13.2-7.8c7.8,1.1,13,6,17.1,12.3
	c2.7,4,4.5,8.4,7.1,12.7c0-8.2,0-16.5,0-24.7c0-2.5-1.8-3-3.5-3.7c-6-2.4-12.1-4.7-18-7.3c-4.6-1.9-8.8-4.6-12.1-8.3
	c-2-2.3-2.8-4.8-1.4-7.7c1.4-2.8,3.9-3.7,7-3.5c4.9,0.4,8.7,3.1,12.2,6.1c5.8,4.9,10.4,10.8,16,17.4c-2.3-7.6-5.5-13.6-9.2-19.2
	c-1-1.5-2.2-2.6-4.2-2c-1.2,0.3-2.4,0.1-3.6-0.3c-3.5-1.2-5.5-3.8-5.1-6.8c0.5-3.2,3.6-5.4,7.2-5.2c3.6,0.3,7,3,6.3,6.1
	c-1.1,4.4,1.6,6.9,3.3,10c2,3.8,4,7.6,6.5,12.3c3.3-22.6-0.4-42.3-15.8-58.8c-2.6-2.8-5.9-4.5-9.6-5.2c-6-1-10.9,4.8-9,10.6
	c1.5,4.7,7.3,6,10.8,2.4c0.6-0.6,0.8-1.8,2.3-1.6c0.9,2.3-0.6,3.6-2.2,4.7c-4.2,2.9-11,0.7-12.8-4.2C1.8,65,2.6,61.2,5.2,58
	c2.5-3,5.9-3.9,9.6-3.1c5.4,1,9.6,4.1,13,8.3c2,2.5,3.9,5.2,6.4,8.6c0-3.1,0-5.5,0-7.8c0-1.5-0.6-3.2-0.2-4.6
	c1.9-7.1-1.1-11-7.6-13.6c-5.4-2.2-9.9-6.2-14-10.5c-2.4-2.6-3.8-5.6-4.1-9.1c-0.3-5.7,4.1-8.6,9.1-5.9c5.5,3.1,9.7,7.7,12.8,13.1
	c2,3.6,3.8,7.3,5.8,11.2c1.9-3,2.2-6.1,2.5-9.1c0.8-7.7,2.1-15.3,0.9-23.1c-0.5-3.1-1.8-5.6-3.9-7.7c-1.7-1.6-3.6-2.9-6.2-1.9
	C27,3.5,26,5.2,25.8,7.3c-0.2,2.4,0.9,4.1,3.2,5.1c0.5,0.2,1,0.7,2,1.4c-2.8,1.6-4.4,0.2-5.8-1.2c-2.3-2.3-2.3-6.7,0.1-9.9
	c2.1-2.9,5.1-3.4,8.2-2c4.5,2,6.6,5.7,7.9,10.3c1.1,3.9,0.3,7.9,0.8,12.3C44.1,22.4,44.6,21,44.8,19.5L44.8,19.5z M68.7,148.4
	c-4,0.4-6.5,1.7-6.1,6c0.2,2.1,0,4.3,0,6.4c0,1.2-0.6,2.7,0.6,3.4c1.4,0.7,2.5-0.6,3.7-1.1c1.2-0.6,1.7-1.6,1.7-3
	C68.6,156.2,68.7,152.4,68.7,148.4z M60.3,153.2c-6.1,2.3-6.4,6.8-5.9,11.8c0.1,1.2-0.6,2.8,0.6,3.4c1.5,0.7,2.8-0.7,4.1-1.4
	c1.3-0.7,1.2-2,1.2-3.2C60.3,160.4,60.3,157,60.3,153.2z M70.9,160c3.6-1.4,5.6-3.6,7.2-5.9c1.3-1.8,1-3.9-0.4-5.6
	c-1.3-1.5-3.1-2-5-1.6c-2.7,0.6-1.6,2.9-1.7,4.6C70.8,154.1,70.9,156.7,70.9,160z M57.2,62.7c-6.6,3.5-5.7,4-5.8,15.4
	C57.1,76.5,58.2,73.8,57.2,62.7z M59.3,74.3c5.1-2.1,5.4-2.5,5.7-7.1c0.1-1.8,0.2-3.7,0.3-5.5c0.1-0.9,0.5-2-0.3-2.6
	c-1-0.8-2,0.2-3,0.5c-1.6,0.5-1.9,1.8-2,3.3C59.7,66.5,59.5,70.2,59.3,74.3z M17.6,114.1C17.6,114.1,17.6,114.1,17.6,114.1
	c-0.1-1.8-0.1-3.7-0.4-5.5c-0.4-2-2.2-2.8-3.8-2.8c-2.2-0.1-1.4,2-1.5,3.2c-0.2,2-0.1,4,0,6c0.1,2.7,2.4,4,4.3,4
	c2.5,0,1.1-2.5,1.4-4C17.7,114.7,17.6,114.4,17.6,114.1z M20.4,31c-0.3-2,1.2-5-1.5-7.1c-1.5-1.2-2.8-1.5-3,1
	c-0.2,2.9-0.4,5.8-0.5,8.7c-0.1,2.4,1.8,4.1,3.5,4.2c2.5,0.1,1.1-2.5,1.5-3.9C20.6,33.2,20.4,32.4,20.4,31z M23.4,28.5
	c-2.3,9.7-1.5,12.6,4.3,14.8C28.3,37.8,29.2,32.3,23.4,28.5z M20,109.9c0,3.4-0.1,6.2,0,9.1c0.1,2.8,2.6,3.6,4.5,3.7
	c2.7,0,1.3-2.5,1.5-3.9C26.6,114.4,23.8,112.2,20,109.9z M51.8,160.4c-3.8,4.5-6.5,8.8-8.6,13.9C52.3,171.9,52.5,171.6,51.8,160.4z
	 M24,102.8c2-0.4,3.9-1.1,3.8-3.7c-0.1-3.1-2.1-4.3-4.9-4.3c-2.2,0-4,1.2-4,3.5C19,101.4,21.4,102.3,24,102.8z M47.1,60.2
	c2.5-0.5,4.6-1.5,5-4.5c0.3-2.7-1.2-4.3-3.7-4.3c-2.6,0-4.3,1.7-4.4,4.4C43.8,58,44.4,59.9,47.1,60.2z M55.3,139.2
	c-3.1,0-5.6,2.2-5.3,4.4c0.3,2.3,2.1,3.5,4.2,3.4c2.4-0.2,4.7-1.3,4.9-4C59.3,140.4,57.3,139.3,55.3,139.2z M52.9,6.8
	c-2.1,0.1-4.2,2.3-4,4.4c0.1,2.1,0.9,3.9,3.5,4c2.6,0,4.7-2.3,4.4-4.8C56.5,8,54.8,7.2,52.9,6.8z M41.7,82.3c7-2.2,8.2-4.4,6.5-10.8
	C46,74.9,43.6,78,41.7,82.3z M9.5,114.3c0-2.6,0-4.8,0-7c0-0.9-0.2-1.9-1.3-2.1c-1-0.2-1.7,0.4-2.3,1.2C4,108.8,5.1,111.5,9.5,114.3
	z M36.4,126.9c-2.9-2.8-4.3-6.3-7.8-8.1C28.7,125.2,29.1,125.7,36.4,126.9z M67.4,68.5c3-2.2,3.6-4.7,3.1-7.6
	c-0.1-0.8-0.5-1.6-1.3-1.7c-1-0.2-1.2,0.7-1.4,1.5C67.3,63.1,67.1,65.6,67.4,68.5z M12.9,31.6c0.3-2.9,0.6-5.2,0.8-7.6
	c0.1-0.8,0.5-2-1-2.1c-1,0-1.7,0.8-1.9,1.7C10.3,26.3,10.5,29,12.9,31.6z M30.7,39.6c-0.5,5.8-0.5,5.8,2.7,6.5
	C33.1,43.9,32.4,42,30.7,39.6z"/>
</svg>
