<?xml version="1.0" encoding="utf-8"?>
<!-- Generator: Adobe Illustrator 25.3.0, SVG Export Plug-In . SVG Version: 6.00 Build 0)  -->
<svg version="1.1" id="Layer_1" xmlns="http://www.w3.org/2000/svg" xmlns:xlink="http://www.w3.org/1999/xlink" x="0px" y="0px"
	 viewBox="0 0 112.7 250" style="enable-background:new 0 0 112.7 250;" xml:space="preserve">
<path d="M91,142.3c-0.3-17.3-3.4-34-11.4-49.6c-3.4-6.7-7.2-13.2-11.2-19.6c-3.1-4.9-6.8-8-13.8-6.7c-9.5,1.8-19.2,0.9-27.3-5.7
	c-1.5-1.2-3.2-0.8-4.9-0.9c-6.9-0.8-11.1-4.1-12.3-9.8c-1-4.8,1.4-8.2,6.3-8.5c3.4-0.2,6.8,0,10.2,0.1c2.8,0,4.9-0.3,2.2-3.7
	c-0.5-0.6-1-1.1-1.3-1.8c-0.2-0.4,10.4-10.9,10.8-10.8c2.2,0.7,4.5,0.2,5.5-1.7c2.2-4,4.2-2.7,7.2,1.1c-1.2-8.7,3.3-9.6,8.9-9.1
	c5.9,0.5,11.3-0.6,16.5-3.9c3.2-2.1,7.2-2.1,11-1.2c1.3,0.3,2.7,1.1,3.8,0.9c9.2-1.9,8.2,5,9.1,10.3c0.2,1.1,0,2.4,0.5,3.2
	c3.8,5.8,1,10-3.5,13.6c-2.6,2.1-5,4.6-5.7,7.5C89.6,55,83.2,58.6,75.2,60c-5.7,0.9-5.6,3.9-3.6,7.8c2.5,5,5.4,9.9,8.1,14.8
	c10.2,18.1,14.5,37.8,15.9,58.3c2.2,32.2-2.2,63.8-9.2,95.2c-0.4,1.6-0.3,4.5-3,3.8c-2.5-0.7-1.2-3.1-0.9-4.8
	c5.2-24.3,9.1-48.8,9.6-73.7c0.2-9-3.2-15.1-11.5-18.7c-12.8-5.5-22.2-14.4-27.6-27.6c-2.4-5.8-6.9-10.3-11.9-14.1
	c-1.1-0.9-2.5-1.6-3.2-4.2c8,0.4,14.6,3,20.9,6.7c13.6,8.1,22.5,20.3,29.5,34.1C89.1,139.1,89.3,141.1,91,142.3
	c0.2,0.1,0.3,0.2,0.4,0.4C91.3,142.6,91.1,142.4,91,142.3z M50.4,39.5c0,0.1,0.1,0.2,0.1,0.3C50.5,39.7,50.4,39.6,50.4,39.5
	c-0.3-0.4-0.7-0.7-1.1-1.1c0.4-0.6-0.3-2.3,1.4-1.5c1.4,0.6,1.7,3,3.9,2.5c0.5-2.2-2.2-4.4,0-6.7c0.8,1.8,1.5,3.6,2.3,5.2
	c0.9,1.8,2.5,3.3,4.5,2.3c1.9-0.9,1-3,0.5-4.6C59.9,29.2,49.7,25,43.4,27c-4,1.3-6.8,3.6-9.4,6.5c-1,1-4,1.1-2.4,3.4
	c1.3,2,0.5,5.4,4.4,5.8c3.1,0.3,6.2,1.4,9.6,2.3c-1.1-1.9-3.6-2.3-3.9-4.9c2.7,0.9,4.5,3.3,7.3,2.4c-1.4-2.9-4.8-4.3-5.1-8.2
	c2.4,0.9,2.8,3.8,5.3,4C49.2,39.1,49.7,39.4,50.4,39.5z M78.6,45.3c-0.8,0.3-1.6,0.6-2.5,0.9c-4.9,2.7-9.5,0.4-14.1-1.1
	c-1.2-0.4-2.5-1.4-3.6,0c-0.9,1-0.2,2.2,0.2,3.2c1.3,3.1,2.7,6.2,4.3,9.1c0.7,1.4,1.1,3.5,3.4,3.1c1.8-0.3,2.9-1.5,3.3-3.4
	c1.1-4.2,3.6-7.7,6.3-11C76.9,45.8,77.8,45.5,78.6,45.3l0.2-0.2C78.8,45.1,78.6,45.3,78.6,45.3z M59.6,116.6
	c-1.1,1.1-1.7,2.3-0.3,4.2C59.4,119.1,59.4,117.8,59.6,116.6c0.1-0.6,0.3-1.1,0.5-1.6c0-0.1-0.2-0.2-0.3-0.3
	C59.8,115.3,59.7,115.9,59.6,116.6z M89.9,42.9c-6.9,3.4-15.6,4.8-17.3,14.6C83.7,56.6,86.6,54.1,89.9,42.9l0.3-0.2L89.9,42.9z
	 M87.5,142.5l0.2,0L87.5,142.5c-1.3-8-6.3-14-10.7-20.1c-7.5-10.4-17-18.5-29.8-21.9l-0.2-0.1l0.2,0.2
	C63.8,111.3,74.4,128.1,87.5,142.5z M83.2,29.4l-0.1-0.1c-0.1,4.4-4,8.5-1.4,13.3c2.6-0.7,2-3.1,3.1-4.5c1-1.4,1.5-3.2,3.7-3.7
	c-0.4,2.6-2.8,4.2-1.9,6.7c12.2-5,14.2-7.2,12.4-13.5c-2.6,0-1.4,3.9-4.2,3.9c-1-2-0.1-3.8,1.1-5.1c3.4-3.6,1.3-7.4,0.6-11.1
	c-0.3-1.7-1.9-1.5-2.4-0.6c-2.7,4.8-8.1,6-11.7,9.4c-5.3,5-5.9,11.3-5.3,18C79.1,37.7,78.7,32.4,83.2,29.4z M64.7,40.5
	c1.9-1.7,1-4.6,3.7-6.1c0.4,3.4-2.1,6.4,0.7,10.4C69.7,39,69.9,34,73.5,30c-0.9,4.6-2.6,9.2-0.7,14c0.7-2,0.8-4.2,1.1-6.3
	c1.1-7.2,3-13.9,10-18c2.4-1.4,7.4-2.7,6.1-5.3c-1.5-3-6.4-1.8-9.9-1.4c-0.9,0.1-2,0.4-2.6,0.9c-5.7,4.7-12.4,4.5-19.2,4.5
	c-1.5,0-3.7-1-4.4,1.3c-0.6,1.9,0.2,3.7,1.4,5.3c0.8,1,1.8,2,2.8,2.7C62.8,30.6,65.5,34.5,64.7,40.5z M47.1,65
	c3.2-0.3,6.4-0.5,9.5-1c4.5-0.8,6.5-2.7,3.2-7.2c-1.3-1.8-2.1-4-2.9-6.1c-0.7-1.9-1.6-2.4-3.8-1.9c-6.7,1.6-13.6,2.9-20.3,4.4
	c-1.8,0.4-4.8-0.4-5,2.3c-0.2,2.5,1.7,4.6,4.1,5.6C36.7,63.2,41.7,64.8,47.1,65z M44.8,47.9c-10.2-4.1-19.2-3.8-28.2-3.8
	c-2.2,0-3.7,1.1-3.9,3.2c-0.4,3.7,1.1,6.7,4.4,8.4c2.3,1.2,4.8,2.3,7.5,1.2c0.2-0.1,0.4-0.7,0.3-1c-0.9-4.5,2.7-4.2,5.3-4.8
	C34.6,50,39,49.2,44.8,47.9z M61.4,124.8c1.5-3,1.3-5.3,0.8-7.7C61.9,119.4,60.5,121.6,61.4,124.8z M65.9,120.8
	c-2.2,2.2-2,4.7-1.1,7.3C65.1,125.7,65.5,123.2,65.9,120.8z M67.5,123.9c-0.3,2.3-0.5,4.5-0.8,6.8C68.6,128.5,68.5,126.2,67.5,123.9
	z M71.3,128.1c-1.5,1.6-1.9,3.3-1,5.8C70.7,131.5,71,129.8,71.3,128.1z M57.1,112c-1.2,1.4-1.1,2.7-0.7,4.3
	C57.4,114.9,57.4,113.6,57.1,112z M75.6,133.5c-0.1,0.7-0.2,1.3-0.1,1.8c0,0.6,0.3,0.7,0.5,0.1c0.1-0.3,0.1-0.7,0.1-1.1
	C76,134.1,75.8,133.9,75.6,133.5z M78.4,135.7c-0.3,0.4-0.6,0.5-0.7,0.7c-0.1,0.3-0.1,0.7,0,1.1c0.2,0.5,0.5,0.5,0.6-0.1
	C78.4,137,78.4,136.4,78.4,135.7z M73.8,131.1c-0.1-0.3-0.1-0.6-0.2-0.9c-0.2,0.2-0.4,0.4-0.4,0.6c0,0.3,0.1,0.6,0.2,0.9
	C73.5,131.5,73.7,131.3,73.8,131.1z M54.5,109.9c-0.2,0.3-0.3,0.6-0.4,0.8c-0.1,0.2,0,0.4,0,0.5c0.2-0.1,0.5-0.2,0.5-0.3
	C54.6,110.7,54.5,110.4,54.5,109.9z M52,108.6c0.1-0.1,0.4-0.2,0.4-0.2c0-0.3-0.1-0.7-0.2-1c-0.1,0.1-0.4,0.2-0.4,0.2
	C51.8,107.9,51.9,108.3,52,108.6z M72.3,135.2l0.2,0.5l0.2-0.5L72.3,135.2z M80.1,138.9l0.2,0.4l0.1-0.4L80.1,138.9z M82.7,140.4
	l-0.1-0.4l-0.2,0.4L82.7,140.4z M49.8,105.9l0.2-0.3l-0.3,0L49.8,105.9z"/>
</svg>
