<?xml version="1.0" encoding="utf-8"?>
<!-- Generator: Adobe Illustrator 25.3.0, SVG Export Plug-In . SVG Version: 6.00 Build 0)  -->
<svg version="1.1" id="Layer_1" xmlns="http://www.w3.org/2000/svg" xmlns:xlink="http://www.w3.org/1999/xlink" x="0px" y="0px"
	 viewBox="0 0 117.4 230" style="enable-background:new 0 0 117.4 230;" xml:space="preserve">
<path d="M16.8,85.1c-2.6-3.6-5.6-6.6-6.4-10.7c-0.9-4.7,0.6-6.6,5.4-6.5c1.9,0,3.7,0.2,5.5,0c7.9-1,11.3,2.6,9.7,10.2
	c-0.2,1-0.3,2.1-0.6,3.5c4.4-0.4,8.7-4.1,12.2-0.2c3.7,4.2,4.2,12.1,1.7,15.9c-3.8,5.5-8.4,1.1-13.3,0.9c4.1,6.6,7.3,13.1,10.2,20.8
	c1.9-4.5,2.2-8.7,5.2-11.6c1-1,2-2.6,3.7-1.9c1.3,0.6,1.5,2.1,1.6,3.4c0.8,6.2,0,12-4.1,16.9c-2.4,2.8-2.2,5.4-1.2,8.7
	c3.9,11.8,7.6,23.7,10.1,36.2c0-2.2,0-4.4,0-6.6c0.4-27.4,0.8-54.8-1-82.2c-0.2-3.3-0.7-4.8-4.5-5.2c-5.7-0.6-14.3-9.7-15.5-15.6
	c-0.7-3.1,1.3-3.4,3.5-3.6c5.2-0.4,8.8,1.2,15.7,7.3c0.8-7.3-0.1-14.1-0.9-20.9c-0.7,0.1-1.2,0.1-1.3,0.3c-5.8,9.1-6.8,9.3-14.7,1.8
	c-1-1-2.2-1.2-3.5-1.5c-3.7-0.8-4.9-3.9-5.4-7.1c-0.5-3.1,1.7-4.8,4.2-5.9c3.5-1.5,7.1-2.9,11.5-4.6c-4.2-1.7-7.7-2.9-11-4.5
	c-7.5-3.5-8-7.9-1.4-12.7c1.5-1.1,2.9-2.2,3.7-4C37.9,0.7,42.3-0.2,47,0c4.6,0.3,5.9,4,7,7.7c0.6,2.1,1,4.3,2,6.9
	c1.3-4.9,4.5-7.9,8.7-9.9c1.5-0.7,3.5-2,4.7-0.7c3.4,3.8,8.4,6.3,9.9,11.7c0.8,3-0.6,5.1-3,6.7c-2.7,1.9-5.6,3.6-8.6,5.5
	c2.8,2.7,6.4,3.9,8,7.4c1.2,2.7,2,5.6-0.2,7.8c-3.2,3.1-6.6,6-10.3,8.5c-3.4,2.3-4.5-1.9-7-3.8c0.5,25.2,3.1,49.8,3,74.8
	c2.6-1.3,2.2-4,3.2-5.8c1.6-3,2.3-6.5,4.2-9.1c8.4-11.4,8.1-25.1,10.4-38.1c0.4-2.3-0.5-3.9-2.1-5.4c-2.1-1.9-3.7-4.2-4.4-7
	c-1-4,0.9-7.1,5-7.7c2.6-0.4,4.9-0.6,6.8-3c1.6-2.1,4-1,5.4,0.6c1.7,2.1,2.8,3.1,5,0.5c1.7-2,4.1-1.5,6.2-0.4
	c3.1,1.6,5.4,4.6,9.2,4.9c0.3,0,0.9,0.5,0.8,0.7c-1.2,4.7,5.6,6.8,3.9,11.8c-0.4,1.1,0.1,2.2,0.8,3.1c2.9,3.7,2.1,7.3-0.5,10.7
	c-2.7,3.4-6.3,5.2-10.3,3.3c-6-2.7-9.7,0.2-14.4,3.5c-7.8,5.6-13.3,12.4-17.2,21.2c-5.5,12.5-11,24.8-12.2,39.7
	c2.9-4,3.6-7.8,5-11.2c4.8-12.3,13.4-20.9,25.3-26.4c6.1-2.8,7.2-1.9,6.8,4.6c-0.9,14.8-6.6,27-18.5,36.2
	c-4.9,3.8-9.5,7.9-14.6,11.3c-2.8,1.9-4,3.8-4,7.2c0.1,17-0.1,34-0.2,50.9c0,2.1,0.1,4.1,0,6.2c-0.1,1.9,1,5-1.7,5.1
	c-2.7,0.2-2.1-3-2.2-4.8c-0.4-5.6-0.5-11.2-0.7-16.8c-0.2-5.5-1.4-10.7-3.8-15.6c-1.7-3.4-3.3-6.2-7.8-6.9
	c-4.9-0.8-9.1-7.2-9.1-12.3c0-3.8,2.3-4.5,5.2-3.4c4.5,1.6,7.2,5.2,8.5,9.7c1.1,3.8,3,7,5.5,10.1c0.1-8.2-2.7-15.9-3.9-23.9
	c-0.3-2-0.9-4-1.2-6c-0.6-3.4-1.5-5.2-5.9-4.3c-6.6,1.4-12.3-1.6-17.5-5.7c-6-4.8-9.7-11.9-16.1-16.2c-0.7-0.5-0.9-1.3-0.6-1.9
	c0.6-1.1,1.8-1.3,2.9-1.3c6.5,0.3,13,0.8,19,4c5.1,2.7,9.6,6.1,13.6,10.4c-2.9-12.6-7.6-24.5-12.3-36.8c-3.5,3.5-5.1,9.9-11.5,6.8
	C13,111,13,110.7,15.1,103c-3.8,1.2-8.2,4.2-11-0.3C1.4,98.6-1.4,93,0.7,88.5C3.8,82,10.7,85,16.8,85.1z M45.6,68.4
	c-0.2,0-0.4,0-0.5,0c-0.6,0.5-0.6-0.5-0.2,0.1c0,0.1,0.5-0.2,0.8-0.3c0,4.3,3.4,4.1,6.4,4.4C50,71.3,47.8,69.9,45.6,68.4z M24,141.7
	c-0.1-0.6-0.2-1.2-0.9-0.4C23.4,141.4,23.7,141.6,24,141.7c3.5,5.9,8.8,8.9,15.5,9.8C34.5,147.9,30.1,143.4,24,141.7z M41.7,149
	c-0.2-0.4-0.1-0.5,0.2-0.2c-0.1,0-0.3,0.1-0.4,0.1c0.5-1.2,0-2.1-0.8-3c-5.5-5.6-12-9.1-19.7-10.6C28.1,139.7,35.4,143.5,41.7,149z
	 M90.7,112.1c-1.3,1-2.6,2.1-4.1,2.9c-10.7,6.5-15.9,16.7-19.4,28.2c7.8-9.4,16.2-18.4,23.1-28.5c0.5-0.8,1.1-1.5,0.3-2.5l0.4,0.1
	C91,112.3,90.7,112.1,90.7,112.1z M59.6,29.8c0-0.2-0.1-0.5-0.1-0.7c0,0.1-0.1,0.3-0.1,0.3c0.1,0.1,0.3,0.2,0.4,0.3
	c0.6,0.9,1.8,2.1,1.6,2.8c-0.8,2.4-2.9-1-4.2,0.9c1.2,4,2,8.2,4.3,11.9c0.7,1.1,1.6,3.5,3.2,1.8c2.7-2.9,8.3-3.6,8.3-8.3
	c0-4.5-4.5-6-8-7.6C63.2,30.5,61.7,29.1,59.6,29.8z M48.7,29.7c-5.1,0.3-9.5,2.7-14,4.8c-1.2,0.6-2.4,1.2-2.1,2.9
	c0.3,1.5,0.9,3.2,2.5,3.4c3.3,0.4,5.2,2.6,7.1,4.9c1.3,1.5,3.3,2.6,4.7,0.6c2.9-4.2,5.6-8.5,5-14.1c-2.3,0.3-2.9,3.4-5.2,2.8
	c-0.6-2.4,2.2-3.2,1.9-5.2c0.1,0,0.3,0,0.4,0c-0.1-0.1-0.2-0.2-0.4-0.3C48.6,29.4,48.7,29.6,48.7,29.7z M48.5,24.5
	c-0.4-3.1-3.4-4.2-3.1-6.9c3.5-0.8,4,3.3,7.1,3.5c0-4.8-1.6-9.2-2.5-13.6c-0.5-2.2-1.6-3.8-4-4.1c-2.7-0.3-5.7,0.3-6.7,2.9
	c-1.3,3.3-3.6,5-6.3,6.7c-2.6,1.6-3.5,4-0.2,5.5C37.6,20.8,42.9,22.4,48.5,24.5z M93.3,115.7c-5,8.2-10.2,14.5-15.5,20.7
	c-5.2,6-9.8,12.5-13.5,19.5C77.1,145.4,92.4,136.7,93.3,115.7z M95,69c5.2-2.8,9.9-5.5,12.4-10.7c0.6-1.2,2-3.1-0.4-3.6
	c-2.8-0.6-4.6-2.4-6.7-3.8c-1.6-1-3.3-1.4-4.3,0.5c-3,5.3-5.8,10.7-5.9,17.3c3.4-1.1,3-5.5,6.3-6.2C98,64.9,94.7,66.2,95,69z
	 M59.6,24.3c4.3,0.5,14.2-3.6,15.3-6.6c1.8-4.5-3.8-4.8-4.9-7.7c-0.1-0.3-0.4-0.6-0.6-0.9c-1.1-1.9-2.3-1.6-4.1-0.8
	c-5.4,2.5-5.6,7.8-7.6,12.4c2.7,0.1,3.5-3.1,6-2.6C63.7,20.9,60.7,21.6,59.6,24.3z M104.1,71.8c-1.3,2.5-4.5,1-6.1,3.5
	c3.1,1,5.9,2.3,8.9,3c4,0.9,8.6-4.1,6.3-7.2c-2.1-2.8-1.8-5.7-2.4-9.4c-4,3.2-7.4,5.9-10.8,8.7C101.3,71.3,102.9,70.3,104.1,71.8z
	 M17.9,89.2c-3.7-1.7-7.3-1.5-10.8-1.3c-1.6,0.1-3.6,0.9-3,2.4C5.2,93,5.2,96,6.2,98.7c0.8,2.2,2.7,2.5,4.6,1.4
	c3.1-1.8,6.2-3.7,8.7-6.4c-1.8-1.9-4.5,0.9-5.5-2C14.7,90,16.9,90.9,17.9,89.2z M24,83.6c1.4-0.3,1.4-1.7,1.7-2.6
	c0.9-2.9,3.6-6.4,0.7-8.7c-3.2-2.5-7.8,0.3-11.8-0.7c-0.2-0.1-0.8,0.7-0.9,1.2c-0.7,2.2,4.1,9.9,6.5,10.3c0.9-1,0.1-3.2,2.2-3.3
	C23.7,80.7,22.4,82.7,24,83.6z M28.8,92.2c4.2,1.1,8.2,5.7,12.2,2.2c3.2-2.8,0.8-7.8-1.6-10c-3.8-3.4-6.9,1.5-11.5,2.6
	C35.5,88.9,29.6,90.3,28.8,92.2z M82.7,70.6c-1.4,4.7-1.6,9.2-1.9,13.5c-0.2,3,1.1,3.2,3.2,1.6c2.8-2.1,5.5-4.3,8.3-6.5
	c1.1-0.8,1.5-2.2,0-2.5C88.3,76.2,86.6,72.4,82.7,70.6z M87.3,49.8c-2,0.7-2.9,3-5.2,3.1c-2.2,0.1-5.4-1-6.2,2.2
	c-0.7,2.8,1.9,4.6,3.7,6.4c1,1,2.1,1.9,3.2,2.9c1.7-1.6-0.5-4.1,2-5c2,0.3,0.9,3,2.9,3.6C87.3,58.6,90.1,54.2,87.3,49.8z M21.5,99.1
	c-4.5,8.4-4.4,8.2,0.1,11.5c2.7,1.9,4,0.7,5.4-1.2c2.1-2.8,1.3-9-1.4-11.2c-1.1,1.1,0.1,3.6-2.2,3.9C22.1,101.5,23,99.5,21.5,99.1z
	 M39,173.1c0.7,6.2,2.1,8,7.5,9.3C45.7,177.8,43.8,174.5,39,173.1z M53.1,69.2c-2.5-4.6-6.1-7.5-11.4-7.8
	C44.8,64.9,48.9,67.1,53.1,69.2z M48.4,109.6c-3.1,4.4-3.6,8.4-3.1,13.5C48.7,118.9,49.5,114.9,48.4,109.6z"/>
</svg>
