<?xml version="1.0" encoding="utf-8"?>
<!-- Generator: Adobe Illustrator 25.3.0, SVG Export Plug-In . SVG Version: 6.00 Build 0)  -->
<svg version="1.1" id="Layer_1" xmlns="http://www.w3.org/2000/svg" xmlns:xlink="http://www.w3.org/1999/xlink" x="0px" y="0px"
	 viewBox="0 0 120.1 231.6" style="enable-background:new 0 0 120.1 231.6;" xml:space="preserve">
<path d="M50.1,113.3c0-0.1,0-0.3,0-0.4c0.1-1.8-0.8-4.3,1.5-5.1c1.9-0.6,3,1.5,4.2,2.8c0.4,0.4,0.7,0.8,1.4,1.7
	c-0.4-8.5-1-16.4-1-24.2c-0.1-12.4,0.1-24.8,0.5-37.2c0.1-3.8-0.8-6.4-4.3-8.4c-4.1-2.4-7.9-5.5-11.7-8.5c-1.6-1.3-3.1-1.5-4.9-0.7
	c-2.6,1.2-5.3,1.5-8.1,1.5c-5.9,0-8.6-2.8-8.4-8.7c0-1.2-0.7-2.1-1.1-3c-1.6-3.4-1.1-6.6,1.5-9.1c2.5-2.5,5.6-2.8,8.8-1.6
	c1,0.4,1.7,1.2,3,0.4c3.4-2,5.5,0.2,7.1,2.8c2.2,3.7,2.5,7.9,1.6,12c-0.5,2.4,0.2,3.6,1.9,4.8c2.6,1.8,5.1,3.7,7.8,5.8
	c0.4-2.2-1.6-5.1,1.3-5.9c2.7-0.7,3.5,2.5,5.4,4.2c0.1-1,0.1-1.8,0.2-2.6c0.8-5.4,0.5-10.1-5-13.4c-2.4-1.5-4.2-4.3-5.3-7.2
	c-1.2-3.2-0.3-5.7,2.8-6.7c1.7-0.6,2.5-1.3,2.9-2.9C52.8,0.9,55,0,57.7,0c2.9,0,5.1,1.1,6,4.1c0.6,1.9,0.9,3.6,3.3,4.6
	c2.6,1.1,2.5,4,1.5,6.5c-1.1,2.6-2.8,5-5.2,6.3c-3.6,2.2-4.6,5.2-4.4,9c0.1,1.1-0.2,2.2-0.2,3.2c0.5,0.4,0.8,0,1-0.2
	c1.3-1.9,3.2-3.3,5.2-2.1c1.9,1.1,0.4,3.2,0.2,4.9c0,0.3-0.1,0.5-0.1,0.8c0,0,0,0,0,0c3.1-1.4,5.4-3.8,8.2-5.6c1.6-1,1.4-2.4,1.3-4
	c-0.2-4.2,0.3-8.3,2.8-11.8c1.8-2.5,4.1-3.9,7-2c1.4,0.9,2.3,0.3,3.4-0.1c3.5-1.3,6.2,0,8.4,2.6c2.3,2.7,2.5,5.8,0.5,8.7
	c-0.9,1.4-1.5,2.6-1.2,4.5c0.4,3.2-2.1,4.9-4.8,5.9c-4.3,1.5-8.2,0.3-11.8-1.9c-2.3-1.4-4-1.1-6,0.4c-4.2,3.2-8.4,6.2-12.7,9.2
	c-1,0.7-1.6,1.4-1.6,2.7c0,11.4-0.1,22.8-0.2,34.3c-0.1,0.1-0.1,0.2-0.2,0.3c0-0.1,0.1-0.2,0.1-0.4c1.6-1.9,3.1-5.5,5.8-4
	c2.5,1.4,0.7,4.7-0.1,7.1c-0.1,0.2-0.1,0.5-0.2,1.3c3.4-2.9,6.6-5.5,9.6-8.2c2-1.8,1.3-5.1-1.3-6.9c-3.9-2.6-6.8-6-9.3-9.8
	c-2.7-4.1-1.8-7.2,2.7-9.3c1.4-0.7,2.1-1.5,2.6-2.9c1.1-3.3,3.6-4.7,7-4.3c3.5,0.3,5.4,2.2,5.9,5.8c0.2,1.2-0.3,2.3,1.5,2.9
	c4.3,1.6,5.4,4.6,3.3,8.6c-1.6,3-4,5.3-6.5,7.4c-0.7,0.6-1.5,1.2-2.3,1.8c-1.1,0.9-1.1,2-0.3,2.9c0.9,1.2,1.7,0,2.4-0.5
	c1.3-1,2.6-2.1,3.9-3.1c3.5-2.6,6.3-5.2,5.3-10.4c-0.6-3.2,0.5-6.6,1.5-9.7c1.5-4.4,4.7-5.8,8.6-3.3c1.4,0.9,2.2,0.5,3.3-0.1
	c3.2-1.9,5.5-0.5,7.5,2c2.2,2.7,2.2,5.6,0.1,8.3c-0.7,0.9-1.7,1.4-1.2,3.1c1.3,4-0.2,6.4-4.2,7.7c-3.7,1.2-7.4,0.6-11-0.3
	c-2.2-0.5-3.6-0.1-5.2,1.3c-2.4,2.2-5.1,4.2-7.6,6.4c-0.6,0.5-1.9,0.9-0.9,2.2c1.4,1.8,5.9,2.3,7.7,0.8c2.9-2.5,5.9-5,9.8-6
	c4.1-1.1,6.7,0.2,7.6,4.3c0.3,1.5,1.2,1.9,2.4,2.4c3.8,1.4,5.2,3.6,4.8,7.1c-0.5,4-1.9,5.4-6.4,5.9c-1.5,0.2-1.7,0.9-2.2,1.9
	c-2.2,3.9-5.7,4.7-9.2,1.8c-3.6-3-6.5-6.8-8.4-11.2c-2.1-4.9-8.6-6.5-12.7-3.1c-3.7,3.1-7.3,6.3-11.3,9.1c-2.2,1.6-3.1,3.1-2.9,5.8
	c1.4,20,0.6,40,2.1,60.4c1-1.3,1.7-2.4,2.7-3.4c1-1.1,2.2-2.5,3.9-1.6c1.4,0.7,1,2.4,0.9,3.8c-0.2,2-1,3.7-1.9,5.7
	c4.8-3.5,9.7-6.9,14.3-10.7c2.3-1.9,1.4-10-1-11.9c-3.3-2.6-5.9-5.8-8-9.4c-2.9-4.8-1.7-8,3.5-9.6c1.4-0.4,1.5-1.3,1.9-2.3
	c1.4-3.7,3.2-4.8,7.3-4.3c3.5,0.4,5.4,2.2,5.9,5.8c0.2,1.4,0.1,2.5,1.8,3.2c3.6,1.6,4.4,4.5,2.6,8.1c-1.6,3.1-4,5.7-7,7.4
	c-4.3,2.4-4.1,5.9-3.4,10.2c4.9-2.7,8.8-6.1,12.6-9.6c1.1-1,0.8-2.3,0.7-3.5c-0.1-3.1,0.3-6.1,1.2-9c1.4-4.5,4.5-6,8.7-4.1
	c1.4,0.6,2,0,3-0.5c3.5-1.7,5.9-1.3,8.1,1.3c2,2.4,3,5.1,0.6,7.8c-1,1.1-0.7,2.1-0.3,3.3c1.2,3.6-0.2,6.2-3.9,7.2
	c-4.5,1.2-9.1,0.6-13.5-0.7c-1.9-0.6-3.2-0.3-4.8,1c-3.6,3.1-7.5,6-11.5,9.2c2.2,2,4.8,2.4,7.2,3.4c1.5,0.6,2.6-0.1,3.7-1.1
	c3-2.7,6.4-4.9,10.3-5.9c4-1,6.9,0.7,7.4,4.7c0.2,1.5,0.8,2,2.1,2.5c3.9,1.5,5.1,3.8,4.5,7.7c-0.6,3.9-2.2,5.3-6.4,5.5
	c-1.3,0-1.9,0.3-2.6,1.4c-2.5,4-5.6,4.4-9.2,1.4c-3.1-2.6-5.5-5.9-6.9-9.7c-1.2-3-3.2-4.3-5.9-5.7c-4.8-2.5-8.4-2.1-12.5,1.6
	c-3.6,3.3-7.9,6.1-12.1,8.7c-2.7,1.6-3.4,3.5-3.2,6.4c1.4,19,0.5,38.1,0.8,57.1c0,1.6,0.5,3.3-0.8,5c-1.7-1-1.2-2.6-1.2-3.9
	c-0.1-9.7-0.1-19.3,0-29c0-2.6-0.8-4.3-2.9-5.8c-5.8-4.2-11.5-8.6-17.1-13.1c-1.7-1.4-3.2-1.4-5.2-1c-4.4,1-7.8,2.4-9.1,7.4
	c-0.9,3.1-3.4,5.7-5.7,8.1c-3.5,3.6-7,3.3-9.8-0.9c-0.7-1.1-1.4-1.3-2.6-1.4c-4-0.1-5.5-1.5-6.2-5.1c-0.8-4,0.4-6.5,4-8
	c1.1-0.5,2.1-0.5,2.3-2.2c0.4-4.2,3.5-6.1,7.5-5c3,0.8,6,2,8.1,4.1c3.8,3.9,7.6,2.8,12,0.7c-3.8-4.2-8-7.7-12.1-11.2
	c-1.2-1-2.3-0.5-3.5-0.2c-3.1,0.9-6.2,1.6-9.4,1.4c-5.4-0.2-7.5-2.6-6.8-8c0.2-1.2-0.5-1.7-1.1-2.4c-2.7-3.2-2.9-5.6-0.8-8.5
	c2-2.7,4.4-4.2,7.7-2.2c1.1,0.7,1.9,0.2,2.9-0.5c3.7-2.5,6.9-1.5,8.6,2.6c1.7,4,2.5,8.2,2.4,12.5c-0.1,1.4-0.2,2.7,1.1,3.8
	c4,3.4,7.8,6.9,11.8,10.4c2.3-5.8,2.3-5.9-2.1-9.4c-2.3-1.8-4.5-3.7-6.1-6.2c-2.2-3.5-1.4-7,2.2-9c1.3-0.7,1.7-1.5,1.8-2.9
	c0.2-3.5,2-5.6,5.5-6.1c4.4-0.6,6,0.3,7.6,4.4c0.5,1.3,1,1.9,2.5,2.2c4.2,1,5.7,4.3,3.7,8.2c-2.2,4.4-5.1,8.2-9.1,11.1
	c-4.1,3-4.5,9.1-0.6,12.1c3.7,2.9,7.1,6.1,11.2,8.5l0,0c-0.4-2.3-2.5-5.5,0.4-6.6c2.6-1,4.3,2.1,5.8,4.3c0.3,0.4,0.5,0.9,0.3,0.5
	c0-6.4,0.3-13.7-0.1-20.9c-0.6-12.8-1.5-25.6-1.5-38.4c0-1.8-0.4-3.2-1.8-4.4c-4.2-3.7-8.3-7.6-12.6-11.3
	c-2.7-2.4-10.1-0.1-11.3,3.4c-1.5,4.4-3.9,8.2-7,11.6c-3.1,3.4-6.7,3.4-9.3-0.3c-1-1.4-2-1.6-3.5-1.5c-3.8,0.2-5.3-2.2-6.1-5.5
	c-0.8-3.2,0.1-5.8,3.1-7.3c1.7-0.8,2.7-1.6,2.9-3.8c0.2-3.2,3.5-5,7.2-4.3c3.2,0.6,6.2,1.8,8.6,3.9c3.7,3.3,7.2,2.3,11.3,0.5
	c-2.9-3.9-6.7-6.4-10.1-9.4c-1.1-0.9-2.1-0.3-3.1,0c-3.5,1.1-7,1.6-10.6,1.5C10,99,8,96.5,9,91.4c0.3-1.3-0.1-2.1-0.9-2.9
	c-2.3-2.5-1.7-5,0.1-7.5c1.8-2.5,4.3-3.6,7.2-2.2c1.7,0.8,3,1,4.8-0.2c2.6-1.7,5.7-0.2,7.3,3.2c1.6,3.3,2.3,6.8,2.1,10.4
	c-0.2,2.5,0.7,4.2,2.6,5.6c2.7,2.1,5.2,4.4,7.9,6.6c1.2-1.6,1-3.2,1.3-4.6c0.5-2.5,0-4.4-2.7-5.7c-3.2-1.6-6-3.9-8.1-6.9
	c-2.6-3.7-2-7,1.8-9.2c1.5-0.8,1.2-1.8,1.3-3c0.2-3.9,2.2-6,6.1-6.6c3.5-0.5,5.6,0.6,6.9,4.2c0.5,1.4,1.1,1.8,2.5,2.1
	c4.5,0.8,6.1,4,4.2,8.2c-1.7,3.8-4.1,7.2-7,10.1c-4.8,4.7-4.6,13.2,0.4,17.5C47.9,111.7,49.1,112.4,50.1,113.3
	c0.1-0.1,0.2,0.1,0.2,0.1S50.1,113.3,50.1,113.3z M55.1,40.4L55.1,40.4c-0.3-2.2-1.1-4-3.5-5.9C52,37.6,53.1,39.3,55.1,40.4z
	 M57.6,188.6c0.1,0,0.1,0.1,0.2,0.1C57.7,188.7,57.6,188.7,57.6,188.6c0-2.6-1.1-4.5-4.1-6C54.1,185.6,55,187.7,57.6,188.6z
	 M40.3,164.7c4.5-2.3,7.1-6.4,9.2-10.7c1.5-3-0.6-5.6-3.7-4.6c-3,1-2.4-0.6-2.6-2.3c-0.3-3.9-1.6-5-5.2-4.6
	c-3.2,0.3-4.7,2.2-3.9,5.8c0.5,2.1-0.3,2.6-2,3.1c-3.7,1-4.4,3-2.4,6.2c1.3,2,3.1,3.5,4.8,5.1c0.7,0.6,1.5,1.5,2.5,1.2
	c1.3-0.4,1-1.8,1.2-2.8c0.5-2.4-0.6-5,1.3-7.9c1.7,4.2,0.2,7.9,0.7,11.4c-0.1,0.1-0.1,0.1-0.2,0.2c0,0,0.1,0.1,0.1,0.1
	C40.1,164.8,40.2,164.8,40.3,164.7z M28.2,109.3c-2.9-2.6-5.9-4-9.1-4.8c-3.3-0.8-5.5,0.8-5,3.9c0.4,2.5-0.1,3.3-2.7,3.6
	c-3,0.3-4.2,2.5-3.5,5.3c0.8,3.5,2.3,4.5,5.6,3.7c1.1-0.3,2.1-0.6,3.2-0.9c0.2,0.5,0.5,0.9,0.5,1.3c0,1.7-0.1,3.5,2,4
	c1.8,0.5,3.3-0.3,4.4-1.6c2.9-3.5,5.4-7.2,6.5-11.7c-3.3-1.4-6.7,1.8-10.3-0.6C22.5,110,25.2,110.4,28.2,109.3z M44,92
	c3.3-2.1,7.3-7.6,8-10.7c0.6-2.9-1-4.8-3.8-4.1c-2.1,0.6-2.9,0.6-3.2-1.8c-0.5-4-2-5.3-5.1-4.8c-3.3,0.6-4.6,2.6-3.7,6.3
	c0.4,1.7,0.3,2.4-1.6,2.9c-3.9,1-4.6,3.3-2.3,6.6c1.7,2.4,4.2,4,6.5,5.7c2,1.4,2.9,1.1,2.9-1.5c0-2.1-0.6-4.4,0.8-7.4
	C44.3,86.5,43.2,89.4,44,92z M84,125.9c1.3,3.3-0.6,6.2,0.7,9c3.3-1.6,5.8-3.9,7.5-6.9c1.9-3.1,1-5.1-2.7-6c-1.9-0.5-2.4-1-2-3
	c0.8-3.7-1.2-5.7-4.9-5.7c-3.3,0-4.1,2-4.3,4.8c-0.1,1,0.9,3.3-1.8,2.4c-1.5-0.5-3-0.9-4.1,0.6c-1.2,1.7-0.8,3.4,0.1,5
	c1.7,3,3.9,5.6,6.4,8.1c0.6,0.6,1.3,1.3,2.1,1c1.1-0.4,0.9-1.5,1-2.5C82.5,130.6,82,128.4,84,125.9z M104.8,156.5
	c-2.5,0.8-4.6-0.3-6.8-0.6c-1.2-0.2-2.4-0.1-1.5,1.7c1.7,3.6,3.9,7,7.1,9.5c2.6,1.9,5.7,0.8,5.4-1.9c-0.3-3.2,0.8-2.7,2.9-2.1
	c3.4,0.9,5.3-0.2,5.9-3.2c0.7-3.3-0.6-5.5-4.1-5.7c-2.6-0.2-2.9-1.2-2.5-3.4c0.5-2.7-1.2-4.2-3.5-3.9c-4.4,0.5-8,2.8-11.1,6.2
	C99.5,154.8,102.7,154.2,104.8,156.5z M86.9,81.5c2,4.8,4.7,8.5,8.5,11.3c2.3,1.7,5.8,0.6,5.4-1.6c-0.7-3.9,1.3-3.1,3.5-2.9
	c3.6,0.3,4.9-0.8,5.1-4.2c0.2-3.1-1.3-4.8-4.3-4.7c-2.4,0-3-0.8-3-3.1c0.1-3.4-1.9-4.7-5.1-3.6c-3.6,1.2-6.6,3.2-9.2,6.2
	c3.3,2.4,7.7,1.3,11.2,4.3C94.6,83.9,91.1,81.8,86.9,81.5z M25.2,181.7c-3.9-0.4-7.5,1.9-11.6,0.2c3.4-2.3,7.1-1,10.3-3.1
	c-2.9-2.4-5.7-4.3-9.1-5.2c-3.5-0.9-5.3,0.4-5.1,4c0.1,2.1-0.2,3-2.5,3c-2.6,0-4.1,1.4-4.2,4.1c-0.2,4.2,2,6,6.3,4.8
	c2-0.5,2.9-0.9,2.6,2c-0.3,2.8,2.8,4.1,5.3,2.2C21,190.7,23.6,186.7,25.2,181.7z M84.9,23.2c0.3,0.3,0.5,0.6,0.8,0.9
	c-1.4,2.3-4,3.4-6,5.1c-0.8,0.6-2.1,1.1-0.6,2.4c2.4,2.1,9.3,3,12.2,1.4c1.3-0.8,3.1-2,2.1-3.4c-1.9-2.6,0-3.5,1.3-5
	c1.9-2.2,2.2-4.8,0.2-7.1c-1.7-2-3.9-3.4-6.5-1.9c-2,1.2-3.3,1.9-5.2-0.2c-1.2-1.2-2.9-0.1-3.8,1.3c-2,2.9-3,6.2-3,9.7
	c0,1.9,0.6,2.6,2.4,1.3C80.7,26.2,82.8,24.7,84.9,23.2z M76.4,67.2c3.5-2.2,6.1-4.8,7.8-8.2c1.4-2.8,0.5-5.1-2.2-5.3
	c-2.8-0.2-3.5-1.2-3.1-3.9c0.5-3.1-1.5-4.6-4.3-4.9c-3-0.3-4.5,1.2-4.8,4.3c-0.1,1.1,0.3,2.2-0.3,3.2c-5.2-0.5-7.2,1.1-5.7,4.6
	c1.9,4.4,5.5,7.5,9.7,10.8c0.4-4.6-1.5-8.5,0.6-12.1C75.8,59.4,74.8,63.3,76.4,67.2z M27.3,22.6c2.5,0,3.5,1.6,4.8,2.4
	c1.8,1,3.5,4.2,5.3,3c2-1.3,1-4.6,0.8-7c-0.2-2.1-1-4-2.4-5.6c-0.6-0.6-1.5-1.6-2-1.1c-2.9,3-5.2,1-7.6-0.6
	c-0.7-0.5-1.6-0.1-2.4,0.1c-4.4,1.4-5.8,6-2.7,9.5c1.1,1.3,2.5,2.1,0.5,3.9c-1.8,1.7-0.1,3,1.2,3.9c3.4,2.6,8.5,2.3,12.9-0.6
	C33.5,27.6,29.4,26.6,27.3,22.6z M98.8,50.2c-1.7-3.6-2.3-4.1-4-3.8c-2.3,0.4-3.1,2.3-3.5,4.2c-0.7,3.6-2,7.1-0.7,10.9
	c2.6-0.4,3.2-3.6,6.1-3.7c0.2,3-3.5,3.5-3.8,6c4.6,1.4,7.9,1.6,10.6,0.7c3.2-1,4.2-2.9,2.4-5.4c-1.5-2-1.1-2.9,0.9-4.1
	c2.4-1.4,2.7-3.7,1-6c-1.9-2.7-3.7-3-6.3-1.1C100.7,48.4,99.9,49.2,98.8,50.2z M20.8,160c0.5-4.1-0.4-7.5-1.6-10.9
	c-0.6-1.7-1.6-3.4-3.5-3.7c-2.4-0.3-2.6,2-3.4,3.5c-0.1,0.2-0.4,0.3-0.8,0.5c-0.4-0.3-0.8-0.7-1.3-1c-3.4-2.6-5-2.6-7,0
	c-2.1,2.7-1.7,4.5,2,6.9c1.9,1.2,1.1,2.1,0.3,3.3c-1.8,2.5-0.7,4.3,1.8,5.1c4,1.3,7.9,0.5,11.8-1.1c-1.6-3.1-5.3-3.8-5.7-7.7
	C16.5,155.8,17.7,158.7,20.8,160z M113.5,129.8c0.4-0.2,1-0.3,1.4-0.6c3.5-2.9,3.8-4.3,1.9-6.7c-2.2-2.7-3.6-2.8-7.1,0.3
	c-1.4,1.2-2,0.7-3-0.2c-2.8-2.4-5.4-1.7-6.4,1.8c-0.8,2.8-1.8,5.7-0.7,8.9c2.7-1.1,3.8-4.1,7.2-4.8c-1.3,3.6-4.6,4.9-6.2,7.7
	c3.7,1.4,7.3,1.3,10.8,1.2c2.1-0.1,4.3-0.2,5.3-2.5C117.8,132.4,114.9,132,113.5,129.8z M27.4,92.6c0.6-3.7-0.3-6.7-1.5-9.6
	c-1.4-3.3-3.6-3.7-6.1-1.2c-0.9,0.9-1.5,1.7-3,0.5c-3.4-2.7-5-2.6-6.9-0.2c-2.4,3.1-0.7,5,1.9,6.7c1.2,0.8,1.3,1.3,0.2,2.5
	c-2.4,2.7-1.7,4.8,1.8,5.4c4.1,0.7,8,0.1,11.9-1.5c-0.8-2.8-4.2-3.7-3.9-6.9C24.4,89.1,24.9,91.8,27.4,92.6z M53.2,8.7
	c-4.5-0.4-6.4,0.9-5.2,3.9c1.7,4.2,4.6,7.5,8.8,9.9c0.8-2.1,0.4-3.8,0.5-5.4c0.1-1.6-1.1-3.4,0.6-4.8c1.1,1.2,0.7,2.6,1,3.7
	c0.5,1.8-0.7,4.7,1.1,5.2c2.1,0.6,3.5-2.2,5-3.7c0.7-0.7,1.2-1.5,1.6-2.4c1.5-3,0.9-4.6-2.4-5.2c-1.9-0.4-2.4-0.9-2.1-3
	c0.5-3-1.2-4.8-4-5c-2.9-0.2-4.2,1.1-4.5,4.5C53.5,7.1,53.8,8,53.2,8.7z M63.1,78c-2.8,2.1-3.2,4.4-3.4,7.6
	C62,83.3,63.2,81.4,63.1,78z M52.5,110.9c-0.1,2.3,0.6,4.3,3.1,5.7C55.8,113.9,54.7,112.2,52.5,110.9z M62.9,158.9
	c2-1.8,3.3-3.4,2.5-6.2C63.3,154.2,62.5,156,62.9,158.9z M59.6,39.6c2.3-2.1,4.2-3.4,3.9-6.5C60.9,34.5,60.2,36.5,59.6,39.6z"/>
</svg>
