<?xml version="1.0" encoding="utf-8"?>
<!-- Generator: Adobe Illustrator 25.3.0, SVG Export Plug-In . SVG Version: 6.00 Build 0)  -->
<svg version="1.1" id="Layer_1" xmlns="http://www.w3.org/2000/svg" xmlns:xlink="http://www.w3.org/1999/xlink" x="0px" y="0px"
	 viewBox="0 0 94.8 223.2" style="enable-background:new 0 0 94.8 223.2;" xml:space="preserve">
<path d="M54.5,223.1c0-8.6-0.1-17.3,0.1-25.9c0.1-3.9-0.5-6-5.1-7.2c-7.9-2.1-11.8-8.9-13.6-16.4c-1.1-4.7,1.5-6.5,6-4.4
	c4,1.9,7.7,4.3,12.2,6.8c0-8.6-0.1-16.5,0-24.3c0-3.7-2.5-3.5-5-3.8c-17.9-2.2-33.8-31.2-33.6-45.2c0.1-5.9,3.8-3.4,6.1-2.1
	c10.1,5.6,19.3,12.4,26.5,21.6c1.2,1.5,2.3,3,4.9,4.3c-0.4-5.3-0.7-10.6-1.1-15.8c-0.5-5.5-1.6-10.9-1.6-16.4
	c0-9.8-0.4-19.2-10.4-25.5c-1.1,2.2-2.6,4.8-4,7.5c-2.1,3.8-5.1,6.1-9.6,5.8c-5.2-0.4-4.7-4.7-5.3-8.4c-5.2,3.1-10.4,7.8-15.7,2.5
	c-4.6-4.6,1.2-8.5,2.9-12.6c-2.9-1.5-7.2-1-7.7-5.7c-0.6-6.5,4.3-9,8.7-11.7c-0.2-2-1.9-2.1-3.1-2.7c-4.8-2.5-7-6.5-5.5-11.7
	c1.6-5.4,6.4-5.9,11-5.5c3.9,0.4,7.7,1.6,12.3,2.6c-2.5-6.7-9.6-12.7-1.9-19.4c4.2-3.6,7.8-0.8,11.6,2.7C33.6,6.4,33.4,1.3,39,0.2
	c6.4-1.3,7.2,4.9,10,8.7c4-2.5,6.2-9,12.1-6.8c5.3,2,4,8,5.5,12.7c2.6-1.5,5-3.2,7.7-4.4c3.9-1.8,8-2.2,10.6,2
	c2.5,4.2,1.7,8.2-2.3,11.2c-2.9,2.2-6,4.1-9.6,6.4c12.8,0.9,17.5,3.5,17.8,9.2c0.2,6.3-5.4,9.4-19.7,10.8c0.5,3.1,2.1,6,1.7,9.3
	c-0.5,4.2-2.4,7-7,7.3c-2.1,0.1-5.2-2.3-6.2,0.2c-1.7,4.3-5.9,7.4-5.3,12.8c1.3,11.6,2.1,23.3,3.1,35.5c2.5-1.6,2.4-4,2.9-5.9
	C64.4,94.9,73.8,85.1,86.4,78c2.1-1.2,4.7-2.9,7-1.4c2.8,1.8,0.6,4.5,0,6.8c-4.7,18.8-14.8,34.9-27.4,49.2c-6.5,7.4-8,14.7-6,24.1
	c2.2-2.9,4-5.8,6.3-8.2c4.1-4.4,9.1-7.9,15.1-9.3c3.8-0.9,8.2-1.7,10.8,2.5c2.6,4.1,1.2,8.1-1.3,11.9c-1.7,2.5-4.1,4.3-6.7,5.9
	c-4.5,2.7-9,5.3-13.5,8c-7.5,4.5-11,10.9-11,19.8c0.1,9.7-0.5,19.4-0.9,29.1c-0.1,2.4,0.2,5-1.8,6.9
	C56.3,223.2,55.4,223.1,54.5,223.1z M63.9,166.9c4.5-5.2,11.1-7.2,16.6-10.9c2.9-1.9,6.2-3.5,7.6-6.8c1-2.4,2-5.5-2.6-5.9
	c-9.9-0.9-23,13.4-21.5,23.5l-0.3-0.2L63.9,166.9z M60.5,132.2c12.5-16.4,24.3-31.5,29.2-51.5C68.9,91.8,63.2,110.3,60.5,132.2z
	 M21.1,105.5c2.6,18.5,18.3,37,31.9,37.8C49,125.2,36,115.2,21.1,105.5z M38.1,52.3c6.3-0.1,15.3-6.4,18.1-12.6
	c0.8-1.8,1.7-3.7,0.5-5.6c-1.5-2.2-3.9-1.9-6.1-1.5c-7.8,1.6-13.4,6.2-16.9,13.2C31.7,50.2,33.2,52.6,38.1,52.3z M10.1,30.1
	c-2.2,0.2-4.6,0.2-5.2,3c-0.6,2.6,1,4.3,3.1,5.4c6.6,3.3,14,2.9,21.1,3.9c1.8,0.3,3-1.6,3.8-3.1c0.8-1.5-0.1-2.4-1.4-2.8
	C24.4,34.3,17.6,31.1,10.1,30.1z M63.1,30.6c6.2-3.7,13.4-6.6,19-12c1.1-1.1,0.7-2.9-0.2-4.2c-1.2-1.6-3-2-4.7-1.3
	c-7.1,2.8-12.7,7.6-16.7,14.1C59.3,29,60.3,30.4,63.1,30.6z M73.3,35.3c0,0.1,0,0.3,0,0.4c-2.5,0-4.9,0-7.4,0c-1.7,0-3.5,0-3.9,2.4
	c-0.4,2.2,1.1,3,2.5,4c4.3,3.3,9.3,3,14.2,2.4c3.1-0.4,7.1-1.1,7.1-5c0-4.5-4.2-3.9-7.3-4.2C76.7,35.2,75,35.3,73.3,35.3z
	 M59.4,45.1c-2.5,1.1-5.9,3.4-5.7,5.7c0.4,5.1,4.9,8.2,8.9,10.9c2,1.3,4.2,1.4,5.8-1c0.1-0.2,0.2-0.4,0.3-0.7
	C70.1,56.3,63.5,45.4,59.4,45.1z M47.1,23.2c-0.3-6.1-0.7-11.8-3.8-16.9c-0.8-1.3-1.8-2.8-3.4-2.4c-1.6,0.4-1.8,2.2-2,3.7
	c-0.5,5.8,0.1,11.5,2.8,16.7c1.1,2,1.2,5.7,4.5,4.9C48.6,28.5,46.8,25.2,47.1,23.2z M51.2,21c0.6,2-1.7,5.4,1.6,6.4
	c3.2,0.9,4.4-2.4,6-4.5c3-4.1,3.6-8.6,3-13.5c-0.5-4.6-2.8-4.9-5.9-2.2C51.8,10.8,51.1,15.7,51.2,21z M38,34.6
	c-0.6-9-4.1-15-8.8-20.5c-1.1-1.3-2.4-2.8-4.3-1.7c-1.7,1-1.7,2.9-1.2,4.6C25.6,24.6,30,30.1,38,34.6z M26.2,73.2
	c-0.1,1.4-0.7,3.1,1.2,3.8c1.7,0.6,2.9-0.5,3.8-1.6c3.3-3.8,5.1-8.4,7-13c0.7-1.8,1.8-3.9-0.9-5c-2-0.8-3.9-0.6-5.2,1.5
	C29.2,63.3,27,68,26.2,73.2z M43.4,60.3c0.4,1.7,0.5,3.5,1.3,5c1.5,2.8,2.1,7.4,7.1,5.6c3.6-1.3,4.7-7.2,2.4-10.9
	c-0.6-1.1-1.5-2-2.3-2.9c-1.2-1.4-1.9-3.8-4.6-2.4C44.9,55.7,43,57.2,43.4,60.3z M9.5,57.6c6-0.6,11.4-3,17-4.9
	c0.7-0.2,1.4-1.5,1.5-2.3c0.1-1.4-1-2.1-2.4-2.2c-6.5-0.5-12.9-0.4-18.1,4.4c-1.1,1-2.6,2-1.9,3.6C6.3,57.8,8.1,57.5,9.5,57.6z
	 M27.9,57.4c-7.6,1.9-13.2,5.3-17.5,10.7c-1.1,1.3-2.8,3-1.7,4.5c1.3,1.8,3.6,1.2,5.5,0.4C21,70.2,24.8,64.6,27.9,57.4z M40.6,173.5
	c1.6,5.7,4.4,8.9,8,11.5c1.4,1,3.4,3.1,5.1,0.9c1.2-1.5-0.4-3.3-1.5-4.5C49.4,178,45.6,175.9,40.6,173.5z"/>
</svg>
