<?xml version="1.0" encoding="utf-8"?>
<!-- Generator: Adobe Illustrator 25.3.0, SVG Export Plug-In . SVG Version: 6.00 Build 0)  -->
<svg version="1.1" id="Layer_1" xmlns="http://www.w3.org/2000/svg" xmlns:xlink="http://www.w3.org/1999/xlink" x="0px" y="0px"
	 viewBox="0 0 83.2 228.1" style="enable-background:new 0 0 83.2 228.1;" xml:space="preserve">
<path d="M18.7,17.6c-1.3-2.5-2.9-4.9-3.9-7.6C14,8.1,14.3,6,16.1,4.6c1.6-1.2,3.1-0.1,4.5,0.8c5.1,3.2,9.9,6.7,12.4,13.9
	c1.8-4.7,2.6-8.7,4.7-12.1c1.9-3,4-5.6,7.5-6.6c1.6-0.4,3.3-1.2,4.6,0.2c1.4,1.5,0.3,3-0.5,4.5C48,8,46,10.4,45.1,14
	c2.3-1.2,4-2.3,5.9-3.2c3.3-1.6,6.6-1.9,9.9-0.2c0.7,0.4,1.6,1.2,1.7,1.9c0.2,0.9-0.8,1.4-1.7,1.7C52,18,46.9,25.7,42.6,33.6
	c-2.3,4.3-2.5,10-1.9,14.8c2.4,20.9,0.7,41.6-1.2,62.3c-0.1,1.1,0,2.1,0.6,3.5c1.6-3.8,3.2-7.7,4.8-11.5c2.6-5.8,5.5-11.5,9.1-16.6
	c1.7-2.5,2-4.7,1-7.6c-2.7-8.1-1.1-15.7,3.5-22.8c0.9-1.5,1.9-3.4,4.2-2.4c2,0.8,2.4,2.7,2.3,4.5c-0.2,2.8-0.6,5.6-1.1,9.7
	c2.5-3.4,4.4-5.7,7.1-7.2c2-1.1,4.1-2.1,6-0.2c1.8,1.8,0.5,3.7-0.5,5.4c-1.1,1.8-2.3,3.6-3.4,5.3c1.1,1.1,1.9,0.5,2.7,0.2
	c5.5-1.6,5.5-1.6,4.7,3.9c-0.1,0.5-0.1,1.2,0.2,1.4c5.8,5,0.2,5.7-2.7,7c-5,2.1-10.2,2.5-15.3,0.4c-2.3-1-3.7-0.6-4.9,1.5
	c-4.7,7.5-8.4,15.4-11.8,24c17.8-8.6,23.5-9.5,30.7-4.5c-4.6,3.6-9.1,7.1-13.7,10.5c-4.9,3.6-10.5,4.9-16.5,4.3
	c-3.7-0.4-5,1.2-5.9,4.4c-3.1,11.1-4.3,22.4-4.6,33.8c-0.1,4.2-0.7,8.3-1.2,13.8c3.5-4.8,6.2-8.5,8.9-12.2c1.1-1.5,0-2.7-0.5-4
	c-1.2-3-0.7-6.1,0.2-9c0.6-2,1.5-3.9,4-3.6c2.1,0.3,2.8,2,3.2,3.9c0.2,1.2-0.2,2.6,0.8,3.7c2.4-0.5,2.6-2.7,3.4-4.4
	c0.9-2,1.6-4,2.8-5.9c1.9-3.1,4.6-3.4,7.5-1.5c2.9,1.8,2.8,4.4,1.4,7.1c-1.4,2.5-3.4,4.6-6.3,4.6c-3.6,0-5.6,1.8-7.7,4.9
	c2.7,0.8,5.6,0.1,7.7,2c1.5,1.3,3.1,2.7,2.5,5c-0.6,2.2-2.4,3-4.5,3.2c-2.9,0.2-5.9,0.2-8.5-1.2c-3.1-1.6-4.6-0.7-6.6,1.9
	c-7.1,8.9-10.8,18.6-9.2,30.1c0.9,6.4,1.3,13,1.9,19.4c0.4,4,1.2,8.1-0.1,12.7c-2.4-1.4-2.4-3.5-2.8-5.3c-4.1-19-3.9-38.1-1.7-57.3
	c0.2-2,0.3-4,0.6-5.9c0.5-3.6-0.8-6.1-4-8.1c-5.6-3.3-10.7-7.4-15.5-11.9c-6.2-5.8-9.6-13.1-11.6-21.1c-0.3-1-0.8-2.2,0.1-3.1
	c1.2-1.1,2.3,0,3.4,0.5c6.4,3,12.7,6,18.5,10.5c-4.2-11.2-5.3-23.8-16.4-31.4c-3-2.1-4.8-5.5-5.6-9.1c-0.8-3.3-0.8-6.7,3.4-8
	c3.5-1.1,7.8,1.9,8.4,5.8c0.2,1.6,0.3,3.4-0.2,4.8c-2.2,5.7,1.3,9,5.3,13.2c0.7-6,2.1-11,5.1-15.3c0.9-1.3,1.9-3.1,3.7-2.7
	c1.9,0.4,1.1,2.4,1.2,3.7c0.7,8.8,2.1,17.8-4.1,25.5c-0.8,1-0.5,2.1-0.2,3.1c3,9,6,18.1,9.8,27.1c0.5-5.9,1-11.8,1.4-17.7
	c1.4-23.3,5-46.5,3.8-69.9c-0.3-5.3-0.2-10.6-5.9-13.6c-1.3-0.7-2.4-1.6-3.9-1.6c-7.5-0.2-14.4-3.5-21.9-3.5c-0.9,0-1.9,0.1-2.4-0.8
	c-0.6-1.3,0.6-2,1.3-2.6c3.2-2.7,7.1-4,12.3-4.7c-3.8-2.7-7.1-4.4-9.1-7.4c-1.1-1.6-2.8-3.3-1.3-5.4c1.4-1.9,3.6-1,5.6-0.8
	c2.1,0.3,3.7,2.4,6,2c0.1,0.2,0.2,0.4,0.3,0.6c0-0.1,0.1-0.3,0-0.3C19,17.7,18.8,17.6,18.7,17.6z M27.9,148.5l0.2-0.2L27.9,148.5
	c0.2-0.7,0.6-1.4-0.6-1.6c-3.3-6.5-9.2-10.9-14-16c-2.4-2.6-4.2-6.1-8-7.3l0.1-0.4l-0.1,0.3c4,11,12.4,17.8,22.1,23.5
	C27.6,147.4,27.8,148,27.9,148.5z M64.5,110.4c-5.6,0-9.8,3.4-14.6,5.5c5.9,0.6,10.4-2.3,14.7-5.6l0-0.3L64.5,110.4z M64.5,74.2
	c4.6-2.8,8.1-6.4,9.7-11.7c-5.5,2.1-8.4,6.2-9.5,11.8c-0.2,0-0.4,0.1-0.7,0.1c0.1,0,0.2,0.1,0.3,0.1C64.3,74.4,64.4,74.3,64.5,74.2z
	 M9.3,123.6c-0.1-0.4,1.2-0.5,0.2-1.1C9.4,122.9,9.4,123.2,9.3,123.6c6.6,4.7,11.3,11.5,17.5,16.7c-1.6-4.3-3.7-8.3-7.2-11.2
	C16.6,126.6,14,123,9.3,123.6z M40.4,29.5c4.9-5.4,8.7-11.8,14.3-16.6C46.8,15.8,40.6,20.1,40.4,29.5c-1,0.1-0.9,0.9-0.9,1.6
	c0,0.2,0.4,0.3,0.6,0.4C40.2,30.8,40.3,30.2,40.4,29.5z M17.7,8c3,7.7,9.2,12.9,15.2,20C30.5,18.2,26.5,11.3,17.7,8z M32.5,32.9
	C26.6,26.1,19.4,21.3,10.7,19C16.7,25.6,24.7,29.1,32.5,32.9z M58,78.4c2.9-7.8,4.2-16.3,3.2-21.7C57.1,63.7,55.8,70.3,58,78.4z
	 M21.7,109.7c3.3-6.1,3.3-12.7,2.7-19.2C20.2,96.4,20,102.9,21.7,109.7z M37.3,25.6c2.3-7.1,5.1-13.9,7.5-20.8
	C38.5,10.2,36.7,17.5,37.3,25.6z M12.8,34c5.9,0.2,11.3,4.7,18.9,2.5C24.7,33.5,19,31.7,12.8,34z M67.3,104.9
	c-9,0.8-16.7,4.4-22.9,10.9C51.6,111.1,59.7,108.5,67.3,104.9z M7.8,92.5c1.3-2.9,1.4-5.6,1.1-8.1c-0.2-2-1.5-3.5-3.6-3
	c-2.3,0.5-2.3,2.6-1.7,4.4C4.4,87.9,5.5,89.9,7.8,92.5z M47.2,159.5c4.3,2.4,7.8,3.1,11.5,2.2c0.8-0.2,0.5-1.3,0-1.8
	C55.6,157.2,52.2,157.4,47.2,159.5z M62.7,80.6c5.9-1.7,10.4-3.4,14-7C72.1,74.9,66.7,74.7,62.7,80.6z M59.8,147.1
	c2.4-0.4,3.8-1.9,4.3-4.2c0.3-1.5-0.7-2.6-2.1-2.5c-3,0.3-2.9,3.2-3.8,5.2C57.7,146.8,58.8,147.1,59.8,147.1z M46.4,155.6
	c1.5-3.7,2.1-6.5,0.7-9.4C45.7,148.9,45.1,151.6,46.4,155.6z M36.9,37.6c-0.8,0.4-2,0.7-2.2,1.9c-0.2,1.4,0.9,1.8,1.9,2.1
	c1.7,0.4,1.5-1,1.6-2C38.4,38.6,38.3,37.7,36.9,37.6z M77.8,79.4c-2-0.4-3.6,0.3-5.7,2.2C74.8,81.3,76.5,80.8,77.8,79.4z"/>
</svg>
