<?xml version="1.0" encoding="utf-8"?>
<!-- Generator: Adobe Illustrator 25.3.0, SVG Export Plug-In . SVG Version: 6.00 Build 0)  -->
<svg version="1.1" id="Layer_1" xmlns="http://www.w3.org/2000/svg" xmlns:xlink="http://www.w3.org/1999/xlink" x="0px" y="0px"
	 viewBox="0 0 58.5 110.1" style="enable-background:new 0 0 58.5 110.1;" xml:space="preserve">
<path d="M20.7,13.8c1.6-4.8,2.9-9.1,6.5-12c4.1-3.3,8.3-2,9.5,3.1c0.8,3.7,0.5,7.8-2.2,10.3c-7.9,7.3-9.4,15.4-4.1,25
	c2.6-1.3,3.5-4,3.5-7.1c0-3.5-0.2-6.9,0-10.4c0.3-4.3,2.5-7.6,6.4-9.7c3.2-1.8,6.4-1.6,9,1c2.7,2.6,2.8,5.9,1.2,9
	c-1.1,2.2-2.5,4.5-4.4,6c-6,4.9-9,11.8-13.6,17.8c-1.3,1.8-1.1,3.7-0.7,5.5c2.3,11.5,2.7,23.3,3.1,35c0,0.5,0.3,1,0.5,1.8
	c5-3.5,7.1-7.8,6.6-13.8c-0.5-5.9-0.7-12,4.2-16.7c2.4-2.3,4.9-3.7,8.2-2.2c3.5,1.6,4.3,4.6,3.8,8.2c-0.4,2.5-1.4,4.8-2.9,6.8
	c-5.8,7.9-11.1,16.2-18,23.1c-1.9,1.9-2.7,4-2.6,6.7c0.1,2.3-0.1,4.6-0.3,6.9c-0.1,1-0.7,1.8-1.8,1.9c-1.4,0.1-2.1-0.8-2.2-2.1
	c-0.1-1.3-0.1-2.7-0.1-4c0-9-0.2-18.1-0.1-27.1c0-3.3-1.1-5.8-3.7-8C21,64.3,16,59,9.2,56c-3.5-1.6-6.5-4.2-8.1-7.9
	c-1.6-3.7-1.6-7.1,1.8-9.9c3.4-2.9,6.6-2.1,10,0.2c4.2,2.9,5.2,7.5,6.1,12c1.2,6.1,4,11,10.2,14.6c-1-12.3-3-23.7-6.7-34.8
	c-0.5-1.4-1.8-1.9-2.9-2.6c-3.8-2.3-7.5-4.7-11.2-7c-1.8-1.1-3.5-2.3-4.7-4.2C1,12.3,1.1,7,3.8,4.6C6.4,2.3,10.6,3.2,14.5,7
	C16.6,9,18.4,11.2,20.7,13.8z M14.9,54.2c0.5-5.2-1.5-8.7-4.1-11.8c-1-1.2-2.5-2.7-4.4-1.4c-1.9,1.2-2.1,3-1.3,5
	C6.7,50.5,10.4,52.2,14.9,54.2z M38.1,30.4c3.4-2,5.7-4.2,7.5-6.9c1.4-2.1,2.4-5.2-0.1-6.7c-3-1.8-5,0.9-6.2,3.4
	C37.8,23.1,36.9,26.2,38.1,30.4z M18,21.4c-1.6-5.4-3.7-10-8.6-12.7C6.7,7.2,6.2,8.6,6.2,11c0,2.2,1.4,3.6,2.9,4.7
	C11.9,17.8,15,19.5,18,21.4z M46.9,74.9c3-2.7,5.3-5.1,6.8-8.1c1-1.9,1-3.9-0.8-5.1c-2.2-1.5-3.4,0.4-4.6,1.9
	C45.8,66.9,46.7,70.6,46.9,74.9z M25.2,19.8c3.5-2.8,5.5-5.4,6.8-8.6c0.7-1.8,0.6-3.6-1.3-4.4C29,6,27.7,7.5,27,8.7
	C25.3,11.9,24.7,15.4,25.2,19.8z"/>
</svg>
