<?xml version="1.0" encoding="utf-8"?>
<!-- Generator: Adobe Illustrator 25.3.0, SVG Export Plug-In . SVG Version: 6.00 Build 0)  -->
<svg version="1.1" id="Layer_1" xmlns="http://www.w3.org/2000/svg" xmlns:xlink="http://www.w3.org/1999/xlink" x="0px" y="0px"
	 viewBox="0 0 85.4 228.1" style="enable-background:new 0 0 85.4 228.1;" xml:space="preserve">
<path d="M42.4,132.5c0-18.4,0-36.7,0-55.1c0-4.8-1-7.9-7.3-6.6c-5.3,1.1-10.8,0.5-13.8-5.4c-0.9-1.8-2.6-2.5-4.7-2.4
	c-5.5,0.3-8.4-2.8-10.5-7.5c-1-2.3-2.7-4.3-4.2-6.4c-1.5-2.2-2.9-5.3-0.8-7c4-3.5,2.4-7.4,2.3-11.4C2.9,20.4,8.1,14.4,18.1,13.9
	c2.9-0.1,3.3-1.5,4.1-3.5C25.4,3.2,31-0.5,38.8,0.1c7.1,0.5,14.7-0.3,20.8,4.1c3.8,2.7,6.5,5.5,12.1,5.5c7.5,0,11.8,7.3,10.1,15.2
	c-0.9,4-1.8,7.4,1.8,10.6c1.7,1.5,1.9,4.2,1.8,6.6C85,51.3,75.2,61,65.8,61.4c-0.5,0-0.9-0.1-1.4-0.1C58.2,61,61.1,71.4,54,70.2
	c-8.4-1.5-6.9,5.1-6.9,9.4c-0.3,21.8-0.1,43.6,0.7,65.6c3.8-12.7,9-24.7,14.8-36.5c1-1.9-0.2-3-1.2-4.3c-2-2.6-3-5.7-3.6-9
	c-1.5-7.7,0.1-12.7,4.7-14.5c6.5-2.5,15.8,0.6,18.9,6.3c3.8,6.9,1.5,14.4-7.2,17.1c-6.7,2.1-8.8,6.5-11,11.9
	c-1.7,4.3-3.5,8.5-6,14.4c6-3.1,11-3.9,16-3.2c3.5,0.5,5.1,2.1,3.2,5.7c-5.4,10.1-10.6,20.6-24.2,21.4c-2.4,0.1-3.2,1.5-3.6,3.5
	c-0.8,3.6-1.3,7.3-1.3,11c-0.1,17.2-0.4,34.4-0.6,51.6c0,2.5,0.5,5.2-2.4,7.6c-2.8-7.4-2.6-14.8-2.3-22.1c0.4-8.6,1.1-17-3.6-25.1
	c-3.7-6.3-7.2-11.8-14.4-15.2c-11.9-5.7-15.1-15.5-11.2-28.8c0.8-2.7,1.8-3.4,4.4-2.1c10.5,5,18.2,17.4,17.4,28.8
	c-0.5,6.5,4.4,10.3,7.2,16.9c2.7-21.4-0.8-40.2-8.3-58.4c-0.7-1.6-2.1-2.4-3.5-3.2c-2.2-1.3-4.3-2.8-6.4-4.2
	C9.5,104.7,5.9,94.6,10.3,78c0.8-3.1,2.2-3,4.5-1.8c12.5,6.7,20.5,17.1,20,31.2C34.5,117,38.9,124.3,42.4,132.5z M19.8,86.1l0.1-0.4
	L19.7,86c4.7,5.4,6.5,12.5,10.8,19.2c0.1-4-0.9-6.9-2.3-9.4C26.1,92,25.5,86.8,19.8,86.1z M29.7,111.2c-0.3,0.2-0.5,0.4-0.8,0.6
	C29.2,111.6,29.5,111.5,29.7,111.2c-5.8-8.2-8-18.5-15.2-27.6c-0.3,4.9-0.7,8.6-0.7,12.3C14,103,21.9,110.6,29.7,111.2z M80.8,40.1
	c0.6-3-1.9-4.9-5.1-6.4c-3.3-1.5-4.5,0.5-6.5,2.8c-3.4,3.8-6.1,7.8-8.5,12.3c-2.4,4.4-1.4,7,3.9,7.8C72.1,58,80.4,49.9,80.8,40.1z
	 M24.4,44.8c3.2,6.5,7.7,10.6,14,9.2c7.9-1.7,16.9-2.4,21.2-11.2c0.7-1.4,1.8-3.2,0.4-4.5c-1.8-1.8-3.5,0-4.9,0.9
	C46,44.9,36,45.8,24.4,44.8z M46.4,66c2.9-0.5,6.6,1.5,9.2-0.8c1.7-1.5,3.3-4.3,1.5-6.8c-2.1-3-4.9-4.9-8.9-2.6
	c-6,3.5-12.4,4.2-18.6,1.2c-5.6-2.7-5.5,0.8-5.3,4.2c0.2,3.9,2.9,5.7,6.6,5.6C36,66.6,41.1,66.2,46.4,66z M17.1,58.9
	c0.1,0,1.4,0.1,1.8-0.5c1.7-2.1,4.7-5,3.8-7c-2.1-4.3-2.1-9.4-5.4-13.1c-0.2-0.2-0.9-0.2-1.3-0.1c-3.6,1.3-8.2,0.9-10.6,4.5
	c-2.5,3.7,1.7,5.7,3.1,8.4c0.7,1.5,1.5,2.9,2.3,4.3C11.8,57.8,13.7,58.9,17.1,58.9z M32.8,25c-0.7-1.6,2.4-4.2-0.9-5.1
	c-2.6-0.7-5.7-1.2-7.8,1.1c-3,3.3-5.8,7.4-3.9,11.8C22,37.3,25.4,41,31,41.1c3.2,0.1,5.6,0,3.7-4.5C33.2,33,32.5,29.1,32.8,25z
	 M53.6,12.8c-2-0.1-4,0.3-4.9,2c-1.2,2.3,1.5,2.4,2.6,3.2c3.9,2.8,5.4,6.7,5.5,11.4c0,1.9-0.7,4.7,2.6,4.4c2.1-0.2,3.8,2.6,5.8,0.9
	c2.2-1.9,0.8-4.3,0-6.4c-1.4-3.9-2-8.1-4.7-11.5C58.6,14.6,56.7,12.7,53.6,12.8z M63.4,13.8c2.7,4.1,4.6,8.5,5.8,13.1
	c0.7,2.7,2.8,2.7,4.9,2.8c2.7,0.1,3.5-1.7,3.9-3.9C79.7,16.6,73.5,11.1,63.4,13.8z M7.4,29.9c0.7,2-1,5.7,3.4,5.9
	c3.8,0.2,5.9-1.5,5.6-5.8c-0.2-3,1.1-5.9,2.8-8.4c2.6-3.9,0.2-4.3-2.8-4.2C11.4,17.5,7.5,23,7.4,29.9z M59.8,9.2
	c-5.4-6-12.9-4.7-19.8-5.6C35,2.9,30.9,5.1,27.9,9c-1.4,1.8-4.7,3.8-2,6.2c2.4,2.1,4-1.1,5.4-2.7c3.8-4.5,8.8-6.8,14.2-4.9
	C50.2,9.3,54.9,8.5,59.8,9.2z M71.7,134c-7.7,3.8-14,9.2-18.5,16.4C62.9,148.9,67.5,141.7,71.7,134z M80,94.3
	c0.1-1.3-0.4-2.6-1.6-2.6c-2.5,0-5.3,0.3-7.1,2.1c-2,1.9-2.5,4.9-2.8,7.6c0,0.3,0.8,1,1.4,1.2C72.5,103.2,79.8,97.2,80,94.3z
	 M64.4,101.1c1.2-3.1,2.1-5.7,3.2-8.1c1.5-3.3-1.3-5.1-2.3-7.4c-0.4-0.9-1.5-1.6-2.2-1c-1.9,1.6-2,4-2.1,6.3
	C60.7,94.3,61.1,97.6,64.4,101.1z M16.8,142.1c-2.2,9.9,0.1,16.4,9.6,19.8C23.2,155.3,20.2,149.2,16.8,142.1z M54.2,143
	c4.3-5.2,9.2-8.4,14.6-12.3C57.9,132.1,54.9,134.6,54.2,143z M46.6,11.3c-4.5-1-8.2-0.9-11.3,2.3c-0.6,0.6-1.2,1.5-1.2,2.3
	c0,1.1,1.3,1.7,2,1.4C39.7,15.9,44.7,17.3,46.6,11.3z M45.5,38.6c8-1.8,8.4-2.6,6.5-11.8C48.9,30.1,46.7,33.6,45.5,38.6z M50.9,22.1
	c-5.3-3.3-9.3-3.1-13.1-0.1c-1,0.8-1.2,1.9-0.5,3.1c0.6,0.9,1.7,1,2.4,0.3C42.3,22.4,46.1,22.7,50.9,22.1z M28.9,158.3
	c-0.1-7.3-1.2-9.4-7.5-14C24.3,149.6,26.6,154,28.9,158.3z M40.4,39.8c4-8,4-8-3.4-8C37.7,34.6,38.1,37.6,40.4,39.8z M68.8,84.5
	c1.5,2.3,2.2,5.4,6,4.1c1-0.4,2.4-0.8,1.5-2.3C74.6,83.5,72,83.5,68.8,84.5z M44.8,28.5c0.7-0.5,1.9-0.3,1.9-1.5
	c0-0.6-0.3-1.3-1.2-1.1c-1.1,0.2-2.2,0.4-2.4,1.7C43.1,27.9,44.2,28.2,44.8,28.5z"/>
</svg>
