<?xml version="1.0" encoding="utf-8"?>
<!-- Generator: Adobe Illustrator 25.3.0, SVG Export Plug-In . SVG Version: 6.00 Build 0)  -->
<svg version="1.1" id="Layer_1" xmlns="http://www.w3.org/2000/svg" xmlns:xlink="http://www.w3.org/1999/xlink" x="0px" y="0px"
	 viewBox="0 0 119.1 233.9" style="enable-background:new 0 0 119.1 233.9;" xml:space="preserve">
<path d="M68,83.5c6.8-4.9,12.9-8.5,20.4-8.3c4.1,0.1,5.6,1.3,3.9,5.8c-2.5,6.4-6.8,10.9-13,12.6c-12.6,3.3-16.8,11.5-16.2,23.8
	c0.3,6-0.8,12-0.5,18.2c2.9-7.2,8.2-13.3,8.7-21.4c0.3-4.2,2.4-7.5,5.9-9.8c1.4-0.9,3-1.6,4.7-0.6c2,1.1,1.9,3.1,1.6,5
	c-0.5,3.5-2.6,6.1-4.9,8.6c-1.8,2-3.6,3.9-5.7,6.1c2.5,1.4,6.5,0.3,6.3,4.3c-0.2,3.4-3,5.5-5.8,5.7c-6.5,0.4-7.7,5-9.3,9.8
	c-1.7,5-2.6,10.1-2.6,15.3c0,10,0,20,0,30.1c0,0.2,0.2,0.4,0.4,0.6c2.1-0.7,1.5-2.7,1.9-4.1c3.4-11.9,7.5-23.5,15.1-33.5
	c1.4-1.8,1.5-3.5,1-5.7c-2.8-13.1,5-28,17.2-33.7c3.1-1.4,4.7-0.9,4.9,2.8c0.6,14.4-4.5,26.4-16,35c-6.3,4.7-8.2,11.5-11.3,18
	c6.5-2.8,12.9-4.1,19.6-2.9c7.3,1.3,8,3,3.4,8.5c-6.4,7.7-14.6,11.8-24.6,11.5c-3.7-0.1-5.1,1.2-6,4.6c-3.1,12-6,23.9-5.2,36.4
	c0.1,1.7,0.1,3.3,0,5c-0.1,1.7-1,2.9-2.6,3c-2.1,0.1-2-1.8-2-3.2c-0.1-6.3-0.2-12.5,0-18.8c0.2-10.2-5.2-18.8-8.3-28
	c-0.5-1.4-2-2-3.3-2.7c-11-5.1-15.5-14.1-14.8-25.8c0.2-3.2-1.6-8.2,1.2-9.3c3.5-1.4,5.2,3.7,7.7,6c7.3,6.9,11.5,15.2,11.2,25.6
	c-0.2,5.1,3.4,9.2,5.4,13.8c-1.1-19.1,3.4-38.3-2.8-58.2c-3.5,4.4-7.4,4.7-11.4,4.3c-3.2-0.3-6-1.6-5.9-5.2c0.1-3.3,2.5-5.2,5.6-5.9
	c2.6-0.6,5.2,0.4,8.2,1.1c-1.7-4.5-2.9-7.9-8.5-4.9c-3.5,1.8-7.8,1.1-11.7,0.2c-1.9-0.5-3.7-1.3-4-3.4c-0.3-2.1,1.2-3.5,2.7-4.6
	c2.7-2.1,5.9-2.7,9.9-2.4c-3.4-4.9-6.1-8.1-11.4-2.9c-2.2,2.2-5.8,2.2-9,2c-2.4-0.1-4.9-0.7-5.4-3.3c-0.6-2.9,1.6-4.4,3.8-5.8
	c1.9-1.2,4.6-0.5,6.5-2.7c-3.1-1.8-5.7-3.8-9.8-2.7c-3.6,0.9-7-0.8-9.8-3.3c-2.8-2.4-4.2-5.9-2.1-8.9c2.3-3.3,6.3-3,9.6-1
	c2.1,1.3,3.9,3.2,5.3,5.2c2.6,3.8,6.1,6.2,10.7,7.6c0.6-3.7,0.6-8.2,6.1-7.3c3.5,0.5,6.7,6,5.1,10.1c-2,5.1,0.5,7.2,4.2,9.6
	c1.6-1.6,0.5-3.5,0.9-5.2c0.5-2,1.5-3.5,3.6-3.8c2.2-0.3,3.4,1.1,4.2,2.9c1.3,3.2,2.3,7.1,0.8,9.7c-3,5.2-0.1,8.6,2,12.5
	c1,1.8,1.8,3.6,3.3,6.7c0.4-8.5-1.9-15.4-2.7-22.4c-0.7-6.6-2.3-13.2-3.2-19.8c-0.4-3.4-1.1-4.4-5-3.7c-6.7,1.4-13-0.3-17.5-5.8
	c-2.9-3.5-2.1-5.6,2.5-6.3c2.7-0.4,5.4-0.5,8.1-0.5c2.7,0,5.3,0.4,8,0.7c1.1-1.8-0.1-3.3-0.4-4.8c-0.7-3-0.9-7.1-2.9-8.7
	c-2.8-2.1-4.9,2.4-7.6,3.5c-5.4,2.2-10.6,1.9-15.8-0.4c-3.7-1.7-4-3.8-0.5-6.3c4.8-3.4,11-5.5,19.7-6.6c-2.2-7-2.2-6.9-8.1-3.7
	c-6.1,3.2-12.3,0.6-18.4-0.2c-2.5-0.3-1.3-3-0.1-4.5c3.4-4.2,7.8-6.9,14.1-7.4c-3.6-4.8-5.1-9.5-4.2-14.8c0.7-3.9,2.4-5.3,5.8-2.2
	c0.6,0.6,1.4,1,1.8,1.7c3.5,5,6.6,9.6,13,2.5c2.6-2.9,5.5,0,5.7,3.5c0.3,4.6-1.1,9.1-4.6,11.9c-5.4,4.3-4.6,8,0,12.9
	c2.7-3.6,5.7-7.1,9.8-9.1c1.4-0.7,2.9-2,4.6-0.6c1.4,1.2,1.6,2.9,1.4,4.6c-0.6,5.1-4,8.5-8.3,10.2c-4.4,1.8-5.2,3.8-3.3,7.9
	c1,2,1.4,4.3,2.2,6.8c2.7-1.1,2.9-4,4.6-5.6c1.4-1.3,2.6-3.2,4.6-2.7c2.3,0.6,1.8,3,2,4.8c0.5,5.9-1,11.3-4.7,15.8
	c-2.4,2.9-2.8,5.7-2.1,9.2c1.1,5.5,1.9,11.1,3.3,16.7c1.7-9.4,3.1-18.9,5.4-28.2c1.9-7.5,3.9-15,7.7-21.8c1.5-2.7,1.5-4.9,0.3-7.6
	c-2.2-4.8-4.8-9.3-7.3-13.8C61.7,31,58.3,25,65.1,19.1c1.5-1.3,0.5-3.6,0.7-5.4c0.3-3.4,1.8-6.8,5.2-6.9c4.6-0.2,7.7-2.5,11.2-4.7
	c4-2.6,8-2.9,12.2,0.2c2.7,2,5.8,3.3,8.7,4.9c2,1.1,4.6,2.2,5,4.5c1.3,6.9,6.6,11.4,9.8,17.1c2.4,4.4,0.7,8.1-1.9,11.6
	c-2.3,3-5.3,5.2-6.1,9.6c-0.7,4-5.6,4.6-9.4,4.8c-5.8,0.3-11.7,0.4-17.5,0.2c-3.9-0.2-6.2,1.1-7.6,4.8C72.6,67.1,70,74.5,68,83.5z
	 M79.2,37.6c-0.1,0-0.1,0-0.2,0c0.2,2.9,0.4,5.8,0.6,8.7c0.1,1.8,0.8,2.5,2.8,2.1C90.3,47,99,36.7,98.6,28.8c-0.3-5.3-1.4-6-6.7-4.5
	c-2.4,0.7-4.8,1.6-7.3,1.7c-4.2,0.1-5.4,2.4-5.4,6C79.2,33.8,79.2,35.7,79.2,37.6z M76.3,10.1c-2.6,0.2-6-1.1-6.9,3.1
	c-0.8,3.8,0.2,5.8,4.1,8.1c4.8,2.7,8.8,0.6,13,0.5c2.2-0.1,5.4-0.6,5.1-4.2c-0.3-3.2-1.3-6.3-5.2-6.7C83.2,10.4,79.8,10.3,76.3,10.1
	z M97.6,116.1c-10.7,7.9-15.9,17.3-14.1,30.8C92.7,138.5,98.2,129.4,97.6,116.1z M96.5,168.3c-5.1-0.6-9-0.3-12.9,0.7
	c-5.2,1.3-9.9,3.3-12.8,8.2c-1.4,2.4-1,3.9,2.3,3.8C82.6,180.6,90.3,177,96.5,168.3z M89.5,78.9c-11-0.2-20.9,7.1-22.4,16.8
	C75,90.4,85.5,89.7,89.5,78.9z M34.8,153.3c-0.9,12.1,3.4,20.3,12,23.7C46.7,167.4,42.6,159.8,34.8,153.3z M75.1,45.9
	c0.2-6,0.2-11.9,0.6-17.8c0.3-4.4-3.8-4.5-7.3-4.6c-4.5-0.1-3.1,3.2-2.7,5.2C67,35.4,72.5,39.8,75.1,45.9z M81.9,6
	c8,0.1,13.3,2.9,14.3,11.1c0.3,2.8,3.5,3.9,5.8,4.9c1.3,0.6,2.5-1.8,3.1-3.4c1-2.7,1-5.3-1.7-7.2c-1-0.7-2.1-1.3-3.2-1.9
	c-2.5-1.5-5.2-2.7-7.5-4.4C88.9,2.4,85.7,2.8,81.9,6z M102.7,31.4c-1.8,5.3,5.3,3.2,6.1,6.8c0.5,2.4,1.7,1.3,3,0.3
	c5.1-4.2,2.8-8-0.1-12.2c-3.1-4.7-3.5-4.9-7.1-0.7C103.2,27.2,102.5,28.9,102.7,31.4z M89.6,50.9c5.8-0.1,10.1,0.5,14.3-0.7
	c2-0.6,3.6-1.7,2.8-3.9c-0.9-2.4,0.1-5.8-2.6-7.2c-2.3-1.1-3.7,0.9-5,2.6C96.8,44.9,93.7,47.3,89.6,50.9z M32.5,78.3
	c4.9,4.7,10.5,4.6,17.9,3.5C44.2,76.2,38.3,77.7,32.5,78.3z M24.6,59.7c7.4,2.1,10.6,1.1,14.2-4.4C33.3,54,29,56.5,24.6,59.7z
	 M38.4,37.4c5.9-4.1,6.8-5.7,6.2-11.8C41.5,29,36.8,31.1,38.4,37.4z M44.2,118.5c-5.3-4.2-8-4.1-13.6,0.4
	C35.2,119.8,39.3,120.5,44.2,118.5z M14.3,93.3c-1.6-3-3.4-5.3-6-6.7c-1.3-0.7-3-0.8-4,0.5c-0.9,1.4-0.2,2.8,1.1,3.8
	C7.8,92.7,10.2,94.1,14.3,93.3z M27.2,22.4c-0.8,5.6,1.5,9.3,6.6,12C34.6,28.3,30.5,25.5,27.2,22.4z M32.1,40.2
	c-6.8-1.7-8.7-1.2-12.1,3C24.4,43.9,28.7,45,32.1,40.2z M58,68.1c-2.5,3.6-4.3,7.5-3.5,11.9C57.2,76.5,59.3,72.8,58,68.1z
	 M49.4,131.6c-2.8-1.8-5.8-2.5-8.8-0.3c-0.3,0.2-0.3,1.4-0.1,1.5c3.1,1.6,6.1,2,9-0.4C49.5,132.3,49.4,132,49.4,131.6z M34.9,97.1
	c-0.7-1.5-0.4-4.2-3.2-4.2c-1.6,0-1.2,1.9-1.1,3c0.1,1.9,0.6,4.1,2.8,4.3C34.9,100.5,34.9,98.7,34.9,97.1z M17.2,107.1
	c4.3,0.8,7.6,0,10.9-3C23.8,103.7,20.3,103.9,17.2,107.1z M75,115.9c2.5-3.4,5.2-5.1,4.9-9.7C76.8,109,74.4,110.8,75,115.9z
	 M47.7,114.1c1.1-4.3,0.9-7-0.6-9.7C45.7,107.2,45.7,109.9,47.7,114.1z M47.8,52.9c4.3-2,7-3.5,8.1-8C52.1,46.7,50.1,48.9,47.8,52.9
	z M69.1,130.8c3.2-0.2,5-0.7,6.4-2.8C72.9,127.2,71.1,128.1,69.1,130.8z"/>
</svg>
