<?xml version="1.0" encoding="utf-8"?>
<!-- Generator: Adobe Illustrator 25.3.0, SVG Export Plug-In . SVG Version: 6.00 Build 0)  -->
<svg version="1.1" id="Layer_1" xmlns="http://www.w3.org/2000/svg" xmlns:xlink="http://www.w3.org/1999/xlink" x="0px" y="0px"
	 viewBox="0 0 88.6 223.4" style="enable-background:new 0 0 88.6 223.4;" xml:space="preserve">
<path d="M48.1,74.7c0.1,19.9,1.4,39.7,1.6,59.9c0.9-6.7,35.9-52,37.7-35.5c-1.1,17.4-3.4,34.4-14.2,49c-6.5,8.8-12.8,17.8-20.5,25.6
	c-7.1,10.9,0.3,37.4-4.9,49.8c-9.5-13.1,6.5-33.6-14.4-46.5c-15.7-15.8-18.6-42.1-26.1-62.7c-2.7-6,1.6-9,7-6.1
	c18.8,5.4,24,23.6,29.7,40.1c0.4-20.5,0.5-40.8-1.1-61.1c-0.2-2.9-0.7-3.1-3.8-2.7C18.5,89.3,2.7,71,23.4,56.1
	c-6.9,0.3-14.7,5.4-19.6-0.7C0.8,50.6-1.8,45,1.6,39c3-6.5,5.7-14.8,14.9-9.6c-1.3-4.9-6.2-8-4.6-12.6c3.2-15.4,17.6-18.6,29.6-5.2
	c11.9-26,46.2-3.5,29.9,20.6c21.8-3.2,23,20.6,2.7,28.3c4.7,10.8,2.2,17.2-9.2,23.5C58.6,87.4,55.5,85.6,48.1,74.7z M41.7,178.2
	c0.1,0.4,0.2,0.8,0.7,0.7c-0.3-0.2-0.6-0.3-0.8-0.5c-5.1-17.5-16.6-33.6-24-50.6c-0.1,0.1-0.2,0.1-0.3,0.2c0.2,0,0.3,0,0.5-0.1
	C18.2,141.5,29.6,170.7,41.7,178.2z M53.3,165c18.9-20.5,28.6-36.8,27.7-54.9c-8.9,18.7-20.3,36-27.6,55.1c-1.2-0.2-1.7,1.2-0.7,1.8
	C52.9,166.3,53.1,165.6,53.3,165z M77.9,104.9c-18,14.9-30,38.8-26.9,54.4C52.7,156,86.5,92.8,77.9,104.9z M54.1,39.1
	C61,35,66.7,30.7,70.8,24.6c2.4-3.6,0.9-7.1-0.4-9.9C67.7,8.9,64.5,5,58.7,4.9C42.6,4,46.6,22.5,46.3,33.2c3.1,0.2,3.4-4.5,6.5-3.5
	c0.8,2.5-2.9,3.4-1.7,5.9c2.3,0.1,3-3.2,5.6-2.4C57.4,35.6,54.3,35.9,54.1,39.1z M32.1,30c1.8,0,2.5,1.1,3.3,2
	c10.3,11.3,3.8-14.5,1.4-18.2C20.2-4.7,4,23.5,34.4,37.6C35.2,34.7,31.3,33.3,32.1,30z M44.4,172c-7.7-21.5-6-50.6-32.2-59.2
	C23.5,133,34,152.3,44.4,172z M35.1,55.1c-21,8.7-25.5,24.5,0.6,25.3c5.5-2,5.6-14.6,5.4-20.3c-3.3,1.3-2.3,6-6,6
	c-1.7-1.8,1.4-3.1,0.2-4.7c-1.7-0.7-2.6,3.1-4.6,0.8C32,60.3,33.1,58.5,35.1,55.1z M54.4,51.7c13.1,2.5,29.7,8.8,29.2-11
	c-4-8.6-21.6-0.6-28,2.9c2.4,3.3,5.7,1.1,7.3,3.6C61.2,50.6,56.9,48.1,54.4,51.7z M47.6,59.4c1.3,6.6,7.8,26.6,15.9,20
	C81.4,69,67.4,58,52.8,57.3c-0.2,2.8,2.9,4.8,1.2,7.8C51,64.1,51,60.4,47.6,59.4z M30.4,44.1c-3.7-3.1-17.5-12.8-21.2-9.6
	C6.7,38.7,3.6,42.7,5.4,48c0.3,10.8,17.9,3.7,24.8,1.8c-2.6-2-6.2,0-7.3-3.5C24.8,43.8,28,46.5,30.4,44.1z M43.5,38.4
	c-9.5,0.8-10.6,14.9-0.7,15.8C52,53.4,54.7,39.2,43.5,38.4z"/>
</svg>
