<?xml version="1.0" encoding="utf-8"?>
<!-- Generator: Adobe Illustrator 25.3.0, SVG Export Plug-In . SVG Version: 6.00 Build 0)  -->
<svg version="1.1" id="Layer_1" xmlns="http://www.w3.org/2000/svg" xmlns:xlink="http://www.w3.org/1999/xlink" x="0px" y="0px"
	 viewBox="0 0 53.1 109.9" style="enable-background:new 0 0 53.1 109.9;" xml:space="preserve">
<path d="M24.2,87.9c0-16.8-0.5-33-1.2-49.2c-0.1-2.6-1-3.9-3.6-4.7c-8.4-2.7-12.6-9-13.7-17.4C5.1,12.2,4.4,7.7,5,3.1
	C5.3,1,6-0.1,8.4,0c10.1,0.7,20.1,1,30.2,0c2.1-0.2,2.9,0.8,3.3,2.7c1.3,6.9,1.9,13.9-0.7,20.6C39,29,35.2,33.2,29.2,35
	c-1.4,0.4-3,0.5-2.9,2.6c0.8,14.3,1.2,28.6,1.5,43.1c3.8-6.1,9.6-10.1,14.3-15.1c2.2-2.3,3.6-5.1,4.4-8.1c0.3-1.1,0.2-2.6,1.6-2.8
	c1.7-0.2,2,1.5,2.6,2.6c4,8.6,2.7,16.9-2,24.6c-5.1,8.3-11.7,15.3-20,20.5c-1.9,1.2-1.3,2.7-1.5,4.2c-0.2,1.4,0.2,3.3-2,3.3
	c-2,0-1.8-1.7-1.6-3c0.4-2.7-1.1-3.7-3.3-4.9c-18.2-10-23-23.2-19-41.9c0.2-1,0.4-2.2,1.7-2.2c1.3,0,1.6,0.9,1.9,2
	c0.8,3.7,2.9,6.5,5.8,8.7c5.1,3.9,8.2,9.3,10.9,14.9C22.3,84.8,22.6,86.3,24.2,87.9z M23.5,3.6C23.5,3.6,23.5,3.6,23.5,3.6
	c-4,0-8,0-12,0c-1.3,0-2.9-0.3-3,1.7c-0.3,7.5-0.1,15,4.7,21.3c5.6,7.5,19.9,8.2,24.1-2.8c2.3-6,2.3-12.1,1.6-18.4
	c-0.2-2-1.5-1.9-2.9-1.9C31.8,3.6,27.6,3.6,23.5,3.6z M28.4,98.8C43,87.5,52.4,74,48.8,62.4C39.7,73.1,26.3,81.3,28.4,98.8z
	 M4.1,67.2C0.1,79.6,9.8,93.3,22.7,99.1C21.5,85.3,14.8,75.1,4.1,67.2z"/>
</svg>
