<?xml version="1.0" encoding="utf-8"?>
<!-- Generator: Adobe Illustrator 25.3.0, SVG Export Plug-In . SVG Version: 6.00 Build 0)  -->
<svg version="1.1" id="Layer_1" xmlns="http://www.w3.org/2000/svg" xmlns:xlink="http://www.w3.org/1999/xlink" x="0px" y="0px"
	 viewBox="0 0 66.7 109.9" style="enable-background:new 0 0 66.7 109.9;" xml:space="preserve">
<path d="M54.4,62.9c9,6.2,10.2,13.2,3.9,20.9c-5.2,6.3-11.6,10.3-20.3,7.7c-2.3-0.7-2.4,0.5-2.6,2.1c-0.7,4.5-1.4,8.9-2.2,13.4
	c-0.2,1.4-0.4,3.3-2.5,2.8c-2.1-0.5-1-2.3-0.8-3.7c0.7-4,1.4-8,2.1-12.1c0.3-2.1,0.4-3.3-2.8-3c-11.7,1.1-21-11.4-16.8-22.5
	c0.8-2.1,0.4-3-1.1-4.3C5.4,59.4,0.9,53.6,0.1,45.6c-0.7-7.7,1.2-14.3,8-18.6c2-1.3,2.2-2.7,2-4.7c-0.5-5.1,0.7-9.7,3.4-14.2
	c5-8.2,16.5-9.9,24.6-6.4c5.9,2.5,7.5,7.8,8.1,13.5c0.3,3,0.4,4.3,4.3,3.5c5.1-1.1,8.8,2.1,11.5,6.3c7.1,11.2,6,24.1-3.1,33.8
	C57.7,60.2,56.2,61.3,54.4,62.9z M35.8,77.5c0,2,0,3.4,0,4.9c0,4.8,0.9,5.7,5.6,6.4C48.8,90,58.4,82.5,59,75c0.2-3-1-5.4-3.4-7.2
	c-1.4-1.1-3-1.7-4.8-2.1c-2-0.4-2.3-1.6-0.8-3.1c1.7-1.6,3.5-3.1,5.2-4.7c9.5-8.7,10.9-19.9,3.8-30.7c-3.5-5.4-6-6.3-12.1-4
	c-2.4,0.9-3.3,0.4-3.4-2c-0.2-2.6-0.5-5.2-0.7-7.9C42.3,8,38.9,5,34,3.7C22.2,0.4,11,11,13.6,23c0.7,3.3,0.1,4.9-3,6.4
	c-4.9,2.3-7.2,6.8-7.4,12c-0.4,9,4.2,15.6,10.9,20.9c2.6,2,3.2,3.5,1.7,6.7c-4.3,9.3,3.7,19.7,13.8,18.6c1.6-0.2,3-0.5,3-2.4
	c-0.1-5.5,0.5-11.2-1.7-16.4c-3.9-9.3-6.8-18.9-8-29c-0.5-3.9,0-7.6,1.6-11.1c1.2-2.8,3.4-4.2,6.6-4.2c4.5,0,7.6,2.6,9.1,7.9
	c2.3,8.5,0.1,16.8-1.2,25.1C37.8,64.3,33.9,70.7,35.8,77.5z M33.3,64.4c2-7.2,3.9-14.4,4.6-21.8c0.3-3.5,0.5-7.1-1-10.3
	c-1-2.3-2.5-5.1-5.6-4.7c-3.2,0.4-5,2.8-5.1,6.1C25.6,44.5,29.1,54.5,33.3,64.4z"/>
</svg>
