<?xml version="1.0" encoding="utf-8"?>
<!-- Generator: Adobe Illustrator 25.3.0, SVG Export Plug-In . SVG Version: 6.00 Build 0)  -->
<svg version="1.1" id="Layer_1" xmlns="http://www.w3.org/2000/svg" xmlns:xlink="http://www.w3.org/1999/xlink" x="0px" y="0px"
	 viewBox="0 0 77.2 110.9" style="enable-background:new 0 0 77.2 110.9;" xml:space="preserve">
<path d="M32.9,98.5c1-2.9-0.3-4.9-0.4-7.1c-0.9-21.7,3-42.2,13.8-61.2c2.6-4.7,1.4-8.2-3.6-10.2c-3-1.2-5.4-3.1-6.9-6
	c-1.1-2.1-1.5-4.5,0.1-6.5c1.5-1.9,3.7-2.6,6.2-2.4C49,5.7,49,5.7,54.6,2c6.4-4.2,14-1.5,16.2,5.9c0.2,0.6,0.4,1.4,0.2,2
	c-1.3,3.7-0.2,6.5,2.2,9.6c2.1,2.7-0.6,7-4.2,7.5c-2.1,0.3-4.3,0.2-6.4-0.4c-7.4-1.9-10.3-0.7-14.1,5.9c-4.8,8.5-8.2,17.6-10,27.5
	c2.6,0.3,3.6-0.9,3.4-3.2c-0.2-2.3,0.2-4.6,0.7-6.8c0.6-2.3,1.6-4.9,3.6-5.6c3.4-1.1,4-3.3,4.6-6.2c0.5-2.4,2.2-4.3,3.7-6.2
	c1-1.3,2.8-2,4-1.3c2.9,1.7,4.9,0.2,7.2-1.2c1.6-1,3.5-1.2,5.5-1c5.5,0.7,7.7,5.2,4.4,9.6c-1.6,2.1-1.8,3.4-0.5,5.7
	c1.8,3.2-0.4,7.5-4.1,9.4c-1.2,0.6-2.5,1.1-3.8,1.4c-1.5,0.3-1.9,1-2.1,2.4c-0.8,6.1-6.6,9.7-12.5,7.8c-0.9-0.3-2-0.5-2.6-1.1
	c-3.3-3.5-6.4-2.6-9.8-0.1c-2,1.4-3.3,2.7-3.5,5.4c-1,12.7-1.3,25.4,1.7,37.9c0.2,0.8,0.4,1.6,0.5,2.4c0.1,0.9-0.1,1.7-1.2,1.8
	c-0.9,0.1-1.6-0.3-1.8-1.3c-0.3-1.3-0.6-2.6-0.8-4c-0.2-1.1-0.4-2.1-1.3-2.9c-2.2-1.9-3.9-3.5-7.4-1.4c-6.1,3.5-13.1,1.4-16.4-3.9
	c-0.6-0.9-1.4-2-1.1-3c1-3.4-1.3-4.5-3.7-5.9c-6.1-3.7-7-9.8-2.2-14.9c1.3-1.4,1-2.5,0.7-4C3.1,66,2.8,62.4,4,58.8
	c1.8-5.4,5.5-7.3,10-7.4c4.5-0.1,6.9,3.2,8.1,7.2c0.4,1.2,0.9,2.3,1.1,3.5c0.3,1.7,1.1,2.4,2.8,2.8c3.3,0.7,4.8,3,5,6.4
	c0.4,5.4-0.6,10.8-0.8,16.2C30.3,91.1,30.8,94.6,32.9,98.5z M26.6,90.2c0.4-5.6,0.9-11.3,1.3-16.9c0.1-1.9-0.3-4-2.6-3.7
	c-4,0.4-5.3-1.2-5.2-5c0-1.4-0.6-2.9-1-4.3c-0.9-2.6-1.8-5.2-5.1-5.5c-2.9-0.2-5.7,2.1-7,5.3C5.5,63.5,6.2,67,7.1,70.4
	c0.6,2.5,1.2,4.7-2.2,5.7c-1.6,0.5-1.7,2.3-1.7,3.8c0.1,3,2.1,4.9,4.5,6.3c1.8,1,3.7,1.7,5.5,2.5c1.3,0.6,1.9,1.1,1,2.7
	c-2.3,4.2-1.5,6,3,7.4c2.5,0.8,5,0.7,7.5-0.3c2.1-0.8,2.6-1.6,0.9-3.4c-3.2-3.5-5.6-7.6-7.7-11.8c-2.5-4.9-3.5-10.2-4.6-15.5
	c-0.2-1,0-2,1.1-2.3c1.4-0.3,2,0.6,2.2,1.8c0.1,0.7,0,1.4,0.1,2C18,77.1,21.1,84.2,26.6,90.2z M45.2,56.2c1.4,0.1,2.2-0.8,3.1-1.4
	c4.6-3.4,8.9-7,12.2-11.7c0.7-1,1.3-3.4,3.2-1.8c1.9,1.5-0.3,2.7-0.9,3.7c-2.6,4.2-6.4,7.3-10.1,10.4c-1.2,1-3.6,1.6-3.4,3.1
	c0.3,2.1,3,1.9,4.6,2.6c0.5,0.2,1,0.4,1.5,0.5c2.4,0.3,5.9-2.1,5.3-4.3c-1.1-4.4,1-5.3,4.6-5.5c0.6,0,1.3-0.4,1.9-0.7
	c3.5-1.6,4.1-3.2,2.1-6.6c-1.2-2.1-1.4-3.8,1-5c0.5-0.3,0.9-0.6,1.3-0.9c1.9-1.6,3.1-3.5,1.4-5.9c-1.7-2.3-4-1.9-6.1-0.6
	c-1.6,1-3.1,2.2-4.3,3.7c-1.2,1.5-2.1,2-3.6,0.6c-2-1.9-3.4-0.7-4.5,1.2c-1.3,2.3-1.6,4.8-1.6,7.4c0,1.9-0.5,3.2-2.8,2.6
	c-2.5-0.7-3.8,0.7-4.4,2.9C45.3,52.2,44.7,54,45.2,56.2z M50.6,15c-0.1,4.7,3.6,7.3,7.6,5.7c2.6-1.1,5-2.6,7-4.7
	c3.1-3.3,3.4-8.8,0.6-11.2c-3-2.7-8.8-2.2-11.7,1.2C51.7,8.7,50.5,11.9,50.6,15z M47,18c0.1-1.5,0.1-2.7,0.2-3.9
	c0.3-4.4-2.5-6.7-6.9-5.6c-2.4,0.6-3.1,1.8-1.8,4.1C40.3,15.7,43.1,17.2,47,18z M61.7,23c2.5,1.3,4.6,1.8,6.9,0.9
	c1.7-0.7,2.9-1.7,2-3.6c-0.8-1.6-2.6-2.2-4.1-1.2C64.9,20.1,63,21,61.7,23z"/>
</svg>
