<?xml version="1.0" encoding="utf-8"?>
<!-- Generator: Adobe Illustrator 25.3.0, SVG Export Plug-In . SVG Version: 6.00 Build 0)  -->
<svg version="1.1" id="Layer_1" xmlns="http://www.w3.org/2000/svg" xmlns:xlink="http://www.w3.org/1999/xlink" x="0px" y="0px"
	 viewBox="0 0 93.1 230.8" style="enable-background:new 0 0 93.1 230.8;" xml:space="preserve">
<path d="M55.2,197c-0.8-14.3-6.6-59.1-21.2-62.3c-5.6-0.3-9.4-4.6-13.5-7.9c-1.9-1.2,0.2-3.5,1.8-2.3c4.8,2.6,7.7,6.9,13.9,6.8
	c-10.2-31.5-15.3-9-31.1-24.4c-2.9-2.5,0.4-5.7,2.4-2.3c2.6,3,5.6,4.9,10.5,5.1c-1.9-3.1-12.7-11.3-10-13.3
	c4.9-0.8,11.7,14.4,19.3,14c-3.6-5.6-9-34.4-16.9-29.5c-3.4,0-8.6-0.5-10.3-3.5c-1.1-2.1,1.8-1.6,3.3-1.2c2.8,0.8,4.3,1.7,7.5,1.8
	c-1.9-4.2-8.6-5-7.6-9.5c1.8-2.6,6.1,4.3,9.3,4.3c1.6-4.7-5.6-11.6-3.3-14.3c3.4-1.6,6.9,11.9,6.2,14.7c-0.2,1.9-0.1,4,2.5,5.3
	c0.9-5.9-1.3-12.3,3.1-18.3C23,65,20.9,68.9,22,73c3.7-1.8,4.9-5.6,7.6-9.1c-1,20.4-18.6,3.6,0.6,41.1c0.6-6.3,1.2-12.5,1.8-19.4
	c3.7,2.6,1.4,6,2.8,8.7c2.7-2.6,0.6-6.8,3.8-10c1.9,5.4,1.6,9.8-1.8,13.3c-9.4,14.7,4.5,32.4,10.2,46.1
	c-2.7-30.8,9.4-71.7-17.5-94.2c-4-3-7.6-6.5-13.5-4.9c-2.6,0.7-5.7-0.4-7.8-3.4c3.6-2.5,7.2,1.4,10.5-0.4c0.5-3.2-5-5.1-3-8
	c1.5-1.2,2.4,0.1,3,1.2c3.2,5.9,8.1,9.6,13.7,13.2c-0.9-10-0.3-19.7-6.3-27.9c-0.9-1.2-2.8-2.9-0.9-4.2c4.1-1.9,3.6,4.9,6.5,6.3
	c0.2-5.4-1.4-10.6,0.4-15.7c3.6,5.4,2.2,11.9,3.3,17.9c1.8-0.9,1.5-2.3,2-3.4c0.5-1.1,0.6-2.9,2.3-2.2c2.5,1.7-0.4,7-1.8,8.8
	c-10.6,14.1,4.7,29.4,9.8,43c5.9-30.8-3.5-10.5-2.5-34.4c-0.2-2.9,3.5-2.2,3.1,0.4c0.3,3.9-0.3,7.9,2,12.7
	c4.1-9.4,7.8-23.7-0.7-31.1c-3.8-2.8-2.2-8.9-2.5-13.5C47.5,1,51,1.3,51,4c0.9,3.5-0.1,7.3,2.4,11.7c0.8-4.6,1.3-8.4,2-12.1
	c0.3-1.4-0.6-3.9,1.8-3.6C59,0.3,59,2.7,58.6,4.3C57.6,11.5,57.1,19,58.6,26c3.1-8.3,4.1-17.4,9.6-24.9c-1.1,6.8-3.6,13.3-4.5,20.5
	c3.8-0.7,4.8-7.1,8.8-5.2c2.2,1.9-2.1,4.5-3.2,5.9c-13.5,10.4-15,27.5-16,43.2C59.4,53.4,71.6,46,78,34c3,5.8-7.3,10.9-3.4,13.4
	c2.2,1.8,3.1-0.7,4.4-1.8c2.9-2,9.9-6.1,12.9-3.7c0.7,1.7-0.9,2.2-2,2.6c-3.4,1.1-7.2,1.3-10.2,4.4c2.9,2.9,8-2,9.4,1.4
	c0.3,1.5-1.2,2.1-2.4,2.5c-9.5,4.6-13.4-8.2-19.6-0.4c-5.8,6.7-10.7,14-14.3,22c-4,17-1.5,35.3-0.9,52.9
	C77,94.4,57.6,88.7,66.5,77.2c0.7,6.2,1.4,12.2,2,17.9c7.9-5.9,4.6-15.7,8.8-24.2c2.7,6.4-0.7,11.6,0.6,16.8
	c3.3,0.2,10.2-6.3,11.7-4.2c1.1,1.6-0.5,2.8-1.7,3.4c-16.5,7.4-13.2,3.8-19.9,21.3c4-0.9,6.2-4.6,10.7-5c-0.5,3.3-2.6,4.8-4.7,5.7
	c-12,4.8-15,16.7-21,26.2c-1.6,13.5,2.3,27.6,4.8,41.3c2.4-5.6,6.9-9.9,6.9-16.9c0.1-16.3,5.9-30.3,18.8-40.9c3.7-3,5.5-2.5,7.3,2
	c6.2,15.5-1,35.4-15.8,43.7c-3.5,2-7.9,2.6-9.8,7.2c-3.4,7.9-7.5,15.5-5.8,24.6c0.7,4.2,4.7,35.6-0.4,34.6c-3.1,0.1-1.6-4.2-1.9-6.5
	c-0.4-2.7-0.5-5.5-0.2-8.2c2.7-28.7-32.7-23.3-36.1-50.8c0-4.2-7.3-24.1,1.8-19.8c7.2,3.5,13.5,8.1,17.6,15.1
	c4.2,7.2,6.6,15,7.8,23.2C48.8,190.5,48.7,190.6,55.2,197z M70.3,162.1c12.4-6.4,21.9-21.7,17-37.4C84,138.3,77.9,149.8,70.3,162.1z
	 M24.4,151.9c5.7,10.5,11.3,21.1,18.3,30.9C41,169.7,37,158.1,24.4,151.9z M70.4,153c6-8.7,10.5-18,13.9-29.5
	C75.2,132.3,71,141.8,70.4,153z M23.4,157.6c1.8,10.4,4.1,20.5,16.1,26.7C33.1,175,28.5,166.3,23.4,157.6z"/>
</svg>
