<?xml version="1.0" encoding="utf-8"?>
<!-- Generator: Adobe Illustrator 25.3.0, SVG Export Plug-In . SVG Version: 6.00 Build 0)  -->
<svg version="1.1" id="Layer_1" xmlns="http://www.w3.org/2000/svg" xmlns:xlink="http://www.w3.org/1999/xlink" x="0px" y="0px"
	 viewBox="0 0 96.6 250.8" style="enable-background:new 0 0 96.6 250.8;" xml:space="preserve">
<path d="M59.8,107.9c0.9-0.6,1.9-0.7,1.7,0.6c-0.2,1.4,0.7,3.5-1.5,4.2c-1.4,0.5-2.9,0.9-4.4,0.5c-2-0.5-2.8,0.3-2.8,2.3
	c0,3.9,0,7.9,0,11.9c1.6-0.5,1.3-1.6,1.4-2.3c1.1-5.2,6.7-10.5,12-11.4c1.5-0.3,1.5,0.9,2.1,1.7c5.5,7.2,4.2,14.4-0.1,21.7
	c-3.7,6.3-8.5,11.8-11.5,18.5c-0.6,1.3-1.1,2.5-1,3.9c0.7,5,1.8,9.8,3.2,15.2c1-1.9,0.8-3.4,0.8-4.8c0.3-10.9,3.9-20.6,11-29
	c1.7-2,2.6-5.8,4.9-5.8c2.5,0,2.5,4.1,4,6.2c2.8,3.9,4.3,8.5,6.2,12.9c1.2,2.8,0.8,5.6-0.1,8.5c-2.6,8.1-7.8,14.5-13.5,20.6
	c-1.5,1.5-2.9,3.1-4.7,5c3-0.1,5.7-0.1,8,1.4c1.3,0.8,1.5,1.5,0,2.4c-3,1.9-5.9,3.9-10,1.6c0.1,3.2,1.2,5.4,2.1,7.7
	c4.2,11.3,9,22.3,14.4,33.1c1.2,2.4-0.4,5.8-2.9,6.3c-2,0.4-1.9-1.4-2.2-2.4c-2.9-8.3-5.7-16.6-8.5-24.9c-1.5-4.5-3.2-8.9-4.8-13.3
	c-0.6,0.1-0.8,0.1-1,0.2c-1.1,0.7-1.5,3.5-3.1,2.2c-1.6-1.3-2.4-3.8-1.7-6.2c0.3-1,1.4-1.8,1.4-3.6c-4.2,1.6-7.8,1.4-10.4-2.7
	c-1-1.5,0-2.2,0.3-3.4c-8.8-1.8-17-4.8-24.5-9.5c-6.6-4.1-11.8-9.2-12.4-17.7c-0.3-3.8-1.7-7.6-2.2-11.4c-0.5-4.2,0.3-4.8,4.4-4.7
	c0.5,0,1,0.1,1.5,0c11.2-2.2,18,4.4,24.3,12.1c5.7,6.9,10.5,14.4,15,22.1c0.4,0.6,0.5,1.5,1.6,1.8c0-3.3-1.4-6.2-1.9-9.3
	c-0.5-3.1-1.1-6.2-1.5-9.3c-0.3-2.1-1-3.2-3.3-3.1c-2.7,0.1-4.3-1.1-4.5-3.9c-0.1-2-1.2-3-3.2-3.5c-3.7-1.1-7.1-3.2-10.6-4.9
	c-1.7-0.9-2.7-2.3-3.2-4c-1.2-4-1.8-8-1.7-12.2c0-2.1,1-2.8,2.8-2.4c3.6,0.7,7.1,1.5,10.6,2.4c2.3,0.6,3.6,2.5,4.5,4.7
	c1.9,4.2,3.8,8.4,5.7,12.6c0.3-0.1,0.6-0.1,0.9-0.2c-0.4-7.3-0.7-14.5-1.1-21.8c-1.9,0-2.6,1.2-3.7,1.8c-2.7,1.2-7.7-1-8.4-3.7
	c-0.4-1.7,2.5-1.7,1.6-3.7c-0.6-1.3-0.6-3,2.2-3c-6.5-4.6-11.9-9.4-16.5-15.1c-4.8-6-6.5-12.6-6.1-20c0.3-6.3,1.5-12.4,3.9-18.3
	c0.4-1,0.8-2.3,2.1-2.4c1.2-0.1,1.4,1.2,1.9,2.1c1.1,1.9,2.5,3.6,4.4,4.6c4.6,2.4,6.8,6.6,8.1,11.3c2.9,10.3,4.1,20.9,7.6,31.1
	c0.6,1.8,0.9,3.8,2,5.5c1.1-0.5,1.1-1.6,0.8-2c-3-5.5,0.3-11,0-16.5c-0.3-4.5-0.1-9,0.2-13.5c0.2-2.4-0.8-3.4-2.8-4.2
	c-3.4-1.3-5-3.9-4.8-7.3c0.1-1.3,0.7-1.5,1.7-1.1c1.1,0.5,2.2,1,3.9,1.8c-1.1-5.1-2.1-9.7-3-14.3c-1-5.2-1.8-10.4-2.8-15.5
	c-1.7-8.7,1.6-15.8,7.1-22.1c2.8-3.2,6.3-5.7,9.5-8.5c1.3-1.2,2.4-1.5,3.5,0.5c3.6,6.6,6,13.5,7.6,20.8c0.4,1.9-0.3,3.7-0.7,5.5
	c-2,8.1-6.1,15.3-9.8,22.8c-1.6,3.2-3.4,6.4-4.3,9.9c0.4,0.1,0.6,0.3,0.8,0.3c1.8-0.1,3.7-2.3,5.3,0.2c0.6,1-2.2,6.8-3.5,7
	c-5.1,0.9-5.7,4.3-5.6,8.6c0.2,4-0.1,8-0.1,12c0,1.4,0,2.7,1.5,3.7c1.1-1.5,1.2-3.1,1.5-4.6c2.2-9.7,4.9-19.2,9.6-28
	c1.8-3.4,3.8-6.4,6.9-8.8c2.1-1.6,4-3.4,5.6-5.5c0.8-1.1,1.9-1.7,2.3,0.3c1.5,7.8,3.1,15.5,4.3,23.3c0.4,2.9-1.5,5.5-3.2,7.9
	C75.8,94,69.2,100,62,105.3C61.1,106,59.4,106.1,59.8,107.9c-0.1-0.1-0.2-0.2-0.4-0.3C59.6,107.7,59.7,107.8,59.8,107.9z M74.9,72.5
	c0.1-0.7,0.5-1.1,1.1-1.4c5.2-3.5,5.6-5.3,2.5-11.1c-1.3,3.2-2.4,6.3-3.8,9.4C74.3,70.4,74.4,71.4,74.9,72.5
	c-3,2.6-4.1,6.2-5.9,10.3c4-1.5,7-3.3,9.8-5.2c3.9-2.7,3.9-3,2.1-7.9C78.9,70.6,76.9,71.5,74.9,72.5z M85.2,157.7
	c-0.1-0.5-0.2-1.4-0.5-2.2c-0.4-1-0.8-2.5-1.6-2.8c-1.3-0.5-1.7,1.2-2.4,1.9c-1.9,2.1-3.8,4-6.2,5.5c-3.4,2.1-4.5,5.4-5.4,9
	c-0.4,1.8-0.2,2.4,1.7,1.6c5.5-2.1,9.9-5.8,13.7-10.2C85.2,159.9,85.3,159,85.2,157.7z M33.9,165.9c-0.3-5.9-0.7-11.8-3.3-17.1
	c-1.2-2.4-3.4-3.6-6.1-3.7c-2.2-0.1-3.3,0.5-1.7,2.8c2.1,2.8,2.8,6.1,3.8,9.3C27.8,161.1,30.3,163.8,33.9,165.9z M19,169.5
	c-0.1,1,0.5,1.4,0.9,1.8c1.6,1.4,3.2,2.8,5,4c3.6,2.7,9.5,2.5,12.9-0.4c0.4-0.3,0.7-0.6,0.6-1.2c-0.2-1.1-6.4-5.9-7.5-5.6
	C27.1,168.9,23,168.3,19,169.5z M47.2,27.3c-1.8,3.2-3.3,6.2-2.6,9.1c1.3,5.4,4.7,9.9,8.1,14.5c0.9-3,2.2-6,1.2-8.8
	C52.2,37.2,49.7,32.6,47.2,27.3z M21.3,167.6c2.1-0.2,4.6-0.4,7.1-0.7c1.2-0.1,1.9-0.5,1.1-1.9c-2.2-4.2-10-8-14.7-7.1
	c-0.6,0.1-0.8,0.3-0.9,0.9C13,163.4,16.4,167.6,21.3,167.6z M54.4,56.6c7.7-3.9,14-13.7,13.2-21.2c-2.8,4.3-6.2,7.5-9.5,10.8
	C55.1,49.1,54.2,52.4,54.4,56.6z M33.4,151.8c0.7,4,1.8,7.9,1.8,11.8c0,4.7,2.3,7.3,5.9,9.5C43.3,165,39.9,155.6,33.4,151.8z
	 M37.8,76.3c-1.7,4.6-3,8.9-5.7,12.5c-0.5,0.7-0.3,1.4,0,2.1c1.2,2.3,2.4,4.5,3.8,7.1C40.5,90.9,41.6,84.1,37.8,76.3z M65.9,25.8
	c-3.7,6.8-10.8,11.4-10,21c3.3-3.6,6.1-6.8,8.9-9.9C67.5,33.8,69,30.5,65.9,25.8z M67.3,180.3c8.1-1.6,14.9-8.4,15.5-15.8
	c-3.1,2.9-6.4,5.4-10.3,7C67.6,173.5,67,174.5,67.3,180.3z M30.5,92.9c0.7-1.2,0.2-2.2-0.2-3.3c-1-2.7-2.2-5.3-2.9-8.1
	c-0.6-2.8-3-3.1-4.8-4.2c-0.8-0.4-1.3,0-1.6,0.9c-1.4,3.6,0.1,9.2,3.3,11.4C26.2,91.1,28.1,92.4,30.5,92.9z M65.8,90.2
	c4.5-1.3,8.4-2.9,12.3-4.5c3.2-1.3,3.9-3.9,4.7-6.7c0.2-0.6,0.2-1.3-0.4-1.7c-0.6-0.4-1.1,0.2-1.7,0.5c-2.9,1.7-5.7,3.6-8.8,5
	C68.6,84.2,66.5,86.2,65.8,90.2z M68.7,147c-5.8,6-6.1,11.8-0.1,19.1C71.5,159.7,72.1,153.3,68.7,147z M31.6,68.8
	C30.8,75.3,27,81,30.9,87.4c2.7-2,3.4-5,4.5-7.8C37.7,73.5,37.6,73.4,31.6,68.8z M22.2,90c2.5,9.7,8.5,14.4,14.6,12.8
	c-1-1.9-1.9-3.8-3-5.6c-0.6-1-0.7-2.8-2.1-2.9C28,94.1,25.4,91.7,22.2,90z M50,180.6c0.9-7.9-2.9-13.4-7.9-19.4
	c0.3,3.7,1,6.6,0.7,9.3C42.3,176,46,178.1,50,180.6z M54.5,38.8c3.2-5.9,1.8-11.1-1.1-16.2c-0.4-0.7-0.8-1.5-1.6-0.8
	c-1.5,1.4-3.9,2.6-2.8,5.1C50.5,30.8,51.6,35.1,54.5,38.8z M61.5,98.3c8.6,0.9,12.1-5.4,16.4-10.5C72.1,90.6,64,89.7,61.5,98.3z
	 M71.9,160.4c3.5-1.6,5.9-4.3,8.2-7.1c2.8-3.4,2.7-4.3-0.6-7.7C75.2,149.4,72,153.8,71.9,160.4z M65.5,178c2.9-6.9,2.8-7.6-2.1-17.5
	C60.1,167.2,60.9,174.4,65.5,178z M44.9,41.8c0.8,6.7,0.2,13.9,7.2,18.9c-0.1-3,1.6-5.4-0.1-7.8C49.5,49.4,47.1,45.7,44.9,41.8z
	 M41.3,89.8c-5.2,9.5-5.2,12.2-0.3,16.1C45.7,100.8,42.1,95.7,41.3,89.8z M32.2,179.1c2.6,1.2,4.7,2.1,6.8,3C41,183,43,183,45,181.9
	c0.5-0.3,1.1-0.6,1.1-1.3c-0.1-0.9-5.4-5.1-6.3-4.7C37.5,177,34.8,177.2,32.2,179.1z M63.6,89.5c5.1-5.3,2.9-11.1,2.6-17.4
	C61.8,77.8,61.6,83.4,63.6,89.5z M63.4,19.7c-4.3,4-5.6,9.1-5.7,15.2c2.8-2.9,4.2-6.1,6.4-8.7C66.1,23.8,65.7,21.8,63.4,19.7z
	 M71.2,64.2c-4,3.4-4.9,8.8-2.5,15.4C71.6,74.7,73.9,70,71.2,64.2z M24.6,156.8c-0.3-2.9-1.2-5.4-2.6-7.8c-2.7-4.5-3-4.7-9.4-3.1
	C17.2,149.4,21,152.9,24.6,156.8z M65,116.6c-7.3,2.5-8.5,6.7-3.5,12.3C62.7,124.8,64.4,121,65,116.6z M61.7,134.2
	c8.6-4.7,10-6.7,8-11.5C66.8,126.3,61.9,128.2,61.7,134.2z M58.4,137.5c3.5-5.7,0.1-10.1-1.4-14.7C55.5,127.8,53.8,132.8,58.4,137.5
	z M40.9,142.3c-1.8-3.6-4.7-3.9-7.6-4.2c-1-0.1-2.4-1.1-3.1,0.1c-0.6,1.1,0.3,2.4,0.8,3.5c0.6,1.3,2,1.5,3.2,1.5
	C36.3,143,38.4,142.7,40.9,142.3z M12.1,147.4c-0.1,8,2.2,10.1,8.9,8.6C18.4,152.8,15.6,150.1,12.1,147.4z M53.5,65.7
	c4.9-2.2,5.2-6.8,6.8-10.5C53,59.8,53.9,57.8,53.5,65.7z M59.4,141.6c4.5-2,8-4.1,8.9-10C64.7,135,59.4,135.4,59.4,141.6z M26,64
	c0.3,4.9,0.7,9.2,2,14C31.2,66.8,31.6,68.3,26,64z M41.6,139.6c0.4-3.1-0.5-5.7-1.5-8.1c-0.5-1.2-2-1.6-3.2-1.3
	c-1.4,0.4-0.4,1.6-0.4,2.5C36.4,136.1,38.6,137.9,41.6,139.6z M59.6,97.2c3.4-4.1,3.7-7.6,0.9-12C58.8,89.1,58.1,93,59.6,97.2z
	 M24.3,65.1c-0.8,3.1-1.8,5.7-2.3,8.5c-0.4,2.2,1.4,3.4,3.1,3.4c2,0.1,1.1-1.9,0.9-2.8C25.6,71.3,26.1,68.2,24.3,65.1z M41.5,111.2
	c-2.7-6.3-3.6-6.9-10-6.7C34.5,107.4,36.9,110.4,41.5,111.2z M54.8,187.9c-1.2,0.5-3.5-0.5-3.5,1.5c0,1.8,1.9,3,3.8,2.8
	c1.7-0.1,4.5,0.2,4.6-2C59.7,187.2,56.6,188.6,54.8,187.9z M58.8,15.7c-5.6,4-5.9,5.9-1.7,10.6C57.9,22.9,58.8,19.6,58.8,15.7z
	 M72,151.8c1.8-3.9,2.2-8.2,1.3-11.5C69.5,143.9,69.3,145.6,72,151.8z M44.2,103.6c-2.9,4.3-1.9,7.4,3.3,10.5
	C46.5,110.4,45.7,107.1,44.2,103.6z M74.8,148.3c4.7-3.3,4.8-4.7,0.5-10.5C75.6,141.7,74.2,144.8,74.8,148.3z M64.2,188.9
	c3.3-2.3,5.6-5,8.1-8.1C67.6,181.5,64.5,183.3,64.2,188.9z M36.3,145.1c5.6,3.6,5.7,3.6,9,1.6C42.6,143.3,42.5,143.3,36.3,145.1z
	 M67,99.1c-4.3,0.9-8.3,0.2-9.2,5.3C61.6,104.3,64,102.1,67,99.1z M51.5,175.1c-0.6,6.4-0.2,7,4.9,8.6
	C55,180.7,53.6,177.9,51.5,175.1z M73.7,190.8c-3.2-1.9-5.8-0.9-8.7,0.7C68.3,193.1,71,194,73.7,190.8z M51.3,67.5
	c0.8-4.4,0.1-5.9-3.9-8.1C48,62.4,48.3,65.4,51.3,67.5z M35.2,136.1c-2.4-2.1-4.2-3.6-5.9-5.1C28.3,135.4,29.3,136.4,35.2,136.1z
	 M64.1,125.7c5.2-3.4,5.6-4.9,2.7-8.5C65.9,119.9,65.1,122.4,64.1,125.7z M45.7,143.6c1.2-3.8-1-6.3-2.6-8.9
	C43.9,137.6,41.6,141.4,45.7,143.6z M63.1,185.2c2.5-4.2,2.3-4.9-1.7-7.9C61.6,182.2,61.6,182.3,63.1,185.2z M56.5,144.2
	c1.9-3.2,1.7-5.7-1.3-7.8C54.4,139.2,53.8,141.7,56.5,144.2z M76.7,59.5c-4.2,2.4-4.6,3.6-2.6,7.5C75.5,64.6,76.6,62.3,76.7,59.5z
	 M54.3,76.8c1.1-0.2,1.9-0.3,2.8-0.5c1.7-0.4,1.8-1.9,2.1-3.2c0.1-0.5-0.1-1-0.8-1c-1.3,0-2.5,0.4-3.3,1.5
	C54.5,74.3,54.1,75.3,54.3,76.8z M60.5,200c1.2-0.6,1.6-1.8,2.1-3c0.5-1.2,0.3-2.5-0.7-3c-1.4-0.6-1.6,1.1-2.1,1.9
	C58.8,197.4,59.2,198.8,60.5,200z M45.2,184c3.3,0.5,5.6,1.7,8.3,1.3C51.1,184.5,49.3,180.3,45.2,184z M50.7,155.9
	c1.3,0.1,2.6,0.1,2.5-0.9c-0.3-2.2-2.5-1.6-3.9-2c-0.7-0.2-1.7,0.1-1.6,1C47.8,156,49.6,155.8,50.7,155.9z M41.7,122.7
	c2.9,3,4.5,2.8,6.3-0.6C45.8,121.8,43.9,122.4,41.7,122.7z M30.7,128.8c1.5,2,2.4,3.7,4.6,4.7C35,130.6,34.4,128.6,30.7,128.8z
	 M49.4,75.7c-1-2.3-1.9-3.8-4.3-4.3C44.9,74.5,46,75.9,49.4,75.7z M60.6,14.7c-0.5,2.7-0.8,4.5-1.1,6.4
	C61.4,19.4,63.4,17.9,60.6,14.7z M62.5,142.6c-2.6,0.7-5.2,1.6-4.2,5.8C60,146.1,61.3,144.4,62.5,142.6z M53.8,111.9
	c2.4-0.2,4.2,0.7,5.7-0.9c0.3-0.4,0.3-1.2-0.2-1.2C57.5,109.5,55.7,109.4,53.8,111.9z M47.4,119.8c-2.1-1-3.4-2-5-1.4
	c-0.4,0.2-0.2,0.9,0.1,1.3C43.8,121.3,45.2,120.7,47.4,119.8z M51.7,109.1c0.2-2.3,1.6-4.2-0.2-6.3
	C50.1,104.8,49.7,106.6,51.7,109.1z M55.4,154.3c1.2-1.7,2.2-3,1.3-4.7c-0.3-0.5-0.8-0.4-1.2,0C54.1,151,54.4,152.4,55.4,154.3z
	 M57.5,97.3c-0.3,1.8-1.1,2.9-0.7,4.4C58,100.5,59.2,99.6,57.5,97.3z M49.3,150.1c-0.7-0.9-1.1-2.5-2.7-1.3
	c-0.1,0.1-0.1,0.4-0.1,0.7c0.7,0.3,1.4,0.5,2.1,0.7C48.8,150.3,49.1,150.2,49.3,150.1z M54.3,68.8c-0.1-0.2-0.1-0.8-0.2-0.8
	c-0.7-0.2-0.7,0.4-0.8,0.8c-0.1,0.3-0.1,0.9,0.1,0.9C54,69.9,54,69.3,54.3,68.8z M42,112.6c0.4,0.6,0.5,1,0.7,1.2
	c0.4,0.3,1,1.2,1.1-0.1C43.9,113.3,43.2,112.8,42,112.6z M55,145.9c-0.1,0.2-0.3,0.5-0.2,0.6c0.1,0.2,0.4,0.2,0.6,0.4
	c0.1-0.2,0.2-0.5,0.2-0.7C55.5,146,55.2,146,55,145.9z M48.3,145.7c-0.1-0.2-0.1-0.4-0.3-0.5c-0.1-0.1-0.4,0.1-0.5,0.2
	c0.1,0.2,0.1,0.5,0.3,0.6C47.9,146,48.2,145.8,48.3,145.7z M56.5,106.6c0-0.1-0.1-0.2-0.1-0.3c-0.1,0-0.3,0.1-0.3,0.1
	c0,0.1,0.1,0.2,0.1,0.3C56.3,106.7,56.4,106.6,56.5,106.6z M51.2,70.6c-0.1-0.2-0.3-0.4-0.4-0.6c-0.1,0.1-0.3,0.2-0.2,0.3
	c0,0.2,0.1,0.4,0.2,0.7C50.9,70.9,51,70.8,51.2,70.6z"/>
</svg>
