<?xml version="1.0" encoding="utf-8"?>
<!-- Generator: Adobe Illustrator 25.3.0, SVG Export Plug-In . SVG Version: 6.00 Build 0)  -->
<svg version="1.1" id="Layer_1" xmlns="http://www.w3.org/2000/svg" xmlns:xlink="http://www.w3.org/1999/xlink" x="0px" y="0px"
	 viewBox="0 0 114.6 222.2" style="enable-background:new 0 0 114.6 222.2;" xml:space="preserve">
<path d="M55.8,222.2c2.9-14.5-5.4-24.9-11.2-36.3c-10.1-20.2-14.5-42.2-18.6-64.3c-1.5-8-3.3-15.8-8.2-22.6c-1.5-2.1-4.1-4.8-1.1-7
	c2.7-1.9,5,1.1,6.7,3C35.1,108.9,45,124,52.7,140.5c0.5,1.1,1,2.3,2.2,3.4c0.2-16.8,0.6-33.6-1-50.3c-1-10.3-1.7-20.4-7.9-29.3
	c-2.3-3.3-4.5-4.6-8.5-4.3c-8.1,0.7-16.2,0.1-24.2-0.8c-4-0.5-8.9-0.7-10.1-5.2c-1.1-4.5,4.8-4.2,7.2-7.6c-2.4-0.9-4.7-1.7-7-2.7
	c-1.8-0.8-3.6-1.8-3.4-4c0.2-2.2,2.2-3.1,4-3.4c3.3-0.6,6.8-0.7,10.3-1.1c-0.2-3.7-3.3-5.1-4.5-7.7c-1.2-2.5-4.2-4.9-1.6-8
	c2.1-2.5,5-1.3,7.5-0.3c4.2,1.6,8.3,3.4,13.9,5.7c-2-4.5-3.5-7.8-4.9-11.1c-0.6-1.4-1.8-3-0.2-4.4c1.4-1.3,3-0.7,4.6-0.2
	c5.1,1.5,8.5,5.5,13.3,9.2c0.2-4.2,0.3-7.7,0.5-11.3c0.3-5.5,3.1-5.8,6.9-2.9c4.4,3.3,6.8,8.2,10,13.4c2.8-4.8,4.1-9.9,7.4-13.8
	C69.1,1.7,71-0.7,74,0.2c3,0.9,3.5,3.9,3.6,6.6c0.1,4,0,8.1,0,12.1c1.6,1,2.2-0.7,3.1-1.3c3.3-2.1,6.5-6.7,10.5-3.9
	c3.6,2.5,1.8,7.5,1.2,11.4c-0.3,2.1-1.3,4.1-2.2,6.6c3.7,0.7,6.9-1.1,10.1-1.5c2.8-0.4,5.5-0.9,7.1,2c1.8,3.1,0.4,5.8-1.7,8.1
	c-2,2.1-4.3,3.9-6.9,6.3c3.4,2.5,7.5,1.5,10.7,3.1c2.5,1.2,5.2,2.5,4.9,5.7c-0.3,3.4-3.4,4.1-6,4.2c-11,0.6-22,2.9-33.1,1.2
	c-4.6-0.7-6.9,0.8-9,4.6c-5.3,9.4-7.6,19.2-7,30.2c0.8,13.8,0.2,27.7,1.3,41.7c4.8-10.5,9.6-20.6,16.9-29.2
	c3.1-3.7,6.4-7.4,10.4-10.1c1-0.7,2.7-1.3,3.7-0.9c1.4,0.6,1,2.2,0.5,3.5c-7.6,19.9-8.6,41.1-12.9,61.6
	c-3.1,14.7-9.3,28.1-15.3,41.6C61.4,210,61.1,216.9,55.8,222.2z M49.5,187.4l0.4-0.4l-0.5,0.2c1.4-2.3,0.7-4.6,0-7
	c-2.7-9.9-5.1-19.8-8-29.6c-2.4-8.1-5.4-16-9.6-23.3C35.2,148.1,42.1,167.8,49.5,187.4z M32.6,115.3c-0.1-0.2-0.2-0.4-0.4-0.5
	c-0.1-0.1-0.3,0-0.4,0c0.3,0.1,0.6,0.2,1,0.3c-1,2.6,0.5,4.8,1.5,6.9c8,17.4,13.4,35.7,18,54.3c0.5,2.1,0.3,4.7,3.1,6.8
	C55.9,157.1,48.6,134.7,32.6,115.3z M12,23c9.2,13.8,18.5,26,35.6,29.8C38.1,40.1,31.3,25,12,23z M61.5,194.1
	c12.8-21.7,15-46.2,18.9-70.2C71.4,146.6,66.7,170.4,61.5,194.1z M72.2,5.7C61.2,18.9,59.6,34.4,59.8,50.5
	C67.9,36.7,74.6,22.5,72.2,5.7z M88.4,16.9c-13.7,6.2-15.7,19.7-21.7,32C82.5,40.6,90.1,29.1,88.4,16.9z M81.1,111
	c-14.9,17.7-19.3,38.6-19.2,60.9C68.2,151.5,71.6,130.3,81.1,111z M46.7,6.2c-0.5,14.2,3.5,25.7,7.4,38.3
	C58.3,30.4,59.9,17.8,46.7,6.2z M68.7,53.8c13.4-2.9,26-7.5,36.1-19C87,32.4,80.9,48.6,68.7,53.8z M50.7,49.4
	C47.4,33.8,45,20.2,29.2,14C34.5,26.7,40.9,37.8,50.7,49.4z M39.4,55.8C23.3,45.7,18,45.4,7.5,53.7C18.2,56.3,28.3,56.5,39.4,55.8z
	 M57,74.2c2.6-4.9,4.8-9.2,7.4-14.2c-5.8-0.5-10.6-0.9-16.4-1.4C51.4,64.5,54,68.9,57,74.2z M80.6,56.9c10.3,0.9,19.1-1.1,28-2.4
	C99.4,50.6,90.3,48.3,80.6,56.9z M22.3,44.4c-4-7.7-9.1-4.4-13.4-5.4c-0.1,0.7-0.3,1.5-0.4,2.2C12.7,42.2,17,43.2,22.3,44.4z"/>
</svg>
