<?xml version="1.0" encoding="utf-8"?>
<!-- Generator: Adobe Illustrator 25.3.0, SVG Export Plug-In . SVG Version: 6.00 Build 0)  -->
<svg version="1.1" id="Layer_1" xmlns="http://www.w3.org/2000/svg" xmlns:xlink="http://www.w3.org/1999/xlink" x="0px" y="0px"
	 viewBox="0 0 67.5 223.4" style="enable-background:new 0 0 67.5 223.4;" xml:space="preserve">
<path d="M41.6,161.1c0-8.1,0.3-16.2-0.1-24.3c-0.3-6.5-3.8-12.1-6.1-18c-0.6-1.6-2.3-1.8-3.9-2c-1.9-0.3-5.1,0.2-4.9-2.7
	c0.2-2.9,3.5-1.3,5.7-2.4c-1.2-3.9-1-8.9-7.7-7.7c-2.5,0.4-5-1-4.6-3.8c0.4-2.8,3.1-2.3,5.2-1.7c0.5,0.1,1,0,2.2,0
	c-2.5-3.5-1.2-9.3-7.6-9.1c-2.4,0.1-5.8,0-5.7-3.4c0.1-4.3,4-2,6.5-2.6c-0.4-5-2.4-7.5-7.8-6.1c-2.1,0.5-5.3,0.8-5.5-2.4
	c-0.2-3,2.5-3.4,5-3.3c0.7,0,1.5,0,2.8,0c-0.9-4-2.2-6.8-6.7-6.3c-0.9,0.1-1.9-0.1-2.9-0.3C4,64.5,2,64.3,2.3,62.3
	c0.3-2.3,2.2-2.3,4-1.8c0.7,0.2,1.5,0.2,2.8,0.4c-0.5-2.7-2.2-4.2-3.7-5.7c-0.9-1-2.2-1.7-3-2.7c-1.4-1.9-4-4.3-1-6.3
	c2.4-1.6,3.9,1.4,5.3,3.2c1.8,2.4,0.8,6.3,4,8.1c2-1.2,0.9-6.1,4.4-4.7c2.6,1.1,1.6,4.6,0.9,6.8c-1.1,3.7-0.8,6.8,2,9.5
	c2.4-0.3,2.2-5.3,5.1-3.3c2.8,1.9,1.1,5.1-0.4,7.2c-2,2.8-0.9,5,0.5,7.5c2-0.2,1.9-4.2,4.3-2.4c1.4,1.1,1.2,3.4,0.4,4.9
	c-2.3,4-0.6,7.4,1.1,11c2,1.2,2.9-3.2,4.7-1.1c1.6,1.8,1,4.1,0,6c-1.2,2.3-1,4.3,0,6.6c2.6,6,5,12.1,7.7,18.7c1.9-3.1,0.9-6.2,1.3-9
	c0.5-4,0.5-8.1,1-12.1c0.6-4.9,1.1-9.7-4.4-12.5c-0.6-0.3-1.1-1.1-1.5-1.7c-0.7-1.1-1.9-2.3-0.5-3.5c1.3-1.1,2.5,0,3.5,0.9
	c0.8,0.7,1.7,1.5,3.2,3c0-5.6,3.5-11-3.5-14.3c-0.9-0.4-1.5-1.7-2-2.8c-0.5-1-1.1-2.1-0.2-3.2c1.3-1.6,2.4-0.2,3.5,0.4
	c1,0.5,1.8,1.3,3.3,2.3c0.3-3,0.4-5.4,0.9-7.8c0.5-2.5-0.2-4.1-2.6-5c-0.9-0.3-1.7-0.9-2.4-1.6c-1.3-1.4-3-3.1-1.3-5
	c1.8-1.8,3,0.4,4.3,1.3c0.6,0.4,1.2,0.8,2.3,1.5c0.5-4.8,2-9.1-2.9-12c-0.2-0.1-0.2-0.3-0.3-0.5c-1.1-2.2-3.8-4.9-1.7-6.7
	c2.4-2,3.1,2.5,6.2,3.4c-0.2-5.3,3.1-10.7-2.9-14.9c-0.4-0.3-0.8-0.9-1-1.4c-0.7-1.5-2.5-3.2-0.5-4.6c1.6-1.1,2.6,0.9,3.8,1.8
	c0.4,0.3,0.9,0.6,1.6,1.1c1.3-4.1,1.2-8,0.7-12c-0.4-3.1,0.1-6.2,2.1-8.8c0.6-0.7,1.5-0.6,1.9,0.2c1.7,3.1,1.6,6.3,0.6,9.6
	c-1,3.2-3.3,6.1-2,9.7c2.6,0.5,4.2-4.7,6.5-1.7c1.9,2.5-1,5.4-3,6.6c-5.5,3.4-4,8.6-4.6,13.3c0.6,0.2,1,0.5,1.2,0.4
	c1.8-1,3.6-4.4,5.7-1.7c1.9,2.4-0.7,5.1-2.6,6.2c-4.3,2.5-5.8,5.8-4.7,10.7c0.4,0,1,0.2,1.5,0.1c2-0.7,4.3-3.5,6-0.4
	c1.4,2.6-1.3,4.8-3.1,5.4c-7.6,2.3-4.8,8.4-5.9,13.2c2.9,0.7,3.9-1.4,5.6-2.2c1.2-0.6,2.6-1.5,3.7-0.3c1.5,1.6-0.2,2.8-1.1,4
	c-0.6,0.8-1.4,1.7-2.2,1.8c-7.9,1.5-6.7,7.4-6.7,13c3.2,0.3,4.8-2.6,7.4-3.2c1.2-0.3,2.5-0.5,3.2,0.6c0.8,1.2-0.1,2.2-1,3
	c-1.4,1.3-2.8,3.2-4.5,3.6c-8.1,1.8-5.4,8.1-6.3,13c1.7,0.4,2.3-0.5,3.1-1c1.7-1,3.7-3.6,5.3-0.9c1.3,2.1-1.1,4.1-3,4.9
	c-5.5,2.3-5.6,6.7-6.2,11.7c-1.3,10.6,1,20.2,5.1,29.8c6.6,15.7,12,31.8,15.7,48.5c0.3,1.5,1.1,2.9,0.2,4.7c-2.9-0.7-3-3.1-3.6-5.2
	c-4.3-15.7-9.3-31.1-15.1-46.3c-0.7-1.7-1.4-3.4-2.5-5c-1.6,25.7-0.5,51.1,3.3,76.7c-2.9-0.2-2.6-2.1-2.9-3.4
	c-2.8-11.5-4.5-23.2-4.8-35c-0.2-9.1-2.7-17.5-5.5-26c-0.6-1.8-1.1-3.7-3.8-3.5c-2.3,0.1-5.9,1-6.1-2.4c-0.3-3.2,3.6-2.5,5.8-3.4
	c-0.8-3.2-1.8-5.7-5.8-5.2c-2.1,0.3-5.4,1.1-5.6-2.1c-0.2-3.3,3.3-2.4,5.8-2.8c-1.8-3.8-2.8-7.7-8.1-3.8c-1.9,1.4-5.3,1.8-5.8-1.1
	c-0.7-3.5,2.9-3.8,5.6-4.2c-0.2-1.7-1.8-2-2.5-3.1c-0.7-1.2-1.5-2.5-0.3-3.7c1.4-1.4,2.4,0.1,3.4,0.8c1.3,0.9,2.2,3.9,4.3,0.8
	c0.6-1,1.5-2,2.8-1c1.1,0.8,1.1,2.1,0.8,3.2c-0.3,1.3-0.9,2.5-1.1,3.9c-0.3,1.9,1,3.3,2.3,4.5c1.7,1.6,2.1-0.4,3-1.3
	c0.7-0.7,1.3-1.6,2.4-1c1.2,0.6,1.4,2.1,1,3c-4.4,10.1,5.9,16.1,5.5,25C40.2,161.4,40.9,161.3,41.6,161.1z"/>
</svg>
