<?xml version="1.0" encoding="utf-8"?>
<!-- Generator: Adobe Illustrator 25.3.0, SVG Export Plug-In . SVG Version: 6.00 Build 0)  -->
<svg version="1.1" id="Layer_1" xmlns="http://www.w3.org/2000/svg" xmlns:xlink="http://www.w3.org/1999/xlink" x="0px" y="0px"
	 viewBox="0 0 155.9 245.5" style="enable-background:new 0 0 155.9 245.5;" xml:space="preserve">
<path d="M107.1,115.2c2.1-0.2,3-2,4.3-3.3c3.5-3.5,7.4-6.2,12.4-7c1.1-0.2,2.4-0.7,3,0.6c0.5,1.1-0.5,1.9-1.3,2.5
	c-3.1,2.7-5.7,6-9.1,8.5c2.8-0.2,5.4-0.3,7.9,0.9c2.3,1.1,2.7,2.6,0.5,3.9c-5.5,3.3-10,7.7-14.7,12.1c-4.9,4.6-11.2,5.7-17.8,4.6
	c-2.6-0.4-5.2-0.9-7.8-0.7c-2,0.1-3.9,0-5.6-2.2c-2.8,7.8-5.6,15.2-7.4,23c0.4,0,0.6,0.1,0.7,0.1c3.3-5.1,8.2-8,13.8-9.9
	c5.1-1.8,9.8-4.2,14.3-7.1c1.7-1,3.4-1.9,5.4-2.2c1-0.2,2.1-0.2,2.8,0.7c0.8,1,0.7,2.2,0.1,3.1c-3.8,6-8.5,11.4-16,12.3
	c-5.9,0.8-11.2,2.6-15.7,6.5c-1.5,1.3-3.3,2-5.4,1.6c-1-0.2-1.6,0.2-1.8,1.2c-1.2,5.1-2.3,10.2-2.9,15.8c5.4-5.4,12.4-8.4,16.4-14.9
	c2-3.2,5.4-5.4,8.7-7.3c1.8-1,4.1-2,5.6-0.2c1.7,2-0.2,3.8-1.4,5.3c-0.6,0.8-1.4,1.5-2.2,2.1c-5,3.9-9.5,8.2-12.9,13.6
	c-2.5,4-6.6,5.9-11.2,6.8c-3.9,0.7-3.9,0.8-4.1,4.7c-0.6,11.3-0.7,22.5-1.7,33.8c-0.1,0.7-0.3,1.5,0.3,1.9c0.7,0.5,1.5-0.2,2.1-0.5
	c3.4-2,6.4-4.5,9.2-7.2c1-1,1.2-1.9,0.5-3.2c-1-2-1.1-4.1-0.6-6.2c0.8-3.5,0.6-7,0.1-10.6c-1.1-7.2,2.4-13,6.6-18.3
	c1.4-1.8,3.4-1.2,4.4,1c0.9,2,0.6,4-0.2,5.9c-1.1,2.4-2.3,4.7-3.4,7.1c-1.4,2.9-1.8,5.7-0.9,8.9c0.6,2.1,0.7,4.3,1.1,6.8
	c2.7-3.1,4.5-6.4,6.2-9.8c1.4-2.7,2.1-5.3,1.4-8.5c-0.9-4,0.4-7.9,2.3-11.5c2.8-5.3,5.6-10.7,7-16.6c0.4-1.5,1.2-2.8,2.2-3.9
	c1.8-2,3.9-1.6,4.9,0.9c0.8,2,0.6,4,0.2,6c-0.5,2.4-1.3,4.7-2.4,6.9c-2.2,4.5-4.4,9-5.1,14c-0.5,3-2.3,5.3-4.9,6.8
	c-1.1,0.7-2,1.5-2.5,2.8c-2.2,5.9-5.5,11.1-9.5,15.9c-0.3,0.3-0.6,0.6-0.3,1.5c4.8-4,11.5-5,15.4-10.3c1.7-2.2,3.7-4.2,6-5.9
	c0.8-0.6,1.7-1.1,2.7-1.3c2.5-0.4,3.8,1.1,2.9,3.5c-0.9,2.2-2.4,3.9-4.3,5.2c-2.5,1.7-4.8,3.5-6.8,5.7c-4.9,5.1-10.9,7.4-17.9,7.1
	c-2-0.1-3.4,0.4-4.7,1.8c-2.4,2.5-5.3,4.4-8.3,6.6c2.1,1.1,4,0.4,5.8-0.2c1.8-0.6,3.4-1.5,5.1-2.3c3.5-1.8,7-2.8,11-2.2
	c1.6,0.3,3.4-0.2,5.1-0.2c3.7,0,5.2,2.4,3.9,5.8c-0.8,2-2.3,3.3-4.2,4.2c-2.5,1.1-5.1,1.3-7.7,0.9c-3.6-0.6-7.1-0.7-10.5,0.5
	c-4,1.4-7.5,0.8-10.5-2.4c-0.4-0.4-0.9-1-1.5-0.8c-0.8,0.3-0.5,1.2-0.6,1.8c0,0.1,0,0.2,0,0.3c-0.3,1.3,0.5,3.7-0.6,3.6
	c-1.8-0.1-0.8-2.3-0.8-3.6c0-2.2-0.8-2.9-2.6-4.3c-2.8-2.1-5.8-2.8-8.8-3.9c-2.4-0.8-3.7-2.9-4.5-5.2c-1.7-4.9-3.6-9.7-7.7-13.2
	c-1.1-1-1.5-2.6-0.6-4c0.9-1.6,2.5-2.3,4.3-2.2c2.9,0.2,5.1,1.8,6.9,3.9c1.5,1.7,2.6,3.8,3.3,6c0.6,1.8,1.6,3.4,3.1,4.5
	c2.4,1.7,5,3.1,6.8,5.6c0.8-1.2,0.7-2.2,0.7-3.2c0.4-8.3,0.7-16.6,1.1-24.9c0.1-2-0.2-2.8-2.3-1.7c-1.8,1-3.8,1.5-5.9,1.5
	c-4.3,0-8.2,1.2-12,2.9c-2.1,1-4.2,1.8-6.5,2c-1.3,0.1-2.6-0.2-3.3-1.5c-0.7-1.4-0.2-2.7,0.8-3.7c1.3-1.4,3.1-2.1,4.9-2.4
	c3.4-0.6,6.5-1.7,9.3-3.9c3.2-2.5,7.2-2.2,10.8-1.4c-2-2.2-4-4.6-6.2-6.7c-1.1-1-2.6-0.6-3.9-0.2c-4.5,1.4-8.2,0.5-11.6-3
	c-1.9-2-4.4-3.5-6.6-5.2c-2.5-2-4.5-4.4-5.9-7.2c-0.6-1.2-1.1-2.5,0-3.5c1-1,2.4-0.8,3.6-0.2c2.8,1.3,5.1,3.3,7.3,5.4
	c2.4,2.4,4.5,5.1,7.7,6.6c1.6,0.8,3.2,1.6,4.9,1.8c0.6-0.6,0.1-1-0.1-1.4c-3.9-6.8-6.6-14.1-8.2-21.8c-0.4-2.2-1.1-3.2-3.7-2.7
	c-5.2,0.9-9.3-1.6-12.3-5.6c-2.6-3.3-5.3-6.3-8.9-8.5c-0.3-0.2-0.5-0.4-0.8-0.6c-2.2-1.9-2.9-4.7-1.7-6.6c1-1.5,3.7-1.9,6.3-0.6
	c3.4,1.7,6.5,3.8,8.5,7.3c1.3,2.2,3,4,5.5,5.1c1.6,0.7,3.1,1.6,4.8,2.6c0.4-1.2,0-2.4-0.2-3.5c-0.9-6-1.5-11.9-1.9-18
	c-0.1-2.1-0.7-3.1-3-3c-5.1,0.2-8.3-3.3-11.7-6.4c-1.9-1.7-3.7-3.5-5.7-5c-3.1-2.4-4.9-5.6-5.8-9.3c-0.2-1.1-0.7-2.3,0.4-3
	c1.1-0.7,2.3-0.4,3.4,0.2c3.1,1.8,5.8,4.1,8.2,6.8c2.9,3.3,5.8,6.4,9.9,8.2c1,0.5,1.8,1.5,2.9,2.4c0.7-2.6-0.1-5.1-0.5-7.5
	c-0.5-3.3-1.4-6.3-4.1-8.7c-2.9-2.6-3.3-6.4-3.7-10c-0.4-4-1.3-7.7-3.2-11.1c-1.3-2.4-1.9-4.9-1.1-7.6c1.1-3.9,3.6-4.6,6.5-1.7
	c2.2,2.3,3.3,5.2,3.5,8.3c0.3,4.4,0.5,8.7,2.9,12.7c1.3,2,1.5,4.5,0.7,6.9c-1.1,3.1-1,6-0.4,9.2c0.6,3,0.7,6.2,1.5,9.7
	c2.1-2.3,2.8-4.9,3.4-7.3c1-3.8,1.7-7.6,2.2-11.5c0.4-3.9,2.4-7.4,4-10.9c0.5-1.1,1.5-1.9,2.8-1.7c1.3,0.2,2.1,1.1,2.5,2.2
	c0.7,1.8,0.5,3.5-0.2,5.2c-2.5,5.7-4.4,11.5-5.8,17.6c-1,4.3-3.7,8-6.7,11.3c-1.3,1.4-1.7,2.8-1.4,4.6c0.7,5.6,1.3,11.1,1.9,16.7
	c0.1,0.5,0.2,1.1,0.6,1.6c1.8-4.5,3.2-9,3.8-13.8c0.4-3.7,0.2-7.5,1.3-11.1c0.5-1.6,1.1-3.2,2-4.7c0.7-1.2,1.5-2.1,3-1.9
	c1.5,0.2,2,1.5,2.3,2.7c0.6,2.1,0.3,4.3-0.4,6.3c-2.1,5.6-3.3,11.3-3.5,17.3c-0.2,4.6-2.6,8.5-5.3,12.2c-1.4,2-1.8,4-1.1,6.4
	c1.8,6.8,4,13.5,8.1,19.5c-0.3-3.9-0.4-7.8-0.8-11.6c-0.5-4-1.3-8-1.9-12.1c-0.3-2.1-0.2-4.3,0.8-6.2c0.5-1,1.3-1.9,2.6-1.8
	c1.3,0.1,2,1,2.4,2c0.7,1.7,0.7,3.5,0.7,5.3c-0.2,4.5,0.3,9,1.5,13.3c0.9,3.4,0.4,6.7-0.3,10.1c-1.5,7.4,1,12.5,7.5,15.9
	c1,0.5,1.5,0.3,1.6-0.7c0.6-6.3,2.1-12.5,3.4-18.8c0.3-1.5-0.5-2.6-1.7-3.5c-5.9-4.4-8.8-10.4-8.6-17.8c0.1-3.1-0.8-6-1.8-8.9
	c-1.3-3.5-2.1-7.2-2.2-10.9c0-2.9,1.4-5.2,3-5.2c1.7-0.1,3.7,2,3.8,4.7c0.1,6.5,2.2,12.3,5.2,17.9c1.6,2.9,2,6.1,2,9.4
	c0,2.6,0.7,5.1,1.9,7.9c2.6-7.6,5-14.7,7.4-21.8c0.4-1.1,0-2-1-2.6c-9-5.9-13.3-14.8-15.4-25.1c-0.6-2.9-1.7-5.7-2.9-8.4
	c-1.6-3.9-2.2-8-1.5-12.2c0.2-1.3,0.5-2.6,2-3c1.3-0.4,2.3,0.6,3.1,1.4c2.5,2.8,4,6.3,4.9,9.9c2.3,9.3,4.9,18.5,11.4,26
	c1,1.2,1.4,2.9,2.2,4.6c1.5-2,1.6-4.3,2.2-6.4c1.2-4.5,2-9.1,3.1-13.6c0.4-1.7,0.1-2.7-1.6-3.7c-6.9-4.1-11.8-10.1-16-16.7
	c-2.8-4.4-5.6-8.9-7.1-14c-0.5-1.8-1.2-3.5-1.2-5.4c0-2.3,1.6-3.4,3.8-2.5c1.5,0.6,2.6,1.8,3.6,3.1c3.3,4.3,5.4,9.2,8.1,13.8
	c0.8,1.4,1.6,2.8,2.9,3.8c3.7,3,7,6.3,8.7,11.6c1.2-3,1.1-5.5,1.2-8c0.3-4.2,0.2-8.5,0.2-12.7c0-1.2-0.1-2.2-1.6-2.5
	c-4.5-0.9-7.7-3.8-10.7-6.9c-5.7-5.8-10.7-12.3-15.5-18.8c-0.2-0.2-0.3-0.4-0.4-0.6c-0.7-1.3-1.7-2.7-0.4-3.9c1.3-1.3,2.7-0.3,4,0.4
	c2.1,1.3,3.9,3,5.6,4.7c3.6,3.7,7.3,7.3,11.7,10.1c2.7,1.7,4.7,4.2,6.4,6.8c0.3-0.1,0.5-0.2,0.5-0.2c-0.5-6.1-0.1-12.4-3.6-17.9
	c-2.9-4.5-4.3-9.6-5-14.8c-0.6-5-1.3-10.1-2-15.1c-0.2-1.3-0.3-2.7,0.2-4c0.3-1,0.7-2,1.9-2.2c1.2-0.3,1.9,0.5,2.5,1.3
	c1,1.3,1.8,2.7,2.4,4.2c4,10.4,5.1,21.2,4.1,32.2c-0.4,4.8,1.3,9.4,1.2,13.9c0.5,0.3,0.7,0.2,0.8-0.1c2.7-7.8,7.4-14.7,11.1-22
	c0.6-1.1,1.3-2.2,2.2-3.1c1.3-1.3,2.5-0.9,3,0.8c0.5,1.5,0.3,3,0,4.5c-1.7,7.8-5.1,14.9-8.8,21.8c-1.9,3.5-3.5,7.2-7.1,9.5
	c-0.6,0.4-0.6,1.2-0.6,1.9c0,6.1-0.2,12.2-0.7,18.3c0,0.2,0.1,0.4,0.2,0.7c0.2,0,0.5,0,0.5-0.1c4.9-9.6,13-16.8,18.4-26.1
	c0.8-1.3,2-3.2,3.7-2.4c2,0.8,1.1,3,0.8,4.6c-1.6,8.8-5.4,16.5-11.8,22.9c-3.7,3.7-7.9,6.9-12.4,9.6c-0.8,0.5-1.2,1.1-1.4,2
	c-1.6,8.7-4.1,17.3-6.6,25.8c-0.2,0.5-0.5,1.1,0,1.8c3.5-0.8,6.1-3.4,9-5.3c2.7-1.7,5.5-3.3,7.8-5.6c1.1-1.1,1.7-2,1.4-3.5
	c-0.7-3.4-0.2-6.7,1.6-9.6c2.9-4.8,4.7-9.9,6.1-15.2c0.5-2,1.3-4,3.8-4.1c1.4-0.1,2.2,2.8,0.7,5.6c-3.2,6.1-2.2,13.2-5.7,19.8
	c2-0.8,2.9-1.9,3.8-2.9c2.3-2.5,4.5-5,6.8-7.6c0.9-1,1.2-2,0.3-3.2c-2.3-3.1-2.5-6.6-2.1-10.2c0.6-4.5,1-9.1,0.8-13.7
	c-0.1-1.9,0.9-3.6,1.8-5.2c0.4-0.8,1-1.4,2-1.4c1.1,0.1,1.6,0.9,1.9,1.8c1.3,3.5,1.2,7.2,0.6,10.8c-0.6,4.2-1.5,8.3-0.7,13
	c1.9-2.3,2.7-4.7,4-6.9c2.7-4.5,3.4-9.4,2.3-14.5c-1-5-0.5-9.8,1.4-14.5c1.1-2.9,1.9-6,2.4-9.1c0.2-1.1,0.5-2.2,1.3-3
	c1.3-1.3,2.9-1.1,3.7,0.5c0.6,1.1,0.6,2.3,0.6,3.5c-0.1,6.6-0.2,13.2-0.4,19.8c-0.2,5-2.3,9-6.3,11.9c-0.6,0.5-1.2,1-1.5,1.7
	c-1.9,3.8-3.8,7.7-6,12.1c2.4-1.4,4.4-2.6,6.4-3.6c3.8-2,7.5-3.9,11.3-5.8c0.9-0.5,1.9-0.8,2.8-1.1c1.1-0.3,2.3,0,3,0.9
	c0.8,1.1,0.1,2.1-0.7,2.9c-2.5,2.9-5.6,5.3-9.4,6.3c-5.4,1.4-10.3,4.5-16,5c-1.4,0.1-2.2,1.6-2.9,2.7
	C114,108.5,110.5,111.8,107.1,115.2c-0.1,0.3-0.3,0.6-0.4,0.8l-0.1,0.1c0,0,0-0.1,0-0.1C106.8,115.7,106.9,115.4,107.1,115.2z
	 M98,207.2c0.1-0.1,0.1-0.2,0.2-0.3c0,0.1-0.1,0.2-0.1,0.3c-0.1,0-0.1,0-0.2-0.1c0,0,0.1,0,0.1,0C98,207.1,98,207.2,98,207.2z
	 M83.3,172.5c-0.3-0.1-0.5,0-0.6,0.4c-2.4,0.8-3.9,2.6-5.1,4.6c-1.2,2-2.8,3.5-5,4.5c-0.9,0.4-2.1,0.7-2.9,1.9
	c6.9-0.8,10.2-5.6,13.1-10.9C83,172.8,83.1,172.6,83.3,172.5c0.2-0.2,0.4-0.4,0.7-0.5c0.1-0.2,0.3-0.4,0.4-0.7c2.8-3,6.2-5.3,9-8.2
	c-4.6,1-7,4.4-9,8.3c-0.1,0.2-0.3,0.4-0.4,0.6C83.7,172,83.4,172.1,83.3,172.5z M29.2,159.4c0,0,0-0.1,0.1-0.1
	C29.2,159.3,29.1,159.4,29.2,159.4c0.3,0.1,0.7,0.2,1.1,0.3l0.1-0.1l-0.2,0C29.8,159.6,29.5,159.5,29.2,159.4z M86.7,213.5
	c1.3,0.3,2-0.3,3.1-1.5C88.2,212.2,87.4,212.7,86.7,213.5C86.8,213.5,86.8,213.5,86.7,213.5z M104.3,112c-1.9,0.5-2.2,2.1-2.8,4.1
	C103.1,114.7,103.8,113.4,104.3,112c-0.1-0.1-0.1-0.1-0.1-0.1C104.2,111.9,104.3,111.9,104.3,112z M113.6,113
	c-1.7,0-2.3,1.4-3.5,2.6C112,115.3,112.5,113.8,113.6,113c0-0.1,0-0.2-0.1-0.2C113.5,112.9,113.5,113,113.6,113z M44.3,189.3
	c-2.3-0.4-4.3,0.4-6.8,1.4C40.4,191.3,42.4,190.5,44.3,189.3c0-0.1,0-0.1-0.1-0.2C44.3,189.2,44.3,189.3,44.3,189.3z M83.6,154.9
	c-3.1,0.5-5.3,2.1-6.9,4.7C78.7,157.6,81.6,157,83.6,154.9c0.7,0.4,1.4,0,2,0c2.1-0.9,4.5-0.7,6.7-1.2c6.8-1.3,10.8-5.9,14.3-11.3
	c-1,0.7-1.9,1.6-3.1,2c-1.4,0.5-2.8,1.1-3.9,2.3c-2.1,2.3-4.7,3.6-7.7,4.2c-2.6,0.5-4.6,2.1-6.3,4C84.9,154.5,84.2,154.7,83.6,154.9
	z M31.9,160.7c0-0.1-0.1-0.1-0.1-0.2c0,0-0.1,0-0.1,0C31.8,160.5,31.9,160.6,31.9,160.7c1.6,2.1,2.7,4.7,5.6,5.5
	C35.9,164,34.3,161.9,31.9,160.7z M88.1,215.9c0.8-0.4,1.6-0.7,2.4-1.1c1.8-1,3.9-1.7,4.9-3.8c0.2,0,0.5,0.1,0.2-0.3
	c-0.1,0.1-0.1,0.2-0.2,0.3C92.3,211.6,90.4,213.9,88.1,215.9c-0.2,0-0.3,0.1-0.3-0.3C87.9,215.8,88,215.8,88.1,215.9z M54.1,158.3
	C54.1,158.4,54.1,158.4,54.1,158.3c0.5-2.4-0.8-4.5-1.4-6.7C51.9,154.2,52.3,156.4,54.1,158.3z M60.1,130.3c-0.2,0.7-0.2,1.4,0.1,2
	c0.4,1.6-0.2,3.3,0.8,4.9c2.4,3.8,1.9,8.9,4.9,12.5c0.3,0.4,0.1,1.3,0.1,2c0,0.6-0.1,1.2,0.6,1.5c0,0,0,0,0,0
	c-0.4-1.4-0.4-2.8-0.4-4.3c0-6.2-2.8-11.5-6.1-16.5C60.1,131.7,60.1,131,60.1,130.3c-1.2-3.4-0.2-7.3-2.2-10.6
	c1.4,3.2-0.6,6.9,1.4,10C59.5,130,59.8,130.1,60.1,130.3z M77.4,191.3c3.7-2.3,4.1-6.5,5.9-9.9C80.3,184.1,79.1,187.9,77.4,191.3
	c0,0.4,0,0.7,0,1c0.1,0,0.1,0,0.2,0C77.5,192,77.4,191.6,77.4,191.3z M24.6,101c-0.5,0-0.7-0.3-0.7-0.7c-2.6-2.3-4.5-5.5-8.1-7.4
	c1.6,4.1,3.5,7.3,8.1,7.4C24.2,100.4,24.5,100.6,24.6,101c-0.6,1.7,0.7,2.5,1.6,3.3c2.2,2,5.1,3,7.8,4.3c0,0.1,0,0.2,0.1,0.3
	c0,0,0.1-0.1,0-0.1c0-0.1-0.1-0.1-0.2-0.1c-0.9-2.1-2.7-3.1-4.6-4C27.5,103.9,25.6,103,24.6,101z M50.3,113.4
	c-3.3,4.2-4.7,8.8-2.8,14.3c0-3.6,0.4-6.8,1.6-10C49.6,116.4,50.4,115,50.3,113.4c0.6-0.4,0.4-1.1,0.8-2.1
	C50.4,112.2,50.1,112.7,50.3,113.4z M98,173.8c0.2,0,0.3-0.1,0.5-0.2c3.8-3.4,2.8-8.7,5.1-12.8C100.4,164.7,100.1,169.6,98,173.8
	c-0.1,0.1-0.1,0.1-0.1,0.1C97.9,173.8,97.9,173.8,98,173.8z M79.9,171.8c2.1,0.1,2.8-1.6,3.8-2.9c2.4-3.3,5-6.4,9.1-7.8
	c1-0.3,2-0.9,2.2-2.8C88.3,161.2,83.9,166.3,79.9,171.8c0.1,0,0.2,0,0.2,0C80.1,171.8,80,171.8,79.9,171.8z M92.2,60.1
	c0.7,0.4,1.1-0.2,1.4-0.6c1.8-2.4,3.5-4.8,4.2-7.7c0.7-3,2-5.5,3.8-7.9c0.9-1.2,1.7-2.5,1.9-4.1c-1.2,0.2-1.3,1.2-1.7,1.8
	C98,47.5,95.1,53.9,92.2,60.1c0,0.1,0,0.1,0,0.2C92.2,60.2,92.2,60.2,92.2,60.1z M103.6,44.1c-1.7,1.8-3.1,3.8-3.7,6.2
	c-0.9,3.9-2.7,7.3-5.2,10.3c-2.3,2.8-2.7,6.1-3.2,9.5c0.7-0.6,1.4-1.3,1.8-2c4-7.1,7.5-14.4,10.1-22.1
	C103.6,45.4,103.8,44.7,103.6,44.1L103.6,44.1L103.6,44.1z M58.1,87.8c-1,3.2-0.5,6.2,0.7,8.9c2.4,5.4,3.6,11.1,5.3,16.7
	c1.5,4.9,3.8,9.4,7.2,13.3c1.5,1.7,3.5,2.8,5.7,4.2c-0.1-2.1-1.4-2.9-2.2-3.9c-1.9-2.3-2-5.6-4.5-7.5c-4.4-3.4-3.5-9.3-6.3-13.5
	c-0.2-0.4-0.2-1-0.1-1.5c0.3-1.8-0.4-3.3-1.5-4.7c-1.5-2-2.2-4.2-2.1-6.6C60.5,91,59.7,89.4,58.1,87.8z M122,121.2
	c-2.7-0.1-10,2.9-11.5,4.5c-1.5,1.6-2.8,3.4-5,4.2c-5,1.9-9.6,5.2-15.3,4.9c-0.4,0-0.8,0.2-1,0.6c7,3,16.3,0.9,21.6-4.9
	c2.2-2.4,4.4-4.6,7-6.6C119.1,123.1,120.4,122.3,122,121.2z M84.2,100.5c-1.3-3.3-2.9-6.4-5.9-8.5c-1.3-0.9-2.5-2-3.3-3.4
	c-1.9-3.8-5.9-6.4-6.7-10.8c-0.1-0.3-0.4-0.5-0.7-0.7c-1.6-1.2-2.3-2.8-2.6-4.8c-0.4-2.3-1.8-4-3.7-5.6
	C61.7,77.2,76.6,96.7,84.2,100.5z M78,126.8c-0.6-2.9-1.3-5.4-3.2-7.3c-3.1-3.1-4.8-6.9-6.1-11c-1.2-3.9-2.1-7.8-3.3-11.7
	c-0.9-3.2-1.8-6.5-3.7-9.4c-0.4-0.6-0.9-1.7-1.6-1.3c-0.9,0.5-0.2,1.4,0.1,2.2c1.6,4.8,2.9,9.7,4.7,14.4c1.5,4,3.7,7.9,4.1,12.4
	c0.1,1.4,1.3,2.7,2.4,3.4c1.9,1.3,2.9,3,3.4,5.2c0.3,1.4,0.9,2.5,2.1,3.4c0.2,0.2,0.7,0.3,0.9,0.2C78,127.3,78,126.9,78,126.8z
	 M39.3,203.5c0.2,1.1,1,1.8,1.7,2.4c2.6,2.4,4.2,5.2,5.2,8.5c0.4,1.3,0.9,2.5,1.4,3.8c1.2,2.8,3.2,4.5,6.3,4.7c2,0.1,3.7,0.8,5,2.5
	c0.6,0.8,1.6,1.8,2.5,0.7c0.8-0.9-0.3-1.7-1-2.3c-0.4-0.3-0.8-0.7-1.3-0.8c-2-0.6-3.3-1.8-4.4-3.5c-0.5-0.8-1.4-1.5-2.3-2
	c-2.3-1.2-3.9-3-4.6-5.5c-1-3.5-4-5.4-5.9-8.1C41.4,203.4,40.4,203.1,39.3,203.5z M85.9,130.9c0.3,0.3,0.3,0.4,0.4,0.4
	c8.4,0.4,14.4-4.6,20.5-9.4c0.5-0.4,0.4-1.2-0.2-1c-3.2,0.7-6.9-0.6-9.5,2.3c-0.6,0.7-1.5,1.1-2.2,1.7
	C92.1,127.2,88.8,128.6,85.9,130.9z M93.2,97.2c6.9-3.5,17.8-17.7,16.6-24.1c-1.3,1.5-2,3.1-2.9,4.6c-2.4,4.2-5.6,7.8-8.7,11.4
	C96.2,91.5,94.7,93.9,93.2,97.2z M105.4,162.2c-0.9,1.8-2.1,3.1-2.2,4.5c-0.3,3.8-2.3,6.6-4.6,9.4c-1.1,1.3-1.9,2.8-1.8,4.6
	c0.1,2.6-0.8,5-2,7.2c-0.6,1-1.2,2-1.3,3.3c0,0.4-0.1,0.9,0.3,1.1c0.4,0.3,0.8,0,1.2-0.3c1.7-1.3,2.7-3,3.1-5.1
	c0.8-4.8,2.6-9.3,4.9-13.5c1.2-2.2,2.1-4.5,2.6-6.9C105.8,165.3,106.4,164,105.4,162.2z M84.5,133.5c0.6,1,1.5,0.6,2.3,0.6
	c6.3-0.7,12.2-2.4,17.8-5.5c1.6-0.9,3-1.7,4.2-3.2c1.3-1.7,3-2.7,5.1-3.5c2.6-1,5.1-2.5,8.3-3c-2.1-1.3-3.7-0.8-5.3-0.3
	c-4.7,1.4-8.8,3.9-12.5,7c-4.9,4.2-10.4,7-16.9,7.3C86.5,133,85.4,132.9,84.5,133.5z M40.7,201.1c3.5,3.2,7,6.1,8.6,10.4
	c0.7,1.8,1.5,3.4,3.3,4.3c1.8,0.9,3.2,2.1,4.2,3.9c0.9,1.6,2.7,2,4.6,2.5c-0.4-2.8-2.1-4.4-4.2-5.5c-3.5-1.9-5.7-4.6-7-8.3
	c-0.6-1.9-1.7-3.7-3.3-5.1C45.3,201.9,43.5,200.2,40.7,201.1z M84.9,97.5c-0.6-3.9-2.4-7.1-5.4-9.7c-1.7-1.5-3.4-3-4.5-5.1
	c-2.6-4.5-5.4-9-8.2-13.4c-0.7-1.2-1.4-2.4-2.9-2.9c1.8,2,2.5,4.3,3.1,6.8c0.1,0.6,0.6,1.2,1,1.8c2.4,3.7,3.8,8,7.5,10.9
	c0.4,0.3,0.5,1.1,0.8,1.6c0.4,0.7,0.8,1.7,1.5,2C81,91.3,82.8,94.4,84.9,97.5z M89.8,97c0.3,0.2,0.7,0.5,1,0.7
	c5.5-9.9,14.6-17.3,18.3-28.4c-1.4,1.6-2.5,3.3-3.7,5c-2.6,4-5.2,8-8.9,11.2C93.1,88.7,91.3,92.9,89.8,97z M132.6,51.6
	c-3.2,8.9-6.5,17.8-3,27.5C129.6,69.8,132.7,60.9,132.6,51.6z M38.5,140.5c-1.1-1.9-2.4-2.7-3.8-3.2c-3.5-1.4-6.1-3.7-8.1-6.9
	c-2.2-3.5-5.4-5.8-9.4-6.8c-0.5-0.1-1.1-0.4-1.3,0.3c-0.2,0.6,0.4,0.9,0.9,1c2.4,0.7,4,2.4,5.2,4.6c0.4,0.6,1,1.4,1.6,1.5
	c3.6,0.7,5.2,3.5,7,6.2C32.2,139.9,34.9,140.7,38.5,140.5z M38.2,142.5c-5.4-0.2-8.9-3-11.2-7.6c-0.1-0.1-0.2-0.3-0.3-0.4
	c-4-1.6-6.6-4.7-9.3-7.8c-0.5-0.6-1.7-1.5-2.4-0.5c-0.7,0.9,0.3,1.8,1.1,2.3c4.5,3,7.9,7,11.4,11.1
	C30.2,142.7,33.9,143.9,38.2,142.5z M33.4,111.4c-0.2-0.5-0.2-0.8-0.3-0.9c-4.5-2.7-8.6-5.7-12.4-9.2c-2.1-1.9-4.6-3.2-5.8-6
	c-0.5-1.1-1.2-2-1.8-3c-0.3-0.4-0.5-1.1-1.1-0.8c-0.8,0.3-0.4,1-0.2,1.5c1.4,3.2,2.9,6.3,5.8,8.4c2.7,2.1,5.5,4.1,8,6.6
	C27.5,110,30,111.6,33.4,111.4z M71,228.9c3,1.6,5,0.8,6.9-0.3c5.2-3,11.2-2.7,16.8-3.8c0.6-0.1,1.6,0.4,1.7-0.5c0-1-1-1-1.7-1
	c-1.9,0-3.8,0.5-5.8,0.2c-2.7-0.4-5.4,0.1-7.9,1.2C77.9,226,75,227.9,71,228.9z M78.7,15.4c1.7,9.7,0.5,19.9,6.1,29.5
	C83.2,34.5,82.1,24.7,78.7,15.4z M34.6,87.2c0.4-2,0.9-3.9-0.2-5.4c-2.7-3.9-3.3-8.2-3.5-12.7c-0.1-2-0.6-4-1.7-5.8
	c-0.5-0.9-1-2-2.3-2.2c0,0.4-0.2,0.8-0.1,1c1.8,3.3,2.2,7,2.4,10.7c0,0.3,0.1,0.7,0.3,0.9c1.8,2.2,1.9,4.8,1.8,7.4
	C31.3,83.7,32.1,85.7,34.6,87.2z M65.8,51.5c4.7,6.1,9.4,12.4,15.7,17.1c1.6,1.2,3.4,2.3,6.1,2.1C79.7,64.6,73.3,57.5,65.8,51.5z
	 M78.9,230.5c3.3-0.2,6.2,0.4,9.2,0.6c2.6,0.2,5.1-0.2,7.2-1.8c0.7-0.5,1.5-1.1,1.3-2c-0.3-1-1.4-0.9-2.2-0.8
	c-4.2,0.6-8.4,1.4-12.6,2.2C80.8,228.8,79.8,229.2,78.9,230.5z M104.6,141c-0.6,0.1-0.9,0.1-1.2,0.3c-7,4.5-14.8,7.5-22.4,10.8
	c-3.2,1.4-5.6,3.8-7.1,7c1.7-1.3,3-3.1,4.7-4c4.1-2.1,8.3-4.4,12.6-5.7c5.3-1.5,8.3-6,13.2-7.7C104.5,141.8,104.5,141.5,104.6,141z
	 M24.7,61.3c-1.2,3.1-1.1,4.5,0.5,7.6c2,4,3.3,8,3.2,12.6c-0.1,2.6,0.7,5.2,2.2,7.4c0.5,0.7,1.2,1.7,2,1.2c1.1-0.5,0.3-1.6,0-2.4
	c-0.2-0.6-0.7-1.2-1-1.7c-0.7-1.1-1.1-2.3-1.2-3.6c-0.1-2.8-0.6-5.5-2.2-7.9c-0.7-1.1-1-2.4-0.8-3.7C28,67.3,25.8,64.8,24.7,61.3z
	 M64.5,46.1c0.3,0.6,0.3,1,0.6,1.3c2.9,3.1,5.1,6.7,9,8.7c1.1,0.6,2.3,1.2,2.6,2.3c1.5,4.1,6.5,4.8,8.3,8.6c0.2,0.4,0.7,0.8,1.3,0.3
	c0.4-0.4,0-0.8-0.1-1.1c-1.6-2.9-3.7-5.5-6.5-7.3c-4.6-3-8.6-6.9-12.4-10.8C66.5,47.4,65.9,46.4,64.5,46.1z M59.8,138.7
	c-0.9,6.9,0.2,13.2,5.4,18.2C65,150.2,60.8,144.9,59.8,138.7z M86.3,41.5c0.1-9.8-0.7-19.4-5.8-28.2C83.1,22.5,84.6,32,86.3,41.5z
	 M49.4,174.1c-4.6,0.2-8.3-1.6-11.1-5.1c-0.3-0.4-0.8-0.7-1.3-0.9c-2.1-0.9-3.6-2.5-4.9-4.3c-1-1.5-2.3-2.6-4.6-3.3
	c0.8,2,1.8,3.4,3.1,4.4c3.7,3.1,7.4,6.2,11.2,9.1C44.3,175.8,46.8,175.2,49.4,174.1z M132.2,77.7c3.6-6.5,1.7-13.6,2.4-20.5
	c-1,1.6-1.6,3.3-1.3,5.2c0.3,1.6,0.2,3.3-0.5,4.7C131.1,70.6,131.6,74.1,132.2,77.7z M50.8,80.1c-4.1,5.8-6.8,15.3-5.5,19.6
	C44.7,92.5,50.4,87.1,50.8,80.1z M79.6,197.2c1.2-4.8,5-8.6,5.1-13.8C83.7,188.2,77.7,191.2,79.6,197.2z M77.2,174.4
	c-3.8,2.2-7.2,3.8-9.3,7.9C72.2,180.8,75.6,179.1,77.2,174.4z M50.2,189.7c4-0.9,8.1,0.3,11.7-2.5C57.6,186.5,53.5,185.6,50.2,189.7
	z M119.2,74.3c-1.3,5.7-1.7,17.1-0.8,18.5C118.1,86.5,120.8,80.5,119.2,74.3z M45.7,188.8c5-1.1,8.7-5.5,14-3.6
	C55.7,182.8,51,184,45.7,188.8z M122.8,108.1c-3.8,1.2-8,4.9-8.7,7.6C117.3,113.7,120.1,111.5,122.8,108.1z M49.4,106.3
	c-2.4,2.6-2.8,5.9-2.9,9.2C48.4,112.8,49.9,109.9,49.4,106.3z M45,87.3c2.3-2.3,3-5,3.6-7.7c0.1-0.4,0.2-1.1-0.4-1.2
	c-0.5-0.1-0.7,0.4-0.9,0.7C46,81.6,45,84.1,45,87.3z M56.1,121.2c-0.8,4.4,0.3,8.5,2.3,12.4C56.7,129.6,57.1,125.3,56.1,121.2z
	 M103.9,105.5c-1.8,2.3-3.3,4.8-3.6,8.3C102.4,111.1,104.1,108.7,103.9,105.5z M92,189.1c2.9-3.9,3.6-6.2,2.5-8.6
	C92.9,183,92.3,185.8,92,189.1z M107.1,200.7c-2.4,1.1-4.6,2.3-5.8,5.4C104.1,204.8,106,203.2,107.1,200.7z M77.5,214
	c1.7-2.4,1.7-5-0.2-6.8C76.9,209.5,76.1,211.8,77.5,214z M36.7,193.8c3.9,0.1,7.1-2,10.4-3.6C44,192.4,40,192.1,36.7,193.8z
	 M106.3,99.1c1.7-2.7,2.9-4.8,2.9-7.9C107.1,93.5,106.5,95.8,106.3,99.1z M131.7,96.1c3-0.8,5.5-1.2,8-3.4
	C136.4,92.9,134.2,94,131.7,96.1z M42.8,133.8c2.4-2.6,2.9-4.4,2.1-7.1C44.2,129.3,43.5,131.6,42.8,133.8z M42.8,98.8
	c-1.2,2.3-2.4,4.6-2.7,7.2C41.9,103.9,42.8,101.5,42.8,98.8z M46.9,131.2c-1.1,2.7-3.1,4.9-3.7,7.8
	C45.2,136.7,46.4,134.1,46.9,131.2z M77.9,203.4c0.7-3.4-0.3-5.7-1-8.1C76.6,197.9,77.2,200.3,77.9,203.4z M80.1,203.2
	c-0.8,2.6-0.6,3.9,0.7,6.1C81.4,207.1,80.9,205.3,80.1,203.2z M73.3,231.6c-2-0.4-3.8-1.3-5.7-1.7C69.1,231.8,71,232.6,73.3,231.6z
	 M50.7,148.4c1-1.9-0.2-3.6-0.8-6C49.3,145,50,146.7,50.7,148.4z M52.4,159.4c0,2,0,3.6,0,5.2C53.4,162.9,54.2,161.3,52.4,159.4z
	 M52.1,139.5c-0.8,2.5-0.7,2.8,0.6,4.3C52.6,142.3,53.1,141,52.1,139.5z M115.8,92.3c-0.4,2.1-0.3,3.3,0.8,4.7
	C117.2,95.4,116.8,94.2,115.8,92.3z M41.9,169.6c0.8,1.4,1.9,2.3,4.2,2.2C44.3,170.8,43.1,170.2,41.9,169.6z M116.5,80.9
	c0.2,0,0.4,0,0.7,0c-0.1-1.4-0.1-2.8-0.2-4.2C115.9,78.1,116.6,79.5,116.5,80.9z M141,89.2c-1.3,0.3-2.6,0.7-3.8,2
	C139,90.9,140.2,90.4,141,89.2z M81,134.6c0.6,1.2,1.3,1.3,2.3,1C82.8,134.8,82.1,134.6,81,134.6z M134.5,51.6c0-0.1,0-0.2,0-0.2
	c0,0-0.1,0-0.2,0c0,0.1,0,0.2,0,0.2C134.3,51.6,134.4,51.6,134.5,51.6z M48.7,189.9l-0.2,0.1l0.2,0.1L48.7,189.9z"/>
</svg>
