<?xml version="1.0" encoding="utf-8"?>
<!-- Generator: Adobe Illustrator 25.3.0, SVG Export Plug-In . SVG Version: 6.00 Build 0)  -->
<svg version="1.1" id="Layer_1" xmlns="http://www.w3.org/2000/svg" xmlns:xlink="http://www.w3.org/1999/xlink" x="0px" y="0px"
	 viewBox="0 0 85.3 230.2" style="enable-background:new 0 0 85.3 230.2;" xml:space="preserve">
<path d="M40.1,73.6c-0.6-9.1,0.3-16.7-5.2-25.1c-8.4-13-7.1-28.7-1.1-43c2.9-6.9,10-7.1,15-1.3c0.9,1.1,2,2.2,2.3,3.5
	c3.8,15.8,6.3,31.3-5.2,45.5c-4.7,5.8-0.2,12.3-0.2,18.5c4-4.4,9.3-7.5,6.8-15.4c-1.8-5.6,2.9-10.4,8.8-10.9
	c5.9-0.6,11.4,3.7,12.2,9.3c0.7,5.2-3.5,10.6-9.1,11.3c-3.6,0.5-7.5-1.6-10.4,3c-3.9,6.3-10.3,10.8-9.1,19.9
	c1,7.7,0.2,15.7,0.2,24.3c4-1.3,5.5-2.8,5.5-6.7c0-10.9,8-21.6,18-25.1c5-1.8,10-2,14,2.5c3.8,4.2,3.1,8.7,1,13.4
	c-4.8,10.9-15.2,17-28.2,16.6c-4.7-0.1-10,4.9-10.1,10.3c-0.2,8.4-0.1,16.8-0.1,26.7c5.6-5.3,10.3-8.7,7.6-16.7
	c-2.1-6.3,1.7-10.5,7.9-11.3c6.4-0.8,11.7,2.6,12.8,8.3c1,5.3-3.4,11.1-9.2,12.2c-10.6,1.9-18.9,11.5-19,22.2
	c-0.1,9.4,0,18.9,0,28.8c4.2-0.8,5.4-2.2,5.4-5.9c-0.1-11.5,8.4-22.5,19.2-25.9c4.6-1.4,9-1.1,12.4,2.6c3.4,3.7,3.7,7.9,1.9,12.5
	c-4.3,11.1-16.3,19.1-27.5,18.2c-6.4-0.5-11.1,3.6-11.2,10.3c-0.2,7.5,0,15,0,24.1c-5.7-5.4-4.3-10.8-3.8-15.3
	c1-9.5-2.2-16.7-9.2-23c-3.1-2.8-5.4-4.7-10-4.4c-6.3,0.4-11-4.6-10.7-10.4c0.2-6,5.9-10.7,12.2-10.1c6.4,0.6,10.5,5.2,8.7,11.8
	c-2.2,8,3.2,10.8,8.6,16.3c0-12.6,0.3-23.4-0.1-34.2c-0.2-5.3-7.1-10.2-12.5-9.7c-11.5,1.1-25-8.5-28-19.7
	c-2.3-8.7,3.4-15.2,12.3-14c10.7,1.4,22,14.1,21.9,25.6c0,4.2,1.3,6.3,6.1,8c0-10.4,2.1-20.9-0.7-30c-2.1-6.7-7.5-15.1-18.1-14.7
	c-6.3,0.2-11.1-5.4-10.6-10.8c0.6-6.3,6.9-10.8,13.5-9.6c6.2,1.1,9.5,5.8,7.3,12.6c-2.5,7.8,4.1,9.3,8,14.7
	c1.3-11.1,1-20.8,0.4-30.4c-0.3-5-7.9-9.1-13.3-8.3C16.5,75.8,0.7,62.6,0.2,51.5c-0.3-7.6,4.5-12.1,12.2-11.4
	c10.6,1,22.9,14.4,22.3,25.1C34.4,69.3,35,71.7,40.1,73.6z M50,26c-0.3-5.3,0.3-10.7-2.2-15.7c-1.5-2.8-3.3-5.8-6.7-5.6
	c-3.1,0.2-4.4,3.5-5.3,6c-3.7,11.4-2,22.8,0.7,34.1c0.6,2.6,2.4,4.6,5.2,4.9c3.1,0.3,4.4-2.4,5.3-4.6C49.5,39,50.3,32.6,50,26z
	 M74,84.4c-7.9-0.1-20.2,12.4-19.8,20c0.3,4.5,4.4,7.4,9,5.7c7.9-2.9,14-8,17.1-16.1C82.5,88.6,79.7,84.5,74,84.4z M11.4,121.5
	c-5.9-0.1-8.9,4.4-6.3,10.5c3.3,8,9.8,12.9,17.9,15.4c4.8,1.4,7.5-1.5,7.8-6.2C31.1,133.7,19.1,121.6,11.4,121.5z M11.7,44.2
	c-5.4-0.4-8.8,3.2-7.8,8.1c1.5,6.9,11.8,16.8,18.7,18c5.1,0.9,8.4-1.8,8.1-6.8C30.3,56.3,18.9,44.7,11.7,44.2z M60.6,192
	c7.2-0.3,17.4-9.2,19.9-16.5c2.1-6.1-1.9-10.7-8.2-9.6c-7,1.2-17,11.9-17.6,18.8C54.2,189.7,56.6,192.1,60.6,192z M22.1,102.3
	c3.6-0.7,6.1-2.7,6.4-6.5c0.4-4.3-2-5.9-6.1-5.9c-4.1,0-6.6,2-6.8,5.8C15.5,99.6,18.7,101.2,22.1,102.3z M28.8,176.6
	c-0.1-3.5-2.5-5.4-5.9-5.4c-4.1-0.1-7.3,2.3-7.2,6.4c0.1,3.6,2.8,6,6.8,5.9C26.6,183.3,28.2,180.5,28.8,176.6z M69.6,132.7
	c-0.6-3.8-2.8-5.8-6.8-6c-3.7-0.1-5.9,1.4-6,5.3c-0.1,4.1,2.2,6.5,6,6.8C66.8,139.3,68.8,136.5,69.6,132.7z M69.6,55.4
	c-0.9-3.3-3.1-5.7-6.9-5.9c-3.7-0.2-5.9,1.6-5.9,5.5c0,3.9,1.9,6.5,5.9,6.8C66.8,62.1,68.7,59.5,69.6,55.4z"/>
</svg>
