<?xml version="1.0" encoding="utf-8"?>
<!-- Generator: Adobe Illustrator 25.3.0, SVG Export Plug-In . SVG Version: 6.00 Build 0)  -->
<svg version="1.1" id="Layer_1" xmlns="http://www.w3.org/2000/svg" xmlns:xlink="http://www.w3.org/1999/xlink" x="0px" y="0px"
	 viewBox="0 0 38.1 110.1" style="enable-background:new 0 0 38.1 110.1;" xml:space="preserve">
<path d="M12.1,102.8c0.8-3.9-0.9-7.2-2.8-10.6c-3.8-6.6-6.7-13.7-8.8-21c-0.7-2.7-0.7-5.5-0.1-8.1c3.8-14.7,7.7-29.5,15.6-42.7
	c4.4-7.5,10-13.9,17.2-18.9c1.1-0.8,2.3-2,3.6-1.3C38.4,0.9,38,2.6,38,3.9c-0.3,10.2-1.2,20.4-2.5,30.5c-1.1,8.4-2.2,16.8-2.1,25.2
	c0.1,5.1-1.1,9.7-3.7,14c-3.9,6.8-7.7,13.8-11.8,20.5c-1.9,3-3,6-2.6,9.6c0.2,1.6,0.1,3.3,0,4.9c0,0.7-0.4,1.4-1.1,1.5
	c-1,0.1-1.6-0.5-1.7-1.4C12.3,106.8,12.2,104.9,12.1,102.8z M16.2,89.8c0.2,0.1,0.5,0.2,0.7,0.3c3.9-7.1,7.9-14.2,11.8-21.3
	c0.9-1.7,1.3-3.6,1.3-5.5c0.2-13.4,2.4-26.6,3.7-39.9c0.6-6,1.4-12.1,0.8-18.2c-1.8,0.1-2.6,1.3-3.6,2.1C24,13.2,19,20.6,15.1,28.8
	c-4.4,9-7,18.6-10.2,28c-1.3,3.8-2.2,8-1.5,12.1c1.4,7.5,4.9,14.2,8.6,20.9c0.4-4.2,1.8-8.3-1.2-12.4C9,74.9,8.2,71.7,7,68.8
	c-0.4-0.9-0.8-2.3,0.8-2.7c1.5-0.4,1.8,0.8,2.2,1.8c0.9,2.4,1.6,4.8,3.1,7.1c0.2-0.3,0.4-0.4,0.4-0.5c0.1-0.7,0.2-1.3,0.3-2
	c0.9-6.4,2.4-12.9-1.3-19.1c-0.8-1.4-1.2-3.1-1.5-4.6c-0.2-1.2-1.2-3,0.8-3.4c1.7-0.4,1.6,1.4,2.1,2.5c0.8,1.7,0.6,3.7,1.9,5.3
	c3.2-7.9,3.5-13.6,1.3-20.9c-0.2-0.5-0.3-1-0.4-1.6c-0.1-0.7,0-1.4,0.7-1.8c0.7-0.4,1.3-0.1,1.8,0.4c0.5,0.5,0.4,1.6,1.7,1.5
	c0.7-2.3,1.3-4.7,2-7c0.3-0.9,0.6-2.1,1.8-1.8c1.4,0.3,1.4,1.5,1.1,2.6c-0.7,2.9-1.5,5.7-2.4,9.2c0.9-0.8,1.3-1.1,1.7-1.5
	c1.1-0.9,2.2-2.9,3.6-1.4c1.4,1.5-0.4,2.6-1.4,3.6c-1.8,1.7-4.3,3-5,5.2c-1.7,4.8-2.1,10-3,15.6c2.7-1.8,4.4-3.7,6-5.7
	c0.7-0.9,1.6-1.1,2.5-0.2c0.8,0.7,0.4,1.5-0.1,2.2c-1.4,1.6-2.7,3.6-4.4,4.8c-6.7,4.3-5.4,11-5.8,17.3c2.7-2,5.2-4,6.9-6.9
	c0.6-1.1,1.3-2.3,2.8-1.3c1.2,0.9,0.3,1.9-0.2,2.8c-2.2,3.7-5.4,6.4-8.5,9.3c-0.9,0.8-2,1.4-2,2.9C16.2,83.6,16.2,86.7,16.2,89.8z"
	/>
</svg>
