<?xml version="1.0" encoding="utf-8"?>
<!-- Generator: Adobe Illustrator 25.3.0, SVG Export Plug-In . SVG Version: 6.00 Build 0)  -->
<svg version="1.1" id="Layer_1" xmlns="http://www.w3.org/2000/svg" xmlns:xlink="http://www.w3.org/1999/xlink" x="0px" y="0px"
	 viewBox="0 0 59.8 221.6" style="enable-background:new 0 0 59.8 221.6;" xml:space="preserve">
<path d="M30.3,165c2.9-1.2,4.3-2.6,4.3-5.6c0-12.2,6.3-19.2,18.3-21.2c1.6-0.3,2.3,0.3,2.5,1.6c1.6,10,0.6,19.2-9.8,23.6
	c-1.5,0.6-3.1,1.3-4.5,1.1c-4.4-0.8-7,2.2-10,4.4c-1.1,0.8-1.6,2-1.7,3.4c-0.7,11.5-2.8,22.9-4,34.4c4.1-0.5,5.1-1.2,6.5-4.8
	c4.5-11,12.4-18,24.2-20.2c3.5-0.7,4-0.3,3.3,3.2c-1.1,5.7-3.1,11.1-6.5,15.9c-4.6,6.5-10.9,8.7-18.6,7.4c-4.8-0.8-9.2,2.4-10.2,7
	c-0.4,1.8-0.7,3.6-1.1,5.4c-0.2,0.7-0.6,1.1-1.4,1.1c-0.8-0.1-1.2-0.6-1.2-1.3c0-1.3,0.1-2.6,0.3-3.9c0.8-5.7,1.4-11.5,2.4-17.1
	c0.4-2.2-1-3.4-1.7-5c-1.1-2.3-2.6-1.3-4.2-1c-4.6,0.8-9.6-2.2-12.1-7.1c-2.6-5.2-2.3-10.7-1.9-16.2c0.1-1.6,1.1-2.2,2.7-2.1
	c7.4,0.6,16.7,5.3,16.4,16.1c-0.1,2.5-1.6,5.5,1.9,8c0.8-8.1,1.7-15.8,2.4-23.5c0.4-3.7,0.4-7.4,1.2-11c0.6-3.1-0.1-5.5-1.6-8.1
	c-1.5-2.6-3.3-3.8-6.2-4.6c-9.3-2.4-13.8-13.8-13-21.5c0.2-1.6,1.1-1.9,2.5-1.5c2.6,0.8,5.4,1.3,7.9,2.3c7.7,3.1,10.9,8.7,9.4,16.8
	c-0.3,1.9-0.7,3.6,1.6,5.1c0.3-3.8,0.7-7.2,0.7-10.7c0.1-11.4-0.1-22.9,0.1-34.3c0-2.9-1.5-4.6-3.3-6.4c-0.6-0.7-1.2-0.6-2.1-0.4
	c-7.6,1.7-10.6,0.3-14.2-6.6c-2-3.7-2.8-7.9-3.9-11.9C5,73.5,6.6,73,8.3,72.8C19,72,26.8,77,27,88.3c0,1-0.7,2.4,1,3.3
	c0.8-0.8,0.5-1.9,0.5-2.8c-0.4-11-2.1-21.9-3.5-32.8c-0.4-3.4-3.6-4.2-5.8-6c-0.5-0.4-0.9,0.1-1.4,0.4c-5.8,3.2-9.8,2.4-13.5-2.7
	c-2.2-3-3.3-6.5-4.3-10.1c-0.4-1.5,0.3-2.4,1.6-2.6c8.1-1.5,13-2.5,17.9,5.3c1,1.5,1.5,3.1,1.2,4.8c-0.4,2.1,0.7,3.1,3.1,3.8
	c-1.4-6.6-2.7-12.8-4.1-19c-0.3-1.5-0.9-3-1.1-4.6c-0.5-3.2-1.6-5.3-5.1-6.5c-4.2-1.5-5.7-6.2-4.2-11.4c0.8-2.7,1.4-6.4,4.1-7.2
	c2.7-0.9,4.6,2.4,6.5,4.3c3.3,3.2,4.5,7.8,2.3,11.5c-1.7,3-1.5,5.6-0.6,8.6c0.6,1.9,1,3.8,1.5,5.9c1.8-0.6,2-1.8,1.7-3.3
	c-0.2-1-0.4-2.1-0.5-3.1c-0.6-4.7,0.9-8.3,5.1-11.1c4.9-3.3,4.7-3.5,6.2,2.2c0.2,0.9,0.6,1.7,0.8,2.6c1.6,7.2,0.2,9.7-6.9,12.1
	c-3.1,1-5.3,4.5-4.6,7.6c2.6,11.4,4.1,22.9,5.4,34.8c2-0.9,3.2-2.2,2.7-4.3c-1.8-8.1,1.8-13.9,7.8-18.8c1.5-1.2,2.8-2.7,4.4-4
	c1.5-1.2,2.9-1.2,3.7,0.8c3.7,9.6,2.4,21.2-10.6,24.2c-2.8,0.6-7.7,6.4-7.5,9.1c1.3,12.9,1.8,25.9,1.6,39.5c2.9-2.1,4.4-3.8,4-7.3
	c-1.4-11,1.8-16.6,14.4-22.9c2.1-1,3.4-0.7,4.1,1.7c1,3.7,1.6,7.4,1.5,11.3c-0.1,5.9-3.6,9.7-8.4,12.4c-2.4,1.3-5.1,2.2-7.7,3
	c-1.3,0.4-2.2,1.2-3.2,2c-4.2,3.2-4.8,7.5-4.9,12.5C32,142.6,31,153.6,30.3,165z M42.1,112.9c9.6-2.4,13-8.7,10.1-18.9
	C49.6,101,46.1,106.9,42.1,112.9z M36,201.4c6.5-3.8,12.2-8.6,16.9-15.4C44,188.1,39.7,194.4,36,201.4z M52.4,145.3
	c-3.4,5.7-7.8,10.6-12.2,16C49.4,160.1,53.4,154.8,52.4,145.3z M38.4,158.3c4.6-4.7,8.1-9.7,11.3-15.2
	C43.2,142.9,37.4,150.5,38.4,158.3z M53.9,190.5c-4.9,5.5-10.5,10.1-16.7,14.5C44,206.7,51.5,200.4,53.9,190.5z M6,175.4
	c0.1,9.8,4.9,15.6,11.6,14.1C13.9,184.8,10.1,180.3,6,175.4z M18.7,185.6c0.8-8.4-3.3-13.5-10.7-13.8
	C10.7,176.9,14.6,180.9,18.7,185.6z M39.8,110.5c4.8-6.5,8-13.1,8.4-16.8C41.5,97.2,38.5,103,39.8,110.5z M10.4,80.5
	c1.4,4.2,2.4,7.5,5,10.1c1.4,1.5,3,1.9,4.9,1.7c0.6-0.1,1.4-0.1,1.7-0.8c0.3-0.8-0.3-1.2-0.7-1.6C17.9,86.8,14.8,83.4,10.4,80.5z
	 M10.4,75.9c4.8,4.2,9,7.9,13.7,12.1C22.4,79.3,19.9,77,10.4,75.9z M10.4,128.3c1.8,7.6,6,12.5,10.9,13
	C18.7,136.4,14.9,132.5,10.4,128.3z M5.4,41.2c1.1,5.3,4.4,8.4,7.9,8.1c0.8-0.1,1.7-0.2,2-0.9c0.4-0.8-0.4-1.4-1-1.8
	C11.3,44.8,8.4,43,5.4,41.2z M23.8,138.7c0.7-6.4-2.5-10.1-10.3-12.4C17.4,130.5,20.8,134.5,23.8,138.7z M18.1,45.2
	c-2-7.1-6.2-9.5-11.7-7.1C10.2,40.4,13.8,42.6,18.1,45.2z M36.2,64.9c3.3-3.7,5.9-7.7,6.7-12.6C38.8,55.4,35.7,59.2,36.2,64.9z
	 M40.6,65.9c5.1-1.9,6.9-5.7,6.4-13.3C44.9,57.4,42.8,61.6,40.6,65.9z M13.1,7.6c-1.2,5.9-0.6,7.6,3,8.3C15.2,13.2,15,10.5,13.1,7.6
	z M16.6,5.5c0.7,3.5,1.4,6.2,2.8,9.1C21,10.5,20.6,9.2,16.6,5.5z M32.9,19c-0.7,2.7-2.3,4.5-2.2,7.4C33.4,24.2,34.5,22.4,32.9,19z
	 M28.2,23c0.6-1.9,1.1-3.8,1.9-6.3C27.5,18.6,27.1,20.6,28.2,23z"/>
</svg>
