<?xml version="1.0" encoding="utf-8"?>
<!-- Generator: Adobe Illustrator 25.3.0, SVG Export Plug-In . SVG Version: 6.00 Build 0)  -->
<svg version="1.1" id="Layer_1" xmlns="http://www.w3.org/2000/svg" xmlns:xlink="http://www.w3.org/1999/xlink" x="0px" y="0px"
	 viewBox="0 0 210.9 247.7" style="enable-background:new 0 0 210.9 247.7;" xml:space="preserve">
<path d="M96.4,222.3c-3.1-4.2-5.7-8.8-8-13.5c-3-6.1-12.3-9.5-18.6-6.9c-3.4,1.4-6.9,1.9-10.5,1.1c-1.2-0.3-2.6-0.5-2.8-2
	c-0.1-1.2,1.2-1.6,2.1-2.1c3.7-2,7.6-2.6,11.6-1.3c4.9,1.6,10.1,2,14.4,4.8c0.6-0.5,0.5-0.9,0.3-1.3c-2.9-7.2-4.9-14.7-7.2-22.1
	c-1.8-5.8-4.1-11.3-8-16c-6.9-8.5-18.6-11.5-27.5-7.2c-6.3,3.1-9.8,7.8-9,15.2c0.5,4.7,1.6,9.1,3.7,13.2c0.9,1.7,2,2.6,4.1,2.7
	c3.5,0.1,6.9,1,10,2.7c1.2,0.7,2.4,1.4,3.3,2.5c0.6,0.7,1.4,1.4,1.1,2.5c-0.4,1.1-1.4,1.4-2.3,1.4c-2.4-0.1-2.4,1-1.5,2.7
	c0.4,0.7,0.7,1.4,0.9,2.2c0.2,1,1.1,2.1,0.1,2.9c-0.9,0.7-2,0.3-3,0c-0.6-0.2-1.2-0.4-1.7-0.7c-1.4-0.7-2.3-0.9-2.6,1.2
	c-0.3,1.9-1.7,2.2-2.9,0.7c-3.2-4.1-5.6-8.7-5-14.1c0.2-1.7-0.1-3-1-4.4c-4.5-7.9-6.6-16.2-3.1-25.4c-0.9,0-1.4,0.6-2,1
	c-4.2,3.7-6.9,8.4-8.9,13.7c-0.6,1.5,0.2,2.4,1.2,3.4c4,3.9,6.3,8.5,6,14.2c-0.1,3.1-0.9,3.6-3.5,2c-1.1-0.7-1.3-0.1-1.6,0.7
	c-0.6,1.6-1.1,3.3-1.8,4.9c-0.9,2-2.1,2.1-3.5,0.4c-1.6-2-2.3-4.5-3.5-6.8c-1.4,0.6-2,2-3.1,2.8c-0.7,0.5-1.3,0.9-2.1,0.4
	c-0.7-0.4-0.7-1.2-0.6-1.9c0.9-6.8,2.4-13.3,8.8-17.3c1.2-0.8,1.7-2,2.1-3.2c4-12.6,13.5-19.1,25.5-22.4c7.1-2,13.6,0.2,19.6,4.2
	c0.6,0.4,1,1.2,2.3,1.2c-2.4-3.2-5.1-5.7-8.1-7.9c-5.7-4.2-11.6-8-17.1-12.5c-2.1-1.7-3.8-3.6-4.7-6.1c-0.3-0.7-0.7-1.6,0-2.2
	c0.7-0.5,1.3,0,1.9,0.4c4.6,2.3,9.1,4.7,13.7,7c10.7,5.5,16.7,14.5,19.2,25.9c0.4,1.9,1,3.6,1.9,5.4c3,5.6,4.6,11.6,6.3,17.7
	c3,10.2,6.7,20.2,12.1,29.4c4,6.8,9.4,12.2,15.8,16.6c0.6-0.3,0.4-0.6,0.3-0.8c-6.1-9.6-9.7-20.2-12.6-31.1c-0.5-2-1.4-3.6-3.1-4.9
	c-3.3-2.4-5.4-5.9-7.3-9.5c-4.7-9.2-8-19.1-12-28.7c-4.7-11.2-9.7-22.4-17.4-32c-0.5-0.6-1.2-1.3-0.4-2c0.7-0.7,1.5-0.2,2.2,0.1
	c9.5,3.2,16.6,9.3,21.9,17.7c5.3,8.5,8.7,17.8,11.3,27.4c0.2,0.8,0.3,1.7,1.2,2.6c-0.1-10.1,1.2-19.8,3.1-29.3
	c1.7-8.5,3.9-16.8,7-24.9c0.7-1.9,0.6-3.2-0.9-4.7c-2.1-2.1-2.9-4.9-3.8-7.6c-1.7-5.1-3.9-9.9-7-14.3c-0.4-0.6-1.3-1.2-0.7-2.1
	c0.6-0.8,1.4-0.3,2.2-0.1c5.8,1.5,9.1,5.4,11.1,10.8c0.4,1,0.3,2.3,1.5,3.2c-0.3-7.3-2.1-14-6.5-19.7c-6.7-8.7-20.2-7.5-27,2.3
	c-2.2,3.2-3.8,6.6-5.2,10.2c-0.7,1.9-0.7,3.4,0.5,5.1c2.2,3.1,3.3,6.7,3.4,10.5c0.1,1.9-0.1,3.8-0.8,5.6c-0.3,0.8-0.5,1.8-1.5,2
	c-1.1,0.2-1.6-0.7-2-1.4c-1.1-2-2.2-2.2-3.6-0.4c-0.1,0.1-0.1,0.1-0.2,0.2c-1.3,1-2.6,3-4.4,2.4c-1.9-0.6-1.6-2.9-1.8-4.6
	c-0.1-1.8-0.6-2.2-2.1-1c-0.5,0.4-1,0.7-1.6,1c-2.1,1-3,0.4-2.9-1.9c0.3-7.1,5.7-13.7,12.6-15.2c1.3-0.3,1.9-0.9,2.4-2.1
	c0.9-2.3,1.7-4.6,2.8-6.7c5.7-11.1,13.1-14.9,25.5-12.9c-0.5-1.3-1.5-1.9-2.5-2.6c-2.5-1.8-5.2-3.2-7.9-4.6
	c-2.8-1.4-5.5-2.1-8.7-1.2c-3.7,1-7.6,0.5-11.3-0.8c-1.3-0.5-2.8-1.1-2.7-2.8c0.1-1.7,1.8-1.6,3-1.9c2.8-0.6,5.8-0.9,8.5,0.3
	c5.6,2.4,11.5,4,16.7,7.3c11.7,7.4,17.6,18.2,18.7,31.8c0.1,1.2,0.1,2.4,0.2,3.6c0,0.1,0.1,0.1,0.5,0.4c1.9-3.6,3.7-7.2,5.5-10.8
	c0.1-0.3,0.1-0.7,0-1c-2.5-6.4-1.4-12.9-0.8-19.4c0.5-5.1,0.6-10.3,0.5-15.4c-0.1-9.9,0.8-19.7,3.2-29.3c0.2-0.8,0.5-1.7,0.8-2.5
	c0.2-0.5,0.5-0.9,1.1-1c0.8,0,1,0.5,1.2,1.2c0.2,0.6,0.3,1.2,0.3,1.8c0.3,8.8,1.8,17.5,2.7,26.2c1,9-0.1,17.7-2.5,26.4
	c-0.2,0.6-0.4,1.3-0.1,2.2c1-1.4,2-2.7,2.9-4.1c4.9-7.4,10.7-14,16.4-20.7c5.5-6.5,6.9-14.3,6.1-22.6c-0.1-1.3-0.8-1.8-2.1-1.8
	c-6.4,0-12.8-7-15.3-13.8c-0.5-1.5,0.3-2.3,1.7-2c1.5,0.3,3.1,0.6,4.5,1.3c2.2,1.1,2.7,0.3,2.8-1.8c0.1-1.8,0.6-3.6,1.4-5.3
	c0.9-1.7,2.1-2.1,3.4-0.4c1.1,1.4,2,2.8,2.9,4.3c0.7,1.2,1.2,1.4,1.9,0c0.6-1.2,1.2-2.3,1.8-3.5c0.4-0.7,0.6-1.8,1.7-1.7
	c1.2,0.1,1.3,1.4,1.4,2.2c1,5.2,1,10.4-1.7,15c-2.4,4-3.1,8-2.8,12.4c0.3,3.6-0.8,7-1.4,10.7c1.1-1,2.2-2.1,3.3-3.1
	c5.4-5.2,10.7-10.5,16.7-15.1c0.9-0.7,1.5-1.4,1.3-2.6c-1.4-7.3,2.3-12.7,6.6-18c0.1-0.1,0.2-0.3,0.4-0.4c1.2-0.9,2-3.2,3.6-2.6
	c1.8,0.7,1.3,3.1,1.1,4.7c-0.3,2.5,0.3,3.1,2.7,2.2c1.7-0.7,4-1.7,5.4-0.3c1.6,1.6-0.1,3.6-0.6,5.4c-1.4,4.3-1.5,4.2,3.2,4
	c1.4-0.1,3.6-1,4.1,0.9c0.5,1.6-1.5,2.5-2.7,3.4c-4.6,3.3-9.8,5-15.4,5.1c-1,0-2.3,0.2-3.1-0.3c-3.9-2.2-6.4,0.1-9.1,2.5
	c-9.8,8.7-19.2,17.8-27.7,27.7c-0.4,0.5-0.7,0.9-1.2,1.6c1.2,0.3,1.8-0.5,2.5-0.8c7-3.3,14.3-4.8,22.1-3.3c3.9,0.7,6.8,2.7,8,6.6
	c0.4,1.3,1.3,2,2.5,2.4c7.7,2.5,11.9,8.4,15.1,15.3c0.4,0.9,0.9,1.9-0.1,2.7c-0.8,0.7-1.8,0.2-2.7-0.1c-1.2-0.4-2.3-2.2-3.3-1.4
	c-0.8,0.6-0.6,2.4-0.9,3.7c-0.3,1.2-0.4,2.7-1.7,3c-1.4,0.4-2-1.1-2.9-1.9c-0.9-0.8-1.4-2-2.6-2.5c-0.9,0.9-0.8,2.1-1.4,3.1
	c-0.4,0.7-0.6,1.6-1.5,1.6c-1.1,0.1-1.4-0.9-1.7-1.7c-2-5-2.3-10.2-1.6-15.4c0.2-1.6,0.5-3.1,0.9-4.6c1-3.9-0.5-7.1-4.3-8.5
	c-4.7-1.7-9.5-1.3-14.2-0.4c-8.8,1.8-15.9,6.1-21.1,13.8c-7.6,11.2-14.2,22.9-19.3,35.5c-0.4,0.9-0.6,1.8-0.8,2.7c0,0,0,0,0,0
	l-0.1,0c1.2-0.3,1.4-1.4,2-2.3c8.6-13.4,21.1-21.1,36.5-24.6c0.8-0.2,1.9-0.7,2.3,0.4c0.4,0.9-0.7,1.3-1.3,1.7
	c-1.4,1-2.8,2.1-3.9,3.5c-10.5,13.8-22.9,25.8-37.3,35.5c-2.8,1.9-4.2,4.4-4.9,7.6c-2.8,13.9-4.6,27.8-3.2,42.1
	c0.1,0.6,0.1,1.2,0.2,1.9c0.7-0.5,0.6-1.2,0.6-1.7c0.4-21.3,8.7-39,24.1-53.6c1.1-1,2-3.5,3.4-2.6c1.6,1-0.3,3-0.8,4.4
	c-4.3,11.9-10.3,23-14.7,34.9c-4.8,13.1-6.8,26.6-7.6,40.4c0,0.8-0.1,1.6,0.1,2.3c2.7,8.9,6,17.4,11.4,25.1c0.3,0.5,0.8,1,1.2,1.4
	c0.2,0.2,0.4,0.3,1.2,0.7c-2.1-5.4-2.9-10.6-3.6-15.8c-2.5-21.2-1.8-42.1,8.2-61.5c4.5-8.8,8.3-17.6,10.9-27.1
	c3.2-11.8,10.5-21.1,20.5-28.2c1.8-1.3,3.4-2.7,5.1-4c0.5-0.4,1-0.9,1.6-0.4c0.7,0.5,0.2,1.1-0.2,1.6c-5,5.2-7.6,11.8-10.2,18.4
	c-2.4,5.9-5.5,11.2-10.1,15.8c-0.8,0.8-1.4,1.8-2.1,2.6c-0.1,0-0.1,0.1-0.2,0.1c0,0,0,0.1,0.1,0.1c0-0.1,0-0.2,0-0.3
	c0.8,0.3,1.3-0.4,1.8-0.8c12.2-9.2,25.7-10.2,39.9-5.9c1.3,0.4,2.1-0.1,3.2-0.5c6.1-2.6,12.4-3.3,18.9-1.5c1,0.3,2.3,0.5,2.4,1.7
	c0.1,1.2-1.2,1.6-2.1,2c-1.6,0.9-3.4,1.2-5.3,1.5c-1.4,0.2-1.4,0.7-0.5,1.6c1,0.9,2,1.7,2.9,2.7c0.7,0.8,2,1.6,1.4,2.8
	c-0.6,1.2-2,1-3.1,1c-1.6,0-3.2-0.2-5.2-0.3c1,2,1.9,3.5,2.7,5.2c0.4,0.8,0.8,1.7,0,2.4c-0.7,0.6-1.5,0.2-2.2-0.2
	c-6.3-3.3-11.5-7.6-12.9-15.1c-0.2-1.1-0.8-1.9-1.9-2.2c-12.4-3.1-24.4-2.5-35.3,5c-0.3,0.2-0.8,0.4-0.6,1.4
	c7.7-1.8,14.4,2.8,21.8,3.2c3.1,0.2,5.7,2.1,7.9,4.3c0.7,0.7,1.4,1.6,0.8,2.5c-0.6,0.9-1.6,0.5-2.4,0.2c-4.6-1.3-9-2.5-12.8-6
	c-5.5-5.1-18.5-3.7-23.4,2c-9.4,10.7-14.2,23.4-17.1,37.1c-0.4,2-0.7,4.1-1.1,6.4c1.5-0.6,1.9-1.8,2.5-2.7
	c6.3-8.4,19.1-13.7,28.3-10.4c7.4,2.6,14,7.3,20.8,11.4c2.8,1.7,4.3,4.9,5.6,8.1c1,2.6,0.1,3.9-2.6,3.3c-3.1-0.7-3.6,0.6-3.7,3.1
	c-0.1,1.6-0.4,3.1-0.8,4.6c-0.8,3-1.8,3.2-4,1c-1.2-1.2-2.2-2.5-3.2-3.8c-0.8-1.1-1.5-1.8-2.4-0.1c-0.3,0.7-0.8,1.5-1.8,1.2
	c-0.9-0.2-0.9-1.2-1.1-1.9c-1.5-5.9-1.2-11.8,1.4-17.4c0.7-1.6,0.5-2.6-0.8-3.8c-6.9-6-17.9-6.4-26.8-0.9
	c-5.1,3.1-8.6,7.5-11.1,12.9c-0.5,1.1-0.8,2.3-0.9,3.5c-0.4,11,0.5,21.9,2.4,32.8c0.1,0.7,0.5,1.5,0.7,2.2c0.8-0.1,0.6-0.6,0.6-1
	c-0.3-9.3,2.5-17.7,7.4-25.4c2.9-4.6,6-9.2,9-13.8c0.3-0.5,0.6-1.5,1.5-1c0.8,0.4,0.5,1.2,0.3,1.9c-2.1,9.7-4.1,19.4-8.2,28.6
	c-2.6,5.8-5.7,11.4-6.9,17.7c-0.3,1.3-1.2,1.6-2.3,1.8c-4.1,0.9-8.1,0.3-12.1-1c-6.7-2.1-12.7-5.6-18.9-8.8
	c-5.2-2.7-10.4-5.4-16.3-6.2c-1.3-0.2-2.6-0.1-3.9-0.2c-0.7-0.1-1.8,0.2-2-0.7c-0.3-1,0.7-1.3,1.4-1.7c5.1-3,10.6-3.8,16.4-2.8
	c4.7,0.9,8.9,2.9,13,5.4C94.5,221.7,95.2,222.7,96.4,222.3c0,0-0.2,0.1-0.2,0.1L96.4,222.3z M66.1,149.5c-0.3-0.1-0.6-0.2-0.9-0.3
	c-2-4.3-5.6-6.9-9.4-9.2c-3.5-2.1-7.1-3.9-10.7-5.8c0,0-0.1,0.1-0.1,0.1c0.1,0,0.1,0,0.2-0.1c-0.1,2,1.8,2.4,2.9,3.2
	c5.7,4,12,7,17.2,11.7C65.5,149.7,65.8,149.5,66.1,149.5c0.1,0.1,0.1,0.2,0.2,0.3c-0.1,0-0.1,0-0.2,0
	C66.1,149.7,66.1,149.6,66.1,149.5z M55.1,143.7c0.1,0.3,0.1,0.7,0.2,1c2,1.4,4,2.8,6,4.2c-1.7-1.9-3.3-4-6-4.2
	C55.2,144.4,55.1,144,55.1,143.7c0,0.1,0,0.2-0.1,0.2c-0.1,0-0.2,0-0.2,0c-0.1-0.1-0.2-0.3-0.2-0.4
	C54.9,143.2,55.1,143.3,55.1,143.7z M132.2,129.9c0.2-0.2,0.6-0.4,0.7-0.6c3.2-7.1,7.5-13.4,12-19.6c0.3-0.4,0.5-0.7,0.4-1.2
	c0.1,0,0.2-0.1,0.3-0.1c-0.1,0-0.1,0-0.2,0c0,0.1-0.1,0.1-0.1,0.2C138.3,114,134.5,121.5,132.2,129.9c-0.8,0.3-0.5,0.8-0.5,1.5
	C132.3,130.8,132.4,130.4,132.2,129.9z M105,234.4c0.1,0.1,0.2,0.2,0.2,0.3c0-0.1,0.1-0.1,0.1-0.2
	C105.2,234.5,105.1,234.5,105,234.4c-0.3-0.2-0.4-0.5-0.7-0.7c-8.9-5.5-18.2-10.2-28.2-13.2c-0.1,0-0.1,0.1-0.2,0.1
	c0.1,0,0.2-0.1,0.2-0.1c-0.1,0.5,0.3,0.8,0.7,0.9c7.3,3,14,7.3,21.1,10.5C100.2,233,102.4,234.4,105,234.4z M107,233.1
	C106.9,233.1,106.9,233.1,107,233.1c0.2-0.9-0.6-1.1-1.1-1.5c-4.8-3.4-9.6-6.9-14.7-9.9c-3.8-2.2-7.8-3.9-12.2-4.4
	c-2.4-0.3-4.9-0.6-7.3,0.6c4.6,0.6,8.8,2.3,13,3.8C92.6,224.7,99.6,229.3,107,233.1z M94.3,189.6c0.7-1.2,0.3-2.1,0.2-2.9
	c-1.5-9-3.4-18-6.4-26.6c-3.1-9.2-7.1-18-13.7-25.3c-2.5-2.7-5.2-5.1-9.3-7.1c2,2.6,3.6,4.6,5,6.7c7.6,11.5,12.5,24.2,17.2,37.1
	C89.5,177.5,91.3,183.6,94.3,189.6z M63.6,129.9c7.1,12.5,12.7,25.6,17.8,39c2.5,6.4,5,12.8,8.5,18.7c0.8,1.3,1.4,2.7,2.9,3.4
	c-2.3-5.3-4.1-10.7-6-16.1c-4.6-13.1-9.5-26-16.9-37.8C68.1,134.3,66.4,131.7,63.6,129.9z M99.7,194.9c0.2-1.3,0.5-2.5,0.6-3.8
	c0.9-6.8,2.1-13.6,4.1-20.2c3.4-11.5,8.5-22.2,13.3-33.1c0.8-1.8,1.8-3.5,1.6-5.5C104.7,150.5,100.1,172,99.7,194.9z M136.8,94.1
	c-17.5,5.5-28,18-34.5,34.5C113.7,117,121.8,102.1,136.8,94.1z M109.3,124.3c11.4-7.7,20.6-17.6,28.9-28.4
	C125.6,102.3,117.5,113.3,109.3,124.3z M119.5,44.6c-0.4,7.2-0.3,14.4-1.2,21.6c-0.8,7.1-1.7,14.2-2.5,21.3
	C121.9,73.6,123,59.3,119.5,44.6z M117.5,35.1c-1.4,4-4,44.1-3.1,48.7C117.1,67.3,117.9,51.2,117.5,35.1z M172.7,30
	c2.3-0.8,3.9-1.7,5.5-1.9c5.1-0.7,6.2-4.7,7.3-8.7c0.2-0.6,0.3-1.2-0.6-1.4c-1.4-0.4-6.9,1.9-7.6,3.3
	C176.1,24.2,174.7,26.8,172.7,30z M166.2,193.5c1.5,0.3,2-0.3,1.4-1.6c-2.2-5.1-5.8-8.8-11.2-10.6c-0.5-0.2-1.1-0.5-1.5-0.1
	c-0.5,0.6,0,1.1,0.3,1.6c0.9,2.1,2,4.1,3.5,5.8C160.8,191,163.2,192.9,166.2,193.5z M142.4,32.5c0.8,0.1,1.4,0.2,1.7-0.2
	c0.3-0.5,0-1-0.3-1.5c-2.1-3.7-4.8-6.8-8.5-8.9c-1.4-0.8-3.4-2.2-4.5-1.2c-1,1,0.8,2.7,1.6,4C134.9,28.6,138.2,31.4,142.4,32.5z
	 M176.9,13c-3.3,2.7-5.7,6-7.2,9.9c-0.8,2-1.3,4.1-1,6.3c0.1,0.5,0.1,1.2,0.7,1.2c0.4,0,0.9-0.3,1.1-0.6
	C174.2,24.9,177.3,19.6,176.9,13z M147.9,108.9c-5.9,7.3-11.2,15-14.7,24.6C141.3,126.6,144.8,117.8,147.9,108.9z M155.3,187.8
	c0.3,4.3-2.1,8.4,1.5,11.8c1.2,1.1,1.9,3.5,3.4,3.1c1.4-0.4,1.2-2.9,1.3-4.5c0.1-1.7,0.9-3.7-0.6-5.2
	C159.2,191.3,157.5,189.8,155.3,187.8z M53.2,112.2c0.2-0.1,0.4-0.1,0.5-0.2c4.2-3,8-6.5,9.9-11.5c0.5-1.2,0.4-2.1-1.4-1.6
	c-4.4,1.1-9.7,7.8-9.8,12.3C52.4,111.8,52.4,112.3,53.2,112.2z M20.7,185.4c-3.1,4.2-4.3,8.5-1.1,13c0.4,0.5,0.5,1.5,1.3,1.5
	c0.9,0,0.8-1,1.1-1.5C24.7,193.8,23.4,189.6,20.7,185.4z M190.4,28.2c-3.8-0.7-12.6,1.1-16.7,3.6c-0.5,0.3-1.5,0.5-1.2,1.4
	c0.3,0.7,1.2,0.6,1.9,0.6c5.6,0.2,10.6-1.4,15.3-4.4C190,29.2,190.5,28.9,190.4,28.2z M143.9,26.9c2-4.5,1.1-8.5-1.9-12.2
	c-1.1-1.4-1.8-1.3-2.4,0.4C137.8,19.6,139.1,23.4,143.9,26.9z M170.7,78.7c-0.2,0-0.3,0.1-0.5,0.1c0.2,2,0.7,4.1,0.6,6.1
	c-0.2,3.1,1.6,5,3.4,7c0.9,1,1.6,0.8,1.9-0.6c0.7-3.1,1.1-6.1-1.8-8.6C172.9,81.7,171.9,80.1,170.7,78.7z M169.3,74.1
	c4.3,5.2,7.7,10.5,13.4,14.3C182,82.7,174.9,75.1,169.3,74.1z M146.4,31c3.6-3.2,5.4-11.9,3.3-16.1C146.8,20,145.3,25.1,146.4,31z
	 M198.4,128.5c-4.8-2.5-14.8-1.6-18.3,1.6C186.3,130.5,192.1,130.5,198.4,128.5z M12.2,195.7c4.1-4.8,6.4-9.6,7.8-15.3
	C15.5,182.3,11.8,189.4,12.2,195.7z M63.1,105.4c-1.5,1.7-2.7,2.9-3.8,4.2c-1,1.2-1.1,5.6-0.2,6.7c0.2,0.3,0.4,0.4,0.8,0.4
	c1.4-0.2,4.6-4.2,4.3-5.6C64,109.3,63.6,107.6,63.1,105.4z M65.1,104.5c0.1,3.3,0.7,6.3,2.1,9.1c0.3,0.6,0.6,1.5,1.3,1.4
	c0.9-0.1,0.9-1.1,1-1.9c0.4-3.1-0.1-6.1-1.3-8.9c-0.5-1.2-1.1-3.4-2.3-3.1C64.6,101.4,65.4,103.5,65.1,104.5z M167.8,92.6
	c2-6.1,1.4-11.5-0.7-17.1C165,79.7,165.3,88.1,167.8,92.6z M192.5,137.7c0.7-0.1,1.6,0.4,1.9-0.3c0.4-0.8-0.5-1.4-1-1.9
	c-2.3-2.4-5.2-3.7-8.6-3.7c-0.6,0-1.5-0.2-1.8,0.6c-0.3,0.7,0.5,1,0.8,1.5C185.9,137,189.2,137.5,192.5,137.7z M126.4,200.5
	c-5.6,7.3-9.2,15.4-9.1,24.8C119.2,216.6,123.4,208.8,126.4,200.5z M178.7,131.7c0.3,5,6.2,11.6,10.9,12.4
	C186.9,139.2,183.4,135.2,178.7,131.7z M27.3,193.6c1.3-3.4-1.1-10.5-3.9-12.4c-0.8-0.5-1.4-0.6-1.3,0.6
	C22.8,186.1,24.2,190.1,27.3,193.6z M128.3,202.5c-3.4,7-7,13.9-8.3,21.7C123.8,217.3,126.7,210.2,128.3,202.5z M107.2,147.2
	c-5.2,8.5-7.8,17.8-8.3,27.8C101.1,165.5,103.6,156.2,107.2,147.2z M43.4,193.8c0.4,1.4,1,2.6,1.1,3.7c0.4,2.7,2.5,3.6,4.6,4.4
	c1.2,0.5,1.8,0.1,1.4-1.4C49.6,197,47.7,194.4,43.4,193.8z M41.1,189c2.3,3.5,8.5,5.9,12.1,4.7C49.8,190.4,46,188.8,41.1,189z
	 M152.7,184.2c-2,4.1-2.2,8.4-0.9,12.7C153.6,192.9,154.1,188.6,152.7,184.2z M97.7,92.1c3,4.8,4.3,10.3,6.7,15.4
	C104,101.6,102.5,96.1,97.7,92.1z M62.8,63.9c4.1,2,7.8,2.2,11.9,1.4C71.9,62.8,67.1,62.2,62.8,63.9z M43.1,202.3
	c0.2-4.2-1-7.8-4-11.7C38.6,195.7,40.5,199.1,43.1,202.3z M70.4,199.6c-3.8-1.2-6.9-1-9.8,0.4c-0.4,0.2-1.1,0.4-0.9,1.1
	c0.1,0.2,0.5,0.5,0.8,0.5C63.8,201.8,66.9,201.7,70.4,199.6z M165.4,143.5c-2.2-2.1-4.7-3.3-7.7-2.8
	C159.9,142.4,162.5,143.4,165.4,143.5z"/>
</svg>
