<?xml version="1.0" encoding="utf-8"?>
<!-- Generator: Adobe Illustrator 25.3.0, SVG Export Plug-In . SVG Version: 6.00 Build 0)  -->
<svg version="1.1" id="Layer_1" xmlns="http://www.w3.org/2000/svg" xmlns:xlink="http://www.w3.org/1999/xlink" x="0px" y="0px"
	 viewBox="0 0 73 108.4" style="enable-background:new 0 0 73 108.4;" xml:space="preserve">
<path d="M13.8,46.6c-2.4-3.9-4.7-7.4-4.7-11.9c0-6.1,2.8-10.5,7.5-11.3c5.3-0.9,9.5,1.7,11.6,7.7c0.9,2.5,1.4,5.1,1.8,7.7
	c0.4,2.6,0.3,5.3,0.5,8.9c3.4-5.6,6.9-10.2,10-15c3-4.6-0.6-18.7-4.9-22.2c-0.8-0.7-1.9-1.1-2.8-1.6c-0.9-0.4-1.8-0.7-2.6,0
	c-0.8,0.7-0.1,1.4,0.3,2c0.7,1.3,0.6,2.4-0.5,3.3c-1.3,1-2.9,1.1-4.4,0.4c-1.3-0.6-1.4-2-1.3-3.2c0.1-3.9,3.7-6.7,7.8-6.2
	c4,0.5,6.6,3.1,8.9,6.2c0.7,1,1.2,2.1,1.8,3.2c1.6-0.8,1.7-2.3,2.2-3.5c1.9-4.8,5.5-7.8,10-9.8C60.5-1.2,66-0.1,69.7,4.2
	c4,4.5,4.4,10.7,1,16c-2.9,4.5-7.2,7.5-12.2,10.7c4.6,2.4,8.1,5.3,8.6,10.5c0.3,3.1-0.2,6-2.7,8c-1.9,1.6-4.3,1.6-6.6,0.7
	c-1.5-0.6-2.8-1.4-2.8-3.3c0.1-1.7,0.9-3,2.5-3.6c1.8-0.7,3.4-0.2,4.2,1.8c0.2,0.4,0.3,0.8,0.9,0.8c2.3-5.6-1-11.1-7.4-11.8
	c-2.9-0.3-5.9-0.1-8.8-0.2c-2.2-0.1-3.2,1.6-4.3,3C31.5,50.1,26.4,65.4,25.7,83.5c2.3-7.2,4.9-13,9.6-17.7c2.4-2.4,5.2-3.9,8.4-4.7
	c6.5-1.6,11.2,3,9.7,9.4c-1.3,5.7-5.2,9.8-9.2,13.7c-1.6,1.6-3.3,3.1-5.6,5.3c4.6-0.8,8.4-1.1,11.9,0.5c2.8,1.3,4.8,3.4,4.9,6.7
	c0,2.9-1.7,4.6-4.1,5.7c-1.8,0.8-3.7,0.9-5.1-0.7c-1-1.1-1.4-2.4-0.7-3.9c0.9-2.2,2.6-2.4,4.6-2c0.4,0.1,0.8,0,1.5,0
	c-1-3.2-3.7-3.3-6-3.4c-6.4-0.3-11.6,2.8-16.9,5.8c-2.2,1.2-0.5,3-0.4,4.6c0,1.8,2.5,4.5-0.2,5.3c-2.8,0.9-2.9-2.7-3.4-4.5
	c-2.9-12.1-3.4-24.3-0.6-36.5c0.8-3.6,0.1-6.2-2.1-8.9c-3.1-3.7-6-7.6-11.2-8.5c-3.7-0.7-7.4,2-7.4,5.3c0,1.5,0.7,2.7,2.2,3.2
	c1.2,0.4,1.1-0.7,1.3-1.3c0.7-1.6,1.5-3.3,3.6-3c1.9,0.3,2.4,2,2.3,3.6c-0.1,2.2-0.5,4.3-3.1,5.1c-3.4,1-7.1-0.4-8.8-3.5
	c-1.8-3.3-0.9-8,2-10.6C6,45.9,9.7,46.1,13.8,46.6z M45.8,24.4c1,1.6-2.3,5.4,2.8,5.5c8.1,0.1,18.3-7.4,20.5-15.2
	c1.3-4.5-0.6-8.3-5-10.2c-4-1.7-8.6-0.7-12,2.6C47.3,11.7,46.2,17.8,45.8,24.4z M28.5,92.5c2-1.4,4.1-2.7,6-4.3
	c5.5-4.6,11.1-9,14.6-15.4c1.1-2,2.2-4.4,0-6.4c-2.1-2-4.7-2.4-7.3-1.1c-1.2,0.6-2.4,1.5-3.4,2.4C31.1,74.2,29.4,83.1,28.5,92.5z
	 M26,56.3c1.9-9.3,1.5-17.3-1.8-25.1c-1.3-3-3.7-4.7-7.1-4c-3.4,0.7-4.6,3.3-4.6,6.6c0,2.4,0.4,4.6,1.8,6.6
	C18,45.4,21.7,50.4,26,56.3z"/>
</svg>
