<?xml version="1.0" encoding="utf-8"?>
<!-- Generator: Adobe Illustrator 25.3.0, SVG Export Plug-In . SVG Version: 6.00 Build 0)  -->
<svg version="1.1" id="Layer_1" xmlns="http://www.w3.org/2000/svg" xmlns:xlink="http://www.w3.org/1999/xlink" x="0px" y="0px"
	 viewBox="0 0 94.2 230.2" style="enable-background:new 0 0 94.2 230.2;" xml:space="preserve">
<g>
	<path d="M93.6,190.7c-4-7-8.2-13.8-18.5-14.1c3.6-3.6,5.3-7.8,9.6-9.5c1.3-0.5,3.2-1,4,0.4c1.1,1.8-1.6,1.5-2,2.7
		c-0.1,0.2,0,0.5,0.1,0.8c2.2,0.9,3.8,0,4.4-2.1c0.7-3-1.7-3.8-3.8-4.7c0,0,0,0,0,0c0,0,0,0,0,0l0.1,0c-2.6,1.2-3.2,0-3.4-2.4
		c-0.2-2.9-2.1-4.4-5-4.1c-2.4,0.3-3.4,1.7-2.6,4.4c1.8-0.3,2.6-3.7,4.7-1.6c1.8,1.8,1.1,4.1-0.2,5.9c-2,2.6-3.7,5.4-6.5,7.3
		c-0.3-7.9-4.9-13.4-10.4-18.2c-1-0.8-2-2.1-3.4-1.6c-1.5,0.5-1.2,2.2-1.3,3.4c-0.5,9.2,1.1,17.4,11.1,21.5
		c-6.9,7.3-13.2,14.5-20.9,21.4c-1.9-25.8-2.8-50.8-3-75.8c0-2,0.9-3.2,2.4-4.3c4.9-3.8,9.8-7.7,14.6-11.6c3.8-3.1,3.7-3.1,7,0.3
		c5.4,5.6,11.6,9.1,19.7,8.1c3.7-0.4,4-1.3,2.2-4.4c-4.4-7.6-11.1-11.1-19.7-11c2.8-3.5,6.3-6.4,8.8-10.1c1-1.4,2.6-1.8,4.1-2.3
		c1.3-0.4,2.3,0,3,1.1c0.7,1.2-0.3,1.8-1.2,2.3c-0.7,0.3-1.4,0.8-0.8,1.6c0.5,0.7,1.3,0.5,2,0.2c1.8-0.8,2.8-2.1,2.5-4.1
		c-0.4-2.4-2.3-3.8-4.4-3.3c-3.3,0.8-3.8-0.9-4.2-3.2c-0.2-1-0.6-2-1.5-2.6c-1.8-1.5-3.9-2.1-6-0.7c-2,1.3-2,3.1-0.6,6.1
		c0.5-1.1,0.8-1.5,0.9-1.9c0.3-1.4,0.4-3,2.5-2.8c1.9,0.2,2.5,1.6,2.8,3.3c0.4,2.3-0.3,4.3-1.7,6.1c-2.5,3.4-5.3,6.4-9.1,9.4
		c1.8-8.3-0.7-14.9-5.9-20.7c-0.7-0.8-1.5-2.1-2.8-1.6c-1,0.4-1.1,1.6-1.4,2.5c-2.1,7.8-1,15,4.9,20.9c1.6,1.7,1.3,2.4-0.3,3.6
		c-4.6,3.5-9.1,7.2-13.6,10.8c-1,0.8-1.9,2.3-3.3,1.7c-1.4-0.6-0.8-2.3-0.8-3.5c0-20.2,0-40.3,0.1-60.5c0-1.4-0.1-2.8,1.2-4
		c4.3-3.9,8.4-8,12.6-12c0.9-0.9,1.6-1.6,2.8-0.1c4.1,5.1,9.9,5.4,15.8,5.4c1.2,0,3,0.3,3.4-1.2c0.4-1.4-0.8-2.4-1.8-3.2
		c-3.8-3.3-8-6.1-13.6-7.1c1.5-2,3.2-3.5,5.1-4.9c2.5-1.8,5.6-1.2,6.5,1.1c0.3,0.8-0.3,2.1,1.2,2.3c1.5-3.9,0.7-5.9-3.1-6.4
		c-2.1-0.3-2.4-0.8-2.4-2.9c0.1-3.9-3.2-6.2-6.4-4.8c-0.9,0.4-1.6,1-1.4,2c0.3,1.5,1.2,0.7,1.9,0.3c1.2-0.6,2.2-0.6,3.1,0.5
		c1,1.2,0.7,2.4,0.1,3.6c-1.4,3-3.4,5.6-6.6,7.8c0-5.8-2.3-10-5.6-13.8c-0.6-0.7-1.2-1.8-2.5-1.3c-0.9,0.4-0.9,1.4-1.1,2.2
		c-1.1,5.4,0,10.3,2.9,14.9c0.6,1,2.2,2,0.9,3.4c-4,4.1-8.2,8-12.2,11.9c-0.8-10.5-0.9-20.5-0.8-30.5c0-1.9,0.6-3.7,1.6-5.3
		c0.6-0.9,1.5-1.5,2.6-1.3c1.2,0.2,1.6,1,1.4,2.2c-0.1,0.7-0.3,1.5,1,1.8c1.7-1.9,1.7-3.7-0.3-5.4c-2.3-1.9-4.8-0.9-7.8,3.1
		c-0.7-1-1.3-2.3-2.3-3c-2-1.6-4-1.4-5.9,0.4c-1.8,1.7-0.9,3.4,0.1,5.1c0.3,0.5,0.8,0.9,1.5,0.6c0.7-0.3,0.7-0.9,0.4-1.5
		c-0.7-1.4-1.4-2.9,0.8-3.4c2-0.5,2.6,1.3,3.1,2.9c1.2,3.7,0.9,7.5,1.3,11.2c0.7,7.6,0.4,15.2,0.2,23.5c-5.6-3.5-9.6-7.7-14-11.3
		c-1.9-1.6-2.2-2.7,0.2-4.2c4.7-3,6.6-7.6,6.3-13c-0.1-2.7-1.3-3.7-4-2.2c-4.7,2.7-8.2,6.2-8.5,12.3c-2.7-1.8-3.9-4-5.4-5.9
		c-0.8-1.1-1.2-2.3-0.3-3.6c0.8-1.1,1.7-1.5,3-1c0.7,0.3,1.5,0.6,1.7-0.4c0.2-0.8-0.4-1.4-1-1.7c-2.4-1.2-4.6-0.3-5.4,2
		c-1,2.9-2,5.1-5.5,5.3C10,24.5,9,26,9,27.6c0,1.4,0.7,2.5,2.7,2.5c-0.1-1.7-1.1-4.1,2-4.3c3.5-0.3,6.6,2,8.1,6.4
		c-6.3,0.5-11.5,3-14.6,8.7c-1.3,2.4-0.8,3.5,2,3.6c5.9,0.2,11-1.8,14.6-6.3c2.2-2.8,3.2-2,5.2-0.2c3.8,3.5,7.7,7.1,11.9,10.2
		c2.9,2.1,3.6,4.3,3.6,7.6c-0.1,19.4-0.8,38.8-0.4,58.3c0,1.3,0.7,2.8-0.5,4.4c-4.6-4.2-9.1-8.3-13.6-12.4c-1-0.9-1.5-1.8,0.1-2.6
		c8.3-4.4,9.1-12.1,8.8-20.2c0-1.3,0.2-2.9-1.2-3.5c-1.4-0.6-2.4,0.7-3.4,1.5c-5.7,4.7-10,10.3-10.7,18.7c-2.7-3.2-5.5-5.1-6.6-8.4
		c-0.5-1.6-0.4-3.2,1.2-4.2c1.1-0.7,2-0.2,2.6,0.8c0.4,0.7,0.6,1.9,1.8,0.9c0.8-0.7,0.4-1.7-0.1-2.4c-0.9-1.4-2.2-1.9-3.7-1.7
		c-1.9,0.2-3.6,1.3-3.7,3.2c-0.2,3.5-1.7,4.5-5.1,4.5c-2.2,0-3.3,2-2.5,4.1c0.9,2.4,2.6,3.2,4.9,1.6c-0.3-1.7-3.5-1.1-2.4-3.1
		c0.8-1.6,2.9-1,4.4-0.5c3.7,1.2,5.7,4.5,8.9,8c-5.2-0.7-8.7,0.7-11.8,3.4c-3.3,3-5.4,6.8-7.7,10.5c-1.2,2-0.4,3,2,2.6
		c8.8-1.4,17-3.9,20.3-13.8c5.3,4.7,10.1,9.3,15.2,13.6c2.3,1.9,3.3,4,3.3,7.1c-0.1,18.3,0.5,36.5,1.6,54.8c0.4,5.9,0.6,11.8,1,18.8
		c-6.9-6.2-13-11.6-19.1-17.1c-1.4-1.3-0.6-2.1,0.4-3.1c5.6-5.8,7-12.8,5-20.5c-0.3-1.2-0.2-2.9-1.8-3.2c-1.3-0.2-1.9,1.2-2.6,2
		c-5.3,5.7-7.2,12.4-6,20c-4.1-3-7.7-6.6-10.2-11.1c-1.1-2-1.8-4.3,1-5.5c2.8-1.2,2.8,1.5,3.6,3c0.1,0.2,0.5,0.2,1,0.3
		c1.1-2.6,0.5-4.7-2.1-5.5c-2.6-0.8-5.3,0.1-6,2.8c-0.7,2.7-1.9,3.6-4.6,3.8c-2.3,0.2-3.5,2.1-3.1,4.4c0.5,2.6,2.2,3.3,4.8,2.7
		c-0.1-2-4.2-2.2-1.9-4.5c1.8-1.8,3.8-0.2,5.5,0.7c0.3,0.1,0.5,0.3,0.7,0.6c2.8,3.1,5.5,6.2,8.7,9.7c-8.9-0.3-15,3.8-19.3,10.8
		c-2,3.3-1.5,4.1,2.4,4.5c8.3,0.8,14.6-2.9,19.8-8.8c1.8-2,2.8-2.2,4.8-0.3c5.6,5.3,11.4,10.3,17.2,15.3c1.8,1.5,2.5,3.3,2.7,5.6
		c0.6,6.5,1.4,12.9,3.2,19.2c0.5,1.7,0.7,3.6,2.8,4.3c0.7-0.9,0.4-1.6,0.1-2.3c-2.6-7-3.2-14.3-4.1-21.7c-0.3-2.3,0.5-4.1,2.2-5.8
		c5.8-5.7,11.3-11.6,17-17.4c0.7-0.8,1.2-2,2.6-1.8c4.3,7.5,11.5,11.9,19.7,12.4C94,193.8,95,193.1,93.6,190.7z M73,107.9
		c5.1,2.4,9.5,4.4,14.1,6.6C81.4,114.6,78.3,113.1,73,107.9z M89,112.5c-6-2-11.4-4.5-17-8.1C79.3,102.7,85.9,105.9,89,112.5z
		 M61.1,86.4c0.9,3.5,1.8,7,2.7,10.6C60.9,94,60.8,90.2,61.1,86.4z M63.9,97.4c0-0.1,0-0.2,0-0.3c0.1,0.2,0.2,0.3,0.3,0.5
		C64.1,97.6,63.9,97.5,63.9,97.4z M63.2,84c0-0.4,0.3-0.5,0.8-0.1c3.5,4.2,4.7,9.1,3.2,14.7C64.9,94,63.8,89.1,63.2,84z M68.2,38.8
		c0.7,0.1,1.3,0.2,1.6,0.8C69.2,39.6,68.6,39.5,68.2,38.8z M70.9,40.2c-0.3-0.1-0.6-0.3-0.8-0.5c0.3,0,0.7,0,1,0.1
		C71.3,40,71.2,40.3,70.9,40.2z M77.6,39.6c-4.4-1.1-7.6-2.5-10.6-4.5C71,34.6,74.1,36.2,77.6,39.6z M68,38.8
		c-0.6,0-1.1-0.2-1.5-0.7C67,38.3,67.5,38.5,68,38.8z M58.2,26L58,25.7l0.3,0L58.2,26z M59.4,29.1c-0.1-0.1-0.3-0.3-0.4-0.4
		C59.5,28.5,59.4,28.9,59.4,29.1z M59.5,20.6c2.5,2.4,3.1,5.5,3,8.8C61,26.7,59.6,23.9,59.5,20.6z M21.2,35
		c-3.2,2.5-6.6,3.8-10.1,5.3C12.9,36.6,16.2,34.8,21.2,35z M13.8,41.9c0.8-1.1,1.8-1.2,2.9-1.3C16,41.5,15.1,42,13.8,41.9z
		 M16.9,40.5c0.4-0.5,1-0.7,1.6-0.8C18.1,40.3,17.5,40.5,16.9,40.5z M18.7,39.6c0.6-0.9,1.5-1.4,2.5-1.6
		C20.5,38.8,19.7,39.4,18.7,39.6z M34.2,22.4c0.3,4-2.1,6.5-5.1,8.6C30.3,27.8,32.3,25.1,34.2,22.4z M31.8,20.7
		c-1,3.6-3,5.8-5.1,9.1C26.8,25.4,28.4,22.9,31.8,20.7z M21.1,105c-3.8,4-8.4,6.6-13,9.4C11,109.2,14.3,104.6,21.1,105z M9.9,116.2
		c4-2.9,8.1-5.8,12.1-8.7C19.9,113,15.3,115.3,9.9,116.2z M34.3,84.3c-1.7,5.3-4.6,10-7.6,14.6C26,92.4,30.1,88.3,34.3,84.3z
		 M36.2,86.7c0.8,7.1-1.9,12.2-8.3,15.3C30.9,96.5,33.5,91.8,36.2,86.7z M6.9,192.2c4.1-1.8,8.3-3.6,12.4-5.4
		C16,190.4,11.9,192.3,6.9,192.2z M4.2,190.8c2.5-6.7,9.2-9.9,18.3-8.6C16.3,186.1,10.4,188.6,4.2,190.8z M31.4,163.7
		c1.2,4.9-0.2,9.1-3.2,12.9c-0.2,0.3-0.5,0.1-0.6-0.3C28.8,172.1,30.1,167.9,31.4,163.7z M25.3,175.4c-1.2-5.3,0.3-9.8,3.7-13.7
		C28.7,166.5,26.9,170.9,25.3,175.4z M61.6,161.1c2.4,4.8,4.6,9.7,7.4,14.3C62.6,172.8,61.8,167.1,61.6,161.1z M71.2,173.9
		c-3.3-4.6-6-9.5-7.4-15C69.1,162.5,71.9,167.3,71.2,173.9z M89.9,188.4c-4.9-2.1-8.7-5.8-12.9-9C83.7,179.1,86.6,184,89.9,188.4z
		 M75.2,181.4c4.2,2.9,8.3,5.9,12.5,8.8C82.5,189,77.2,187.5,75.2,181.4z"/>
	<path d="M87.9,85.8c2.2,0.2,4.5-2,4.4-4.4C92.2,78.9,91,77,88,76.7c-2.3,0.3-4.4,1.1-4.5,4.1C83.4,83.3,85.4,85.7,87.9,85.8z"/>
	<path d="M4.5,165.1c2.5,0.1,4.7-2,4.7-4.5c0-2.3-2-4.5-4.3-4.5c-2.2,0-4.8,2.6-4.5,4.8C0.7,163.3,1.9,165,4.5,165.1z"/>
	<path d="M11.6,21.4c2.7,0,4.1-1.9,4.2-4.5c0.1-2.7-1.8-3.6-5.2-3.6c-1.6,0.1-3.3,1.2-3.4,3.8C7.3,19.8,9,21.4,11.6,21.4z"/>
	<path d="M44.7,7.8c2.5,0.1,4-1.3,4.3-3.7c-0.3-2.5-1.5-4.2-4.1-4.1c-2.3,0.1-4.3,1.1-4.3,3.8C40.7,6.3,42.2,7.8,44.7,7.8z"/>
	<path d="M79.2,21.9c2.3,0,3.7-1.4,4-3.8c-0.2-2.3-1.5-3.6-3.8-3.8c-2.4-0.2-4,1.1-4.1,3.4C75.2,20.1,76.6,21.9,79.2,21.9z"/>
	<path d="M13.5,87.9c0-2.4-1.5-3.6-3.7-3.9c-2.4,0.3-3.8,1.4-3.8,3.9c0,2.4,1.3,3.8,3.7,3.8C12.1,91.6,13.5,90.4,13.5,87.9z"/>
	<path d="M91.2,157.8c-1.2-1.8-3-2.2-4.9-1.3c-2.4,1.1-2.2,3.1-1.6,5.1c0.4,1.3,1.9,1.6,2.7,2.5c0.9-0.3,2-0.5,2.8-1
		C92,161.7,92.4,159.8,91.2,157.8z"/>
</g>
</svg>
