<?xml version="1.0" encoding="utf-8"?>
<!-- Generator: Adobe Illustrator 25.3.0, SVG Export Plug-In . SVG Version: 6.00 Build 0)  -->
<svg version="1.1" id="Layer_1" xmlns="http://www.w3.org/2000/svg" xmlns:xlink="http://www.w3.org/1999/xlink" x="0px" y="0px"
	 viewBox="0 0 106.9 250" style="enable-background:new 0 0 106.9 250;" xml:space="preserve">
<g>
	<path d="M54.6,53.1C54.6,53,54.6,53,54.6,53.1C54.7,53,54.7,53,54.6,53.1L54.6,53.1z"/>
	<path d="M96.8,163.3c-0.5-14.7-4.4-28-14.4-39.1c-2.1-2.3-4.1-5-6.9-6.6c-0.7-0.4-1.3-0.7-2.1-0.2c-0.7,0.5-0.3,1.2-0.2,1.8
		c0.2,1.3,0.6,2.5,1.1,3.8c4.2,10.1,6.8,20.7,7.2,31.6c0.6,14.9-3.2,29-10,42.3c-6.6,12.9-17.1,23.3-23.1,36.7
		c-0.6-4.1-2.3-7.9-2.8-11.8c-0.5-4.3-0.1-8.7,0.7-13c2.2-11.5,6-22.6,9.9-33.6c4.2-11.9,7.4-24,8.8-36.6c0.8-7.4,0.4-14.7-0.1-22.1
		c-0.2-3.4-0.4-6.9-1.6-10.2c-1.3-3.4,0-4.9,3.7-4.2c3.4,0.6,6.5-0.9,7.6-4.1c1-2.8,2.7-4.3,5.5-5.3c4.9-1.7,7.2-5.3,6.6-9.7
		c-0.4-3.4-2.4-5.9-5.2-7.4c-4.1-2.3-8.4-4.1-13.1-4.9c-3.4-0.6-6.8-1-10.5-1.2c1.2-1,2.3-1,3.4-1c3.6-0.2,7.2,0.5,10.8,0.9
		c6.5,0.8,12.8,0.7,18.6-2.9c2.4-1.5,3.8-3.4,3.9-6.1c0.2-3.9-0.9-7.3-4.3-9.7c-1-0.7-1.3-1.4-1.1-2.7c0.3-2.6-1.1-4.8-3.6-4.9
		c-2.7-0.2-2.6-1.4-2.2-3.5c1-5.1-1.3-9-5.5-10.1c-2.5-0.6-4.7,0-6.9,1.2c-1.2,0.7-2.2,1-3-0.6c-0.7-1.3-2.1-1.5-3.5-1.1
		c-3.1,0.8-5.3,2.8-7.3,5.2c-0.5,0.6-0.7,1.5-1.8,1.9c0.4-1.6,0.6-2.9,1-4.3c0.8-3.5,0.3-6.7-2.2-9.4c-2.1-2.2-2.3-4.6-1.3-7.3
		c0.4-1.1,0.9-2.1,1.3-3.2c0.2-0.5,0.6-1.1,0-1.6c-0.5-0.5-1.1-0.2-1.6,0.1c-3.6,1.8-6,4.6-6.2,8.8c-0.1,1.7,0.1,3.5,0,5.2
		c-0.3,4.8-2.6,7.8-6.4,8.1c-2.4,0.2-3.8,1.2-4.7,3.3c-0.6,1.3-1.2,1.5-2.4,0.6c-3.3-2.3-5.9-1.9-8.7,1c-2.2,2.3-3.6,5.1-4.3,8.2
		c-0.2,0.9-0.5,1.7-1.3,2.3c-3,2.3-3.6,4.8-2.1,8.4c1.4,3.5,1.4,3.5-1.8,5.5c-4.1,2.6-5.6,7.1-4.2,12.3c1.1,4.3,4.2,6.5,9.2,6.6
		c4.4,0.1,8-1.6,11-4.8c2.6-2.7,5.5-5,9.1-6.1c3.2-1,5.6-1,7.7,0.1c-0.2,0.1-0.4,0.3-0.7,0.3C36,73.4,30.2,81.4,26.8,91.5
		c-1.2,3.4-0.8,7,1.2,10.2c3,4.7,6.6,5.2,10.8,1.5c1-0.9,1.6-1.3,2.8-0.1c1.4,1.4,3.2,1.5,5,0.9c2.1-0.7,3.8-2,5.2-3.7
		c1.5-1.7,2.9-1.6,4.5-0.2c0.9,0.7,1.7,1.9,2.7,2.1c2.6,0.6,3,2.5,3.3,4.5c0.9,5.6,1.1,11.2,1.5,16.9c0.6,9.8-0.7,19.3-2.6,28.9
		c-2.2,11.5-6.9,22.3-10.3,33.4c-3.1,10.1-6.9,20.1-6.8,30.9c0,0.3-0.1,0.6-0.7,0.8c-1.7-2.9-3.4-5.9-5.2-8.8
		c-2.4-4.1-4.8-8.2-6-12.9c-3.1-11.9-1.6-23.7,1.6-35.3c1.5-5.2,3.4-10.3,5.4-15.3c0.3-0.8,0.7-1.8,0-2.6c-0.8-0.8-1.8-0.7-2.8-0.3
		c-1.3,0.4-2.5,1.2-3.7,1.9c-19.4,12.5-26.6,44.3-17.4,62.3c4.6,9,9.7,17.2,19.1,21.8c4.6,2.3,8.3,5.5,11.3,9.6
		c1.9,2.5,2.7,2.6,4.6-0.1c2.9-4,6.2-7.6,9.9-11c6.5-6,13.3-11.5,19-18.2C90.5,195.7,97.4,181.1,96.8,163.3z M73.2,98
		c-1.1,2.3-3.1,2.6-5.4,2.7c-1.2,0-2.1-0.5-2.5-1.6c-2.7-6.2-5.3-12.5-7.9-18.7c4.2,3,9.1,4.4,12.6,7.9c0.8,0.8,1.7,1.6,2.5,2.4
		C74.8,93.2,74.9,94.4,73.2,98z M83,89.2c-0.3,0.2-0.7,0.5-1,0.7c-4.6,3.1-5.4,3-9.2-1c-2.2-2.4-4.8-4.2-7.8-5.5
		c-3.6-1.6-6.2-4.6-8.8-7.4c-0.5-0.5-0.4-0.6-0.5-2.1c5.1,3.8,11.2,4.6,17.1,6.2c3.8,1,7.4,2.7,10.5,5.2C85.3,87,85.2,87.7,83,89.2z
		 M81.2,77.1c2.3,1.5,3.6,3.8,4.4,6.3c0.2,0.5,0.3,1.2-0.4,1.5c-0.5,0.3-0.9-0.2-1.3-0.5c-5.4-4.4-12-6.2-18.6-8
		c-3.7-1-7-2.6-9.9-5.2C64.7,70.4,73.4,72.1,81.2,77.1z M90,52.2c5.2,4.5,3.7,11.9-3,14.8c-4.4,1.9-8.9,1.8-13.5,1
		c-5.3-1-10.6-0.7-16.3-0.8c2.9-2,5.8-3,8.7-4c4.9-1.6,9.9-3.1,14.4-5.6c2.5-1.4,5-2.9,6.8-5.2C88.1,51.1,88.9,51.3,90,52.2z
		 M86.7,45c1.6,1.1,1.4,2.6,0.7,4.2c-0.7,1.5-1.7,2.8-3,3.8c-2.6,2.1-5.6,3.7-8.7,5c-6.1,2.6-12.7,3.8-18.7,6.8
		c3-5.2,7-9.2,12.2-11.8c4.5-2.2,9-4.3,12.6-8.1C83.1,43.5,85.1,43.9,86.7,45z M69.1,35.7c0.4-2.9,3.4-5,7-5.1
		c2.9-0.1,5.6,2.2,5.9,5.3c0.4,4.5-0.6,8.5-4.8,11.1c-1.9,1.2-3.8,2.3-5.8,3.2c-5.7,2.5-10.5,6-14.3,11c-0.2,0.3-0.4,0.5-0.6,0.7
		c-0.1,0.1-0.3,0.1-0.6,0.2c0.7-3.1,2.2-5.7,4-8.2c3-4,5.8-8.2,7.7-12.9C68.3,39.4,68.8,37.6,69.1,35.7z M56,39.5
		c1.6-3.8,3.9-7,7.8-8.8c2.2-1,3-0.5,3.5,1.8c0.5,2.1,0.2,4.1-0.4,6.1C65.8,42,64,45,62.1,48c-2.3,3.7-5.5,7-7.2,11.2
		c-0.9-1.9,0.1-3.4,1-4.8c2.7-3.9,3-7.9,0.5-12C55.8,41.5,55.6,40.5,56,39.5z M51.3,13.4c0.1,0,0.3,0.2,0.2,0.3
		c-0.1,0.8-0.6,1.1-1.4,0.9C50.3,13.9,50.6,13.5,51.3,13.4z M49.3,16.4c1-0.2,1.7,1.6,1.6,2.6c-0.1,2-2-0.2-2.7,1
		C48.2,18.5,47.9,16.7,49.3,16.4z M22.1,43.7c0.9-2.4,2.2-4.6,4.2-6.2c1.8-1.5,3.7-1.7,5.5,0c0.7,0.7,1.5,1.3,2.3,1.8
		c5.1,2.8,7.3,7.4,8.1,12.8c0.5,3.7,0.8,7.4,2.2,11c-1.5-1.4-2.3-3.2-3.1-5c-3.3-7-8.7-10.4-16.5-10.3C21,48,20.7,47.4,22.1,43.7z
		 M22,49.3c0.6,0,1.1,0.2,1.7,0.1c9.1-0.5,14.7,4.1,17.6,12.9c-2.8-1.6-5.1-3.2-8-3.8c-3.7-0.7-7.2,0-10.7,0.7c-2,0.4-3.1-0.1-3.8-2
		c-0.3-0.8-0.8-1.6-1.1-2.5C16.5,51,18.1,49,22,49.3z M28.9,75.4c-2.5,2.6-5.7,3.8-9.3,3.7c-4.1-0.2-6.6-1.8-7.5-5.1
		c-1.3-4.3-0.1-8.4,3.1-10.6c4-2.9,8.9-2.6,13.4-3.3c6.7-0.9,11.2,3,16.2,7.4C37.8,67.7,33.1,70.9,28.9,75.4z M47.1,55.4
		c-0.6,1.7-0.8,3.5-1.2,5.5c-1.1-1.3-1.2-2.7-1.4-4.1c-0.4-2.8-0.6-5.7-1.4-8.5c-1-3.5-2.6-6.5-5.6-8.7c-0.8-0.6-1.8-1.1-1.1-2.3
		c0.7-1.3,0.9-2.9,2.8-3c0.8,0,1.6,0.2,2.4-0.2c2.5-1.3,2.6-1.3,2.7,1.7c0.1,2.9,0.7,5.7,2,8.3C48.2,47.7,48.5,51.5,47.1,55.4z
		 M30.8,102.4c-2.8-2.7-3.6-5.7-2.9-8.7c2.4-10.1,8.1-17.6,18-21.6c1.7-0.7,4.2-1.8,5.2-0.1c0.8,1.4-1.4,3.1-2.7,4.2
		c-2.2,1.9-4.6,3.7-7,5.4C35.2,86,32,92.1,31.1,99.5C31.1,100.3,30.9,101.1,30.8,102.4z M39.1,100.1c-0.6,1.9-2.1,3.1-3.9,3.9
		c-1.8,0.7-2.7,0.1-2.7-1.8c0.2-6,1.8-11.5,6.1-16c3.8-4,8.9-6.4,12.8-10.3c-0.5,2.5-1.6,4.7-2.9,6.7
		C44.9,88.1,41.1,93.6,39.1,100.1z M44.4,101.5c-0.5,1.3-1.3,1-2,0.2c-1.1-1.1-1.4-2.4-0.8-3.9c0.7-2.1,1.8-4.1,2.9-6
		c2.7-4.6,6-8.8,8.4-13.6c0.2,1.8-0.4,3.4-0.8,5.1C50.3,89.8,46.7,95.4,44.4,101.5z M52.6,96.6c-0.7,2.5-3.2,4.2-5.6,5.5
		c-0.3,0.1-0.6,0.3-0.9-0.1c-0.3-0.5,0-0.9,0.2-1.4c1.7-3.6,3.4-7.3,5.1-10.9c0.5-1.1,1-2.3,1.5-3.4c0.2,0.1,0.4,0.1,0.6,0.2
		C53.2,89.9,53.5,93.4,52.6,96.6z M52,60.9c-0.3,0.6,0.3,1,0.5,1.5c0.9,1.7,0.2,3.4-0.3,5c-0.2,0.5-0.8,0.9-1.4,0.7
		c-0.4-0.1-0.8-0.4-0.9-0.8c-0.5-1.1,0.6-0.6,1-0.9c0.8-0.6,1.2-1.2,0.6-2.1c-0.6-0.9-1.4-0.7-2.1,0c-0.2,0.2-0.5,0.4-0.8,0.5
		c-0.5-1,0.1-1.5,0.5-2.1c0.4-0.6,0.5-1.3-0.1-1.8c-1.6-1-1.3-2.5-0.8-3.7c0.9-2.4,0.3-5.3,2.6-7.2c0.1-0.1,0.1-0.8,0-0.9
		c-1.3-0.9-0.6-1.7,0-2.7c0.7-1.2,0.3-2-1.1-2.4c-2.2-0.6-4.8-5.8-3.4-7.5c1.2-1.6,1.1-2.4-0.1-3.7c-0.2-0.2,0-0.8,0-1.3
		c1.2,0.3,2.3,1.5,3.4,0.3c0.4-0.5,0.6-1,0.4-1.6c-0.4-1.5-1.7-1.1-2.9-1.1c0.2-0.9,0.4-1.7,0.6-2.4c0.6-2.4-0.5-5.7,3.7-5.8
		c0.8,0.9,1.8,2.1,2.8,3.3c0,0-0.1,0.1-0.1,0.1l0.1-0.1c-0.1,0-0.1,0.1-0.2,0.1c-1.3-0.1-2.9-0.7-3.4,1.2c-0.3,0.9-0.1,1.9,0.9,2.3
		c1.7,0.7,2.6-0.4,3.7-1.8c-1.7,2.6,0.2,5.2-0.6,7.7c-0.3,0.9-0.7,1.7-1.1,2.6c0,0,0,0,0,0c0,0,0,0,0,0.1c0,0,0,0,0,0c0,0,0,0,0,0
		c0,0,0,0,0,0c0,0,0,0,0,0c0,0,0,0,0,0c-0.2,1.9,1.2,4-0.9,5.7c-0.6,0.5,0.4,1.5,1.2,0.9c1.2-1,1.4,0,1.7,0.7c1,2.2,2.3,4.4-0.2,6.6
		c-0.7,0.6,0.5,1.9-0.5,2.6C53,55.4,53.2,58.3,52,60.9z M59.2,100.6c-1.4-1-2.8-2-4.2-3c-0.6-0.4-0.7-0.9-0.7-1.5
		c0.3-4.6,0.7-9.3,1-13.9c0.3-0.1,0.5-0.1,0.8-0.2c1.6,3.4,3.3,6.7,4.8,10.1c1,2.2,1.8,4.4,2.9,6.5c0.8,1.7,0.2,2.4-1.4,2.7
		C61.2,101.7,60.2,101.2,59.2,100.6z M30.6,167.4c-2.1,10.3-2.5,20.5,0.7,30.7c1.7,5.4,4.9,10,7.6,14.9c2.8,4.9,5.7,9.8,6.9,15.5
		c0.2,0.9,0.6,1.7,0.1,2.6c-28-21.2-34.5-56.7-9.4-83.7C34.2,154,31.9,160.6,30.6,167.4z M46.7,235.8c-1,0.3-1.2-0.6-1.6-1.1
		c-2.2-2.5-4.5-4.9-7.5-6.3C27,223.6,21.1,215,16.3,204.9c-7.8-16.3-1.6-46.4,16.6-58.6c1.1-0.8,2.2-1.7,3.8-1.9
		c-3.3,3.8-6.7,7.5-9.1,11.9c-5.7,10.5-9.7,21.6-8.1,33.7c1.8,13,6.9,24.8,16.5,34.2c3.2,3.1,6.4,6.2,9.5,9.3
		C46.1,234.1,46.9,234.6,46.7,235.8z M77.1,121.2c-0.1-0.1-0.3-0.1-0.4-0.2C76.9,120.9,77,121,77.1,121.2z M76.9,124
		c0,0-0.1,0.1-0.1,0.1C76.8,124.1,76.8,124,76.9,124C76.9,124,76.9,124,76.9,124z M76.6,120.8l0,0.1c0,0,0,0,0,0L76.6,120.8z
		 M83,153.9c-0.3-9-2.2-17.7-5.4-26.2c-0.4-1.1-1.3-2.3-0.7-3.7c2.8,4.4,5.3,8.9,7.5,13.7c5.8,13.3,5.5,26.6,1.4,40.2
		c-3.5,11.7-9.2,22.2-17.5,31.3c-2.6,2.8-5.1,5.8-7.6,8.7c-0.5,0.6-0.8,1.4-1.7,1.5c2.5-4.6,5.8-8.6,8.7-13
		C78.1,190.5,83.7,173,83,153.9z M58.9,219.5c0.1,0.6-0.5,0.9-0.8,1.4C58.1,220.4,58.2,219.8,58.9,219.5z M73.2,213
		c-6.4,6.4-13.6,11.9-19.7,18.6c-0.8,0.9-1.6,1.8-2.5,2.6c1.8-4.8,5.2-8.5,8.4-12.3c5.4-6.3,11.2-12.3,16.1-19
		c9.6-13.4,14.8-28.4,14.9-44.9c0.1-12.1-4.5-22.9-11.1-32.9c-0.8-1.2-1.7-2.3-2-3.8c1.7,0.8,2.7,2.3,3.8,3.6
		c8.4,9.4,12.6,20.5,13.9,33C97.2,180.1,88.4,197.7,73.2,213z"/>
	<path d="M51.8,33c-1-0.1-1.7,0.5-2,1.4c-0.4,1.1,0.1,1.9,0.9,2.5c1,0.8,1.7-0.2,2.6-0.4c0.1-0.5,0.2-1.1,0.2-1.6
		C53.5,33.8,53,33,51.8,33z"/>
	<path d="M51.8,51c-0.8,0.4-1.1,1.3-0.6,2.1c0.8,1.2,1.8,1.3,2.8,0.3c0.1-0.1,0.3-0.2,0.5-0.3c-0.1-0.2-0.2-0.4-0.3-0.6
		C53.9,51.2,53.2,50.4,51.8,51z"/>
	<path d="M54.6,53.1C54.6,53.1,54.7,53,54.6,53.1C54.6,53,54.6,53,54.6,53.1C54.6,53.1,54.6,53.1,54.6,53.1z"/>
	<path d="M50.7,55.7c-1,0-1.4,0.8-1.4,1.6c0,0.7,0.4,1.2,1.3,1.2c0.8-0.1,1.2-0.6,1.3-1.4C52,56.4,51.5,55.7,50.7,55.7z"/>
	<path d="M54,49c0.9-0.1,1.5-0.6,1.5-1.6c-0.1-0.8-0.5-1.3-1.3-1.2c-0.9,0.1-1.4,0.8-1.4,1.7C53,48.6,53.3,49.1,54,49z"/>
	<path d="M48.1,38c-0.6,0.1-1.1,0.4-1,1.1c0.1,0.5,0.4,0.8,1.1,0.8c0.5-0.1,0.9-0.4,0.8-1.1C49,38.3,48.6,38,48.1,38z"/>
</g>
</svg>
