<?xml version="1.0" encoding="utf-8"?>
<!-- Generator: Adobe Illustrator 25.3.0, SVG Export Plug-In . SVG Version: 6.00 Build 0)  -->
<svg version="1.1" id="Layer_1" xmlns="http://www.w3.org/2000/svg" xmlns:xlink="http://www.w3.org/1999/xlink" x="0px" y="0px"
	 viewBox="0 0 128 231.2" style="enable-background:new 0 0 128 231.2;" xml:space="preserve">
<path d="M66.6,231.2c-2-1.6-1-3.7-1-5.5c0.3-9,0.6-18,1-27c0.1-2.8-0.5-4.8-3.2-6.5c-4-2.5-6.2-6.8-7.9-11.1
	c-2.2-5.4-4.1-10.9-6.1-16.3c-1.4-3.8-2.8-7.5-5.2-10.8c-1-1.3-3.5-2.3-2.2-4.3c1.6-2.4,4.1-0.9,6-0.1c4.8,1.9,8.4,5.4,11.5,9.4
	c2.5,3.3,4.7,6.9,6.4,11.3c4.9-16.7-4.2-50-15.8-59.1c-1.6,0.6-1.2,2-1,3c1.8,8.9-3.3,14.4-9.4,19.4c-3,2.5-5.1,2.8-6.2-1.9
	c-0.9-3.9-0.9-7.9-0.4-12.4c-5.6,2.6-11,2.5-16.3,2.3c-5.7-0.2-6.6-1.8-3.6-6.5c5.8-8.9,12.7-15.8,25.1-12.5
	c-0.7-4-1.5-7.2-1.7-10.4c-0.2-2.8-0.1-6,3.2-7.1c3.5-1.1,5.6,1.3,7.5,3.8c2.9,3.9,3.7,8.5,3.1,13.2c-0.3,2.7,0.2,4.2,2.5,6
	c6,4.5,8.2,11.7,11.5,18.1c0.7,1.3,0.4,3.3,2.3,3.8c0-9.5,0-19,0-28.5c0-2.1-1.3-2.5-2.9-3.1c-6.8-2.6-15.3-15.1-15.2-22.3
	c0.1-4,2.7-3.8,5.5-2.8c4.7,1.6,7.9,5.3,11.4,8.8C64.7,69.8,65,57.7,60,46.4c-0.9-2-2.3-3.8-3.8-5.4c-1.7-1.9-3.9-4.2-6.6-2.8
	c-2.5,1.3-0.5,4-0.4,6.1c0.3,6.7,2,13.5-3.3,19.4c-5.9,6.6-7.2,6.6-10.9-1.4c-4,4.5-8,8.9-12,13.3c-1.2,1.3-2.3,3.2-4.4,2.4
	c-1.6-0.6-1.7-2.5-2-4.1c-0.6-3.5,1.8-8.1-0.7-10.3c-2.1-1.8-6.5-0.7-9.8-1.3c-2.2-0.4-5.3-0.1-6.1-2.9c-0.7-2.6,2.3-3.4,3.5-5.1
	c1.1-1.4,2-3,2.9-4.5c5.5-9.3,10.9-18.7,24.6-17c-2.6-5-4.1-9.5-3.3-14.5c0.8-4.9,2.7-5.9,7-3.5C41.2,18.3,46.3,23,46,31.1
	c-0.1,2.2,0.5,3.4,3.1,2.9c4.1-0.9,7.4,0.9,10.6,4.4c1.2-5.8,1.4-9.6-3.8-13.3c-6.5-4.6-9-12.1-8.6-20.2c0.1-1.8,0.6-3.7,2.4-4.6
	c2-0.9,3.4,0.6,4.8,1.7c3.7,2.9,5.2,7.4,7.6,11.8c2.9-3.3,6-5.9,9.3-8.1c1.8-1.2,3.8-2.9,6-1.5c2.2,1.4,1.4,4,1.1,6.1
	c-0.7,5.9-4.2,10-9.3,12.4c-4.8,2.3-5.7,5.6-5.6,10.5c0.2,8.9,3.6,17.1,5.2,26.5c2.7-4,3.7-7.5,3.9-11.4c0.3-5.3,1.6-10.4,6.1-13.8
	c1.5-1.2,3.2-3,5.3-1.6c1.9,1.2,1.8,3.5,1.5,5.5c-1,5.9-3.8,11.1-8.1,15.1c-6,5.5-8,12.2-7.4,20c0.6,8.1,1.1,16.3,1.8,25.9
	c2.3-4.4,3.9-7.9,5.9-11.1c1.6-2.5,3.2-5.2,5.5-7.1c3.4-2.8,3.9-4.6,0.1-7.6c-3.3-2.6-4-6.8-3.9-11c0.1-2.7,0.5-5.3,3.5-6.3
	c3-1.1,5.5-0.2,7.5,2.2c0.9,1,1.4,2.5,3.1,2.9c1.9-3,3.2-6.4,6.4-8.5c2-1.3,4.2-2.8,6.7-1.9c2.7,1.1,2.2,4,2.6,6.3
	c0.5,2.6-1.1,4.9-1.5,7.8c7.4,0.7,13.5,3.8,18.2,9.4c3.1,3.8,2.8,5.3-1.8,7c-4.3,1.6-8.8,2.7-13.5,2.4c-2.2-0.2-4.3-0.7-3.2,2.7
	c1.1,3.7-1.3,4.1-3.9,4.1c-7,0.1-11.4-4-14.9-10.2c-17.5,18.4-17.9,40.8-16.1,64.9c1.6-3.2,2.6-5.6,3.8-7.9c3.5-7,7.3-13.8,13-19.4
	c1-0.9,1.7-2.6,3.3-2.1c1.9,0.5,1.8,2.5,1.9,4c0.6,6.9-0.4,13.6-2.4,20.2c-3.8,12.3-8.7,24.1-16,34.9c-3.4,5-4.7,10.4-4.4,16.4
	c0.7,11.7-0.3,23.2-2.9,34.7C68.5,228.3,68.5,228.4,66.6,231.2z M72.3,171.6c10.2-12.8,19-37.4,17.3-48.6
	C79.8,137.8,73,153,72.3,171.6z M8,57.5c6.3,1.4,10.7,0.7,13.3-5.9c1.8-4.7,6.5-7.4,10.7-10.2c1.5-1,4-1,4.5-3.4
	C22.9,31.5,14.7,41.2,8,57.5z M37.3,43.3c-11.3,4.9-17.2,15-14.9,26C30.6,62.3,35.6,53.9,37.3,43.3z M99.1,73.2
	c5.4,7.5,12.7,8.1,20.8,5.9c2.3-0.6,3-1.5,1.1-3.7C115.4,69,105.7,67.9,99.1,73.2z M50.7,156c4.4,11,6.4,23.2,15.3,32.1
	C65.2,175.3,60.5,164.5,50.7,156z M18.5,116.4c9.3,1.9,15.9-3.2,22.7-7.5c0.7-0.4,1.3-1,1-1.9c-0.4-1.1-1.5-1.1-2.5-1.2
	C30.8,104.8,23,106.6,18.5,116.4z M36.7,130.3c8.3-5.8,10.1-10.1,7.9-19.1C37.4,115.8,36,122.4,36.7,130.3z M32.2,18.5
	c-1,6.3,2.2,13.3,7.3,16.3c2,1.2,2.7,1,2.9-1.5C43.3,26.6,40,21.7,32.2,18.5z M40.7,62.2c5.9-4.6,6.8-10.2,3.1-20.4
	C39.5,46.9,38.4,53.6,40.7,62.2z M53.5,77.9c2.6,6.8,4.2,14.3,13.4,17.8C64.3,87.2,60.6,81.3,53.5,77.9z M96.4,69.3
	c5.7-2.2,9.7-5.5,9.2-12.2c-0.2-2.9-1.5-3.5-3.8-1.7C97.6,59,96.2,63.8,96.4,69.3z M91.7,69.8c-0.4-3.4-1.5-7.6-5.6-10.1
	c-1-0.6-1.9-0.3-2.4,0.8c-1.5,2.9,0.9,9.8,4.4,12.3c1,0.7,2,1.6,3.2,0.9C92.1,73.1,91.9,71.9,91.7,69.8z M46.1,104.2
	c1-5.8,0.8-10.4-2.8-14.3c-0.7-0.7-1.5-1.4-2.6-1.1c-1.3,0.4-0.9,1.6-0.9,2.5C40.1,96.2,41.3,100.6,46.1,104.2z M51.1,4.3
	c0.5,9.1,3,14.2,8,17.1C58.7,14.9,56.8,9.4,51.1,4.3z M64.1,21.6c10.1-6.5,11.2-8,9.9-14.1C69.2,10.9,64.8,14.5,64.1,21.6z
	 M103.4,86.8c-0.6-4-2.5-6.7-5.1-8.9c-1.5-1.3-3.3-1.5-4.8,0c-1.4,1.5-0.5,3.1,0.6,4.2C96.6,84.4,99,86.8,103.4,86.8z M76.7,48.5
	c2.8-3.4,4.8-7.3,5.3-11.7C77.4,39.4,76.6,43.7,76.7,48.5z"/>
</svg>
