<?xml version="1.0" encoding="utf-8"?>
<!-- Generator: Adobe Illustrator 25.3.0, SVG Export Plug-In . SVG Version: 6.00 Build 0)  -->
<svg version="1.1" id="Layer_1" xmlns="http://www.w3.org/2000/svg" xmlns:xlink="http://www.w3.org/1999/xlink" x="0px" y="0px"
	 viewBox="0 0 85.4 230.2" style="enable-background:new 0 0 85.4 230.2;" xml:space="preserve">
<path d="M45,52.3c3.1-4.1,6-8,8.8-11.9c1.4-1.9,0.2-3.8-0.1-5.8c-0.7-4.5,1.7-8.2,5.8-9.1c3.7-0.8,7.9,1.8,8.7,5.5
	c0.9,3.9-1.7,8-5.8,9.3c-7.9,2.3-17,14.5-17.7,24.8c2.5-3.3,4.3-5.6,6.1-7.9c4.4-5.7,9.4-10.7,16.2-13.6c3.8-1.6,8.2-3.4,11.1,0.4
	c3.2,4.2,0.5,8.5-2.6,11.9c-5.3,5.7-12.1,9.1-19.1,11.9c-11.9,4.8-11.9,4.7-11.9,17.7c0,3.7,0,7.4,0,12.4c5.4-6.3,9.9-11.7,14.4-17
	c1.2-1.4,0.3-3,0.3-4.5c0.1-5.4,3.8-8.9,8.9-8.5c5.1,0.3,8,4.3,7.2,9.9c-0.7,4.9-4.3,7.4-9.8,6.2c-2.4-0.5-4.2-1-6,1
	c-5.4,6-10.3,12.3-14.4,19.2c-1,1.6-0.8,3.3-0.3,5.7c4.2-4.9,7.9-9.6,12-13.8c5.1-5.3,11.3-8.8,18.7-9.4c7.1-0.5,10.3,4,7.9,10.7
	c-1.5,4.2-4.7,6.9-8.4,9.2c-7.9,4.8-16.6,7.5-25.4,9.9c-4,1.1-5.4,2.9-5.3,7c0.3,7.1,0.1,14.2,0.7,21.7c4.4-7.3,13.2-11,14.9-20.4
	c0.9-4.8,4.6-6.4,9-5.8c4.3,0.5,7.1,3.1,6.8,7.6c-0.2,4.6-4.1,7.5-7.7,6.6c-8.4-2.1-11.4,3.6-15.3,8.5c-3.2,4.1-6.9,8-8.6,14.6
	c4.8-3,6.9-6.9,9.8-10c5.5-5.9,11.2-11.6,19.6-13.2c4.5-0.9,8.6-0.4,10.9,4.1c2.6,4.9-0.5,8-4,10.7c-8.8,6.8-19.1,10.5-29.4,14.1
	c-5.5,1.9-7.2,4.8-6.8,10.2c0.4,4.8,0.1,9.7,0.8,14.8c4.3-8.5,13.3-13.4,15.4-23.4c0.8-4,4.4-6.1,8.9-4.9c4,1.1,5.1,4.2,4.7,7.8
	c-0.5,4.4-3.9,6.4-7.6,5.6c-4.8-1.1-7.2,1.3-9.5,4.4c-3.6,5.1-7.2,10.2-10.6,15.4c-1.2,1.8-2.7,3.6-1.3,6.8c3.2-4,6.2-7.8,9.3-11.5
	c5-6,11.2-10.2,18.8-12.1c3.7-0.9,7.9-1.7,10.2,2.3c2.4,4.1,1.3,8.3-1.6,11.8c-3.8,4.6-8.9,7.4-14.4,9.4c-5.8,2.2-11.7,4.4-17.7,5.9
	c-4.4,1.1-5.5,3.4-5.5,7.5c0,5.6,0.8,11.3-0.9,18.2c-3.5-4.1-2.1-7.7-2.2-10.9c-0.2-13.6-0.1-13.6-12.9-18.6
	c-7.9-3.1-15.7-6.3-22.7-11.3c-3.1-2.3-6.4-4.7-5.7-9.1c0.7-4.2,3.7-6.5,8.1-6.5c2.2,0,2.3-0.9,2.1-2.9c-0.5-5.7,1.8-9.1,6.3-9.8
	c4.8-0.8,8.1,2,9.4,8c0.2,1.1,0.1,2.2,1.1,3c5.2,4.3,8.6,10.1,14.1,16.3c0-7.6,0-13.9,0-20.2c0-3.4-2.7-3.6-5-4.3
	c-7.4-2.4-15-4.4-22-8c-4.2-2.1-8.2-4.6-11-8.5c-2.3-3.3-3.2-7-1.1-10.7c2.2-3.9,6.1-3.3,9.6-2.7c8.5,1.6,15,6.5,20.4,13.1
	c2.8,3.4,5.5,6.9,8.4,10.6c1.5-2.8,0.1-4.8-1.2-6.7c-3.1-4.6-6.3-9.2-9.5-13.7c-2.7-3.8-5.3-6.6-11-4.6c-4.2,1.4-7.9-2-8.5-6.4
	c-0.7-5.1,1.6-8.8,6-9.7c4.5-0.9,9.9,1.6,9.6,5.9c-0.4,6.4,3.8,9.4,6.9,13.5c2.4,3.2,4.7,6.4,8.2,9.5c0-8.1,0-16.1,0-24.2
	c0-3.3-2.6-3.7-4.8-4.6c-9.5-3.8-19.3-6.9-27.8-12.9c-1.8-1.3-3.6-2.6-5.3-4.1c-2.5-2.3-3.8-5.1-2.3-8.4c1.4-3.1,4.1-4.5,7.6-4.4
	c6.3,0.1,11.6,2.5,16.3,6.7c5.6,5,10.3,10.9,15.6,16.6c1.5-3.2,0.3-5.4-1.1-7.4c-3.1-4.3-6.3-8.7-9.6-12.9c-2.4-3-4.7-5.4-9.5-3.5
	c-4.3,1.7-9.3-1.6-10.2-5.3c-0.8-3.5,1.9-7.6,5.8-8.6c4.7-1.2,9.4,1.4,10,6.2c0.4,3,1.8,4.7,3.6,6.7c3.7,3.8,7.1,7.9,11.8,13.2
	c0-8.5,0.1-15.9-0.1-23.2c-0.1-3.3-3.1-3.3-5.4-3.9c-6.9-1.7-13.8-3.4-20.2-6.7c-3.8-2-7.1-4.6-9.3-8.4c-1.9-3.2-3.1-6.5-0.5-9.9
	c2.7-3.5,6.3-2.9,9.7-1.7c8.7,3,15.4,8.7,21.4,15.6c1.1,1.3,2.2,2.6,3.5,4.1c1.5-3.1,0.1-5.3-1.3-7.2c-4.8-6.6-7.4-15.4-17.9-16
	c-3.3-0.2-5.3-3.2-4.5-7c0.7-3.5,3-5.6,6.5-5.6c4.1,0,8.6,1.7,8.2,6.1c-0.8,8.3,5.5,11.9,9,18c1.6-3.8-0.1-6.1-1.5-8.7
	c-4.9-9.2-7.6-19-6.7-29.5c0.2-2.2,0.5-4.4,1.1-6.6c1.3-4.7,4.2-8,9.5-7.8c5,0.2,7.5,3.5,8.6,8c3.2,12.5,0.9,24.3-4.6,35.6
	C45.6,46.2,43.6,48.6,45,52.3z M37,159.7c-5.3-8.1-10.4-16.5-19.8-20.7c-3.9-1.8-8.4-4.4-12.2-0.4c-2.6,2.7,0.2,7.8,6.2,11.7
	C19,155.3,27.8,157.5,37,159.7z M48.2,158.9c10.9-3.5,21.6-7.1,30.7-14.1c1.9-1.5,4.1-3.2,2.7-6.1c-1.3-2.8-3.9-3.3-6.8-2.7
	c-4.4,1-8.4,2.6-11.8,5.7C57.4,146.8,52.7,152.7,48.2,158.9z M38.8,68.6c-6.7-9.7-13.4-16.7-23-20.5C13,47,9.9,46.1,7.9,49
	c-2.1,3,0.2,5.7,2.1,7.6C17.6,63.9,27.3,66.3,38.8,68.6z M48.5,67.2c9.4-3.1,18.6-6.7,25.3-14.4c1.6-1.8,3.3-4.2,1.4-6.5
	c-1.8-2.1-4.2-0.7-6.2,0.1C59.2,50.2,53.8,58.6,48.5,67.2z M40.6,196.4c-3.2-7.9-8.1-14.6-14-20.5c-2.3-2.3-4.5-1.9-6.6,0.7
	C27.9,182.3,33.5,190,40.6,196.4z M67.5,71.4c-2.9,0.1-4.9,1.6-4.9,4.4c0,2.9,1.8,5.1,4.9,5.4c3.1,0.3,4.4-1.4,4.6-4.4
	C72.2,73.6,70.7,71.7,67.5,71.4z M22.7,79.2c-0.4-2.4-1.9-3.9-4.5-3.8c-2.8,0.1-4.8,1.3-4.5,4.5c0.2,2.8,2.5,3.6,4.8,3.6
	C21,83.5,22.6,82.1,22.7,79.2z M22.6,168.4c-0.4-2.7-2.2-4.3-4.8-4.3c-2.4,0-4.3,1.5-4.5,4.1c-0.3,3.3,2.3,4,4.8,4.1
	C20.6,172.4,22.3,171.3,22.6,168.4z M67,161.1c-1.7,0.7-3.7,1.7-3.7,4.3c0,2.6,1.9,3.3,4.1,3.2c2.2-0.1,3.9-1.3,3.8-3.7
	C71.2,162.8,69.9,161.3,67,161.1z"/>
</svg>
