<?xml version="1.0" encoding="utf-8"?>
<!-- Generator: Adobe Illustrator 25.3.0, SVG Export Plug-In . SVG Version: 6.00 Build 0)  -->
<svg version="1.1" id="Layer_1" xmlns="http://www.w3.org/2000/svg" xmlns:xlink="http://www.w3.org/1999/xlink" x="0px" y="0px"
	 viewBox="0 0 122.7 250.3" style="enable-background:new 0 0 122.7 250.3;" xml:space="preserve">
<g>
	<path d="M49.4,36.6C49.4,36.6,49.4,36.6,49.4,36.6C49.4,36.6,49.4,36.6,49.4,36.6C49.4,36.6,49.4,36.6,49.4,36.6
		C49.5,36.6,49.5,36.6,49.4,36.6C49.5,36.6,49.5,36.5,49.4,36.6L49.4,36.6z"/>
	<path d="M112.5,35.5c-2.4-9.2-10.1-21.3-22.8-19c-3.3,0.6-5.6-0.7-8.3-2.4c-8.1-5-16.9-6-25-0.6c-4.3,2.9-8.2,3.7-12.8,1.9
		c-4.6-1.8-8.7-0.4-10.3,3.8c-2.7,7-8,10.2-14.4,12.5c-1.3,0.5-2.5,1.4-3.6,2.2c-3.7,2.4-5.2,5.7-3.8,10c1.7,5.2,3.7,10.3,5.2,15.6
		c2.1,7.7,7.5,11.6,14.9,12.4c6,0.7,9.7,5.1,13.8,8.1c2.1,1.5,5.8,3.8,6.6,8.1c3,16.8,1.3,33.8,2.5,50.8
		c-4.9-9.2-9.7-18.1-17.2-25.3C28.1,105,16.6,100,10,102.2c8.1,5.1,12.4,12.7,16.3,20.8c1.5,3.1,3.6,6.1,7.2,7.4
		c2.2,4.3,6.6,5.8,10.5,7.4c8.2,3.5,11.3,10,12.7,18.2c4.5,27.5,10.6,54.6,20.3,80.8c0.5,1.5,0.7,4.3,3.1,3.3c2.3-0.9,0.5-3.2,0-4.6
		c-6.4-17.3-10.6-35.3-15.1-53.1c-3.1-12.5-1.1-22.3,9.2-30.8c7.6-6.2,12.1-15,13.4-24.7c1.2-9.3,3.4-18.1,9.1-25.7
		c0.6-0.8,1.7-1.8,0.9-2.8c-1-1.3-2.3-0.3-3.3,0.3c-6.1,3.4-11.5,7.6-16,13c-11,13.2-15.2,28.9-17.7,45.4
		c-3.4-19.9-3.5-39.9-2.1-59.9C59,87.9,64,84.9,73.1,81.9C83.8,78.5,91.4,74,93,63c0.3-1.9-0.3-5,0.6-5.6
		c6.4-3.8,7.2-12.6,14.6-15.5C110.6,41,113.5,39.3,112.5,35.5z M18.4,104.6l0,0.2c0,0,0,0,0,0L18.4,104.6z M23.8,112.3l0.1-0.2
		c0,0,0,0,0,0L23.8,112.3z M25.3,116.1c-0.2-0.8,0.2-1.2,0.8-1.5c-0.1,0.6-0.3,1.2-0.5,1.8C25.5,116.3,25.3,116.2,25.3,116.1z
		 M26.1,114.3l0,0.2c0,0,0,0,0,0L26.1,114.3z M27.8,120.5c-1-0.8-0.5-1.6,0-2.6C27.8,118.7,27.8,119.5,27.8,120.5z M29.9,123.4
		c-1.1-1.8-0.7-3.2-0.1-5C30.7,120.2,30.1,121.6,29.9,123.4z M31.9,126.4c-0.4-2-0.4-4,1-6C33.5,122.8,32.3,124.5,31.9,126.4z
		 M33.6,130.2c0.2-1.1-0.1-2.3,0.8-3.2C34.7,128.2,34.4,129.3,33.6,130.2z M34.5,126.8c0-1.2,0-2.3,0-4.3
		C35.8,124.6,35.5,125.8,34.5,126.8z M36.7,130c0.1-1.2,0.1-2.4,0.2-4.3C37.8,127.7,37.5,128.9,36.7,130z M39.4,130.7
		c-0.1,0-0.3,0-0.3-0.1c0-0.3-0.1-0.6,0-0.9c0.1-0.5,0.3-0.4,0.4,0.1C39.5,130.1,39.4,130.4,39.4,130.7z M43.4,133.3l0.1-0.3
		l0.1,0.3L43.4,133.3z M38.3,123.6c-5.9-7-11.6-14.1-19.8-18.7c3.2-0.5,5.6,1.4,8.1,2.9c11.2,6.7,18.5,16.8,23.8,28.5
		C45.4,133.1,42.1,128.1,38.3,123.6z M50.6,136.6c0.1,0.3,0.3,0.5,0.4,0.8C50.3,137.3,50.5,136.9,50.6,136.6z M69.6,152.7
		C69.6,152.7,69.6,152.7,69.6,152.7l0.2,0L69.6,152.7z M70.3,147.8c0.1,0.1,0.2,0.3,0.2,0.4c-0.1,0-0.2-0.1-0.2-0.1
		C70.3,148.1,70.3,147.9,70.3,147.8z M70.7,148.4c1,0.3,1,1.1,0.9,1.9C70.8,150,70.8,149.2,70.7,148.4z M72.1,145.5
		c0.2-0.1,0.3-0.2,0.5-0.3c0,0.3,0.1,0.6,0.1,0.8C72.6,145.9,72.3,145.7,72.1,145.5z M72.9,146.2c0.9,0.4,0.9,1.2,1,2
		C72.9,147.8,72.9,147,72.9,146.2z M73.2,141.3c0.2-0.1,0.4-0.2,0.6-0.3c0,0.3,0.1,0.5,0.1,0.8C73.6,141.7,73.4,141.5,73.2,141.3z
		 M73.9,142c0.9,0.3,1,1.1,1,2C74,143.6,74,142.8,73.9,142z M75.3,145.3c-0.1-0.3-0.2-0.7-0.2-1c0.2,0.3,0.4,0.5,0.6,0.8
		C75.6,145.1,75.4,145.2,75.3,145.3z M77.3,143.4c-0.9-1.9-1.7-3.7-2.6-5.6C77,139,77.4,141.1,77.3,143.4z M76.6,132.6
		c1.7,2.3,3.2,4.7,4,9.2C78,138.1,76.7,135.6,76.6,132.6z M78.8,128.1c1.3,2.7,2.5,5.5,3.8,8.2C80.1,134.1,78.5,131.5,78.8,128.1z
		 M83.2,132.8c-1.3-2.7-2.5-5.4-3.8-8.1c0.4-0.2,0.8-0.4,1.2-0.5c1.2,2.7,2.5,5.4,3.7,8.1C84,132.5,83.6,132.7,83.2,132.8z
		 M84.7,127.9c-1.1-2.2-2.2-4.3-3.2-6.5c0.3-0.1,0.6-0.2,0.9-0.3c1.1,2.1,2.1,4.3,3.2,6.4C85.2,127.6,84.9,127.8,84.7,127.9z
		 M83.3,117.6c1.9,1.5,2.5,3,3.2,5.4C84.3,121.5,83.8,119.9,83.3,117.6z M85.7,115.4c0.2,0.2,0.4,0.4,0.5,0.6
		c-0.2,0-0.4,0.1-0.5,0.1C85.7,115.9,85.7,115.7,85.7,115.4z M85.1,115c0.1,0,0.2-0.1,0.3,0c0.1,0.1,0.1,0.1,0.2,0.2
		C85.4,115.1,85.2,115,85.1,115z M87.2,113.3c-0.1-0.3-0.2-0.6-0.3-0.9c0-0.1,0.2-0.2,0.4-0.3c0.1,0.3,0.2,0.6,0.3,0.9
		C87.5,113.1,87.3,113.2,87.2,113.3z M89.7,103.4l0.2,0L89.7,103.4c-2.6,5.7-7.3,9.9-9.7,15.6c-4.9,11.5-9.9,23-14.9,34.5
		c-0.4,0.9-0.8,1.8-1.6,2.6C65.6,135.2,72.2,116.6,89.7,103.4z M83.6,19.4c3.5-0.4,7.1-0.6,10.6-0.6c3.5,0,6.6,1.1,9,3.8
		c2.5,3,3.9,5.3-1.4,7.2c-8.5,3.1-15.1,9.1-21.2,15.7c-2.3,2.5-4.7,5.1-7.6,7.2c-0.7-4.2,2.8-5.7,4.3-8.3c0,0,0,0,0,0
		c0.4-0.4,0.7-0.7,1.1-1.1c-0.2-0.2-0.3-0.3-0.5-0.5c-0.4,0.3-0.8,0.6-1.2,1c-3.3,1.5-5,4.8-7.8,7.5c-1.4-3.8,2.6-5,2.9-7.7
		c-2.6,0.5-3.5,3.1-5.9,4.1c0.3-4,3.5-5.9,4.8-8.8c-0.2-0.2-0.3-0.3-0.5-0.5c-3.3,1.5-4.5,5.3-7.4,7.7
		C64.4,29.5,66.7,21.1,83.6,19.4z M78.1,51.6c-0.1,0.5-0.4,0.8-0.9,0.8C77.5,52.1,77.8,51.9,78.1,51.6z M81.4,16.9
		c-3.7,1.4-7.2,2.6-10.6,4.1c-3.6,1.6-4.9,5.3-7,8.7c-1.3-2.7-2.3-4.9-3.3-7.1c-1.1-2.3-3.3-3.5-5.2-5.1
		C61.6,10.9,73,10.5,81.4,16.9z M34.6,20.8c1.9-3.5,4.8-5.1,8.9-3.2c1.1,0.5,2.4,0.7,3.6,0.9c13.5,2.2,18.6,12.9,12.3,25.9
		c-3.6-4.3-3.3-9.9-5.3-15.5c-1.2,6.3,1.4,11.4,2.7,17.2c-5-1.8-4.8-6.7-7.2-9.5c-0.7,3.2,0.9,5.8,2.3,8.3c0.9,1.6,1.5,3-0.5,3.9
		c-1.9,0.9-2.3-1-3-2.1c-0.8-1.2-1.3-2.4-2.2-4c-1.2,3,1.3,5,1.3,8.5c-6.2-3.7-7.4-9.9-10.7-16c0.6,6.1,2.6,10.1,5.2,13.9
		c0.8,1.1,2.2,2.2,0.6,3.6c-1.8,1.7-3,0-3.9-1.1c-1.8-2.4-3.3-4.9-5.4-8.2c0.4,5.6,3.4,8.8,5.9,12.4c-3.4-1.2-6.3-2.8-7.7-6.5
		C27.6,39.3,29.7,29.9,34.6,20.8z M39.3,59.4c-5,1.3-7.7-2.1-11.8-3.6c2.6,3.6,5.5,5.2,8.7,6.1c2.6,0.7,3.9,2.2,4.7,4.4l0.2,0.1
		l-0.2-0.1c-7.8-1.7-13.8-5.9-17.7-12.9c-0.8-1.3-1.5-2.6-0.4-3.8c1.4-1.7,2.5,0.1,3.4,0.8C30.4,53.1,34.5,56.1,39.3,59.4z
		 M26.2,61.2L26,61c-2.4-0.7-4.5-1.7-4.4-5.2c2.6,1.2,3.1,3.5,4.5,5.2L26.2,61.2z M19.4,60.8c-1.6-4.7-3.5-9.3-5-14
		c-2.4-7.6-1.6-9.3,5.5-13.1c2.3-1.2,4.8-2.2,8.3-3.7c-1.5,6.8-1.4,12.8,0.6,18.7C25.8,48.7,23.7,44,21,48
		c-2.6,3.9-2.1,10.7,0.9,13.2c3.2,2.6,7.3,4.2,9.3,8.2C25.4,69.1,21.3,66.5,19.4,60.8z M39.9,73.8c-3-2.6-6.5-4.8-8.4-8.4
		c6.4,2,12.1,5.6,18.9,6.5C46.5,77.9,45,78.2,39.9,73.8z M63.2,83.3c-3.4,0-6.7,0-10.1-0.1c-2-0.1-4-0.5-4.7-2.7
		c-0.9-2.6,1-4,2.7-5.2c6.2-4.7,13.6-3.8,21.9-4.8c-3.1,4-5,7.3-6.4,10.9C66.1,82.8,64.8,83.3,63.2,83.3z M70.1,79.6
		c0.3-2.2,1.7-3.8,2.9-5.5c0.6-0.9,2-1.9,1.8-2.5c-2.2-6.5,3.7-5.7,6.5-6.9c3-1.3,6.2-2.4,9.1-4.5C90.7,70.9,80.6,80.4,70.1,79.6z
		 M87.6,58.5c-2.1,3.4-6,3.2-9.1,4.7C80.6,59.8,84.5,60,87.6,58.5z M78,63.3c0.1,0,0.3,0,0.4,0.1c0,0,0,0,0,0
		C78.2,63.3,78.1,63.3,78,63.3z M82.6,57.8c4.4-4.7,9.9-7.8,17-11.2C95.9,55.4,89.6,57.1,82.6,57.8z M108.1,39.8
		c-3.9,2.4-7.9,4.5-12.2,6.3c-7.2,3-13,8.4-20,13.6c1.2-6.5,6.9-7.6,9.8-11.2l0-0.1c0,0,0,0.1,0,0.1c0.4-0.2,0.7-0.5,1.1-0.7
		c-0.1-0.1-0.3-0.3-0.3-0.3c-0.4,0.2-0.7,0.4-1.1,0.6c-2.4,1.1-4.7,2.2-7.1,3.2c7-8.5,14.7-16.1,25.2-20.1c2-0.8,4.6-2.5,5.8,0.7
		C110.4,34.5,111.8,37.5,108.1,39.8z"/>
	<path d="M79.4,41.9c-0.5-0.6-1.2,0.1-1.4,0.8c0.2,0.2,0.3,0.3,0.5,0.5C79,43,80,42.6,79.4,41.9z"/>
	<path d="M71.8,37.7c0-0.1,0-0.3,0.1-0.4C71.8,37.4,71.8,37.5,71.8,37.7c-0.1,0-0.2,0-0.2,0.1C71.7,37.8,71.7,37.7,71.8,37.7
		L71.8,37.7z"/>
	<path d="M70.9,38.9c0.2-0.4,0.5-0.7,0.7-1.1c-0.4,0.2-0.8,0.4-1.2,0.6C70.5,38.5,70.7,38.7,70.9,38.9z"/>
</g>
</svg>
