<?xml version="1.0" encoding="utf-8"?>
<!-- Generator: Adobe Illustrator 25.3.0, SVG Export Plug-In . SVG Version: 6.00 Build 0)  -->
<svg version="1.1" id="Layer_1" xmlns="http://www.w3.org/2000/svg" xmlns:xlink="http://www.w3.org/1999/xlink" x="0px" y="0px"
	 viewBox="0 0 71.7 110.5" style="enable-background:new 0 0 71.7 110.5;" xml:space="preserve">
<path d="M30.4,93.3c1.3-1.3,1.1-2.6,1.2-3.8c1-17.6-1.2-34.8-5.9-51.7c-0.7-2.5-1.7-2.8-4.1-2.4c-5,0.7-6.9-0.6-8.4-5.5
	c-0.5-1.5-1.4-2.3-2.3-3.3C8.5,24,6.9,21.1,5.7,18C3.4,11.9,4.6,5.6,8.4,2.5c3.7-3.1,11.2-3.3,16.4-0.4c3.9,2.2,5,6.1,5.9,10
	c0.5,2,0.9,3.7,2.5,5.5c3.2,3.5,2.5,9.7-1.8,13.6c-2.6,2.4-2.5,4.4-1.6,7.3c3.3,10.1,4.4,20.7,5.7,32.2c5.9-10.2,9.6-20.4,12.7-30.9
	c0.6-2.1-0.9-2.8-2-3.8c-4.2-3.4-5.5-7.6-3.3-12.5c0.7-1.5,0.6-3,0.7-4.6c0.1-2.1,0.2-4.2,0.6-6.2c2.1-10,8.2-13.6,18.1-10.6
	c8.5,2.6,12,10.9,7.5,18.6c-1.7,2.9-2.9,5.3-2.8,9c0.1,5.1-4.9,7.4-9,8.1c-4.9,0.8-6.3,3.3-7.5,7.5c-2.8,10.3-7.1,20-12.5,29.2
	c-1.5,2.5-2.2,5-2.3,7.9c-0.3,8.4-1,16.7-2.5,25c-0.3,1.5-0.1,3.5-2.4,3.1c-2.3-0.4-1.7-2.1-1.5-3.7c0.4-2.5,1.3-4.9-0.2-7.6
	c-1.7-2.9-3.1-4.6-7.2-4.3c-8.5,0.5-13.9-4.8-17.3-12c-2.4-5-3.2-10.7-4.5-16.1c-0.8-3.2,0.7-4.2,3.6-3.8c3.8,0.5,7.7,0.7,11.4,1.5
	c9.6,2.1,15.8,12.3,14.2,23C29,90.7,29,90.7,30.4,93.3z M57.3,5.4c-6.4-0.1-9.5,3.2-9.6,10.8c0,1.3-0.7,3.3,0.8,3.8
	c2.8,1,4,4.4,6.5,4.8c6.5,1.1,12.3-4,12.5-10.3C67.7,9,63.9,5.5,57.3,5.4z M26.7,13.9c-0.2-7.2-4-10.3-11.8-9.5
	C10.2,4.8,8.5,7,8.7,11.7c0.1,2.7,1.6,5,2.4,7.4c1.2,3.7,2.6,6.4,7.6,4.2C22,21.8,26.8,17.3,26.7,13.9z M25.3,86
	C26.5,71.1,16.2,67.1,7,67.2c-1.1,0-2.2,0.1-2,1.6c0.1,1.1,0.5,2.1,2,1.1c1.6-1.2,2.4,0.4,3.5,1.2C16,75,20.2,80.3,25.3,86z
	 M6.2,72.6c2.2,13,10.5,21.7,17,17.5C18.5,83.5,13,77.7,6.2,72.6z M53.6,34.7c2.4,0.2,4.6-0.9,6.7-2.1c1.4-0.9,3.1-2.1,2-4.1
	c-0.9-1.6-2.7-1.2-4.3-0.8c-0.8,0.2-1.6,0.7-2.3,1.2c-2,1.7-3.6,1.9-4.7-0.9c-0.7-1.6-2.1-2-3.4-1.3c-1.6,0.9-1.8,2.5-0.9,4.1
	C48.2,33.4,50.3,35,53.6,34.7z M30.9,22.6c-0.2-0.5,0.3-1.7-1-2.2c-1.5-0.5-2.3,0.6-2.9,1.6c-1.8,3.1-3.2,6.7-8,5.7
	c-0.8-0.2-1.4,0.9-1.5,1.8c-0.1,1.3,0.8,1.8,1.9,2.1C24,32.9,30.9,27.8,30.9,22.6z"/>
</svg>
