<?xml version="1.0" encoding="utf-8"?>
<!-- Generator: Adobe Illustrator 25.3.0, SVG Export Plug-In . SVG Version: 6.00 Build 0)  -->
<svg version="1.1" id="Layer_1" xmlns="http://www.w3.org/2000/svg" xmlns:xlink="http://www.w3.org/1999/xlink" x="0px" y="0px"
	 viewBox="0 0 81.2 227.7" style="enable-background:new 0 0 81.2 227.7;" xml:space="preserve">
<path d="M36,56c-3.2-12.9-8.5-25.4-7.4-39.2c0.2-3.1,0-6.2,1.1-9.3c1.4-4,3.6-7.3,8.2-7.5c4.8-0.2,8.1,2.3,10,6.6
	c3.3,7.7,2.5,15.7,1.4,23.6c-1.1,8.2-3.4,16.1-6,24c-0.9,2.6-2.5,5.3,0.6,8.9c3.1-5,5.8-10.1,9-14.8c3.8-5.6,7.2-11.7,13.4-15.2
	c3.7-2.1,7.5-3.1,11.1,0c3.3,3,3.7,6.8,2.2,11c-1.9,5.3-5.4,9.4-9.8,12.6c-6.7,4.8-13.3,9.8-20.4,14c-4.4,2.6-6.7,5.4-6.2,10.7
	c0.5,4.7,0.1,9.4,0.8,14.2c3.5-5.7,5.7-11.8,9.5-17c6.5-8.8,14.5-11.6,20.1-7.1c5.2,4.1,4.2,10.5-2.9,19.5
	c-5.6,7.1-13.5,11.3-21,15.8c-4.7,2.8-6.8,6.2-6.4,11.8c0.5,5.9,0.1,11.9,0.1,20.1c3.2-5.7,5.4-9.8,7.6-13.8
	c3.4-6.1,7.8-11.3,14.3-14.1c3.8-1.6,7.8-2.5,11.1,0.9c3.1,3.1,2.4,6.7,0.8,10.3c-3.9,9.4-10.8,16.7-19.6,20.6
	c-12.9,5.7-16.4,14.9-14.4,27.8c0.4,2.4,0.1,5,0.1,9c4.5-6.1,8.1-11.1,11.7-16c3.1-4.1,6.8-7.7,11.7-9.6c4.2-1.6,8.5-1.9,11.9,1.7
	c3.4,3.7,2.5,7.9,0.4,11.9c-2.7,5.2-6.9,9-11.7,12.2c-5.2,3.4-10.5,6.9-16.5,8.8c-6.4,2-8,6.2-7.5,12.4c0.6,7.1,0.7,14.2,0.9,21.3
	c0,1.9,0.7,4.1-2.3,5.6c-2.8-5.7-2.9-12-2.2-17.7c1.8-14.1-3.1-22.3-17.2-26c-7.1-1.8-13.2-6.6-17.8-12.7c-3.3-4.3-5.6-9-1.2-13.9
	c4.1-4.6,9.1-3.6,14.1-1.2c7,3.4,10.9,9.8,15.2,15.8c1.8,2.5,2.6,5.7,6.2,8.1c0-9,0-17.4,0-25.7c0-3.6-3-4.5-5.4-5.8
	c-7.8-4.1-15.6-8.2-22.8-13.4c-4-2.9-7.4-6.2-9.6-10.7c-2-4.2-2.2-8.4,1.2-11.9c3.7-3.8,7.9-2.6,11.7-0.2
	c7.5,4.6,12.4,11.6,17.4,18.5c2,2.7,3.7,5.6,7.4,8.2c0-8.8,0.2-17.6-0.1-26.4c-0.1-3-3.3-3.7-5.5-4.7c-7.9-3.9-15.9-7.6-22.6-13.7
	c-3.2-2.9-6.1-6.1-7.5-10.2c-1.2-3.6-1.4-7.4,1.7-10.3c3-2.9,6.4-3.2,10.2-1.8c4.4,1.6,8.1,4.1,11,7.8C30.4,85,34.2,90.3,39.2,97
	c0-7.1-0.1-12.9,0-18.6c0-3.5-2.4-4.8-4.9-6.2c-9.1-5.3-18-11-24.8-19.3c-6-7.4-7.5-14.6-3.7-18.4c3.9-3.9,10.7-2.3,18.2,4
	c5.6,4.7,7.7,11.9,12.1,17.4c0.4,0.3-0.4,1.6,0.9,1.1C36.7,56.7,36.4,56.3,36,56z M48,66.2c9.4-4.3,17.6-10.3,24.6-17.8
	c3-3.2,6.6-8,2.1-11.9c-4.2-3.7-7.9,0.9-10.6,3.9C57.1,48,51.9,56.7,48,66.2L48,66.2z M63.4,117.4c-9.5,6-11.8,16.2-15.5,25.7
	c3.9-1.2,7.2-2.8,10.1-5c6.3-4.8,12.5-9.9,15.7-17.6c0.8-1.9,1.7-3.7,0-5.6c-1.6-1.9-3.6-1.2-5.5-0.7
	C66.2,114.8,64.5,115.7,63.4,117.4L63.4,117.4z M39.6,50.8c5-13.7,7.5-25.7,5.8-38.2c-0.5-4-2.4-8.4-7.1-8.1
	C34,4.8,33.2,9.1,32.9,13C32,25.3,33.9,37.2,39.6,50.8z M45.2,186.4c10.5-4,18.6-8,25.2-14.4c3.7-3.6,8.8-7.5,4.9-13.6
	c-2.2-3.4-9.6-1-14.6,4.8C55,169.8,50,177,45.2,186.4z M36.6,103.7c-5.1-9.8-9.5-19.8-19-26.2c-2.8-1.9-6.3-3.9-9.2-0.6
	c-2.7,3-1.2,6.5,0.9,9.3C16.3,95.2,25.9,100.1,36.6,103.7z M35.9,67.7c-4.7-11.4-8.4-21.3-17.2-28.1c-2.8-2.1-6.3-5.2-9.8-2
	c-3.2,3-0.3,6.5,1.4,9.1C16.2,55.9,24.6,62.3,35.9,67.7z M34.4,183.7c-4.7-8.5-8.5-17.3-16.7-22.7c-3.5-2.4-7.7-4-10.8-0.4
	c-3.1,3.6,0,6.9,2.5,9.7C16.1,177.7,25.2,180.8,34.4,183.7z M46.6,103.1c9.8-4.7,17.6-9.6,23.1-17.3c2.4-3.3,5.7-7.5,0.9-11.1
	c-4.5-3.3-8.1,0.3-11,3.3C53.2,84.7,50.5,93.3,46.6,103.1z M33.8,142.9c-5.5-9.6-10.9-19-19.6-25.7c-2.3-1.8-5.3-4.3-8.4-1.5
	c-3.3,3-1.3,6.3,0.5,9.2c1.6,2.7,4.1,4.7,6.6,6.6C19.4,136.2,26.3,140,33.8,142.9z"/>
</svg>
