<?xml version="1.0" encoding="utf-8"?>
<!-- Generator: Adobe Illustrator 25.3.0, SVG Export Plug-In . SVG Version: 6.00 Build 0)  -->
<svg version="1.1" id="Layer_1" xmlns="http://www.w3.org/2000/svg" xmlns:xlink="http://www.w3.org/1999/xlink" x="0px" y="0px"
	 viewBox="0 0 85.7 230.2" style="enable-background:new 0 0 85.7 230.2;" xml:space="preserve">
<path d="M41,151.3c0-9.9,0.4-19.4-0.2-28.9c-0.4-6.6-11.3-15.6-18-16c-6.8-0.4-11.6-5.4-11-11.3c0.6-6,5.5-9.7,12-9.3
	c6.7,0.4,9.6,4.2,8.9,11.6c-0.7,8.1-0.7,8.1,8,14.3c0.5-10.4,1.1-20.2-0.6-29.8C39.4,77,35,73.6,29,74.2c-12,1.1-25.7-8.9-28.6-20.5
	c-1.1-4.3,0.4-7.8,3.3-10.7c3.4-3.3,7.5-3.7,11.8-2.4c10.3,3.1,18.8,14.3,19.3,25.3c0.2,3.8,0.2,3.8,5.3,7
	c0.1-8.5,2.5-16.1-4.7-23.5c-7.5-7.8-7.1-35.2-1-44.7c3.8-5.9,10-6.3,14.7-0.6c3.9,4.7,5.5,10.5,5.5,16.6C54.5,32.4,54.8,44,46,54.1
	c-3.9,4.4-1,11.9-1.1,19.4c5.4-5.4,10.4-8.8,8.1-16.9c-1.7-6.1,2.4-10.5,8.4-11.2c6.3-0.7,11.5,3.2,12.3,9
	c0.8,6.2-3.1,11.2-9.4,11.7c-3.4,0.3-7.3-1.8-9.7,2.7c-3.2,5.9-10.3,9.5-9.3,18.1c0.9,8.3,0.2,16.8,0.2,25.9c5-0.7,5.2-3.3,5.3-6.6
	c0.3-12.2,7.8-19.6,17.9-24.5c4.7-2.3,10.1-2.3,14.1,2c3.7,4,3.2,8.7,1.2,13.5c-4.5,10.8-16.1,18.2-27.2,17.1
	c-5.3-0.5-10.7,3.6-10.9,9.1c-0.3,8.7-0.1,17.4-0.1,27.5c5.8-5,9.8-8.6,7.2-16.3c-2.1-6.2,1.7-10.6,7.8-11.5
	c6.5-0.9,11.8,2.5,12.8,8.2c1,5.9-2.8,11.3-8.8,12.3c-10.7,1.8-19,11.4-19.1,22.3c-0.1,9.4,0,18.8,0,28.6c5.5-1.1,4.7-4.2,4.9-6.9
	c1-12,8.2-19.4,18.5-24.2c5.1-2.4,10-1.8,13.9,2.6c3.7,4.2,3.1,8.8,0.9,13.4c-5.1,11-16,17.6-27.6,16.7c-5.2-0.4-10.1,3.9-10.4,9.6
	c-0.2,5.4,0.1,10.7,0,16.1c0,2.6,0.7,5.5-2.2,8.5c-3.1-6.2-1.8-12.1-1.9-17.7c-0.4-13.8-7.4-22.2-20.9-24.4c-5.9-1-9.8-5.7-9.2-11.2
	c0.6-5.8,5.9-9.9,12-9.4c6.3,0.5,9.3,4.1,9,10.9c-0.4,8.4-0.4,8.4,8.1,16.6c0-12.4,0.9-24.3-0.5-35.9c-0.5-4.3-5.6-8.6-12.4-7.5
	c-11.2,1.8-26.7-10.8-27.9-22.1c-0.8-7.4,4.9-12.7,12.8-11.8c10.6,1.3,22.1,13.6,22,24.6C34.9,146.8,36.2,149.5,41,151.3z
	 M34.4,26.8c-0.3,5.8,0.2,12,2.5,17.8c1,2.6,2.7,5.4,5.9,5.1c2.7-0.3,4-2.8,4.9-5.2c2.1-6.4,2.9-13.1,3-19.8
	c0-5.7-0.3-11.2-3.5-16.2c-1.4-2.2-3-4.3-5.9-3.9C38.7,4.8,37.6,7,36.7,9C34.3,14.6,34.2,20.5,34.4,26.8z M11.5,44.2
	c-5.8,0-8.8,3.9-6.7,9.6c3.1,8.1,9.2,13.4,17.2,16.2c5.1,1.8,8.4-1,8.6-6C30.9,56.2,19.3,44.3,11.5,44.2z M81.3,90.4
	c0.1-3.8-2.6-6.1-7.8-5.7c-7.7,0.5-18.6,11.9-18.7,19.5c-0.1,4,2,6.5,6,6.7C68,111.4,80.8,99.4,81.3,90.4z M81.2,174.5
	c0.7-5.5-2.4-8.8-7.8-8.3c-7.1,0.7-18,11.8-18.5,18.9c-0.3,4.7,1.6,7.6,6.8,7.3C69,192,80.3,181.6,81.2,174.5z M12,121.7
	c-6.3-0.2-9.4,4-6.9,9.9c3.2,7.6,9.1,12.7,16.8,15.6c5.3,1.9,8.8-0.8,8.8-6.3C30.5,133.2,19.6,121.9,12,121.7z"/>
</svg>
