<?xml version="1.0" encoding="utf-8"?>
<!-- Generator: Adobe Illustrator 25.3.0, SVG Export Plug-In . SVG Version: 6.00 Build 0)  -->
<svg version="1.1" id="Layer_1" xmlns="http://www.w3.org/2000/svg" xmlns:xlink="http://www.w3.org/1999/xlink" x="0px" y="0px"
	 viewBox="0 0 163 249.5" style="enable-background:new 0 0 163 249.5;" xml:space="preserve">
<path d="M129,149.5c2.8-3.3,5.2-6.2,8.3-8.4c1.4-1,2.9-2,4.5-2.7c4.9-2.3,8.7-0.8,10.5,3.9c1.8,4.5,0.1,8-4.9,9.8
	c-4.2,1.5-8.7,2-13.2,1.4c-1.6-0.2-3.2-0.8-4.9,0.9c3.6,2.8,6.8,6,9.8,9.4c1.4,1.6,2.8,3.3,3.5,5.4c1.3,3.9-1.1,6.9-5.1,6.4
	c-3.4-0.4-5.9-2.3-7.9-5.1c-2.8-4-4.3-8.7-6.3-13.3c-3.8,1.8-7.1,4-10.6,6.7c2.6,1.6,5,3,7.3,4.5c4.8,3.2,8,7.6,8.9,13.4
	c0.5,3,0,5.7-2.4,7.7c-2.4,1.9-5.1,1.6-7.7,0.4c-7.3-3.3-10.8-9.4-12.1-17c-0.2-1.1-0.2-2.1-0.3-3.5c-2.8,1.5-4.8,3.7-6.8,5.8
	c-9.2,10.1-15.7,21.9-20.9,34.4c-0.6,1.4-0.6,2.9-0.5,4.4c0,7.7,0.1,15.4,0.1,23.1c0,0.9,0.3,2.2-0.8,2.4c-1.6,0.2-1.3-1.5-1.4-2.4
	c-0.4-4.8-1.1-9.7-1-14.5c0.1-8.6-2.3-16.4-5.7-24.2c-4.4-9.9-9.8-19.1-16.6-28.2c-1.5,5.9-2.9,11.3-4.3,16.7
	c-0.5,2.1-1.3,4.1-2.5,5.9c-2.4,3.5-5.9,3.4-8.1-0.2c-1.6-2.7-2.3-5.8-2.1-8.9c0.5-7.1,2.8-13.6,8.4-18.3c2.5-2.1,2.4-3.4,0.1-5.2
	c-0.9-0.7-1.4-2-2.9-2.4c-1,4.5-3,8.6-5.8,12.1c-1.1,1.4-2.3,2.7-3.6,3.8c-1.7,1.5-3.8,2.3-6,1c-2.2-1.3-2.8-3.5-2.4-6
	c1.1-5.8,5.1-9.7,9.4-13.2c0.7-0.6,1.6-1,2.9-1.8c-4.8-1.1-9.1-2-13.4-3c-5.6-1.3-9.2-4.9-11.6-9.9c-2.6-5.6,0.4-10.1,6.6-10.1
	c3.9,0,7,1.8,9.8,4.2c4.6,3.9,7.8,8.8,10.1,14.9c0.8-2.7,1.3-4.9,2.1-7c1-2.7,2.6-5.1,5.2-6.5c1.9-1.1,4-1.8,6.1-0.5
	c2.1,1.3,2.4,3.5,2.2,5.7c-0.4,4.3-2.7,7.6-5.8,10.4c-1.2,1.1-2.5,2-3.9,3.2c1.8,1.7,3.6,3.4,5.6,5.3c1.4-3.2,1.6-6.5,3.1-9.3
	c1.3-2.4,2.6-4.8,5-6.2c2-1.2,4.3-2.2,6.4-0.6c2.1,1.5,2.3,4,1.6,6.3c-1.6,5.6-4.5,10.4-9.2,13.9c-1.5,1.1-2.1,1.7-0.7,3.4
	c7.7,9.8,13.4,20.9,18.3,33.4c0-3.3,0-5.5,0-7.8c0-2.4-0.1-4.9-0.3-7.3c-0.8-14.8-0.9-29.7-0.8-44.5c0-1.2,0.2-2.4-0.3-3.6
	c-5.5-11.4-10.7-23-17.9-33.9c-1.5,1.5-2.9,2.9-4.3,4.3c-3.5,3.3-7.3,6.1-11.9,7.3c-3.1,0.8-6.2,0.9-8.4-2.2
	c-2.1-3.1-2.1-7.1,0.5-10.2c3.9-4.7,9.3-6.2,15-7c1-0.2,2.1,0,3.3,0c-1.7-5.4-2-5.4-6.7-3.4c-3.6,1.5-7.2,3.1-11.1,3.6
	c-1.9,0.3-3.9,0.2-5.1-1.7c-1.2-2-0.6-3.9,0.6-5.7c2.2-3.3,5.4-4.7,9.3-4.9c1.7-0.1,3.5,0,5.3,0.5c0.2-2.6-1.7-2.8-3.2-3.4
	c-4.6-1.6-8.3-4.5-11.6-7.9c-1.3-1.4-2.3-3-2.8-4.9c-1.4-6,2.6-10,8.5-8.4c5.8,1.6,8.6,5.8,9.6,11.4c0.5,3,0.6,6.1,0.2,9.9
	c1.8-1.3,1.7-2.7,2.1-3.8c1.1-3.1,2.2-6.1,4.8-8.3c1.8-1.4,3.8-2.3,6-1.2c2.2,1.1,2.8,3.2,2.7,5.5c-0.3,4.8-2.7,8.7-5.6,12.3
	c-3.3,4.2-3.4,4.1,0.6,8.4c1.4-3.2,2.5-6.5,4.1-9.5c2.4-4.5,6.3-6.4,9.4-5.2c3.1,1.3,4.6,5.5,3.5,10.2c-1.5,6.3-4.8,11.1-12.2,12.4
	c5.6,9.3,10.9,18.7,15,28.5c1.2-0.2,0.9-1.1,0.9-1.6c0.7-19.8,1.7-39.6,5.4-59.2c0.4-2.3-0.7-2.7-2.3-3.4
	c-6.5-2.5-12.2-6.4-16.4-12.1c-3.3-4.5-3.3-9-0.4-12.7c2.9-3.6,5.7-4.1,9.4-1.1c4.6,3.7,7.4,8.8,10.1,14c0.6,1.2,1.1,2.4,2,4.3
	c1.2-4.1,2.3-7.6,3.3-11.1c0.4-1.3-0.6-1.5-1.5-2c-7.5-4.2-10.9-10.9-11.8-19.1c-0.5-4.1,0.7-6.7,3.3-7.5c2.8-0.9,5.7,0.5,7.7,3.8
	c2.3,3.9,3.3,8.2,4.2,12.6c0.2,0.9-0.1,1.9,0.9,2.7c1.5-1,1-2.6,1.1-3.9c0.6-7.7,3-14.8,8.1-20.7c3.1-3.6,6.2-4.7,8.7-3.3
	c2.8,1.5,3.6,4.8,2.5,9.4c-1,4-3.6,6.9-6.8,9.2c-2.4,1.8-4.8,3.5-7.2,5.3c-1.5,1.2-2.8,2.5-2.9,5c4.3-1.7,8.6-2.9,12.9-3.6
	c4.6-0.8,8.3,0.5,9.3,3.1c1,2.6-1.2,6.2-5.4,8.5c-4.6,2.6-9.6,2.3-14.6,1.6c-5.2-0.7-5.2-0.9-6.7,4.3c-0.4,1.4-0.8,2.8-1.3,4.8
	c4-1.4,7.3-3.5,11-4.3c2.9-0.6,5.8-1.4,8.8-0.8c2.8,0.5,4.7,1.9,5.2,4.9c0.5,3-0.5,5.3-3,6.9c-2.5,1.5-5.2,2.1-8.1,2.4
	c-3.9,0.3-7.8,0.7-11.7,0.2c-3.6-0.4-5.2,0.7-5.9,4.5c-2.5,13.4-3.8,27-4.6,40.6c-0.4,6.8-0.1,13.7-0.1,20.4c0.5-0.2,0.6-1.4,1-2.3
	c3.7-8.5,8.6-16.2,15.1-22.8c1.6-1.6,1.5-2.4-0.1-4C86.8,98.6,85,92.3,86,85.1c0.2-1.8,0.9-3.4,2.1-4.7c1.8-1.9,4.1-2.7,6.6-2.2
	c2.6,0.5,3.2,2.7,3.6,4.8c0.9,4.1,0.8,8.3,0.5,12.5c-0.1,1.7-0.7,3.4,0,5.5c1.5-1,2.9-2.1,4.4-2.9c1.8-0.9,2-2.2,1.5-4
	c-1-3.5-1.5-7.1-1.5-10.8c0-1.9,0.4-3.8,1.1-5.5c1.2-2.9,3.4-4.5,6.6-4.2c3.4,0.3,4.5,2.6,5,5.5c0.6,3.8-0.9,7.4-1.5,11.9
	c4.2-3.9,8.1-7.2,12.7-9.4c4.1-1.9,8.2-3.5,12.8-3c4.7,0.5,7.7,3,8.2,7c0.5,3.6-1.3,6.6-5.7,8.3c-7.6,3.1-15.5,3.1-23.4,1.1
	c-1.7-0.4-3.4-1.2-4.9,1c3.1,1.6,6.2,2.9,9,5c1,0.7,1.9,1.5,2.8,2.4c3.6,3.5,4.2,6.6,1.9,9.6c-2.7,3.5-7.3,4.3-11.2,1.9
	c-3.5-2.1-5.3-5.7-7.1-9.2c-3.3-6.3-3.3-6.3-9.3-1.6c1.9,1.3,3.7,2.5,5.5,3.9c2,1.6,3.8,3.5,5.2,5.6c1.9,2.9,3.9,5.9,1.8,9.3
	c-2.2,3.5-5.9,4.6-9.9,4.4c-3.9-0.2-6-2.8-7.1-6.3c-0.6-1.8-1-3.6-1.2-5.5c-0.2-1.8-0.2-3.7-0.3-6.1c-4.5,4.1-7.4,8.8-10.3,13.4
	c-2.5,4-4.4,8.3-6.3,12.7c-2,4.5-2.8,9.2-2.5,14.2c0.9,17.1,1.7,34.2,2.5,51.4c0,0.6-0.1,1.4,0.9,2.1c6.1-14.5,14.9-27,26.8-37.6
	C98.8,161,95.7,154.4,94,147c-0.7-2.9-0.3-5.7,2.1-7.8c2.5-2.1,5.4-2,8.4-1c3.1,1.1,5.3,3.2,6.5,6.2c2,4.9,2.5,9.9,1.2,15.8
	c3.2-1.8,5.9-3.2,8.6-4.8c1.6-1,0.2-1.9-0.3-2.6c-2.3-4.4-3.9-8.9-3.7-13.9c0.1-3.1,1-5.6,4.5-6.3c3.2-0.6,5.2,0.9,6.4,4.7
	C129.1,141.1,128.7,145.1,129,149.5z M118.2,91.8c6.2,1.9,11.6,1.5,17.1,1.2c2.3-0.1,4.5-0.7,6.6-1.6c2.4-1,4.1-2.6,3.6-5.6
	c-0.5-2.9-2.4-4.4-5.2-4.8c-1.6-0.2-3.2,0-4.8,0.4C128.9,83,123.6,86.8,118.2,91.8z M126.2,183.2c-0.1-3.5-2-7.7-5.2-10.1
	c-2.8-2.1-5.7-4-8.6-5.9c-2.7-1.7-3.4-1.3-3.4,2c0,8.1,3.7,14.2,10.8,18C123.8,189.4,126.2,187.8,126.2,183.2z M78.3,64.8
	c-1.9-8.5-5.3-15.4-10.8-21.2c-1.3-1.4-2.8-2.7-4.9-1.6c-2.2,1.1-3.1,2.9-3,5.2c0.2,2.8,1.2,5.2,2.8,7.4
	C66.3,59.8,71.7,62.6,78.3,64.8z M110.1,153.4c-0.2-1.8-0.1-3.5-0.5-5.1c-1-4.5-4.4-7.7-8.2-7.8c-2.6-0.1-4.6,0.9-4.6,3.9
	c0.2,7.5,3.4,13.5,9.2,18.1c1.5,1.2,2.8,1,3-1.2C109.4,158.6,109.8,155.9,110.1,153.4z M35.3,149.8c-3.3-6.1-7.2-11-12.6-14.5
	c-1.8-1.2-3.9-1.9-6.1-1.5c-3.1,0.6-4.1,2.1-3.2,5.1c1.3,4.1,4,7,8.1,8.4C25.7,148.9,30.3,149.1,35.3,149.8z M35,113.1
	c4.7,0,14.8-6.9,16.5-11.2c0.5-1.3,0-2-1.1-2.5c-4.8-2.2-16.8,1.8-19.2,6.4C29.3,109.4,31.3,113.1,35,113.1z M38.3,182.2
	c-0.1,3.5,0.5,6,1.6,8.3c0.4,1,0.8,2.2,2.1,2.1c1-0.1,1.5-1,2-1.9c3.5-7.3,4.3-15.2,5.9-23c0.2-1-0.4-1.9-1.2-2.4
	c-0.9-0.5-1.5,0.2-2.1,0.8C41.7,170.8,38.7,176.3,38.3,182.2z M96.9,112c0.1,3.4,0.3,6.6,1.8,9.5c1.8,3.5,5.4,4.1,9.4,1.9
	c3.1-1.8,3.4-3.7,1-7.4c-1.8-2.7-4-5.1-6.8-6.8c-1.5-0.9-3.2-2.4-4.7-1.6C96.1,108.4,97.2,110.6,96.9,112z M82.6,64.7
	c4.9,0,9.6,0.1,14.3,0c2.8-0.1,5.6-0.6,8.1-2.1c1.5-0.9,1.9-2.2,1.7-3.8c-0.2-1.5-1.2-2.4-2.6-2.8c-1-0.3-2.1-0.5-3.2-0.4
	c-6.4,0.3-11.9,2.9-17,6.6C83.1,62.7,82.6,63.4,82.6,64.7z M110.9,97.9c-2.4,0.3-3,1.2-1.8,3c1.9,2.9,3.7,5.9,5.8,8.8
	c1.3,1.8,2.9,3.2,4.9,4.1c2.2,0.9,3.9,0,5.4-1.6c1.3-1.4,2.2-2.9,0.9-4.7C122.2,102.1,116.1,100.3,110.9,97.9z M39,79.3
	c0.4-3-0.2-5.4-0.6-7.8c-0.5-3.7-2.4-6.5-5.8-8.2c-2.2-1.1-4.4-1.6-6.3,0.5c-1.7,2-1,4.1,0.2,6C29.4,74.4,33.6,77.4,39,79.3z
	 M96.1,47.2c5,0.1,9.5-0.5,12.7-4.5c2-2.5,1.2-4.4-2-4.6c-6.6-0.5-12.2,2.6-17.8,5.6c-0.6,0.3-0.9,1-0.9,1.7c0.1,0.9,0.9,0.9,1.5,1
	C91.8,46.7,94.1,47,96.1,47.2z M132.1,151.1c5.9,0.3,10.9,0.2,15.4-2.2c1.8-1,3.4-2.4,2.9-4.8c-0.5-2.3-2.1-3.7-4.3-4.3
	c-1.7-0.5-3.2,0.3-4.5,1.2C137.9,143.5,135.3,147.1,132.1,151.1z M96,103.9c0.2-7.2,0.7-13.6-0.4-20c-0.3-1.4-0.5-3.2-2.4-3.3
	c-1.6-0.1-2.8,1.1-3.5,2.4c-0.5,1.1-1,2.2-1.1,3.4C87.8,93.3,90.2,98.8,96,103.9z M90.6,32.4c4.1-3.2,8.2-5.1,11.1-8.5
	c2-2.4,3.6-5.1,2.9-8.5c-0.5-2.3-2-3.2-4.2-1.9c-1.9,1.1-3.4,2.6-4.6,4.5C93.2,22.1,91.7,26.7,90.6,32.4z M54.3,98.6
	c7.8,0.4,13.4-6.2,11.8-13.3c-0.8-3.4-2.8-4.1-5.5-1.8c-1.7,1.4-2.8,3.2-3.6,5.3C55.9,91.8,54.8,95,54.3,98.6z M84.2,43.5
	C83.1,37.5,82,32.1,80.1,27c-0.6-1.5-1.3-3-2.6-4.1c-0.8-0.7-1.8-1.4-2.9-0.9c-1.2,0.5-1.3,1.6-1.3,2.7
	C73.1,30.9,75.1,39.4,84.2,43.5z M126.4,155.9c-1.2,0.2-1.2,0.9-0.8,1.7c1,2.2,1.9,4.4,3.1,6.5c1.4,2.7,2.9,5.4,5.3,7.5
	c1.7,1.4,3.7,2.1,5.5,0.6c1.9-1.6,0.2-3.2-0.6-4.6c-2.8-4.7-7.2-7.8-11.4-11.2C127.1,156.3,126.8,156.1,126.4,155.9z M38.4,155.8
	c-6.1,2.7-9.6,6.8-12,11.8c-0.8,1.6-0.7,3.7,0.8,4.8c1.6,1.2,3.1-0.1,4.2-1.3C35.2,167,37.7,162.3,38.4,155.8z M51.3,163.8
	c5.7-3.5,9.7-7.3,10.9-13.3c0.3-1.4,0.8-3.2-1-3.9c-1.5-0.7-2.9,0.3-4,1.4c-1.3,1.2-2.1,2.8-2.8,4.4
	C53.2,155.8,52.4,159.3,51.3,163.8z M113.1,81.1c0.1-1.9,0.2-4-2.2-4.6c-2.1-0.5-3.1,1.1-3.9,2.8c-0.3,0.6-0.4,1.3-0.6,1.9
	c-0.8,4.2,0.4,8.3,1.1,12.4c0.1,0.6,0.4,1.1,1,1c0.4-0.1,0.9-0.6,1.1-1C110.9,89.4,112.9,85.5,113.1,81.1z M50.7,141.2
	c0.1-1.3-0.1-2.4-1.4-3.1c-1.5-0.9-2.9-0.3-4,0.8c-3.5,3.2-4.4,7.5-4.7,12c-0.1,1.3,0.5,1.6,1.8,1.2
	C45.5,150.9,50.5,144.6,50.7,141.2z M54.4,73.6c-0.2-1.1-0.2-2.4-1.5-3c-1.6-0.7-2.6,0.2-3.4,1.3c-2.9,3.6-3.8,7.9-4.6,12.3
	c-0.2,1.2,0.2,2.8,2,1.5C51,82.8,53.3,78.6,54.4,73.6z M124.7,153.5c1.8-5.2,1.7-9.8,1-14.3c-0.3-1.8-0.9-4.1-3.3-4
	c-2.6,0.2-2.9,2.6-2.8,4.6C119.8,144.6,121.5,148.9,124.7,153.5z M43.8,88.1c-2.7-1-4.6-1.5-6.7-1.6c-3.5-0.1-6.8,0.5-8.8,3.8
	c-0.5,0.9-1.4,1.9-0.7,3c0.7,1.1,1.9,0.8,3,0.6C35.1,92.8,39.1,90.7,43.8,88.1z"/>
</svg>
