<?xml version="1.0" encoding="utf-8"?>
<!-- Generator: Adobe Illustrator 25.3.0, SVG Export Plug-In . SVG Version: 6.00 Build 0)  -->
<svg version="1.1" id="Layer_1" xmlns="http://www.w3.org/2000/svg" xmlns:xlink="http://www.w3.org/1999/xlink" x="0px" y="0px"
	 viewBox="0 0 89.6 229.8" style="enable-background:new 0 0 89.6 229.8;" xml:space="preserve">
<path d="M25.5,182.2c-2.2-3.1-5.5-5-8.4-7.3c-1.1-0.9-2-0.7-3.1,0.1c-1.9,1.3-3.9,2.5-5.9,3.7c-1.3,0.8-2.8,1.4-4.4,1.3
	c-1.8-0.1-3.3-0.7-3.7-2.7c-0.4-1.8,0.7-2.9,2.1-3.7c1.7-0.9,3.6-1.2,5.5-1.6c1.1-0.2,2.3,0.1,3.3-1.1c-1.1-1.5-2.4-2.2-4.5-2.2
	c-3.3,0-5.3-2-5.5-4.8c-0.1-2.7,2-5,4.7-5c2.8,0,5.2,2.4,4.5,5.4c-0.7,3.4,1,4.6,3.6,5.5l0,0c-0.1-3.3-0.1-6.7,0.8-10
	c0.5-1.9,1.3-3.8,3.9-3.5c2.7,0.4,3.1,2.5,2.8,4.7c-0.3,3.1-1.7,5.9-3.3,8.6c-1.1,1.9-0.9,3.2,1,4.5c2.5,1.7,4.8,3.7,7.5,5.8
	c0.6-2.7-0.5-4.8-0.5-7.1c0-3,0.2-5.9,1.1-8.7c0.7-2.2,2.1-3.9,4.8-3.7c2.8,0.2,3.9,2.2,4.2,4.7c0.3,2.6-0.6,5.1-1.3,7.5
	c-0.9,3-2,5.8-3.6,8.5c-0.8,1.4-1,2.4,0.4,3.6c5.1,4.4,10.2,9,15.3,13.5c1.1-0.8,0.6-1.9,0.6-2.9c0-13.5-0.2-27-0.1-40.5
	c0-2.4-0.6-4.1-2.3-5.9c-3.1-3.3-5.9-6.8-8.9-10.1c-2.8-3-5.9-2.5-7.8,1c-1.6,3-3.7,3.7-6.3,2.3c-2.6-1.5-3.6-4.5-2.1-6.9
	c1.4-2.4,4.6-3,7-1.2c1.4,1.1,2.5,2.2,4.6,1c-1.4-2-3.1-3.2-5.4-4c-3.8-1.4-7.4-3-10.5-5.7c-1.6-1.4-3.1-3-1.6-5.3
	c1.7-2.5,3.8-1.3,5.7-0.1c2.8,1.9,4.9,4.6,6.8,7.3c1.8,2.6,4.3,4.4,6.8,6.2c1.2-3.3,1.2-3.3-1.2-4.8c-2.8-1.9-3.6-4.5-2-6.9
	c1.5-2.4,4.5-3,6.7-1.4c2.3,1.7,2.8,5,1.1,7.6c-3.1,4.5-2.9,6.9,0.8,10.9c2.7,2.9,5.2,6,8,9.2c0-9.5,0-18.7,0-27.8
	c0-2.8-0.4-5.7,0-8.5c0.6-4.4-1.2-7.3-4.8-9.6c-3-2-5.9-4.2-8.7-6.4c-1.6-1.3-2.7-1.1-4.2,0.3c-3.3,3.1-6.8,5.9-11.4,6.9
	c-0.6,0.1-1.2,0.4-1.9,0.4c-2.2,0.2-4.7,0.4-5.8-1.9c-1.3-2.6,1.1-4,2.7-5.3c2.8-2.4,6.3-3.3,9.9-3.8c1.4-0.2,2.8,0.1,4.7-0.8
	c-3.4-2.3-6.5-4.4-9.6-6.5c-1.5-1-2.3,0.2-3.2,1.1c-2.1,1.9-4.2,3.8-7.2,4.2C5.9,90.6,4,91,3.2,89c-0.8-2,0.7-3.1,2.1-4.1
	c2.3-1.7,5.2-1.8,7.9-2.8c-1.1-1.9-2.4-2.1-4.3-1.5c-3.5,1-5.5-0.2-5.9-3.3c-0.4-3.1,1.4-5.6,4.1-5.9c3-0.4,5.3,1.9,5.4,5.1
	c0,1.1,0,1.1,0.8,2.4c0.9-1.1,0.2-2.2,0-3.3c-0.2-2-0.1-3.9,0.7-5.7c0.5-1.3,1.3-2.3,2.8-2.3c1.6,0,2.1,1.4,2.5,2.6
	c1.1,3.3,0.8,6.6-0.5,9.8c-0.9,2.1-0.5,3.3,1.5,4.4c2.6,1.6,5.1,3.4,8.1,5.6c-0.7-3.3-1.3-6-1.7-8.6c-0.5-3.3-0.1-6.4,1.5-9.3
	c0.8-1.4,1.9-2.6,3.6-2.4c1.7,0.2,2.7,1.4,3.3,2.9c1.7,4.6,0.8,9.1-0.4,13.6c-1.8,6.8-1.8,6.8,4,11c2.6,1.9,5.1,3.8,7.8,5.8
	c0.8-1.5,0.5-2.8,0.5-4c-0.4-10-0.9-20-1.3-30c-0.1-1.5-0.3-2.8-1.3-3.9c-3.4-3.9-7-7.6-11.1-10.6c-2.6-1.9-5.1-0.8-5.7,2.5
	c-0.7,3.4-2.2,4.4-5.4,3.7c-2.9-0.6-4.8-3.5-4-6c0.9-2.7,3.7-4.1,6.5-3.1c1.4,0.5,2.7,1.6,4.2,0.1c-0.9-1.8-2.6-2-4.1-2.5
	c-3.3-1.2-6.4-2.8-9.1-5c-1.6-1.3-3.2-3.1-1.3-5.2c1.6-1.9,3.5-1,5.2,0c3,1.9,4.9,4.8,7.1,7.6c1.3,1.7,2.7,3.1,4.9,3.7
	c0.8-2.2,0.6-3.7-1.7-5c-2.9-1.7-3.5-4.6-2-6.9c1.5-2.2,4.6-2.8,6.8-1.2c2.4,1.8,2.7,4.8,0.9,7.5c-2.8,4.1-2.4,6.8,1.3,10.1
	c2.8,2.5,5.4,5.1,8.2,7.8c1-0.8,0.5-1.9,0.5-2.8c-0.3-6.8-0.8-13.6-1-20.4c-0.1-2.6-0.9-3.9-3.3-4.9c-4.3-1.8-8.3-4.1-11.8-7.1
	c-3.2-2.8-4.1-5.5-2.5-7.6c1.8-2.3,4.6-2.1,8.2,0.7c3.5,2.7,5.6,6.6,8.6,10.3c0.8-1.9-0.1-3.1-0.6-4.2c-2.7-6.5-4-13.3-3.7-20.3
	c0.2-4,1.6-5.8,4.5-6c2.7-0.2,4.5,1.4,5.2,5.1c1.3,7.1-0.4,14-2,20.9c-0.4,1.5-0.8,2.9-0.7,4.7c1.5-2.1,2.9-4.2,4.5-6.3
	c2.1-2.8,4.3-5.4,7.7-6.8c1.9-0.8,3.6-0.6,4.9,0.9c1.3,1.5,0.8,3.1-0.1,4.7c-2.7,4.9-7,7.9-11.9,9.9c-4.2,1.7-5.4,4.2-5.1,8.5
	c0.5,7.2,0.3,14.4,1.3,22.2c3.3-1.8,6.2-3.9,8.9-6.2c1.3-1.1,0.3-2.4-0.1-3.5c-1.6-4.2-3.1-8.5-3.3-13c-0.2-4.1,1.1-6.6,3.3-7
	c2.5-0.4,4.2,1.8,5.2,6c1,4.7-0.4,9.2-0.7,14.1c3.2-1.5,5.6-3.8,8.3-5.7c1.3-0.9,1.2-2,0.7-3.4c-0.9-2.4-1.8-4.8-2.3-7.3
	c-0.4-2.1-0.2-4.4,2.5-4.8c2.4-0.4,3.3,1.4,3.8,3.4c0.7,2.5,0.3,5.1,0.3,7.7c2-0.2,1.5-1.4,1.5-2.6c0-3.4,2.2-5.9,4.8-5.8
	c2.8,0.1,4.8,2.4,4.6,5.1c-0.2,3.1-2.9,5.1-6.3,4.7c-0.9-0.1-1.9-1.1-2.8,0.5c2.8,1.1,6,1.2,8.5,3.1c1.5,1.2,3,2.3,2.1,4.4
	c-0.9,1.9-2.8,1.5-4.5,1.3c-3.3-0.5-6.1-2-8.5-4.3c-1.6-1.5-2.7-1.3-4.2,0c-2.1,1.8-4.4,3.4-6.8,5.2c2.1,1.5,4.4,1,6.5,1.6
	c2.3,0.7,4.7,1.4,6.7,2.9c1.6,1.3,3.2,2.9,2,5.2c-1.1,2.1-3.2,2.5-5.3,2.1c-3.4-0.7-6.1-2.6-8.8-4.6c-5.4-4.2-5.1-3.9-11-0.3
	c-4.4,2.7-5.4,5.8-4.9,10.7c0.9,8.4,0.8,16.9,1.2,25.4c0,0.9-0.3,1.8,0.4,2.8c3.2-3,6.7-5.6,9.3-9c1.8-2.3,1.3-5.6-0.3-8.2
	c-1.3-2-1.5-4.1-0.1-6.1c1.2-1.8,2.9-2.5,5-2.1c2.1,0.4,3.4,1.8,3.6,3.9c0.3,2.3-0.7,4.2-2.8,4.9c-2.4,0.9-3.4,2.1-2.2,4.9
	c1.9-0.5,3.3-1.8,4.6-3.1c2-2,3.9-4,6-6c1.1-1.1,2.4-1.9,3.9-2.3c1.6-0.4,3.1-0.2,4,1.4c0.8,1.6,0.1,3.1-1.2,4.1
	c-3,2.5-6.7,3.8-10.4,4.9c-1.8,0.5-3.4,1-4.8,2.6c1.6,1.6,2.9,0.7,4.2-0.4c1.8-1.5,3.8-1.5,5.7-0.1c1.7,1.3,2.4,3,1.7,5.1
	c-0.8,2.3-2.5,3.5-5,3.6c-2.3,0.1-3.4-1.2-4.2-3.2c-1.1-2.8-4.4-3.9-6.7-2c-3.7,2.9-6.9,6.2-9.8,9.8c-0.9,1.1-1,2.3-1,3.6
	c0.2,12.6,0.3,25.2,0.5,37.8c0.1,3.2,0.5,3.4,3.2,1.6c2.1-1.4,4.8-2.6,6-4.7c1.5-2.4-1.3-4.6-2-6.9c-1.1-3.6-2.1-7.2-1.2-11
	c0.4-2,1.1-3.9,3.3-4.3c2.4-0.4,3.2,1.8,4.1,3.4c1.9,3.6,1.7,7.4,1.3,11.3c-0.1,1-0.8,1.9,0.1,3.4c2.3-1.8,4.5-3.7,6.8-5.5
	c1.5-1.1,0.6-2.2,0.1-3.4c-1.5-2.9-2.8-5.8-2-9.2c0.4-1.5,0.7-3.2,2.6-3.3c1.9-0.1,2.6,1.4,3.2,2.8c1.2,2.7,0.8,5.5,0.8,8.6
	c2.1-0.5,3-1.3,2.5-3.5c-0.6-2.5,0.8-4.2,2.9-5.2c1.9-0.9,3.6-0.4,4.9,1c1.7,1.7,2.1,3.8,1.1,6c-1,2.3-2.9,2.8-5.1,2.1
	c-1.8-0.6-3.2-0.5-4.3,1.8c1.6,0.3,3.1,0.6,4.5,0.8c1.9,0.3,3.8,0.9,5.4,2.1c1.2,0.8,2.3,1.9,1.7,3.5c-0.5,1.5-1.8,1.7-3.1,1.8
	c-4.1,0.3-7.7-1.1-10.6-3.7c-1.9-1.7-3.2-1.4-4.9,0.2c-1.8,1.6-3.8,3.1-6.2,5c2.7,0.1,4.9,0.2,7.1,0.3c3.4,0.2,6.6,1.2,9.3,3.3
	c1.7,1.3,3.3,2.9,2.3,5.2c-0.9,2.3-3.2,2.5-5.3,2.3c-5-0.3-9.6-2.4-13.3-5.6c-3-2.5-4.8-1.5-7.8,0.1c-6.6,3.4-7.9,8.4-7.5,15.3
	c0.6,11.8,0.2,23.6,0.2,36.3c3.9-4.4,7.5-8.1,10.5-12c1.8-2.4,0.4-5.1-0.6-7.6c-0.2-0.6-0.9-0.9-1.3-1.4c-1.8-2.6-1.5-5.6,0.8-7.2
	c2.2-1.5,4.4-1.2,6.3,0.6c1.9,1.9,1.5,5-0.8,7.2c-2.5,2.4-2.5,2.4-1.6,5.6c2.3-1.2,3.7-3,5.2-4.9c2-2.6,4-5.4,6.8-7.3
	c1.7-1.1,3.6-1.8,5.2,0.1c1.5,2,0.4,3.7-1.1,5c-2.7,2.4-5.9,4-9.3,5.4c-1.8,0.7-3.6,1.4-4.8,3l0,0c1.8,1.1,2.9,0.3,4.2-1.2
	c2-2.3,4.8-2.3,6.8-0.5c1.9,1.8,2,4.8,0.2,7c-2.1,2.5-4.9,2.3-7.2-0.5c-3-3.6-5.5-3.8-8.8-0.6c-0.2,0.2-0.3,0.4-0.5,0.6
	c-7.1,6.6-11.6,14.1-9.9,24.4c0.6,4,0.1,8.2,0.1,12.3c0,1.2,0.3,2.5-0.7,3.8c-1.4-1.2-1-2.7-1.1-4c-0.1-7.1-0.1-14.1-0.1-21.2
	c0-1.9-0.5-3.4-2-4.7c-5.1-4.5-10.2-9-15.1-13.7c-1.6-1.5-2.6-0.8-4,0.2c-4.3,3.1-8.6,6-14,7c-3.3,0.6-5.4-0.3-6.3-2.9
	c-1-3.1,1-4.7,3.2-5.8C14.7,182.1,20.2,182.2,25.5,182.2L25.5,182.2z M24,46.4L24,46.4c-1.5-2-3.1-4-5.2-5.5c-0.9-0.7-2.2-2-3.2-0.6
	c-0.9,1.2,0.5,2,1.4,2.7C19.1,44.5,21.2,46.1,24,46.4z M69.5,86.5c2.9-0.5,5.5-1.8,7.9-3.5c0.7-0.5,1.5-1.2,0.9-2.2
	c-0.6-1-1.6-0.5-2.4-0.1C73.3,82.2,71.1,84,69.5,86.5L69.5,86.5z M70.3,179.1c2.4-0.9,4.7-2.1,6.7-3.7c0.9-0.7,2.6-1.6,1.6-3
	c-1.2-1.6-2.6,0-3.5,0.8C73.2,174.9,71.2,176.6,70.3,179.1L70.3,179.1z M24.8,128.1L24.8,128.1c-1.1-2.8-3.4-4.7-5.7-6.5
	c-0.8-0.7-2-1.6-3-0.2c-0.8,1.1,0.3,1.9,1,2.5C19.4,125.9,21.9,127.4,24.8,128.1z M44.9,24.9c1.9-6.3,3.3-12.5,2.3-19.1
	c-0.1-0.6-0.3-1.3-0.5-1.8c-0.6-1.2-1.4-2.2-2.9-2c-1.5,0.2-2.4,1.1-2.5,2.5C40.6,11.5,41.4,18.4,44.9,24.9z M25.4,184.5
	c-5-0.6-9.9-0.3-14.5,1.7c-1.5,0.7-3.3,1.5-2.5,3.6c0.7,1.8,2.5,2.3,4.2,1.8C17.4,190.4,21.7,188,25.4,184.5z M29.4,180.5
	c2.9-4.9,4.5-9.4,5.1-14.1c0.2-1.7-0.2-3.5-2.2-4c-2.2-0.5-2.9,1.3-3.4,2.9C27.4,170.1,28,174.9,29.4,180.5z M31,89.6
	c2.4-4.6,3.4-9.4,2.8-14.5c-0.2-1.5-0.6-3.4-2.4-3.5c-1.5-0.1-2.1,1.7-2.5,3.1C27.5,79.8,28.8,84.7,31,89.6z M64.4,143.4
	c3.3,2.9,6.9,5.3,11.3,6.1c1.9,0.4,4.9,1.5,5.7-1.2c0.6-2.2-2.2-3.1-4-4C73.2,142.4,68.9,142.7,64.4,143.4z M48,32.5
	c3.2-1.2,6.2-2.7,8.8-4.8c2-1.6,3.8-3.4,4.9-5.8c0.3-0.7,0.7-1.4,0-2.2c-0.7-0.8-1.5-0.8-2.4-0.5c-1.5,0.6-2.7,1.4-3.9,2.5
	C52.3,24.8,49.9,28.4,48,32.5z M41.8,32.3c-2.7-4.1-5-8.5-9.2-11.2c-1.4-0.9-3-2-4.4-0.2c-1.2,1.6,0.1,2.9,1.2,4
	C32.9,28.3,37.1,30.6,41.8,32.3z M28.4,94.6c-5.9-0.7-10.6,0.1-14.6,3.5c-0.8,0.7-2.2,1.4-1.5,2.7c0.6,1.2,2,1,3.1,0.9
	C20.5,101.3,24.2,98.3,28.4,94.6z M60.8,139c1.9-4.8,2.5-9.6,0.3-14.4c-0.4-0.9-0.8-2.2-2-2c-1.2,0.2-1.6,1.5-1.8,2.7
	C56.4,130.3,58,134.7,60.8,139z M58.3,53.2c1.5-4.7,2.3-9.4,1-14.3c-0.4-1.4-0.9-3-2.6-2.7c-1.5,0.2-1.7,1.8-1.7,3.1
	C54.6,44.3,56.2,48.7,58.3,53.2z M61.3,58.4c3.2,3.5,6.4,5.8,10.3,7.2c1.7,0.6,3.6,0.8,4.3-1.1c0.7-1.8-1.1-2.6-2.4-3.4
	C69.9,59.1,66,58.7,61.3,58.4z M61.6,83.9c1.8-0.4,3.2-1.2,3.2-3.2c0-1.7-1.1-2.6-2.7-2.6c-2,0-3,1.2-3.1,3.1
	C59,82.9,60,83.7,61.6,83.9z M34.6,41.3c-0.2-1.8-0.9-3.2-3-3.2c-1.6,0-2.7,0.9-2.8,2.6c-0.1,2,1.1,3,3.1,3.2
	C33.7,44,34.4,43,34.6,41.3z M83.2,40.4c-0.2-1.7-1.3-2.5-2.8-2.5c-2,0-3,1.4-2.8,3.3c0.1,1.5,0.9,2.8,2.7,2.5
	C82,43.5,83.1,42.4,83.2,40.4z M16.3,168.8c1.9-2.6,2.8-5.1,3.4-7.7c0.2-1,0.1-2.2-1.1-2.5c-1.3-0.4-1.8,0.7-2,1.7
	C16.2,162.9,15.3,165.5,16.3,168.8z M64.7,173.4c-0.3-1.3-0.9-2.6-2.8-2.6c-1.8,0-2.9,1-2.9,2.8c0,1.7,0.8,3,2.7,3
	C63.5,176.6,64.3,175.4,64.7,173.4z M7,79.2c1.7-0.2,3.2-1.1,3.5-2.9c0.2-1.8-1.1-2.9-2.8-3c-1.8-0.1-2.8,1.1-2.9,2.9
	C4.7,77.7,5.1,78.9,7,79.2z M70.7,98c1.5-0.3,3-1.1,3.2-3c0.2-1.8-1-2.8-2.8-2.9c-1.8-0.1-2.8,1.1-2.9,2.9
	C68.1,96.5,68.6,97.8,70.7,98z M72.7,183.4c-1.7,0.2-2.9,1.1-2.9,2.9c0.1,1.6,1,3.1,2.7,3.2c1.8,0.1,2.8-1.2,2.9-2.9
	C75.5,184.7,74.5,183.7,72.7,183.4z M85.9,124.8c-0.2-1.6-1-3.1-3-3.1c-1.7,0-2.9,1.3-2.9,3c0.1,1.7,1.3,2.6,3.1,2.8
	C85,127.6,85.7,126.6,85.9,124.8z M37.6,124.6c-0.4-1.6-1.1-3.1-3.2-3c-1.5,0.1-2.6,1.1-2.6,2.7c0,2.1,1.3,2.9,3.2,3.1
	C36.9,127.5,37.4,126.3,37.6,124.6z M74.9,48.7c2,2.6,4.7,4.1,8,4.5c0.6,0.1,1.3,0.1,1.6-0.7c0.3-0.7-0.3-1.2-0.8-1.6
	C81.1,49,78.1,48.7,74.9,48.7z M22.7,53c-1.7,0.3-3.1,1.1-3,2.9c0.1,1.9,1.5,2.9,3.4,3c1.9,0.1,2.4-1.2,2.4-2.8
	C25.5,54.3,24.5,53.3,22.7,53z M27.1,137.9c-0.1-1.9-1.1-2.8-3-2.7c-1.6,0.1-2.7,1-2.6,2.6c0.1,1.8,1.2,3.2,3.1,3.2
	C26.6,141,27,139.4,27.1,137.9z M12,173.6c-2.8,0.2-5.7,0.1-8.2,1.3c-0.9,0.4-2.1,0.8-1.6,2.1c0.5,1.2,1.7,1.1,2.7,0.8
	C7.6,177.2,9.8,175.5,12,173.6z M5.7,160.8c-1.6,0.3-2.5,1.2-2.5,2.9c0.1,2,1.3,3.1,3.2,3c1.8-0.1,2.3-1.5,2.2-3
	C8.5,162,7.6,160.8,5.7,160.8z M76.9,133.6c3.9,3.8,6.7,4.5,10.6,2.9C84.5,133.6,81,133.5,76.9,133.6z M73.3,129.2
	c1.3-5.5,0.9-7.7-1.8-9.7C70.2,123.1,71,126.1,73.3,129.2z M71.8,44.7c0.8-3.1,0.8-5.5,0.2-7.8c-0.2-0.8-0.5-2-1.7-1.6
	c-1.1,0.3-0.9,1.4-0.9,2.3C69.6,39.9,70.4,42,71.8,44.7z M16.4,79.4c1.5-2.5,1.9-5,1.3-7.7c-0.1-0.6-0.1-1.4-0.9-1.5
	c-1.1-0.1-1.1,0.8-1.3,1.5C14.6,74.4,15.5,76.9,16.4,79.4z M13.7,84.6c-3.1-0.1-5.3,0.6-7.4,1.9c-0.5,0.3-1.2,0.8-1,1.5
	c0.3,1,1.2,0.8,1.9,0.7C9.7,88.2,11.6,86.7,13.7,84.6z"/>
</svg>
