<?xml version="1.0" encoding="utf-8"?>
<!-- Generator: Adobe Illustrator 25.3.0, SVG Export Plug-In . SVG Version: 6.00 Build 0)  -->
<svg version="1.1" id="Layer_1" xmlns="http://www.w3.org/2000/svg" xmlns:xlink="http://www.w3.org/1999/xlink" x="0px" y="0px"
	 viewBox="0 0 107.8 107.7" style="enable-background:new 0 0 107.8 107.7;" xml:space="preserve">
<path d="M34,53.9c2.5-10,4.1-20,8.2-29.3C47,13.7,53.3,4.4,65.6,1c4.7-1.3,9.4-1.7,13.7,1c2.6,1.6,4.5,1.5,7.2,0.2
	C94.1-1.4,100,0,105.2,6.2c3.6,4.2,3.5,4.8-0.7,8.6c0.5,0.6,1,1.1,1.4,1.7c0.9,1.3,2.8,2.7,0.7,4.3c-1.8,1.5-2.5-0.7-3.6-1.5
	c-0.9-0.7-1.5-2.4-3.2-1.2c-2,1.4-0.5,2.6,0.2,3.8c0.8,1.5,2,3.2,0.1,4.5c-1.9,1.2-2.5-0.9-3.4-1.9c-0.6-0.7-1.2-1.6-2.3-0.9
	c-1.1,0.7-1.6,1.7-1.1,2.9c0.4,1,1.1,1.9,1.6,3c0.4,1,0.2,1.9-0.7,2.5c-0.9,0.6-1.8,0.5-2.4-0.5c-1.6-2.5-3.3-2.1-5.4-0.4
	c-2.6,2.2-4.4,1-5.8-1.7c-2.9-5.8-3.7-12.1-1.7-18.2c1.3-4.2-0.1-5.3-3.5-6.3C69.4,3,64.5,5.2,59.8,8.1c-3.9,2.4-7.1,5.5-9.5,10.2
	c5.2,0.5,8.2,3.9,10.7,7.9c1.2,1.9,2.9,1.3,4.5,1.5c5.6,0.7,10.4,4.9,11.7,10.1c0.8,3.4-1.9,5.7-3.2,8.1c-1.1,2-2.4-2.1-4.3-2.1
	c-0.9,5.4-1.1,5.5-5.9,2.2c-2.4,0.4-0.2,5.5-4.4,4.2c-7.3-2.1-7.6-2.4-7.5-8.3c0.1-3.7,0.6-7.3,3.4-9.9c3.1-2.8,2.4-5.2-0.5-7.3
	c-3.2-2.3-7-1.6-8.8,1.6c-0.8,1.5-1.3,3.1-1.8,4.7c-5.7,17.5-6.3,35.6-6.5,53.7c-0.1,5.3,0.6,10.5,0.8,15.8c0.2,7.3-1.9,8.7-8.4,5.3
	c-7.6-4-13.6-10.2-18.7-17C-2.2,70.2-2.3,49.7,4,28.5c1.2-4,2.8-7.8,4.4-11.6c1.7-4,3.3-4.3,6.8-1.7c5.4,4,8.4,9.6,10.7,15.7
	C28.8,38.4,31.5,46,34,53.9z M12.5,18.5C4.7,36.1,1.1,53.2,7.1,71.3c4.1,12.5,12.2,21.9,22.7,29.5c2.3,1.7,4.3,2.5,4.2-2
	c-0.5-20.6-2.5-41-9.6-60.6C21.7,31.2,19.5,23.9,12.5,18.5z M103.2,10.3c-5.1-5.8-12.7-6.9-17.4-3c-5,4.1-5.3,12.5-0.6,19.3
	C91.1,21.3,95.6,14.4,103.2,10.3z M72.7,37.4c-2.7-3.4-4.9-6.7-9.4-5.3c-3.9,1.2-6.2,3.8-7,8c-0.7,3.6,1,4.1,3.6,3.1
	C64,41.5,68,39.5,72.7,37.4z"/>
</svg>
