<?xml version="1.0" encoding="utf-8"?>
<!-- Generator: Adobe Illustrator 25.3.0, SVG Export Plug-In . SVG Version: 6.00 Build 0)  -->
<svg version="1.1" id="Layer_1" xmlns="http://www.w3.org/2000/svg" xmlns:xlink="http://www.w3.org/1999/xlink" x="0px" y="0px"
	 viewBox="0 0 77.7 246.7" style="enable-background:new 0 0 77.7 246.7;" xml:space="preserve">
<path d="M30,161.9c-1.1-6.3-2.2-12.6-3.3-18.9c-1.8-10.9-2-21.8-1.6-32.8c0.1-1.9-0.4-3.3-1.5-4.8c-4.1-5.3-6.6-11.4-8.3-17.8
	c-0.4-1.3-0.8-2.8,0.6-3.5c1.4-0.7,1.8,1.1,2.6,1.8c3.2,3.1,4.2,7.5,7.1,11.8c0.6-4.7,1.3-8.7,1.7-12.6c0.5-4.7,0.3-9.6,1.1-14.3
	c0.9-5.6-1.1-11-0.2-16.5c0.2-1.4-1-2.1-1.9-2.8C15.6,43,12.3,32,15,19c0.4-2,0.8-4,0.4-6.1c-0.3-1.3,0.5-2.3,1.8-2.7
	c1.3-0.3,2.6-0.3,3.6,0.9c0.8,1,0.7,2.3-0.2,3c-4.9,4.1-4.5,9.9-4.3,15.3c0.2,7.3,3.8,13.2,8.8,18.3c0.6,0.6,1.1,1.3,2.4,1.1
	c-1.7-5.6-2.7-11.4-2.3-17.2c0.3-3.9,1.1-7.7,2.2-11.5c0.5-1.7,1.1-3.3,0.4-5.1c-0.6-1.4,0.2-2.3,1.4-2.9c1-0.5,1.9-0.2,2.7,0.6
	c1.1,1.1,0.7,2.2,0,3.3c-6.2,10-6.8,22.4-1.5,33c2.6-3.7,3.9-7.7,4.9-11.8c1.2-4.6,2.2-9.3,3.2-13.9c0.5-2.2,0.8-4.5-0.6-6.6
	c-1-1.5-1.1-3.1,0.6-4.3c1.3-0.9,2.7-1,3.8,0.2c1.3,1.4,0.8,2.7-0.5,4c-1.1,1.1-1.2,2.6-1.3,3.9c-0.4,9.8-4.2,18.8-7.3,27.9
	C33,48.8,33,49.2,32.8,50c2.8-0.3,4.8-1.7,6.6-3.4c5.9-5.6,10.6-12,13.2-19.8c0.7-2,1.3-3.9,0.5-6c-0.6-1.6,0.1-2.8,1.6-3.4
	c1.5-0.7,2.9-0.3,3.7,1.1c0.9,1.5,0.8,3-0.7,4c-1.3,0.8-2,1.9-2.4,3.3c-2.8,8.8-7.8,16.1-14.8,22.1c-1.1,1-2.1,2.1-3.4,3.4
	c3.8,0.1,6.9-1.2,9.9-2.9c5.1-2.9,10-6,13.8-10.7c1.1-1.4,1.9-2.8,1.4-4.7c-0.5-1.8,0.3-3.3,2.1-3.8c1.4-0.4,2.7,0.1,3.3,1.4
	c0.7,1.7-0.1,3-1.6,3.8c-2,1.1-3,3.1-4.2,4.9c-4.2,6.2-10.5,9.2-17,11.9c-3.8,1.6-7.7,3-11.9,2.7c-1-0.1-2.1,0.1-2.1,1.4
	c0,4.4-1,8.8,0.1,13.6c2.6-2.7,4.7-5.2,7.1-7.5c0.8-0.8,1.9-2.4,3.2-1.5c1.4,0.9,0.7,2.6,0.2,3.9c-1.6,4.1-3.4,8.3-7.1,10.7
	c-3.9,2.7-4.6,6.3-4.9,10.3c-0.8,9.8-1.8,19.7-2.1,29.6c-0.1,4.2,0.2,8.4,0.3,12.7c1.3,0.3,1.3-0.7,1.5-1.3
	c2.6-5.6,6.3-10.3,10.9-14.4c1.1-1,2.2-2.7,3.8-1.5c1.4,1.1,0.7,2.9,0.2,4.3c-2.9,8-6.9,15.3-13.3,21c-2,1.8-2.5,3.6-2,6
	c3.6,19.1,6.9,38.3,6.2,57.8c0,0.2,0.2,0.4,0.4,0.8c1.2-0.7,1.6-1.9,2.2-3c3.9-7.9,10-13.8,17-19c0.9-0.7,1.9-1.7,3.2-0.9
	c1.2,0.8,0.9,2.1,0.7,3.3c-0.5,3.7-2,7.1-4.2,10.1c-4.9,6.8-10.3,13.2-17.1,18.2c-2.4,1.8-3.5,3.9-3.6,6.9
	c-0.2,6.5-1.4,12.9-2.5,19.4c-0.1,0.7,0,1.6-1,1.8c-0.7,0.1-1.2-0.5-1.5-1c-8.9-12.8-14.9-26.5-13.6-42.5c0.1-1.1,0-2.6,1.5-3
	c1.5-0.3,2,1.1,2.6,2.1c6,8.4,8.2,18.1,9.9,28c0.3,1.8,0.6,3.6,0.9,5.4c0.8-0.1,0.9-0.7,0.9-1.2c1.1-13.8,2.9-27.6,2.1-41.6
	c-0.2-3.7-1.2-6.3-4.3-8.8c-9.6-8-15.1-18.6-17.9-30.6c-0.3-1.2-0.8-2.8,0.5-3.6c1.3-0.9,2.4,0.4,3.4,1.2
	c5.7,4.2,9.2,10.1,12.4,16.1c0.9,1.7,1.8,3.4,2.6,5.1C29.5,162.1,29.7,162,30,161.9z M17.3,194c-2.3,9.1,4.5,31.3,10.6,35.9
	C25.9,217.5,24.7,205.3,17.3,194z M13.1,142.6c-0.1,9,10.9,27.4,17.9,30C26.8,161.5,22.4,151,13.1,142.6z M35.5,206.5
	c8.7-7.1,17-14.5,20.2-26C45.6,186.6,39.5,195.7,35.5,206.5z M29,133c5.9-5.1,10.1-11.4,12.2-19C34.8,118.8,30.9,125.2,29,133z
	 M31.7,73.3C35,70.7,38,68,39.3,62.9C35,65.8,32.9,69.2,31.7,73.3z M19.1,91c1.3,3.4,1.8,7.2,4.6,9.9C22.9,97.2,22,93.7,19.1,91z"/>
</svg>
