<?xml version="1.0" encoding="utf-8"?>
<!-- Generator: Adobe Illustrator 25.3.0, SVG Export Plug-In . SVG Version: 6.00 Build 0)  -->
<svg version="1.1" id="Layer_1" xmlns="http://www.w3.org/2000/svg" xmlns:xlink="http://www.w3.org/1999/xlink" x="0px" y="0px"
	 viewBox="0 0 61.8 110.5" style="enable-background:new 0 0 61.8 110.5;" xml:space="preserve">
<path d="M35.6,87.9c1.8-10.9,0.7-21-1.7-31c-1.4-6.1-3.8-11.8-6.2-17.5c-0.8-2-1.6-2.5-3.7-1.5c-8.2,4.2-15.1-0.6-14.9-10.6
	c0.1-4.6-0.9-9-2.6-13.2c-0.7-1.7-1.2-3.5-1.3-5.3C5.1,5.7,5.5,2.7,8.9,1.2c3.4-1.5,7.2-1.9,9.2,1.1c4.7,7,9.6,13.9,14.3,20.9
	c1.8,2.7,0.9,6.2-1.3,8.9c-1.1,1.4-1.9,2.6-0.8,4.4c3.7,6.2,5.2,13.3,7.9,20c4.5-4.9,4.5-4.9,0.8-9.7c-5.9-7.9-6.3-12.1-0.8-20
	c3.9-5.6,5.2-12.3,9-17.9c4.3-6.4,7.5-6.4,11.5,0c3.1,5.2,4.2,10.5,1.5,16.3c-1.5,3.2-2.2,6.5-1.7,10.2c1.1,8.6-2.9,14.2-11.5,16.5
	c-0.5,0.1-1.3,0.2-1.4,0.4c-1.3,5.1-7.1,8.1-6.2,14.3c1.9,13.5-0.6,26.8-2.3,40.1c-0.2,1.5,0,4-2.3,3.8c-2.8-0.3-1.6-2.9-1.5-4.5
	c0.2-2.7,0.8-5.3,1.1-8c0.7-6.5-2.2-9.9-8.5-9.5c-8,0.5-16.1-4.4-17-12.9c-0.3-3.4-2.6-6.1-4.7-8.7c-2.6-3.2-4.5-6.7-4.1-11
	c0.3-4.1,1.9-7.5,6-9.1c4.1-1.6,8.5-1.2,11,2.4c4.1,5.7,9.3,10.5,13.7,15.9c4.3,5.4,6.9,11.6,2.7,18.5
	C32.4,85.4,33.8,86.3,35.6,87.9z M27.4,84.1c-3.4-5.7-6.6-11-9.8-16.3c-0.7-1.2-1-2.8,0.3-3.6c1.6-1,2.3,0.5,3,1.7
	c1.1,1.9,2.2,3.8,3.3,5.6c1.9,3.3,3.6,6.7,6.6,9.3c2.9-3.7,1.3-7.1-0.6-10C25.1,63.4,18,57.6,12.3,50.6c-1.8-2.2-4-1.8-6,0.3
	C2.9,54.4,2.7,57.4,6,62.6c2.7,4.2,6,8,7.1,13.2C14.5,82.6,19.7,85.5,27.4,84.1z M43.5,45.4c1.8-5,1.6-9.7,2.3-14.3
	c0.2-1.3,0.6-2.8,2.4-2.6c1.6,0.2,1.4,1.7,1.4,2.8c0.1,4.6-1.1,9-1.7,13.4c-0.1,0.9-0.7,2.1,0.4,2.7c1,0.5,1.9-0.1,2.7-0.8
	c3.5-2.8,4.4-6.6,3.9-10.8c-0.4-3.5-0.9-7.1,1-10.3c2.3-4,2.1-8.1,0.6-12.1c-0.7-1.9-0.9-4.7-3.6-4.8c-2.4-0.1-3,2.4-3.9,4.1
	c-0.6,1.2-0.9,2.5-1.4,3.8c-1.6,3.8-2.9,7.8-5.6,11.2C36.8,34.4,37.2,38.6,43.5,45.4z M27.7,30.3c2.9-3.7,1.6-7.3-0.9-9.2
	c-4.5-3.3-6.6-7.8-8.6-12.6c-1-2.5-2.3-4.9-5.5-3.7c-3,1-4.2,3.8-3.3,6.5c2.2,6.2,3.1,12.6,3.8,19.1c0.5,4.7,5,6.3,9.2,4.1
	c1.6-0.8,1.9-1.6,0.9-3.1c-1.4-2.1-2.6-4.3-3.8-6.5c-0.6-1-0.6-2,0.4-2.6c1-0.7,1.8-0.2,2.6,0.7C24.3,25.1,25.1,28,27.7,30.3z"/>
</svg>
