<?xml version="1.0" encoding="utf-8"?>
<!-- Generator: Adobe Illustrator 25.3.0, SVG Export Plug-In . SVG Version: 6.00 Build 0)  -->
<svg version="1.1" id="Layer_1" xmlns="http://www.w3.org/2000/svg" xmlns:xlink="http://www.w3.org/1999/xlink" x="0px" y="0px"
	 viewBox="0 0 121.5 229.5" style="enable-background:new 0 0 121.5 229.5;" xml:space="preserve">
<path d="M92.1,177.6c1.8,1.3,3.7,2.4,5.3,3.8c1.5,1.3,2.7,3,1.5,5c-1.3,2.2-3.4,2.6-5.7,1.9c-3.7-1.2-6-4.1-8.5-6.9
	c-0.8-1-1.1-3.2-2.7-2.6c-1.7,0.6-3.2,2.1-4.4,3.5c-1,1.2,0.7,1.5,1.4,1.8c3.1,1.5,6.1,3.2,8.3,5.9c1.3,1.5,2.4,3.2,1,5.2
	c-1.5,2.1-3.6,1.8-5.5,1c-3.5-1.5-6.1-4.2-7.6-7.7c-1.1-2.4-2.1-2.8-4.2-1c-2.9,2.5-5.9,4.9-9,7.1c-2,1.5-1.4,3.3-1.2,5.2
	c0.8,9.8,1.2,19.6,1.4,29.7c-2.6-0.9-1.9-2.8-2-4.2c-0.5-8.9-0.6-17.8-1.4-26.6c-0.2-2.3-1.1-3.8-2.8-5.1c-2.9-2.3-5.8-4.6-8.5-7.1
	c-1.8-1.7-2.9-2.1-3.9,0.7c-1.2,3.3-3.4,5.9-6.3,7.9c-2.7,1.8-5.7,1.8-7-0.2c-1.7-2.5-0.2-4.4,1.4-6.2c2.7-3.1,6.5-4.5,10.5-6.6
	c-2.3-1.9-4.3-3.6-6.3-5.3c-1.2-1-2-0.3-2.5,0.8c-0.7,1.3-1.4,2.7-2.1,4c-1,1.8-2.3,3.4-4,4.6c-2.3,1.6-4.6,2-6.6-0.3
	c-2.1-2.3-1.2-4.5,0.5-6.6c1.3-1.6,3.1-2.6,5-3.4c1.6-0.7,3.3-1.3,5.1-2.1c-1.3-2.6-2.6-3.1-5.2-1.7c-7.9,4.4-15.2,3.1-20.2-3.2
	c-2.9-3.5-3.8-7.6-2.7-11.9c0.4-1.5,0.4-2.5-1.1-3.4c-1.8-1.1-2.2-2.9-1-4.6c1.2-1.8,3.4-2.4,5.1-1.2c2.1,1.5,3.4,0.7,5-0.4
	c7.9-5.1,18-0.1,21.6,5.8c2.7,4.5,0.6,9-1.4,13.3c-1.2,2.5-1.2,2.5,1.7,4.8c0.4-2,0.8-3.8,1.2-5.6c0.7-3.2,2.3-5.8,5-7.7
	c1.5-1,3.1-1.1,4.6-0.2c1.7,1.1,1.6,2.8,1.1,4.4c-1.2,3.9-3.5,7.1-6.7,9.6c-2,1.5-2.3,2.5-0.1,4.3c5.5,4.4,5.4,4.5,8-2.1
	c0.9-2.3,1.8-4.6,3.5-6.4c1.8-1.9,3.9-2,5.9-0.5c2,1.4,2.1,3.3,1,5.4c-1.7,3.3-4.3,5.7-7.2,7.7c-2.8,1.9-2.5,3.3,0,5.2
	c2.9,2.2,5.7,4.6,8.8,7.1c0.9-2,0.3-3.6,0.3-5.2c0.2-16.3,0.2-32.5,0.5-48.8c0.1-3.2-0.6-5.6-3.7-6.9c-0.1-0.1-0.2-0.1-0.3-0.2
	c-2.4-1.6-4.7-4.5-7.1-4.6c-2.8-0.1-2.5,4.5-4.6,6.4c-1.6,1.5-3,3.2-5.1,4c-1.7,0.7-3.6,0.8-4.9-0.8c-1.4-1.6-0.8-3.4,0.2-4.9
	c2-3.1,5.1-4.9,8.1-6.8c0.6-0.3,1.1-0.7,1.7-1c0.1-1.1-0.7-1.5-1.3-2c-3.8-2.9-3.8-2.9-6.7,1.1c-1.7,2.3-3.7,4.4-6.2,5.8
	c-2.4,1.3-4.8,1.5-6.6-1c-1.7-2.5,0.2-4.1,1.8-5.6c2.7-2.6,6.2-3.7,9.2-5.9c-3,1-5.9,2.4-9,2.9c-8.9,1.6-16.7-2.5-20.4-10.8
	c-1.5-3.3-1.5-6.6-0.4-10c0.5-1.6,1.6-2.9-0.4-4.6c-1.4-1.3-0.2-3.3,1.2-4.7c1.2-1.2,2.8-1.7,4-0.4c1.4,1.5,2.5,0.9,4,0.4
	c6.6-2.5,12.9-2.2,18.2,3.1c5.4,5.3,7,11.5,4.9,18.8c-0.1,0.3-0.2,0.5-0.2,0.8c-0.2,0.9-1.1,1.9,0.2,2.5c1.5,0.7,1.4-0.9,1.7-1.6
	c1.1-2.2,1.9-4.5,2.9-6.8c0.9-1.9,2-3.6,3.7-4.8c1.8-1.3,3.6-1.1,5.3,0.2c1.8,1.4,1.9,3.2,0.9,5.1c-1.7,3.2-4.5,5.4-7.5,7.5
	c-4.3,3-4.2,3,0.1,6.1c0.3,0.2,0.7,0.5,1,0.7c1.5,1.2,2.4,0.7,2.9-1.1c0.9-3,2-6,4-8.4c1.3-1.6,2.9-2.7,5-1.8c2.3,0.9,2.1,3,1.8,4.9
	c-0.5,4-3.5,6-6.5,8c-2.2,1.4-2.6,2.5-0.1,4c2.1,1.3,4,2.8,6.1,4.2c1.2,0.8,2.1,0.5,2.2-1.1c0.1-1.1,0.3-2.2,0.3-3.3
	c0.3-13,0.4-26,0.9-39c0.4-8.4-1.3-15.3-9.5-19.3c-2.4-1.2-4.2-4.5-6.7-4.4c-2.6,0.1-3.3,3.9-5.1,5.9c-2.1,2.2-4.2,4.4-7.1,5.4
	c-2.7,1-5.2,0.8-6.9-1.9c-1.6-2.6-0.3-4.7,1.6-6.5c2.8-2.5,6.2-3.9,9.9-4.6c1.3-0.3,2.7-0.2,3.9-1.1c-3.9-4.4-3.9-4.4-8.5-1.8
	c-5.5,3.1-9.6,2.9-14.1-0.7c-4.8-3.9-6.8-9.5-5.1-14.9c0.6-1.9,1.8-3.5-0.6-5.3c-1.4-1.1-0.8-3,0.5-4.4c1.4-1.4,3.1-2,4.8-0.8
	c1.4,1,2.4,1,4,0.4c6-2.3,12.2-0.4,16.5,4.8c3.8,4.5,3.9,9.1,0.5,15.1c-2.3,4,2.1,3.6,3.2,5.6c1.1-1.6,1-3.2,1.5-4.6
	c0.5-1.6,1-3.2,1.8-4.6c2.2-4,5.3-5.2,7.9-3.3c2.4,1.7,2.2,4.7-0.4,8.4c-1.9,2.6-4.8,4.1-7.4,6.5c4.5,3.4,8.9,6.8,13.1,10
	c0-8.6,0-17.1,0-25.6c0-1.5-1-1.6-2.3-1.6c-4.1-0.1-7.8-1.6-11.1-3.9c-2.2-1.5-4.2-3.6-2.4-6.5c1.7-2.8,4.2-1.7,6.5-0.8
	c3.3,1.2,5.6,3.9,8.1,6c1.3-0.7,0.7-1.8,1-2.6c1-2.7-0.1-3.7-2.8-4.6c-9.7-2.9-12.6-15.6-5.3-22.8c0.8-0.8,1.7-1.5,2.6-1.9
	c1.8-0.8,3.3-1.3,3.2-3.9c-0.1-1.9,2-2.8,3.9-2.8c1.8,0,3.4,1,3.4,2.9c-0.1,2.1,1.2,2.7,2.6,3.6c5.1,3.2,6.6,8.2,6.2,13.8
	c-0.4,5.4-3,9.6-8.5,11.4c-3.2,1.1-3.2,1.2-3.1,7.5c2.8-1.1,4.7-3.3,7-4.8c2.2-1.4,4.4-3,7.2-1.5c1.5,0.8,2.1,2.1,1.8,3.8
	c-0.6,3.2-3.1,4.4-5.8,5.1c-2.6,0.7-5.3,1.2-8.1,1.2c-1.8,0-2.3,0.7-2.2,2.5c0.2,7.2,0.3,14.5,0.5,21.7c0,1.3-0.3,3.1,1.1,3.7
	c1.4,0.5,2.4-1.1,3.4-1.8c2.3-1.7,4.5-3.6,6.9-5.2c2.2-1.5,2.1-2.6,0.4-4.5c-2-2.2-3.7-4.8-4.6-7.7c-0.7-2.2-1.1-4.8,1.6-6.1
	c2.5-1.2,4.1,0.8,5.5,2.5c1.4,1.8,2,3.9,2,6.1c0.1,1.6-0.3,3.2,0.4,4.9c3.3-1.5,4.3-3.4,2.8-7c-2.3-5.6-1.4-11.1,3.1-15.5
	c4.5-4.4,9.7-6,15.8-3.5c1.3,0.5,2.2,0.5,3.4-0.3c1.8-1.3,3.7-0.9,5.1,0.8c1.5,1.7,1.6,3.5-0.2,5c-1.6,1.3-0.5,2.4-0.1,3.6
	c2.3,6.4,0.9,12.4-3.8,16.5c-5.6,4.8-11.6,3.6-17.2,0.6c-3.5-1.9-5.2-0.6-7.2,2.1c2.8,1.3,5.6,2,7.8,3.9c1.2,1.1,2.4,2.2,3.2,3.7
	c0.9,1.7,1.2,3.4-0.2,4.9c-1.4,1.5-3,1.1-4.6,0.4c-3.6-1.5-5.9-4.4-7.9-7.5c-1.6-2.4-2.7-2.8-4.9-0.7c-2.8,2.6-6,4.8-9.1,7
	c-1.4,1-2,2-1.8,3.8c1.5,16.3-0.6,32.5-0.2,48.8c0,1.7-0.5,3.5,0.7,5.6c4.1-2.8,8.1-5.5,12.4-8.5c-2.9-2.3-5-4.6-6.6-7.3
	c-0.8-1.4-1.6-2.9-1.7-4.6c-0.1-1.8,0.6-3.3,2.1-4.1c1.5-0.8,2.9-0.1,4.2,0.8c1.7,1.3,2.8,3,3.1,5.1c0.5,2.5,1.1,5,1.7,7.8
	c1-0.6,1.8-0.9,2.4-1.4c1.9-1.4,4.8-2.1,5.4-4.2c0.7-2.5-2.7-3.2-4.1-5c-1.4-1.9-2.7-3.8-3.3-6.1c-0.5-2.1,0.3-3.8,2.3-4.7
	c2-0.9,3.7-0.5,5,1.3c1.5,2,2.1,4.4,2.7,6.8c0.3,1.6,0.6,3.2,1,4.8c4-0.6,3.3-2.9,2.8-5.5c-2.1-9.8,3.4-17.5,13.1-18.9
	c3-0.4,5.7,0.4,8.2,2c1.2,0.8,2.1,1.5,3.5,0.1c1.5-1.4,3.4-1.4,4.6,0.4c1.3,1.7,1.3,3.9-0.3,5.3c-1.6,1.4-1.6,2.6-1.1,4.5
	c1.7,7.6-3.6,16.7-11.1,18.8c-5.3,1.5-9.2-1.6-12.8-4.8c-1.8-1.6-3.1-2.1-4.7,0.2c3.1,1.7,6.2,3.4,8.4,6.3c1.5,2,2.8,4.1,0.8,6.3
	c-2.2,2.4-4.6,1-6.6-0.5c-2.5-1.9-4-4.5-5.2-7.3c-0.9-2-1.8-2.5-3.6-1.1c-1.8,1.4-3.7,2.8-5.6,4.2c1.2,2,3.1,2.8,4.7,4
	c1.9,1.4,3.7,2.8,5.1,4.7c1.5,2.2,1.6,4.4-0.6,6.2c-2.1,1.7-4.1,0.9-5.8-0.8c-2.5-2.5-3.9-5.6-5.1-8.8c-1-2.9-2.3-3.1-4.6-1.2
	c-3.7,3-9,4.6-11.2,8.7c-2.1,4-0.8,9.1-0.8,13.7c-0.2,13-0.2,26-0.2,39c0,1.6-0.2,3.3,0.7,5.3c4.1-2.3,7.2-5.7,11.2-8.5
	c-1.5-2-3.7-2.6-5.4-3.9c-2.4-1.8-4.2-3.9-4.4-7c-0.1-1.4,0.2-2.7,1.5-3.6c1.5-1,2.9-0.6,4.2,0.3c2.8,2,4.1,5,5.4,8.1
	c1.6,3.6,1.5,3.7,4.5,1.3c3.9-3.1,3.9-3.1-0.3-5.6c-3-1.8-5.7-3.8-7.1-7.1c-1-2.2-0.6-4.1,1.4-5.4c2.1-1.4,4-0.7,5.4,1.1
	c2.2,2.8,3.7,6.1,5.3,9.2c0.4,0.8,0.6,2.3,1.7,1.9c1.7-0.5,0.5-1.8,0.2-2.7c-3.1-7.9-1.5-14.7,4.4-20.7c4.2-4.3,9.3-4.7,14.8-3.5
	c2.3,0.5,4.5,1.6,6.7-0.8c1.2-1.4,2.9-0.2,3.9,0.9c1.3,1.4,2.2,3.1,0.7,4.7c-1,1.1-1,1.9-0.6,3.2c4.1,13.1-4,23.6-17.6,22.9
	c-1.5-0.1-3-0.2-4.5-0.4c-0.7-0.7-1.6-0.6-2.5-0.7c-0.9-0.7-1.8-1.5-3.3-1.2c0.9,1.4,2.2,1,3.3,1.2
	C90.3,177.5,91.3,177.4,92.1,177.6z M38.8,113.4c3.3-1.7,6.2-3.9,8.4-6.9c0.9-1.2,1.8-2.5,0-3.8c-1.6-1.2-2.9-0.3-3.8,0.9
	C41.3,106.6,39.7,109.8,38.8,113.4L38.8,113.4z M42.1,184.9c-3.7,0.8-6.8,2.7-9.4,5.3c-0.9,0.9-2.2,2.1-0.9,3.5
	c1.3,1.4,2.7,0.8,4-0.1C38.8,191.3,41.1,188.5,42.1,184.9L42.1,184.9z M39.6,63.3c-4.3,0.2-8.3,1.3-11.6,4.2c-1.2,1-2.8,2.2-1.6,4.1
	c1.3,2,3.2,1.8,5,0.9c3.9-2,6.7-4.9,8.3-9c0.1-0.1,0.2-0.1,0.2-0.2c-0.1-0.1-0.1-0.1-0.2-0.2C39.8,63.1,39.7,63.2,39.6,63.3z
	 M93,104.4c3.7-7.8,10-12,19.5-12.5c-5.6-3.7-10-2.9-14.3-0.1C93.7,94.7,92,99.2,93,104.4L93,104.4z M112.7,94.6
	c-9.6-0.7-16.9,4.7-18,13.1l-0.1,0.1l0.1-0.2C101.3,104.1,107.3,99.7,112.7,94.6l0.1-0.1L112.7,94.6z M109.1,151.2
	c-9.5-2.1-23.1,10.9-21.4,20C95.1,164.7,102.5,158.6,109.1,151.2z M8.2,95.3C8,107,20.7,117.2,30.4,113.4
	C22.9,107.6,15.6,102,8.2,95.3z M110.6,152.7c-7,7.5-14.4,13.5-21.7,20.4C101.5,173.4,112,163.7,110.6,152.7z M96.8,112.1
	c6.1,5.7,9.9,6.1,15,2c5.4-4.3,7.2-10.6,4.4-15.3C112.8,107.3,107.1,112.5,96.8,112.1z M29,165.6c4.4-8.3,2.8-13.3-5.3-16.7
	c-1.4-0.6-2.8-1.1-4.3-1.3c-2.9-0.4-5.7,0-8.2,2.3C20,151.8,24.3,153.9,29,165.6z M10.1,94.1c7.1,6.8,14.4,12.2,21.8,18
	C31.5,101.6,20.2,93.1,10.1,94.1z M100.8,37.6c-11-1-19.3,7.1-16.5,15.6C89.8,48.3,95.3,43.4,100.8,37.6z M104,41.3
	c-0.6,11.2-7.8,14.4-16.9,15.8c6.5,3.6,11.3,3.3,15.3-0.7C106.5,52.4,107.2,47.2,104,41.3z M12,91.4c10.4,1.9,17.7,6.5,21.5,16.4
	C35.4,94.9,24.6,86.5,12,91.4z M5.5,156.2c-2.1,5.5-0.9,9.8,3.4,13.4c4.4,3.7,9.5,4.2,14.2,1.3C10.9,166.1,9.1,164.6,5.5,156.2z
	 M5.7,98.1c-2.2,6.6-0.4,11.7,5.2,16.3c3.8,3.1,9.8,4,13.3,1.8C14.1,114.6,9,107.7,5.7,98.1z M85.6,167.2
	c2.8-9.3,9.3-14.2,17.1-18.5C91.6,146.6,83.5,155.2,85.6,167.2z M20.4,36.2c9.6,0.7,14.6,6.1,16.4,15.1c3-5.8,2.2-9.9-2.1-13.8
	C30.3,33.5,25.4,32.9,20.4,36.2z M15.5,41.7c-2.8,5.9-1.6,10.9,3.3,14.8c4.1,3.3,7.4,3.3,11.8-0.3C21,56.3,18.4,49.2,15.5,41.7z
	 M101.6,39.9c-5.4,5.1-10.3,9.7-15.7,14.8C95.9,54.5,102.8,49.8,101.6,39.9z M94.4,175.1c12.6,1.6,21.2-6.3,18.5-16.7
	C109.6,167.2,103.7,173,94.4,175.1z M7.6,153.8c1.5,8.7,8.8,14.6,17.4,14.2C19.3,163.1,13.9,158.4,7.6,153.8z M114.3,96.5
	c-6.2,4.5-12,8.7-18.1,13.2C105.8,110.6,112.3,105.9,114.3,96.5z M54.7,8.2c-5.3,2-7.2,5.9-6.7,12.6c0.4,4.7,2.7,7.3,7.7,8.3
	C49.8,22.3,51.5,15.3,54.7,8.2z M34.2,52.2c0.2-8.3-6.4-14.4-14.6-13.5C24.2,43.6,28.9,48,34.2,52.2z M9.3,152.3
	c5.8,4.8,11.2,9.2,16.9,14C24.6,157.1,18.5,152.1,9.3,152.3z M58.4,28.7c0.2-7.3,0.2-13.7-0.3-20.8C52.4,15,52.5,22.6,58.4,28.7z
	 M32.7,53.9c-5.1-4.8-9.8-9.1-14.6-13.6C19.1,49.9,24.2,54.8,32.7,53.9z M63.5,28.8c4.6-2,6.5-5.6,6.3-10.3
	c-0.2-4.4-1.5-8.4-6.6-11.1C66.9,15.1,67.9,21.9,63.5,28.8z M60.6,8.3c0,6.9,0,13.2,0,19.7C65.4,22.6,65.5,14.7,60.6,8.3z
	 M97.6,34.9c-4.2-1.9-8-1.1-11.4,1.5c-4.1,3.1-6,7.1-4.7,12.6C83.5,40.5,89,36,97.6,34.9z M84.6,177.9c2.7,4,5.1,7,9,8.4
	c1.1,0.4,2.5,0.5,3.2-0.9c0.6-1.2-0.2-2.1-1-2.8C92.9,180,89.3,178.8,84.6,177.9z M56.9,41.8c-3.2-3.8-6-6.5-9.8-7.8
	c-1-0.4-2.5-1.1-3.2,0.5c-0.7,1.3,0.2,2.4,1.2,3.2C48.1,40.4,51.8,41.4,56.9,41.8z M31.3,176c-3.8,1.4-7.1,2.2-9.2,4.9
	c-0.8,1-1.7,2.3-0.4,3.6c1.3,1.4,2.6,1.1,4,0.1C28.4,182.6,29.9,179.8,31.3,176z M44.2,58.4c3.2-1.9,5.6-3.7,7.2-6.4
	c0.8-1.4,1.7-3-0.1-4.3c-1.9-1.3-3.1,0.3-4.1,1.5C45.1,51.6,44.8,54.7,44.2,58.4z M77.4,63.4c2.7,4,4.8,7.1,8.4,8.8
	c0.8,0.4,1.5,0.7,2.3,0c0.9-0.9,0.5-1.8,0-2.6C85.8,66.3,82.6,64.1,77.4,63.4z M35,171.2c3.8-2.1,5.7-5.1,7.3-8.3
	c0.5-1,0.9-2.2-0.1-3c-1.1-0.9-2.3-0.3-3.3,0.6C35.8,163.2,35.5,167,35,171.2z M45.8,179.8c3.7-2.1,6.3-4.4,8.2-7.4
	c0.7-1.1,1.5-2.4,0-3.6c-1.6-1.2-2.8-0.4-3.8,0.9C48,172.5,47.1,175.9,45.8,179.8z M44.3,125.6c-3.7,1.7-6.7,3.4-8.9,6.2
	c-0.7,0.9-1.8,2.1-0.8,3.2c1.1,1.2,2.6,0.5,3.7-0.3C41.3,132.6,43.4,129.8,44.3,125.6z M75.8,185.4c1.7,4.2,3.9,7,7.3,8.8
	c1.1,0.6,2.5,0.9,3.4-0.3c0.8-1.1-0.2-2.1-0.9-2.8C83.1,188.5,80.1,186.6,75.8,185.4z M34.9,118.5c-4,1-6.9,2.8-9.6,5
	c-0.9,0.7-2.2,1.6-1.4,3c0.9,1.4,2.5,1.1,3.7,0.4C30.7,125,33.2,122.5,34.9,118.5z M74.3,119.4c-0.3-3.1-0.2-6.2-1.7-8.8
	c-0.7-1.3-1.8-2.8-3.5-2c-1.8,0.8-1.3,2.5-0.7,3.9C69.7,115.3,71.5,117.8,74.3,119.4z M78.4,124.8c1.4,4.2,2.7,7.3,5.1,9.8
	c0.9,0.9,2,1.7,3.2,0.7c1.4-1.1,1-2.4,0.1-3.6C84.9,129,82,127.3,78.4,124.8z M89.3,116.1c1,3.9,2.8,6.4,5.3,8.4
	c1.1,0.9,2.4,1.8,3.6,0.5c1-1.1,0.3-2.3-0.5-3.3C95.6,119.3,93.2,117.1,89.3,116.1z M80.7,173c-1.3-3.2-2.7-5.9-4.4-8.5
	c-0.8-1.2-1.8-2.3-3.3-1.3c-1.8,1.1-0.9,2.6-0.1,3.9C74.7,169.7,77.2,171.7,80.7,173z M62.1,40.8c3.5,0.1,6.3-0.5,8.9-1.5
	c1.7-0.6,3.7-1.6,2.7-3.7c-1-2-3.1-1.1-4.6-0.2C66.7,36.7,64.5,38.2,62.1,40.8z M86,111.3c-0.4-3.4-0.8-6.2-2.1-8.8
	c-0.7-1.4-1.7-2.6-3.5-1.7c-1.6,0.8-1.2,2.2-0.7,3.5C80.9,107.2,83,109.2,86,111.3z M74.8,58.9c-0.1-4,0.6-7.1-1.6-9.8
	c-0.8-0.9-1.5-2.2-2.9-1.6c-1.4,0.6-1,2.1-0.7,3.2C70.3,53.6,72.1,56,74.8,58.9z M72.2,181.1c-1.1-3.4-2.2-6.2-4.2-8.4
	c-0.7-0.8-1.5-1.8-2.7-1.2c-1.4,0.7-1.1,2.2-0.7,3.3C65.8,178.1,68.8,179.4,72.2,181.1z M47.9,121.2c3.7-2,6.6-3.7,7.2-7.5
	c0.2-0.9,0.3-2-0.8-2.5c-1-0.4-1.8,0.2-2.5,0.9C49.7,114.6,48.8,117.6,47.9,121.2z M5.6,150.8c-0.2-1-0.9-1.3-1.7-1.2
	c-0.8,0.1-1.6,0.5-1.6,1.4c0.1,0.9,0.8,1.4,1.7,1.2C4.7,152.1,5.5,151.8,5.6,150.8z M106.3,35.9c-0.2-0.9-0.6-1.5-1.5-1.7
	c-0.7-0.2-1.4-0.1-1.6,0.8c-0.2,1.2,0.5,1.8,1.5,2C105.5,37,106,36.6,106.3,35.9z M15.2,34.1c-1.1,0-1.7,0.7-1.9,1.8
	c-0.1,0.6,0.3,1.1,0.9,1.1c1.1,0.1,1.8-0.4,2.1-1.5C16.5,34.6,16,34.2,15.2,34.1z M118,90.8c-1,0.1-1.2,0.9-1.2,1.8
	c0,0.7,0.3,1.5,1.1,1.4c0.9-0.1,1.3-0.8,1.3-1.7C119.1,91.5,118.8,91,118,90.8z M58.9,2.1c-0.4,0.3-1.4,0.4-1.2,1.5
	c0.1,0.7,0.8,1.1,1.5,1c0.9,0,1.6-0.5,1.4-1.5C60.5,2.4,59.9,2.1,58.9,2.1z M112.1,150.1c0.5,0,1.1-0.1,1.1-0.8c0-1-0.6-1.4-1.4-1.6
	c-0.6-0.1-1.1,0.2-1.1,0.8C110.6,149.5,111.3,149.9,112.1,150.1z M5.6,92.6c0.9,0,1.5-0.5,1.6-1.4c0.1-0.6-0.4-1.1-0.9-1.1
	c-0.8,0.1-1.5,0.6-1.6,1.5C4.6,92.3,5,92.6,5.6,92.6z"/>
</svg>
