<?xml version="1.0" encoding="utf-8"?>
<!-- Generator: Adobe Illustrator 25.3.0, SVG Export Plug-In . SVG Version: 6.00 Build 0)  -->
<svg version="1.1" id="Layer_1" xmlns="http://www.w3.org/2000/svg" xmlns:xlink="http://www.w3.org/1999/xlink" x="0px" y="0px"
	 viewBox="0 0 106.1 250.5" style="enable-background:new 0 0 106.1 250.5;" xml:space="preserve">
<path d="M31.3,143.6c-8.6-8.5-16.2-21.7-14.2-33.5c13.2,4.3,21.9,15.6,30.5,30.6c-1.3-5.6-2.6-11.2-3.9-16.9
	c-10.8-9.7-23.7-17.9-27-33.7c-4.8-29,13.5,1.9,21.2,9c-2.6-5-1.4-14.7-8-16.1C9.8,77.8-0.8,36.3,27.4,65.6c0,0,0.2,0,0.2,0l-0.2,0
	C25.1,45,2.3,38.5,12.7,12c1.3-2.9,2.6-2,4.4-0.9c17.2,10,5.8,30,10.8,44.3C25.6,50.3,41.4,24.1,42,36.7c2.7,40.5-19.3,15-3.3,57.5
	c1.7-7.2,3.4-13.1,6.5-18.7c1.9-3.5,13-16.7,14-8.4c2,39.4-23.3,31.8-10.9,67c-2.5-9.4,30.6-51.8,28.4-34c0.7,17.9-5.6,33-18.5,45.4
	c-10.1,5.9-7,10.7-5.8,20.8c7-8.3,10.9-20,18.3-28.6c6-8,14.7-10.6,23.5-7.5c8.6-0.4-16.2,29.3-20.1,30.1c-5.5,5.6-21.6,9-21.1,17.3
	c-0.4,20.9,0.5,43-6.3,62.9c-2.1-9.2,11.5-63.2-0.2-63.8c-27.6-0.4-43.6-52.6-29-43.7c12.3,9.1,23.8,18.5,32.1,31.8
	c0,0-0.1,0.1-0.1,0.1C53.1,151.3,37.2,152.2,31.3,143.6z M41,116.7l0.2,0.1c-1.7-13-10.2-23.7-19-31.6C27,96.4,32,107.8,41,116.7z
	 M57.4,163.8c11-11.2,19.5-24.6,34.9-31.3c-18.7-7-27.3,18.8-35.1,31.4L57.4,163.8z M19.8,113.8L19.8,113.8
	c6.3,14.2,16.2,25.7,28.2,37C43.4,134.6,35.1,121.3,19.8,113.8z M49.7,172.6c0.1,0.3,0.1,0.4,0.4,0.4c-4.7-16.4-19.7-26.8-32.3-37.2
	C24.6,151.3,35.8,163.1,49.7,172.6z M72.1,101.4c-13.9,7.3-23.7,27.6-20.7,44.1c7-15.1,13.9-29.7,20.7-44.3L72.1,101.4z M42.1,105
	c4-11.9,8.1-23.9,12-35.9C43.3,78.7,40.2,90.9,42.1,105z M24.2,44.1c0.9-10.6,3.2-21.6-6.8-29.8C19.9,24.2,22.1,34.1,24.2,44.1z
	 M30.9,77.9c-2.4-9.1-7.9-15.5-16.2-19.4C18.8,66.1,24.6,72.2,30.9,77.9z M30.7,62c3.4-7.3,5.7-14.9,7.1-23.6
	C29.9,45.3,30.5,53.7,30.7,62z"/>
</svg>
