<?xml version="1.0" encoding="utf-8"?>
<!-- Generator: Adobe Illustrator 25.3.0, SVG Export Plug-In . SVG Version: 6.00 Build 0)  -->
<svg version="1.1" id="Layer_1" xmlns="http://www.w3.org/2000/svg" xmlns:xlink="http://www.w3.org/1999/xlink" x="0px" y="0px"
	 viewBox="0 0 155 251.4" style="enable-background:new 0 0 155 251.4;" xml:space="preserve">
<path d="M73.1,27.9c-0.5-1.4-0.7-2.8,0.8-3.6c2-1,2.6,1,3.6,2c-0.3,7.5,0.4,10,3.7,12c-0.2-3-2.2-9.4-3.7-12
	c-0.6-3.4-3.6-4.5-6.1-5.9c-3.6-2.1-3.9-2.6-1.4-5.7c0.6-0.8,0-1.4,0.1-2.1c0-1,0-1.9,1-2.4c1.1-0.5,2,0,2.7,0.8
	c0.8,0.8,1.3,1.8,1.4,2.9c0.3,3.7,2.7,6.6,3.8,10.4c1.2-1.9,0.8-3.3,0-4.7c-0.9-1.6-1.2-3.4,0.3-4.9c0.7-0.7,1.6-0.8,2.3-0.1
	c1.4,1.4,1.6,3.1,1.1,4.9c-0.4,1.2-0.7,2.5-1.2,3.7c-2.3,5.5,1.1,10.2,1.8,15.5c3-3.3,3.5-7.1,1.6-10.9c-0.2-0.5-0.6-0.9-0.8-1.4
	c-0.7-1.3-0.9-2.7,0.2-3.9c0.9-1,1.6-0.9,3.7,0.4c0.3-0.9,0.5-1.8,0.9-2.6c0.6-1.1,1.6-1.9,3-1.4c1.3,0.5,1.4,1.6,1.2,2.8
	c-0.2,0.8-0.5,1.6-0.9,2.3c-2.3,3.6-3.3,6.4-4.1,11.2c1.8-0.6,3.2-1.4,3.9-3.2c0.3-0.7,0.7-1.3,1.2-1.8c1-1,2.4-1.4,3.4-0.2
	c1.1,1.2,0.4,2.4-0.6,3.4c-0.9,1-2.3,1-3.8,1.6c1.4,0.5,2.4,0.6,3.2,1.1c1.2,0.7,1.8,1.8,1.1,3.1c-0.6,1.2-1.8,1.1-2.9,0.8
	c-0.8-0.2-1.4-0.8-2-1.4c-1.8-1.8-4.1-1.7-5.5,0.4c-1.2,1.8-1.9,3.6-1.4,6c1.7,7.9,2.2,15.9,2.3,24.1c4.1-3.4,5.4-8.1,3.7-12.8
	c-0.6-1.5-0.7-2.9,0-4.3c0.5-1,1.3-1.6,2.5-1.4c1.3,0.2,1.4,1.3,1.5,2.4c0.1,1.3-0.3,2.6-1,3.7c-0.4,0.7-1,1.4-0.5,2.3
	c3.4-3.1,3.7-5.5,1.5-10.1c-0.6-1.3-1.4-2.4-1.3-3.9c0.1-1.3,0.6-2.4,2.1-2.6c1.3-0.1,1.9,0.9,2.2,2.1c0.4,1.2,0.4,2.4,0,3.5
	c-0.3,0.9-0.6,1.9,0.1,3.3c1-2.7,2.7-4.8,2.3-7.6c-0.1-0.6,0.1-1.3,0.3-1.9c0.5-1.4,1.4-2.6,3.1-2.2c1.8,0.5,1.6,2.1,1.2,3.5
	c-0.7,2.6-3.2,4-4.1,6.5c-0.7,2-1.9,3.9-2.7,6c2.3-1,4.5-2.1,5.5-4.6c0.6-1.4,1.2-3,3.3-2.8c1,0.1,1.6,0.6,1.6,1.6
	c0,2-1.4,3-3.1,3.5c-1,0.3-1.9,0.7-2.5,1.8c1.2,0.1,2.2,0,3.1,0.2c1.4,0.3,2.5,1.2,2.3,2.7c-0.3,1.6-1.8,1.7-3.2,1.4
	c-0.5-0.1-1-0.4-1.5-0.6c-1.1-0.6-1.7-2.3-3.2-1.9c-1.7,0.5-3.3,1.4-4.5,2.7c-1.6,1.7-2.7,3.9-3.7,6.5c2.3-0.8,4.1-1.6,5.7-3
	c0.6-0.5,1.1-1,1.9-1c1.6,0,2.9,0.4,3,2.2c0,1.9-1.7,2.3-3,2c-3.6-0.8-6.2,1.1-8.9,2.8c-1.9,1.2-3.3,3.2-3.6,5.4
	c-0.8,5.3-1.1,10.6-1.7,16.9c1.4-2.2,2.3-3.8,3.3-5.3c3.4-5,6.8-9.9,12.1-13.2c3.1-2,6.6-2.4,10-2.9c1.9-0.3,1.7,1.3,1.5,2.5
	c-0.6,2.8-1.8,5.5-3.3,7.9c-5.7,9.5-13.4,16.7-24.1,20.1c-1.6,0.5-1.7,1.5-1.9,2.6c-1.6,10.9-2.9,21.8-3.6,32.8
	c-0.2,3.4-0.4,6.8-0.7,10.6c1.2-0.7,1.3-1.8,1.6-2.6c3-6.7,6.2-13.3,11.6-18.5c2.8-2.6,6.1-4.2,9.8-4.9c4.5-0.8,6.5,1.7,5,6.1
	c-0.6,1.7-1.7,3-2.9,4.3c-3,3-5.9,6.2-8.7,9.2c2.6,1.5,3,4.5,0.7,7.5c-2.6,3.4-4.3,13.8-3,18.3c1.6-3.2,3.1-6.1,4.6-9.1
	c3.5-6.9,7.1-13.6,11.1-20.2c0.8-1.3,1.1-2.4,0.7-3.9c-0.5-1.9-0.7-3.8-1-5.7c-0.8-5.8-0.2-11.4,2.7-16.7c1.7-3.1,2.9-6.6,4.4-9.9
	c0.6-1.3,1.3-2.8,3.1-2.8c1.8,0,2.3,1.3,2.5,2.8c0.2,0.9,0.6,0.9,1.4,0.7c2.6-0.7,3.1,0.9,3.2,2.9c0.1,1.6-0.3,3.2-1.3,4.4
	c-2.2,2.5-2.5,5.6-2.9,8.7c3.7-4.1,8.6-7.5,8.9-13.9c0.1-1.3-0.4-2.6-0.4-3.8c0-1.9,0.3-3.7,2.2-4.8c0.9-0.6,1.9-0.4,2.5,0.4
	c1.4,1.7,0.6,3.5,0,5.2c-0.7,1.8-3.1,2.7-2.6,5.4c2-1.5,3.8-2.8,4.4-5.3c0.4-1.7,1.5-3.2,3.5-3.5c2.1-0.3,3.3,0.9,2.6,2.9
	c-0.7,2.1-2,3.6-4.1,4.2c-3.4,0.8-5,3.9-8,5.9c2.1,0.7,3.4,0.4,4.6-0.7c1.5-1.4,3.3-2.3,5.6-1.8c1.3,0.3,2,1,2.2,2.1
	c0.2,1.3-0.7,2-1.8,2.5c-2.2,1-4.4,0.9-7.3-0.6c2.8,3.9,1.3,6.6-1,8.9c-1,1-1.1,2-1.1,3.7c2.7-2.5,5.8-4,6.9-7.4
	c0.3-0.8,1.1-1.5,1.6-2.2c1.2-1.5,2.9-2.1,4.4-0.8c1.6,1.4,0.5,3.1-0.6,4.4c-0.7,0.8-1.7,1.5-2.7,1.8c-5,1.7-7.8,6.3-12.1,9
	c3.6-0.3,7.3,0,10-3c0.5-0.6,1.4-0.9,2.2-1.1c1.4-0.3,2.7,0.1,3.2,1.5c0.6,1.5-0.4,2.4-1.6,3.1c-1,0.5-2.1,0.8-3.2,0.5
	c-1.5-0.5-2.9-0.2-4.4,0.5c0.7,1.1,2,0.9,2.8,1.4c1.4,0.8,2.4,1.8,2.3,3.5c-0.1,1-0.6,1.8-1.6,2c-1.6,0.2-2.8-0.7-3.7-2
	c-0.1-0.1-0.1-0.1-0.2-0.2c-0.7-1.7-1-3.9-3.4-3.9c-2.7,0-5.6-0.1-8,1.8c-1.9,1.4-3.8,2.7-6.3,4.5c2.9,0,5,0,7,0
	c0.5,0,1.1-0.2,1.6-0.3c1.9-0.3,3.5-0.1,4.5,1.8c0.5,0.9,0.5,1.9-0.4,2.5c-1.7,1.2-3.4,0.6-4.9-0.3c-4.5-2.7-9-2.2-13.5,0
	c-3.5,1.8-5.8,4.6-7.6,8.1c-3.6,6.8-7.1,13.6-10.3,20.6c-0.4,0.8-1,1.5-0.8,2.8c3.9-1.7,7.6-3.4,11-5.8c2.3-1.6,2.8-6,1.2-8.7
	c-0.6-1-1.2-1.9-1.4-3c-0.2-1.5,0.3-2.9,1.9-3.3c1.8-0.5,2.4,0.9,3,2.2c0.8,2-0.5,3.7-0.8,6.2c1.7-1.5,2.4-2.7,2.1-4.5
	c-0.4-2-0.2-3.9,2.1-4.9c1-0.4,1.9-0.2,2.4,0.8c1.1,2.1,0.4,4.1-1.3,5.5c-2.1,1.8-3.1,4.2-4.8,7.2c4.5-2.5,8-5,11-8.1
	c0.8-0.8,0.7-1.9,1-2.8c0.5-1.7,1.4-3.1,3.4-3.1c1,0,1.8,0.4,2,1.5c0.3,1.9-0.5,3.5-2.1,4.2c-2.4,1-4.2,2.7-6,4.3
	c-0.3,0.3-0.6,0.6-1.1,1.2c2.4,0.2,4.3,0.5,6.4,0.1c2-0.4,4.1-0.6,5.3,1.8c0.5,1,0.3,2-0.6,2.5c-2.1,1.2-3.9,0.5-5.6-1
	c-0.8-0.7-1.4-1.5-2.7-0.8c0.6,1.3,2.1,1.5,2.9,2.5c0.9,1.1,1.4,2.2,0.9,3.6c-0.3,0.9-0.9,1.5-1.8,1.5c-1.5,0-2.4-1-3-2.1
	c-0.3-0.6-0.5-1.2-0.6-1.8c-0.7-3.9-2.7-5.1-6.1-3.1c-6.3,3.8-12.7,7.2-19.3,10.4c-0.8,0.4-1.5,0.8-1.8,1.6c-1.3,3-2.7,6.1-4.1,9.3
	c1.2-0.2,1.7-1.1,2.4-1.7c5.8-4.9,12.1-8.3,20-8.5c3.7-0.1,7.3-1,11-1.6c3.7-0.6,5.5,0.2,6.7,3c1.1,2.6,0.4,4.8-2.6,6.8
	c-5.4,3.6-11.4,5.5-17.7,6c-5.6,0.5-10.7,2.1-15.6,4.7c-1.2,0.6-2.3,1.4-3.5,1.7c-7.8,2.5-9.3,8.8-9.3,15.7
	c-0.1,8.9,0.2,17.8,0.3,26.7c0,0.6,0,1.3-0.1,1.9c0,0.5-0.3,0.9-0.8,0.9c-0.5,0-0.8-0.4-0.9-0.9c-0.1-0.8-0.1-1.7-0.1-2.5
	c-0.6-21-0.5-42.1,0-63.1c0.1-2.3-0.5-4.1-1.8-5.9c-3.8-5.2-8.3-9.7-12.8-14.3c-1.3-1.3-2.7-1.1-4.1-0.9c-3.2,0.6-6.3,1.4-9.5,1.9
	c-6.3,1-12.4,0-18-3.1c-1.6-0.9-3.4-2-2.7-4.3c0.7-2.4,3-2.5,4.8-2.2c8,1.3,16.3,0.4,24.5,3.8c-1-2.6-2.7-4-3.8-5.8
	c-1.4-2.2-2.9-4.3-4.3-6.5c-0.8-1.2-1.5-1.5-2.6-0.4c-1.3,1.3-3.1,2.1-3.5,4.2c0,0.2-0.2,0.3-0.3,0.5c-1.2,1.4-2.4,2.7-4.4,2.2
	c-0.9-0.2-1.4-1-1.3-1.9c0.1-2.2,1.7-3,3.4-3.5c1.1-0.3,2.2-0.4,3-1.2c0.4-0.4,1.3-0.7,0.9-1.5c-0.3-0.7-1.2-0.8-1.7-0.5
	c-2.2,0.9-4.7,0.9-6.8,2.2c-1.4,0.8-2.9,1.4-4.5,1c-1.2-0.3-2.3-0.9-2.4-2.3c-0.1-1.5,1-2.1,2.2-2.5c1.7-0.6,3.5-0.5,5.1,0.3
	c0.8,0.4,1.6,0.9,3.1,0c-2.8-1.2-4.9-3.1-7.9-3.1c-1.7,0-3.4-0.2-4.7-1.4c-1-0.9-1.8-2-1.1-3.4c0.6-1.3,1.9-1.3,3.1-1
	c1.2,0.4,1.9,0.5,3.1-0.8c1.9-2.2,3.5,0.1,5.3,1.5c0.7-0.8,1-2.3,2.4-2c1.7,0.3,2.4,1.8,2.8,3.2c0.6,2.3,1.6,4.3,2.9,6.3
	c0.2,0.3,0.5,0.4,1.2,0.9c0.1-1.7-1-2.6-1.3-3.7c-2.3-6.6-6.5-10.9-13-13.9c-7.8-3.6-13.7-9.7-16.1-18.5c-0.4-1.4-0.8-2.9-0.7-4.4
	c0.1-1.2,0.4-2.4,1.7-3c1.3-0.6,2.4,0,3.3,0.8c1.3,1.2,2.5,2.4,3.7,3.7c4.5,4.8,8.8,9.8,12,15.6c0,0.8,0,1.5,0.9,2.3
	c-0.1-1.1-0.4-1.8-1-2.3c-2.4-7.5-4.8-15-7.2-22.5c-0.4-1.1-1.2-1.7-2.3-1.4c-2,0.4-4.1,0.2-5.8,1.6c-0.9,0.7-2.1,0.8-3.2,0.7
	c-1.4-0.2-2.7-0.6-2.6-2.3c0.1-1.5,1.2-2.2,2.6-2.4c1.7-0.2,3.2,0.8,4.9,0.9c0.9,0.1,2.4,0.3,2.6-0.9c0.1-1-1.2-1.2-2.1-1.4
	c-2.5-0.6-4.8-1.9-7.5-2c-1.8-0.1-3.6-1-4-3.2c-0.2-1,0-1.9,1.1-2.3c2-0.7,3.6,0.3,5.1,1.4c1.4,1,1.6,3.5,4.5,3.5
	c-2-2.6-2.9-5.5-5.5-7.3c-1.4-0.9-2.7-2-3.2-3.7c-0.3-1.2-0.3-2.5,0.9-3.3c1.2-0.8,2.4-0.3,3.2,0.6c1,1.3,1.8,1.7,3.6,1
	c1.6-0.6,3.3,2.1,2.8,4.8c-0.3,2,0,3.8,0.3,5.7c0.3,2,1.3,3.6,3.2,5c-0.1-2.6-1-4.7-1.5-7c-0.5-2.4-1.2-4.9-1.7-7.3
	c-0.5-2.4-0.9-5-3.3-6.4c-0.1,0-0.1-0.1-0.2-0.2c-1.1-1.4-1.7-2.9-0.9-4.6c0.4-0.9,1.2-1.5,2.3-1.2c1.8,0.5,2.6,2,3.1,3.6
	c0.7,2.4-0.5,5,0.6,7.4c0.2,0.5,0.3,1,0.6,1.9c1.2-1.6,1.2-3,0.7-4.5c-0.5-1.7-0.7-3.5,0.3-5.1c0.6-0.9,1.4-1.6,2.5-1.4
	c1.2,0.2,1.7,1.1,1.9,2.1c0.4,2.1-0.4,3.9-1.5,5.7c-2.1,3.4-3.6,7.1-2,11.2c0.2,0.5,0,1.3,1.1,1.3c3.8-0.1,4.8,1,4.4,4.8
	c-0.1,1.1-0.3,2.2,1,3.8c0-3,0-5.3,0-7.6c0-0.6-0.1-1.1-0.1-1.7c0-1.8,0.6-3.5,2.6-3.7c2.1-0.2,1.9,1.8,2.3,3.1
	c2.8-2.2,4.6-2.5,5.6-1c0.9,1.5-0.4,4.6-2.9,5.6c-2.5,1-4.2,2.5-5.2,5c-0.1,0.2,0,0.4-0.1,0.8c2-0.2,3.7-0.5,5.3-1.9
	c1.5-1.2,3.2-1.9,5.1-0.7c0.8,0.5,1.1,1.3,0.6,2.2c-1.1,1.8-2.9,2.2-4.8,2c-1.5-0.2-2.9-0.3-4.4,0.2c-3.9,1.2-5.6,4.3-4.3,8.3
	c2,6.2,4.2,12.3,6.8,18.2c0.3,0.7,0.4,1.6,1.4,2.2c0.6-2.1,1.1-4.4,0.4-6.2c-1.7-4.1-1.2-8.6-3-12.6c-0.3-0.6-0.3-1.5-0.2-2.2
	c0.2-1.3,0.8-2.3,2.3-2.4c1.4,0,1.8,1.1,2.1,2.2c0.3,1.2,0.2,2.4-0.4,3.5c-1.2,2.2-0.7,4.4,0.1,6.7c0.7-3.5,2.4-6.8,2-10.6
	c-0.2-1.9,0-3.8,2.1-4.7c1-0.4,2.1-0.3,2.6,0.8c0.9,2.1,0.2,3.9-1.4,5.2c-1.9,1.6-1.8,3.7-2.2,5.8c1.9-0.3,1.9-1.6,2.3-2.7
	c0.6-1.7,1.4-3.3,3.2-3.9c1-0.4,2-0.4,2.8,0.5c0.7,0.8,0.6,1.7,0.2,2.6c-0.7,1.8-2,3.1-3.8,3.8c-3.9,1.4-6.3,3.9-6.4,8.3
	c0,2.1-0.3,4.2-0.6,6.4c-0.6,4.9,1.5,8.8,4.4,13.2c-0.8-6.9,0.5-13.1,1.1-19.3c0.2-1.9,0.7-3.8,1.5-5.6c0.8-1.9,2-3.5,4.3-3.3
	c2.2,0.2,3.1,1.9,3.7,3.7c1.3,3.8,1,7.7,0.5,11.6c-0.9,6.6-2.9,12.8-5.5,18.9c-0.7,1.5-0.6,2.7,0.4,4c3.4,4.6,7,9.1,11.1,13.1
	c3.9,3.8,7.6,7.8,11.3,12.8c0.2-3.7,0.3-6.5,0.4-9.3c0.4-11.8,1.1-23.5,2.4-35.2c0.2-2-0.4-3.7-1.4-5.2c-1.9-2.9-3.6-5.9-4.7-9.1
	c-2.3-6.8-6.7-12.1-11.7-17c-1.9-1.9-3.9-3.8-5.6-5.8c-1.9-2.3-3-4.9-2.3-8c0.9-3.8,3.3-5,6.8-3.3c3.6,1.7,6.1,4.7,8.9,7.4
	c1.6-3.1,3.9-3.1,5.7-0.1c1.2,2,2.7,3.2,5,3.2c-0.4-4-3.4-7.6-7.3-9.1c-0.5-0.2-1.1-0.3-1.6-0.5c-1.6-0.7-2.8-1.8-2-3.7
	c0.8-1.8,2.2-1.2,3.5-0.6c0.8,1.2,1.7,2.5,2.8,4.2c0.1-2.6-0.9-3.8-2.9-4.1c-0.1-0.4-0.2-0.9-0.3-1.3c-0.4-1.4-0.7-3,1.1-3.4
	c1.9-0.4,3.2,0.9,3.2,2.6c0.1,3.3,1.4,6.3,2.7,9.3c0.3,0.6,0.4,1.3,1.2,1.7c0.6-1.4,0.7-2.8,0.4-4.3c-0.2-0.8-0.4-1.7-0.3-2.4
	c0.2-1.3,1-2.3,2.5-2.1c1.4,0.2,1.6,1.4,1.5,2.6c0,1-0.6,1.9-1.2,2.8c-2,3.1-1.6,7.5,1.2,9.8c0-7.3,2.6-14.1-0.5-21
	c-1.7-3.7-5.1-4.2-8.4-4.8c-1.7-0.3-3.6,0-4.3-2.2c-0.3-0.8-0.1-1.8,0.8-2.1c1.9-0.8,3.4,0.1,4.7,1.5c0.8,0.9,2.1,2,3,1.2
	c0.9-0.8-0.6-1.8-1-2.8c-0.6-1.5-1.9-1.8-3.4-1.8c-1.3,0-2.6,0.2-3.9-0.3c-1.5-0.6-2.4-1.6-1.8-3.2c0.6-1.5,1.9-1.2,3.1-0.9
	c0.7,0.2,1.3,0.6,2.1,1c-0.2-1.1-0.8-1.7-1.6-2.1c-0.6-0.4-1.3-0.8-1.8-1.3c-0.8-0.9-1.1-1.9-0.7-3.1c0.3-0.8,0.8-1.2,1.7-1.2
	c1.3,0.1,2.1,0.9,2.5,1.9c0.6,1.7,1,3.5,2.1,5.1c0.3,0.4,0.6,0.9,1.2,1.6c0.5-1.4,0.5-2.4-0.4-3.3c-0.3-0.3-0.6-0.7-0.9-1.1
	c-0.7-1.3-1.1-2.6,0-3.9c0.5-0.6,1.2-0.9,2-0.5c1.5,0.7,1.8,2,1.9,3.4c0.1,1.2-1.2,2.2-0.5,3.5c0.7,0.3,0.8-0.7,1.3-0.7
	c3.2-0.2,2.4-2.3,2-4.2c-1.1-5.2-5.1-8-10.3-7.3c-1,0.1-2,0.4-3,0.2c-1.3-0.4-2.1-1.2-2-2.6c0.2-1.6,1.4-1.7,2.7-1.6
	c1.1,0.1,2,0.5,2.7,1.3c0.8,0.9,1.7,1,3,0.7c-1.3-2-2.7-3.7-4.8-4.7c-0.7-0.3-1.4-0.6-1.9-1.1c-1.2-1-1.6-2.4-0.7-3.7
	c0.9-1.3,2.1-0.7,3.2,0.1C72.3,27.5,72.7,27.7,73.1,27.9c0.2,1.7,0.4,3.3,2.4,4.2C75.9,29.8,73.8,29.3,73.1,27.9z M85.2,148.1
	c-2.6,2.5-6.5,4.7-6.8,7.9c-0.6,6.2-2.2,12.6,0.8,18.8c1.9,4,2.8,8.4,0,12.2c-3.3,4.3-1.4,8.9-1.7,13.4c3.2-7,6-14.2,9.2-21.1
	c2.5-5.4,4.2-10.6,3.6-16.7c-0.3-3.4-1.5-6.2-3.4-8.8C85.8,152,84.6,150.5,85.2,148.1z M82.9,193.2c0.1,0.2,0.3,0.4,0.4,0.7
	c0.9-0.7,1.8-1.5,2.7-2.2c5.1-3.9,10.3-7.7,16.9-8.6c6.5-0.9,12.7-2.6,18.8-4.8c0.8-0.3,2.2-0.2,1.9-1.5c-0.3-1.2-1.6-1.2-2.6-1.1
	c-1.2,0.1-2.4,0.3-3.6,0.5c-3.2,0.6-6.4,1.1-9.6,1.3C96.6,178.1,89.1,184.7,82.9,193.2z M108.9,139.7c6.8-3.2,11.6-7.3,12.4-14.8
	c0.2-1.8,0.8-3.5,2.4-4.5c0.9-0.6,1.9-0.8,2.9-0.1c1,0.7,1.1,1.7,0.8,2.7c-0.5,1.9-1.6,3.4-3.3,4.3c-1.5,0.7-2,1.9-2.3,3.9
	c1.4-1.1,2.4-2,3.5-2.5c3-1.6,4.2-4.2,4.4-7.4c0.2-2.8-1-5.8,1.5-8.5c-2.8-0.1-4.5,0.7-5.7,2.5c-1.5,2.1-3.1,4.1-4.6,6.2
	C116.5,127.1,112.6,133,108.9,139.7z M77.6,109.3c-0.7-5.4-1.8-10.6-4.1-15.5c-3.3-7-7.9-12.9-14.7-16.8c-1-0.6-2.3-1.1-3.2,0.2
	c-1,1.4,0.6,2,1.3,2.6c7.7,6.3,13.5,14.1,17.7,23.2C75.5,105.1,76.6,107.2,77.6,109.3z M79.4,107.8c0.2,0,0.5,0,0.7,0
	c1-5.8,2-11.5,3-17.3c0.2-1-0.5-1.9-1.4-2.1c-3.7-0.8-7.2-2.1-11.5-3.7c2.7,4.1,5,7.4,6.3,11.3C77.8,99.8,78.9,103.7,79.4,107.8z
	 M87.8,193.1c6-3.1,12.1-5,18.9-5.4c4.4-0.3,8.7-1.8,12.7-3.8c1.8-0.9,3.6-1.7,4.7-3.7c-1.3-0.6-2.2,0.1-3.1,0.4
	c-5.2,1.7-10.4,3.4-15.9,4C98.3,185.3,92.9,189,87.8,193.1z M108.6,72.2c-7.3-1.8-20.1,14.2-22.4,22.6
	C94.9,88.6,99.3,78.5,108.6,72.2z M87.5,97c11-4.4,17.7-12.8,22.3-23.3C101,80.2,95.5,89.8,87.5,97z M85.7,144.3
	c6.6-4.9,12.5-10.7,18.1-16.7c1-1.1,1.7-2.6,1-4.8C97.3,129.3,90,135.3,85.7,144.3z M82.5,144.9c4.8-8.9,11.8-15.8,19.9-22.4
	C93.9,122.4,85.2,134.8,82.5,144.9z M52.7,132.7c1.6-3.2,2.5-6.5,3.1-9.8c0.9-4.4,1.4-8.8,0.5-13.2c-0.2-1.2-0.4-2.5-2.1-3.1
	C53.1,115.4,53.7,124.1,52.7,132.7z M75.7,111.9c-4-12.3-10.1-23-21.1-31.2c0.5,3.7,2.6,5.5,4.5,7.4c6.7,6.4,12.9,13.1,15.7,22.1
	C75,110.8,75.4,111.3,75.7,111.9z M18.2,93.4c1.7,5.6,11.1,17.6,15,19.2C29.6,104.8,23.8,99.2,18.2,93.4z M52.2,107.6
	c-2.8,4.8-4,21.7-1.9,26.3C51.8,125.1,51.4,116.5,52.2,107.6z M53.1,152.3c-7.9-0.7-15.5,0.9-22.8-1.9
	C35.4,154.6,45.7,155.5,53.1,152.3z M113.2,128.2c6.6-5.6,6.1-13.5,7.4-20.7C119,114.7,114.8,120.9,113.2,128.2z M29.5,113.2
	c-4.7-5.2-9-10.9-12.8-16.8C18.1,104.2,22.9,109.4,29.5,113.2z M86.3,146.8c5.6,1,3.3,5.4,4.1,8.9c2.3-4.7,1.5-9.1,1.6-13.8
	C90.1,143.5,88.4,144.9,86.3,146.8z M116.9,102.1c-6,10.3-7.7,15.5-6.7,21.4C110.9,116.1,115.8,110.1,116.9,102.1z M31.7,148.1
	c3.8,2.1,10.9,2.7,16.2,1.5C42.6,149.1,37.1,148.8,31.7,148.1z M117.7,108.5c-1.8,4.5-4.8,8.6-4.9,13.7
	C114.8,117.8,116.8,113.4,117.7,108.5z M77.7,176.2c0,3.5,0,6.2,0,9.5C79.4,182.3,79.4,180.7,77.7,176.2z M81.7,59.2
	c0.6-2.3-0.3-3.9-1.8-5.5C79.5,56,80.1,57.6,81.7,59.2z M84.2,55.3c-0.8,2.9,0.4,5.5,0.2,8.3c0.2-2.6,0.2-5.1,0.2-7.7
	C84.6,55.8,84.3,55.6,84.2,55.3z M30.2,90.9c0.4-3.4,0.2-4.2-1.7-5.8C29.2,87.3,29.7,89.1,30.2,90.9z M136.7,110.2
	c1.5,0.5,2.6,0.7,3.5-0.3c0.3-0.3,0.3-0.7-0.1-0.9C138.8,108.5,137.8,109,136.7,110.2z M41.6,78.1c-2,0.3-2.4,1.4-2.6,3.2
	C40.4,80.4,41.4,79.7,41.6,78.1z M27.4,64.7c1-1.4,1.4-2.4,0.3-3.8C26.8,62.1,26.8,63.1,27.4,64.7z M123.3,125.3
	c1.4-0.6,2-1.5,2-2.8c0-0.1-0.5-0.3-0.7-0.2C123.6,122.9,123.3,123.8,123.3,125.3z M21.9,62.2c-0.1-1.5-0.4-2.5-1.4-3.2
	C20.5,59,20,59.3,20,59.4C19.8,60.6,20.5,61.4,21.9,62.2z M15.6,79.4c-1.1-1.3-1.9-2.1-3.7-1.7C12.8,79.1,13.8,79.5,15.6,79.4z
	 M132.6,96.4c-1.2,2-1.2,2-0.3,3.3C133,98.7,133.4,97.8,132.6,96.4z M137.8,102.1c1.5-1.2,2.6-1.8,2.5-3.4
	C138.6,99,138.2,100,137.8,102.1z M142.8,115c-2.2,0.6-2.2,0.6-2.6,2.7C141.3,117,142.4,116.4,142.8,115z M14.1,68.1
	c0.1,2.1,0.1,2.1,1.9,2.8C15.8,69.7,15.4,68.7,14.1,68.1z M131.7,118.3c0.9-1.3,1.4-2.4,1-3.9C131.6,115.5,131.4,116.6,131.7,118.3z
	 M52,99.3c-2.1,1.1-2.1,1.1-2.1,3C51,101.7,51.9,101,52,99.3z M33.5,135.6c-1.4-0.4-2.3-0.5-3.2,0.1c-0.1,0.1-0.1,0.6,0,0.7
	C31.4,137.1,32.3,136.7,33.5,135.6z M94.2,146c0.9-1.4,1.3-2.4,0.7-3.8C93.7,143.3,93.5,144.3,94.2,146z M29.6,128.6
	c-0.7-1.2-1.6-1.7-2.8-1.6c-0.1,0-0.3,0.5-0.2,0.6C27.3,128.7,28.2,129,29.6,128.6z M74.8,19.9c-0.1-1.3-0.5-2.2-1.9-3.3
	C73.5,18.2,73.2,19.4,74.8,19.9z M36.8,81c-1.3,0.5-1.9,1-1.8,2.4C36.1,83.1,36.5,82.4,36.8,81z M46.3,96.5c1-0.3,0.9-1,0.9-1.7
	c0-0.1-0.5-0.3-0.6-0.2C45.9,95.1,45.7,95.8,46.3,96.5z M123.2,103c-0.9,1.5-0.9,1.5-0.1,2.8C123.6,104.9,123.8,104,123.2,103z
	 M125.7,138.9c0.9,0.9,1.6,1,2.6,0.4C127.5,138.5,126.8,138.4,125.7,138.9z M37.7,142.3c1.2-0.3,1.9-0.7,2.2-1.8
	C38.8,140.6,38.1,140.9,37.7,142.3z M142.1,126.7c-0.9-0.7-1.5-0.3-2.1,0.4c-0.1,0.1,0.1,0.4,0.2,0.4
	C141,127.9,141.7,127.6,142.1,126.7z M119.5,167.3c-0.3,0.5-0.1,0.9,0.2,1.2c0.3,0.4,0.6,1,1.3,0.5
	C121,168.1,120.5,167.5,119.5,167.3z M88.3,151.5c0.2-0.8,0-1.4-0.6-1.9c-0.1-0.1-0.6,0.2-0.6,0.3C87,150.7,87.3,151.3,88.3,151.5z
	 M123.6,163.6c0.7,0.6,1.2,1,2,0.1C125,163.1,124.4,162.8,123.6,163.6z M112.1,152.6c-0.9,0.8-1.1,1.4-0.4,2.2
	C112.6,154.3,112.6,153.6,112.1,152.6z M136.1,133.4c0.3,0.8,0.6,1.4,1.4,1.4c0.3,0,0.5-0.2,0.4-0.5
	C137.6,133.6,137.2,133.2,136.1,133.4z M105.7,153.9c-0.7,0.7-0.4,1.3,0.1,1.8c0.1,0.1,0.4,0,0.4,0
	C106.5,155,106.6,154.3,105.7,153.9z M122.2,154.1c0.7-0.4,1.2-0.8,1.2-1.5c0-0.1-0.4-0.4-0.5-0.4
	C122.2,152.6,121.9,153,122.2,154.1z M33.8,129.5c0.2,0.2,0.4,0.5,0.6,0.5c0.3,0.1,0.9,0.8,0.8-0.2
	C35.1,129.4,34.4,129.1,33.8,129.5z M39.6,131c0.2,0.8,0.6,1.3,1.6,1.5C40.9,131.6,40.7,130.9,39.6,131z M16.9,86.4
	c-0.4,0.1-0.8,0.1-0.7,0.6c0,0.1,0.4,0.3,0.7,0.3c0.4,0,0.7-0.1,0.6-0.6C17.5,86.6,17.1,86.5,16.9,86.4z M40.6,98.7
	c-0.1-0.4,0-0.9-0.5-0.9c-0.1,0-0.3,0.4-0.3,0.6c0,0.3,0,0.8,0.5,0.8C40.4,99.2,40.5,98.9,40.6,98.7z M38.3,126.2
	c-0.1,0.9,0.2,1.5,1.2,1.9C39.4,127.1,39.2,126.5,38.3,126.2z M32.5,125.8c-0.1,0.7,0.4,0.9,0.9,1.1c0.1,0,0.4-0.2,0.4-0.2
	C33.6,126.1,33.3,125.6,32.5,125.8z M96.2,45.4c-0.1-0.1-0.1-0.5-0.3-0.6c-0.3-0.2-0.5,0.1-0.4,0.4c0,0.2,0.1,0.6,0.3,0.7
	C96,46,96.2,45.8,96.2,45.4z M82.3,74.7c0-0.4-0.1-0.7-0.4-0.6c-0.1,0-0.3,0.3-0.3,0.4c0,0.2,0.2,0.4,0.3,0.7
	C82,75,82.2,74.8,82.3,74.7z M80.2,17.6c0.2,0.2,0.4,0.4,0.6,0.5c0.1-0.1,0.3-0.3,0.2-0.4c-0.1-0.2-0.2-0.5-0.4-0.7
	C80.5,17.2,80.4,17.3,80.2,17.6z M42.9,87.9c0.2-0.1,0.5-0.2,0.6-0.4c0.2-0.4-0.1-0.5-0.4-0.4c-0.2,0.1-0.4,0.3-0.6,0.4
	C42.7,87.6,42.8,87.7,42.9,87.9z M102.2,43.2c0.3-0.4,0.5-0.5,0.6-0.7c0.1-0.2,0.1-0.5-0.3-0.5c-0.1,0-0.3,0.2-0.4,0.3
	C102.1,42.4,102.2,42.7,102.2,43.2z M35.7,78c-0.1-0.2-0.2-0.4-0.3-0.6c-0.2,0.2-0.4,0.3-0.5,0.5c-0.1,0.3-0.2,0.7,0.3,0.7
	C35.4,78.6,35.5,78.2,35.7,78z M20.6,71.4c0-0.4-0.2-0.7-0.6-0.8c-0.1,0-0.2,0.3-0.2,0.4c0,0.4,0.2,0.7,0.6,0.7
	C20.4,71.9,20.5,71.6,20.6,71.4z M93,53.7c-0.1-0.3-0.1-0.7-0.5-0.4c-0.2,0.1-0.3,0.4-0.3,0.7c0,0.3,0.2,0.5,0.5,0.3
	C92.9,54.1,92.9,53.8,93,53.7z M105.9,50.9c0.1-0.2,0.4-0.3,0.4-0.6c0.1-0.3-0.2-0.4-0.5-0.3c-0.2,0.1-0.3,0.4-0.4,0.6
	C105.6,50.7,105.7,50.7,105.9,50.9z M118.7,106c-0.1-0.1-0.2-0.3-0.4-0.5c-0.1,0.1-0.2,0.3-0.3,0.4c-0.1,0.2-0.1,0.6,0.3,0.5
	C118.4,106.5,118.5,106.3,118.7,106z M90.6,22.4c0.1-0.4,0.3-0.6,0.3-0.9c0-0.1-0.2-0.2-0.3-0.3c-0.1,0.2-0.2,0.5-0.3,0.7
	C90.3,22.1,90.5,22.2,90.6,22.4z M30.1,81.9c0-0.4-0.2-0.7-0.6-0.7c-0.1,0-0.3,0.3-0.2,0.4c0.2,0.3,0.4,0.5,0.6,0.8
	C30,82.2,30,82.1,30.1,81.9z M82,51.7c-0.1,0.4-0.3,0.7-0.2,0.9c0.1,0.2,0.3,0.3,0.5,0.5c0.1-0.2,0.2-0.5,0.2-0.7
	C82.5,52.2,82.3,52.1,82,51.7z M87.8,27.3c-0.1-0.1-0.1-0.2-0.2-0.3c-0.1,0.1-0.3,0.2-0.3,0.4c0,0.1,0.1,0.2,0.2,0.3
	C87.6,27.6,87.7,27.5,87.8,27.3z M72.8,12.9c-0.2-0.1-0.4-0.3-0.6-0.4c0,0.1-0.2,0.3-0.1,0.4c0,0.1,0.2,0.3,0.4,0.3
	C72.6,13.2,72.7,13,72.8,12.9z M85.9,24.6c-0.1-0.1-0.1-0.3-0.2-0.4c-0.1,0.1-0.3,0.2-0.3,0.3c0,0.1,0.1,0.3,0.2,0.4
	C85.7,24.8,85.8,24.7,85.9,24.6z M19.8,75.4c0.1-0.1,0.2-0.3,0.2-0.4c-0.1-0.1-0.2-0.2-0.4-0.3c-0.1,0.1-0.2,0.3-0.2,0.4
	C19.5,75.2,19.7,75.3,19.8,75.4z"/>
</svg>
