<?xml version="1.0" encoding="utf-8"?>
<!-- Generator: Adobe Illustrator 25.3.0, SVG Export Plug-In . SVG Version: 6.00 Build 0)  -->
<svg version="1.1" id="Layer_1" xmlns="http://www.w3.org/2000/svg" xmlns:xlink="http://www.w3.org/1999/xlink" x="0px" y="0px"
	 viewBox="0 0 138.4 251.4" style="enable-background:new 0 0 138.4 251.4;" xml:space="preserve">
<path d="M75,165.6c2.3-1.2,3.9-1.8,2.8-4.2c-0.6-1.2-0.1-2.4,1.1-3.2c1.3-0.9,2.5-0.6,3.7,0.4c0.6,0.5,0.9,1.3,1.9,0.9
	c1.2-0.5,0.6-1.5,0.5-2.3c-0.2-1.5,0.4-2.6,1.9-3.2c1.3-0.5,2.5-0.1,3.2,1c0.6,0.8,0.8,1.8,2.2,1.3c1.4-0.5,0.7-1.4,0.8-2.2
	c0-1.7,0.9-2.8,2.5-3c1.5-0.2,2.7,0.6,3,2.1c0.7,3.4,2.9,2.6,4.7,1.4c1.6-1,3-1.6,4.4-0.1c1.1,1.1,1.2,2.5,0.2,3.6
	c-1.3,1.6-2.9,1.3-4.4,0.2c-1.4-1-1.9-0.4-2.1,1.1c-0.2,1.5-1.2,2.4-2.7,2.5c-1.4,0.1-2.3-0.7-2.8-1.9c-0.3-0.9-0.5-1.8-1.8-1.5
	c-1.1,0.3-0.6,1.2-0.7,1.9c-0.6,3-2.7,3.8-5,1.8c-0.8-0.7-1.3-1.5-2.4-0.7c-1.2,0.9,0,1.5,0.3,2.2c0.6,1.5,0.5,2.9-0.9,3.8
	c-1.4,0.8-3,0.7-3.8-0.8c-1-1.9-1.8-1.3-3.1-0.4c-3.2,2.2-5.5,4.8-6.3,8.9c-1.5,7.7-3.6,15.4-5.4,23c-0.2,0.9-0.3,1.9-0.5,3.5
	c3.6-3.1,6.5-6,10.1-8.1c1.9-1.1,4.1-2.8,6-0.5c1.9,2.3,1,5-1,6.9c-3.3,3.4-7.8,4.3-12.3,4.4c-3,0-3.8,1.3-4.5,4
	c-2.6,9.6-1,19.2-0.2,28.8c0.1,1.4,1.2,3.9-0.6,4.1c-2.3,0.3-1.6-2.5-1.7-3.9c-1.7-17.4-2.9-34.8-3.2-52.3c0-3.1-0.8-5.4-3.2-7.6
	c-4.7-4.3-9-8.9-11.8-14.8c-1.2-2.4-2-5-1.4-7.7c0.3-1.2,0.6-2.4,2-2.8c1.4-0.4,2.3,0.5,3.1,1.5c3.1,3.9,4.9,8.4,6.9,12.9
	c1.1,2.6,2.2,5.3,3.9,7.9c0-1.5,0.1-2.9,0-4.4c-0.3-7.1,0.7-14.2-0.8-21.3c-0.8-4-1.2-4.3-5-2.7c-2,0.8-3.8-0.3-4.1-2.5
	c-0.1-0.7,0.7-1.5-0.1-2.2c-0.9-0.1-0.9,0.8-1.4,1.2c-1.1,1.1-2.3,1.4-3.6,0.7c-1.2-0.7-1.6-1.8-1.3-3.1c0.2-0.8,0.9-1.6-0.4-2.3
	c-1.2-0.6-1.5,0.3-2.1,0.9c-2,1.8-4.6,1.4-4.9-0.9c-0.4-3.1-1.4-3.5-4-2.2c-1.6,0.8-3.1,0-3.7-1.8c-0.5-1.6,0.4-3.7,1.7-3.3
	c3.2,0.9,5.8,0.7,8.8-0.9c1.3-0.7,2.6,1.6,2.3,3.5c-0.1,0.6-0.3,1.1,0.4,1.4c0.9,0.4,1.1-0.3,1.4-0.9c0.8-1.9,2.2-2.5,4-1.7
	c1.7,0.8,1.9,2.3,1.2,4c-0.3,0.6-0.8,1.2,0.1,1.7c0.9,0.5,1.1-0.2,1.5-0.8c0.9-1.4,2.2-2,3.7-1.2c1.5,0.7,2.1,2.1,1.4,3.6
	c-0.8,2.1,0.7,2.1,2.4,3c-0.7-4.9-1.8-9.2-3.1-13.3c-0.4-1.3-1.9-1.5-2.9-2c-6.2-3-12.3-6.1-17.8-10.4c-1.6-1.2-3-2.6-3.9-4.5
	c-0.6-1.3-0.8-2.6,0.2-3.7c0.9-1,2.2-0.9,3.4-0.5c3,1.1,5.5,3,7.7,5.2c3.9,3.8,7.6,7.7,12,12.1c-0.2-3.6-1.2-6.2-1.9-8.8
	c-1.9-6.9-3.8-13.7-5.8-20.5c-0.3-1-0.4-2.1-1.7-2.7c-6.2-2.8-11.5-6.9-16.6-11.5c-1.6-1.5-2.8-3.1-3.5-5.2
	c-0.7-2.1-0.5-4.1,1.3-5.4c1.7-1.3,3.4-0.5,4.9,0.6c3.6,2.5,6.2,6.1,8.6,9.6c1.1,1.6,2.4,3.2,3.9,5.3c-0.4-4.6-2-8.2-3-11.9
	c-0.3-1.2-0.7-2.4-1-3.5c-3.4-11.5-3.3-11.5-14.1-16.7c-4.1-2-7.3-5-10.5-8.1c-0.7-0.7-1.2-1.6-1.6-2.5c-1-2.2-1.2-4.5,0.6-6.2
	c1.9-1.8,4.1-1.2,6.2-0.2c0.8,0.4,1.5,0.9,2.7,1.7c-0.2-2.7-0.5-5-0.5-7.2c0-1.4-0.1-3.1,1.6-3.7c1.4-0.6,2.5,0.5,3.6,1.3
	c1.7,1.4,3.3,2.9,5,4.5c0.9-1.6-0.5-3.4-0.1-5.1c0.4-2.2-0.5-5.4,2.5-5.9c2.8-0.5,3.8,2.5,4.8,4.7c0.5,1.1,0.9,2.2,1.5,3.7
	c1.2-1.4,1-2.9,1.5-4.2c0.4-1.3,1.2-2.2,2.6-2.2c1.4,0.1,2.3,0.9,2.4,2.3c0.9,10.2-0.5,20-5.1,29.2c-5.7,3.1-2.7,7.3-1.6,11.4
	c2.2,8,5.1,15.8,6.9,24c0.2,0.9,0.3,2,1.2,2.7c1.2-0.2,0.8-1.1,0.8-1.8c0.2-4.6,0.9-9.1,2.3-13.4c0.6-1.8,0.9-4.5,3.5-4.1
	c2.6,0.4,3,3.1,3,5.3c0,6.6-2.6,12.3-6,17.7c-1.4,2.3-1.7,4.2-1,6.8c3,10.9,5.8,21.9,8.6,32.9c0.2,0.6,0,1.4,0.9,1.7
	c0.5-8.1,1.1-16.1,1.6-24.2c0.8-12,3-23.8,5.1-35.6c0.4-2,0.1-3.7-0.6-5.5c-2.4-5.9-4.6-11.8-5.5-18.2c-0.4-2.8-0.4-5.6,0.5-8.2
	c0.4-1.3,1-2.7,2.5-2.8c1.6-0.2,2.2,1.4,2.7,2.5c1.9,4.6,2.4,9.4,2.9,14.3c0.1,1.2-0.3,2.5,1,3.8c1.1-2.8,2.2-5.5,3-8.1
	c1.8-5.4,4.5-10.4,7.6-15.1c1-1.6,1.4-3.1,0.9-5c-1.3-5.2-1.7-10.5-0.8-15.9c0.7-4.3,2.2-8.2,6.1-10.7c4.1-2.7,6.3-1.6,7,3.2
	c0.1,0.4,0.2,0.8,0.3,1.6c2.1-1.4,3.9-2.8,5.8-4c0.9-0.6,2-1,3.1-0.3c1.3,0.8,1.3,2.1,1,3.3c-0.6,2.7-1.4,5.3-2.4,8.7
	c2.6-1.4,4.6-2.4,6.6-3.5c0.7-0.3,1.5-0.8,2.1-0.1c0.7,0.7,0.2,1.5-0.2,2.1c-1.5,2.6-2.9,5.2-4.7,8.4c3.2-0.9,5.8-1.7,8.4-2.4
	c1.6-0.4,3.5-0.7,4.5,1c1.2,2-0.4,3.4-1.7,4.5c-8,6.3-16.9,10.1-27.3,10.1c-0.7,0-1.5,0.1-2-0.2c-4.5-2.9-5.8,0.7-7.3,3.6
	c-6.5,12.3-10.4,25.5-12.5,39.2c0,0.3,0.1,0.6,0.2,1.1c1.9-0.8,3-2.3,4.4-3.5c0.9-0.8,0.2-1.3-0.2-2c-0.8-1.2-0.5-2.4,0.4-3.3
	c1.1-1.1,2.3-1.1,3.7-0.4c2.6,1.2,3.2,0.8,2.9-2c-0.2-1.3,0-2.5,1.2-3.2c1.3-0.8,2.6-0.7,3.6,0.4c0.8,0.9,1.5,1,2.6,0.5
	c1.4-0.6,1.2-1.6,0.9-2.7c-0.3-1.3,0.2-2.4,1.5-3c1.1-0.5,2.5-0.6,3.1,0.4c2,3.4,3.7,1.8,5.7,0c1.1-1,2.5-1,3.7-0.1
	c1.1,0.8,1.4,2,0.8,3.3c-0.7,1.5-2,2.1-3.6,1.6c-0.6-0.2-1.2-0.5-1.7-0.7c-0.7,0.5-0.3,0.9-0.1,1.3c0.8,1.9,0.1,3.3-1.7,4
	c-1.8,0.7-3-0.3-3.6-2c-0.2-0.6-0.1-1.5-1.1-1.1c-0.9,0.3-0.7,1-0.4,1.6c0.7,1.6,0.5,3.2-1.1,4c-1.7,0.9-3,0.2-4-1.4
	c-0.8-1.4-1.7-0.6-2.5-0.1c-0.8,0.5-1.9,1-1,2.3c0.9,1.3,1.2,2.6-0.4,3.8c-1.5,1.2-3,1.4-4.4-0.2c-0.4-0.4-0.9-0.6-1.5-0.3
	c-0.7,0.5-0.7,1-0.3,1.7c0.8,1.6,1.1,3.2-0.5,4.5c-1.5,1.1-2.7,0.4-3.8-0.7c-0.6-0.6-1.2-0.5-1.7,0.1c-0.9,1.2-2.2,2.1-2.5,3.8
	c-1.2,6.7-2,13.4-2.6,21.1c2.2-3.7,3.8-6.5,5.6-9.3c1.2-1.9,2.6-3.6,4.5-4.9c1.3-0.9,2.7-1.2,4-0.2c1.4,1.1,1.1,2.6,0.5,3.9
	c-1.8,3.8-4.7,7-8.1,9.2c-5.9,3.8-7.9,8.9-7.6,15.6c0.3,7.6,0.1,15.2,0.1,22.3c0.9-1.9,2.1-4.4,3.5-6.9c0.8-1.4,2-3,4-2.1
	c1.8,0.8,2.1,2.6,1.8,4.3c-0.8,5.3-3,9.8-8.1,12.3c-1.9,0.9-2.3,2-2.3,3.9c0.1,2.8,0,5.5,0,8.2c1.2,0.3,1.3-0.7,1.7-1.1
	c1.9-1.7,3-1.5,3.8,1c0.8,2.5,0.5,5.1,0.6,7.6c0,2.1,0,4.2,0,6.3c0.9-0.7,0.8-1.9,1.1-2.9c2.7-10.2,5.3-20.4,8.8-30.4
	c0.8-2.2,0.5-3.9-0.8-5.9c-1.9-2.7-3.4-5.7-4.4-8.9c-0.5-1.5-0.8-3-0.9-4.6c0-1.7,0.2-3.7,2.1-4.1c2-0.4,2.3,1.7,2.9,3.1
	c1.6,4,2,8.3,3.2,13.1c2.1-4.9,3.9-9.3,5.9-13.6c3-6.6,6.6-12.9,11.6-18.2c1.3-1.3,1.3-2.7,1.2-4.3c-0.3-4.8-0.1-9.6,1-14.3
	c1-4.3,3.4-7.5,7.2-9.5c1.7-0.9,3.7-1.6,4.3,1.4c0.3,1.6,1.2,0.8,1.9,0.4c1.5-0.8,3-1.5,4.7-1.6c4.4-0.2,6.4,2.6,4.6,6.6
	c-0.4,0.8-0.8,1.6-1.2,2.4c9.1,0.5,9.1,0.5,4.5,9.9c1.2,0.8,3.4-0.2,3.8,1.9c0.4,2-1.4,2.9-2.7,3.8c-5.2,3.6-10.9,6-17.2,6.7
	c-2.4,0.3-4.9,0.4-6.8-0.9c-2.9-1.9-4.4-0.4-6,1.7c-3.6,4.8-6.6,9.9-8.4,15.8c2.3-1.4,4.6-2.9,7-4.3c3.2-1.8,6.5-3.3,10.2-4
	c1.7-0.3,3.3-0.3,4.9,0.6c2.3,1.3,2.6,3.3,0.5,5.1c-1.8,1.5-4.1,2.3-6.3,3c-5.2,1.6-10.6,2.6-16,3c-1.5,0.1-2.7,0.5-3.4,2.1
	C80.8,147.4,77.8,156,75,165.6z M101,14c-3.2,1.3-5.1,3.6-7.3,5.4c-0.9,0.7-1.6,2.3-2.9,1.8c-1.5-0.7-0.4-2.2-0.4-3.3
	c0-1.1,0.1-2.2,0.1-3.3c0-2.1-1-2.5-2.8-1.5c-2.8,1.6-4.3,4.1-5.1,7.1c-1.5,6-0.9,12.1,0,18.2c0.3,2.1,1.9,2.9,3.8,3.1
	c10.5,1.2,19.3-3,27.5-8.9c0.5-0.4,1.2-0.9,0.9-1.6c-0.4-0.7-1.2-0.3-1.8-0.2c-3.1,0.8-6.1,2-9.1,3.2c-1,0.4-2.1,1.5-3,0.5
	c-1.1-1.2,0.2-2.3,0.7-3.2c1.1-2.1,2.4-4.2,3.6-6.2c-2,0.3-3.5,1.1-5,1.9c-1,0.5-2,1.4-3,0.4c-0.9-0.9,0-1.9,0.4-2.7
	C98.8,21.3,100.4,18.1,101,14z M22.3,30.6c-0.3,4.1,0.7,7.3,0.8,10.5c0,0.9,0.7,2.1-0.6,2.6c-0.9,0.4-1.7-0.4-2.3-1
	c-0.5-0.4-1-0.9-1.5-1.3c-1.8-1.2-3.6-4.3-5.8-2c-2.3,2.3,0.2,4.6,1.9,6.6c0.2,0.3,0.5,0.5,0.7,0.7c5.4,4.1,11,7.8,17.1,10.8
	c1.9,1,3.5,0.7,4.8-1.4c4.9-8.3,5.7-17.6,5.9-26.9c0-0.4-0.2-0.8-1-0.8c-1.3,2.5-1.2,5.2-1.2,8c0,1.3,0.5,3.2-1.1,3.4
	c-1.8,0.3-1.5-1.7-1.8-2.9c-1.1-3.9-2-7.9-5.4-11.1c-0.8,4.3-0.4,8.1,0,11.9c0.1,0.8,0.4,1.7-0.4,2.1c-1.1,0.6-1.6-0.4-2.1-1.1
	C28.1,36,25.6,33.5,22.3,30.6z M124.7,108.1c-0.1-0.3-0.2-0.5-0.3-0.8c-0.7,0.1-1.5,0.3-2.2,0.5c-0.9,0.2-2.1,1-2.8,0
	c-0.9-1.2,0.5-1.9,1.1-2.8c1.3-1.8,2.7-3.5,4-5.3c0.5-0.7,1-1.6,0.4-2.4c-0.5-0.7-1.4-0.4-2.2-0.2c-2.6,0.5-5.1,1.5-7.6,2.5
	c-0.9,0.3-1.9,1.2-2.7,0.1c-0.7-1.1,0.5-1.8,1.2-2.4c2-1.7,4-3.5,5.4-5.8c1.3-2.3,0.5-3.7-2.1-3.6c-1.4,0-2.6,0.7-3.7,1.4
	c-2.1,1.3-3.7,3.2-5.2,5.1c-0.4,0.6-0.9,1.5-1.8,1.1c-1.1-0.5-0.6-1.5-0.3-2.3c0.6-1.8,1.9-3.5,1.6-6.1c-3.3,1.8-5.5,4.1-6.5,7.5
	c-1.4,4.6-1.4,9.4-1.3,14.2c0.1,4.3,1.4,5.7,5.8,5.9C112.8,114.8,118.8,111.7,124.7,108.1z M61,184.8c0.3,7.6,0.7,14.3,1,21.6
	C65.7,199,64.5,192.4,61,184.8z"/>
</svg>
