<?xml version="1.0" encoding="utf-8"?>
<!-- Generator: Adobe Illustrator 25.3.0, SVG Export Plug-In . SVG Version: 6.00 Build 0)  -->
<svg version="1.1" id="Layer_1" xmlns="http://www.w3.org/2000/svg" xmlns:xlink="http://www.w3.org/1999/xlink" x="0px" y="0px"
	 viewBox="0 0 84.2 249.8" style="enable-background:new 0 0 84.2 249.8;" xml:space="preserve">
<path d="M42.7,32.8c0.8-1.8,2.3-3.6,4-3.1c1.8,0.5,1.3,2.9,1.1,4.5c-0.9,6-3.3,11.2-8.3,14.9c-1,0.8-2.1,1.4-3,2.2
	c-1.3,1.1-1.3,1.1-0.4,3.9c2.4-3.8,5.3-6.7,9.1-8.6c1.5-0.7,3-1.5,4.5-2.1c0.9-0.4,2-1.3,2.9-0.3c0.7,0.8,0.4,2,0.2,3
	c-1.1,6.5-6.6,11.9-13.4,13.3c-0.6,0.1-1.3,0.1-1.9,0.3c-1,0.3-1.2,1.1-1,2c0.1,0.7-0.1,1.7,0.7,1.9c0.9,0.3,1.2-0.7,1.6-1.2
	c2-1.9,4.2-3.4,7-4c2.1-0.5,2.8,0.7,1.8,2.2c-2,2.9-1.1,4.9,1.3,6.9c1.6,1.3,1.9,3.5,3.1,5.3c1.6-1.6,0.6-2.8-0.2-4.1
	c-1.7-2.6-2.9-5.4-1.9-8.6c0.2-0.6,0.1-1.4,0.9-1.5c0.7-0.1,1.2,0.5,1.5,1c0.8,1.3,1.5,2.7,2.2,4.1c0.9-0.5,0.6-1.1,0.5-1.5
	c-1.7-7.5,1.4-13.7,5.4-19.7c0.5-0.7,1.1-1.5,2-1.3c1.3,0.3,0.9,1.5,1,2.4c0.9,6.2-0.4,12.1-3.8,17.4c1.6,1,3.1,0.4,4.5,0.8
	c1,0.3,2.3-0.1,2.8,1c0.6,1.2-0.6,1.9-1.2,2.7c-2.3,3.2-5.9,4.2-9.2,5.8c-1.3,0.6-2.5,1-2.3,2.9c1.1,0.7,1.8-0.3,2.5-0.7
	c2.9-1.5,5.9-2.1,9.1-1.6c0.9,0.1,2.1-0.2,2.5,0.9c0.5,1.2-0.6,1.9-1.3,2.6c-3.9,4-8.8,5.6-14.2,5.8c-1.7,0-2.8,0.3-2.9,2.5
	c2.9-0.4,5.6-1.2,8.4-1c0.7,0.1,1.6,0,1.9,0.8c0.4,0.9-0.4,1.3-0.8,1.9c-2.4,3.4-6,4-9.8,3.9c-3.7-0.1-8.2,3.7-7.9,7.3
	c0.6,7.7-1,15.5,1.2,23.2c0.4,1.2,0.2,2.5,0,3.8c-1.1,6.5-0.7,13-0.9,19.5c-0.1,2,0.6,2.3,2.1,1.2c0.8-0.6,1.5-1.2,2.2-1.8
	c3.1-2.5,3-2.5,1.3-6.1c-1.3-2.6-1.7-5.4-0.7-8.3c0.2-0.6,0.3-1.6,1.2-1.6c0.9-0.1,1.2,0.8,1.5,1.4c0.7,1.4,1.3,2.9,2,4.3
	c0.4,0.9,0.4,2.5,1.7,2.2c1.1-0.2,1.6-1.6,2.1-2.6c0.6-1.1-0.1-1.8-1-2.3c-3.2-1.8-4.3-5.1-5-8.4c-0.5-2.4,0.6-4.7,1.1-7.2
	c2.7,3.5,6,6.4,7.9,10.5c1.7-1.9,2-2.8,1.2-6c-2-7.8-0.6-14.8,5.1-20.7c0.6-0.7,1.1-1.8,2.2-1.4c1,0.3,0.5,1.5,0.6,2.2
	c0.2,2.7,0.3,5.4,0.6,8.2c0.5,4.6-1.2,8.4-4.2,11.8c-1.9,2.1-3.3,4.5-3.9,7.6c1.6-0.2,2.5-1.4,3.6-2c2.5-1.5,5.1-2.3,8.1-2.1
	c2.1,0.1,2.4,1.1,1.9,2.9c-1.4,5-8.1,8.6-13.8,7.3c-3-0.7-3.6-0.2-4.2,3.4c2.2-0.4,4.4-1,6.5-0.4c0.7,0.2,1.6,0,1.9,0.8
	c0.4,1-0.6,1.4-1.1,2c-2.1,2.4-4.8,3.5-7.9,2.6c-2.4-0.6-4.3-0.1-5.9,1.8c-0.6,0.7-1.3,1.4-2.1,1.9c-4.8,2.5-5.7,6.7-5.4,11.6
	c0.3,4.6,0.3,9.2,0.1,13.9c0,0.5-0.2,1.2,0.1,1.5c3.5,4.1,1.2,8.1-0.1,12.1c-2.1,6.2-1.9,12.5-2,19.3c2.4-1.9,2.4-3.8,1.7-5.9
	c-1.2-3.6-0.4-7,0.9-10.4c0.3-0.7,0.5-1.5,1.4-1.6c0.9,0,1,0.9,1.3,1.5c0.8,1.6,0.9,3.4,1.1,5.4c2.1-1.2,1.7-2.4,0.8-4.1
	c-2-3.7-2.1-7.6-1.1-11.6c0.2-0.7,0.4-1.8,1.4-1.8c0.8,0,1.1,0.9,1.5,1.5c1.4,2,1.6,4.3,2,6.8c1.4-1.2,0.9-2.4,0.6-3.7
	c-1-4.2,1.5-10.1,5.1-12.4c1.3-0.8,1.8-0.2,1.8,1c0.2,4.6,0.1,9.1-3.9,12.4c-0.4,0.3-0.8,0.7-1.1,1.1c-0.5,0.6-0.9,1.3-0.3,2
	c0.6,0.6,1.1-0.2,1.6-0.5c1.7-1.1,3.5-1.8,5.6-1.6c1.7,0.2,2.2,0.8,1.6,2.5c-1.1,3.1-3.5,4.6-6.4,5.4c-1.3,0.4-2.7,0.6-4,0.8
	c-1.7,0.2-2.2,1.2-2.6,2.9c1.8-0.2,3.4-1.1,5.1-0.8c0.8,0.1,1.8-0.2,2.2,0.7c0.3,0.8-0.4,1.3-0.8,1.9c-1.9,2.8-4.3,4.8-7.7,5.6
	c-4.5,1.1-7.9,4.8-8.5,9.5c-1.1,8.3-0.6,16.6-0.3,24.8c0,1.3,1,2.9-0.6,3.7c-1.8,0.9-3.8,1.3-5.8,1.1c-1.3-0.1-0.8-1.6-0.7-2.4
	c0.7-5.2,1.4-10.4,2.2-15.6c1.4-10.1,2.3-20.2,4.1-30.3c0.6-3.2,0.3-3.2-3.1-3c-4.2,0.2-6-1-7.7-4.6c-1-2.2-0.2-2.6,1.8-2.3
	c1.8,0.2,3.7,0.3,5.6,0.5c-0.2-2.1-1.4-2.2-2.9-2.1c-6.6,0.3-10.5-3.4-12.8-9.1c-1-2.4-0.7-2.6,1.9-2.4c3.3,0.3,6.2,1.7,9.3,3
	c-2.9-3-6.3-5.5-7.5-9.8c-1.2-4.5-0.1-8.5,1.7-12.9c5.5,4.8,7.9,10.4,6.9,17.4c-0.3,2.4-0.3,4.7,1.5,6.9c0.1-1.3,0.2-2.5,0.2-3.8
	c-0.1-2.6,1.4-4.6,2.8-6.5c0.7-1,1.4-0.9,1.7,0.3c1,4.5,2.2,9.1-1.4,13.1c-1.7,1.9-1.4,3.3,0.8,4.8c1-3,2.3-5.7,2.4-9
	c0.3-10.5,0.7-21,1.1-31.5c0-0.8,0.1-1.7-0.1-2.5c-0.4-2.4-1.8-3.1-4.1-2.3c-4.9,1.7-8.9,0.3-11.5-3.9c-0.9-1.4-0.7-2.1,1-2.2
	c2.6-0.2,5.2-0.6,7.8,0.6c-0.9-4.4-1.2-4.7-5.4-4.8c-4.9-0.1-8.5-2.8-11.6-6.1c-1.3-1.4-0.4-2,1-2.2c3.4-0.5,6.8-1.1,10.4,0.2
	c-0.1-2.3-0.8-3.3-2.9-2.9c-0.9,0.2-1.9,0.4-2.8,0.6c-4.9,1.1-8.5-1.1-11.6-4.6c-1.5-1.7-1.3-2.5,1-2.8c2.9-0.4,5.9-0.4,8.7,0.8
	c1.3,0.5,2.7,1,4.3,1.6c0-1.1-0.6-1.4-1.1-1.9c-8.3-7.4-10.3-18.9-6.3-29.1c0.3-0.8,0.5-1.8,1.5-1.8c1.3-0.1,1.3,1.1,1.7,1.9
	c1.7,3.6,3.1,7.3,4.6,11c2,5.2,3.2,10.5,2.8,16.2c2-2.7,3.6-5.7,5.7-8.2c0.6-0.7,1-1.8,2.2-1.5c1.1,0.4,0.9,1.5,0.9,2.4
	c0.1,2.4-0.4,4.8-1,7.6c3.3-2.9,2.8,0.6,4.2,1.7c-0.2-3.9-0.2-7.8-0.6-11.7c-0.6-6-1.4-11.9-1.3-17.9c0-2.5-1.1-4.9-1.7-7.3
	c-0.4-1.8-1.9-1.4-3.1-1.3c-4.4,0.4-7.5-1.4-9.3-5.4c-0.3-0.7-1.2-1.4-0.5-2.3c0.5-0.6,1.4-0.2,2.1-0.1c3.3,0.3,6.2,1.9,9.3,3
	c0.7-3.9,0.3-4.4-3.2-4c-5.9,0.7-10.5-1.2-13.8-6.2c-1.6-2.6-1.3-3.2,1.7-3.5c4-0.3,7.7,0.4,10.9,3.1c1.1,0.9,2,2.1,3.7,2.2
	c0.2-4.5,0.2-4.6-3.9-5.1c-5.1-0.7-11-5.9-12.4-10.9c-0.8-2.9-0.3-3.6,2.6-2.7c4.7,1.4,9.4,2.9,13,7c-3.1-5.3-6-10.6-7-16.7
	c-1-6.2,0.1-12.1,0.9-18.1c5,2.9,12.8,16.4,8.7,29.6C38.5,37.3,39.4,33.8,42.7,32.8c0,1.6-1.5,2.2-2.4,3.3c-2.7,3.1-4.4,7-4,10.1
	c2.9-3.3,4.2-7.6,7.5-10.4c-1.9,4.3-4.3,8.5-6.6,12.6c5.4-2.8,7.7-7.6,9.2-12.9c0.3-1.2,0.8-2.8-0.1-3.6c-1.1-0.9-1.8,1-2.9,1.1
	C43.1,32.9,42.9,32.9,42.7,32.8z M28.6,133.4c0.1-0.1,0.2-0.1,0.4-0.2C28.8,133.3,28.7,133.4,28.6,133.4c-0.1-0.2-0.1-0.3,0.1-0.2
	C28.6,133.3,28.6,133.4,28.6,133.4z M57.2,70c2.1-0.2,3.7-1.5,5.2-2.8C60.4,67.6,58.5,68.2,57.2,70c-0.2,0.1-0.6,0-0.2,0.5
	C57.1,70.3,57.2,70.1,57.2,70z M23.9,170.2l-0.1,0L23.9,170.2c1.4,2.2,3.8,3.2,6.6,4.8C28.9,171.6,26.6,170.7,23.9,170.2z M33.3,104
	c-0.2,2.7-2.5,4.6-3.3,7.5c3-1.7,3.6-4.4,4.4-6.9c0.4-1.1-0.9-0.2-1.2-0.5c1.8-2.3,1.8-2.3,1.4-4.4c-2.3,2.9-4,5.6-5.2,9.3
	C31.5,107.4,31.7,105.1,33.3,104z M26.5,158.4c2.1,2.2,1.3,5.6,3.5,7.8c2.4-3.5-0.6-12.8-4.8-14.8c0.5,2.4,0.9,4.7,1.4,7.1
	c-1.4-1-0.5-3.3-2.3-4.2c-1.5,4.6,0,9.6,4.3,12.7C27.8,163.9,27.2,161.2,26.5,158.4z M31,19.4c1,6.1,2,12.2,3,18.4
	c1.2-0.6,1.2-1.6,1.4-2.5c1.5-8-1-14.9-5.6-21.2c-0.2-0.3-0.5-0.8-0.9-0.7c-0.9,0.1-0.7,0.9-0.8,1.5c-1.5,5.8-0.8,11.5,0.7,17.1
	c0.6,2.3,1.3,4.9,3.9,6.9C32.6,31.9,30.6,25.7,31,19.4z M19.5,85c1.8,6.4,3.4,12.8,6.5,19.1c1.5-4.3-2.8-18.8-6.9-23.9
	c-4.7,7.2-1.4,22.1,6,25.8C23,98.8,19.8,92.2,19.5,85z M44.4,67.3c-1.6,1.1-2.8,2.1-4.4,2.1c-2.5,0-2.5,1.3-1.8,3.1
	c1.8,4.7,2.5,9.5,2.7,14.5c0.1,1.5,0.2,2.9,0.3,4.4c0.1,0.7,0.3,1.5,1.4,1.1c2-0.9,2.6-4,1.2-5.8c-2.2-3-3.3-6.3-2.3-10
	c0.5-1.7,1.4-1.9,2.7-0.6c1.4,1.6,2.6,3.3,3.1,5.4c0.1,0.6,0.2,1.8,1.2,1.3c0.9-0.4,1-1.3,0.3-2.1C45.7,76.9,45.1,72.4,44.4,67.3z
	 M37.8,59.1c6.5-0.3,12.8-6,13.6-11.6c0.3-1.9-0.4-2.2-2.1-1.6c-4.2,1.6-7.8,4-10.5,7.7c-0.6,0.9-1.5,1.7-1.3,3.3
	c4.5-2.8,7.8-6.6,11.9-9.5C46.4,51.9,41.9,54.7,37.8,59.1z M66.7,99.2c-5.8,5.2-7.7,12.3-5.1,18c1.9-3.5,1.7-7.6,3.6-11
	c-0.1,4.1-1.6,8-2.1,12C69,113,67.3,106.3,66.7,99.2z M21.2,40.5c3.8,2.4,7.5,4.9,11.8,7.6c-2.6-5.7-7.3-7.4-12.2-8.9
	c-1.2-0.4-1.4,0.3-1.3,1.4c0.5,4.4,7.8,9.8,12.4,9C29,45.7,23.8,44.5,21.2,40.5z M66.5,128c0.1,0.1,0.2,0.3,0.3,0.4
	c-1.8,1-3.7,2-5.9,3.2c4.8,1,10-1.5,11.6-5.1c0.7-1.7,0.4-2.7-1.6-2.5c-4.5,0.4-7.8,2.8-10.9,5.6c0.1,0.2,0.2,0.5,0.3,0.7
	C62.4,129.5,64.5,128.7,66.5,128z M32.2,58c-2.9-3.7-7.1-5.8-11.1-5.5c-1,0.1-2.3-0.1-1.9,1.6c0.8,3.2,7,6.2,10.8,5
	c-3.1-1.8-6.5-2.6-9-5C24.9,54.7,28.1,57.3,32.2,58z M29.9,121.7c-1.3-3.6-7.2-5.5-10.2-3.6c-0.6,0.4-0.6,0.7-0.2,1.3
	c1.3,2.3,6.6,4.5,9.3,3.7c-1.2-0.9-2.5-1.2-3.7-1.7c-1.2-0.5-2.3-1-3.2-2.9C24.7,120,27.1,120.8,29.9,121.7z M51.8,118.1
	c-1.5,2.9-0.7,6.4,2.3,9.4c0.3-1.8-1.5-3.1-1-5.5c0.7,1.8,1.2,2.9,1.7,4c0.5,1,0.8,2.3,2.1,2.9C58.4,124.8,56.4,122.8,51.8,118.1z
	 M24.6,111.9c-3.1-2.2-6.5-3.5-10.4-3.3c-0.8,0-1.9,0-1.3,1.4c1,2.2,5.2,3.9,7.5,3c-1.3-1.1-3.4-0.6-4.4-2.6
	c1.5,0.4,2.8,0.9,4.1,1.1C21.7,111.7,23,112.4,24.6,111.9z M58.2,60.8c4-3.9,5.6-11,3.8-15.7C60.3,50.3,59.3,55.2,58.2,60.8z
	 M21.2,170.9c2.1,5.8,4.9,7.6,10.4,7C28.3,175,24.8,172.8,21.2,170.9z M39.5,113.6c-1,3.9-2.5,7.3-4.7,10.5
	c-1.2,1.7,0.1,3.1,1.5,4.7c0.6-3.8,1.3-7.2,3.3-10C40.9,117.1,40.9,115.4,39.5,113.6z M52.3,193.6c-2.7,0.6-4.7,2.6-6.5,4.7
	c-0.9,1.1,0.2,1.5,1,1.3c2.7-0.5,5.2-1.7,6.8-4.1c0.3-0.4,0.8-0.8,0.5-1.4C53.9,193.4,53.2,193.7,52.3,193.6z M57.2,172.3
	c-0.1-0.5,0.4-1.5-0.6-2c-0.4-0.2-0.8,0-1.1,0.4c-1.8,2.3-3.2,4.7-3,7.7c0,0.5,0.1,1.2,0.7,1.2c0.3,0,0.8-0.3,1-0.6
	C55.9,177.1,57.2,175.1,57.2,172.3z M51.4,188.7c3.9,0,6.7-1,8.6-3.8c0.3-0.5,0.8-1.2,0.3-1.7c-0.4-0.6-1.2-0.4-1.7-0.1
	C56,184.2,53.4,185.6,51.4,188.7z M37.3,108.8c-2.2,3.1-4.2,6.2-3.8,10.3c1.4-1.6,1.4-4,2.8-5.8c0.5,2.1-1,3.6-0.5,5.4
	C37.1,115.6,38.6,112.5,37.3,108.8z M48.6,187.1c1.9-4.5,1.6-7.5-1.1-9.7C46.1,180.7,46.6,184.9,48.6,187.1z M39.9,130.4
	c1.9-2.6,2.3-5.5,2.2-8.5c0-0.5-0.3-1-0.7-1.3c-0.3-0.3-0.7,0.1-1,0.4c-1.4,1.4-2.2,5.1-1.5,7.3c1.4-0.5,0.1-2.4,1.7-3.1
	C40.3,127.1,40.1,128.7,39.9,130.4z M64.7,76.1c-3.9,1-7.8,1.9-11.1,4.3C57.9,80.4,61.7,79.4,64.7,76.1z M43.7,197.2
	c0.8-3,2.3-5.9,0.3-9C43,191.1,41.4,194,43.7,197.2z M49.9,88.7c2.4,0.5,4.4,0,6.3-1c0.8-0.4,1.9-1,1.7-2c-0.3-1.3-1.6-0.6-2.4-0.5
	c-1.4,0.1-3,0.1-4.5,1.4c1.5,0.5,2.9-0.7,3.9,0.5C53.6,88.3,51.4,87,49.9,88.7z M56.7,68.7c2.6-2.3,5.3-2.7,8.3-3.9
	C60.3,63.2,57.3,64.5,56.7,68.7z M56.8,59.7c1.1-3.7,2.7-7.3,2.7-11.2C57.3,51.9,56.2,55.6,56.8,59.7z M56,140.1
	c2.2,0.9,3.9-0.1,5.5-1.2c0.4-0.3,0.8-0.9,0.8-1.2c-0.1-0.7-0.9-0.7-1.5-0.8C58.1,136.3,57.2,138.3,56,140.1z M48.7,129.9
	c-1.1,1.8-0.7,5,0.1,4.9c2.1-0.2,1.3,1.2,1.7,1.9c0.2,0.4,0.3,1,1.3,0.8C51.8,134.6,50.2,132.3,48.7,129.9z M39.4,182.8
	c0.8-2.2,2.3-4.2,2.2-7.2C39,177.8,38.6,180.2,39.4,182.8z M29.6,182.9c3.1,2.6,4.1,2.9,6.6,2.1C34.7,182.8,32.4,182.9,29.6,182.9z
	 M39.7,67.9c3.2-0.6,5.3-2.9,5.6-5.8C43.4,64,41.6,65.9,39.7,67.9z M28.7,130.7c1.8,2.4,3.8,2.5,6.6,2
	C33.1,131.2,31.5,130.2,28.7,130.7z M33.1,111.9c-4.2,2.5-4.4,3.1-1.8,5.9C31.9,116,32.4,114.3,33.1,111.9z M53.4,68.4
	c0.6-2.1-0.1-3.8-1.7-5.8C50.9,65.3,52.2,66.9,53.4,68.4z M35.7,173.5c0.2,0.1,0.4,0.2,0.7,0.2c1.2-1.8,1.8-3.7,0.4-5.9
	C36.5,169.7,36.1,171.6,35.7,173.5z M49.4,77.7c-0.8-2.3-1.6-4.7-2.3-7C46.8,73.3,47.5,75.7,49.4,77.7z M27.4,65.7
	c0.7,2.9,2.8,2.7,5.1,2.4C30.8,67.3,29.1,66.5,27.4,65.7z M48.5,70.6c0.2,2,0.7,3.9,2.1,5.3C50.7,73.8,49.8,72.1,48.5,70.6z
	 M63.2,74.4C60,74.5,58,75.3,56.3,77C58.5,76.6,60.5,75.9,63.2,74.4z M34.8,171.9c1-2.1,1.3-3.9,0.9-6.2
	C34.4,167.8,33.9,169.5,34.8,171.9z M34.1,67.2c0.1-0.2,0.2-0.5,0.4-0.7c-2-0.9-4-2.1-6.4-1.8C30.1,65.5,32.1,66.3,34.1,67.2z
	 M43.1,80.4c0,1.9,0.5,3.6,2.1,5.4C44.8,83.5,44.2,81.9,43.1,80.4z M42,62.9c-0.9,0.7-2.5,1-2.5,2.9C40.7,65,41.6,64.2,42,62.9z
	 M46.5,84.3c-0.2-2.2-0.7-3.4-1.7-5C44.6,81.3,45.4,82.4,46.5,84.3z M33.7,134.6c-0.9-0.4-1.6-0.6-2.3,0
	C32.1,135.1,32.7,135.1,33.7,134.6z M41.9,179.8c-0.6,0.3-0.5,0.9-0.6,1.3c0.2,0,0.5,0.1,0.5,0C42.1,180.8,42.3,180.3,41.9,179.8z
	 M32.1,186.2c-0.3,0.1-0.4,0.2-0.2,0.4c0.1,0.1,0.3,0.3,0.5,0.3c0.1,0,0.2-0.2,0.3-0.2C32.5,186.5,32.3,186.3,32.1,186.2z"/>
</svg>
