<?xml version="1.0" encoding="utf-8"?>
<!-- Generator: Adobe Illustrator 25.3.0, SVG Export Plug-In . SVG Version: 6.00 Build 0)  -->
<svg version="1.1" id="Layer_1" xmlns="http://www.w3.org/2000/svg" xmlns:xlink="http://www.w3.org/1999/xlink" x="0px" y="0px"
	 viewBox="0 0 37.3 110.5" style="enable-background:new 0 0 37.3 110.5;" xml:space="preserve">
<path d="M19,38.6c2-2.1,1.6-4.3,2.2-6.2c1.1-3.5,4.8-6.6,7.4-5.5c3.4,1.4,3.9,4.7,3.2,7.8c-1.3,5.7-4.4,10.4-8.8,14.2
	c-2.3,2-3.1,4.1-2.6,7.1c0.6,3.5,0.5,7.1,0.7,10.6c0.4,0.1,0.8,0.1,1.1,0.2c0.5-2.5,1.1-5,1.5-7.5c0.4-2.6,1.1-5,2.6-7.2
	c1.7-2.3,4-3.5,6.7-2.5c2.8,1.1,3.3,3.8,2.8,6.5c-1.1,6.1-3.9,11.9-8.5,15.5c-6.6,5.2-6.3,11.4-5.5,19.1c2.3-3.4,3.3-6.8,5.3-9.6
	c1.7-2.3,3.6-3.7,6.5-3c3.2,0.8,3.6,3.3,3.5,6.1c-0.2,6.6-3.6,11.2-8.9,14.7c-3.6,2.4-8.2,4-7.4,9.8c0.2,1.1-0.9,1.8-2.1,1.6
	c-1.3-0.2-1.7-1.3-1.5-2.3c0.8-3.9-1.4-4.9-4.6-6.2c-5.7-2.3-10-6.4-12.2-12.5c-1-2.8-1.2-5.6,1.2-7.6c2.7-2.1,4.6,0.5,6.7,1.9
	c3.7,2.6,5,7.1,9,11.2c0-5.4-0.1-9.8,0-14.1c0.1-2.1-1-2.9-2.7-3.8C9.1,74,5.1,69.2,2.5,63.2c-0.6-1.4-1.2-2.9-1.4-4.4
	c-0.3-2.2,0.6-4.1,2.6-5.2c1.9-1.1,3.6-0.4,5.3,0.8c3.7,2.5,5.4,6.5,8.2,10.1c-0.2-3.3-0.5-6.6-0.6-9.8c-0.1-2.1-1.8-2.2-3.2-2.8
	c-5-2-8.5-5.6-10.9-10.4c-1.2-2.4-1.6-5.1,1-6.9c2.7-1.8,5.3-1,7.3,1.4c1.3,1.6,2.4,3.3,4,4.8c-1.5-7.9-0.2-16.4-6.8-23
	c-3.2-3.2-4.3-7.7-3.6-12.4c0.4-2.8,1.8-5,4.7-5.3c2.7-0.3,4.5,1.3,5.6,3.7c1.7,3.5,2.1,7.2,2.2,11C17,22.6,17.1,30.5,19,38.6z
	 M23.3,40.4c3.9-2.1,4.5-3.8,3.1-7.8C24,34.8,25.2,38.3,23.3,40.4c0,0.4,0,0.8,0.1,1.2C23.4,41.2,23.4,40.8,23.3,40.4z M26.8,65.7
	c3.4-2.8,4.6-6.5,4.6-10.7c-4.6,2.3-3.9,6.8-4.5,10.8c-0.2,0.2-0.4,0.4-0.6,0.5c0.2,0.1,0.4,0.1,0.5,0.2
	C26.8,66.3,26.8,66,26.8,65.7z M15,72.6c-2.2-5.2-2.8-11.4-8.7-14.2C6.6,64.6,9.8,69.2,15,72.6z M25.1,95.7c4.2-1.7,7-4.5,8-8.8
	c0.3-1.3,0.7-3-0.7-3.7c-1.7-0.7-2.3,1-2.9,2.2C28,88.8,26.6,92.3,25.1,95.7z M4.7,86.1c0,5.1,3.1,9.1,9.3,11.3
	C11,93,9.4,88.5,4.7,86.1z M12.8,16.2c-0.3-3.3-0.4-5.6-0.7-8c-0.1-1-0.6-2-1.9-1.9C8.6,6.4,8.4,7.6,8.4,8.8
	C8.5,11.6,9.6,13.9,12.8,16.2z M11.7,45.3c-2.1-4.8-2.1-4.8-5.5-7C6.6,42,8.1,44.1,11.7,45.3z"/>
</svg>
