<?xml version="1.0" encoding="utf-8"?>
<!-- Generator: Adobe Illustrator 25.3.0, SVG Export Plug-In . SVG Version: 6.00 Build 0)  -->
<svg version="1.1" id="Layer_1" xmlns="http://www.w3.org/2000/svg" xmlns:xlink="http://www.w3.org/1999/xlink" x="0px" y="0px"
	 viewBox="0 0 93.5 229.2" style="enable-background:new 0 0 93.5 229.2;" xml:space="preserve">
<path d="M60.1,106.5c2.4-7.3,4.8-14.6,7.2-21.9c0.5-1.6-0.2-3-0.6-4.5c-1.7-6.7-0.2-13.2,2.2-19.4c1.5-3.9,4.9-4.2,8.2-2.2
	c2,1.2,4.2,2.4,5.5,4.3c2.9,4,5.9,8.1,7.5,12.6c1.7,4.7-1.9,8.1-5.8,10.3c-3.4,1.9-7.3,2.9-11.2,3c-2.5,0.1-3.8,0.9-4.6,3.4
	c-5.7,18.2-12,36.3-8.7,55.8c0,0,0.6,0.1,0.6,0c4.1-10.5,11.2-18.5,20.2-25.1c3.1-2.3,6.2-4.8,8.5-7.9c0.7-1,1.4-2.1,2.7-1.6
	c1.6,0.6,1.7,2,1.5,3.4c-0.9,5.4-2.3,10.7-4.6,15.6c-6.7,13.9-14.2,27.3-26,37.6c-2.7,2.3-3,5.2-3,8.4c0.5,16-0.6,31.9-1,47.8
	c0,1.1,0.2,2.4-1.6,3c-1.7-1.6-1.2-3.8-1.3-5.7c-0.4-11.9-0.7-23.7-0.8-35.6c0-3.2,0.2-5.3-4.3-5.6c-4.9-0.4-8-4.4-10.6-8.5
	c-2.5-3.9-4.3-8.3-7.6-11.7c-0.8-0.8-1.8-1.7-1.2-3c0.7-1.5,2.2-1.4,3.6-1.3c4.2,0.2,7.8,2.1,11.4,4.1c1.5,0.8,2.3,2.6,5,2.7
	c-1.3-3.5-2.4-6.8-3.8-9.9c-4.2-9.9-9.5-19.2-14.8-28.4c-1.8-3.2-3.5-4.8-7.8-3.6c-5.2,1.4-10.9,0.9-16.3,0.1
	c-8.2-1.2-10.7-6.1-7.2-13.6c0.8-1.7,1.3-3.3,1.1-5C2,99,8.6,100.6,9,97.9c0.7-4,1.2-6.7,6.1-6.6c2,0,3.9-1.6,6-1.9
	c7.8-1.1,15.5,4.9,16.6,13c0.7,4.9,0.4,9.8-2.7,14c-1.9,2.5-1.6,4.4,0.1,6.8c7.3,10.3,13.4,21.4,18.9,33.3c0.2-3.1,0.5-6.1,0.6-9.2
	c0.1-15.8,0.1-31.5,0.3-47.3C54.9,95,53,91.9,49,88.8c-12-9.4-20.3-21.4-22.5-36.9c-0.3-2.1-1.2-4.7,1.1-5.8c2.4-1.2,3.6,1.5,5.1,3
	c8.1,8.1,15.7,16.6,20.9,27.4c0-1.2,0.1-2.3,0-3.5c-0.1-1.4-0.4-2.7-0.5-4.1c-0.5-9.7-1.1-19.4-1.6-29.1c-0.1-3.2-0.4-5-4.5-5.8
	c-9.1-1.7-14.4-8.7-18.8-16.2c-1.9-3.2,0.3-5.4,2.9-6.6c3.8-1.8,6.8-3.8,8.8-7.8c2-4,7-4.4,11.1-1.2c2.8,2.2,5.1,2.5,8.5,1.2
	c6-2.3,8.7-0.5,9.7,5.8c0.3,1.7,0.3,3,2.2,4.3c4.1,2.7,4.5,6.8,1.3,11c-3.5,4.6-8.4,6.9-14,7.4c-3.1,0.3-4.4,1-4,4.6
	C57.1,59.7,59.8,82.9,60.1,106.5z M73.3,83.8c5.3,0.9,11.6-1.4,13.2-4.7c0.7-1.5,1-3.3-0.2-4.3c-1.6-1.3-2.1,0.8-3,1.6
	C80.4,79.4,77.6,82.6,73.3,83.8c0.1,0.2,0.2,0.3,0.3,0.4C73.5,84,73.4,83.9,73.3,83.8z M61.4,165.3c12.3-12.4,19.7-26.6,26.8-42.6
	C72.7,133.5,63.6,146.6,61.4,165.3z M46.4,4.9c-3.6,0.1-4.4,2.1-3.7,4.7c1.5,5.8,4.8,10.5,8.3,15.3c0.7,1,2,1.9,3,0.9
	c4.2-4.5,9.2-8.5,10.6-15c0.7-3.3-1.3-4.4-4.1-2.8c-4,2.3-7.4,1.4-10.7-1.2C48.6,5.9,47.3,5.4,46.4,4.9z M30.6,53.4
	c3.7,13.1,10.6,23,20.9,31.7C48.8,73.8,40.4,60.9,30.6,53.4z M26.2,116.9c-3.9-15.4-5.9-18.7-12.5-20.6
	C14.5,110.5,15.6,112.3,26.2,116.9z M18.5,118.2c-6.8-6.8-6.6-6.8-7.5-10c-0.6-1.9,0.9-5.5-2.7-5.3c-3.3,0.2-1.3,3.4-2.1,5.2
	C6,108.2,6,108.4,6,108.6c-2.2,8.6-2,8.9,7.1,9.5C14.6,118.3,16.2,118.2,18.5,118.2z M48.1,28.7c-1.6-2.2-3.2-4.4-4.7-6.7
	c-1.5-2.5-3.1-4.9-4.3-7.6c-1-2.1-2.2-2-3.6-1c-1.2,0.8-3.3,0.8-3.1,2.9C32.8,20.1,43.6,28.5,48.1,28.7z M39.3,162.8
	c2.2,8.2,8.5,14.8,15.2,15.4C51.4,170.8,46.6,165.8,39.3,162.8z M31.1,114.3c2.9-4.3,2.6-8.3,2-12.2c-0.4-2.6-2.7-2.4-4.6-2.1
	c-2.1,0.4-2,2-1.4,3.6C28.3,107,28.8,110.7,31.1,114.3z M58.8,27.7c5.5-1.5,9-3.2,11.3-6.9c0.8-1.3,1.1-3.1-0.4-4.1
	c-1.5-1-2.4,0.4-3.2,1.4C64.2,21,62,23.8,58.8,27.7z M70.5,75.5c2.4-4,4.1-6.9,5.9-9.7c1.2-1.9,1.1-3.2-1-4.1c-2-0.8-3,0.4-3.4,2
	C71.1,67.1,70.5,70.6,70.5,75.5z M73.5,79c4.6-2.4,7.1-4.9,8.4-8.5c0.5-1.3,0.5-2.9-0.8-3.7c-1.9-1.1-2.2,0.9-2.7,1.9
	C76.8,71.8,75.4,74.9,73.5,79z M29.8,95c-3.6-2.9-6.6-2.3-10.1-1.6C22.4,97.7,25.6,96.9,29.8,95z"/>
</svg>
