<?xml version="1.0" encoding="utf-8"?>
<!-- Generator: Adobe Illustrator 25.3.0, SVG Export Plug-In . SVG Version: 6.00 Build 0)  -->
<svg version="1.1" id="Layer_1" xmlns="http://www.w3.org/2000/svg" xmlns:xlink="http://www.w3.org/1999/xlink" x="0px" y="0px"
	 viewBox="0 0 102.6 224.1" style="enable-background:new 0 0 102.6 224.1;" xml:space="preserve">
<path d="M51.7,142.6c-2,12.1-1.3,24.1-1.3,36.6c2.9-1.3,3.1-3.7,3.5-6c1.3-6.4,2.6-12.9,6.7-18.3c6.3-8.3,19.2-9.3,26.2-2
	c12.3,14.6-3.4,28.7-19.3,25.6c-1.5-0.2-3-0.1-4.4-0.5c-6-1.6-9.1,2.3-12.1,6.3c-0.9,1.2-0.6,2.6-0.5,3.9
	c0.6,11.1,1.1,22.2,1.7,33.3c0.6,3-3.1,3.6-3.1,0.4c0.4-30.8-25.9-17-42-32.7C2.7,185-0.1,180,0,173.6c1.3-17.4,17.8-16.7,29.2-8.5
	c9,8.8,13.7,19.7,14.3,32.1c0.2,3.2,1.5,5,4,6.6c-0.4-9,1-17.3-0.7-25.9c1.3-1.5,0.5-3.3,0.5-5c-0.3-11,3.8-25.3-9.5-30.3
	c-6.6-1.7-13.2-3.7-17.8-9.3c-5.5-6.2-7.5-17,0.5-21.7c11.4-7.5,23,5.9,23.2,17.1c0.4,2.9,0.4,5.9,0.3,8.8c-0.3,4.5-0.2,4.5,3.4,8.4
	c1.6-15.9,1.5-31.5,3.9-47.3c0.4-3.3-4.8-9.5-8.1-10c-6.4-0.9-12.8-1.8-17.8-6.5c-5.2-4.8-6.1-12.1-2.4-17.4c8.4-12,27.3-3,27,10.7
	c0.3,3.7,0.3,7.5-0.3,11.2c-0.2,1.7,0,2.9,1.6,4c1.6-2.2,1.2-4.9,1.5-7.2c1.8-14.9,4.4-29.7,7.1-44.4c1-5.2-2.7-9.8-7.9-10
	C41.9,30.5,27.5,19.6,36,10c4.2-4.5,12.6-4.3,17,0.4c8.3,7.7,2.2,16.2,8,20.2c2.4-3,1.4-5.9,0-8.9c-4-7.8-1.9-21.5,8.8-21.6
	c4.6-0.1,7.2,2.1,7.8,6.8c1,7.9-2.9,13.4-8.9,17.7c-2,1.4-3.1,3-3.5,5.4c-1.8,9.3-3.9,18.6-5.2,28.4c11.9-5.8,9.1-17.9,23.4-22.4
	c12.5-4.5,26.5,9,14.4,19.8c-7.8,6.6-18.1,6.8-27.4,4.2c-1.8-0.4-3.4-2.5-5.5-0.8c-2.9,2.2-6.1,4.2-6.6,8.2
	c-2,16.8-4.9,33.5-5.6,50.4c6.1-1.7,1.9-9.2,6-12.6c7.2-6.8,15.4-11.9,25.8-11c9.6,0.8,13.7,10.6,8,18.4c-4.8,6.9-12.6,7.7-20.1,9.3
	c-4-1.1-8.2-0.7-12.2-2c-3.4-1.1-7.2,0.5-7.7,3.9C51.6,129.9,51,136.2,51.7,142.6z M17.1,177.1c0-1.9-3.3-2.4-1.5-4.3
	c1.8-1.6,2.8,1.2,4.6,1.2c1.2,2.4,3,4.1,5.5,5.4c0.1-0.9,0-1.4,0.2-1.9c0.5-1.4-2-4,0.9-4.2c2.3-0.1,1.7,2.8,2.2,4.5
	c-1.8,5.3,1.2,7.3,4.9,10.9c0-2.8-2.3-6.8,0.7-7.4c1-0.1,1.4,0.8,1.5,1.6c1.6,4.4-0.6,9.4,3.8,12.4c-0.7-9.7-3.7-17.8-9.8-24.6
	c-1.1-1.2-2-3-4.2-2.5c-2.1-4-6-5-9.9-5.5c-17.3-1.4-15.7,18.5-4.4,25.9c7.1,5.5,15.8,6.6,24.5,8.6c-1.2-2.9-3.3-4.6-5.2-6.5
	c-1.5-1.5-3.3,0.3-5,0c-1.6-0.4-5-0.3-4.4-2.8c0.3-1.2,1.3-1.1,2.3-0.8c1.1,0.3,2.3,0.6,3.3-0.4c-4-6.4-6.1-5.1-12.2-5.5
	c-1.9-0.2-3.7-1.1-3.2-3.1c0.8-2.7,2.8,0.3,4.4-0.2C17.4,180.1,19.7,177.2,17.1,177.1z M60.4,174.6c10.2,1.4,27.3,3.3,27.3-10.4
	c-0.3-6.6-4-11.7-9.1-12.7c-12.2-2.4-20.6,9.3-21,20.4c1.9-0.4,2.9-1.3,2.9-3.2c0-2.3,0.9-4.5,1.8-6.5c0.4-0.9,1.2-1.5,2.3-1.1
	c2.5,1.2-0.7,3.6-0.1,5.6c7.7-2.1,7-13.1,10.7-11.2c2.7,1.4-1.1,3.2-0.1,4.7c1.8-0.6,4.7-3,6.1-0.8c0.7,1.4-0.7,1.8-1.6,2.2
	c-3.1,1.6-6.3,2.9-9.2,5.6c2,0.5,4.6-1.1,5.1,1.4c0.2,1.6-1.3,1.4-2.2,1.8C66.4,172,67.6,167.2,60.4,174.6z M60.2,116.2
	c43.4,10,38.8-35,6.8-13.3c1.4,0.3,2.7,0.5,2.4,2.3c-0.2,1.1-2,1.1-2,2.6c7,0.2,10.3-8.3,14.1-7.7c2.5,0.9-1,3.6,1,3.7
	c1.2,0.1,1.8,0.8,1.6,1.8c-0.4,2.5-7.4,1.6-9.7,3.5c0.7,0.8,2.4,0.6,1.9,2.2c-0.6,1.6-3.3,1.8-4.6,1.4
	C67.2,110.4,64.4,113.7,60.2,116.2z M40.6,136.6c0.7-10.6-4.1-29-17.7-22.8c-4.5,2.2-5.6,7.3-3.1,13.3c3.3,7.9,10.6,9.8,18,12.5
	c-3.4-6.4-3.5-6.5-9.1-8c-1.5-0.5-3.5-1.5-3.8-3.1c0.4-1.8,4.6-1.2,3-4.5c2.3-1.9,5.8,4.2,7.4,5.6c0.8-0.9,0.5-1.5,0.5-2.2
	c-0.5-2.8,3.2-3,3.2-0.2C40.1,130.6,36.9,134.1,40.6,136.6z M70.5,56.1c10.1,4.8,31.4,1.8,28.1-12.7c-1.3-3.9-4.3-4.8-7.9-4.9
	C82.5,37.6,73,44,72.5,52.2c1-2.8,6.1-9.5,8.6-6.4c1.8,2.5-2.1,1.8-2.7,3.7c2.7-0.1,12.5-3.9,13.2-0.8c0.2,1.2-0.7,1.9-2,2.1
	c-0.6,0.1-1.4-0.2-2,0.7c1.2-0.1,2,0.2,2,1.5c-0.7,3-5.1,1.5-6.9,0.4C79.6,51,74,54.6,70.5,56.1z M41.9,78.9
	c1.8-1.9-1.3-5.4,1.6-6.1c1.8-0.2,1.8,1.5,1.9,2.9c0.2,2,0.2,4-0.4,6c-0.4,1.6,0.1,2.1,1.7,2.3c1.2-8.5-0.5-19.5-10.4-21.2
	c-4.3-0.9-9,1-11.3,4.4c-2.2,3.2-1.8,7,1.2,11.1c3.9,5.4,9.8,6.3,16.2,7.1c-4.7-7.5-5.7-2.8-11-5.2c-2.5-1.3-1.3-4.9,1.4-3
	c0.6,0.4,1.4,0.9,2.2,0.3c0.2-0.7-0.3-1-0.6-1.4c-4.1-4.4-4.1-4.4,1.1-6C40.8,68.9,34.8,74.8,41.9,78.9z M54.6,23.1
	c0.2-17-19.5-15.7-17.8-6.6c1.2,4.1,3.3,7.5,8.2,8.4c-0.4-1.1-1.6-1.7-0.9-2.9c1-1.8,2.5-0.1,3.9-0.5c-1.4-1.5-3.1-2.6-3.5-4.1
	c-0.7-2.8,2.8-0.6,3.4-2.4c0.2-0.8,1-1.4,1.9-0.8C52.8,16.9,47.5,18,54.6,23.1z M67.4,21.6c5.2-3.9,10.9-13.4,5.2-17.8
	c-2.1-1.1-4.4-1.1-6.5,0.4c-4.2,3-5.2,10.8-1.9,14.9c0.9-1.5,0.6-6.1,3-5.4c1.3,0.7,3.2-0.4,3.9,1.4C71.8,18.4,66.9,17.9,67.4,21.6z
	 M60.8,112c1.4-2.5,2.8-5,4.4-8.1C61.6,105.8,60.2,108.4,60.8,112z M52.3,25.7c-1.8-2.3-3.1-0.8-4.5-0.3
	C49.1,25.7,50.4,26.5,52.3,25.7z"/>
</svg>
