<?xml version="1.0" encoding="utf-8"?>
<!-- Generator: Adobe Illustrator 25.3.0, SVG Export Plug-In . SVG Version: 6.00 Build 0)  -->
<svg version="1.1" id="Layer_1" xmlns="http://www.w3.org/2000/svg" xmlns:xlink="http://www.w3.org/1999/xlink" x="0px" y="0px"
	 viewBox="0 0 129.4 252.7" style="enable-background:new 0 0 129.4 252.7;" xml:space="preserve">
<path d="M68.5,144.5c4.7-20.9,9.7-41.6,22.1-59.8c-6.3,0.4-8.7-1-9.6-5.4c-0.8-4.1,1.2-5.7,10.1-8.3c0.1-1.3-1.1-1.6-1.7-2.4
	c-4.8-5.7-2.5-13.5,4.7-15.5c3.7-1,5.8,0,7.1,3.7c0.4,1.1,0.8,2.2,1.2,3.3c1.7-0.7,2.2-2.3,3.2-3.5c2.4-2.8,5-3.2,8-1.3
	c2.5,1.6,4.2,4.1,5.5,6.8c1.1,2.4-0.2,4.2-2.1,5.7c-1.1,0.8-2.3,1.5-3.6,2.3c3.4,2.7,5,6.1,4.2,10.5c-0.8,4.4-3.6,5.8-7.5,3.6
	c-1.2-0.6-2.1-1.7-3.7-1.9c-0.7,1.2-0.1,2.4-0.1,3.6c0,3.7-1.6,6.4-5,8.1c-2.8,1.4-4.5,0.7-5.5-2.3c-0.9-2.6-0.3-5.2-0.4-7.8
	c-3.2,1.8-10.3,13.4-12.4,20.8c1.4-0.9,2.4-1.5,3.4-2.1c3.4-2.1,6.9-4.1,10.8-4.9c2.3-0.5,4.4,0,5.4,2.1c1.2,2.3-1,3.4-2.5,4.4
	c-5.1,3.3-10.8,5.1-16.9,5.6c-2.1,0.2-3.1,1-3.7,3c-2.3,6.8-4.2,13.6-5.8,20.6c-0.2,0.7-0.2,1.4-0.3,3c2-2.1,3.5-3.7,5-5.2
	c2.1-2.1,4.4-4,7.3-4.8c2.5-0.7,5-0.6,6.3,2c1.2,2.4-0.6,4-2.2,5.3c-4.3,3.6-9.3,6.1-14.4,8.2c-2.8,1.1-4.1,2.7-4.7,5.8
	c-2.6,13.5-3.9,27.2-5.3,40.8c-0.1,0.6,0,1.2,0,2.6c1.7-2.2,3-4,4.4-5.7c1.8-2.4,3.9-4.7,6.5-6.4c1.2-0.8,2.5-1.5,4.1-1.6
	c1.4-0.1,2.8,0.2,3.6,1.5c0.8,1.3,0.4,2.6-0.4,3.8c-1.8,2.6-4.3,4.6-6.8,6.5c-3.4,2.5-6.9,4.8-10.4,7c-1.4,0.9-2,1.8-2.2,3.5
	c-1.8,13.2-4,26.3-6.8,39.3c-0.1,0.6-0.2,1.2-0.4,1.8c-0.3,0.9-0.2,2.5-1.7,2.1c-1.5-0.4-0.8-1.8-0.5-2.7c5.4-19,4.6-38.4,3.1-57.8
	c-0.1-2-0.8-3.2-2.7-4.1c-4.2-1.9-8.2-4.2-11.9-7c-1.3-0.9-2.5-1.9-3.6-3.1c-1.6-1.7-3.1-3.7-1.4-6.1c1.7-2.4,4.3-2.5,6.8-1.3
	c3.8,1.7,6.2,4.9,8.7,8c0.8,1,1.5,2,2.3,3.1c0.8-0.8,0.5-1.6,0.4-2.4c-1.6-11.6-3.8-23.2-6.8-34.5c-0.5-2.1-1.4-3-3.6-3.5
	c-6.4-1.5-11.4-5.3-15-10.7c-1.3-2-2.4-4.3-0.4-6.3c2.1-2.2,4.5-1,6.6,0.4c3.3,2.1,5.5,5.3,8.5,7.9c-3.4-10.8-7.7-21.1-13.4-31.6
	c-0.8,2.4-1.1,4.4-2.8,5.4c-1.6,1-3.5,0.8-5.2,0.5c-3.3-0.6-5.1-2.8-4.7-6.3c0.2-1.9,0.1-2.6-2.1-2.2c-3.4,0.6-5.7-0.6-6.7-3.3
	c-1.1-3.1,0.3-5.3,2.7-7c0.9-0.6,1.8-0.8,1-2.3c-1.7-3.6-1.2-6.5,0.9-8.3c2-1.7,5.7-1.5,8.8,0.5c0.7,0.5,1.3,1,2,1.5
	c1.2-1.8,1.9-3.7,3.7-4.8c2.6-1.6,6-1.6,8.3,0.2c2.6,2,3.7,5.7,2.2,9.1c-0.9,2.1-1,3,1.6,3.6c2.4,0.5,3.1,2.6,2.8,4.9
	c-0.6,4.1-3.9,6.9-8.1,7c-0.7,0-1.4,0-2.6,0c3.2,6.2,6.2,12.2,9.3,18.4c0.2-2.2,0.4-4.4,0.6-6.6c0.3-3.1,0.7-6.3,2-9.2
	c1-2.2,2.4-4.2,5.2-3.6c2.9,0.6,2.8,3.1,2.5,5.3c-0.6,5.7-2.8,11-5.5,16c-2.1,3.8-2.2,7.2-0.6,11.2c2.7,6.9,4.5,14.1,6.9,21.3
	c0.2-1.2,0.3-2.3,0.5-3.5c0.5-2.1,0.9-4.3,1.6-6.4c0.5-1.5,1.4-3,3.4-2.7c1.9,0.2,2.5,1.8,2.9,3.3c0.4,1.7,0.4,3.4,0.1,5
	c-0.9,5.5-2.2,10.9-5.5,15.6c-0.8,1.1-0.7,2.1-0.5,3.3c2.7,14.8,3.9,29.7,4.5,44.7c1.2-4.3,1.4-8.7,1.9-13.1c2-18,3.3-36.1,3-54.3
	c0-2.2-0.6-3.8-2.2-5.3c-3.2-3.1-6.2-6.3-8.3-10.2c-0.9-1.6-1.8-3.4-0.1-4.9c1.8-1.6,3.7-0.8,5.4,0.5c1.8,1.3,2.7,3.4,4.5,5.7
	c0.1-7.4-0.9-13.9-1.6-20.4c-0.1-1-0.3-2.1-0.4-3.1c-0.5-4.8-0.9-9.1-6.6-11.4c-4.3-1.7-7.3-5.8-9.4-10.2c-0.8-1.6-1.5-3.6,0.3-4.9
	c1.9-1.4,3.6-0.2,5.1,1c2.8,2.3,4.7,5.5,7.3,8.1C57.3,66.3,53.5,53.9,48,42.1c-1.2,0.2-1.1,1-1.4,1.5c-2.3,4.1-6.8,5.8-11.3,4.2
	c-4-1.4-5.2-4-3.3-7.8c0.8-1.7,0.8-2.4-1.2-2.6c-1.5-0.1-2.8-0.7-4.1-1.6c-3.5-2.4-4.8-6.3-3.4-9.9C25,22.2,28.9,20,33,21
	c2.4,0.6,3.3,0.3,2.9-2.3c-0.1-0.9,0.1-1.9,0.4-2.8c1-3.7,3.4-5.9,6.4-5.9c3.1,0,5.9,2.3,7.1,5.7c0.2,0.5,0.3,1,0.5,1.5
	c5-2.1,8.2-1.7,10.2,1.2c2.1,3.1,1.3,5.5-3.7,10.6c5.7,4.2,6.7,6.4,4.5,10.5c-2.3,4.2-4.5,4.9-10.5,2.7c2.6,6.5,5.1,12.7,7.6,19
	c0.6-2.8,1.1-5.7,1.8-8.5c0.4-1.7,1.1-3.4,2.2-4.8c1.2-1.7,2.8-2.6,4.9-1.8c2,0.7,3,2.2,3,4.3c0,2.5-0.8,4.7-1.7,7
	c-1.7,3.9-4.1,7.6-6.5,11.1c-0.7,1-1.5,2-1.2,3.4c2.5,10.5,4.3,21.1,5.7,32.5c1.2-3.6,2.2-6.5,3.3-9.3c0.6-1.6,1.5-3.3,3.6-2.8
	c1.9,0.5,2.4,2.3,2.4,4c0,6.5-2.5,12-6.7,16.8c-0.9,1.1-1.8,2-1.7,3.5C68,126,68.3,135.2,68.5,144.5z M33,35.2
	c2.1-0.2,4.9-0.2,6.3-2.7c1.2-2.3-1.7-7.2-4.9-8.7c-3.3-1.5-6.8-0.5-8.5,2.4C23.7,30.3,27.3,35.2,33,35.2z M117.4,63.4
	c-0.7-2.7-2.8-4.4-5-6c-2.7-1.9-4.2-1.5-5.9,1.3c-1.2,2.1-2.5,4.1-3.6,6.2c-0.4,0.9-1.6,2-0.6,2.8c1.1,0.9,2.2,2.4,4,1.9
	c3.3-0.9,6.6-2,9.6-3.8C116.7,65.4,117.3,64.7,117.4,63.4z M99.8,62.6c-0.1-1-0.1-2.1-0.2-3.2c-0.7-4.2-3.4-5.4-7-3
	c-4.7,3.1-4.5,8.6,0.3,12.3c3,2.3,6.1,1.1,6.7-2.7C99.7,64.9,99.7,63.8,99.8,62.6z M47.6,17.5c0-2.7-1.4-4.3-3.9-4.9
	c-2.7-0.6-4,1.1-4.9,3.3c-1.2,3-0.6,6,0.7,8.8c0.4,0.8,0.7,2.3,1.7,1.9c1.6-0.7,3.8,0.2,4.7-1.8C46.8,22.4,47.6,20,47.6,17.5z
	 M38.6,46c4.7-0.1,7.9-4.4,6.9-8.8c-0.3-1.1-0.9-1.5-1.9-1.8c-3.8-1.4-5.8,1.5-8,3.6c-1.2,1.2-2.7,2.7-1.9,4.6
	C34.6,45.7,36.8,45.8,38.6,46z M38.3,71c0-3.1-1.8-5.1-4.7-5.1c-3,0-5.3,2.4-5.4,5.7c-0.1,2.9,1.9,6.5,3.7,6.6
	C34.6,78.3,38.3,74.1,38.3,71z M51.4,30.9c-2.7-0.5-3.2,1.8-3.6,3.5c-0.4,1.7,5.8,6.9,7.9,6.9c1.9,0,4.4-2.9,4.4-5.3
	C60.1,33.1,56.5,31,51.4,30.9z M87.4,82.6c3.6-0.4,6.5-2.2,8.7-5.2c1-1.4-0.3-4-1.9-4c-3.1-0.1-6.3,0.3-9.1,1.8
	c-1.7,0.9-2.2,2.4-1.7,4.2C84,81.4,85.2,82.5,87.4,82.6z M115.5,78.8c0.1-4.4-2.5-7.2-6.8-7.4c-0.9,0-1.9-0.2-2.6,0.8
	c-2.2,3.3-1.7,5.7,1.6,7.9c0.9,0.6,2,1.1,3,1.6C114.3,83.4,115.4,82.7,115.5,78.8z M49.9,28.6c3.1-0.4,5.7-1.6,7.8-3.7
	c1.7-1.7,2.3-3.6,0.5-5.5c-1.8-1.9-4-1.9-5.9-0.3c-2.2,1.8-3.6,4.3-4.5,7C47.4,27.8,48.2,28.6,49.9,28.6z M97.4,87.3
	c0.5,1.8-0.3,4,1.8,4.6c1.9,0.6,3.1-0.9,4.1-2.3c1.7-2.4,0.9-9.2-1.1-11c-1.3-1.1-3.1-0.5-3.5,1.3C98.1,82.5,97.8,85,97.4,87.3z
	 M18.7,68.5c-1.4-0.1-2.5,0.6-3,2c-0.6,1.7-0.5,3.4,0.9,4.6c1.8,1.5,4,2.3,6.2,3c1.3,0.4,3.8-1.7,3.7-2.9
	C26.2,72.4,21.8,68.6,18.7,68.5z M54.7,174.6c-1.1-1.7-2.2-3.4-3.5-5c-2-2.7-4.2-5.2-7.2-6.8c-1.4-0.7-2.9-1-4,0.5
	c-1,1.4,0.2,2.4,1,3.2C44.8,170.3,49.5,172.7,54.7,174.6z M36.7,87.3c2.5-0.2,4.2-1.7,5.1-4.2c0.4-1.1,0.6-2.2-0.6-3.1
	c-1.9-1.4-8.3-0.4-9.5,1.6c-0.5,0.8-1.5,1.7-0.5,2.8C32.6,86.1,34.3,87.2,36.7,87.3z M45.6,128.9c0.2-0.2,0.4-0.5,0.6-0.7
	c-1.8-2.2-3.6-4.5-5.5-6.7c-1.7-2.1-3.7-4-6-5.4c-0.8-0.5-1.8-0.8-2.6-0.2c-0.9,0.8-0.5,1.8,0,2.6C35.2,123.8,39.8,127.1,45.6,128.9
	z M29.2,90.3c0-4.2-1-6.1-3.3-6c-1.7,0.1-4.5,4.2-4.5,6.9c0,2.8,2,3.4,4.3,3.5C28.8,94.9,29.2,92.7,29.2,90.3z M61.1,65.1
	c2.9-3.9,5.6-7.9,6.7-12.8c0.4-1.6,0.6-3.4-1.4-3.9c-1.8-0.5-2.5,1.1-3.1,2.5C61.5,55.4,60.9,60.1,61.1,65.1z M74.9,138.8
	c4.8-1.8,9.4-4,13.3-7.2c0.8-0.6,1.9-1.4,1.4-2.6c-0.6-1.3-2-1-3.1-0.8c-0.7,0.1-1.4,0.4-2,0.8C80.4,131.4,77.4,134.9,74.9,138.8z
	 M15.8,86.2c2.7-0.1,5-1.2,6.9-3.1c0.9-0.9,1.1-1.9-0.3-2.5c-2.4-1.1-5-1.5-7.6-0.7c-1.8,0.5-2.8,1.9-2.5,3.8
	C12.7,85.6,14.1,86.2,15.8,86.2z M45.9,107.8c2.4-4.3,4.2-8.8,5.1-13.7c0.2-1.2,0.7-2.8-0.9-3.2c-1.5-0.4-2.1,1.2-2.5,2.3
	C45.8,97.9,45.6,102.8,45.9,107.8z M68.7,191.6c1.9-1.3,3.8-2.5,5.6-3.9c2.5-1.8,4.9-3.6,6.8-6c0.4-0.5,0.9-1,0.5-1.7
	c-0.4-0.8-1.3-0.8-1.9-0.5c-1,0.4-2.1,0.9-3,1.6C73.2,183.9,70.6,187.4,68.7,191.6z M84.5,106.9c4.8-0.4,9.2-1.8,13.3-4.1
	c0.9-0.5,2.6-0.9,2-2.3c-0.5-1.2-2.1-0.7-3.1-0.4C92.1,101.3,88.2,103.9,84.5,106.9z M56.7,148.9c2.5-4.5,3.9-9.3,3.7-14.4
	c0-0.8-0.1-1.9-1.1-2c-0.8,0-1,1-1.2,1.6C56.7,139,56.4,143.9,56.7,148.9z M59.8,84.1c-3.4-4.7-5.9-9.4-10.5-12.5
	C49,75.6,54.4,82.1,59.8,84.1z M68.7,109.4c3.1-4.2,5.3-8.5,4.1-13.9C70,99.6,69.3,104.5,68.7,109.4z M64.1,125.6
	c-0.8-3.5-2-6.8-4.8-9.2c-0.6-0.6-1.4-1.2-2.2-0.5c-0.7,0.6-0.1,1.4,0.3,2C59.2,120.8,61.3,123.4,64.1,125.6z"/>
</svg>
