<?xml version="1.0" encoding="utf-8"?>
<!-- Generator: Adobe Illustrator 25.3.0, SVG Export Plug-In . SVG Version: 6.00 Build 0)  -->
<svg version="1.1" id="Layer_1" xmlns="http://www.w3.org/2000/svg" xmlns:xlink="http://www.w3.org/1999/xlink" x="0px" y="0px"
	 viewBox="0 0 50.4 219.2" style="enable-background:new 0 0 50.4 219.2;" xml:space="preserve">
<path d="M23.3,105.1c0.3-4.9-0.8-9.7-1-14.6c-0.1-2.6-5.6-7-8.4-7.2C9.4,83,5.4,82,3.1,77.6c-2-3.7-1.1-8.3,2.1-10.2
	c3.3-2,7.5-0.7,9.8,3.1c1.5,2.5,2.5,5.2,2.9,8.1c0.4,2.3,1,4.5,3.7,5.7c0.5-1.6-0.1-3-0.2-4.4c-0.3-3.9-0.9-7.9-0.8-11.8
	c0.2-4.3-3.2-6.6-6.5-7.1c-4.1-0.6-7.5-2.4-9.5-6.2c-1.9-3.5-0.8-7.5,2.8-9.6c2.9-1.7,6.4-0.3,8.4,3.2c1.7,2.9,2.1,6.1,2.6,9.3
	c0.1,0.7-0.1,1.7,1.2,2.2c-0.4-5.7-0.1-11.4-1.6-16.6c-0.8-2.9-3.5-6.1-7.3-7.1C6.5,35.2,3,33,1,29c-2-4-1-7.5,2.4-9.3
	c3.6-1.9,7.8-0.6,9.8,3.1c1.8,3.4,2.3,7,2.2,10.8c-0.1,1.7,0.1,3,2.3,3.8c-0.4-5.8-0.7-11.4-1.1-17c-0.1-1.1-1.2-1.7-1.8-2.5
	C12,13.6,9.4,9.3,11.7,4c0.9-2,2.1-3.8,4.4-3.9c2.3-0.2,3.9,1.2,5.1,3.1c3.2,5.2,2.1,10.2-0.7,15.1c-1.7,3.1-1.8,4.8-0.4,8.5
	c1.9-1.3,2.6-3,2.6-5.3c0-3.8,1.1-7.3,3.4-10.4c1.7-2.4,4.1-4,7.1-3.6c3.2,0.5,4.5,2.9,5.2,5.8c1.2,5-0.8,9.4-5.5,11.4
	c-1.8,0.8-3.7,1.2-5.7,1.5c-4.9,0.8-7.1,3.8-6.7,8.7c0.4,4.6,0.7,9.3,1,14.2c2.2-1.3,2.8-3,2.2-5.2c-0.5-2.1-0.7-4.1-0.3-6.2
	c0.6-3.8,2.8-6.3,6-6.8c2.9-0.5,5.5,0.7,6.8,3.1c1.8,3.3,1.4,6.7-1.3,9.6c-1.8,2-4.1,3.3-6.8,4c-3.5,1-6.4,4.8-6,8.2
	c0.5,5,0.4,10,1.5,15.1c1.9-1.8,2.7-3.6,2.2-6.2c-0.4-2-0.3-4.2-0.5-6.2c-0.3-3.6,1.9-5.6,4.7-7c2.3-1.1,4.8-1.2,6.8,0.7
	c2.4,2.2,2.9,4.8,2.2,7.9c-1,4.5-3.4,7.5-8,8.7c-3.6,1-7.1,5.6-6.9,9.3c0.3,5.9,0.9,11.8,1.4,18.1c2.4-1.7,2.6-3.8,2.5-6
	c-0.2-2.8-0.4-5.6,0.2-8.3c1.2-5.9,6.5-8.1,11.3-4.7c2.8,2,3,8.7,0.3,11.8c-1.3,1.5-2.8,2.7-4.6,3.6c-4.2,0.6-7,3.8-6.9,7.5
	c-1.8,1.3-2.3,3-2.1,5.1c0.7,5.9,1.2,11.7,1.9,18.1c2-2.5,3-4.6,2.5-7.6c-0.6-3.4,0-7,1.9-10.1c2.4-4,7-4.5,10.4-1.3
	c4.4,4.2,4.3,11.8-2.3,14.2c-0.9,0.3-1.7,0.9-2.6,1c-5.3,0.5-6.7,5.1-9.2,8.5c-0.3,0.4-0.5,1.1-0.5,1.6c0.4,6.1,0.8,12.2,1.3,18.7
	c2.7-1.6,3.7-3.7,3.5-6.2c-0.1-2.9,0.6-5.6,1.8-8.1c1.4-2.9,3.8-4.7,7.1-4.7c3.3,0,7.1,2.8,8.1,5.7c0.7,2.1,0.1,3.8-1.3,5.4
	c-3.1,3.5-7.2,5-11.5,6.2c-3.1,0.8-8.1,5.4-8.2,8.4c-0.2,7.2-0.6,14.3-1,22.1c2.8-2.2,5.1-3.8,5-7.4c0-2.5,1.1-5,2.4-7.2
	c1.9-3.2,3.8-4.1,7.2-3.5c3.1,0.5,5,2.2,5.8,5.2c0.8,3.2-0.2,6.1-2.9,7.9c-2.2,1.5-4.7,2.3-7.5,2.6c-4.9,0.4-10.3,5.3-11,10.3
	c-0.9,6.3-1.5,12.6-2.1,19c2.9-2.9,6.5-5.1,6.6-10.2c0.2-6.6,4.3-11.3,9.6-12.6c3-0.7,6.2,0.3,7.8,2.6c1.5,2,1.2,5.2-0.5,7.8
	c-2.8,4.2-7.1,5.8-11.8,6.6c-2.3,0.4-3.9,1.2-5.1,3.1c-0.7,1.1-1.7,2.3-2.8,3c-4.1,2.6-5.4,6.5-5.8,11.1c-0.1,1.3,0.2,3.8-1.6,3.6
	c-2.2-0.2-1.2-2.6-1-4c0.5-5.5,1.4-11,2-16.6c0.4-4.3-3.7-11-7.7-12.5c-3-1.2-5.4-3.2-7.4-5.6C5.2,177.6,5,174,7,171.8
	c2.1-2.3,6-2.6,9-0.7c4,2.6,6.1,6.4,5.1,11c-0.8,3.7,0.5,6.2,2.7,9.8c0.6-6.8,0.9-12.8,1.7-18.8c0.5-3.8-0.6-6.7-2.8-9.6
	c-1.4-2-2.8-3.2-5.5-3.6c-3.8-0.6-6.7-3.1-8.4-6.7c-1.6-3.4-0.4-6.8,2.9-8.5c3.4-1.8,7.4-1,9.3,2c1.8,2.8,2,6,1.6,9.1
	c-0.4,2.9,0.8,4.8,3.1,7c0.5-6.1,0.1-11.7,0.3-17.3c0.1-3.8-0.6-6.9-3.5-9.7c-1.4-1.3-2.4-1.9-4.3-1.9c-7,0-12-6.2-10-12.2
	c1.5-4.5,7.9-5.8,11.2-2.2c2.8,3.1,3.3,7.1,3.8,11c0.2,1.6,0.6,2.9,2.2,4.1c0.1-4.2-0.1-8.1-0.5-11.9c-0.1-1.2-0.3-2.3-0.3-3.5
	c-0.4-5.7-3.3-8.5-8.9-9.3c-4.4-0.6-8.7-1.9-10.9-6.5c-2-4,0.1-7.8,4.5-8.5c4.5-0.7,7.8,1.8,9.7,6.6c0.7,1.8-0.2,4.3,2.1,5.6
	c-0.5,2.1,1.4,2.2,2.4,3.3C24,107.4,24,107.4,23.3,105.1z M41.4,194.1c1.9-0.4,2.8-1.6,3.8-2.7c1.5-1.7,3.5-3.7,1.9-6
	c-1.6-2.2-4.3-1.9-6.7-1c-1.6,0.6-2.9,1.6-3.4,3.5C40.6,188.2,41.1,188.9,41.4,194.1z M26.4,16.2c1.5,0.1,3-0.3,4.3,0.8
	c1.4,1.1,1,2.8,1.4,4.3c3.5-1.7,4.7-4.3,3.6-7.9c-1.1-3.6-3.8-4.2-6.5-1.5C28,13.1,26.9,14.4,26.4,16.2z M8.5,79
	c-0.1-2.4-0.9-5.3,2.2-6.2c3.1-0.9,1.6-1.7,0.3-2.7c-2.3-1.8-4.7-1-5.8,1.7C4.1,74.6,5,76.7,8.5,79z M37.8,164.3
	c3.7,1.3,4,1.7,4.5,6.8c1.9-1.5,4.1-2.5,4-5.3c-0.1-1.8-1.3-3-2.9-3.5C41.2,161.5,39.3,162,37.8,164.3z M37.9,134.8
	c2,0,3.5,0.4,4.7,1.5c1.3,1.3,1,3.1,1,4.9c2.1-1.2,4.3-1.9,3.9-4.6c-0.3-2-1.7-3.3-3.6-3.8C41.7,132.3,39.6,132,37.9,134.8z
	 M31.2,82.6c4-1,5.6,1.3,6,5.2c1.8-2.8,2.7-5.1,0.9-7.6c-0.9-1.3-2-2.6-3.6-2.2C32.5,78.6,31.4,80.2,31.2,82.6z M40.8,115
	c2.7-1.6,2.7-3.9,1.9-6.3c-0.7-2.1-3.6-4.2-5.3-3.8c-1.9,0.5-2.6,1.9-2.8,3.8C39.4,108.1,40.7,109.6,40.8,115z M34.9,62.7
	c1.9-2.8,2.2-5.9,0.9-7.6c-0.9-1.2-2.2-1.6-3.7-1.3c-1.8,0.3-2.9,1.7-3.3,4.3C32.9,56.9,34.3,58,34.9,62.7z M19.8,150.6
	c-0.8-2.6-2.1-4.2-4.5-4.2c-1.9,0-3.3,1.2-4,2.9c-0.9,2.2,0.4,3.6,1.9,5.1C15,149.5,15.9,149,19.8,150.6z M17.4,176.1
	c-4.1-3.8-6.3-4.4-8.1-2.6c-1.9,1.9-1.4,3.8,1.9,6.7C12,177.5,13.1,175.1,17.4,176.1z M11.4,25.6c-0.8-2.6-2.2-4.1-4.5-4.1
	c-1.4,0-3.1,0.5-3.6,2.2C2.7,26,3.1,28,5,29.7C6.2,24.7,6.9,24.2,11.4,25.6z M18.6,123.8c-0.4-2.5-1.8-3.4-3.8-3.6
	c-1.5-0.2-2.8,0.4-3.5,1.7c-0.9,1.8-1,3.6,0.7,5.7C12.7,123.5,15.4,123.1,18.6,123.8z M20.3,9.9c0.5-1.6,0.1-2.9-0.7-4.1
	c-0.9-1.4-1.9-2.5-3.6-1.8c-1.6,0.6-2.2,1.9-2.2,3.6c0,1,0,2,1.5,1.4C17.1,8.1,18.7,8.6,20.3,9.9z M13.5,50.3
	c-0.5-1.9-1.5-3.2-3.1-3.1c-1.6,0.1-3.1,1.1-3.6,2.8c-0.6,1.9-0.3,3.6,1.7,5C9,52.3,9.9,49.9,13.5,50.3z M14.7,99.4
	c-3.6-2.4-6-2.4-7.3-0.4c-1.2,1.7-0.3,3.6,2.7,5.6C9.9,101.7,10.9,99.7,14.7,99.4z M27.5,35.4c4.5,0.7,4.6,0.7,5.5,5.6
	c2.2-2.6,2.2-4.7,0.2-6.5C30.9,32.6,29.7,32.8,27.5,35.4z M40.8,139.2c-0.2-1.2-0.8-1.6-1.7-1.4c-2.1,0.4-2.5,2.1-2.8,3.8
	c-0.1,0.6,0.4,1.2,1,0.9C38.8,141.6,40.4,140.9,40.8,139.2z M34.2,116.7c1.4-0.3,2.2-1.2,2.9-2c0.9-1,1.2-2.3,0-3
	c-1-0.6-1.6,0.6-2,1.4C34.6,114.1,33.5,115.2,34.2,116.7z M17.7,129.9c0.8,0.1,1.4,0,1.2-0.8c-0.4-1.3-1.1-2.5-2.5-3
	c-0.9-0.2-1.2,0.4-1.2,1.2C15.1,129,16.5,129.4,17.7,129.9z M16.9,183.2c0.4-1.8,0.1-3.4-1.4-4.5c-0.5-0.4-1,0.1-1,0.5
	C14.3,181,14.9,182.5,16.9,183.2z M27.1,43.3c2.8-1.8,2.8-1.8,1.9-4.8C27.3,39.7,26.6,41.3,27.1,43.3z M31.3,89.8
	c1.6-0.9,3.1-1.5,3-3.4c0-0.5-0.7-1.1-1.3-0.8C31.3,86.3,31,87.8,31.3,89.8z M16.4,106.2c-0.6-1.7-1.1-3.1-2.6-3.8
	c-0.4-0.2-1,0.3-0.8,0.8C13.4,104.8,14.1,106.1,16.4,106.2z M36.8,171.8c1.3-0.7,2.7-1.2,2.5-3.1c-0.1-0.5-0.5-1-0.9-0.8
	c-1.3,0.7-1.8,2-1.9,3.4C36.5,171.4,36.6,171.5,36.8,171.8z M29.6,64.6c1.1,0,1.4-0.5,1.7-0.9c0.7-0.9,0.9-1.9,0.2-2.8
	c-0.1-0.2-0.7-0.4-0.8-0.3c-0.8,0.5-1.1,1.4-1.2,2.3C29.5,63.4,29.6,63.9,29.6,64.6z M14.1,79.2c-0.4-1.4-0.6-3-2.5-3.4
	c-0.2,0-0.7,0.4-0.7,0.6c0,1.7,1.2,2.5,2.6,3.1C13.6,79.4,13.8,79.3,14.1,79.2z M8.1,27.8c0.4,2,0.5,3.6,2.5,4.2
	C10.3,29.5,10.3,29.5,8.1,27.8z M38.4,192c-0.1-0.7-0.5-0.9-0.9-0.7c-0.9,0.3-1.3,1.2-1.5,2.1c-0.1,0.5,0.1,0.9,0.7,0.8
	C37.9,193.9,38.2,192.9,38.4,192z M18.6,156.5c0.1-1.6-0.1-2.8-1.1-3.7c-0.1-0.1-0.7,0.2-0.8,0.4C16.5,154.5,17.2,155.5,18.6,156.5z
	 M26.2,22.5c1.7-0.4,2.9-0.8,3-2.3c0-0.4-0.3-1.1-0.8-1C27.1,19.6,26.9,21,26.2,22.5z M13.8,56.9c-0.1-1.4-0.3-2.7-2.1-3.5
	C11.7,55.3,12.5,56.3,13.8,56.9z M17.5,14.3c0.4-1.2,0.6-2,0-2.8c-0.1-0.1-0.8,0-0.8,0.1C16.3,12.6,16.9,13.3,17.5,14.3z"/>
</svg>
