<?xml version="1.0" encoding="utf-8"?>
<!-- Generator: Adobe Illustrator 25.3.0, SVG Export Plug-In . SVG Version: 6.00 Build 0)  -->
<svg version="1.1" id="Layer_1" xmlns="http://www.w3.org/2000/svg" xmlns:xlink="http://www.w3.org/1999/xlink" x="0px" y="0px"
	 viewBox="0 0 104.5 224.6" style="enable-background:new 0 0 104.5 224.6;" xml:space="preserve">
<path d="M56.7,71c1.5-11.2,2.2-21,4.7-30.6c1.7-6.5-2.1-12.9-8.1-16.3c-3.5-1.9-7.2-3.7-9.3-7.3c-1.4-2.3-3-5-0.7-7.5
	c2-2.2,4.7-1.4,7.1-0.5c1,0.4,1.9,1,3.2,1.6c1.1-3.6-0.6-8.8,4.1-9.7c4.4-0.9,5.7,4.3,8.8,7c1.7-2.1,3.1-4.4,5-6.2
	c2.5-2.4,4.8-1.8,5.6,1.6c0.7,3,0.8,6.1,1.2,9.4c4.2-2.4,8.7-6.2,12.9-2.1c3.6,3.5-0.8,6.8-3.2,10.3c4.5,0.5,9.6,0.5,9.9,6.2
	c0.2,5.2-5.1,4.1-8.1,6.1c0.4,2,2.5,2.8,3.6,4.3c1.6,2.3,2.4,4.7,1,7.1c-1.5,2.5-4.1,1.8-6.4,1.4c-4.2-0.8-7.6-3.5-11.1-5.7
	C71,36.4,64,39.4,62.9,46.2c-2,12.2-3.3,24.5-3,37c0.1,5.5,0,10.9,0.5,16.9c5.4-10.4,14.8-16.7,23.9-24.2c1.4,4-0.5,6.9-2.1,9.5
	c-4.8,7.3-9.5,14.7-14.9,21.5c-4.7,6-7.5,12-7,19.9c0.9,14.7-0.7,29.4-1.2,45.1c2-3.2,2.5-5.7,2.6-8.4c0.3-15.8,6.9-28,21.1-35.6
	c4-2.1,8.2-4,12.2-6.1c1.6-0.8,3.1-1.9,4.5-3c1.2-0.9,1.1-3.7,3.2-3.1c2.5,0.8,1.5,3.4,1.6,5.2c1.5,18.4-8.2,30.6-22.3,40.2
	c-4.7,3.2-9.5,6.8-15.7,7.1c-2.8,0.2-3,2.7-3.7,4.8c-4.7,13-4.8,26.3-2.6,39.8c0.6,3.7,1.7,7.4,0.5,11.8c-2.4-2.2-2.8-4.6-3.4-7
	c-2.7-10.9-2.1-22.1-2-33.1c0-3.1-0.5-5.1-3.5-7.1c-7.5-4.9-9.7-13.3-12.8-21.1c-0.6-1.5-1.1-3.1-1.5-4.7c-0.4-1.4-2.4-3-0.3-4.3
	c1.6-1,3.1,0.5,4.4,1.4c3,2.2,4.9,5.3,6.8,8.5c2.5,4.4,4.2,9.2,6.7,15.2c0.6-4.2,1-7.1,0-10c-6.4-19.2-12.2-38.5-21.4-56.6
	c-0.9-1.7-1.5-3.7-3.7-5.2c-1.7,2.8-3.3,5.5-5,8.2c-0.2,0.3-0.4,0.6-0.6,0.9c-2.3,2.2-4.6,6.2-7.9,4.1c-3.6-2.3-0.4-5.8,0.9-8.6
	c0.3-0.7,0.8-1.2,0.3-2.3c-4.7,0.3-9.5-0.2-14.2-1.9c-1.5-0.5-3.4-1-3.4-3c0.1-1.7,1.8-2,3.1-2.7c4.7-2.4,9.8-1.7,16-1.9
	c-4.6-3.6-8.4-6.5-10.1-11.1c-0.8-2.2-2.2-4.7,0.1-6.5c2.5-1.9,5.1-0.2,6.8,1.5c2.5,2.4,4.5,5.4,7.5,9.1c-0.5-4.8-0.9-8.3-1.1-11.9
	c-0.2-2-0.2-4,1.1-5.8c1.2-1.6,2.7-2.6,4.7-2.3c1.8,0.3,2.7,1.7,3,3.5c0.4,2.3,0.7,4.6,1.1,7c0.4,0,0.9,0.2,1,0
	c1.8-1.8,3.6-4.5,6.3-2.8c2.8,1.8,1.3,5,0.5,7.5c-1.3,4-3.7,7.5-6.5,10.7c-1.5,1.7-2.1,3.2-0.8,5.3c10,16.7,16.2,34.9,22.1,53.3
	c0.1,0.5,0.1,1.1,1.8,1.1c0-4.7,0-9.5,0-14.3c0-16.2-0.1-32.4-0.1-48.6c0-2.3-0.3-4.1-2.3-5.7C47.9,78.6,45,71.6,43.2,64
	c-1.1-4.5-1-9.5-5.2-12.8c-0.6-0.5-1.1-1.2-0.4-1.8c0.5-0.5,1.3-0.8,1.9-0.8c2.3-0.1,3.6,1.5,4.8,3.1C48.6,57.4,52.6,63.4,56.7,71z
	 M78.7,86.3c-0.1-0.1-0.2-0.1-0.3-0.2c0.2,0,0.4,0,0.5-0.1C78.9,86.2,78.8,86.3,78.7,86.3c-0.7-0.3-1.4-0.7-1.6,0.6
	c-1.3-0.3-1.9,0.8-2.7,1.4c-6.2,5-10,11.7-13.2,18.9c0,0.1,0.1,0.1,0.1,0.2c0-0.1,0-0.2,0-0.3c1.1,0.7,1.6-0.1,2.2-0.8
	c5.3-6,9.5-12.6,13.4-19.5C77.6,86.7,78.2,86.5,78.7,86.3z M68.9,163c0.3,0.1,0.8,0.4,1,0.3c14.8-6,25.1-16.3,30.5-31.4
	c0.6-1.6,0.6-3.3,0.2-5.2C89.5,138.7,78.6,150.3,68.9,163c0.2,0.1,0.2,0.1,0.3,0.2C69.1,163.1,69,163,68.9,163z M65.5,162
	c6-7.3,11.2-13.3,16.1-19.6c4.9-6.2,11.9-10.5,16.7-18.4C80.4,131.2,67.3,140.9,65.5,162z M72.4,31.3c7.1,0.3,13-0.2,18.8-2.4
	c1.4-0.5,3.7-0.4,3.3-2.7c-0.3-1.9-2.3-2.1-3.9-2.3C83.7,23.1,78.1,26,72.4,31.3z M64.9,23.6c0-6.3,1.5-12.8-3.5-18
	c-1-1-1.9-2.7-3.4-2c-1.5,0.7-1.1,2.5-1.1,3.9C57,14.1,61.3,18.6,64.9,23.6z M74.1,3.7c-6.2,5.9-7.6,12.3-5,22.8
	C72.9,19.2,75.5,12.3,74.1,3.7z M75.2,25c4.1-2.9,8.2-5.7,12.2-8.7c1.2-0.9,2.6-2.5,1.3-4.1c-1-1.2-2.8-0.8-4-0.2
	C79.2,14.4,76.1,18.7,75.2,25z M60.5,24.7c-2.1-5.3-5.3-9.8-10.4-12.5c-1.3-0.7-3-1.5-4-0.2c-1.1,1.3,0.2,2.8,1.1,3.8
	C50.8,19.9,56.1,21.6,60.5,24.7z M76.5,35.5c3.7,2.4,6.7,5.8,11.1,6.9c1.2,0.3,2.6,1.1,3.5-0.2c1.1-1.6-0.3-2.8-1.2-3.7
	C86.1,34.7,81.6,33.7,76.5,35.5z M28.2,90.5c1-6,1.1-11.9,0.6-17.9c-0.1-1.1,0-2.9-1.6-3c-1.5-0.1-2.1,1.3-2.1,2.7
	C25.1,78.5,25.4,84.7,28.2,90.5z M6.7,97.8c5.6,2.3,11,2.5,16.2-1C17.4,95.7,12,95.5,6.7,97.8z M46.1,59.5
	c1.4,10.2,3.9,15.2,8.4,18.4C54.3,71.1,50.2,66.2,46.1,59.5z M41.3,153.5c2.5,6.7,4.5,13.6,10,18.7
	C48.7,165.6,46.5,158.7,41.3,153.5z M21.5,91c-3.5-8.1-6.2-11.1-9.9-11.5C12.8,84.9,17,87.6,21.5,91z M37.1,77.2
	c-3,3-4.9,6.3-4.6,11.6C35.5,84.9,38.1,81.8,37.1,77.2z M19.5,108.8c3.2-2,4.8-5,6.8-9.5C21.9,102.2,20.3,105.2,19.5,108.8z
	 M63.4,32.2c0.4,2.2-0.3,4.7,1.9,5.8c0.5,0.3,2.5-0.9,2.5-1.4C68,33.7,64.7,33.9,63.4,32.2z"/>
</svg>
