<?xml version="1.0" encoding="utf-8"?>
<!-- Generator: Adobe Illustrator 25.3.0, SVG Export Plug-In . SVG Version: 6.00 Build 0)  -->
<svg version="1.1" id="Layer_1" xmlns="http://www.w3.org/2000/svg" xmlns:xlink="http://www.w3.org/1999/xlink" x="0px" y="0px"
	 viewBox="0 0 89.2 250.1" style="enable-background:new 0 0 89.2 250.1;" xml:space="preserve">
<path d="M40.6,60c0.3-5.8,0.5-10.9,0.8-15.9c0.1-2.2-1-3.9-2.1-5.5c-2.6-3.9-4.8-8-6.8-12.3c-1.3-2.9-1.3-5.7,0-8.5
	c2-4.1,4.8-4.7,8.3-1.8c0.5,0.4,0.7,1.2,1.8,1.1c1.4-2,2.5-4.3,4.6-5.8c3.2-2.3,5.9-1.3,6.9,2.5c0.8,3.4,0.2,6.7-1.2,9.8
	c-2.6,5.6-4.3,11.5-7.3,16.9c-3.3,6-1.9,13.1-2,19.7c0,2,1.3,1.7,2.4,0.7c4.5-4.6,9.2-9.1,6.7-16.7c-1.5-4.6-0.7-9,2.7-12.7
	c0.8-0.9,1.9-2.3,2.9-1.8c2.9,1.4,5.2-0.2,7.8-1c4-1.2,6.8,1.1,7,5.3c0.2,2.8-0.9,5.3-2.8,7.3c-1.2,1.3-2.4,2.7-3.8,3.6
	C58,50,52.3,58.1,45.2,64.7c-0.9,0.8-1.2,1.7-1.1,2.8c0.7,12.6,1.5,25.1,2.2,37.7c0,0.5,0.2,1.1,1.2,1.5c3.1-3.4,4.9-7.3,3.9-12.2
	c-0.8-3.9-1.7-7.9-2.4-11.8c-0.7-3.8,0.2-7.2,3.1-9.9c1.6-1.5,3.7-1.5,4.4,0.3c1.3,3.5,5.9,5.8,4.3,10.7c1.3-1.3,2.6-2.6,4-3.7
	c1.6-1.2,3.4-1.6,5.3-0.6c1.9,1,2.6,3,2.2,4.8c-0.6,2.6-0.3,4,2.4,5.3c2.7,1.3,2.6,4.3,0,6.2c-3.8,2.9-8.2,3.3-12.6,1.9
	c-2.8-1-4.6-0.1-6.2,2.1c-0.3,0.4-0.6,0.9-1,1.2c-6.3,6.6-8.8,14.3-8.4,23.4c0.5,10.2,0.1,20.4,0.1,30.6c0,0.5-0.1,1.1,0.7,1.5
	c2-1,3.2-2.8,4.1-4.9c2.8-6.3,5.6-12.7,8.4-19.1c1.9-4.4,1.8-8.8,0.6-13.4c-0.6-2.3-1.4-4.6-1.4-7.1c0-1.8,0.6-3,2.3-3.9
	c1.5-0.8,2.6-0.3,3.6,0.8c0.7,0.8,1.5,0.9,2.5,1c5.8,0.6,7.9,4.7,5,9.9c-0.7,1.3-1.6,2.5-2.6,4.2c3.8-0.4,5,3.2,8.1,4.1
	c2.1,0.6,1.7,3.6-0.9,5.5c-4.3,3.2-9,6-14.1,7.7c-5,1.7-5.9,5.8-7.5,9.7c-0.8,2,1,2.1,2.4,2c1.4-0.2,2.3-1.3,3.1-2.4
	c1.5-2.1,3.2-3.9,5.5-5.3c1.2-0.7,2.5-1.1,3.5,0.3c0.5,0.6,0.9,1.3,1.8,1.5c3.1,0.5,3.8,2.8,3.4,5.4c-0.5,3.1-2.7,4.8-5.7,4.6
	c-4.3-0.3-8.5-0.8-12.7-1.7c-2.5-0.5-4,0-5.1,2.3c-1.5,3.2-4.3,5.9-5.1,9.5c-0.8,3.8-0.7,15.2,0,18.1c1.5-1.1,1.5-2.8,2-4.1
	c1.4-3.5,3-6.9,6-9.4c1.9-1.5,4.1-2.3,6.4-1.2c2.1,1,2.5,3.1,2.4,5.1c-0.1,2.4,0.2,3.8,3,4.6c2.6,0.7,3.2,3.1,1.7,5.6
	c-1.3,2.2-3.4,3.8-5.4,5.3c-3,2.2-6.2,4.3-8.9,6.9c-4,3.8-6.4,8.2-6.6,13.8c-0.2,6.8-0.2,13.6,2.2,20.3c1.6,4.6-0.5,7.5-5,8
	c-3.4,0.4-4.4-0.5-4.3-3.9c0.2-13.7-0.2-27.4,0.9-41c1-11.5-4.3-17.9-13.9-22c-2.8-1.2-5.7-2.4-8.1-4.4c-3.9-3.1-4-5.6-0.3-8.8
	c1.4-1.2,2-2.4,2-4.4c-0.2-4.2,2.5-5.7,6.4-3.7c5.3,2.7,9.1,6.9,12.1,12c0.6,1,1.1,2.1,2.2,3.2c-0.7-4.9,1.8-9.5,0.7-14.4
	c-0.3-1.2-0.5-2.3-1.6-3.1c-4.3-3.1-8.4-6.4-14.3-6.4c-5.4-0.1-8.8-4.4-8.9-9.4c0-2.6,1-3.7,3.5-3.6c2,0.1,3.9,0.7,5.2-1.7
	c0.7-1.3,2.2-0.5,3.3,0c3.4,1.6,4.6,4.5,4.4,7.9c-0.3,4.4,2.4,6.5,5.5,8.5c1.6,1.1,2.3,0.9,2.5-1.2c0.6-6.5,1.5-13,0.8-19.7
	c-0.4-4-0.6-8-0.6-12c0-2.5-0.9-4-3.1-5.1c-1.3-0.6-2.6-1.4-3.8-2.3c-1.9-1.4-3.9-1.7-6-0.6c-2.4,1.2-3,3.4-2.8,5.8
	c0.1,2.4,0.3,4.8-0.6,7.2c-0.4,1-0.7,2-1.3,2.9c-0.8,1.4-2,2.2-3.6,2.1c-1.7-0.2-2.6-1.3-2.9-2.9c-0.3-1.5-0.4-3-2.6-2.6
	c-1.8,0.3-3.6,0.2-4.2-2.1c-0.6-2.3-0.2-4.3,1.8-5.8c2.9-2.3,6.3-3.6,9.8-4.5c1.5-0.4,2.8-0.8,4.1-1.6c3.6-2.1,3.6-2.4,0.3-5.2
	c-2.5-2.1-5.4-3.4-8.5-4.3c-6.8-2-9-9.1-7.9-14.9c0.4-2.3,1.8-4.1,4.6-2.8c1.6,0.7,2.7,0.5,3.9-0.8c1.7-1.8,3.6-1.4,5.3,0.1
	c3.3,2.9,5.9,6.5,4.1,10.9c-3.1,7.5,0.1,12,6.2,15.5c2.1,1.2,4.1,4.4,6.4,3.1c1.8-1,0.8-4.5,0.8-6.8c0-10.2,0.4-20.4-0.7-30.5
	c-0.2-2-0.7-3.5-2.4-4.7c-1.6-1.2-3-2.7-4.3-4.2c-1.9-2.3-4.1-3.6-6.9-4.5c-5.7-1.7-8-6.1-6.7-11.8c0.1-0.5,0.2-1.2,0.5-1.5
	c2.8-2,6.3-1.6,9.4-2.8c2-0.8,3,2.4,3.8,4.4c1.2,3.3,0.6,6.6,0.6,10C34.8,55.3,36.6,57.9,40.6,60z M73.8,132.8
	c1.1-0.8,2.6-1.3,2.6-3.5c-1.7,1-3,1.7-2.5,3.6c-0.1-0.1-0.2-0.2-0.3-0.3C73.6,132.7,73.7,132.7,73.8,132.8z M44.1,36.5
	c0.9-0.6,1.4-0.8,1.5-1c2.7-5.4,4.4-11.2,6.5-16.7c0.2-0.6,0.2-1.3,0.1-2c-0.2-1.4,0-3.3-1.6-3.9c-1.7-0.6-2.6,1-3.5,2.1
	C41.9,21.4,44.2,28.8,44.1,36.5z M47.5,195.1c3.7-5.1,7.1-10.1,11.4-14.5c0.9-0.9,1.1-2.4,1.5-3.7c0.4-1.4,0.2-2.7-1.2-3.5
	c-1.4-0.8-2.6-0.1-3.6,0.9c-1,1-2,2.2-2.8,3.4C49.7,183.1,48.3,189,47.5,195.1z M41.3,36.4c0.7-5.9,0.6-11.7-1.4-17.3
	c-0.4-1.1-1.1-2.3-2.5-2.1c-1.3,0.2-2.1,1.1-2.6,2.2c-0.5,1.1-0.6,2.3-0.4,3.5C35.2,27.9,37.2,32.6,41.3,36.4z M48.5,199.8
	c4.2-3.5,7.9-7.4,12.5-10.4c1.3-0.9,2.5-1.9,3.8-3c0.9-0.8,1.8-1.7,1.2-3.1c-0.7-1.5-2.1-1.4-3.5-1.2c-2,0.4-3.8,1.3-5.1,2.9
	C53.7,189.5,50.5,194.3,48.5,199.8z M38.4,173.2c-0.9-8.1-5.4-14-11.7-18.7c-0.7-0.5-1.6-1.1-2.5-0.4c-0.8,0.7-0.5,1.8-0.3,2.6
	c0.2,0.7,0.6,1.5,1.1,2.1C29.3,163.8,34,168.3,38.4,173.2z M59.4,47.1c4.2-2.7,8-5.7,10.7-9.8c0.9-1.4,1.2-3,0.4-4.6
	c-1.2-2.4-4.3-2.8-5.4-0.5C62.8,36.9,60.4,41.7,59.4,47.1z M26.8,83.5c-0.2-2.3-1.1-3.9-1.9-5.6c-0.9-1.7-2.1-3.5-4.3-2.6
	c-2.1,0.9-2,3-1.5,4.9c0.7,3,2.2,5.7,3.5,8.5c0.3,0.7,0.8,1.6,1.7,1.6c1.3,0,1.2-1.3,1.4-2.1C26.1,86.6,26.5,84.9,26.8,83.5z
	 M34.9,174.2c-2.5-5.5-6.7-9.2-11.8-12c-1.4-0.8-2.5-0.6-3.5,0.6c-0.8,1-0.7,2,0.1,2.9c0.7,0.8,1.6,1.5,2.5,2
	C26.4,169.9,30.7,172,34.9,174.2z M21.7,91c-2.4-3.9-3.6-7.9-5-11.8c-0.5-1.4-1.4-2.8-3.2-2.3c-1.5,0.4-1.7,1.9-1.8,3.2
	C11.4,85.3,15.6,90.1,21.7,91z M25.2,140.5c1.2,0.1,2.1,0.3,2.6-0.3c0.7-0.8-0.3-1.4-0.6-2.1c-0.8-1.5-1.5-3.1-2.5-4.5
	c-1.2-1.6-3-2.7-4.8-1.5c-1.8,1.3-1.3,3.3,0,4.9C21.4,138.8,23.3,140.1,25.2,140.5z M60.7,91.4c3.2-1.8,5.8-3.2,8.2-4.8
	c1.6-1.1,2.1-3,1-4.6c-1.3-1.9-2.9-0.5-4.1,0.4C62.9,84.4,61.3,87.2,60.7,91.4z M60.1,139.6c5.8-2.4,8.3-7.4,7.4-13.8
	C61.9,128.8,62.1,134.5,60.1,139.6z M65.2,124.2c3.1-2.3,4.4-4.9,5.7-7.5c0.8-1.8,0.3-3.6-1.6-4.3c-2.1-0.8-2.8,1.1-3.3,2.6
	C65,117.7,64.6,120.6,65.2,124.2z M54.2,41.5c0,1.6,0.1,3.5,1.3,3.8c1.7,0.5,1.8-1.6,2.3-2.7c1.1-2.4,2.1-4.9,2.3-7.6
	c0.1-0.8,0.3-1.7-0.5-2.2c-1-0.5-1.8,0.2-2.5,0.8C54.7,35.8,54.9,38.9,54.2,41.5z M66.5,95.8c2.6-0.2,5.1-0.6,6.8-2.9
	c0.3-0.5,0.3-1.1-0.3-1.4c-2.4-1.1-4.9-1.2-7.3,0c-1.4,0.7-3.5,1.4-3.1,3.1C62.9,96.1,65.1,95.4,66.5,95.8z M19.6,115.3
	c0.2,1.4-0.4,3.3,1.2,3.6c1.7,0.4,1.7-1.6,2.2-2.7c0.1-0.2,0.2-0.5,0.3-0.7c0.7-2.3,1.8-4.5,0.6-6.9c-0.3-0.5-0.9-0.6-1.4-0.2
	C20.2,110.2,19.7,112.7,19.6,115.3z M51.9,86.3c0.8-3.2,2.3-6,3.4-8.9c0.4-1.1,0.9-2.5-0.6-3.1c-1.6-0.8-2.5,0.5-3.1,1.7
	C50,79.3,50.6,82.8,51.9,86.3z M28.7,50.7c-0.2-2.1-1.7-6.6-2.5-7.8c-0.5-0.7-0.9-1.4-1.8-1.3c-1.2,0.1-1.4,1.1-1.7,2
	C21.8,47,24.5,50.1,28.7,50.7z M31.7,136.5c0.1-3.1-1.8-6.3-3.5-6.1c-1.2,0.1-1.4,1.1-1.4,2.1c-0.1,2,2.5,6.2,3.8,6.1
	C32,138.5,31.6,137.3,31.7,136.5z M54.7,88.8c1.9-2.1,3.9-4,4.3-6.9c0.1-0.8-0.1-1.7-0.9-2c-1-0.4-1.5,0.5-1.8,1.2
	C55.3,83.5,53.8,85.8,54.7,88.8z M19.5,107.6c-2.7,0.6-4.5,1.8-6.1,3.4c-0.5,0.6-1.2,1.2-0.7,2.1c0.6,1.1,1.6,0.8,2.5,0.5
	C18,112.8,18.8,110.5,19.5,107.6z M31.9,49.2c0.9-3,0.7-5.5-0.3-8c-0.3-0.7-0.8-1.5-1.8-1.2c-0.9,0.3-1.1,1.2-0.9,2
	C29.3,44.4,29.6,46.8,31.9,49.2z M53.9,97.5c3.6-3.2,4.2-6.8,4.6-10.5C57.4,90.4,53.1,92.4,53.9,97.5z M66.4,154.1
	c2.9,1.2,4.7,0.3,6.2-1.7c0.5-0.7,0.4-1.5-0.2-2.2c-0.7-0.9-1.4-0.3-2.1,0.1C68.9,151.3,67.5,152.3,66.4,154.1z M63,118.9
	c1.3-2.3,1.3-4.2,1.1-6.2c-0.1-0.9-0.1-2.4-1.6-2.3c-1.4,0.1-1.3,1.5-1.3,2.5C61.2,114.9,61.4,116.9,63,118.9z M69.9,132.2
	c1.7-1.3,3.1-2.4,2.4-4.6c-0.1-0.3-0.7-0.7-0.9-0.7c-2,0.9-1.7,2.7-1.9,4.4C69.5,131.4,69.6,131.6,69.9,132.2z M63.5,152
	c2.1-0.5,3.8-1.5,4.5-4.7C65.2,148.3,64.1,149.9,63.5,152z"/>
</svg>
