<?xml version="1.0" encoding="utf-8"?>
<!-- Generator: Adobe Illustrator 25.3.0, SVG Export Plug-In . SVG Version: 6.00 Build 0)  -->
<svg version="1.1" id="Layer_1" xmlns="http://www.w3.org/2000/svg" xmlns:xlink="http://www.w3.org/1999/xlink" x="0px" y="0px"
	 viewBox="0 0 94.7 222.7" style="enable-background:new 0 0 94.7 222.7;" xml:space="preserve">
<path d="M62.2,178c3.3-1.7,6.7-3.1,8.1-7.2c0.9-2.8,3-5,5.3-6.8c1.1-0.8,1.4-1.4,0.8-2.8c-0.9-2.3,0.4-4.8,2.8-5.4
	c3.3-0.8,6.6-1.2,10-0.8c1.9,0.2,2.8,1,1.5,3c-1.4,2.3-2.2,4.9-4.4,7.1c2.3,1,4.3,1.8,6.4,2.7c2.4,1.1,2.5,1.9,0.5,3.2
	c-2.3,1.5-4.8,2.7-7.5,3.5c-1.9,0.5-3.9,0.4-5.1-1.3c-1-1.4-1.9-1.4-3.2-0.8c-10.1,4.7-18.4,11.2-23.1,21.9
	c-4.2,9.7-10.2,18.4-16.4,27c-0.6,0.9-1.3,1.9-2.5,1.1c-1.2-0.8-0.4-1.8,0.2-2.7c1.3-1.9,2.6-3.8,4-5.7c1.1-1.5,2-2.9,1.6-5.1
	c-1.1-5.3-1-5.4-6.4-6.5c-1-0.2-2-0.4-3-0.8c-1.6-0.5-2.4-0.5-3.2,1.5c-1.7,4.1-6.6,4.4-9.1,0.6c-1.4-2-2.7-4-4.9-5.3
	c-0.8-0.4-1.8-0.7-1.6-2c0.3-1.2,1.3-1.1,2.2-1.3c0.4-0.1,0.8-0.4,1.2-0.6c2.3,1.3,3.5-0.7,5-1.6c2.5-1.6,5.2-2,7.9-0.8
	c2.3,1,3.2,2.9,2.3,5.4c-0.4,1,0.3,1.3,0.9,1.4c1.9,0.2,3.7,1.4,5.9,0.8c-1.6-4.2-4.2-7.5-7.1-10.7c-0.4-0.5-1.2-1.2-1.8-0.7
	c-2.3,2-4.6,0.3-6.8-0.1c-1.1-3.7-2.3-7.4-3.3-11.1c-0.7-2.6-0.2-3.1,2.4-2.3c3.5,1,7.2,1.6,9.9,4.3c0.2,0.3,0.3,0.5,0.5,0.8
	c0.3-0.2,0.4-0.5,0.2-0.8c0.6-2,1.9-3.6,2.4-5.7c0.3-1.6,1.8-1.9,2.8-0.4c1.4,2.1,2.8,4.3,3.8,6.6c0.9,2,1,4.1-1.4,5.4
	c-0.5,0.3-1.2,0.6-1.1,1.2c0.5,3-0.4,6.1,0.4,8.9c0.6,2,2,3.9,2.7,6c0.7,1.9,1.2,3.9,2,6.3c9.2-14.6,16-29.4,16.4-46.6
	c0.1-4.3-1.2-8.2-3-12c-1.7-3.5-5.1-5.2-8.9-4.7c-1.7,0.2-3.4,0.3-2.8,3c0.5,2.4-1.3,3.5-3.6,3.7c-3.1,0.3-6.2-0.1-9.3,0.8
	c-1.5,0.5-2.3-0.5-1.4-2c0.8-1.5,1-3,1-4.7c-0.2-5.4,0.9-6.5,6.9-6.4c-2.3-3.1-2.1-6.8-3.2-10.1c-0.5-1.4,0.1-2.6,1.6-2.1
	c2.6,0.8,5.3,0.5,7.9,1.1c4.6,1.2,6.3,4.3,3.9,8.4c-0.7,1.2-0.1,1.6,0.7,2.2c3.2,2.1,5.8,4.8,8.7,8.1c-1.5-7.5-4.6-13.6-8.3-19.5
	c-3.9-6.2-7.7-12.4-12.8-17.7c-3.7-3.8-7.8-6.9-13.3-7.5c-1.7-0.2-3.2-0.4-2.4,2.4c0.7,2.7-1,4.9-3.9,5.7c-3.1,0.9-6.2,0.9-9.3,0.2
	c-1.1-0.2-2-0.9-1.4-1.9c2.3-3.5,2.7-8.6,8.1-9.9c-4.2-2.6-4.4-7-5.6-11c-0.6-1.9-0.2-3.1,2.2-2.2c2.1,0.8,4.3,0.6,6.5,0.9
	c4.1,0.5,5.7,3.1,4.2,6.8c-0.3,0.7-0.8,1.2-0.1,2.1c3.3,4.2,3.2,4.3,9.8,6.4c-1.6-3-2.9-5.7-4.4-8.4c-5.7-10.5-8.7-21.6-9-33.6
	C19,52,16.3,47,10.5,42.3c-1.1,2-2.7,3.1-5.1,2.6c-2.4-0.5-3-2.4-3.3-4.4c-0.2-1.2-0.5-2.4-1.2-3.6c-1.5-2.3-1.3-2.9,1.4-3.3
	c2.6-0.4,5.8,0.9,7.8,0c1.6-0.8,1-4.9,2.7-7c1.1-1.3,1.5-3.7,3.1-3.9c2.3-0.4,1.7,2.6,2.9,3.7c0.7,0.7,1.3,1.7,1.8,2.5
	c2.3,3.5,1.3,6.5-2.7,7.5c-1.3,0.3-1.2,1-1.4,1.9c-0.9,3.9,0.1,7.3,3.3,10c0.9-1.3,1-2.9,1.5-4.4c1.9-6.9,4.7-13.3,9.4-18.8
	c1-1.1,1-2.2,1-3.5c-0.1-3.1,0.1-6.1,1.9-8.7c0.7-1,0.2-1.6-0.2-2.5c-1.4-2.7-0.7-5.5,1.8-7.2c1.8-1.2,4-1.6,5.8-3.1
	c0.8-0.7,1.8-0.1,2,1.1c0.1,0.3,0.1,0.7,0.1,1c0,2.8-0.3,6.5,1.3,7.8c1.6,1.3,4.9,1.4,7.6,1.8c1,0.2,2.3-0.2,2.8,1
	c0.5,1.3-0.8,1.7-1.4,2.5c-0.7,1-1.4,2.1-2.1,3.2c-2.5,3.5-7,4.2-10.2,1.3c-0.6-0.5-0.8-1.1-1.6-0.4c-3.6,3.1-6.5,6.7-9.2,11.1
	c3.8,0.4,6.9-0.9,10.1-0.7c1.1,0.1,1.1-1,1.4-1.7c1.8-3.5,4.8-4,7.5-1.2c1.9,2,3,4.6,5.9,5.8c1.2,0.5,0.6,1.8-0.5,2.3
	c-3.1,1.6-6,3.5-10,2.2c0.3,3-0.9,5.3-1.6,7.7c-0.4,1.6-1.3,2.1-2.8,0.9c-1.1-0.9-2.4-1.3-3.8-1.7c-1.7-0.5-3.4-1.1-3.9-3.1
	c-0.4-2.2,0.8-3.7,2.4-5c0.4-0.3,0.9-0.6,1.4-0.9c-3.7-2.9-8.2-1.7-10.1,2.6c-5.5,12.7-5.7,27.9-0.3,42.7c1.7-4.1,4.5-7.5,4.5-12.1
	c0-0.8,0.4-1.6,0.7-2.3c1.3-2.6,3.1-4.9,0.9-8.3c-1.4-2,0.7-5,3.5-6.4c1.7-0.8,3.4-1.5,4.7-2.9c0.5-0.6,1.2-1.1,2.1-0.6
	c0.8,0.4,0.8,1.1,0.7,1.8c-0.1,3.5,2,7.1-1.4,10.4c2.1,0.4,3.7,0.7,5.2,0.9c2.2,0.3,3,1.1,1.6,3.1c-0.6,0.9-0.9,1.9-1.2,2.9
	c-1.1,4-5.7,5.7-9.1,3.1c-1.3-1-1.9-0.8-2.8,0.1c-1.5,1.6-3.1,3.1-3.8,5.6c2.5-0.2,4.6,0,5.9-2.9c0.8-2,4.7-2,6.4-0.1
	c1.5,1.7,2.9,3.6,4.7,5c1.1,0.8,1.1,2.2-0.7,2.5c-1.6,0.3-2.7,1.2-3.9,2.2c-0.7,0.6-1.5,1.1-2.4,1.4c-4.6,1.6-7.1-0.4-6.6-5.3
	c-6.2,0.6-8.6,4.3-5.9,9.9c4.7,9.8,11.2,18.4,17.4,27.2c1.8,2.6,3.7,5.3,5.6,8c1.1-2.9,2.1-5.6,3.3-8.2c0.5-1.1,0.5-2.2,0.3-3.4
	c-0.2-1.6-0.3-3.3,0.1-4.8c0.5-1.9,1.1-3.4-1-5c-1.7-1.3-0.6-4.9,1.7-6.2c3.3-1.8,7.1-2,10.6-3.3c1.5-0.5,1.9,0.9,1.3,2.2
	c-0.9,1.9-1.2,4-1.7,6.1c0.4,0.1,0.7,0.3,1,0.3c5-0.3,4.9-0.3,3.6,4.6c-0.5,1.9-1.5,3.6-2.5,5.3c1.5,1,3.2,1.4,4.8,2.1
	c2.5,1,2.7,1.8,0.7,3.5c-0.9,0.8-1.7,1.5-2.5,2.4c-2.8,3.1-5.8,3.3-8.6,0.2c-0.7-0.8-1.1-0.8-2-0.7c-4.7,0.8-7.6,5.2-6,9.9
	c1.1,3.4,2.9,6.6,4.1,9.9c4.2,11.6,5.2,23.5,1.9,35.5c-0.2,0.9-0.1,1.8-0.2,2.8c-1,0.9-0.9,2.1-1.4,3.7
	C61,179.8,62.3,179.4,62.2,178z M13.5,32.1c1.8-0.8,3.7-1.2,5.4,0.7c-0.4-2.2-1.1-3.9-2.9-5.2C14.7,28.9,14.2,30.5,13.5,32.1
	c0,0.3-0.1,0.4-0.2,0.6c0,0,0.2,0.1,0.2,0.1C13.8,32.5,13.6,32.3,13.5,32.1z M25.6,185.5c0,0.6,0,1.2,0.8,1.2c0.1,0,0.4-0.3,0.4-0.4
	C26.7,185.5,26.1,185.6,25.6,185.5c0.7-0.9,0.4-2.4,1.6-3.3c2-1.5,1.9-2-0.4-3.1c-1.2-0.5-2.3-0.8-3.6-0.6
	C23.5,183.9,23.5,183.9,25.6,185.5z M18.5,198.1c1.9,1.6,2.5,4,4.8,5.1c0.9,0.5,1.8,0.7,2.5-0.1c0.7-0.7,0.4-1.4-0.2-2.1
	c-1.6-2.1-1-3.4,1.6-3.6c0.9-0.1,1.6-0.2,1.6-1.3c0-1-0.7-1.4-1.5-1.6c-1.6-0.4-2.9,0-4.3,0.8C21.7,196.2,20.3,197,18.5,198.1z
	 M42.8,137.4c-0.2-3.8,0-4.1,3.8-3.4c1.6,0.3,1.5-0.6,1.2-1.6c-0.5-1.9-6.6-3.6-7.9-2.3c-0.2,0.2-0.4,0.6-0.3,0.9
	C40.1,133.4,40,136.1,42.8,137.4z M14.9,101.1c-1.2,1.4-2.9,4.1-3.1,4.8c-0.2,0.6-0.2,1.1,0.4,1.4c1.3,0.8,5.5,0.1,6.6-1.1
	c0.3-0.4,0.5-0.8,0.3-1.3c-0.1-0.3-0.3-0.4-0.8-0.3C15.5,105.6,15.2,103.6,14.9,101.1z M42.1,147.9c-0.4-0.7-0.9-0.6-1.3-0.6
	c-3.4-0.2-3.6-0.7-2.1-3.7c0.8-1.5-0.2-2.4-1.6-2.5c-1.4-0.1-2.2,0.9-2.1,2.2c0.1,1.6-1,3.9,1,4.5C37.8,148.4,40,148.5,42.1,147.9z
	 M39.8,81.7c1.6-0.2,3-1.2,4.4-2.5c0.4-0.4,0.4-0.7,0-1.2c-0.9-1.1-1.7-2.2-2.6-3.2c-0.5-0.6-1.2-0.6-1.8-0.1
	c-0.7,0.6,0,0.9,0.4,1.3c1.8,1.8,1.7,3.2-1,3.8c-0.8,0.2-1.3,0.4-1.2,1.2C38.2,81.8,38.9,81.7,39.8,81.7z M87.2,158
	c-1.5,0-2.9-0.1-4.2,0c-1.3,0.1-2.8,0-3.9,1.1c-0.4,0.4-0.6,0.8-0.3,1.2c0.2,0.2,0.7,0.5,0.8,0.4c3.7-3.6,3.8-0.1,4.2,2.5
	C86.2,162.1,86.6,160,87.2,158z M16.7,94.8c-0.7-1.4-1.3-2.8-0.1-4c1.1-1.2,2.2-1,3.3,0.1c0.5,0.5,0.8,0.2,1-0.2
	c0.3-0.5-0.1-0.9-0.5-1.2c-2.1-1.6-4.4-1.4-7-1.2C14.6,90.6,13.8,93.5,16.7,94.8z M57.6,101.2c1.6-0.6,2-2.4,3.7-2.2
	c1.9,0.2,0.9,2.3,1.9,3.4c0.4-0.8,0.7-1.3,0.9-1.8c0.3-1.2,0.6-2.4,0.9-3.7C58.1,98.1,58.1,98.1,57.6,101.2z M45,18.9
	c3.4,0.2,4.2-2.1,5.2-4.4c-2-0.3-3.6-1.2-5.7-0.7C46.7,15.3,45.9,17.1,45,18.9z M39.8,13.8c-4.3-0.2-5.6,1.4-4.7,5.9
	C36.8,17.8,39.6,17.1,39.8,13.8z M73.4,170.9c3-1.1,5.6-1.7,6.7-4.3c0.2-0.5,1-0.7,0.4-1.4c-0.5-0.5-1.1-0.4-1.6-0.1
	C76.7,166.4,74.8,168,73.4,170.9z M40.2,57.3c0.5-3,0.3-3.9-0.8-4c-2.1-0.2-4.5,2.3-4.4,4.7C37.5,55.5,37.5,55.5,40.2,57.3z
	 M45.5,34.3C48,35,50,35,50.3,34.1c0.6-1.5-1.1-2-1.6-3.1c-0.4-1-1.1-1.7-2-2.4c-0.6-0.4-1.2-0.8-1.7,0.1
	C47.9,30.6,48.3,31.9,45.5,34.3z M41.4,140c1.3,3,2.9,3,7.3,0.7C46.5,137.9,44.1,141.5,41.4,140z M41.8,68.4c1.1,0.3,2,0.3,2.4-0.5
	c0.4-1,1.2-2.5,0.8-3.2c-1.1-1.9-3-0.8-4.8-0.6C42.1,65,43,66.3,41.8,68.4z M36.2,190.8c1.6-4.2-3.3-4.9-3.2-8.2
	C30.6,187,34.9,188,36.2,190.8z M41.5,39.6c-1.6,0.9-3,1.1-4.4-0.4c-0.5-0.6-1-0.3-1.4,0.2c-0.4,0.5-0.5,1.1,0,1.5
	c1.2,0.9,2.6,1.6,4,1.6C41.3,42.5,41,40.7,41.5,39.6z M57.9,116.8c5,0.7,3.1-4.1,5.2-5.5C60.4,111.9,59.8,114.5,57.9,116.8z
	 M63.4,105.8c2.7-0.2,2.8,1.6,3.2,3.3c1.2-1.3,2.8-2.7,1.7-4.1C67.4,104,65.3,104.5,63.4,105.8z M8.1,36.6c-1.3,0.1-3.3-0.9-3.6,0.7
	c-0.3,1.3-0.2,3.2,1,4.5c0.4,0.4,0.8,0.9,1.5,0.4c0.5-0.4,0.3-0.8,0-1.1C4.8,38.9,6.8,38,8.1,36.6z M66.9,119.2
	c2.5-0.6,3.5-1.9,4.3-3.6c-1.6-0.6-3-1.2-4.7-0.8C68.4,115.9,68.2,117.4,66.9,119.2z M85,171.7c1.6-0.6,3.2-0.8,4.1-2.5
	c-1-0.5-1.7-0.9-2.5-1.1c-0.7-0.2-1.4-0.9-2.3-0.4c0.2,0.5,0.6,0.9,0.7,1.4C85,169.9,85,170.6,85,171.7z M35.3,8.9
	c1.1-1.4,1.7-2.5,3.2-2.2c1.2,0.3,1.5,1.4,2.3,2.1c-0.3-1.5,0.6-3.9-1.3-4.1C37.8,4.5,35.6,5.6,35.3,8.9z M38.9,180.7
	c-0.8-1.3-1-3-2.2-2.8c-1.3,0.2-1.3,1.7-1.1,3.2C36.5,180.2,37.5,180.7,38.9,180.7z M18.1,98.2c1.4,0.8,2.7,1.1,4,0.6
	C21.3,95.6,19.8,97,18.1,98.2z M38.9,33.2c0.2,1.6,1.3,1.8,2.5,1.6c0.6-0.1,0.7-0.5,0.5-1C41.2,32.5,40.1,32.9,38.9,33.2z
	 M13.4,40.4c0.3-1,1.1-2,0-3c-0.3-0.3-0.9-0.4-1.1,0.1C11.9,38.6,11.4,39.9,13.4,40.4z M59.4,106.9c-1.2,1.3-1.1,2.3-0.6,3.5
	C60.3,109.4,59.6,108.2,59.4,106.9z M34.1,67.6c1.9-0.7,2.2-1.9,1.6-3.6C34.9,65,33.9,65.9,34.1,67.6z"/>
</svg>
