<?xml version="1.0" encoding="utf-8"?>
<!-- Generator: Adobe Illustrator 25.3.0, SVG Export Plug-In . SVG Version: 6.00 Build 0)  -->
<svg version="1.1" id="Layer_1" xmlns="http://www.w3.org/2000/svg" xmlns:xlink="http://www.w3.org/1999/xlink" x="0px" y="0px"
	 viewBox="0 0 130.6 253.3" style="enable-background:new 0 0 130.6 253.3;" xml:space="preserve">
<path d="M62.1,189.7c7.2-5.9,16.5-6.8,24.8-10.4c2.9-1.3,5.8-2.8,8.9-3.7c1,1.3,0.2,2.1-0.3,3c-3.8,7-9.5,12.4-14.7,18.3
	c-1.7,1.9-3.9,2.8-6.2,3.8c-5,2.1-9.8,4.5-14.5,7.3c-2.8,1.7-4.7,3.9-5.7,7.1c-1.3,4.1-2.8,8.2-4.4,12.2c-1.6,4-2.1,8.1-1.8,12.3
	c0.1,1.2,0.4,2.6-1.2,3c-2,0.5-4,1.2-5.9-0.1c-1.5-1-0.8-2.4-0.4-3.7c1.9-6.2,2.8-12.7,4.2-19c1.2-5.3,0.2-9.9-3.2-14.1
	c-4.8-6-9.4-12.2-14.2-18.2c-3.3-4.1-4.8-8.6-4.6-13.9c0.1-3.2-0.3-6.5-0.2-9.7c0-1.4,0-3.5,2.5-1.7c8,5.9,15.4,12.3,20.8,20.8
	c0.9,1.4,1.4,3.2,2.1,4.8c1.2-0.1,0.9-1.2,1.1-1.8c1-6.1,2.1-12.3,3.1-18.4c1.6-9.8-3.8-17.1-9-24.4c-1-1.4-2.9-1.7-4.5-1.5
	c-7.3,0.8-14.6-0.6-21.9,0c-6.4,0.5-8.1-2.4-5.1-8.1c0.6-1.1,0.1-2.1,0.2-3.2c0.1-3.6,2.2-4.8,5.4-3.1c2.7,1.5,4.6,3.8,6.1,6.4
	c2.8,5,7.3,6,12.5,5.7c0.7,0,1.7,0.2,2.1-0.7c0.3-0.8-0.4-1.2-0.8-1.7c-2.5-2.6-4-5.7-5.7-8.9c-0.4-0.8-1-1.7-1.7-2.2
	c-4.8-3.1-8.7-7.8-14.7-9c-1.5-0.3-2.7-1.1-3.8-2.3c-1.4-1.6-1.5-3.2,0.3-4.5c1.2-0.9,1.9-1.7,2.3-3.3c0.7-2.9,3-1.7,4.4-0.5
	c2.2,1.9,3.4,4.5,3.9,7.4c0.8,4.2,3.4,6.8,7.6,9.1c-1.1-7.2-1.9-13.7-7.3-18.4c-1.2-1.1-2.3-2.3-2.9-3.9c-1.5-3.8-0.3-5.8,3.8-5.7
	c1.4,0,2.4-0.2,3.6-1.3c1.8-1.8,3.7-1.2,4.4,1.5c0.6,2.4,0.2,4.8-0.2,7.2c-1.3,7-1,12.4,0.9,17.7c3.2-3.2,6.5-5.9,5.9-10.9
	c-0.3-3-0.1-6,0.4-8.9c0.3-1.7,1.2-3.2,3.1-3.3c1.7-0.1,2.2,1.2,2.4,2.7c0.2,1.4,1.1,1.4,2.3,1.5c3.8,0.1,4.9,2.4,3.1,5.7
	c-1.2,2-2.9,3.6-4.9,4.8c-4,2.6-7.3,6-10.3,9.6c-1.1,1.3-1.6,2.2-0.9,3.9c1.9,4.5,4.6,8.3,8.1,11.5c1.8,1.7,2.2,0.6,2.4-1.1
	c0.4-3.4-0.5-6.7-0.8-10.1c-0.3-2.6-0.2-5.2,1.7-7.2c1.3-1.4,3-1.9,4.8-1.5c1.6,0.4,1.8,1.8,1.9,3.2c0.1,0.9-0.2,2,1,2.4
	c3.5,1.1,2.1,3.3,0.8,5c-1,1.4-2.5,2.4-3.9,3.5c-4.2,3.4-5,8.2-2.2,12.8c1.1,1.8,2.2,3.7,3.3,5.6c1,1.8,1.8,3.6,3.3,6.4
	c0.8-5.7,1.5-10.3,2.2-14.9c1.3-9.4,2.6-18.8,3.9-28.2c1.1-8.6-0.2-16.8-4.4-24.3c-4-7.2-7.5-8-14.5-3.7c-1,0.6-2.1,1.3-3,2
	c-1.7,1.3-3.3,1.2-4.8-0.1c-1.5-1.2-2.4-2.9-1.4-4.7c1.4-2.4,0.5-3.8-1-5.7c-2.2-2.8-0.7-5.6,2.9-5.9c3.7-0.2,7.1,1,9.7,3.4
	c2.4,2.2,5,4.1,7.8,5.7c5.2,3.2,8.8,7.9,11.1,13.6c1.3-8,2.4-16,2-24c-0.2-5.5-9.2-13.9-14.8-14.4c-1.8-0.2-3.2,0.5-4.3,1.8
	c-1.3,1.4-2.5,2.8-3.8,4.2c-1.5,1.8-3.3,2.9-5.7,1.7c-2.3-1.2-3.4-3.4-2.7-5.8c0.5-1.9,0.4-3.1-0.7-4.8c-1.4-2.2-0.2-4.6,2.3-5.4
	c3.9-1.3,7.2,0.1,10.2,2.4c2,1.5,4,2.7,6.3,3.5c5.5,1.9,10,5.3,13.8,9.5c2.8-7.5,1.1-16.6-3.6-20.6c-2.7-2.3-5.5-3.3-9-2
	c-2.1,0.8-4.4,1.4-6.6,2.1c-2,0.6-3.5-0.4-4.5-2c-1-1.6-1-3.6,0.5-4.8c1.5-1.3,1.9-2.2,0.7-4c-0.9-1.4-0.7-3.2,0.6-4.5
	c1.2-1.2,2.6-0.3,3.8-0.1c3.9,0.8,5.6,4.3,7.7,6.9c2.8,3.5,6.9,5,10.3,8.3c0.8-5.6-1.2-10.3-1-15.2c-0.3,0.2-0.4,0.1-0.2-0.1
	c0,0.1,0.1,0.2,0.1,0.3c-2-3-4.1-6-5.5-9.3c-1.7-4-0.1-6.2,4.1-5.5c1.7,0.3,3,0.4,4.6-0.5c2.3-1.2,3.5,0,3.8,2.4
	c0.4,2.6-0.6,4.9-1.9,6.9c-3.9,6.5-2.8,13.2-1.5,20.3c4.5-2.7,8.8-5.1,10.8-10.1c0.6-1.4,1.6-2.5,2.9-3.4c2-1.3,3.7-1.1,4.4,1.4
	c0.3,0.9,0.5,1.7,1.1,2.5c1.4,1.9,0.7,3.3-1.2,4.3c-1.6,0.9-3.2,1.3-5,1.6c-1.9,0.2-3.7,0.4-5.5,1.3c-4.2,2.2-7.2,5.1-7.1,10.3
	c0.1,6.7,0,13.3,0,20.4c2.8-6.1,7.9-9.1,13.7-11.4c3.5-1.4,6.1-4.4,9.7-5.8c1.8-0.7,3.5-1.4,5.3-1.9c1.3-0.4,2.8-0.4,3.7,0.9
	c1,1.3,0.5,2.6-0.4,3.7c-1.1,1.3-1.1,2.3-0.4,3.9c1,2.2,1.7,4.9-0.6,6.7c-2.4,1.8-5.1,1.5-7.5-0.2c-1.1-0.8-2.2-1.5-3.4-2.2
	c-4.9-3-9.3-2.8-13.5,1.4c-4.1,4-7.2,8.7-7.9,14.7c-0.7,6.5-1.5,13-1.8,19.7c6.4-8.5,16.7-11,24.6-16.9c2.9-2.2,6.4-3.5,10.1-4
	c1.8-0.3,3.6-0.1,4.7,1.6c1.1,1.7,0.2,3.2-1.1,4.3c-1.3,1.1-1.2,1.8,0,2.9c1.3,1.1,1.3,2.7,1.3,4.1c-0.1,4.1-3.3,6.1-6.9,4.2
	c-2.7-1.5-5.1-3.5-8.1-4.6c-4.1-1.4-7.9-1.6-11.5,1.2c-1.9,1.5-4.2,2.5-6.1,4c-4.4,3.4-7.4,7.5-7.8,13.5
	c-1.3,15.2-2.8,30.4-5.2,45.5c-0.2,1.1-0.8,2.3,0.4,3.7c2.8-2.3,5.6-4.5,8.3-6.9c1.1-0.9,2-1.9,3.4-0.6c0.9,8.6-1.5,15.9-8.8,20.9
	c-9.7,6.6-9.4,16.6-9.9,26.5c1.1,0.3,1.5-0.2,1.8-0.6c8-9.7,14.6-20.5,21.9-30.7c1-1.4,1.1-3.1,0.7-4.7c-1.2-4.1-3-8-5.8-11.3
	c0.4-1.1-0.1-2.1-0.4-3.2c-0.4-1.7,0-3.2,1.4-4.4c1.4-1.2,2.8-0.7,4.1,0.3c0.9,0.7,1.5,0.8,2.3-0.2c0.8-1.1,1.9-2.3,3.4-1.2
	c1.3,0.9,1.6,2.5,1.4,4c-0.5,3.1-1.5,6.1-3.1,8.7c-1.3,2.2-1,4.2-0.2,6.5c4.4-6.5,8.9-12.8,12.1-20c0.7-1.7,0.7-3.6-0.4-5.1
	c-2.6-3.4-4.3-7.4-7.8-10.3c-3.9-3.2-4.6-8.3-2.4-11.6c1-1.5,2.5-2.7,4-1.1c2.1,2.3,3,0.8,4.2-0.8c1.1-1.5,2.5-2.1,4.2-1.4
	c1.9,0.8,1.9,2.6,1.6,4.2c-0.6,3.2-1.7,6.3-3.5,9.1c-2.8,4.5-0.6,7.5,1.4,10.8c0.7,1.1,1.5,1,2.1-0.1c3.2-5.9,6.9-11.7,6.4-18.9
	c-0.3-3.9-0.3-7.9,1-11.6c0.6-1.6,1.2-3.6,3.3-3.6c1.9,0,3.3,1.2,3.9,3c0.5,1.4,1.2,1.9,2.7,1.5c1.6-0.4,3.3-0.4,4.2,1.4
	c0.8,1.6,0.2,3.1-0.7,4.6c-1.8,2.8-4.2,5-6.8,6.9c-6.9,5.2-9.7,12.9-13.9,21.1c5.6-2.5,10-4.5,11.9-9.8c1-2.6,2.6-5.1,4.9-6.9
	c2.5-2,4-1.4,4.1,1.6c0.1,1.7,0.5,2.5,2.1,3.3c3.2,1.6,3.4,4.4,0.8,6.8c-3,2.8-6.7,3-10.3,2.2c-2.5-0.5-4.3,0.2-6.5,1.1
	c-6.2,2.6-10.7,6.8-13.7,12.9c-2.5,5-5.8,9.6-9.2,15.1c9.8-3.7,17.8-8.5,24.2-16c0.4,0.5,0.8,0.7,0.7,0.9c-2.5,8-5.7,15.5-14.6,18.5
	c-2.6,0.9-5,2-7.6,2.7C71.9,174,66.8,181.6,62.1,189.7c-0.3,0.2-0.7,0.4-1.1,0.5c0.1,0.3,0.1,0.4-0.2,0.2c0.1-0.1,0.1-0.2,0.2-0.2
	C61.5,190.6,62,190.6,62.1,189.7z M49.2,221c0.6-0.7,0.9-0.8,1-1.1c0.2-0.5,0.5-1,0.6-1.5c1.8-7.5,6.5-12.6,13.6-15.4
	c2.3-0.9,4.3-2.4,6.6-3.1c8.8-2.9,13.6-10.2,19.3-16.7c0.6-0.7,1.6-1.5,1-3c-6.2,1.7-12,4.7-18.2,6.4c-10.6,3-15.8,11.6-21.8,19.5
	c-0.7,0.9-0.9,2.3-1.1,3.4C49.7,213.2,49.5,216.8,49.2,221z M24.9,165.6c0.4,5.6-1.2,11.4,2.1,16.6c5.3,8.2,11.9,15.3,17.8,23.2
	C51.1,192.7,40.3,171.3,24.9,165.6z M103.5,120c3.7-3.6,7.8-5.6,10.2-9.5c0.6-1,1.7-2.1,0.9-3.3c-0.8-1.3-2.2-0.8-3.3-0.4
	c-2,0.8-3.3,0.6-3.7-1.9c-0.2-1.1-0.7-2.6-2.2-2.4c-1.4,0.2-1.5,1.8-1.7,2.9C102.6,110,103.2,114.5,103.5,120z M55.3,173
	c6.7-5.1,13-10.1,12.5-19.8C60.3,157.9,55.1,163.6,55.3,173z M85.7,85.9c4.6,1.2,8.4,3.1,11.9,5.7c1.1,0.8,2.5,1.5,3.4-0.2
	c0.9-1.5,0.9-3.2-0.6-4.4c-0.7-0.6-1.7-0.7-2.6-1.1c-1.7-0.7-1.5-1.7-0.4-2.7c0.6-0.5,1.4-0.8,2.1-1.3c0.8-0.5,1.9-0.8,1.4-2.1
	c-0.5-1.1-1.6-0.8-2.5-0.5C94,80.6,89.7,82.3,85.7,85.9z M84.7,57.5c2.8,1.9,5.2,3.4,7.5,5c1.6,1.1,3.4,1.4,4.8,0
	c1.6-1.5,0.8-3.3-0.6-4.6c-1.7-1.5-2-2.7-0.1-4.2c0.5-0.4,1.4-0.9,0.7-2.2C92.4,51.9,88.8,54.8,84.7,57.5z M34.2,72.7
	c-0.6,0.1-1.8-0.3-2.1,0.9c-0.3,1.1,0.6,1.8,1.4,2.2c2.8,1.3,3.1,2.6,0.5,4.6c-1.3,1-1.1,2.3,0,3.5c1,1.1,2,0.9,3.2,0.1
	c2.2-1.4,4.1-3.1,6.5-4c0.9-0.4,1.3-1.2,0.5-1.9C41.3,75.7,38.7,72.7,34.2,72.7z M36.8,48.3c-0.8,0.1-2.4-0.4-3.2,1.1
	c-0.6,1.1,0.3,1.9,1.2,2.2c3,1.1,2.8,2.2,0.4,4c-1.4,1.1-1,2.7,0.2,3.9c1.4,1.4,2.6,1,3.8-0.4c1-1.2,2.1-2.5,3.1-3.7
	c3.1-3.4,3-3.9-1.2-6.1C39.9,48.7,38.6,48.2,36.8,48.3z M81.2,117.5c0.2,1.8,0.5,3.5,1.6,5c3,4.2,4.6,4,6.9-0.6
	c0.6-1.2,1.2-2.4,1.6-3.7c0.6-1.8,2.3-4.3,0-5.4c-2-1-2.6,2.1-3.8,3.4c-0.2,0.2-0.3,0.5-0.4,0.7c-1,1.5-2,1.9-2.8-0.1
	c-0.4-0.9-0.4-2.4-1.9-2C81.1,115.1,81.3,116.5,81.2,117.5z M54.4,35.9c-2.4-2.7-4.3-5.1-6.5-7.2c-1-1-2.8-2.1-4-0.9
	c-1.3,1.4,0.2,2.8,1.4,3.6c2.2,1.6,1.7,2.4-0.6,3c-1.6,0.4-2.9,1.2-2.4,3.1c0.6,2.1,2.4,2,4,1.4C48.8,38,51.3,37,54.4,35.9z
	 M23.5,138.5c-2.2-3.2-3.6-6.2-6.3-8.3c-0.8-0.6-1.6-1.2-2.5-0.5c-1.1,0.9-0.3,1.7,0.3,2.4c1.1,1.5,1.9,2.9-0.9,3.2
	c-1.1,0.1-1.8,0.7-1.9,1.7c-0.2,1.6,1.2,1.6,2.2,1.9C17.2,139.9,20,138.5,23.5,138.5z M64.5,23.9c1.5-3.5,2.8-6.3,3.9-9.1
	c0.3-0.7,0.4-1.7-0.3-2.2c-0.8-0.6-1.6-0.1-2.1,0.5c-1.3,1.6-2.4,1.1-3.8,0.1c-0.8-0.6-1.8-0.7-2.6,0c-1,0.8-0.4,1.7,0.1,2.5
	C61.1,18.3,62.6,20.8,64.5,23.9z M78.7,169.3c12.3-3.3,18.2-5.1,19.9-12.9c-3.1,2.7-6.3,4.8-9.8,6.6
	C85.3,164.9,81.4,166.2,78.7,169.3z M113.3,124.2c-3.4,1.5-4.1,4.7-5.5,7.4c-0.5,0.9-0.1,1.7,0.9,1.9c2.8,0.6,5.7,0.9,8.2-1
	c0.6-0.4,1.3-1,0.9-2c-0.3-0.8-0.9-1.6-1.8-1.5C111.9,129.5,112.1,127.3,113.3,124.2z M40.6,99.8c-1.2,1.2-1,2.8-1,4.3
	c-0.1,2.3-1.2,5.9,0.8,6.6c2.5,0.8,4.3-2.5,6.2-4.4c0.6-0.6,1.3-1.6,0.5-2.5c-0.8-0.9-1.7-0.6-2.5-0.1c-2.8,1.7-3.3,0.4-2.9-2.2
	C41.7,100.9,41.8,100.1,40.6,99.8z M28.1,107.2c-0.1-4.5,2.1-7.8,0.1-12c-1,2.9-2.1,4.5-4.5,2c-0.5-0.6-1.6-0.4-2.3,0.1
	c-1,0.8-0.3,1.7,0.2,2.5C23,102.5,25.4,104.3,28.1,107.2z M79.7,143c-1.6,4.6-3.2,6.9-6,2.2c-0.1-0.2-0.8-0.2-1.1-0.1
	c-0.5,0.3-0.7,0.9-0.5,1.4c1.1,2.3,2.2,4.6,3.4,6.9c0.6,1,1.4,0.5,1.8-0.3C78.8,150.4,80.8,147.8,79.7,143z M47.3,119
	c-1.3,0.1-1.9,1-2.2,2c-0.8,2.2-0.4,4.5,0,6.8c0.1,0.8,0.3,1.8,1.4,1.6c1.5-0.3,2.5-1.6,3.5-2.6c0.5-0.5,1-1.2,0.1-1.6
	c-2.1-0.9-1.5-2.6-1.5-4.1C48.5,120.3,48.8,119.1,47.3,119z M77.9,34.5c2.2,0.8,4.2,0.2,6.2-0.7c0.6-0.3,1.5-1,1-1.4
	c-1.5-1.1-1.2-3.8-2.7-4.2c-2-0.5-2.7,1.8-3.5,3.3C78.3,32.3,77.6,33.2,77.9,34.5z M12.4,112.3c2,2.1,6.8,4,7.2,3.1
	c1-2.6-0.8-4.5-2.2-6.5c-0.2-0.3-0.6-0.5-1-0.7C16.6,111.5,16.6,111.5,12.4,112.3z"/>
</svg>
