<?xml version="1.0" encoding="utf-8"?>
<!-- Generator: Adobe Illustrator 25.3.0, SVG Export Plug-In . SVG Version: 6.00 Build 0)  -->
<svg version="1.1" id="Layer_1" xmlns="http://www.w3.org/2000/svg" xmlns:xlink="http://www.w3.org/1999/xlink" x="0px" y="0px"
	 viewBox="0 0 111.7 251.1" style="enable-background:new 0 0 111.7 251.1;" xml:space="preserve">
<path d="M58.8,47.5c0,1.3-1.2,1.3-2,1.8c0,0,0,0.1,0.1,0.1c0-0.1,0-0.2,0-0.3c3.5,0.2,6.8,0.2,10.3,2.2c2.5,1.5,6.4,1.4,9.4-1.2
	c2.8-2.4,5.8-4.9,9.5-6.1c1.6-0.5,3.2-1.2,2.7,1.7c-0.3,2.1,1.2,1.4,2.1,1.2c3-0.7,5.8,0.3,8.6,1c3,0.8,2.6,2,0.8,3.9
	c-2.2,2.2-4.8,2.6-7.6,2.8c-0.4,2,3.3,1.8,2,4c-1.1,1.7-3.1,1.7-4.9,2c-2.8,0.5-5.2-0.2-7.5-1.8c-5.2-3.5-10.9-5.8-17.3-5.4
	c-1.7,0.1-3.7-0.2-4.5,1.5c-0.9,1.9,1.4,2.4,2.2,3.6c2.4,3.6,6.3,4.2,10.1,5.3c5.8,1.6,8,5.5,6.7,11.1c-0.6,2.5-1.8,3.4-4.1,2.3
	c-4.8-2.1-9.1-4.6-9.3-10.7c-0.1-3.2-2.6-4.5-4.4-6.3c-1.8-1.8-3.3-3.5-6.7-2.9c-2.3,0.4-2.5,0.7-2.1,2.4c1.1,4.7,1.9,9.2,7.8,11.1
	c6.9,2.2,7.3,4,6.6,11.6c-0.2,2.2,0.6,4.5-0.5,6.6c-0.5,0.9-1,1.8-2,2c-1.3,0.3-1.5-1-2-1.7c-0.9-1.4-1.8-2.8-2.7-4.2
	c-0.7-1.1-1-2.1-2.6-0.3c-1.9,2.1-3-0.6-3.5-1.8c-1.7-3.8-1.6-7.9-0.8-11.9c0.4-2,0.5-3.8-1.6-5.9c-2.9,11.9-3,23.5-2.9,35.7
	c4.8-3.7,9-7,13.9-10.8c-0.3,4.4-1.6,7.5-4.3,9.8c-12.2,10.4-9.2,7.8-9.6,22.6c-0.1,4.6-0.3,9.2-0.3,13.9c0,1.5-0.4,3.1,0.8,4.4
	c2.3-1.2,2.6-3,2-5.3c-0.8-2.8-1.4-5.8-0.5-8.7c0.5-1.6,0.8-3.5,2.6-4.1c2.1-0.6,1.6,2.3,3.3,2.9c1.7-1.7,4-2.8,6.2-4
	c0.7-0.4,1.5-1.1,2.3-0.4c0.8,0.6,0.4,1.5,0.2,2.3c-0.8,2.9-2.7,5.4-4,8c1,1,1.9,0.5,2.7,0.7c1.2,0.2,2.9-0.2,3.3,1.3
	c0.4,1.7-0.9,2.9-2.2,3.7c-2.3,1.4-4.8,2.2-7.6,2.1c-1.2,0-2.6-0.3-3.7,0.5c-1.2,0.9-2.5,1.9-0.1,3c0.5,0.2,1.1,0.4,1.5,0.7
	c1.5,1.1,3.4,2.4,2.5,4.3c-0.9,1.9-2.7,0-4.1-0.2c-1.5-0.3-2.9-0.9-4.7-1.5c-0.1,18.7,1.1,37,2.1,55.4c6.9-11.9,13.8-23.7,14.8-37.8
	c0.1-2-0.2-5.6,1.6-5.4c2.8,0.3,1.1,3.6,1.3,5.6c0.2,4.1,0.4,8.1,1.1,12.1c1.5,9.5-2.1,17.6-7.8,24.9c-2.4,3.1-5.1,6-7.6,9
	c-2.2,2.7-3.1,5.7-2.6,9.3c0.8,5.5,1.1,11.1,2.9,16.5c0.5,1.5,1.1,3.6-0.5,4.7c-1.6,1.1-3.2-0.2-4.6-1c-3-1.7-4.1-4.3-4.2-7.7
	c-0.1-9.8-0.5-19.6-0.5-29.4c0-4.9-1.7-8.8-5.1-12.4c-3.7-4-7.1-8.3-10.5-12.5c-6-7.3-7.1-16.3-8-25.2c-0.3-2.6,0.5-5.1,3.2-7.7
	c2,14.2,8.9,24.8,20,33.8c-0.1-10,0.7-19.4-0.2-29.2c-2.2,0.4-3.5,2.1-5.2,2.8c-1,0.4-2.1,1.3-3.1,0.4c-1.1-1-0.4-2.3,0.1-3.5
	c0.9-1.8,1.8-3.4,3.8-4.3c0.9-0.4,2.7-0.5,2.2-2c-0.5-1.4-2-2.4-3.8-1.6c-1.6,0.7-3.8,0.5-4.1-0.8c-1.4-5.5-6.1-10-5-16.3
	c0.4-2.1,1.5-2.9,3.6-1.9c2.6,1.3,5.4,3,5.7,5.8c0.4,3.9,4.3,6.4,3.5,10.6c-0.2,1,1,1.8,2,1.7c1.1-0.1,0.8-1.3,0.8-2.1
	c-0.1-5.9-0.1-11.8-0.3-17.6c0-1.8-0.5-3.7-0.3-5.4c1-8.1-0.1-15.3-6.8-21.1c-3.4-2.9-4.2-7.4-4-11.9c0-0.9,0.1-1.7,0.9-2.1
	c1-0.5,1.5,0.4,2,1c2.7,3,5.4,6,8.4,9.3c1.8-10.8,1.5-21.2,1.1-31.6c-1.4,0.6-1.6,2.2-1.7,3.7c-0.4,4.8-2.5,8.5-6.6,11.1
	c-0.7,0.4-1.3,1.1-1.9,1.7c-1,1-1.6,3.1-3.6,1.7c-1.6-1.1-2-2.9-1.5-4.9c1.2-4.8,4.4-8,8.6-10.4c2.6-1.5,5.3-3,6.9-6.1
	c-3.8-1.5-6.9,0.3-9.8,1.6c-4.8,2.2-9.9,4.4-10.5,11.1c-0.4,4.3-7.8,9.9-12.2,10.5c-1.4,0.2-2-0.5-2.4-1.7c-1.3-3.8-0.6-6.5,2.8-8.6
	c3.1-1.9,6.3-3.6,9.5-5.3c2.3-1.2,4.6-2.6,6.8-4.9c-2.8-0.5-4.7-0.1-6.6,1.4c-2.3,1.7-4.9,2.8-7.8,2.5c-1.3-0.1-2.7-0.3-3.1-1.7
	c-0.4-1.3,0.8-2,1.6-2.7c2.2-2,4.9-2,7.5-1.7c5.6,0.6,11.2,0.8,16.5-1.3c1.3-0.5,3-0.5,2.8-2.5c-0.1-1.5-0.3-3.2-1.8-4
	c-1.5-0.8-2.8-0.1-3.8,0.9c-2.6,2.5-5.9,3.5-9.2,4.8c-4.5,1.8-7.9,0-11.3-2.4c-2.1-1.5-1.8-2.8,0.5-4c5-2.5,10.2-2.9,15.6-1.9
	c2.2,0.4,4.4,0.8,6.7,0.6c1.1-0.1,1.9-0.3,2.2-1.5c0.3-1.1,0-2-1-2.5c-3.4-1.5-6.6-3.7-10.7-2.8c-2.6,0.6-5.3,0.6-7.9,1.2
	c-3.2,0.8-5.5-0.5-7.4-2.7c-1.3-1.4-3-3,0-4.6c1.3-0.7,0.6-1.9,0.2-3c-0.7-1.8-1.4-3.7-1.9-5.5c-0.3-1.2-1.7-2.7,0.2-3.7
	c1.5-0.8,3.2-1.2,4.8-0.1c1.3,1,2.6,2,3.9,3c1-0.3,0.9-1.1,1.1-1.7c0.8-2.7,2-2.6,3.8-0.8c3.1,3.1,5.1,6.7,5.3,11
	c0.1,2.8,1.5,4.4,4.1,5.1c3.7,0.9,6.7,3.1,10.7,5.3c-2.4-5.4-5.3-9.6-8.1-13.9c-1.1-1.6-2.5-3.1-2.7-5.1c0.3,0.3,0.6,0.6,0.9,0.8
	c0.2-0.3,0.3-0.9,0.5-0.9c0.7-0.2,0.7,0.5,0.8,0.9c2,1,1.6,4.1,4.1,4.7c1-6.3-0.9-11.7-4.8-14.4c-3.2,3.4-0.2,6.4,0.8,9.6
	c-0.5,0-1,0-1.5,0c-1,0.4-0.9-0.2-0.7-0.8c-4.4-4.2-0.9-8.7-0.3-13c0.3-1.7,2.1-0.2,2.8,0.7c3.9,4.9,6.9,10.1,6.2,16.8
	c-0.9,8,4.2,13.4,8.4,19.2c0.5-3.9,0.8-7.5-3-10.5c-5.1-4.1-5.1-8.2-0.7-14.1c5,5.2,6.6,11.5,6.1,18.4l0.1-0.2c-0.8,0.6-1,1.2,0,1.8
	l-0.1-0.1c0.3,0.3,0.5,0.5,0.8,0.8l0.2,0.2c0.4,0.8,0.5,1.9,1.9,1.5c0,0-0.1,0.1-0.1,0.1c0.1,0,0.1,0,0.2,0
	c-0.4-4.1,0.6-7.6,4.3-10.1c2.4-1.6,4.7-3.5,7.1-5.2c1.9-1.4,2.6-0.7,2.8,1.5c0.4,4.8-1.2,8.3-5.7,10.4c-2,0.9-3.8,2.1-5.6,3.5
	c4.6-1.4,9-2.8,12.1-7c2.2-3,4.8-5.8,8.1-7.8c3.1-1.8,6.4-1.8,9.7-1.2c2.3,0.4,2.8,1.7,0.8,3.4c-4,3.7-7.9,7.4-13.6,8.5
	c-4.9,1-9.5,3.2-14.1,5.1c-1.2,0.5-2.4,1.7-3.9,0.8c0.1,0.1,0.1,0.2,0.2,0.3c-0.1,0-0.2,0.1-0.3,0.1C58.6,47.7,58.7,47.6,58.8,47.5z
	 M63.1,52.4c-0.1-0.4,0-0.4,0.2-0.1c-0.1,0-0.2,0-0.3,0c-1.5,0-0.6-1-0.7-1.6c-2.7-0.8-4.7,1.5-7.2,1.6c-1,0-1.8,1.1-1.2,2.2
	c0.6,1.2,1.7,0.8,2.5,0.2c1.9-1.4,4.2-2.2,5.8-4C63.2,50.9,63.6,51.4,63.1,52.4z M57.2,97.6c-2.8,0.7-4.7,2.5-6,4.9
	c-0.3,0.1-0.9,0-0.3,0.6c0.1-0.2,0.1-0.4,0.2-0.6c2.7-0.8,4.6-2.5,6-4.9l0-0.1L57.2,97.6z M24.5,156.6c-0.1,15,10.4,23.7,19.1,34.2
	c1.6-5.1-0.2-8.3-2.8-11.4C34.7,172.3,26.8,166.5,24.5,156.6z M51.4,208.6c9.3-8.9,17.9-18.3,15.4-32.7
	C61.8,186.9,55.9,197.4,51.4,208.6z M77.3,72.5c0.1-4.6-3.7-7.8-8.2-7.3c-1.7,0.2-1.5,1.2-1.3,2.4c0.7,3.5,3.4,5.2,6.2,6.9
	C76.5,75.9,77.7,75.3,77.3,72.5z M23.3,65.7c-4,0.8-6.7,3.7-10,5.6c-1.3,0.8-1.3,2.4-1.1,3.8c0.1,0.7,0.3,1.3,1.2,1.4
	C17.3,77.1,23.8,70.2,23.3,65.7z M87.7,32.2c-5.3-2-11.7,1.5-14.6,8C78.7,39,84.1,37.7,87.7,32.2z M32.3,48.2
	c-5.4-1.2-10.6-1.6-15.7,1.3C21.1,53.9,27.8,53.4,32.3,48.2z M99.1,50.4C92,47,86.6,50.4,81,51.7C86.9,53.8,92.7,54.4,99.1,50.4z
	 M41.2,63.1c-4.4,1.8-7.8,4.3-9.1,9c-0.2,0.9-0.7,2.5,1.4,2C36.9,73.4,41,67.5,41.2,63.1z M20.9,30.2c0-2.6-4.2-7.3-6.6-7.4
	c-0.9-0.1-1.6,0.2-1.7,1.3c-0.2,2.5,3.5,7.4,5.8,8.1C20.4,32.7,21.2,32.1,20.9,30.2z M58.2,43c9.7-5.2,10.6-6.3,9.8-10.7
	C64.7,35.8,59.6,37,58.2,43z M36.6,135.8c0.6-4-0.4-7.4-3.4-10c-0.7-0.6-1.7-1.3-2,0.4C30.7,128.3,34.1,134.3,36.6,135.8z
	 M22.8,23.8c0.1,4.4-0.3,8.3,4.6,9.9C27.9,29.6,26.6,26.5,22.8,23.8z M64.4,87.9c1.6-3.4,0.1-7.6-3.1-8.6c-1.6-0.5-2.1,0.2-1.7,1.6
	C60.5,83.7,62.4,85.9,64.4,87.9z M26.3,36.6c-3.5-1.4-6.5-1.5-9.4-1.9c-0.9-0.1-1.9,0.2-2.1,1c-0.3,1.1,0.8,1.7,1.7,2
	C19.6,38.7,22.6,38.1,26.3,36.6z M51.5,36.6c0.3-3.6-1.1-5.9-2.3-8.1c-0.3-0.6-0.6-1.4-1.5-1.2c-1,0.2-1.2,1.2-1.2,2
	C46.6,32.3,48.4,34.5,51.5,36.6z M35.9,85.7c0.8,4.5,3.3,7.9,7.2,11.5C42.2,91.7,39.7,88.3,35.9,85.7z M50.5,61.3
	c0-0.8,0-1.2-0.1-1.6c-0.1-0.9,0.2-2.2-1.1-2.4c-1.2-0.2-1.3,1.1-1.7,2c-0.2,0.5-0.4,1-0.5,1.6c-0.3,1.7-1,3.5,0.1,5.2
	c0.1,0.2,0.9,0.2,1.1,0C49.8,64.7,50.7,63,50.5,61.3z M58.2,72.6c0.6,3.6,3,4.4,5.2,5.5c0.5,0.3,1.3,0.9,1.8,0.2
	c0.6-0.7,0.4-1.7-0.2-2.3C63.2,74.3,61.1,73,58.2,72.6z M80.5,54.9c3.2,2.2,6.1,5.8,11.3,3.4C88.1,56.3,84.6,54.7,80.5,54.9z
	 M62.1,124.7c-4,2.4-6.6,4.8-6.8,9.2C59.2,130.9,60.2,129.6,62.1,124.7z M55.5,82.2c2.7-3.7,2.6-5.7-0.9-9.2
	C54.6,76.3,54,79.2,55.5,82.2z M42.2,47.6c-0.1,2.8,1.3,4.7,3.7,5.8c0.6,0.3,1.1,0,1.2-0.7c0.6-3.1-2.1-3.8-3.9-5.1
	C43,47.4,42.7,47.6,42.2,47.6z M21.8,58c-3.1-0.6-5.3-0.8-7.1,1.8C17.4,60.8,19.3,60.3,21.8,58z M64.2,134.8c-3.2-0.6-5.3-0.5-7,2
	C59.7,137.3,61.7,137,64.2,134.8z M82.1,49c1.7-0.6,3.9,0.4,4.9-2c0.2-0.5-0.2-0.8-0.6-0.8C84.4,46.1,83,47.1,82.1,49z M51.8,52.4
	c-0.3-0.9-0.6-1.9-1.7-1.8c-1,0.1-1.1,1-1.1,1.8c-0.1,1,0.4,1.6,1.3,1.5C51.2,53.9,51.8,53.4,51.8,52.4z M52.7,126.6
	c-1,2.4-1,4-0.3,5.9C53.4,130.7,53.8,129.1,52.7,126.6z M42.2,146.3c-1.5,0.4-3.2,0.5-4,3.3C40.2,148.5,41.4,147.8,42.2,146.3z
	 M52.4,145.5l0.2,0l-0.1-0.2L52.4,145.5z"/>
</svg>
