<?xml version="1.0" encoding="utf-8"?>
<!-- Generator: Adobe Illustrator 25.3.0, SVG Export Plug-In . SVG Version: 6.00 Build 0)  -->
<svg version="1.1" id="Layer_1" xmlns="http://www.w3.org/2000/svg" xmlns:xlink="http://www.w3.org/1999/xlink" x="0px" y="0px"
	 viewBox="0 0 81.5 230.2" style="enable-background:new 0 0 81.5 230.2;" xml:space="preserve">
<path d="M69.1,138.5c1.3-0.1,2.6-0.2,3.8-0.2c3.6,0.1,6.7,1.2,8.1,5c1.4,3.9-0.6,6.6-3.3,8.8c-6,4.9-13.1,7.9-20.2,10.8
	c-15.3,6.2-15.3,6.2-15.1,23c0,1.3,0,2.5,0.6,4.1c4.4-7.6,12.5-12.6,14.6-21.8c0.9-4,4.1-6.1,8.3-5.2c3.5,0.8,5.4,3.3,4.9,7.1
	c-0.5,4.1-3.1,6.4-7,5.7c-4.9-0.9-7.6,1.5-10,5c-4.2,6.2-9.2,12-11.2,19.6c3.1-1.3,4.4-4.2,6.3-6.5c5.7-7.1,12.1-13.2,21.4-15.2
	c3.5-0.8,6.9-1.1,9.2,2.2c2.3,3.4,1.5,6.9-0.5,10.2c-1.7,2.8-4.4,4.6-7.1,6.3c-7.3,4.6-15.5,7.1-23.7,9.2c-5.1,1.3-6.4,3.9-6,8.6
	c0.3,3.6,0.1,7.2,0,10.9c0,1.3,0.4,3-2,3.9c-2-4.2-0.8-8.7-1-12.9c-0.5-10.7,1.3-8.2-8.3-12.2c-8.4-3.5-17.2-6.3-24.8-11.7
	c-3.3-2.4-6.9-4.6-6.3-9.5c0.4-3.7,3.2-5.5,10-6.6c-0.3-2.6-1.5-5.3,0.1-7.9c1.7-2.6,4-3.9,6.9-3.9c3.2,0,5.7,1.6,7.1,4.6
	c0.9,1.9,0.3,4.3,1.9,6c4.4,4.6,8.4,9.4,13.2,14.3c0-5.8-0.1-11.7,0-17.5c0.1-3.1-1.8-4-4.3-4.6c-6.1-1.7-12.3-3.6-18.1-6.1
	c-4.3-1.9-8.5-4-11.9-7.4c-4.1-4-5.5-9.1-3.1-12.6c3.1-4.5,7.6-3.2,11.6-2c7.4,2.1,13,7.1,17.8,12.9c2.3,2.8,4.4,5.7,6.8,8.8
	c1.8-2.1,0.6-3.7-0.2-5.2c-2.8-5-6.2-9.7-9.8-14.2c-2.7-3.4-4.9-6.6-10.4-4.2c-3.7,1.6-7.4-1.9-7.9-6.1c-0.6-4.9,1.6-8.3,5.9-9.1
	c4.6-0.8,9.9,2.1,9.3,6.2c-0.7,5.2,2.5,7.7,5.1,10.9c1.5,1.8,2.9,3.7,4.3,5.6c1.3,1.7,2.5,3.4,4.8,5c0-7.9,0.1-15.8,0-23.7
	c0-3.1-2.9-3.3-5-4.1c-8.7-3.5-17.6-6.4-25.5-11.6c-1.8-1.2-3.6-2.4-5.1-3.8c-2.4-2.2-4.4-4.6-2.8-8.4c1.7-3.7,4.6-5,8.3-4.8
	c6,0.4,11.1,2.9,15.3,7.1c4.9,5,9.6,10.1,14.5,15.3c1.3-3.3-0.2-5.6-1.8-7.9c-2.6-3.6-5.3-7.2-8.1-10.7c-2.6-3.2-5-5.7-10.1-3.9
	c-3.9,1.4-7.8-0.6-9.1-4.9c-1.1-3.8,1-6.8,4.5-8c4-1.5,8.8-0.8,9.6,3.4c1.3,6.2,5.9,9.5,9.3,13.9c1.7,2.1,3.4,4.2,6,7.5
	c0-8.2,0-15.1,0-22c0-3.3-2.5-3.5-4.8-4c-7.5-1.6-14.8-3.9-21.6-7.6c-3.5-1.9-6.1-4.6-7.9-8.1c-1.5-2.8-2-5.6,0.2-8.4
	c2.2-2.8,5.2-3,8.1-2.1c5.5,1.7,10.6,4.3,14.9,8.3c3.7,3.4,7.5,6.7,11.1,9.9c0.2-4.9-3.8-8.6-6.5-12.7c-2.7-4-5.1-8.2-11.3-7.9
	c-3.2,0.1-6-2.4-5.6-6.4c0.3-3.6,2.4-6.1,6.1-6.1c3.8,0.1,8.3,1.4,7.8,5.7c-0.9,8,5.4,11.4,8.6,17.2c1.7-3.5,0.1-5.6-1.3-7.9
	c-7-11.5-11-23.9-10.7-37.5c0.1-3.7,1-7.2,2.8-10.4c4.6-8,14.3-8.2,19-0.2c3.5,5.9,4.1,12.5,3.5,19.2c-1,10.2-3.5,20.1-7.8,29.5
	c-1,2.2-1.9,4.2-1,7.2c2.9-3.9,5.5-7.5,8.2-10.9c1.3-1.6,0.6-3.1,0.3-4.8c-1-5.1,1.4-9,5.6-9.8c3.5-0.6,7.5,2.1,8.2,5.6
	c0.8,3.8-1.9,7.4-6.6,8.8c-6.7,1.9-16,15.1-15.6,22.8c3.2-3.9,6-7.6,9-11.1c4.1-4.7,9.2-8.3,15.3-10c2.5-0.7,5.2-0.9,7.1,1.3
	c2.2,2.5,1.4,5.2,0.2,7.8c-2.3,4.8-6.5,7.8-11,10.4c-5.2,3-10.5,5.7-16.3,7.4c-3.6,1.1-5.3,2.8-5.1,6.8c0.3,5.3,0.1,10.6,0.1,16
	c0,0.8,0.1,1.7,0.3,3.7c5-5.8,8.5-11.6,13.4-16.2c1.6-1.5,0.4-3.2,0.5-4.8c0.3-5.1,4-8.2,8.9-7.7c4.6,0.5,7.2,4.1,6.5,9.2
	c-0.6,4.8-4.1,7.3-9.2,6.2c-2.2-0.5-4.1-1.1-5.8,0.8c-5.4,5.8-10.3,11.9-14,18.9c-0.7,1.3-0.7,2.9,0.1,5c2.6-3.2,4.9-6.1,7.2-9
	c4.9-6.2,10.9-10.8,18.6-12.8c3.6-0.9,7.9-1.9,10.4,2.2c2.5,4.2,1,8.2-2.1,11.7c-2.6,2.9-5.7,5.1-9.3,6.6c-5.5,2.3-11,4.5-16.7,6.3
	c-8.7,2.9-8.8,2.7-8.7,12.2c0,5.1,0,10.2,0.1,15.3c0,0.3,0.4,0.7,0.8,1.4c4.1-5,7.6-10.3,12.4-14.5c0.8-0.7,1.4-1.6,1.3-2.8
	c-0.4-4.5,1.7-7.4,6.2-8.2c3.4-0.6,6.4,0.4,8.3,3.5C73.7,132.9,71.7,135.8,69.1,138.5c-1.3,0.3-2.8,0-3.8,1.3
	c-2.4-0.7-5.2-2.7-7.2-1c-6.8,5.7-11.9,12.8-15.1,21.3c7.2-7.1,13.5-15.1,22.3-20.3C66.6,139.7,68,139.5,69.1,138.5z M35.8,119.3
	l0.1,0.3L35.8,119.3c-4.2-6.9-10.1-12.5-16.1-17.8c-2.7-2.4-6.2-3.6-9.9-3.9c-2.5-0.2-4.8,0.1-6,2.6c-1.3,2.8,0.9,4.4,2.8,5.7
	C15.4,112.3,25.2,116.7,35.8,119.3z M40.7,52.8c5-10.7,8.3-21.5,8-33.2c-0.1-4.1-0.6-8.1-2.7-11.6c-1.6-2.7-3.6-4.7-7-4.7
	c-3.7,0-6,2.1-7.5,5c-0.8,1.7-1.5,3.6-1.6,5.4C28.6,28,32.8,40.8,40.7,52.8z M36.5,165.3c-7-10-13-19-24.2-22.3
	c-2.5-0.8-5.9-1.8-7.6,1.1c-1.9,3.2-0.2,6.1,2.3,8.4c0.9,0.9,1.9,1.7,3,2.4C17.8,160,26.4,162.5,36.5,165.3z M45.3,204.5
	c7.5-1.8,13.3-3.8,18.9-6.2c4.3-1.8,8.4-4,11.5-7.6c1.9-2.3,2.9-4.9,1.3-7.6c-1.7-2.7-4.4-1.7-6.9-1
	C58.5,185.1,52.5,194.4,45.3,204.5z M46.1,119.5c9.9-2.1,19.5-4.7,27.4-11.2c2.7-2.2,5.3-5,3.2-8.7c-2-3.5-5.7-2.1-8.6-1.1
	C57.5,102,51.6,110.6,46.1,119.5z M35.3,202.7c-4.2-6.3-9-11.9-14.6-16.9c-2.9-2.6-6.3-4.4-10.2-4.8c-2.8-0.3-5.9-0.4-7.1,2.8
	c-1.2,3.1,1.6,4.6,3.6,6C15.5,196.2,25.3,199.5,35.3,202.7z M46.5,163.4c10.4-3.4,20.8-6.7,29.5-13.8c1.7-1.4,3.2-3,1.9-5.4
	c-1.1-2.1-3-2.9-5.3-2.6c-4.7,0.7-9,2.3-12.5,5.7C55.1,152,50.3,157.2,46.5,163.4z M35.7,76.5c-4.9-8.3-11.3-14.8-20.1-18.6
	c-2.8-1.2-6-2.5-8.1,0.7c-1.9,2.9,0.5,5.3,2.3,7.3C16.8,73.2,26.2,74.7,35.7,76.5z M47.2,74.9c4.8-0.5,8.8-2.4,12.7-4.6
	c4.5-2.5,9-4.9,11.6-9.7c0.8-1.5,1.8-3.2,0.6-4.8c-1.3-1.7-3.1-0.9-4.7-0.3C57.6,58.8,52,66.4,47.2,74.9z M18.4,180.1
	c8.1,5.7,13.6,13.3,20.5,19.5c-3.3-7.6-7.9-14.2-13.8-19.9C23,177.5,20.9,178.9,18.4,180.1z M22.2,130.7c-0.3-2.9-1.7-4.7-4.8-4.7
	c-2.8-0.1-4.2,1.5-4.5,4.2c-0.2,2.6,0.5,4.9,3.4,5.1C19.3,135.5,21.4,133.8,22.2,130.7z M68.8,84.5c0-3.1-1.7-4.6-4.7-4.5
	c-2.6,0.1-4.5,1.7-4.4,4.3c0.1,3.1,2.4,5,5.4,5C68,89.4,68.9,87.1,68.8,84.5z M21.6,172.4c-0.6-2.2-2-3.8-4.7-3.8
	c-2.5,0-4.2,1.8-4.3,3.9c-0.2,2.8,2.2,3.9,4.7,4C19.7,176.6,21.2,175.2,21.6,172.4z M18.6,83.9c-4.2-0.2-6.1,1.2-6.1,3.9
	c0,2.4,2.2,3.5,4.4,3.6c2.3,0.1,4.3-0.7,4.5-3.3C21.7,85.2,19.9,84,18.6,83.9z M64.3,135.8c2.3,0.1,4.5-0.6,4.8-3.1
	c0.3-2.8-1.7-4.2-4.4-4.2c-2.3,0-4.3,0.9-4.4,3.5C60.2,134.6,61.9,135.8,64.3,135.8z M62.2,42.9c-0.6-2.3-2-3.9-4.5-3.5
	c-2.3,0.4-3.8,2-3.6,4.5c0.2,2.1,1.2,3.7,3.6,3.5C60.5,47.2,61.9,45.6,62.2,42.9z M64.6,165.8c-2.4,0.4-4,1.7-4,4.1
	c0,2.1,1.6,2.9,3.5,2.9c2.2,0,3.8-1.1,4-3.3C68.2,167.4,66.8,166.1,64.6,165.8z M26.6,46c0.2-2.4-1.4-3.6-3.4-3.8
	c-2-0.2-3.9,0.5-3.9,3c0,2.4,1.8,3.1,3.8,3.4C25.1,48.9,26.5,48.2,26.6,46z"/>
</svg>
