<?xml version="1.0" encoding="utf-8"?>
<!-- Generator: Adobe Illustrator 25.3.0, SVG Export Plug-In . SVG Version: 6.00 Build 0)  -->
<svg version="1.1" id="Layer_1" xmlns="http://www.w3.org/2000/svg" xmlns:xlink="http://www.w3.org/1999/xlink" x="0px" y="0px"
	 viewBox="0 0 115.3 248.7" style="enable-background:new 0 0 115.3 248.7;" xml:space="preserve">
<path d="M50.4,36.3c0-1.9,0-3.8,0-5.7c0-1.8-1.6-1.7-2.7-2.1c-1.7-0.5-3.5-1.1-2.7-3.5c0.6-1.8,1-3.8,3.9-2.7c2.1,0.7,1.7-1,1.2-2.1
	c-0.8-1.9-1.8-3.6-2.6-5.5c-0.6-1.4-0.8-3,0.6-4.2c1.2-1.1,2.4-0.4,3.5,0.3c0.3,0.2,0.8,0.2,1.2,0.3c2.9,0.4,3.6,1.4,2.6,4.1
	c-0.8,2.3-2.8,4.1-2.8,6.6c0.7,0.6,1,0,1.4-0.3c1.1-1,2.1-0.9,3.1,0c1,0.9,1.2,2.1,0.4,3.2c-0.9,1.3-2.1,2.5-3.2,3.6
	c-1.2,1.2-2.1,2.4-1.4,4.2c1.2,0,1.6-1.4,2.9-1.2c3.2,0.4,4.3,2.3,2.6,5.1c-0.7,1.2-1.5,2.4-2.5,3.4c-4.1,4.1-3,9.2-3.3,14
	c1.1,0.1,1.2-0.5,1.3-0.9c0.6-1.6,0.6-4.1,3.4-3c3.3,1.3,3.7,2.7,2.2,5.6c-0.9,1.6-1.8,3.2-2.8,4.6c-3.5,4.7-4.2,9-2.2,15.4
	c1.8-1.5,2.4-4.4,5.7-3.7c2.6,0.6,3.4,1.4,2,3.8c-1.4,2.3-2.9,4.5-5.1,6.1c-1.2,0.9-2.1,1.9-2,3.5c0.2,4.7,0.5,9.4,0.8,14.1
	c0,0.4,0.3,0.7,0.5,1c1.2-0.2,1.4-1.2,1.8-1.8c2.6-4.1,3.9-4.8,8.2-3.2c2,0.7,1.3,2.3,0.3,3.4c-2,2.3-4,4.8-6.6,6.5
	c-2.4,1.6-3.3,3.7-2.9,6.6c0.6,4.1,0.9,8.3,1.4,12.8c1.7-1.7,1.5-3.9,2.3-5.6c0.6-1.1,0.9-2.6,2.4-2.7c1.7-0.1,1.3,1.6,2,2.4
	c3.6,4.1,0.3,7.2-2.1,9.5c-3.1,3.1-3.9,6.2-3.6,10.5c1.4,19.4,2.4,38.9,3.6,58.3c0,0.5,0.2,1,0.7,1.5c1-5.7,2-11.4,3.1-17.1
	c3.2-15.8,8.6-30.9,14.5-45.9c4.3-10.9,7.4-22.2,10.3-33.6C94.4,92,95.6,81.6,97,71.3c0.1-1-0.3-2.4,1.3-2.5
	c1.3-0.1,1.2,1.3,1.5,2.2c3.4,9.6,4.4,19.5,5.3,29.6c0.9,10.6-0.8,20.9-3.7,31c-4.4,15.5-8.1,31-10.7,46.9
	c-2.1,12.9-6.9,24.9-12.9,36.5c-3.8,7.4-6.5,15.4-11.6,22.2c-0.5,0.7-0.7,1.8-1.7,1.6c-1.1-0.2-1-1.3-1-2.1c0-5.4-2.9-9.1-6.5-13
	c-20.5-22-31.9-48.4-35.8-78.1c-2.5-19.6-4.6-39.3-10.8-58.3c-0.3-0.9-0.8-2.1,0.2-2.6c1.3-0.7,1.8,0.9,2.3,1.6
	c4.7,6.4,7.4,14,11.7,20.7c9.7,14.9,15.2,31.6,18.8,48.8c2,9.6,6.1,18.5,8.9,27.8c2.8,9.4,5.9,18.8,7.5,28.5
	c0.2,1.2,0.3,2.6,1.6,3.8c0.5-2.7,0.1-5.2,0-7.7c-1-24-2.3-47.9-4.1-71.8c-0.2-2.5-1-3.9-3.5-4.6c-2.7-0.7-4.8-2.7-7.1-4.3
	c-1.5-1-2.5-2.7,0.3-3.7c1-0.4,1.3-1.3,1.6-2.2c1.1-3.1,2-3.3,4.4-0.9c0.7,0.7,1.5,1.4,2.6,2.4c0.3-5-0.6-9.5-1-14
	c-0.2-1.7-1.5-2.2-2.9-2.7c-2.7-0.9-5-2.4-7.3-4c-1.7-1.2-2.3-2.4-0.4-4.4c3.8-4,4.4-4,8,0.7c0.4,0.6,0.7,1.4,1.6,1.5
	c1-0.6,0.5-1.5,0.5-2.3c-0.1-1.5-0.4-3-0.4-4.5c0.3-6.6-2.3-11.5-8.3-14.7c-2.4-1.3-1.9-5.6,0.5-7c1.6-0.9,2.6,0.3,3.6,1.2
	c0.6,0.5,1,1.7,2,1.2c0.9-0.5,0.5-1.5,0.5-2.4c0.3-4.6-0.5-8.6-5.4-10.9c-2.9-1.3-5.2-3.5-4.4-7.5c0.4-2.2,1.2-2.9,3.4-1.8
	c1.7,0.9,2.5,2.6,3.8,3.9c1.1,1.1,1.8,0.7,1.8-0.6c-0.1-3.1-0.3-6.2-0.6-9.3c-0.2-1.5-1.8-2-3-2.7c-3-1.8-4.2-4.9-2.8-8.1
	c0.6-1.4,1.6-1,2.7-0.5C48.3,34.9,48.8,36.2,50.4,36.3z M39.8,196.3c0,0,0-0.1,0.1-0.1c-0.1,0-0.1,0.1-0.2,0.1c-0.4-0.2-1-0.3-1-1
	c0-0.8,0.1-1.5,0.1-2.3c-0.6-0.2-0.7-0.7-0.7-1.3c-0.4-0.1-0.8-0.2-1.1-0.4c0.1-0.6-0.4-0.9-0.7-1.3c0-0.7,0-1.4-0.1-2.1
	c-0.4-0.1-0.8-0.3-1.2-0.4c0-0.2,0-0.3,0.1-0.5c0,0.1,0.1,0.2,0.1,0.2c0,0.1-0.1,0.1-0.2,0.2c0.4,0.1,0.9,0.3,1.3,0.4
	c0,0.7,0.1,1.4,0.1,2.1c0.2,0.4,0.5,0.8,0.7,1.3c0.4,0.1,0.7,0.3,1.1,0.4c-0.1,0.7,0.4,0.9,0.7,1.3c0,0.8-0.1,1.6-0.1,2.3
	C39.3,195.4,39.6,195.8,39.8,196.3z M33.7,184.2c0.1-0.7,0.2-1.3-0.3-1.9c-0.2-0.5-0.2-1.2-0.9-1.4c0-0.2-0.1-0.4-0.1-0.6
	c0,0.2,0,0.4,0.1,0.6c0.3,0.4,0.7,0.9,1,1.4C33.5,182.9,33.6,183.5,33.7,184.2c0.1,0,0.2,0.1,0.3,0.2
	C33.9,184.3,33.8,184.3,33.7,184.2z M90.9,113.9c0.2-0.2,0.3-0.4,0.5-0.5C91.2,113.5,91,113.7,90.9,113.9c0,0.4,0,0.7,0,1.1
	c0,0,0,0,0,0C90.9,114.6,90.9,114.2,90.9,113.9z M95.9,143.8c-0.9,0.7-0.8,1.7-0.5,2.6c-1.9,0.5-1.1,2.5-2,3.6
	c0.2,0.6-0.5,1.2,0.2,1.7c0.2-0.7,0.1-1.2-0.3-1.8c1.9-0.5,1.1-2.5,2.1-3.5C95.4,145.5,95.3,144.6,95.9,143.8c0-0.3,0-0.6,0-0.9
	C95.9,143.2,95.9,143.5,95.9,143.8z M22.8,121.1c0-0.2-0.1-0.4-0.1-0.6C22.8,120.7,22.8,120.9,22.8,121.1
	c2.9,15.5,5.8,31.1,8.8,46.6c1,5,2.2,9.9,4.6,14.4c-1.3-6.1-2.7-12.1-3.7-18.2c-2.2-13.4-3.6-27-8.2-39.9
	C24,123,24.1,121.7,22.8,121.1z M90.8,165.6c-0.6,0-0.9,0.4-1.1,1c-3.6,11.9-8.5,23.3-11.5,35.4c-1.1,4.3-2.4,8.6-3.7,12.9
	c1-0.7,1.5-1.7,2-2.6C84.3,197.6,88.6,181.9,90.8,165.6c0-0.8,0-1.6,0.1-2.3c-0.1,0-0.2,0-0.4,0C90.7,164.1,90.8,164.9,90.8,165.6z
	 M66.2,227.4c1.2-1.2,1.1-2.5,1.2-3.6c2.1-17.2,5.7-34,12.1-50.1c8.2-20.6,13.5-41.9,16.6-63.7c0.4-3,0.7-5.9,1.1-8.9
	c-2.2,10.5-5.5,20.7-7.8,31.1c-1.9,8.6-5.2,17-8,25.4c-5.3,15.6-11,31.1-13,47.6C67.4,212.4,66.5,219.7,66.2,227.4z M55.7,202.5
	c-2-6.5-3.9-13.1-5.9-19.6c-2.2-7.4-5.7-14.3-7.4-21.9c-2.9-13.1-6.2-26-11.5-38.3c-2.3-5.3-5.5-10.2-8.6-15.8
	c-0.1,0.9-0.3,1.1-0.2,1.2c0.4,1.1,0.8,2.2,1.3,3.3c6.1,14.6,11.6,29.5,14.2,45.2C40.3,173.2,47.4,188.1,55.7,202.5z M71,217.8
	c0.2-0.3,0.4-0.5,0.5-0.8c5.1-17.6,11.1-34.9,16.3-52.4c3-10.1,4.4-20.7,8.3-30.6c3.8-9.5,5.6-19.3,3.9-29.5c-0.2-1.4,0.7-3-0.9-5
	c-0.5,8.5-2,16.2-3.4,23.9c-1.8,9.9-4,19.6-6.8,29.3c-3.6,12.7-9.3,24.6-12.9,37.3C73.7,199.2,71.6,208.4,71,217.8z M31.7,141.2
	c-0.1,25.2,11.6,59.5,26.1,76.1c-2.6-9.4-6.3-17.8-10.6-25.9c-5.1-9.5-8.6-19.5-10.8-30.1C35.1,154.7,34.1,148.1,31.7,141.2z
	 M89.3,120.3c-3.4,9.3-6.8,18.6-10.3,27.8c-3.5,9.3-6.5,18.8-8.7,28.5c-2.2,9.6-4.1,19.2-4.7,29.1c0.8-3.4,1.4-6.9,2.1-10.4
	c4-19.5,11.7-37.8,17.5-56.7C87,132.6,88.6,126.5,89.3,120.3z M31.5,177.6c-3.8-16.9-6.7-34-10.1-51C22.9,144,25,161.2,31.5,177.6z
	 M51.4,121.5c-0.3,3.8-0.3,3.8-3.2,4.7c1.9,1.9,4.4,2.7,6.7,3.7c0.8,0.3,1.7,0.1,1.2-1C54.9,126.5,53.6,124.1,51.4,121.5z
	 M103,108.6c0.6-7.3,0-13.6-1.8-19.9C100.9,95.1,101.8,101.5,103,108.6z M52.6,104.1c-0.8-3.1-1.8-5.5-4.7-6.8
	C47.8,102.5,47.8,102.5,52.6,104.1z M45.8,54.6c-1.5,3.8,1.5,4.6,3.4,6.2c0.3,0.3,0.8,0.4,1.2,0c0.4-0.4,0.2-0.8,0-1.2
	C49.1,57.7,48.1,55.7,45.8,54.6z M58.3,103.4c2.5-0.8,4.1-2.3,5-4.6C62,100.6,57.6,99,58.3,103.4z M55.8,52.8
	c-0.4,2.1-1.5,3.6-0.3,5.7C56.9,56.7,58.5,55.3,55.8,52.8z M51.6,80.2c-0.4-2.1-1.3-3.4-2.6-4.6C47.7,78.6,47.7,78.6,51.6,80.2z
	 M61.4,127.2c1.1-1.5,3.6-2.6,0.9-5C61.5,123.9,61.1,125.4,61.4,127.2z M60.1,75.2c-2.2,0.9-4.5,1.1-3.9,4.1
	C57.9,78.5,59.3,77.6,60.1,75.2z M49.6,13.3c0,1.6,0.5,2.9,1.7,3.9c0.5,0.4,1.1-0.1,1.2-0.6c0.4-1.7-1.7-1.8-2.1-3.1
	C50.3,13.4,49.9,13.4,49.6,13.3z M50,40.6c-0.2-0.3-0.5-0.7-0.9-1c-0.4-0.2-0.9,0.1-0.9,0.6c-0.1,0.6,0.4,0.9,0.9,1.1
	C49.5,41.4,49.9,41.4,50,40.6z M65,211.9c0.1,0,0.2,0,0.2,0c0-1,0-2.1,0-3.1c-0.1,0-0.2,0-0.2,0C65,209.9,65,210.9,65,211.9z
	 M64.4,217.6c0.1,0,0.1,0,0.2,0c0-0.7,0-1.5,0-2.2c-0.1,0-0.1,0-0.2,0C64.4,216.1,64.4,216.8,64.4,217.6z M90.7,117.9
	c-0.1-0.2-0.1-0.6-0.3-0.7c-0.6-0.2-0.6,0.4-0.7,0.8c0,0.2,0.1,0.7,0.3,0.8C90.5,118.9,90.5,118.3,90.7,117.9z M91.5,160.4l-0.1-0.2
	l0,0.3L91.5,160.4z"/>
</svg>
