<?xml version="1.0" encoding="utf-8"?>
<!-- Generator: Adobe Illustrator 25.3.0, SVG Export Plug-In . SVG Version: 6.00 Build 0)  -->
<svg version="1.1" id="Layer_1" xmlns="http://www.w3.org/2000/svg" xmlns:xlink="http://www.w3.org/1999/xlink" x="0px" y="0px"
	 viewBox="0 0 167.7 250.8" style="enable-background:new 0 0 167.7 250.8;" xml:space="preserve">
<path d="M128.7,55.3c0.6,0.8,1.3,1.6,1.9,2.5c1.9,2.6,4.2,6,1.9,8.5c-2.5,2.8-4.6-1.4-6.7-2.6c-2.4-1.3-4.6-2.8-7.5-3.4
	c-0.3,3.1,1.1,6.7-2.5,8.1c-4.1,1.6-7.2-1.1-10.3-3.3c-2.7,4.9-6.8,8.9-7.8,14.8c-0.3,2.1-2.6,2.7-4.6,1.4c-1.9-1.3-3.9-2.7-5.4-4.4
	c-1.4-1.6-2.5-1.6-4.3-0.9c-2.8,1.1-1.3,2.7-0.7,4.1c2.5,6.5,5.2,13,7.8,19.4c5,12.7,8.3,25.7,8.9,41.4c5-7.4,8.5-13.8,14.2-18.4
	c1.4-1.2,0.3-2.6-0.1-4.1c-1.5-6.5,2.2-12.3,8.9-12.5c10.5-0.4,21.1,0.2,31.7,0.4c1.4,0,3.2,0.2,3.5,2c0.3,1.9-1.5,2.4-2.8,3
	c-6,2.6-9.6,7.4-12.2,13.2c-2,4.5-4.9,8.3-9.6,10.5c-9.2,4.3-15.5,1.6-18.4-9c-8.7,7.7-14.4,17-14.9,27.9
	c-1.2,27.6-5.2,54.7-11.8,81.5c-0.2,0.8-0.4,1.7-0.7,2.4c-0.5,1.3-0.7,3.3-2.7,2.8c-2-0.5-1.4-2.3-1.1-3.7c2-9.7,4.3-19.4,6-29.2
	c4.4-25.7,7.2-51.6,4.7-77.7c-2.1-21.4-11.7-40-21.5-58.6c-1.7-3.2-4-4.7-6.3-0.2c-0.7,1.3-1.6,2.5-2.6,3.6
	c-1.9,1.9-3.7,4.6-6.9,3.3c-3.3-1.3-2.6-4.4-2.6-7.2c0-0.8,0-1.7,0-3.3c-3.7,3.7-7,7-10.4,10.3c-0.9,0.8-1.9,2-3.3,1.1
	c-1.2-0.8-0.7-2.2-0.5-3.5c0.5-5.2,5-8.9,5.7-14c0,0,0.2-0.2,0.2-0.2l-0.2,0.2c-5.3,3.7-7.9,9.6-12.1,14.3c-1.1,1.2-2.1,3.2-4,2.3
	c-2.2-1-1.3-3.1-1-5c0.5-3.5,3.4-5.7,4.6-8.8c0.3-0.5,0.6-1.1,0.8-1.6c0,0,0.1,0.1,0.1,0.1c-0.5,0.4-0.9,0.7-1.4,1.1
	c-3.8,2.2-7.5,4.4-11.3,6.5c-1.1,0.6-2.3,1.4-3.5,0.6c-1.5-1.1-0.8-2.7-0.3-4c1.4-3.6,4-6.3,6.6-9c0,0,0-0.3,0-0.3l0.1,0.4
	c-3.3-1-5.5,1.7-8.3,2.3c-2,0.5-4.4,1.4-5.8-0.8c-1.3-2,0.6-3.5,1.5-5.1c1.1-2,5.2-2.7,1.2-6.6c-2.6-2.6,2.8-13.8,6.8-14.3
	c7.5-1,12.5-7.1,20.2-8.5C45.8,24,51,23.4,56.5,24c1.9-2.8-5.5-4.1-1.1-7.2c3.2-2.3,6.5-1.1,9.7,0.3c6.5,3,11.4,1.7,14.6-4.6
	c2-3.9,5.1-2.2,7.8-1.9c4.8,0.5,3.6,4.2,4.3,8.3c1.8-2.1,3.6-4.2,5.5-6.2c1.7-1.7,5-3.4,6.1-1.2c3.5,7.5,9.6,3.4,13.8,2.9
	c6.4-0.8,9.7,4.1,14.6,5.6c2.6,0.8,0.7,4.2-1.4,5.4c-3.6,2.1-7.4,3.8-11.7,6c5.5,1,10.5,1.6,15.3,2.8c6.5,1.6,6.4,2.3,2.9,8.2
	c-1.2,2-2.6,3.7-4.7,5.3c1.1,0.7,1.9,1.2,2.8,1.7c3,1.9,6.2,4.6,4,8.1c-1.9,3.1-4.8-0.5-7.2-1.2C130.5,56.1,129.5,55.7,128.7,55.3
	c-0.1,0.1-0.2-0.1-0.2-0.1L128.7,55.3z M42,60.3c-0.4,0.4-0.8,0.9-1.2,1.3c-0.4,0.4-0.8,0.9-1.2,1.3c-0.4,0.4-0.8,0.9-1.2,1.3
	c-3.1,2.3-5.5,5-6.3,8.9l-0.2,0.2l0.1-0.3c3.3-2.1,5-5.3,6.4-8.9c0.8,0,1.2-0.5,1.2-1.3c0.8-0.1,1.2-0.5,1.2-1.3
	C41.4,61.5,41.9,61.1,42,60.3c0.8-0.1,1.3-0.6,1.2-1.5c1.1,0.2,2-0.1,2.8-1c0.1,0,0.2-0.1,0.3-0.1c-0.1,0-0.2,0-0.3,0.1
	c-0.9,0.4-1.7,0.8-2.6,1.1C42.8,59.4,42.4,59.9,42,60.3z M120.9,112.5c0.4-0.4,0.8-0.8,1.3-1.3c0.9-0.3,1.9-0.7,2.8-1
	c0.5-0.2,1.1-0.4,1.6-0.6c-0.2-0.2-0.3-0.4-0.5-0.5c-0.4,0.4-0.7,0.8-1.1,1.2c-1.1,0-2.3-0.4-2.8,1c-0.8,0-1.3,0.4-1.3,1.3
	c-0.5,0.4-0.9,0.8-1.4,1.3l-0.3,0.3c0,0,0.2-0.5,0.2-0.5C120,113.3,120.4,112.9,120.9,112.5z M126,112.6c-0.5,0.2-1,0.5-1.5,0.7
	c0.2,0.1,0.3,0.3,0.5,0.3c0.7,0,1.1-0.4,0.9-1.1c0.7-0.1,1.4-0.3,2.1-0.4c-0.1-0.2-0.2-0.4-0.3-0.5
	C126.9,111.4,126.3,111.7,126,112.6z M117,112.3c0.8-0.7,1.5-1.4,2.9-2.7c-2.2,0.6-2.5,1.7-2.8,2.8c-0.1,0.1-0.2,0.3-0.3,0.4
	C116.9,112.6,117,112.5,117,112.3z M133.9,119.1c2.5-0.5,4.9-1,7.4-1.6c-4.6,3.8-10.4,4.7-16.7,6.1c3.2,2.4,6.7,1,10.1,2.4
	c-5.1,3.2-9.5,0.5-14.8-0.2c2.9,5.1,7.3,4.7,11.2,5.6l-0.1,0.1c7.7-1.5,9.4-8,11.6-14.1c1.5-1,3-1.9,3.4-4.8
	C141.9,115.5,137,115.3,133.9,119.1C134,119.1,133.9,119.1,133.9,119.1z M50.7,33.9c0.1,0,0.3,0.1,0.4,0.1c-0.2,0-0.3-0.1-0.5-0.1
	c-5.1-5.4-10.4-6.5-15.9-3.3C39.9,32.1,45.6,31.5,50.7,33.9z M105.9,45c-1.6-0.9-3.2-1-4.9-0.1c1.7,0,3.3,0,5,0
	c9.4,4.4,20.6,3.3,29.5,9.6C126.8,47.4,116.6,45.3,105.9,45z M129.8,62.9l-0.1,0.1c0.4-3.7-2.6-5-5-6.6c-8.9-6.1-19-8.7-29.8-9.3
	C106.8,51.9,118.8,56.2,129.8,62.9z M21.7,66.7c10.8-6.9,23-11,33.8-18.1c-5.2-2.1-9.5,0.4-13.9,1.9c-8.7,2.8-15.9,7.6-19.8,16.4
	c-0.1,0.1-0.2,0.2-0.3,0.3C21.6,66.9,21.6,66.8,21.7,66.7z M79,48.7c1.4,6.9,1.5,6.9-2.1,14.4c-2.2,4.5,1.2,6.5,3.7,8.9
	c1.2,1.2,2.4,1.2,3.5-0.6C87.3,66.3,84.8,53.1,79,48.7z M129.2,22c-12.9,0-23.2,7-34.1,12.6C107.1,32.2,118.7,28.8,129.2,22z
	 M84.3,47.3C88,54.5,92.8,58,98.4,60.6c1.9,0.9,4.2,2.1,5.7-0.1c1.4-2.1,0.6-4.8-1.5-6.2C97.4,50.8,91.6,48.8,84.3,47.3z M88,58.7
	c0,2.9,0.2,5.6,0,8.3c-0.4,4.6,0.8,8.3,4.8,11c1.6,1.1,2.5,0.9,3.4-0.9C99.1,71,95.3,61.6,88,58.7z M44.5,73.7
	c6.4-8.6,15.9-14.4,20.9-24.1C54.9,54.5,47.2,61.9,44.5,73.7z M67.5,55.9c0.5,3.3-0.1,7.1,3.2,9.1c1.7,1,6.8-6.6,6.5-9.9
	c-0.3-3-1.1-6-5.1-5.9C67.5,49.3,67.9,52.9,67.5,55.9z M135.6,38.2c-12.1-3.1-24.4-7.1-37.8,0.4C111.2,37.1,123.3,38.2,135.6,38.2z
	 M63.8,56.2c-2.1,2.8-3.4,4.5-4.6,6.2c-2.5,3.6-1.8,7.6-1.7,11.6c0,0.9,0.9,1.5,1.8,1c3.5-2,5.3-5.4,6.6-9
	C66.8,63.2,65.4,60.6,63.8,56.2z M101.3,12.7c-4.7,4.6-8.8,8.7-12.9,12.8c-0.8,0.8-1.2,1.9-0.1,2.8c1.1,0.9,2.2,1.8,4,1.1
	C95.7,27.7,101.5,18.2,101.3,12.7z M19.5,47.2c9.9,2.3,23.8,0.5,30.1-4.1C39,46.3,29.5,42.5,19.5,47.2z M44.9,40.7
	c-8.9-2-17.7-6.9-27.4,1.7C27.4,40.8,36.2,43.5,44.9,40.7z M96.5,29.4c7.3-2.4,13.5-4.4,16.9-12C105.1,17.9,101,23,96.5,29.4z
	 M80.3,20.7c0.1,2.3-0.7,5.6,2.4,5c5-0.9,3.7-6.2,5.1-9.6c1-2.5-0.8-3-2.6-3C79.7,13.4,81.5,18.2,80.3,20.7z M105.8,41.2
	c8.9,1.1,17.7,4.5,26.9,1.6C123.8,40.9,114.8,40.5,105.8,41.2z M107.3,55.6c0,2.2-0.2,4.1,0,5.9c0.4,2.6,2.5,3.7,4.8,4.3
	c1.3,0.4,2.6,0.4,3.1-1.1c0.7-2.3-0.4-4.1-1.9-5.6C111.9,57.6,110.4,56.1,107.3,55.6z M149.5,109.7c-9.2,0.1-17.4,2.5-24.4,8.2
	c6.5-1.7,12.9-4,19.2-6.2C146.1,111.1,147.8,110.4,149.5,109.7z M58.2,19c1,2.1,1.7,3.8,2.5,5.5c0.7,1.5,1.4,3.2,3.6,2.4
	c1.3-0.5,2.5-1.2,3.8-1.7c-0.8-1.4-1.4-3.1-2.5-4.2C63.9,19,61.6,18,58.2,19z M29.8,52.1c-7.3-2.3-12.5-1.1-16.7,6.4
	C19.1,56.2,23.9,54.4,29.8,52.1z M46.4,26.5c3,2.5,5.4,4.4,8.6,4.8c1.3,0.1,2.7-0.2,3.2-1.5c0.6-1.7-1-2-2.1-2.4
	C53.3,26.1,50.4,25.4,46.4,26.5z M34.5,34.5c4.8,2.2,9.7,3.4,14.9,2.7C44.8,34.3,39.7,34.1,34.5,34.5z M122.9,17.6
	c-3.8-0.4-6.4-0.9-7.3,3.4C118.3,20.6,120.4,20.3,122.9,17.6z M128,133.5c-3-0.3-5.6-1.7-9.3-2.9C121.7,134.1,124.6,134.6,128,133.5
	z M76.1,23.2c0-1.6-1-2.1-2.4-2.1c-1.1,0-2.1,0.4-2,1.7c0,1.5,1,2.1,2.4,2.1C75.1,24.8,76,24.5,76.1,23.2z M101.5,66.3
	c-0.4-1.5-1.2-2-2.4-1.9c-0.2,0-0.6,1-0.5,1.4c0.3,0.9,0.7,2.1,2.1,1.7C101.1,67.4,101.3,66.6,101.5,66.3z M137.2,109.4
	c-0.4-0.2-0.7-0.5-1-0.5c-0.7,0.1-2.1-0.2-1.8,0.6C134.7,110.4,136.2,110,137.2,109.4z"/>
</svg>
