<?xml version="1.0" encoding="utf-8"?>
<!-- Generator: Adobe Illustrator 25.3.0, SVG Export Plug-In . SVG Version: 6.00 Build 0)  -->
<svg version="1.1" id="Layer_1" xmlns="http://www.w3.org/2000/svg" xmlns:xlink="http://www.w3.org/1999/xlink" x="0px" y="0px"
	 viewBox="0 0 58.3 231.1" style="enable-background:new 0 0 58.3 231.1;" xml:space="preserve">
<path d="M5.4,123.5c-7-9.8,9-13.2,15.3-2.5c1.1-4.8,6.5-39.1-4.5-30.8c-1.9,1.7-4,2-6.3,1.2c-7.1-6.6,7.8-14.2,14.6-0.8
	c0-10.7,8.4-23.8,1.4-32.5c-2.4,3-8.5,6.3-11,1.6c-0.8-9,12.1-7.7,15.2-0.8c1.9-8.7,8.6-18.6,2-26.3c-1.3-2.1-4.2,1.8-7.2,0.8
	c-9.5-1.8,3.1-16.1,12.2,1.6c1.6-5.5,2.9-10.4,1.8-15.7c-17.6,5.4-5.8-17.6,3.2-1.1c3.3-5.2-0.4-20,8.9-17.9c2.4,1,3.6,3.5,2.8,5.8
	c-2.3,6.1-8.4,3.3-8,12.5c11-8.1,17,5,8.7,7.6c-4.1,0.1-4-3.1-5.6-5.9c-7.2,6.3-8.7,15.3-11.5,24.4c12.6-9.7,19.2,2.5,13.2,5.9
	c-4.5,1.7-7-2.4-6.7-6.7c-11.6,5.4-10.4,18.4-13.4,29.3c22.5-16.3,19.1,16,7.8,2.5c-1.5-3.6-1.8-3.6-4.8-0.9
	c-7.4,8-5.7,19.8-7.9,30.3c12.1-10.9,22.4,0.6,13.3,4.7c-5.9,1-4.8-5.1-7.5-5c-10.4,4.6-6.8,19.2-7.7,28.8
	c4.4-4.3,15.6-8.4,16.7,0.4c0.4,2.4-0.2,4.3-2.6,5.2c-3.9,1.4-6.4-2.8-6.8-6.3c-11.1,2.8-9.6,23.4-8.4,31.6
	c3.1-5.2,12.2-12.3,15.8-3.9c1.2,5.1-6.2,8.3-9.2,3.8c-0.5-0.6-0.4-1.6-1.4-1.7c-8.6,8.1-5.6,18.1-5.1,28.3c4.2-5.4,7-7.5,12.9-9.9
	c1.9,2.3,5.4,1.9,4.9,6.2c-1.3,7.4-8,6.1-11.2,0.4c-9.6,8.7-4,19.6-1.9,30.8c9.8-26.6,24.9-13.3,15.6-6.1c-4.4,3.2-8.7-2.9-10.3,1.5
	c-2,4.6-4.9,9.1-2.2,14.5c0.4,0.8,0.6,2-0.6,2.4c-3.7-0.7-4.3-11.2-5.9-14.5c-0.5-2.6-6-13.8-8.7-8.5c-0.7,1.6-2.2,2.1-3.7,2.5
	c-7.7,1.6-7.8-9.2-0.8-9.5c1.6-0.1,3.2,1.2,4.8,0.3c1.4,2.2,3.8,2.9,5.8,4.3c-0.3-3.1,0-6-1.5-8.6c0.2-7,0.6-15.2-6.2-19.3
	c-3.1-2.9-2.4,9.9-11.7,3.9c-2.2-1.7-2.4-3.3-0.8-5.5c4.9-7,12.5-1.9,17.8,2.5c-0.8-10,3.5-22.3-6.4-28.6c-1.7,8.6-13,8.5-9.7-1
	c4.3-6.9,12.1-1.8,16.3,3.2c-0.3-5.2,1.4-9.9-0.1-14.6c2.7-5,1.3-14.1-2.7-17.7c-0.9-0.8-1.7-1.3-2.5,0
	C11.9,123.3,8.7,123.5,5.4,123.5z M11.9,204.8c-2.9-2.2-5,2.9-2.2,2.2c0.5,2.2,1.6,0.7,2.1,0.2c0.7-0.7,2-1.3,1-2.7
	C12.8,204.4,12.2,204.7,11.9,204.8z M39.3,211.1c3.6,0.6,4.7-5.4,0.8-5.3c-2.1,0.1-3.7,1.7-3.9,3.5C36,210.9,38.3,210.4,39.3,211.1z
	 M34.3,185.2c-0.5,0.7-2.6-0.3-2.3,1.6c0.2,1.3,1.3,2.6,2.9,2.7C38.2,189.5,37.8,184.6,34.3,185.2z M8.8,176.8
	c-0.3-2.2-5-0.4-5.1,1.6C3.9,182,8.6,179.5,8.8,176.8z M47.5,6.2c-0.2,4,3.8,0.2,3.9-2c0-1-0.4-1.9-1.6-1.9
	C47.5,2.5,47.8,4.5,47.5,6.2z M32.8,160.1c-4.2,0.1-1.5,4.1,1.3,4.1C38.1,163.8,35.5,160.1,32.8,160.1z M9.1,150.2
	c0.3-2.8-4.3-1.4-4,0.8C5.4,154.4,9.1,153.1,9.1,150.2z M37.2,16.2c-0.8-2.6-4.7-2.8-5,0.1C32.4,18.9,36.3,18.1,37.2,16.2z
	 M37.5,134.7c-0.2-1.3-0.7-2.7-2.5-2.7c-2.3,0.2-1,4.7,1.1,4.5C37,136.6,37.6,135.9,37.5,134.7z M42.5,76c5-2.6-2.7-7.5-2-2.6
	C40.8,74.6,41,75.7,42.5,76z M11.7,118c-1.1-1.8-4.9-0.8-4.7,1.4C7.6,121.9,11.2,119.7,11.7,118z M52.9,18.4
	c-0.8,1.7-1.1,3.3,0.3,4.7C56.4,24.4,55.7,18.9,52.9,18.4z M37.8,107.1c2.8-0.2,0.9-4.1-1.2-3.7c-0.6,0-1.7-0.2-1.5,0.8
	C35.3,105.7,36.2,106.8,37.8,107.1z M17.8,58.7c2.4,0.7,4.1,0.1,5-2.4C20.5,55.9,18.6,56,17.8,58.7z M15.8,86.2
	c-2.3-0.1-4-0.7-5.1,1.1C10,90.5,14.5,88.5,15.8,86.2z M47.8,44c-2.1,0-1,3.9,0.7,4.1C51.1,48.3,49.4,44.5,47.8,44z M28.5,29.5
	c-1.5-0.7-2.6-0.9-3.6,0.4C26.1,30.7,27.1,30.6,28.5,29.5z"/>
</svg>
