<?xml version="1.0" encoding="utf-8"?>
<!-- Generator: Adobe Illustrator 25.3.0, SVG Export Plug-In . SVG Version: 6.00 Build 0)  -->
<svg version="1.1" id="Layer_1" xmlns="http://www.w3.org/2000/svg" xmlns:xlink="http://www.w3.org/1999/xlink" x="0px" y="0px"
	 viewBox="0 0 116.5 251.4" style="enable-background:new 0 0 116.5 251.4;" xml:space="preserve">
<path d="M81.2,15.5c1.4-1.5,1.1-4.9,3.6-3.9c2.9,1.1,2.3,4.4,1.9,7c0.3,0.1,0.5,0.3,0.7,0.3c1.6-0.1,3.5-1.1,4.5,0.8
	c1,2-0.3,3.8-1.7,5c-2,1.7-2.3,3.4-1.7,6c1.3,6-1.8,12.1-7.5,14.8c-1.8,0.9-2.7,1.6-1.6,3.6c0.5,1,0.6,2.1,0.2,3.2
	c-0.7,2.1-2.3,2.2-4,0.3c-0.6-0.7-0.8-2.3-2-1.8c-1.1,0.4-1.6,1.8-1.8,3c-1.1,6-2.4,11.9-3.2,17.9c-3.4,24.8-3.7,49.8-3.3,74.8
	c0,0.3,0.1,0.6,0.1,0.9c0.9-0.3,0.8-1.1,0.9-1.6c4-14.7,10-28.5,17.1-42c0.4-0.8,1-1.5,1.2-2.4c0.3-1.2,0.9-2.5,0.5-3.5
	c-0.5-1.6-1.9,0-2.9-0.2c-0.8-0.1-1.6-0.1-1.9-1c-0.4-1.1,0-2.2,0.9-2.6c3-1.3,2.2-3.1,1.5-5.5c-1.4-5,0.3-9.2,4.3-12.3
	c1.7-1.3,2.4-2.5,2.3-4.6c-0.1-4,1.1-4.6,4.5-2.6c1,0.6,1.3,0.1,1.9-0.5c0.6-0.6,1.3-1.2,2-1.7c0.7-0.5,1.7-0.8,2.5-0.3
	c0.9,0.6,0.6,1.5,0.4,2.4c-0.1,0.5-0.2,1-0.4,1.9c0.8-0.3,1.3-0.5,1.8-0.6c1.4-0.4,3.2-1.6,4.2,0.1c1,1.7-0.7,3-1.9,3.8
	c-2.7,2-3.1,3.8-1.9,7.1c2.2,6-1.4,11.5-8.6,14.6c0,0.2,0,0.4,0.1,0.6c0.6,1.3,3,2.3,1.8,3.8c-1.1,1.4-2.9-0.1-4.2-0.7
	c-1.2-0.7-2-0.6-2.8,0.6c-0.6,0.9-1.5,1.7-2,2.6c-8.4,16.2-16,32.7-19.7,50.8c-2.1,10.4-0.3,20.7,0.1,31.1c1.3-0.1,1.1-1.1,1.3-1.7
	c2.9-9.5,6.3-18.9,10.3-28c4.5-10.2,12.4-17.6,19.8-25.6c0.5-0.6,1.1-1.2,2-0.8c0.9,0.4,0.7,1.3,0.6,2.1
	c-1.4,12.4-2.8,24.9-7.4,36.6c-1.9,5-5.7,8.6-9.5,12.2c-4.7,4.5-10.6,7.7-14.8,12.7c-1.2,1.4-1.6,2.8-1.4,4.5
	c1.3,13.4,2.5,26.8,4.3,40.2c0.2,1.5,1.3,4-0.6,4.3c-2.1,0.3-1.4-2.5-1.6-4c-0.9-7-1.7-14-2.3-21.1c-0.3-3.1-1.4-5.5-4.1-7.1
	c-0.5-0.3-0.9-0.7-1.4-0.9c-14.4-7.5-24.2-19.3-31.5-33.5c-2.5-4.8-5-9.6-7.5-14.4c-0.4-0.8-1.2-1.8-0.3-2.7c1-0.9,1.9,0,2.6,0.5
	c10.3,7.2,20.7,14.4,30.3,22.6c4.4,3.8,6.9,8.8,9.8,13.8c-0.5-5.6-0.6-11.3-1.6-16.8c-1.8-9.5-5.1-18.5-8.2-27.6
	c-0.4-1.3-0.9-2.5-2.6-2.5c-6.6-0.1-11.8-3.4-16.7-7.4c-9.5-7.8-16.9-17.5-23.5-27.7c-0.5-0.8-1.5-1.7-0.4-2.6
	c0.9-0.8,1.6,0.1,2.3,0.6c4.1,2.6,8.4,4.9,12.9,6.8c8.1,3.6,14.7,8.9,20.3,15.7c0.6,0.7,1.3,1.5,2.3,2c-2.6-6.5-5.1-13.1-7.7-19.6
	c-4.2-10.4-8.6-20.9-12.9-31.3c-0.4-1-0.9-2-1.5-3c-1.1-1.9-2.4-3.1-4.7-1.3c-0.8,0.6-2.1,1.4-3,0.3c-0.9-1.1,0.2-2.1,0.9-2.9
	c1.1-1.3,0.5-1.6-0.7-2.3c-7-3.3-9.3-9.5-6.2-16.4c0.5-1.1,0.6-1.8-0.4-2.5c-0.4-0.3-0.7-0.5-1-0.9c-1.2-1.5-3.5-2.3-3.2-4.7
	c0.2-1.1,1.8-1,5.7,0.4c0.1-0.2,0.3-0.4,0.3-0.5c0-1.3-1.7-2.8,0.1-3.9c1.7-0.9,2.9,0.4,4,1.6c0.8,0.9,1.2,1.6,2.5,0.4
	c2.1-1.8,4.1-1,4,1.9c-0.1,3.1,1.3,4.7,3.4,6.5c3.7,3.4,4.6,7.7,2.9,12.4c-0.6,1.8-0.9,3,1.2,3.9c1.1,0.5,2.1,1.5,1.7,2.9
	c-0.5,1.6-1.9,1.2-3.1,1c-1.7-0.3-1.8,0.5-1.7,1.9c0.1,2.4,1.1,4.5,2,6.6c10.9,25.8,21.4,51.7,29.9,78.4c0.1,0.2,0.2,0.4,0.7,1
	c0-1.9,0-3.3,0-4.7c-1.1-29.5-1.1-59,2.8-88.4c0.5-3.7,0.9-7.5,1.8-11.1c1-3.9,0.1-7.7,0.4-11.5c0.1-0.9-0.4-1.4-1.2-1.7
	c-0.8-0.2-1.5-0.3-2.2-0.6c-1.2-0.5-3.1-0.7-3-2.2c0-1.7,2-1.2,3.2-1.6c0.7-0.2,1.5-0.2,2.3-0.3c0.4-1.1-0.5-1.6-0.8-2.4
	c-3.7-7.1-0.8-15.8,6.5-19c2.1-0.9,2.6-1.9,2.2-4c-0.3-1.6-0.3-3.3-0.3-4.9c0-1.1,0-2.4,1.3-2.7c1.4-0.4,2.3,0.7,2.9,1.8
	C80,12.9,80.5,14.1,81.2,15.5z M86.4,33.3c0.1-5.7-3.5-10.1-8.5-10.3c-5.3-0.2-10.4,5.2-10.5,11.2c-0.1,5.5,3.9,10.1,8.8,10.1
	C81.5,44.4,86.2,39.3,86.4,33.3z M70.1,186.9c10.4-15.6,18-32.6,25.1-49.8C80,150.3,75.8,169,70.1,186.9z M31.4,65.7
	c0-5.2-4.1-9.8-8.8-9.8c-4.2,0.1-7.1,3.3-7.1,8c0,4.9,4.2,9.5,8.8,9.5C28.2,73.4,31.4,69.9,31.4,65.7z M84.7,85.4
	c-0.3,4.3,2.9,8,6.9,8.2c4.6,0.2,8.9-4.2,9.1-9.2c0.2-4.2-2.8-7.8-6.8-8C89.3,76.1,85,80.3,84.7,85.4z M61.5,204.4
	c-9.5-13.7-20.8-25.9-32.3-38C37.1,181.5,44.7,196.8,61.5,204.4z M76.4,182.4c17.1-9.6,18.7-26.1,20.9-42.3
	C90.7,154.1,84.2,168.2,76.4,182.4z M34.8,168c10.3,11.7,20.6,23.4,30.1,36.4C62.7,185.3,47.8,177.4,34.8,168z M50.8,141.3
	c-6.5-10.2-14.8-18.4-26.5-22.4C32.6,126.8,41.3,134.5,50.8,141.3z M50.3,144.9c-9.3-7.3-17.8-15.5-27.2-22.7
	C30.5,131.8,38.1,141.1,50.3,144.9z"/>
</svg>
