<?xml version="1.0" encoding="utf-8"?>
<!-- Generator: Adobe Illustrator 25.3.0, SVG Export Plug-In . SVG Version: 6.00 Build 0)  -->
<svg version="1.1" id="Layer_1" xmlns="http://www.w3.org/2000/svg" xmlns:xlink="http://www.w3.org/1999/xlink" x="0px" y="0px"
	 viewBox="0 0 102.1 224.8" style="enable-background:new 0 0 102.1 224.8;" xml:space="preserve">
<path d="M68.6,107.9C73.5,96.2,82.4,88.6,92,81.6c3.5-2.6,5.2-2.5,5.5,2.6c1.3,21.6-4.3,40.8-20.2,56.2c-6.2,6-9.4,12.2-9.1,21.5
	c0.5,16.2-0.8,32.4-1.5,48.6c-0.2,4.5-0.5,9-3.3,14.4c-1.9-4-1.4-7-1.4-9.8c0.2-14.1,0.4-28.3,0.9-42.4c0.1-3.7-0.1-6-4.2-7.6
	c-26.3-10.6-34.2-33-36.8-58.5c-0.6-5.5,2.3-7.1,7.8-3.3c11.7,8.1,22.1,17.6,29.7,29.8c0.8,1.3,1.5,2.6,3.3,5.7
	c0.1-24,0.6-46.1-5.5-68.3c-14.9,14.3-30.1,5.7-44.9,1c-6.3-2,0.2-4.8,0.9-7.4C8.4,59.8-2.6,60.6,0.5,49.8c2.3-8,9.2-8.6,16.7-7.9
	c-2.2-5.2-4.1-10-4.2-15.2c-0.2-8.5,3.1-12.3,11.5-13.3c2.8-0.3,5.5-0.5,8-2.2c10.7-7.1,13.5-6.9,23,0.9C57,9.4,58.1,6.5,59.8,4
	c2.1-3.3,5.2-5.2,9.2-3c2.2,1.2,4.4,1.2,6.7,1.2C85.6,2,89.1,5.6,88.8,15.5c-0.1,3-0.8,6.1-1.2,9.3c3,1.3,6-0.1,8.9-0.4
	c5.1-0.4,6.1,1.6,5.5,6.4c-2.6,20.4-16.5,30-34.1,35.4c-5,1.5-6,3-4.7,7.8C66.2,84.9,67.1,96.4,68.6,107.9z M88,89.2
	c-12.9,11.9-19.4,26.5-19,44C75.8,120,81.9,106.5,88,93c0.5-1.2,0.6-2.5-0.2-3.6c0.1,0.1,0.2,0.2,0.3,0.3C88,89.5,88,89.3,88,89.2z
	 M53.2,33.4c-0.3-4.2-0.3-8.9-1.1-13.4c-1.5-8.8-7.6-11.3-15.1-6.3c-2.8,1.8-5.1,4.5-8.8,4.1c-9.5-1.2-12.6,5.4-9.9,14.7
	c2.9,9.9,11.9,14.3,19.2,20c2.1,1.6,5.8,1,9.2-0.7C55.2,47.6,52.6,40.3,53.2,33.4z M58.1,31c0,5.8-0.1,9.7,0,13.5
	c0,1.2-0.7,2.7,0.7,3.4c1.6,0.8,3,0.1,4.1-1.1c3.8-3.8,7.2-8,11.4-11.3c5.9-4.7,8.1-11,9.1-17.9C84.8,8.6,83,6.7,74.1,6.5
	c-1.8,0-3.9,0.2-5.2-0.6c-4.3-2.7-5.9-0.2-7.6,3.1C57.5,16.6,57.6,24.7,58.1,31z M61,60.6C78.1,60.3,93.5,48.2,95.8,35
	c1-5.9-1.9-6.7-5.7-4.7C77.2,36.9,66.8,46,61,60.6z M18.9,67.7c5.7,3.1,11.5,4.1,17.3,5c5,0.8,9.5,0.3,13.8-2.9
	c3.2-2.5,3.5-4.2,0.4-7.1C42,54.7,29.9,56.3,18.9,67.7z M28.9,117.5c2.6,21.3,13.6,35.7,34,42.8C52,145.7,38.5,133.1,28.9,117.5z
	 M61,150c-4.1-18.9-18-30.1-31.8-41.4C36.7,124.7,49.1,137.1,61,150z M30.2,53.7c-3.9-5.3-14.5-9.5-20-7.7c-2.8,0.9-5,2.8-5.4,5.9
	c-0.4,3.2,2.6,3.3,4.4,4.5C17.1,61.9,23.6,57.8,30.2,53.7z M72.1,136.9c13.6-11.3,20.4-25.8,19.7-43.6
	C85.2,107.8,78.7,122.3,72.1,136.9z"/>
</svg>
