<?xml version="1.0" encoding="utf-8"?>
<!-- Generator: Adobe Illustrator 25.3.0, SVG Export Plug-In . SVG Version: 6.00 Build 0)  -->
<svg version="1.1" id="Layer_1" xmlns="http://www.w3.org/2000/svg" xmlns:xlink="http://www.w3.org/1999/xlink" x="0px" y="0px"
	 viewBox="0 0 187.1 248.5" style="enable-background:new 0 0 187.1 248.5;" xml:space="preserve">
<path d="M113.3,136.7c4.3-2.2,8.4-4.5,12.7-6.4c0.7-0.3,1.4-0.8,1.8-1.5c5-9.8,14.2-13.4,24.1-15.6c7.3-1.6,14.7-1.6,21.9,0.7
	c1.2,0.4,2.9,0.5,3.2,2c0.4,1.9-1.5,2-2.5,2.7c-4.2,2.7-7.7,6.2-11.4,9.6c-10.2,9.3-21.4,11.8-34,5.4c-1.5-0.7-2.7-0.8-4.2,0
	c-2.9,1.6-6,2.8-9.2,5.4c7.4,0.7,13.9,2.5,20.1,5.3c4.6,2,8.8,4.6,11.5,9.1c1.3,2.1,1,2.8-1.4,3c-9.5,1.1-19,1.7-28.5,0.1
	c-5.7-0.9-10.5-3.2-13.4-8.9c-7,5.6-13.1,11.7-16.9,19.7c-1.5,3.1-2.1,6.3-2.3,9.7c-0.9,16.1,1.6,31.8,5.6,47.4
	c0.9,3.6,1.9,7.3,2.7,10.9c0.3,1.1,0.8,2.6-0.9,3c-1.7,0.4-1.9-1.2-2.1-2.3c-2.9-11.4-6.1-22.8-7.4-34.6c-0.4-3.6-2.4-6.3-4.3-8.9
	c-4.6-6.2-10.3-11.2-16.6-15.7c-0.8-0.5-1.6-1.8-2.7-0.4c-3.8,5.3-9.5,6.7-15.4,7.8c-6.4,1.2-12.8,1.6-19.2,0.4
	c-1.5-0.3-3.7-0.1-4.2-1.8c-0.5-1.6,1.1-2.9,2.2-4c5.6-5.9,12.7-8.8,20.5-10.4c1.1-0.2,2.1-0.3,3.2-0.5c0.2,0,0.5-0.2,0.9-0.5
	c-1.9-2.2-3.8-3.2-6.9-2.4c-4.2,1-8.3,0.1-12.1-2c-10.3-5.7-16.1-14.7-18.1-26.2c-0.7-4.1-0.1-4.5,3.6-3.3
	c7.8,2.5,15.3,5.8,21.9,10.8c5.3,4,9.8,8.5,9.2,15.9c-0.1,1.1,0.4,1.8,1.3,2.3c2.6,1.7,5.1,3.3,8.3,5.4c-2.5-11,0.7-20.3,6-29.1
	c0.5-0.8,1-1.6,1.6-2.3c0.9-1.1,1.5-3.1,3.2-2.6c1.6,0.4,1.2,2.5,1.4,3.8c1.2,7.4,2.2,14.9,1.8,22.4c-0.4,6.5-1.6,9.1-6.3,13.5
	c6.4,5.7,13.6,10.4,19.2,17.1c0.9-1.4,0.5-2.6,0.5-3.7c0.4-22.7,0.7-45.4,3.3-67.9c1-9.1,2.8-18,5.5-26.8c0.5-1.7,1-3.1-0.9-4.5
	c-2.3-1.6-3.1-4.5-3-7.2c0.1-3-1.2-4.3-3.8-5.6c-16.6-8.4-27-21.6-30.3-40.1c-1.2-7,0.5-13.7,3.4-19.9c2.8-6,7.4-6.6,12.2-2.1
	c5.9,5.5,5.9,5.5,12.8,1.1c4.2-2.7,8.6-0.9,9.9,3.9c1.7,6.4,5.7,7.7,10.8,3.3c1.6-1.4,3.4-2.7,5.4-3.5c4.8-2.1,5.4-1.8,7.3,3
	c1,2.7,2.9,4,5.9,3.7c2.8-0.3,5.4-1.6,8-2.6c2.6-1,5.2-2.2,8-2.7c6.6-1.2,10.1,1.7,9.5,8.2c-1.7,19.5-11.1,34.4-27.3,45.1
	c-3.7,2.5-7.8,4.1-12.2,5.1c-1.8,0.4-2.7,1.2-3.4,2.9c-1.6,4.1-3.2,8.4-8.5,9.3c-1.4,0.2-1.3,1.6-1.5,2.6c-3.2,17.8-6.6,35.6-7,53.8
	c-0.1,5.5,0,10.9,0,16.7c4.2-6.5,9.7-12,15.6-16.9c1-0.8,0.7-1.5,0-2.3c-5.6-6.7-4.9-13.8-1.4-21.1c3.4-7.2,8.5-13.4,12.3-20.3
	c0.3-0.6,0.8-1.3,1.5-1.1c0.9,0.3,1,1.2,1,2C115.7,114.4,118,125.7,113.3,136.7z M85,70.5c-4.6-22.3-5-42.5-0.5-48.8
	c-0.2,3.6-0.2,6.5-0.4,9.3c-0.8,11.2-0.4,22.2,2,33.2c0.8,3.7,2.3,7.2,5.5,9.5c0.9,0.6,2,1.2,3,0.7c1-0.5,0.4-1.7,0.4-2.6
	c-0.3-9.2-0.6-18.5,0.6-27.7c0.7-5.8,2.3-11.4,4.1-17.3c-1.5,0.3-2.5,0.6-3.5,0.8c-4.1,0.5-7-1.8-7.6-5.9c-0.7-4.7-3.4-6-7.6-3.7
	c-1.8,1-3.3,2.3-5.2,3c-1.8,0.7-2.4,1.7-2.7,3.5c-2,9.9-1.7,19.7,1.1,29.4C76,60.2,78.9,66,85,70.5z M97.8,59.7
	c0,3.6-0.1,7.2,0,10.8c0.1,1.7-1.5,4,0.9,5c2,0.9,3.4-1,4.9-2.1c0.9-0.7,1.9-1.5,2.7-2.4c11.3-11.6,14.7-26.3,16.8-41.6
	c0.2-1.7-0.6-1.9-2.1-1.9c-6.2,0-7-0.5-8.9-5.9c-0.7-2.1-1.8-2.5-3.6-1.9c-3.2,1.1-5.3,3.3-6.4,6.6C98.5,37.3,98.1,48.5,97.8,59.7z
	 M107.1,73.9c1.3,0.5,2,0.1,2.7-0.2c9.2-3.2,15.8-9.4,20.9-17.4c6.1-9.5,9.3-20.1,12.2-31c0.8-2.9-1.1-3.7-3.1-4.1
	c-5.1-0.9-9,2.2-13.1,4.3c-2.7,1.4-1.6,4.3-1.8,6.6C123.3,47.9,119.6,62.6,107.1,73.9z M77,67.6c-7.2-13.5-8.5-27.8-5.9-42.5
	c0.5-3,0.4-5.2-1.8-7.2c-2-1.9-3.6-4.9-6.8-4.3c-3.3,0.6-3.6,4-4.5,6.6C52.8,35.9,61.8,58.6,77,67.6z M130.5,131.8
	c7.8,2.8,15.1,3.4,22.3,0.2c7.7-3.4,12.7-10.3,19.5-15.4c-13.7-4-31.9,1-39.4,10.7c5.1-1.2,9.7-2.8,14.6-3.5c1-0.1,2-0.2,2.3,0.9
	c0.3,1.3-0.8,1.5-1.7,1.7c-1.8,0.4-3.7,0.7-5.5,1.2C138.6,128.8,134.6,129.5,130.5,131.8z M13,135.2c1.5,14.9,15.5,29,26.1,26.5
	c-1.5-2-4.3-2.6-5.4-5.4c3.3-0.2,5.2,2.5,8.7,3C37.7,144.4,24.6,141.1,13,135.2z M142.5,153c-5-3.8-9.6-6.5-14.6-8.4
	c-4.9-1.9-10-3-15.3-2.2c-1.6,0.2-3,0.9-4.3,1.9c-1.9,1.3-1.6,2.4-0.3,3.9c3,3.6,7,5.2,11.5,5.9C126.8,155.3,134.2,153.6,142.5,153z
	 M112.8,108.2c-4.8,6.7-10.1,13-11.9,21.3c-0.5,2.3-0.4,4.5,0.2,6.7c0.6,2.2,0.9,5.3,3,5.7c2.2,0.4,3.5-2.5,4.7-4.4
	C115,128.5,113.8,118.4,112.8,108.2z M23.9,181.2c6.3,0,12,0.3,17.7-0.1c4.7-0.3,9.2-1.8,13-4.8c0.9-0.7,2.5-1.4,2.1-2.6
	c-0.4-1.2-1.9-1.7-3.3-1.9C42.3,170.5,32.5,173.4,23.9,181.2z M64.2,138.7c-4.2,7.3-7.2,13.9-7.4,21.5c-0.1,2.5,0,5.1,0.6,7.6
	c0.8,3.3,1.6,3.5,4.2,1.3c2.3-1.9,3.5-4.4,3.9-7.3C66.7,154.3,65.3,147,64.2,138.7z M88.8,78.9c0.4,2.9,0.7,5.1,2.6,6.5
	c1.7,1.2,3.5,1.4,5.2,0.2c2.2-1.5,3.6-3.6,4-6.2c0.2-1.2-1.1-0.8-1.8-0.8c-2.7,0-5.4,0-8-0.6C89.1,77.4,88.6,78.1,88.8,78.9z"/>
</svg>
