<?xml version="1.0" encoding="utf-8"?>
<!-- Generator: Adobe Illustrator 25.3.0, SVG Export Plug-In . SVG Version: 6.00 Build 0)  -->
<svg version="1.1" id="Layer_1" xmlns="http://www.w3.org/2000/svg" xmlns:xlink="http://www.w3.org/1999/xlink" x="0px" y="0px"
	 viewBox="0 0 204.3 247.9" style="enable-background:new 0 0 204.3 247.9;" xml:space="preserve">
<g>
	<path d="M181.7,64.6c-10.3-8.2-22.2-12.6-34.6-16.2c-5.3-1.5-10.7-2.4-16.8-3.6c3.3-1.4,6-1.8,8.7-2.3c15.2-2.9,30-2,43.7,6
		c1.5,0.9,3,1.9,4.5,2.7c2.8,1.5,6.1-0.3,5.4-3.3c-0.7-2.9-0.9-6.1-2.9-8.7c-3.7-4.7-8.7-7.4-14.3-9.1c-16.8-5.2-31.9-1.5-45.6,9
		c-2.6,2-2.6,2-3.2-1.2c-1.5-8.1-4.4-15.7-9.7-22c-7.3-8.6-18.6-7.7-24.3,2.1c-5.5,9.5-7.7,19.7-4.6,30.6c0.4,1.4,0.7,2.2-1.4,1.8
		c-23.2-4.7-44.9,10.4-48.7,33.8c-0.6,3.6-0.8,7.2,0,10.7c0.5,2.6,1.2,5.1,4.6,5.4c0.5,0,0.9,0.6,1.3,0.9c3.3,3,5.8,2.5,7.6-1.7
		c0.4-0.9,0.8-1.9,1-2.9c2.9-13.8,11-24.4,20.9-33.8c0.5-0.5,0.9-1.4,1.9-1.1c-3.8,4.4-7.4,8.9-10.2,13.9c-5.2,9.1-8,18.8-6.7,29.4
		c0.4,2.9,0.6,5.4,4.1,7.1c3.9,1.8,5.4,2,7.4-1.9c0.6-1.2,1.1-2.5,1.6-3.8c3.5-9.6,6.9-19.2,10.4-28.9c0.3-0.8,0.2-2.2,1.6-2.2
		c-0.3,0.6-0.6,1.1-0.8,1.7c-3.7,15.3-3.8,30.7-1.1,46.2c0.4,2.1,1.1,4.1,2.5,5.8c1.8,2.1,3.8,1.9,5-0.5c0.4-0.7,0.4-1.7,1.4-1.8
		c3.1-0.3,3.8-2.6,4.4-5c0.7-2.4,0.8-4.9,1-7.4c1-13.9,1.3-27.8,1.1-41.8c-0.1-5.1,1.1-10.1,2.8-14.9c0.2-0.6,0.4-1.7,1.3-1.5
		c1.1,0.2,0.7,1.3,0.6,2.1c-0.1,0.4-0.2,0.7-0.2,1.1c-5,19.7-4.6,39.7-2.4,59.7c0.6,5.4,1.7,10.1,7,13.1c3.2,1.8,6.1,1.7,8-1.6
		c1.1-1.9,1.5-4,1.8-6.1c0.5-4,0.9-8,1.3-12.2c0.9,0.8,0.7,1.8,0.8,2.7c1.6,19.3,2.7,38.7,1.7,58.1c-0.8,15.1-2.3,30-7.6,44.3
		c-1.4,3.7-2.5,7.5-3.8,11.3c-0.2,0.7-0.4,1.6,0.5,1.9c1,0.3,1.2-0.7,1.3-1.4c1.9-7.2,6-13.2,10.2-19.2c2.1-3,4.2-5.3,8.3-3.4
		c1.5,0.7,3.5-0.2,5,1c6.1,4.6,16.1,4.9,22.3,0.6c2.8-1.9,2.9-4.8,0.4-6.9c-1.2-1-2.6-1.8-4.2-1.9c-5.6-0.4-11,0.1-15.5,3.7
		c-2.6,2.1-5.2,2.5-8.2,1.7c-0.8-0.2-1.8,0.2-2.1-0.9c-0.2-0.8,0.6-1.3,1.2-1.7c4.2-4.1,8.5-8.2,12.8-12.3c0.8-0.8,1.8-1.3,2.9-1.3
		c4.5,0,8.7-1.3,12.8-3.1c2.2-1,4.5-1.4,7-1.4c5.5,0,10.9-0.9,15.7-3.7c3.8-2.2,5.5-5.7,4.3-8.6c-1.1-2.8-4.7-4-8.9-2.9
		c-6,1.6-10.5,5.3-13.7,10.5c-3.8,6.1-10.3,5.9-16.3,7.6c0.1-1.7,1-2.2,1.5-2.8c4.5-5.2,8.9-10.4,12-16.6c2.8-5.6,7.3-8.9,13.3-10.3
		c4.9-1.2,8.7-3.9,11.7-7.9c1.5-2.1,3.2-4.4,1.3-7c-1.3-1.9-4.6-1.7-7.6,0.2c-0.5,0.3-0.9,0.6-1.4,1c-3.6,2.7-6,6.2-7.3,10.5
		c-0.7,2.4-2.2,4.1-5.2,4.7c2-4.9,2.7-9.9,6.2-13.7c2.7-3,4.1-6.8,4.8-10.8c0.6-3.3-0.4-6.2-2.3-6.4c-2.9-0.4-4.3,1.8-5.2,4.1
		c-1.5,3.6-2.2,7.5-2.1,11.4c0.2,10-4.6,18.1-9.3,26.2c-0.3,0.5-0.5,1.1-1.1,1.1c-0.6-0.1-0.7-0.8-0.8-1.3
		c-1.4-5.3-2.5-10.5,1.2-15.6c2.4-3.3,4.1-7.3,4.7-11.4c0.4-2.4,0.8-5.1-1.9-6.3c-2.8-1.2-4.7,0.7-6.3,2.8
		c-3.1,4.1-4.7,8.8-3.2,13.8c2,6.2,2.2,12.7,4.3,18.8c0.4,1.2,0.5,2.4-0.3,3.4c-5,6.6-10.4,12.7-16.5,18.2c-1.3,1.2-1.9,0.5-2.1-0.9
		c-0.5-3.4-0.4-6.8,0.2-10.2c0.2-1.2,1-2.2,2-2.9c5.4-3.8,7.9-9.3,9.5-15.4c0.4-1.5,0.8-3.2-0.7-4.4c-1.5-1.2-3.1-0.5-4.7,0.3
		c-5.9,3.2-9,9.9-8.1,17.5c0.2,1.7,0.3,3.3,0.1,5c-0.6,3.9-0.7,7.7,0.2,11.6c0.3,1.2,0.4,2.4-0.6,3.4c-5.1,4.8-9.9,9.9-14.1,15.5
		c5.1-19.3,6.2-39,5.8-58.8c-0.5-19.7-1.2-39.5-4.5-59.1c0.7,1.1,1.1,2.2,1.5,3.3c3.6,9.9,7.4,19.7,13.6,28.4c2.4,3.3,5,5.6,9.7,4.9
		c4.3-0.7,6.7-2.5,6.4-6.9c-0.8-12.3-3.6-24.1-10.4-34.6c-7.1-11-14.5-21.8-22.3-32.3c-0.6-0.9-2.3-1.8-1.3-2.9
		c0.8-0.9,1.9,0.6,2.7,1.1c3.4,2.2,6.4,5,9.1,8c7.1,7.9,12,17.2,16.7,26.7c4.3,8.8,8.6,17.6,14.6,25.4c1.3,1.7,2.6,3.4,4.4,4.5
		c2.1,1.3,3.7,0.6,3.9-1.8c0.1-1.6,0.9-2.5,2.2-3.2c3.5-1.8,4.3-3.2,3.8-7.1c-0.5-4.4-1.9-8.5-4.2-12.2C157.3,79,144,65.2,127.9,54
		c-0.8-0.6-2-0.8-2.4-2.2c0.6,0,1,0,1.3,0.1c16.7,2.9,30.3,10.8,40.2,24.6c4.4,6.1,8.7,12.4,13.1,18.5c1.2,1.7,2.6,3.5,4.8,3.2
		c2.5-0.4,4.8-1.7,7.5-1.6c0.7,0,1.1-0.9,1.2-1.7c0.2-1.4,0.5-2.7,0.6-4.1C194.9,79.9,190.2,71.4,181.7,64.6z M138.6,35.6
		c13.3-7.3,27-8,40.9-1.9c3.3,1.4,6.1,3.4,8.3,6.3c0,0,0,0,0,0c-0.5,0.2-1,0-1.5-0.3c-12.2-7.8-25.5-8.2-39.2-5.4
		c-3.1,0.6-6.2,1.6-9.3,2.4C137.8,35.9,138.3,35.8,138.6,35.6z M133.7,40c11.6-4.1,23.3-7,35.8-5c5.9,1,11.4,2.9,16.4,6.4
		c1.7,1.2,3,2.7,4.3,4.3c1.3,1.7-0.1,2.5-0.8,3.5c-0.8,1.3-1.6,0.2-2.3-0.3c-16-10.5-33.4-11.8-51.6-7.6c-1.4,0.3-2.8,0.6-4.8,1.1
		C131.7,40.9,132.7,40.4,133.7,40z M141.3,204.4c-1.3,0.1-2.5,0.5-3.8,0.2c3.5-3.9,13.4-4.6,16.4-2.9c2.6,1.5,3.1,3.6,0.8,4.9
		c-5.3,2.9-10.9,3.8-16.7,1.8c-0.4-0.1-0.8-0.4-1.2-0.7c-0.1-0.1-0.1-0.3-0.3-0.8c1.8-0.3,3.4-0.5,5-0.8c0.7-0.1,1.7-0.2,1.6-1.1
		C143,204,142,204.4,141.3,204.4z M178.1,170.3c2.7,0.5,3.9,2.7,2.7,5.1c-0.3,0.7-0.9,1.4-1.4,2c-2.9,2.8-10.5,4.9-15,4.1
		c2.6-1.8,4.9-3.3,7.2-4.9c0.5-0.3,1.2-0.8,0.7-1.5c-0.5-0.8-1.2-0.2-1.7,0.2c-2.6,1.6-5.1,3.5-8.2,4.9
		C164,175,173.2,169.4,178.1,170.3z M178.4,143.3c1.2-0.6,2.6-0.9,3.6,0.2c1.1,1.2,0.4,2.5-0.3,3.5c-2.5,3.7-5.5,6.8-10.8,7.9
		c1.6-1.9,2.8-3.2,3.9-4.6c0.3-0.4,0.6-1,0.1-1.5c-0.6-0.5-1,0-1.4,0.4c-0.9,1-1.8,2-2.8,3c-0.2-0.2-0.4-0.4-0.6-0.6
		C171.8,147.9,174.7,145.1,178.4,143.3z M166.8,133.5c0.6-1.6,1.1-4.2,3.4-3.6c2.1,0.6,1.1,3,0.9,4.6c-0.4,3.1-1.7,5.8-3.8,8.9
		c-0.1-2.1,1.1-3.6-1.3-4.5C165.2,138.6,166.1,135.3,166.8,133.5z M148.8,152.1c-1.7-4.4,0.3-11.3,3.9-13.9c0.8-0.5,1.6-1.1,2.5-0.6
		c1,0.5,1.1,1.5,1.1,2.4c0,2.1-0.5,4-1.3,5.9c-1.1,2.6-2.4,5.2-3.6,7.7c-0.8-2.8,0-5.3,0.5-7.9c0.1-0.7,0.6-1.6-0.4-1.9
		c-1-0.2-1.1,0.8-1.3,1.5C149.8,147.5,149.4,149.8,148.8,152.1z M139.6,160.8c1.3-0.7,3-0.9,2.6,1.1c-1.2,5.3-2.9,10.5-7.4,14.1
		c-0.1,0.1-0.3,0.1-0.8,0.2c0.2-2.8,1.6-5,2.4-7.5c0.3-0.7,1.1-1.6,0-2.2c-1.1-0.5-1.3,0.7-1.6,1.4c-0.9,2-1.7,4-2.5,6
		C132.2,168.1,134.4,163.7,139.6,160.8z M125.3,42c0.1,1.5-1.7,1.7-3,1.9c-1.1-0.1-2.5-0.1-2.5-1.5c0-1,0.3-2.9,1.8-2.5
		C122.9,40.3,125.2,40,125.3,42z M124.8,37.2c0,0.8-0.2,1.4-1,1.3c-1-0.1-2-0.7-2-1.8c0-1,1.1-1.6,1.9-1.6
		C124.9,35.1,124.6,36.4,124.8,37.2z M123.1,31.4c0,2.1-1.6,2.9-3.2,3.2c-1.5,0-2.6-0.4-2.9-1.8c-0.2-0.7,2.7-4.4,3.3-4.3
		C121.9,28.8,123.1,29.7,123.1,31.4z M106,43.9c-1.8,0-3-0.8-3.4-2.5c-0.2-0.6,3.4-4.4,3.9-4.1c1.2,0.9,3.5,0.7,3.5,2.8
		C110.1,42,108,43.9,106,43.9z M112.3,49.5c0.9,0.9,0.4,1.9-0.4,2.3c-1.6,0.9-3.3,1.4-4.9,2c-0.9,0-1.6-0.2-2.1-0.9
		c-0.7-1,0.4-1.2,0.9-1.6c0.4-0.5,0.9-0.9,1.3-1.4C108.6,48,110.8,47.8,112.3,49.5z M87.3,64.1c0.2-0.3,0.3-0.6,0.5-0.9
		C87.9,63.7,87.8,64.1,87.3,64.1z M86.5,67c-0.1-0.5-0.2-0.9,0.3-1.2C86.7,66.2,86.6,66.6,86.5,67z M86.9,65.6
		c-0.1-0.5,0-0.9,0.3-1.3C87.4,64.8,87.3,65.2,86.9,65.6z M90.3,49.3c-0.2-1.7,1.2-3.1,1.8-4.4c1-0.1,4.1,2.8,4.1,3.5
		c0,1.8-2.1,4.4-3.6,4.4C90.5,52.6,90.5,50.6,90.3,49.3z M92,57.5c-1.2,1.9-2.1,4.2-4.1,5.6C88.8,60.8,89.9,58.8,92,57.5z
		 M92.9,41.2c0.5-1.5,1.8-3.6,3.1-3.3c1.5,0.3,3.3,1.7,3.8,3.6c0.3,1.4-1.9,3.5-3.4,3.4C95,44.9,92.5,42.4,92.9,41.2z M97.7,35.4
		c0-0.7,2.3-3,3.2-3c1.1,1,3,2,3.4,3.3c0.4,1.4-1.4,2.7-3.1,2.9C99.7,38.9,97.6,36.9,97.7,35.4z M101.8,27.6c-1.1,0.1-2-0.3-2.2-1.5
		c-0.1-0.7,3-3.5,3.9-3.3c0.9,0.1,1.4,0.8,1.6,1.6C104.4,26,103.7,27.4,101.8,27.6z M108.8,27.9c0.4,0.4,0.8,0.8,0.7,1.4
		c-0.1,2.5-3.7,4.6-5.7,3.3c-1.8-1.2-1.8-2.3,0-3.6C105.3,27.9,106.6,25.8,108.8,27.9z M108,35.2c-0.2-0.7,2.8-4.2,3.4-3.9
		c1.2,0.6,2.8,0.8,3,2.4c0.2,1.6-1.8,3.2-4.2,3.1C109.4,36.8,108.3,36.5,108,35.2z M112.2,28.6c-0.2-0.8,2.4-4.2,3.1-4.2
		c1.2-0.1,2.2,1.1,2.2,2.8c-0.1,1.7-0.5,3.3-2.7,3.4C113.5,30.6,112.5,30,112.2,28.6z M116.9,35.8c1.5,0.2,2.3,1.2,2.2,2.7
		c-0.4,1.5-0.6,3.4-2.9,3.2c-1.5-0.2-2.8-0.9-3.3-2.5C112.8,38.3,116.1,35.6,116.9,35.8z M119.6,24c0.9,0.4,1.2,1.1,1.2,2.1
		C119.8,25.6,119.3,25.1,119.6,24z M115.5,21.2c0.3-0.8,0.9-1.4,1.8-1.5c0.8,0.3,1.1,1,1,1.7c-0.1,0.9-0.8,1.3-1.6,1.2
		C116,22.6,115.2,22.2,115.5,21.2z M113.5,15.4c1.2-0.1,1.8,1.2,1.8,2.3c0.1,1.1-0.7,1.7-1.7,1.7c-0.9,0-1.7-0.4-2-1.5
		C112.1,16.9,112.3,15.4,113.5,15.4z M111.8,20.8c0.8,0.3,1.2,0.8,1,2.2c-0.2,0.5-0.5,1.5-1,2.3c-0.9,1.4-2.3,1.1-3.3,0.3
		c-1.3-1,0.2-1.4,0.6-2.1c0.4-0.6,0.8-1.2,1.2-1.8C110.6,21,111,20.5,111.8,20.8z M108.5,15.4c0.4-0.8,0-2.2,1.3-2.4
		c0.8-0.1,1.1,0.8,1.2,1.5c-0.1,1.1-0.7,1.7-1.7,1.8C108.7,16.3,108.2,15.9,108.5,15.4z M106,12.1c0.5,0,0.8,0.3,0.9,0.8
		c0,0.4-0.1,0.8-0.5,0.8c-0.5,0-0.8-0.5-0.8-1C105.6,12.5,105.8,12.1,106,12.1z M107.4,18c1,0,1.6,0.8,1.5,2c-0.4,1-0.6,2.4-2.2,2.2
		c-1-0.1-2.1-0.9-2-1.9C104.8,19,105.9,18,107.4,18z M102.3,17.3c0.2-1.1,0.9-1.8,1.9-2c0.4-0.1,0.8,0.4,0.7,1.1
		c-0.2,0.8-0.8,1.5-1.8,1.7C102.7,18.1,102.2,17.8,102.3,17.3z M101.7,20.5c0,1.1-0.8,1.9-1.9,2.1c-1.3,0.2-1.5-0.8-1.5-1.7
		c0-1,0.2-2,1.5-2.3C100.7,18.9,101.7,19.4,101.7,20.5z M97.6,15.7c0.2-0.9,0.6-1.8,1.6-2.1c0.5-0.1,0.7,0.5,0.7,1
		c0,1-0.2,1.8-1.3,2.1C97.9,16.8,97.5,16.4,97.6,15.7z M99.6,29.7c-0.6,1.7-1.6,2.9-3.3,3c-1.3,0.1-1.7-0.9-1.8-2
		c-0.2-2,1.2-3,2.7-3.3C98.5,27.2,98.9,28.7,99.6,29.7z M95.4,17.6c0.1-0.1,0.7,0.3,0.7,0.6c0.3,1.4-0.8,1.8-1.9,2.5
		C93.7,19,94.3,18.1,95.4,17.6z M92.7,24.4c0.1-1.9,1.7-2,3-2.2c1.2-0.2,1.5,0.9,1.4,1.8c-0.2,1.5-1.4,2.2-2.8,2.6
		C92.9,26.4,92.6,25.6,92.7,24.4z M90,28.7c0.2-0.7,0.2-1.5,1-1.8c0.2-0.1,0.6,0.3,0.8,0.6c0.6,0.8,0.4,1.5-0.2,2.2
		c-0.4,0.6-0.9,1.1-1.7,1.1C89.4,30.1,89.8,29.4,90,28.7z M88.6,36.4c0.1-2.2,2-4.4,3.7-4.2c1.4,0.2,2.1,1.7,2.3,3
		c0.3,1.3-2.6,3.9-4.1,3.9C88.6,39,88.5,37.6,88.6,36.4z M89.1,41.2c0.2-0.2,0.8-0.1,1,0.1c0.9,1,0.2,2.1,0,3.1
		c-0.1,0.3-0.4,0.5-0.7,1c-0.2-0.5-0.4-0.9-0.5-1.2C88.7,43.3,88.1,42.2,89.1,41.2z M43.1,95.6c-0.3,0.9-0.3,2.4-1.5,2.4
		c-1.3,0-1.5-1.5-1.8-2.5c-1.2-4.6-0.7-9.1,0.4-13.7c4.3-18.5,21.6-31.9,39.5-30.3c-5.1,2-10.1,4.1-14.5,7.2
		c-9.7,6.8-15.4,16.4-19.2,27.4C44.8,89.2,44,92.4,43.1,95.6z M66.2,67.5c-7.4,8.1-13,17.1-15.4,28c-0.3,1.4-0.8,2.8-1.4,4.2
		c-0.4,1-1.2,2-2.5,1.8c-1.2-0.2-1.9-1.2-2.2-2.3c-0.2-0.7-0.3-1.5-0.1-2.2c3-11.2,6.6-22.1,14.8-30.8c5.7-6.1,12.7-10,20.5-12.6
		c0.3-0.1,0.7-0.2,1.1-0.2c0.1,0,0.3,0.1,0.7,0.3C75.8,57.6,70.9,62.4,66.2,67.5z M75.9,61.2c-0.1-0.2,0-0.5,0.2-0.6
		C76,60.7,75.9,61,75.9,61.2z M79.8,57.8c0,0,0-0.1,0-0.1C79.8,57.7,79.8,57.8,79.8,57.8C79.8,57.8,79.8,57.8,79.8,57.8z M75.8,61.3
		c-0.2,0.1-0.3,0.2-0.5,0.4C75.3,61.4,75.5,61.3,75.8,61.3z M60.9,108c-6.4-14.8,10.8-48.4,27.3-53.3C72.8,69.3,66.1,88.1,60.9,108z
		 M69.4,106.6c-0.6,1.5-1,3-2,4.2c-1.3,1.6-3,1.4-3.8-0.5c-0.4-1-0.4-2.2-0.2-3.3c3.7-17.1,10.3-32.8,21.5-46.4
		c1-1.1,1.9-2.5,3.6-2.9c0.1-0.1,0.2-0.2,0.2-0.4c0.1,0.1,0.1,0.1,0.2,0.2c-0.1,0.1-0.2,0.2-0.4,0.3C80.1,73.2,75.7,90.3,69.4,106.6
		z M85.1,68.7C85.1,68.7,85.1,68.7,85.1,68.7C85.1,68.7,85.1,68.7,85.1,68.7C85.1,68.7,85.1,68.7,85.1,68.7z M85,69
		c0,0.4,0,0.9-0.3,1.2C84.8,69.8,84.9,69.4,85,69z M84.5,70.5c0,0.1-0.1,0.2-0.1,0.3C84.2,70.6,84.4,70.6,84.5,70.5z M83,74.2
		c0.1,0,0.2,0,0.2,0c0,0.4,0.1,0.8,0.1,1.2c0,0,0,0,0,0C83.2,75,83.1,74.6,83,74.2z M87.4,126.2c0,0.8,0.1,1.9-0.8,2.2
		c-1.1,0.4-1.6-0.6-2-1.5c-1.7-3.3-2.1-6.9-2.4-10.4c-1.2-13.5-1.3-26.9,2.4-40.1c1.6-5.6,4.1-10.9,7.5-15.6c0.7-1,1.3-2.2,3.1-3
		c-3.7,8.8-6.8,17.2-8.7,26c-2.5,12-2.4,24-0.6,36C86.2,122,87.5,123.9,87.4,126.2z M95,82.2c0.3,12.2-0.6,24.3-1.6,36.5
		c-0.1,1.4-0.6,2.9-1.1,4.3c-0.3,0.9-0.7,1.8-1.8,1.8c-1,0-1.3-0.9-1.7-1.6c-1.4-2.6-1.5-5.5-1.9-8.3c-2.3-18.6,1.2-36.4,8.7-53.4
		c0.1-0.3,0.3-0.6,0.5-0.9C94.7,67.7,94.8,74.9,95,82.2z M99.4,53.8c-1.4,0-2.7,1.2-4.4,0.5c0.8-1.2,1.5-2.2,2.3-3.2
		c0.5-0.7,1.1-0.6,1.6-0.1c0.7,0.8,2.2,0.9,2.2,2.2C101,53.8,100,53.8,99.4,53.8z M98.7,47.2c-0.2-1.5,1.6-3.2,2.6-3
		c1.8,0.3,3.9,1.5,5,2.9c0.8,1-2.1,3.5-4.1,3.5C100.5,50.4,99,49.1,98.7,47.2z M105.2,126.3c-0.1,0.8,0.1,1.8-1.1,1.9
		c-1.1,0.1-1.4-0.8-1.7-1.6c-1.2-2.9-1.6-6-1.9-9.2c-1.6-17.5-2.3-35,1.3-52.3c0.2-0.9,0.2-1.8,1.2-3c-0.6,6.4-0.8,12.3-0.7,18.2
		c0.2,9.7,2.4,19.2,3.2,28.8C105.9,114.9,105.9,120.6,105.2,126.3z M115,111.9c-0.1,4.2-0.8,8.4-1.2,12.7c-0.1,1.3-0.5,2.5-0.9,3.8
		c-0.7,2-1.8,3.9-4.4,3.2c-2.4-0.6-1.9-2.7-1.6-4.4c1.6-11,0.2-21.9-1.5-32.8c-1.7-10.8-1.8-21.7-0.7-32.6c0-0.2,0.2-0.4,0.3-0.7
		c0.9,0.2,1,0.9,1.1,1.5C111.2,78.7,115.6,94.9,115,111.9z M139.1,129.2c-0.8,0.5-1.6,0-2.2-0.6c-3.1-2.3-5-5.6-6.9-8.9
		c-5.8-10.2-9.7-21.3-13-32.5c-2.7-9.1-5.2-18.3-7.7-27.4c-0.4-1.3-0.9-2.6-0.6-4.9c2.7,3,4.5,5.8,6,8.7
		c8.5,15.7,14.4,32.5,19.8,49.4c1.5,4.6,3.1,9.3,4.7,13.9C139.4,127.7,140,128.6,139.1,129.2z M126.6,76
		c5.8,8.4,11.8,16.5,15.4,26.2c2.6,7.1,3.8,14.4,4.2,21.9c0,1,0,2.1-0.3,3c-0.4,1.2-1.4,2-2.7,2c-1.2,0-1.6-1.1-2-2.1
		c-3-7.3-5-15-7.5-22.6c-5.1-15.3-10.9-30.2-18.8-44.3c-0.1-0.2-0.1-0.4-0.2-0.6C119.2,64.6,122.8,70.4,126.6,76z M115.1,51.6
		c-0.2,0-0.5-0.3-0.5-0.5c-0.1-0.5,0.2-0.9,0.8-0.9c0.3,0,0.6,0.3,0.8,0.5C115.9,51.4,115.6,51.7,115.1,51.6z M113,47.5
		c-1.5-0.3-3.4-0.6-3.4-2.3c0-1.3,1.4-3.6,2.6-3.2c1.5,0.5,4.2,0.6,4.4,2.4C116.9,46.3,114.8,47.1,113,47.5z M116.8,48.1
		c0.6-1.3,1.2-3.1,3.2-2.8c0.9,0.1,2.1,0.2,2.1,1.6c-0.5,1.9-2.1,2.1-3.6,2.3C117.8,49.3,116.4,49.1,116.8,48.1z M117.3,53.1
		c1.5,0.7,2.9,1.4,3.7,2.9C119.4,55.5,118.1,54.6,117.3,53.1z M121.2,56.2c1.4,0.4,2.3,1.6,3.3,2.5C122.9,58.4,122,57.4,121.2,56.2z
		 M124.6,58.8c0.2,0.2,0.3,0.4,0.5,0.5C124.6,59.4,124.5,59.2,124.6,58.8z M125.1,59.4c0.3,0.1,0.4,0.2,0.4,0.5
		C125.2,59.9,125.1,59.7,125.1,59.4z M163.4,118.3c-1.8,1.2-3.2-1.7-4.4-3.2c-6.7-8.5-11.3-18.3-16.1-28
		c-4.7-9.4-9.9-18.5-17.1-26.3c-0.1-0.2-0.2-0.4-0.2-0.7c3.4,2.1,5.8,5.2,8.4,8.1c8.9,10.2,16.5,21.3,22,33.6
		c1.7,3.8,4.1,7.2,6.2,10.8C163.3,114.4,165,117.1,163.4,118.3z M137.8,63.7c9.4,8.5,18.1,17.6,25.3,28.1c3.2,4.7,5.5,9.8,6.6,15.4
		c0.3,1.5,0.4,2.9-0.4,4.3c-0.6,1.2-1.6,2-3,2.2c-1.4,0.2-1.8-1.1-2.4-2c-2.7-4.2-5.1-8.5-7.3-13c-8.6-17.6-20.2-33-35.5-45.4
		c-0.5-0.4-1-0.8-1.4-1.3c-0.1-0.1,0-0.3-0.1-1.1C126.2,54.9,132.4,58.8,137.8,63.7z M185.8,96.3c-1.5,0.8-2.7-0.2-3.5-1.4
		c-3.5-4.9-7.1-9.7-10.4-14.7c-11-17-26.2-27.3-46.4-30.3c-0.4-0.1-0.9-0.1-1.1-0.8c0.9-0.6,1.9-0.4,2.8-0.2
		c15.8,3.2,30.6,9,43,19.7c7.6,6.5,12.6,14.9,16.1,24.1C186.9,94,187.5,95.4,185.8,96.3z M192.4,91.8c-0.2,1.3-0.3,2.5-2,2.8
		c-2,0.4-1.8-1.3-2.1-2.2c-4.7-12.1-11.6-22.5-22.5-29.8c-10.6-7.1-22.2-12.1-34.6-14.8c-0.6-0.1-1.2-0.3-1.8-0.4
		c3.5-0.6,6.9,0.2,10.3,1c13.9,3.4,27.6,7.6,39.3,16.4c7,5.2,12.1,11.5,13.4,20.5C192.6,87.4,192.7,89.6,192.4,91.8z"/>
	<path d="M105,168.6c-0.8-0.2-1.2,0.4-1.5,0.9c-3,4.5-6.5,8.8-8.6,13.8c-2.1,5-3.2,10.2-0.1,15.1c1.7,2.8,0.9,4.5-1,6.5
		c-0.8-0.7-0.7-1.4-0.8-2.1c-1.2-10.9-4.4-21.2-9.4-31.1c-1.5-3-1.5-6.9,0.2-10.1c2.2-4.1,1.8-7.8-0.5-11.5
		c-2.6-4.1-6.6-6.7-10.4-9.4c-1-0.8-2.3-0.5-1.9,1c1.7,6.9,1.9,14.4,8.2,19.4c2.3,1.8,2.5,3.5,1.5,6.1c-3.5-4.9-7.1-9.6-11.7-13.3
		c-4.9-4.1-10.3-7.4-16.9-7.4c-4.4,0-8.2-1.3-11.6-3.8c-2.7-2-5.6-2.3-8.7-1.6c-3.7,0.9-6.9,2.9-10.1,5.1c-1.2,0.8-1.4,1.7,0.1,2.4
		c6.6,3.1,13.1,3.9,19.1-1.4c0.9-0.8,1.9-1.4,3.2,0.1c-6.7,2.7-10.5,8-13.7,13.8c-1.1,1.9-2,4-3,5.9c-1.3,2.4-3.2,4.2-5.9,4.4
		c-6.3,0.4-9.9,3.3-11.4,9.4c-0.4,1.6,0,2.1,1.7,2.2c6.6,0.3,9.8-2,11.6-8.6c0.3-1.1,0.5-2.1,2.2-2.3c-1,3.1-0.6,6.6-2.8,9
		c-2.6,2.9-3.9,6.3-4.5,9.9c-0.7,4.1-1,8.3,0.7,12.3c0.9,2.3,2,2.3,3.5,0.4c1.7-2.3,3.4-4.6,4.6-7.2c1.9-4.2,2.8-8.7,0.4-12.8
		c-1.8-3.1-1.6-5.9-0.7-8.9c1.1-3.4,1.9-6.8,4-9.9c1.8,3.8,1.8,3.8,0.3,7.3c-0.4,1-0.7,2.1-0.7,3.2c-0.1,7.6,4.3,12.7,9.7,17.2
		c1.1,0.9,2.1,0.6,2.3-1c0.3-3.9,0.7-7.7,0.6-11.6c-0.1-4.4-1.9-8-6.2-10c-3.7-1.7-5.3-6.7-3.3-10.3c1.6-2.9,3.7-5.5,6.3-7.7
		c7.2-5.8,20-4.9,25.8,2.1c-1.6,0.3-3,0.2-4.4-0.3c-6.5-2.4-12-0.2-14.9,5.9c-0.8,1.6-2,3.4-1,4.9c0.9,1.6,2.9,0.2,4.4,0.4
		c1,0.1,2-0.1,3-0.3c3.7-0.8,6.9-2.7,8.6-6c1.3-2.7,2.9-2.8,5.3-2.4c2.5,0.4,4.4,1.7,6.1,3.5c6.2,7,11,14.8,14.2,23.6
		c0.3,0.7,0.9,1.5,0.2,2.5c-2.4-1-4.5-2.5-6.3-4.4c-2.6-2.7-5.8-3.8-9.4-3.9c-4.7-0.2-8.6,1.7-12.5,3.9c-1.4,0.8-1.2,1.6-0.2,2.6
		c5.5,5.6,14.8,6.6,21,1.9c1.2-0.9,2.2-0.9,3.5-0.3c4,1.9,6.4,5,7,9.3c0.6,4.5,1.3,9,1.6,13.5c0.3,4.1,0.3,8.2-0.5,12.4
		c-1.5-2.2-4.1-3.9-4.2-6.5c-0.3-6.2-4.1-9.9-8.9-12.8c-4.3-2.5-8.8-4.6-13.3-6.9c-0.6-0.3-1.2-0.8-1.8-0.2c-0.7,0.6-0.4,1.3-0.1,2
		c0.9,2.3,1.8,4.6,2.7,7c3.3,8.2,9.1,12.8,18.1,12.9c1.1,0,2,0.3,2.7,1.2c2.9,3.9,4.9,8,3.7,13.1c-0.5,2-0.9,4-1.3,5.9
		c-0.1,0.5-0.4,1.2,0.3,1.4c0.9,0.3,1.1-0.5,1.3-1.1c0.1-0.4,0.2-0.9,0.4-1.3c2.1-8,3.1-16.1,2.8-24.4c-0.1-4.1,2.4-7.7,5.3-9
		c5.3-2.4,7.3-6.2,8-11.3c1-6.9-0.9-13.8-0.9-20.7C105.9,169.5,105.9,168.7,105,168.6z M24.1,147.3c3.2-3.9,10-5.9,13.6-4
		c-3,0.7-3.6,1.3-2.1,1.9c1.1,0.4,2.4-0.1,3.4,0.8C35.9,149.9,29.4,150.4,24.1,147.3z M14.2,181.3c-1.6,0-2.2-0.6-1.6-2.2
		c1.2-3.4,4.1-5.8,7.2-5.8c-0.2,1.5-2.3,1.9-1.6,3.2c0.6,1.2,1.5-0.5,2.3-0.4C19.7,179.5,17.3,181.4,14.2,181.3z M20.9,202.2
		c-2.3-4.9-1.3-13.5,1.8-17.5c0.1,0.1,0.3,0.1,0.4,0.3c0.4,1-0.6,3,0.8,3.1c1.5,0.1,0.7-1.9,1-3c0.1-0.3,0.2-0.7,0.3-1.1
		C28.7,188.3,26.6,196.9,20.9,202.2z M33.2,172.4c0.8-0.1,0.9,0.8,1.2,1.3c0.4,0.8,0.8,1.7,1.2,2.5c0.3,0.5,0.6,1.3,1.4,0.9
		c0.7-0.4,0.3-1.1,0.1-1.7c-0.4-1.2-1.4-2.2-1.3-3.6c5.2,1.2,7.2,9.5,4.2,18.4c-4.2-4-7.6-8.1-8-14.1c0-0.7,0.1-1.5,0.2-2.2
		C32.4,173.4,32.5,172.5,33.2,172.4z M48.6,163.2c-1.1-0.2-1.3-0.7-1.1-1.7c0.9-4.5,6.6-8,11.5-6.6c-1.8,0.8-3.2,1.4-4.6,2.1
		c-0.7,0.4-1.8,0.8-1.4,1.7c0.5,1.1,1.4,0.2,2.1-0.1c1.4-0.6,2.8-1.3,4.7-1.6C57.6,161.2,52.4,163.9,48.6,163.2z M80,154.5
		c-0.6,0.3-0.4,0.9-0.3,1.5c0.1,1,0.8,1.9,0.2,3.2c-4.5-4.2-5.8-9.5-6.3-15.2c6.4,2.3,11.2,10,9.2,15.4c-0.6-1.6-1-2.7-1.4-3.8
		C81.1,154.9,80.8,154.2,80,154.5z M76.6,185.7c-4.1,2.3-11.8,1.3-15.1-1.9c-0.9-0.9-1-1.4,0.2-2.1c4.8-2.6,9.8-3.7,15.5-1
		c-1.9,0.5-4.1-1.3-4.4,0.1c-0.4,1.9,2.3,1.3,3.6,2c0.7,0.4,1.9,0.3,1.9,1.2C78.4,185,77.3,185.4,76.6,185.7z M81.1,209.3
		c-0.5-0.3-1-0.7-1.5-0.2c-0.5,0.5,0,1,0.3,1.4c1,1.2,2.3,2,3.1,3.5c-8.4,0.9-15.2-6.1-17.3-16.3c8.3,1.5,17.9,8.7,19,14.5
		C83,211.6,82.3,210.1,81.1,209.3z M105.1,190.2c-0.3,3.4-1.3,6.5-4,8.8c-0.5,0.4-1.1,0.9-1.7,0.4c-0.5-0.4-0.1-1,0-1.5
		c0.3-1.4,0.7-2.9,1-4.3c0.1-0.4,0.1-1-0.5-1.2c-0.7-0.3-0.9,0.3-1.1,0.9c-0.6,1.6-0.4,3.5-1.7,4.8c-4.6-5.3-2.2-14.6,6.4-24.7
		c0.7-0.2,0.8,0.3,0.8,0.8C104.7,179.5,105.6,184.8,105.1,190.2z"/>
</g>
</svg>
