<?xml version="1.0" encoding="utf-8"?>
<!-- Generator: Adobe Illustrator 25.3.0, SVG Export Plug-In . SVG Version: 6.00 Build 0)  -->
<svg version="1.1" id="Layer_1" xmlns="http://www.w3.org/2000/svg" xmlns:xlink="http://www.w3.org/1999/xlink" x="0px" y="0px"
	 viewBox="0 0 136 250" style="enable-background:new 0 0 136 250;" xml:space="preserve">
<path d="M79.6,117.3c3-2.8,6-5.6,9.1-8.3c2-1.8,3.9-3.6,6.2-5c2.8-1.8,4.1-4.4,5.2-7.2c0.1-0.3,0.3-0.7,0.6-0.8
	c0.9-0.5,4.3,1.5,4,2.5c-0.2,1,2,2.9-0.9,3c-1.2,0-1.8,2.6-3.4,0.7c-0.3-0.3-0.8,0-1.2,0.3c-6.4,4.8-12.4,10.2-18,15.9
	c7.9-1.2,15.3-3.3,21.6-8.4c0.3-0.2,0.7-0.7,0.7-0.8c-1.6-2,0.8-3,1.1-4.5c0.3-1.2,1.1-1.5,1.9-0.6c0.6,0.6,1,0.7,1.8,0.6
	c1.1-0.2,1.7,0.5,1.2,1.6c-0.3,0.6-0.6,1-0.1,1.6c0.6,1,0,1.4-0.9,1.6c-2.3,0.6-4.4,1.5-6.4,2.9c-4.9,3.5-10.5,5.4-16.3,6.9
	c-0.9,0.2-1.9,0.4-2.8,0.9c5.5,1.5,11,1.2,16.4-0.8c1.1-0.4,2.4-1.7,2.8-2.8c0.6-1.9,1.2-0.9,2.4-0.9c3.5,0,2,2.5,2.6,4
	c0.2,0.6-0.4,1.3-0.8,1.1c-1.4-0.5-2.3,2.2-3.7,0.6c-0.5-0.6-0.9-1-1.7-0.7c-5.8,2.1-11.7,2.5-17.8,1.7c4.3,2.5,8.9,3,13.7,2.5
	c3.4-0.4,6.6-1.4,9.7-2.6c2.2-0.9,4.1-2.2,4.9-4.6c0.3-0.9,1.1-1.1,1.6-0.5c0.7,0.7,1.4,0.9,2.3,0.6c0.2-0.1,0.5,0.2,0.7,0.3
	c0.5,0.4,0.5,1.1,0.1,1.4c-1.3,0.8,1.7,3.1-1.2,3.3c-1.4,0.1-2.9,2-4-0.5c0-0.1-1.4,0.4-2.1,0.7c-7.7,3.3-15.7,5-24.1,2.2
	c1.3,1.4,1.3,1.4,3.2,2.1c5.9,2.3,12,2.8,18.2,3c1,0,2.3,0.3,2.1-1.5c-0.1-0.8,0.7-1.3,1.2-0.9c1,0.9,1.9,1.1,3.2,1
	c0.5,0,0.8,0.8,0.5,1.2c-0.6,0.8-0.7,1.4-0.1,2.3c0.4,0.7-0.5,1.4-0.9,1.2c-1.4-0.5-2.5,2.5-3.6,0.4c-1-2.1-2.7-2.2-4.5-2.3
	c-5.2-0.2-10.4-0.8-15.4-2.5c-3.7-1.2-7-2.9-9.5-6c-1.1-1.4-1.8-0.9-2.7,0.1c-19.6,23.1-35,48.8-45.4,77.4
	c-1.6,4.4-1.2,9.1-1.6,13.6c-0.7,7.7-1.2,15.3-1.8,23c-0.1,1,0.2,2.7-1,2.6c-1.2-0.1-0.6-1.8-0.6-2.7c0.6-7.9,1.3-15.9,1.9-23.8
	c0.1-0.9,0-1.9-0.1-2.8c-2.1,5.3-3.5,10.9-4.8,16.4c-0.8,3.7-1.4,7.5-2.2,11.2c-0.1,0.7,0,1.9-1,1.8c-1.1-0.2-0.6-1.3-0.5-2
	c1.4-9.5,3.7-18.7,6.8-27.8c2.1-6.1,3.1-12.3,3.5-18.7c0.4-6.4,1.1-12.7,1.6-19c0.1-0.8,0-1.7,0-2.7c-1,0.7-1,1.7-1.3,2.5
	c-7,21.4-12.9,43.2-17.9,65.2c-0.2,0.9,0,2.8-1.2,2.5c-1.4-0.4-0.4-2-0.2-3c5.5-25,12.5-49.5,20.6-73.8c0.7-2.1,1.2-4.2,1.4-6.5
	c1.4-13.6,2.7-27.3,4.3-40.9c1.2-10.2,2.6-20.3,4.5-30.4c0.4-1.9,0.1-2.6-2-2.9c-9.2-1.4-15-6.6-16.8-15.9c-0.3-1.6-2.1-2.4-1.9-4.3
	c0.1-0.7-0.2-1.6,0.7-1.5c1.1,0.1,1.8-2.1,2.6-0.7c0.5,0.9,2.8,1.1,1.5,2.8c-2.1,2.8-1.2,5.6,0.1,8.3c2.2,4.6,4.2,6.5,8.7,7.9
	c-2.6-3.1-3.6-6.6-5.6-9.5c-1.4-2-0.6-4.6,1.6-5.2c0.8-0.2,1.1,0.3,1.4,0.8c0.6,0.8,1.5,1.1,0.9,2.8c-2,4.9,1.4,10.6,7.1,12.1
	c-2-3.3-3.6-6.6-4.4-10.2c-0.6-2.8-0.5-5.7-1.9-8.3c-0.3-0.6-0.1-1.3,0.5-1.2c1.1,0.1,1.7-2.2,2.9-0.7c0.6,0.7,2.4,0.7,1.8,1.9
	c-0.5,1,0.1,2.5-1.4,3.1c-0.9,0.4-0.7,1.4-0.7,2.1c0.2,4.7,1.5,9,5.1,12.6c1.1-2.2,0.6-4.4,0.7-6.5c0.2-2.4,0.2-4.8,0.4-7.1
	c0.2-2.6,0.9-5.2-0.2-7.9c-0.2-0.6-1.8-1.6,0.1-2.6c1.5-0.8,2.7-1.2,3.9,0.3c1.3,1.6,0,2.8-0.7,3.9c-0.3,0.5-0.9,0.8-1,1.4
	c-0.6,5.9-1.5,11.9-1.3,17.9c1.2,0.1,1.3-0.8,1.7-1.3c1.2-1.7,2.1-3.7,2.9-5.6c1.9-4.2,3.8-8.5,1-13c-0.5-0.8-0.2-1.8,0.4-1.5
	c1.2,0.5,1.5-2.6,3.2-0.4c1.1,1.4,1.3,2.3,0.6,3.8c-1.8,3.7-1.7,8-3.7,11.8c-1,2-2.6,3.7-3.3,6.4c4-2.4,6.4-5.5,8.1-9.2
	c0.3-0.7,0.4-1.8,0.1-2.3c-2-2.8,1.2-2.3,2-2.8c1.4-0.9,1.3,1.6,2.5,1.6c-0.5,1.1-0.1,2.8-1.9,3c-0.9,0.1-1.2,0.7-1.4,1.4
	c-1.6,3.7-4.2,6.7-7.1,9.4c3.1-0.9,5.6-3,7.4-5.5c2.6-3.7,5.6-7.3,4.4-12.4c-0.4-1.5,2.1-0.6,2.3-2.1c0-0.4,1-0.2,1.1,0.2
	c0.1,1.1,2.2,1.3,1.5,2.5c-0.5,0.9-0.3,2.6-2.1,2.7c-0.9,0-1.2,0.7-1.4,1.4c-1.9,5.2-5,9.6-9.7,13.9c5.6-1.9,9-5.4,12.5-8.9
	c0.2-0.2,0.3-0.7,0.2-0.9c-1.4-3,2.4-1.3,2.5-2.9c0.8,0.8,1.6,1.6,2.4,2.5c-1.1,0.6,0.2,3.8-2.8,2.6c-0.8-0.3-1.7,0.4-2.3,1
	c-3,2.8-6.3,5.1-9.7,7.3c-2.8,1.7-5.8,2.7-9,2.5c-1.9-0.1-2.4,0.6-2.7,2.2c-2,10-3.2,20-4.3,30.1c-1.1,9.7-2.2,19.3-3.2,29
	c-0.2,1.9-0.3,3.8-0.5,6c1.2-0.5,1.2-1.5,1.5-2.2c5.7-15.9,11.9-31.6,19.3-46.7c8.7-18,17.9-35.7,29.8-51.9c1.1-1.5,1.2-2.5,0-4.1
	c-7.7-10.3-7.9-19-1.1-29.8c0.3-0.5,1-1,0.4-1.8c-1.4-2.2,1.9-2.3,1.9-4.2c0-0.8,1.5,0.7,2,0.6c4.5-0.8,1,3.1,2.5,4
	c-1,1.3-2.7,1.4-4,1.8c-0.7,0.2-1.2,0.4-1.7,0.9c-4.7,5.5-5.8,15-2.5,21.5c0.1,0.2,0.3,0.3,0.8,0.7c-0.1-5,0.8-9.4,3.1-13.7
	c0.6-1.2,0.7-2.8,1.5-4.3c0.9-1.7,1.4-0.7,2.5-0.7c3.8-0.2,2.4,2.8,2.4,4c0,1.7-2.4,1.7-3.6,2C88,27.3,87.5,28,87,29
	c-2.3,5.1-2.6,10.3,0,15.5c0.4-1.8,0.8-3.7,1.3-5.5c1-3.6,2.5-7,5.1-9.8c2.1-2.2,3.3-4.8,4.5-7.5c0.1-0.2,0.2-0.5,0.4-0.7
	c0.4-0.3,1-0.4,1.2,0c0.5,1.6,3.1-0.8,3.3,1.9c0.2,3.6-0.8,4.6-4.6,4.2c-0.7-0.1-1.1,0.5-1.5,0.9c-4.8,4.7-7.1,10.6-7.8,17.2
	c1.2,0.3,1.5-0.6,2-1c5.1-4.9,10.4-9.6,16.1-13.8c1.8-1.3,1.8-3.5,2.9-5.1c0.7-1,0.9-1.7,2-0.8c0.3,0.2,0.6,0.7,0.8,0.7
	c1.1-0.3,2.4-0.7,2,1.1c-0.3,1.2,2,3.6-1.6,3.7c-0.9,0-1.7,1.7-3,0.3c-0.1-0.1-0.7,0.2-0.9,0.4c-6.3,4.8-12.3,10-18,15.5
	c0.3,0.3,0.4,0.5,0.5,0.5c7.4-1.2,14.4-3.4,20.5-8.1c0.8-0.6,2.2-1.2,0.6-2.5c-0.4-0.4-0.1-1.1,0.4-1.4c0.8-0.4,1.4-0.8,1.4-1.9
	c0-0.9,0.9-1.2,1.5-0.6c0.7,0.6,1.3,1,2.3,0.8c0.7-0.1,1.1,0.4,1,1.2c-0.1,3.3-0.7,3.9-4.2,4.7c-0.6,0.1-1.2,0.3-1.7,0.7
	c-5.6,4.5-12.2,6.7-19,8.3c-0.6,0.1-1.2,0.3-1.8,0.5c3.1,2.1,13.5,1.2,16.4-0.6c1.2-0.7,2.8-1.6,3-3.5c0.1-0.9,1-1.2,1.6-0.6
	c0.7,0.7,1.4,0.9,2.3,0.7c0.2,0,0.5,0.1,0.7,0.3c0.7,0.7-0.3,4.4-1.2,4.6c-1.4,0.3-2.9,1.9-4-0.4c0-0.1-0.7,0.1-1,0.2
	c-2.8,1-5.6,1.7-8.5,1.9C98.9,51,96,50.9,93,50.6c1.8,1.7,4.1,2.1,6.4,2.4c6.3,0.8,12.3-0.5,18-3.2c1.5-0.7,3-1.8,3.5-3.8
	c0.3-1.1,1.1-1.3,1.7-0.6c0.7,0.9,1.3,0.8,2.2,0.6c0.8-0.1,1.4,0.6,1,1.4c-0.4,0.8-0.8,1.5,0,2.3c0.1,0.1-0.2,0.6-0.3,0.9
	c-1.6-0.6-3,3-4.8,0.1c-0.6-1-1.5,0-2.1,0.3c-4.3,1.9-8.8,3.3-13.5,3.7c-3.8,0.3-7.5-0.1-11.2-1.2c1.5,1.3,3.3,2,5.1,2.5
	c5.4,1.7,10.9,2.3,16.5,2.3c1.1,0,2.1,0.1,2.2-1.5c0-1.1,0.9-1.3,1.7-0.6c0.6,0.5,0.9,0.8,1.8,0.7c1.2-0.3,1.6,0.4,1.2,1.6
	c-0.1,0.3-0.5,0.7-0.5,0.9c0.3,0.9,1.3,2.1-0.5,2.3c-1.3,0.1-3,2.7-4.1-0.6c-0.3-1-2.4-1.2-3.9-1.2c-4.5-0.2-9-0.6-13.4-1.8
	c-4.5-1.3-8.7-3-11.7-6.9c-1.1-1.5-1.6-0.3-2.1,0.5c-2.4,3.5-4.9,7-7.1,10.5c-5.2,8.2-10.3,16.5-14.7,25.2
	c-6.1,12.2-11.9,24.6-17.1,37.3c-4.5,11-8.8,22-12.7,33.2c-0.4,1.2-0.9,2.4-1,3.6c-1.1,11.2-2,22.4-3.1,33.6c1-0.2,1-1,1.3-1.6
	c10-24.8,23.6-47.5,40.7-68c3.1-3.7,4.2-5.6,0.9-10.2c-6-8.5-5.1-17.8,0.6-26.6c0.5-0.8,1.1-1.4,0.5-2.7c-0.6-1.4,2-2.1,2.3-3.8
	c0.1-0.7,1.4,0.9,1.8,0.8c4.5-0.9,1.6,2.8,2.3,4.1c0.5,0.9-2,1.1-2.9,1.4c-3.9,1-4.8,4.1-5.9,7.1c-2,5.4-1.5,11.4,1.6,15.9
	c0-0.9,0-1.8,0-2.6c0.1-3.4,0.8-6.7,2.7-9.6c0.5-0.7,1.2-1.4,0.5-2.6c-1-1.7,2.1-1.3,1.6-3c-0.2-1,0.2-0.2,2.3-0.3
	c3.9-0.3,1.7,2.6,2.5,3.9c0.4,0.7-0.5,1-1.1,1c-4,0.2-5.6,2.8-6.4,6.3c-0.9,4.1-1,8.2,0.7,12.2c1.1-0.4,0.9-1.2,1-1.8
	c1.1-5.5,2.9-10.6,7-14.6c1.7-1.7,2.2-4.1,3.3-6.1c0.8-1.5,1.1-1.8,2.3-0.7c0.7,0.7,2.5-0.8,2.6,1.5c0.2,3.3-1,4.6-4.5,4.2
	c-0.7-0.1-1,0.3-1.3,0.7C82.2,104.4,79.7,110.2,79.6,117.3z"/>
</svg>
