<?xml version="1.0" encoding="utf-8"?>
<!-- Generator: Adobe Illustrator 25.3.0, SVG Export Plug-In . SVG Version: 6.00 Build 0)  -->
<svg version="1.1" id="Layer_1" xmlns="http://www.w3.org/2000/svg" xmlns:xlink="http://www.w3.org/1999/xlink" x="0px" y="0px"
	 viewBox="0 0 142.9 229.9" style="enable-background:new 0 0 142.9 229.9;" xml:space="preserve">
<path d="M40.3,124.4c0.4-8.1,3.4-14.9,9.3-20.5c1.2-1.1,2.4-2.2,4-2.7c1.7-0.5,2.8,0.1,2.1,2c-1.8,5.3-1.5,10.8-1.7,16.3
	c-0.2,5.1-1.4,9.7-6.3,12.5c-1.3,0.8-1.5,1.7-0.8,2.9c3.9,6.6,6.6,13.8,10.3,20.9c0-1.2,0-2.4,0-3.6c-0.7-27.9,0.8-55.7,0.8-83.6
	c0-3.3-0.4-6.5-2.2-9.7c-5.3,4.7-11,3.8-16.7,1c-1.8-0.9-3.2-2.2-4.2-3.9c-0.8-1.2-1.8-2.6-1.1-4.1c0.7-1.6,2.3-0.8,3.6-0.9
	c5.2-0.2,10.3-0.9,15.5,1.4c0.3-1.7-0.7-2.6-1.2-3.7c-1.3-2.8-2-5.6-6.4-2.4c-4.4,3.2-12.6,0.9-16.1-3.4c-0.9-1-1.8-2.1-1.3-3.6
	c0.5-1.3,1.9-1.2,3.1-1.3c4.6-0.2,9.2-0.9,13.7,0.1l0.1,0.1l-0.2-0.1c-0.1-1.6-1.3-2.6-2.2-3.7c-3.2-4-3.3-4-7.7-1.2
	c-6,3.8-13.3,3.8-18.4,0.2c-1-0.7-2.2-1.4-2.1-2.7c0.2-1.4,1.6-1.5,2.7-1.9c4.7-1.6,9.2-4,14.9-4.4c-3.5-3.2-5.9-6.3-10.9-5.6
	c-4,0.5-7.6-1.1-10.4-4.1c-1.4-1.5-2.9-3-4.2-4.6c-1.2-1.5-3.7-3-3-4.6c1-2.3,4-1.4,6.1-1.3c7.2,0.4,13.3,2.4,15.7,10.5
	c1.1,3.7,5.3,4.9,8,7.4l0,0c-1.6-5.1-3.1-10.2-2.8-15.6c0.1-1-0.1-2.2,1-2.7c1.1-0.5,1.9,0.5,2.7,1.1c7.8,5.7,9.9,12.5,6.4,21.2
	c-0.6,1.5-0.5,2.4,0.5,3.5c1.9,2,3.7,4.2,6,6.9c-0.3-6.5,2.4-11.8,3.2-17.4c0.1-0.9,0.2-2.2,1.4-2.6c1.2-0.4,1.9,0.6,2.6,1.3
	c5.9,6.6,5.2,18.2-1.6,23.9c-1.2,1-1.3,1.8-0.6,3c2.6,4.3,4.4,9,6.7,14.2c1.6-6.1,3-11.5,4.4-16.8c2.3-8.6,5.7-16.6,12.4-22.7
	c1.7-1.6,1.9-3.6,2.4-5.6C80.1,6.3,86.7,0.6,94.2,0c2.3-0.2,2.2,1.5,2.3,2.9c0.5,7.4-4.9,14.3-12.3,15.6
	c-7.3,1.3-13.8,7.7-15.3,15.1l-0.2,0.1l0.2-0.2c4.9-4.9,11-7.3,17.4-9.3c1-0.3,2-1.2,2.9-0.5c1.1,0.9,0.5,2.3,0.1,3.3
	c-4.1,9.7-9.6,14.9-19.5,14.4c-3.4-0.2-4.6,0.8-5.4,4c-2.5,10.1-4.4,20.2-4.2,30.7c0.2,11,0,21.9,0,33.9c4-8.8,8-16.6,12.8-24
	c0.8-1.2,0.1-1.9-0.8-2.6c-5.1-4.2-5.5-9.9-4.8-15.8c0.4-4,0.8-7.9,0-11.9c-0.2-1.1-0.9-2.5,0.4-3.2c1.1-0.6,2.3,0.3,3.2,1
	c5.8,4.8,8.6,11.2,9.6,18.5c0.2,1.1-0.3,2.4,1,3.8c2.3-2.1,4.5-4.1,6.8-6.2c1-0.9,0.7-1.8,0.1-2.8c-2.3-4.1-2.1-8.5-1.2-13
	c0.9-3.9,2.3-7.7,2.6-11.7c0.2-3,1.7-2.6,3.4-1c4.1,3.9,5.5,8.7,4.9,14.1c-0.2,2-0.8,4-1.2,6.1c5-2.1,6.9-4.6,7.5-9.7
	c0.5-4,2.4-7.3,5.6-9.8c2.5-1.9,5.1-3.5,7.7-5.3c2.2-1.5,3-1,3.1,1.7c0.4,9.2-3.9,15.3-12.7,18.2c-3.7,1.2-6,4.4-9.4,7.5
	c5.6,0.5,9.8,2.9,14.4,4.5c1.2,0.4,2.9,0.6,3.2,2.1c0.3,1.7-1.5,2.4-2.7,3.2c-5.7,4-13.6,3.7-19.9-1.2c-2.5-1.9-3.9-1.9-5.8,0.3
	c-1.8,2.1-4.3,3.6-6.1,6.7c6.1-1.6,11.4,0,16.8,0.2c1.3,0.1,2.9-0.2,3.4,1.5c0.4,1.4-0.4,2.6-1.2,3.6c-4.9,6.3-15.7,8-22.1,3.1
	c-2.3-1.7-3.4-1.6-4.7,0.8c-1.6,3-3.8,5.6-5.1,9.4c6.7-2.6,13.4-1.5,19.9-1.7c3.8-0.1,4.3,1,2.4,4.5c-4.5,8.1-18.1,10.6-26.3,4.7
	c-2.9,5.7-5.5,11.3-5.5,18c0,19.6,0.5,39.1,2.1,59.4c4.1-6.2,9-10.8,14.6-14.6c1.2-0.8,1.4-1.6,0.3-2.9c-3.8-4.4-3.1-9.3-1.5-14.3
	c1.5-4.9,3.8-9.7,3.8-15c0-0.7,0.1-1.6,1-1.8c1.2-0.3,2,0.5,2.6,1.3c4,5.1,5.3,11.1,5.1,17.5c-0.1,2.7-0.6,5.3-1.7,8
	c1.7,0,2.5-1.1,3.6-1.7c2.8-1.4,3.7-3,2-6.2c-2.2-4-2.3-8.5-0.8-13c1.2-3.5,2.3-7,3.5-10.5c0.3-1,0.5-2.2,1.7-2.3
	c1.2-0.2,1.7,1,2.3,1.8c4,5.3,4.7,11.4,3.9,17.7c-0.2,1.3-0.5,2.6-0.7,3.9l-0.2,0.2l0.1-0.2c1.3-0.8,2.5-1.5,3.8-2.3
	c2-1.1,2.5-2.4,1.5-4.7c-1.7-3.8-1.5-7.8-0.5-11.8c0.9-3.9,2.3-7.6,2.8-11.6c0.3-2.8,1.6-2.8,3.4-1.1c3.9,3.6,5.1,8.2,4.7,13.3
	c-0.2,2.5-0.9,4.9-1.4,7.9c3.2-2.1,5.2-4,5.4-8c0.3-9.4,9.4-19.2,18.5-20.9c1.2-0.2,2.4-0.5,3.4,0.4c1.2,1.1,0,2.2-0.4,3.2
	c-0.8,2.4-1.8,4.7-2.5,7.1c-2.1,7.1-6.8,11.6-13.8,13.8c-4.4,1.4-4.6,1.6-8,6.2c2.6,0.5,5.1,0.1,7.5,0.8c4.8,1.5,8.4,4.3,10.7,8.7
	c0.7,1.3,1.2,3.1-1.1,2.5c-5.1-1.3-10.4-0.5-15.4-1.9c-1.1-0.3-2.5-0.4-3.4-1.1c-6.4-5.4-10.9-1.2-16,3.4c3.8,0.4,7.3,0.1,10.6,1.2
	c6.3,2,11.8,4.9,14.5,11.4c1,2.4,0.4,3.8-2.5,3.4c-5.8-1-11.7-1.8-17.5-3.2c-3.9-0.9-7.5-3-9.8-6.5c-1.4-2.1-2.5-1.9-4.2-0.6
	c-1.6,1.2-3.4,2.3-5.7,3.9c2.7,0.3,4.8,0.3,6.8,0.8c7.6,2.1,13.4,6.8,18,13c0.8,1.1,1.8,2.4,0.9,3.6c-1,1.4-2.5,0.3-3.7,0.1
	c-5.5-1.2-11-2.3-16.4-3.7c-4.6-1.2-9-3.2-12-7.1c-1-1.3-1.8-1.2-2.9-0.4c-8.5,6.4-15.9,13.3-15.1,25.4c0.6,9.5,0.5,19,0.6,28.4
	c0,1.7,0.4,3.6-1.2,5.2c-1.7-1.4-1.2-3.2-1.2-4.8c-0.2-15.4-0.3-30.8-0.5-46.2c-0.1-7.3-0.8-14.5-3.8-21.3c-0.8-1.8-1.1-2.5-3.3-1.2
	c-7.5,4.4-21.1-0.7-24-8.9c-0.6-1.7-1.4-4,1.6-3.6c7,1,14.3,0,21.9,4.1c-1.4-3-2.3-5.2-3.3-7.3c-2.7-5.6-2.7-5.6-8.1-3.4
	c-6.2,2.5-15.8-0.4-19.6-5.9c-0.9-1.2-1.7-2.6-1.1-4.1c0.7-1.6,2.3-1.1,3.5-1.1c5.5-0.1,11-0.5,16.8,0.8c-2.3-2.7-4.7-5.4-7-8.1
	c-1.7-1.9-2.6,0.1-3.6,0.8c-6.8,4.6-15.7,4.4-21-0.5c-0.9-0.9-2.4-1.7-1.9-3.2c0.4-1.2,1.9-1.2,3-1.6c5.1-1.4,10.1-3.5,15.5-3.3l0,0
	c-3.3-3.8-6.3-7.9-12-8.9c-3.9-0.7-6.5-3.9-8.3-7.5c-0.9-1.8-1.7-3.8-2.3-5.7c-0.6-1.7-2.7-3.6-1-5.2C2.1,82.4,4.3,84,6,84.6
	c8.2,2.6,11.3,6.5,12,15.3c0.2,2,3,5.1,7.5,8c0.8-1.7,0.3-3.5,0.4-5.2c0.2-5.3,2.1-9.8,6.3-13.1c0.9-0.7,1.9-1.7,3.2-1
	c1.1,0.6,0.8,1.8,0.7,2.8c-0.4,3.6,0.5,7.1,0.8,10.6c0.3,4,0.1,8.1-2.1,11.6c-1.6,2.4-1.1,4,0.7,5.8
	C37.2,120.8,38.8,122.6,40.3,124.4L40.3,124.4z M108,179.5l0.1,0.2L108,179.5c-2.4-4.3-6.2-7-10.2-9.5c-4.1-2.5-8.5-3.2-13.2-2.8
	c-1.6,0.1-3.1,0.5-3.5,2.1c-0.3,1.5,1.1,2.3,2.1,3.1c2,1.5,4.2,2.7,6.6,3.5C95.8,177.8,101.9,178.8,108,179.5z M139.8,114
	c-9.3,2.9-15.1,8.2-17,17.1c-0.7,3.4,0,4,3.4,2.8c0.7-0.2,1.4-0.6,2-0.9C136,129.5,137.8,122.1,139.8,114z M122.9,168.8
	c-0.9-3-2.2-4.8-4-6.1c-5-3.8-10.7-5.6-16.9-5.2c-1.7,0.1-4.4-1.1-5,1.2c-0.5,2.1,1.8,3.6,3.6,4.6c1.9,1.1,3.9,2.2,6,2.7
	C111.8,167.1,117,167.8,122.9,168.8z M69.6,55.9c0.7,4.8,0,9.3-0.3,13.8c-0.3,3.7-0.1,7.4,2.5,10.5c2.5,2.9,3.8,2.7,5.3-0.8
	C80.2,72.5,76.8,61.4,69.6,55.9z M80.7,138c-0.9,5.7-3,10.1-4.3,14.8c-0.9,3.1-1.6,6.3,0,9.5c1.6,3.2,3.1,3.4,5.4,0.5
	C86.2,157.2,86,146.3,80.7,138z M52.2,105.4c-5.6,3.7-8.3,9-9.3,15.3c-0.7,4,0.9,9.3,2.8,9.5c2.3,0.2,5.3-3.7,5.9-7.9
	C52.4,116.7,51.5,111.1,52.2,105.4z M89.1,98.7c-5.2,0.1-10.3-0.4-15.3,0.4c-1.6,0.2-3.1,0.9-4.5,1.7c-3.1,1.9-2.9,3.7,0.1,5.5
	C74.1,109,87.9,105.6,89.1,98.7z M29.9,146c1.9,6.4,11,11.3,17.7,9.9c1.7-0.4,3.7-0.9,3.9-3c0.1-1.8-1.5-2.7-2.9-3.6
	c-1.4-0.8-2.9-1.3-4.5-1.7C39.4,146.4,34.7,147.2,29.9,146z M96.8,131.6c-0.4,0-0.7,0-1.1-0.1c-1,2.8-1.9,5.6-3,8.3
	c-1.5,3.6-1.7,7.1-0.6,10.8c0.4,1.4,0.6,3.3,2.2,3.5c1.8,0.3,2.9-1.5,3.5-2.9C101.1,144.5,100.2,137.9,96.8,131.6z M82.6,16.5
	c6.1-0.1,11.7-5.8,11.7-11.8c0-1.1-0.1-1.9-1.7-1.8C87,3.4,81.8,7.9,80.3,13.5C79.6,16,80.4,16.8,82.6,16.5z M99.1,82.1
	c-3.1-0.4-5.9-0.8-8.7-1c-3.4-0.3-6.8-0.2-10,1.4c-2.8,1.5-2.9,2.5-0.3,4.3C85.7,90.7,96.8,87.9,99.1,82.1z M21.1,128.5
	c4.4,6.6,12.3,9.2,18.2,6.5c1.2-0.5,2.8-1,2.8-2.5c0-1.5-1.6-2.1-2.7-2.6C33.6,127.5,27.6,128.1,21.1,128.5z M33.7,91.7
	c-6.9,3.6-6.5,16.2-3.6,21.3c0.9,1.6,1.8,1.1,2.6-0.2c1-1.5,1.5-3.2,1.8-4.9C35.5,102.6,34.1,97.4,33.7,91.7z M92,43.5
	c-1.1,4.4-2.2,8.2-3,12.1c-0.6,2.9-0.7,5.9,0.4,8.8c0.7,2,1.6,2.3,3.1,0.7C97,60,97,49.2,92,43.5z M110.7,122.1
	c-1.1,4-2.3,7.6-3.2,11.3c-0.6,2.7-0.6,5.6-0.1,8.4c0.2,1,0.6,2.2,1.7,2.4c1.2,0.2,1.7-0.9,2.2-1.8c2.2-3.6,3.1-7.7,2.9-11.9
	C114.2,127.4,113.7,124.4,110.7,122.1z M86.9,26.3c-7,2.2-13,4.4-17.1,10c-0.5,0.7-1.4,1.4-1,2.3c0.5,1.2,1.7,0.9,2.8,0.8
	C78.5,39.2,83.9,34.8,86.9,26.3z M113,71.1c-3.3-1.4-6.3-2.8-9.3-3.8c-2.8-0.9-5.8-1.2-8.7,0.2c-1.8,0.9-2.2,1.9-0.5,3.2
	C100.1,75.1,108.4,76,113,71.1z M8.5,116.9c5.1,4.6,10.1,4.7,15.4,2.7c1.7-0.7,4.8-1,4.2-3.6c-0.5-2.1-3.3-2.6-5.6-2.8
	c-0.7-0.1-1.5,0.2-2.2,0.3C16.5,113.9,13,115.5,8.5,116.9z M118.3,39c-5.2,3.1-9.8,5.5-11.5,10.9c-0.4,1.2-1,2.7,0.2,3.7
	c1.1,1,2.5,0.5,3.8,0.2c1.5-0.4,2.6-1.4,3.5-2.5C117.1,47.9,118.2,44,118.3,39z M6.7,6.8c3.8,4.4,6.5,9.2,12.5,9.7
	c3.8,0.3,4.5-0.8,2.8-4.3C20.2,8.3,13.5,5.7,6.7,6.8z M16.1,97.4c0.1-4.3-7.1-11.2-11.3-11c-0.9,0.1-1.2,0.4-1.2,1.4
	c0.1,3.7,5.3,11,8.7,12.2C14.6,100.7,16,100.1,16.1,97.4z M52.6,19.7c-1.1,6-3.8,11-3.1,16.6c0.2,1.3-0.1,3,1.4,3.4
	c1.6,0.4,2.6-1.1,3.4-2.4C57.2,32.6,56.7,25.3,52.6,19.7z M132.6,151.6c-5-6.8-13.2-8.5-20.6-4.5C118.3,151.3,125,151.7,132.6,151.6
	z M36.9,53.6c2.1,4.6,8.1,7.4,12.9,6.1c1.6-0.4,3.4-0.9,3.6-2.8c0.2-2.3-1.9-2.8-3.5-3.4C45.6,52.1,41.3,52.9,36.9,53.6z M38.4,25.2
	c3.7-7.1,1.4-14-5.7-18.1C32.5,13.7,33.9,19.7,38.4,25.2z M17.5,31.1c5.2,3.9,10.1,3.1,14.9,0.8c1.3-0.6,3.6-1.2,2.9-3.2
	c-0.5-1.6-2.6-1.9-4.2-1.9C26.4,26.8,22.2,29,17.5,31.1z M30.2,40.2c4.3,4.8,10.3,6.3,14.4,4.1c0.9-0.5,2-1.1,1.9-2.2
	c-0.1-0.9-1.2-1.2-2.1-1.5C40,39,35.5,40,30.2,40.2z"/>
</svg>
