<?xml version="1.0" encoding="utf-8"?>
<!-- Generator: Adobe Illustrator 25.3.0, SVG Export Plug-In . SVG Version: 6.00 Build 0)  -->
<svg version="1.1" id="Layer_1" xmlns="http://www.w3.org/2000/svg" xmlns:xlink="http://www.w3.org/1999/xlink" x="0px" y="0px"
	 viewBox="0 0 110.3 250.6" style="enable-background:new 0 0 110.3 250.6;" xml:space="preserve">
<path d="M61.9,227c1.9-4.3,3.7-8.3,5.5-12.2c0.5-1,0.2-1.9-0.7-2.6c-1.2-0.9-2-2.1-2.4-3.5c-1.3-4.3-2.4-8.7-3.6-13.1
	c-0.4-1.4-0.5-2.9,0-4.3c0.4-1.2,1-2.2,2.3-2.3c1.4-0.1,2.2,0.8,2.6,2c0.9,2.4,1.6,4.8,2.4,7.2c0.8,2.5,1.6,4.9,2.4,7.4
	c0.2,0,0.5,0.1,0.7,0.1c1.3-4,2.7-8.1,4-12.1c0.3-0.9-0.6-1.4-1.2-2c-2.8-2.3-4.2-5.3-5-8.8c-0.7-3.3-1.7-6.5-2.6-9.7
	c-0.5-1.7-0.6-3.4-0.5-5.1c0-1.2,0.2-2.5,1.7-2.7c1.4-0.3,2.3,0.6,2.8,1.7c2.5,6.5,7.5,12.2,6.6,20c1.6-3.2,1.9-6.7,2.9-10
	c1-3.6,0.3-6.2-2.8-8.3c-2.7-1.8-5.1-4-7.7-6.1c-3.1-2.5-5-5.7-5.4-9.7c-0.1-1-0.2-2,0.7-2.8c1-0.8,2.1-0.3,3,0.2
	c1.7,0.9,3,2.2,4.4,3.7c2.9,3.1,5.8,6.1,9.1,9.6c0-4.4,0-8.3,0-12.1c0-1-0.9-1.2-1.7-1.5c-8.5-3.8-12.7-10.9-15.1-19.4
	c-0.2-0.9-0.3-1.9,0.5-2.5c1-0.7,1.9-0.1,2.7,0.5c2.4,1.9,4.4,4.3,6.1,6.9c1.6,2.2,3.4,4.1,6.1,5.8c0.1-3.3,0.1-6.4-1.7-8.8
	c-4.2-5.6-3.9-11.6-2.3-17.9c0.8-3.1,1.6-6.1,2.4-9.2c0.4-1.6,1-3.2,2.8-3.1c1.8,0,2.4,1.6,2.6,3.1c0.9,7.5,1.7,15,0.2,22.5
	c-0.3,1.3-0.4,2.8-1.3,3.8c-2.6,2.9-0.8,5.9-0.3,8.9c2.6-4,5.1-7.9,6.7-12.3c0.7-2,1.4-3.9,2.2-5.8c0.3-0.8,0.8-1.8,1.9-1.6
	c1.1,0.1,1.5,1,1.8,1.9c0.8,2.3,0.8,4.7,0.3,7c-1.1,5.5-3,10.8-6.4,15.5c-0.9,1.3-1.9,2.5-3.3,3.1c-2.4,1-2.7,2.7-2.6,5.1
	c0.2,3,0.1,6,0.1,8.9c0.2,0.1,0.5,0.1,0.7,0.2c1.3-1.9,2.5-3.8,3.8-5.7c2.2-3.1,4.6-6.1,7.7-8.4c1.3-1,3-2.4,4.6-0.7
	c1.4,1.4,0.5,3-0.5,4.4c-0.6,0.9-1.3,1.8-1.5,2.9c-1.7,7-6.4,11.4-12.4,14.7c-2.1,1.2-3.2,2.6-3.4,5c-0.5,4.6-1.7,9-3.2,14.2
	c4.8-2.6,8.4-5.6,11.2-9.5c1.4-1.9,2.4-4,3.7-6c0.7-1.1,1.5-2.5,3.1-2c1.8,0.6,2.1,2.2,2,3.8c-0.4,7.7-7,15.8-14.4,17.8
	c-0.8,0.2-1.6,0.6-2.4,0.5c-4.2-0.5-5.6,2-6.5,5.5c-1,3.7-2.4,7.3-3.9,11.7c3.8-2.4,6.9-4.3,10.1-6.2c2.3-1.3,4.6-2.5,7.3-2.8
	c1.3-0.1,2.7-0.1,3.2,1.4c0.5,1.3-0.2,2.4-1.2,3.1c-4.3,3.1-8.4,6.6-13.7,8.2c-1.6,0.5-3.2,1.2-4.8,0.7c-2.7-0.9-3.5,0.5-4.3,2.6
	c-1,2.6-2.2,5.2-3.5,7.7c-2.3,4.3-3.2,8.8-2.7,13.7c0.1,0.7,0.5,2-0.6,2.1c-1.2,0.1-1.1-1.2-1.1-2c-0.7-13.3-2.7-26.5-5-39.6
	c-0.3-1.7-1-3-2.3-4.2c-3.3-2.9-6.6-6-8.8-9.9c-0.6-1.1-1.6-1.4-2.7-1.4c-1.8,0-3.6,0-5.4,0c-7.8-0.3-12.7-5.1-16.5-11.3
	c-0.5-0.8-0.8-1.7-0.1-2.6c0.9-1.2,2.1-1,3.2-0.7c6.3,1.4,12.7,2.6,17.7,7.9c0.2-2.1-0.5-3.5-0.8-5.1c-0.3-2.1-0.8-4.3-1.2-6.4
	c-0.8-4.4-0.7-4.5-5.1-5.1c-4.4-0.6-7.6-2.7-9.9-6.4c-1.4-2.2-2.9-4.4-4.3-6.6c-0.6-1-1.2-2.2-0.3-3.3c0.8-1,2-0.8,3-0.5
	c5.1,1.5,9.9,3.8,14.6,7.5c-0.8-4.6-2.2-8.4-4.3-12c-0.8-1.4-2.4-1-3.7-1.1c-8-0.7-14.2-4-17.7-11.6c-0.4-0.8-1.1-1.6-0.5-2.5
	c0.8-1,2-0.8,3-0.5c4.5,1.3,8.9,3.1,12.7,6c0.3,0.2,0.6,0.3,1.1,0.3c-2.4-4.1-3-8.9-5.7-13c-4.7-7.3-6.4-15.5-4.1-24.2
	c0.3-0.9,0.5-2,1.8-2.1c1.1-0.1,1.7,0.7,2,1.6c2.8,6.5,6.5,12.8,6.5,20.2c0,1.6,0,3.2-0.8,4.5c-1.7,3-1.1,5.7,0.3,8.6
	c1,2.1,1.7,4.3,3.6,6.5c1-7.3,3.6-13.6,6.5-19.8c0.3-0.6,0.7-1.3,1.1-1.9c0.5-0.8,1.2-1.5,2.2-1.1c1,0.3,0.7,1.3,0.7,2.1
	c-0.3,8.9-2.4,17.4-6.8,25.2c-0.5,0.8-0.9,1.6-0.4,2.5c1.8,3.6,3.3,7.4,4.5,11.4c0-2.2,0.1-4.3,0-6.5c-0.2-3.7,0-7.3,1.1-10.8
	c0.4-1.3,0.8-2.8,2.5-2.7c1.5,0.1,2,1.5,2.3,2.7c1.1,4.4,2.1,8.8,1.9,13.4c-0.2,4.7-1.8,8.8-5.2,12.2c-0.8,0.8-1.6,1.6-1.5,2.8
	c0.3,4.1,1.1,8.2,2.5,12.2c1.6-5.3,4.4-10,6.4-15c0.5-1.3,0.9-3.1,2.8-2.8c1.9,0.3,2.1,2.1,2.2,3.6c0.1,8-1.7,15.5-6.5,22
	c-1.4,1.9-1.4,3.2,0,5c2.1,2.8,4.5,5.1,7.1,7.5c0.2-0.2,0.5-0.3,0.5-0.4c-0.3-13.4,1.7-26.6,2.5-39.9c0.9-14,0.4-27.9-1.2-41.8
	c-0.7-5.9-0.5-11.7-0.1-17.6c0.1-2.3,0.2-4.5,0.2-6.8c0-0.5,0.2-1.2-0.5-1.4c-0.5-0.2-0.8,0.3-1.1,0.6c-2.2,1.8-4.3,3.6-6.5,5.3
	c-3.1,2.3-7.2,2.3-10.4,4.6c-1.3,0.9-2.5-0.7-2.1-2.9c0.8-4.7,3.5-8.1,7.6-10.4c1.4-0.8,2.9-1.4,4.6-2.2c-4.2-2.3-8.1-4.7-11.9-7.4
	C25.3,66,18.9,56.1,17.2,43.5c-0.5-3.8,0.9-7.2,3.9-9.7c2-1.8,3.1-3.9,3.5-6.5c0.4-2.7,1.2-5.3,2.8-7.6c2-3,3.9-3.6,7.1-2.1
	c1.5,0.7,2,0.2,2.2-1.1c0-0.3,0.1-0.5,0.1-0.8c0.3-4.7,2.9-6.4,8.1-5.2c2.6,0.6,5.1,1.1,7.7,0.5c1.9-0.4,3.8,0.3,4.9,1.8
	c1.2,1.6,2.3,1.8,4.1,1.4c2.4-0.6,4.5,0.4,6.1,2.3c1.9,2.2,4.2,3.6,7.1,4c3.2,0.5,4.9,2.9,6.1,5.6c2.5,5.5,2.4,11.3,1.7,17.1
	c-1.7,13.9-6.5,26.4-18,35.3c-0.5,0.4-1.3,0.7-0.9,1.5c0.4,0.9,1.4,0.6,2.2,0.7c5.4,0.5,9.3,3.8,10.6,9c0.2,0.9,0.3,1.8,0.1,2.7
	c-0.2,1.1-1,1.7-1.9,1c-2.7-2.1-5.9-2.1-9-2.9c-2-0.6-4.1-1-5.9-2.1c-1.8-1.2-2.3-0.8-2.4,1.3c-0.5,9.3-0.3,18.5,0.6,27.7
	c1.7,17.3,1.3,34.6-0.7,51.9c-1.6,13.7-1.6,27.3,1.4,40.8c1,4.6,1.4,9.3,2,14C60.9,224.8,60.9,225.7,61.9,227z M52.1,55.6
	c0-2.8,0.2-5.6,0-8.4c-0.4-6.3-3.2-10.1-8.5-11.2c-4.2-0.9-6.1-3.4-6.7-7.4c-0.4-2.7-0.6-5.4-1.9-7.9c-1.4-2.8-3.8-3-5.8-0.6
	c-1.7,2.1-2.4,4.7-2.8,7.3c-0.5,3.1-1.7,5.7-4.2,7.7c-2,1.6-3,3.9-3.3,6.4c-0.5,4.6,0.7,8.8,2.7,12.8c3.4,7,8.3,12.7,14.2,17.6
	c5.2,4.3,11.4,7,17.8,9.1c0.7,0.2,1.6,0.6,2.1,0c0.6-0.7-0.3-1.3-0.6-1.9c-1.8-3.1-2.8-6.5-3.1-10C51.6,64.4,52.7,60,52.1,55.6z
	 M81.2,39.9c0.4-5.5-0.1-9.9-2.2-14.1c-1.1-2.2-2.6-3.6-5.2-3.9c-2.8-0.4-5.1-1.8-6.9-3.9c-1.7-1.9-3.7-3.1-6.2-2
	c-2.5,1.1-2.5,3.4-2.1,5.8c1.4,9.4,1.3,18.6-4,27.1c-0.4,0.7-0.4,1.7-0.4,2.6c-0.3,4.2-0.5,8.3-0.7,12.5c-0.2,5.1,0.9,9.9,3.3,14.4
	c1.2,2.4,2.2,2.5,4.6,1c2-1.3,3.5-3.1,5.2-4.8c4.3-4.3,8.2-9,10.4-14.8C79.2,53.2,81.2,46.3,81.2,39.9z M53.9,45.8
	c1.1-0.5,1.1-1.5,1.4-2.3c2.5-6.2,2.6-12.7,1.8-19.2c-0.5-4.1-2.3-5.2-6.1-3.6c-1,0.4-1.9,1-2.9,1.5c-1.6,0.8-3.2,1.2-5,0.9
	c-5.7-0.9-5.7-0.9-4.6,5c0.5,2.8,1.4,5.2,4.7,5.9c5.8,1.2,9.2,4.7,10.2,10.6C53.5,45,53.7,45.4,53.9,45.8z M43.3,11.8
	c-2.2-0.1-3.7,0.1-4.2,1.8c-0.6,1.9-1,3.8-1.6,5.7c-0.1,0.5-0.1,1,0.5,1c3.5,0,6.9,2.4,10.5-0.2c1.7-1.2,3.7-2,5.9-1.7
	c0.9,0.1,2,0.8,2.5-0.6c0.5-1.3,0.8-2.6-0.3-3.8c-1.3-1.4-2.9-1.9-4.7-1.4c-2.2,0.6-4.3,0.5-6.4-0.3C44.6,12,43.6,11.9,43.3,11.8z
	 M82.8,118.5c-0.3-4.4,0-8.3-0.6-12.2c-0.1-0.8-0.1-2.1-1.2-2.2c-1.1-0.1-1.3,1.1-1.5,2c-1.3,4.6-2.4,9.3-3.1,14
	c-0.5,3.5,0.2,6.7,2,9.7c0.4,0.7,0.6,1.7,1.7,1.5c0.9-0.1,1.2-1.1,1.4-1.8C82.7,125.7,82.8,121.8,82.8,118.5z M38.1,181.7
	c0.9-0.3,2.6,0.7,3.2-0.5c0.5-1.1-1-2.1-1.8-3.1c-4.5-5.2-10.7-6.3-16.9-7.7c-0.4-0.1-0.9-0.1-1.2,0.4c-0.3,0.6,0.2,1,0.5,1.5
	C25.6,178,30.4,182,38.1,181.7z M19.4,93c-2.6,7.2-1.3,14,2,20.5c0.7,1.4,1.5,4.1,3.2,3.3c1.5-0.7,1.7-3.5,1.5-5.5
	C25.5,104.7,22.5,98.8,19.4,93z M34.2,158.4c2.9,0,3.4-0.6,2.3-3.4c-1.5-3.8-10.9-10.2-14.9-10.1c-1.8,0-1.1,1-0.6,1.8
	c1.5,2.3,2.9,4.5,4.5,6.8C27.5,156.6,30.4,158.4,34.2,158.4z M49.7,82.5c-6.4,0.2-11.2,3.8-12.4,9.5c-0.1,0.6-0.9,2.1,0.7,1.5
	c4.6-1.8,9.6-2.8,13.2-6.5c1.1-1.1,2.9-2.3,2.5-3.6C53.2,82,51,82.7,49.7,82.5z M63.5,81.8c-0.3,0-1,0-1.6,0.1
	c-1.3,0.3-3.3-0.1-3.6,1.7c-0.3,1.8,1.5,2.5,2.8,3.2c3.6,2,7.7,2.6,11.7,3.4c0.7,0.1,1.4,0.7,2-0.1c0.5-0.7,0.1-1.4-0.2-2.1
	C73.2,84.2,68.9,81.7,63.5,81.8z M83.6,167.8c5.2-2.6,9.6-6,11.6-11.6c0.7-2,1.3-4,2.6-5.7c0.4-0.5,1.1-1.3,0.3-1.9
	c-0.7-0.5-1.4,0.1-1.9,0.6c-3.3,2.8-6.3,6.1-8.6,9.7C85.8,161.7,84.1,164.4,83.6,167.8z M92.7,123.2c-0.9,0.6-1.1,1.6-1.4,2.6
	c-1.3,4.2-3.2,8.1-5.4,11.8c-1,1.7-1.9,3.5-2.6,5.3c-0.4,1.2-1.4,3-0.1,3.7c1.2,0.7,2.4-0.8,3.2-1.9c4.3-5.5,6.7-11.7,7-18.7
	C93.5,125,93.7,124,92.7,123.2z M51.8,160.8c0,0.1,0-0.6,0-1.2c-0.1-0.7,0.3-1.7-0.6-1.9c-0.9-0.2-0.9,0.9-1.2,1.5
	c-1.5,3.3-3,6.6-4.4,9.9c-1.2,2.7-2,5.5-1.5,8.4c0.1,0.9-0.1,2.4,0.9,2.6c1.1,0.3,1.5-1.1,1.9-1.9C49.9,173.1,51.5,167.5,51.8,160.8
	z M96.8,174.8c-0.1-0.6,0.3-1.5-0.7-1.8c-0.9-0.2-1.2,0.6-1.6,1.2c-0.3,0.4-0.6,0.9-0.8,1.4c-2.5,5.4-6.6,9.4-11.5,12.7
	c-0.8,0.6-1.6,1.2-2.3,1.9c-0.3,0.3-0.8,0.6-0.5,1.1c0.3,0.4,0.8,0.3,1.2,0.3C88.1,191.2,96.6,182.3,96.8,174.8z M39.6,156.3
	c5.6-3.8,6.8-19,2.1-24.2C38.4,140,42,148.4,39.6,156.3z M29.5,135.7c-2.4-4.3-8.7-8.7-14.5-10.2c-0.7-0.2-1.5-0.7-2-0.1
	c-0.7,0.8,0.2,1.5,0.5,2.2C16.1,132.6,23.3,136.3,29.5,135.7z M79.8,169c0.2-0.7,0.4-1,0.3-1.2c-0.1-0.6-0.2-1.3-0.4-1.8
	c-2.9-5.8-7.9-9.7-12.6-14c-1-1-1.6,0-1.5,1.1c0.3,2.4,1.3,4.5,2.9,6.3C71.8,163.1,76.4,165.1,79.8,169z M66,129.6
	c0.4,3.5,1.7,5.9,3.1,8.4c2.2,3.9,5.2,7.2,9,9.6c0.7,0.4,1.5,1,2.2,0.3c0.7-0.6,0.2-1.5-0.1-2.2c-0.6-1.5-1.4-3-2.7-4
	c-2.6-2-4.7-4.5-6.6-7.1C69.7,132.8,68.3,131.3,66,129.6z M74.8,189.8c0-2.5,0-4.6,0-6.6c-0.1-4.9-3.2-8.8-5.1-13
	c-0.5-1-0.4-3.1-1.9-2.7c-1.1,0.3-0.5,2.3-0.2,3.5c1.1,4.6,2.3,9.1,3.6,13.6C71.7,186.5,72.6,188.3,74.8,189.8z M73.1,213.2
	c0.7-0.2,1.4-0.3,2-0.4c5.2-1.1,9.2-4.5,13.4-7.4c0.7-0.5,2.2-1,1.5-2.1c-0.6-0.9-1.8-0.2-2.7,0.1c-5.5,1.8-10,5.4-14.8,8.4
	c-0.4,0.2-0.9,0.6-0.5,1.1C72.2,213,72.8,213.1,73.1,213.2z M62.1,193.6c0.4,4.5,2.3,8.8,3.4,13.4c0.3,1.4,0.9,4,2.6,3.5
	c1.6-0.5,1.1-3,0.6-4.6c-1.3-4.3-2.7-8.6-4.2-12.9c-0.3-0.8-0.4-2.1-1.5-1.9C61.9,191.2,62.2,192.5,62.1,193.6z M33.1,133.8
	c4.2-6.5,5.5-13.9,5.9-21.5C36,119.2,32.2,125.8,33.1,133.8z"/>
</svg>
