<?xml version="1.0" encoding="utf-8"?>
<!-- Generator: Adobe Illustrator 25.3.0, SVG Export Plug-In . SVG Version: 6.00 Build 0)  -->
<svg version="1.1" id="Layer_1" xmlns="http://www.w3.org/2000/svg" xmlns:xlink="http://www.w3.org/1999/xlink" x="0px" y="0px"
	 viewBox="0 0 87.3 230.3" style="enable-background:new 0 0 87.3 230.3;" xml:space="preserve">
<g>
	<path d="M24.3,139.2c0-1-0.1-1.5,0-1.9c2.7-20.7,6.9-41,12.6-61.1c0.3-1.2,0.9-1.8,2.1-2.2c2.4-0.8,3.5-2.6,3.3-5.1
		c-0.2-2.2-1.4-3.8-3.7-4.3c-2.3-0.5-4.2,0.1-5.5,2.2c-1.3,2.2-1,4.4,0.8,6.1c1.1,1.1,1.2,2.1,0.8,3.4c-2.7,9.9-5.1,20-7.3,30.1
		c-0.1,0.7,0,1.5-0.9,1.9C22,96.9,18,85.4,8.5,76.9c-1,0.9-0.6,1.4-0.5,1.9c2.1,7.3,4.8,14.3,8.3,21c2.2,4.1,4.5,8.1,8.2,11
		c1.4,1.1,1.6,2.1,1.3,3.8c-3,16.2-5.3,32.6-6.3,49c-0.2,3.3-0.5,6.5-0.7,9.8c-0.2,0-0.3,0-0.5,0c-1.1-4.3-2.2-8.6-3.4-12.9
		c-2.6-9-5.6-17.8-11.1-25.5c-1-1.4-1.9-2.9-3.5-3.7c-0.5,0.6-0.2,1-0.1,1.5c1.4,7.1,3.1,14,5.2,20.9c2.7,8.9,5.5,17.8,10.9,25.6
		c1.9,2.7,2.3,5.2,2.1,8.2c-0.8,13.6,0.4,27.1,1.4,40.6c0.1,1,0,2.3,1.5,2.1c1.2-0.2,1-1.4,0.9-2.3c-0.3-3.7-0.8-7.3-1-11
		c-1.1-16.3-1.3-32.6,0-48.9c0.6-7.7,1.5-15.4,2.2-23.1c0.2-1.8,0.8-2.7,2.7-3.1c3.9-0.8,7.2-2.9,10.3-5.2
		c6.9-5.2,12.5-11.7,17.6-18.6c0.3-0.5,0.9-1,0.3-2C42.1,120.9,33.5,130.1,24.3,139.2z"/>
	<path d="M78.2,49.3c-2.9,0-5,2.3-4.9,5.2c0.1,2.7,2.3,4.8,5.1,4.7c2.7-0.1,4.9-2.3,4.9-5C83.1,51.6,80.9,49.4,78.2,49.3z"/>
	<path d="M74.5,36.5c2.7,0,4.9-2.2,5-4.9c0.1-2.8-2.2-5.1-5-5.1c-2.7,0-4.9,2.2-5,4.9C69.5,34.2,71.7,36.5,74.5,36.5z"/>
	<path d="M59.6,20.6c2.7,0,4.9-2.2,5-4.9c0-2.7-2.3-5.1-5.1-5.1c-2.8,0-5,2.4-4.9,5.2C54.6,18.5,56.8,20.6,59.6,20.6z"/>
	<path d="M33.6,20.6c2.7-0.1,4.9-2.3,4.8-5c-0.1-2.8-2.4-5.1-5.2-5c-2.7,0.1-4.8,2.3-4.8,5C28.5,18.5,30.8,20.7,33.6,20.6z"/>
	<path d="M59.8,64.3c-2.9,0-5.1,2.3-5,5.1c0.1,2.7,2.4,4.8,5.1,4.8c2.8-0.1,4.9-2.2,4.9-5C64.7,66.5,62.5,64.3,59.8,64.3z"/>
	<path d="M22.8,49.4c-2.7-0.1-5,2-5.1,4.7c-0.1,2.7,1.9,5,4.7,5.1c2.8,0.2,5.2-2,5.2-4.9C27.6,51.7,25.5,49.5,22.8,49.4z"/>
	<path d="M15.5,41.1c2.8,0,4.9-2,5-4.8c0.1-2.8-2-4.9-4.8-5c-2.9-0.1-5.2,2.1-5.2,4.9C10.6,39,12.8,41.1,15.5,41.1z"/>
	<path d="M74.4,21.4c2,0.1,3.7-1.6,3.8-3.6c0-2-1.6-3.7-3.6-3.8c-2,0-3.8,1.7-3.8,3.6C70.7,19.6,72.5,21.3,74.4,21.4z"/>
	<path d="M47.5,19.1c-2.1,0-3.8,1.5-3.8,3.5c0,2,1.6,3.7,3.6,3.7c2.1,0,3.7-1.5,3.7-3.6C51.1,20.7,49.5,19.1,47.5,19.1z"/>
	<path d="M48.7,77.7c2-0.1,3.6-1.8,3.6-3.8c-0.1-2-1.9-3.7-3.8-3.6c-2,0.1-3.6,1.8-3.5,3.8C45,76.2,46.7,77.8,48.7,77.7z"/>
	<path d="M20.1,24.8c2,0,3.7-1.5,3.8-3.5c0.1-2.1-1.5-3.7-3.6-3.7c-2.1-0.1-3.7,1.5-3.8,3.5C16.5,23,18.1,24.7,20.1,24.8z"/>
	<path d="M22.7,64.4c-2.1-0.1-3.7,1.4-3.7,3.5c-0.1,2.2,1.3,3.7,3.5,3.8c2.1,0.1,3.7-1.4,3.8-3.5C26.3,66.1,24.8,64.4,22.7,64.4z"/>
	<path d="M29.6,43.3c2.1-0.1,3.6-1.7,3.5-3.8c-0.1-2-1.7-3.6-3.8-3.5c-2,0.1-3.6,1.8-3.6,3.8C25.8,41.8,27.5,43.3,29.6,43.3z"/>
	<path d="M62,50.6c-2.1-0.1-3.7,1.5-3.8,3.6c-0.1,2.1,1.5,3.8,3.5,3.8c2,0,3.7-1.6,3.8-3.6C65.7,52.4,64.1,50.7,62,50.6z"/>
	<path d="M60.4,25.9c-2.1-0.1-3.7,1.5-3.8,3.5c-0.1,2.1,1.5,3.7,3.5,3.8c2,0.1,3.8-1.5,3.8-3.5C64.1,27.7,62.4,26,60.4,25.9z"/>
	<path d="M36.4,39.7c0,2.1,1.6,3.6,3.7,3.6c2.1,0,3.6-1.6,3.6-3.7c0-2-1.7-3.7-3.7-3.6C38,36,36.4,37.6,36.4,39.7z"/>
	<path d="M36.7,56.7c2,0,3.7-1.6,3.7-3.7c0-2.1-1.6-3.7-3.7-3.7c-2,0-3.7,1.7-3.7,3.7C33,55,34.6,56.7,36.7,56.7z"/>
	<path d="M74.7,65.7c-2-0.1-3.8,1.4-3.9,3.5c-0.1,2,1.5,3.8,3.5,3.9c2,0.1,3.8-1.5,3.9-3.5C78.3,67.5,76.7,65.8,74.7,65.7z"/>
	<path d="M46.5,12.5c2.1,0,3.7-1.6,3.7-3.6c0-2-1.7-3.7-3.7-3.7c-2.1,0-3.6,1.6-3.7,3.6C42.8,10.9,44.4,12.5,46.5,12.5z"/>
	<path d="M83.7,37.2c-2,0-3.7,1.7-3.7,3.7c0,2,1.6,3.6,3.6,3.7c2.1,0,3.7-1.5,3.7-3.6C87.3,38.9,85.7,37.2,83.7,37.2z"/>
	<path d="M67.8,39.4c-2-0.1-3.7,1.5-3.8,3.5c-0.1,2,1.5,3.7,3.5,3.8c2.1,0.1,3.8-1.5,3.8-3.5C71.4,41.2,69.8,39.4,67.8,39.4z"/>
	<path d="M11.5,53.3c2,0,3.7-1.6,3.8-3.6c0-2-1.4-3.5-3.4-3.6c-2.2-0.1-3.8,1.5-3.9,3.8C8,51.7,9.5,53.2,11.5,53.3z"/>
	<path d="M32.8,23.8c-1.9-0.1-3,1.1-3.1,2.9c-0.1,1.8,1,3,2.9,3.1c1.8,0.1,2.8-1.1,3.1-2.9C35.6,25.1,34.7,23.9,32.8,23.8z"/>
	<path d="M41.3,48.4c0,1.9,1.2,2.8,3.1,3c1.7-0.2,2.8-1.3,2.8-3.1c0-1.8-1.1-3-3-2.9C42.4,45.4,41.3,46.5,41.3,48.4z"/>
	<path d="M61.6,6c1.8-0.2,2.7-1.3,2.9-3c-0.2-1.8-1.2-2.9-3-3c-1.8,0-2.9,1-3,2.9C58.4,4.5,59.9,6.1,61.6,6z"/>
	<path d="M46.4,59.1c0.1,1.8,1.1,2.9,3,2.9c1.8,0,2.8-1.1,3-2.9c-0.1-1.8-1-2.9-2.9-3.1C47.8,55.9,46.2,57.4,46.4,59.1z"/>
	<path d="M49.6,33c0-1.9-1.2-2.9-3-2.9c-1.8,0-3,1.1-3,2.9c0,1.8,1.1,2.8,3,3C48.4,35.8,49.6,34.8,49.6,33z"/>
	<path d="M55.9,47.3c1.9,0.1,3-1,3.1-2.8c0.1-1.8-0.9-2.9-2.8-3.1c-1.8,0.1-3,1-3.1,2.8C53,46,54,47.1,55.9,47.3z"/>
	<path d="M83.5,29c1.8,0,2.8-1.2,2.9-3c-0.2-1.8-1.2-2.9-3-2.8c-1.9,0-2.9,1.2-2.9,3C80.5,28,81.6,29.1,83.5,29z"/>
	<path d="M35.4,7.4c1.8-0.1,2.9-1.2,2.8-3.1c-0.1-1.8-1.2-2.8-3-2.8c-1.9,0.1-2.7,1.2-2.8,3C32.5,6.4,33.6,7.4,35.4,7.4z"/>
</g>
</svg>
