<?xml version="1.0" encoding="utf-8"?>
<!-- Generator: Adobe Illustrator 25.3.0, SVG Export Plug-In . SVG Version: 6.00 Build 0)  -->
<svg version="1.1" id="Layer_1" xmlns="http://www.w3.org/2000/svg" xmlns:xlink="http://www.w3.org/1999/xlink" x="0px" y="0px"
	 viewBox="0 0 74.2 247.3" style="enable-background:new 0 0 74.2 247.3;" xml:space="preserve">
<path d="M45.9,22.7c3.4-0.9,5.8,0,7.7,3.3c0.7,1.2,1.2,2.3,2.5,2.9c0.9,0.4,1.6,1.3,1,2.5c-0.5,1.2-1.6,1.6-2.8,1.3
	c-1.6-0.4-3.1-1.8-4.6,0.2c-0.1,0.1-1.4-0.7-2.2-1.1c-0.8,1.1-0.7,2.3-0.7,3.8c2.2-0.7,4.2-0.9,6.1-1.2c2.7-0.5,2.8,0.6,2.2,2.7
	c-1.1,3.8-4,6.3-7.9,6.4c-2.3,0-3.3,1.1-4.5,2.9c-3.6,5-4.4,10.5-4.1,16.3c0.1,1.7,0,3.3,2.1,3.9c0.9,0.3,1.5,1,1.5,2
	c-0.1,1.1-0.9,1.4-1.8,1.5c-1.8,0.2-1.8,1.3-1.4,3c2.5-1.7,5.1-2.7,7.7-3.6c2.4-0.9,2.9-0.4,2.6,2.2c-0.5,4.5-4.6,9.2-9.1,9.8
	c-2.6,0.4-2.6,2.1-2.6,3.8c-0.1,8.1,0,16.2-0.1,24.3c0,5,0,10.1,0.5,15.2c1.9-1.3,2.8-3.1,3.7-4.8c0.7-1.3,0-2-0.9-2.8
	c-2.1-2-3.2-9.2-2-11.5c0.6-1.2,1.3-0.5,1.8,0c1.6,1.5,3.4,2.8,4.7,4.8c1.6-2,1.9-3.4-0.5-4.9c-3.1-1.8-4.1-4.7-3.4-8.3
	c0.4-2.3,1.4-2.3,3.1-1.3c1.8,1.1,2.6,2.9,4.2,4.5c1.2-1.5,0.3-2.7-0.2-3.9c-1.6-4.1-0.4-9.8,2.6-12.7c0.6-0.6,1.3-1.1,2-1
	c1,0.1,0.7,1.2,0.9,1.9c0.6,3.3,0.8,6.6,0.1,9.9c-0.3,1.5-0.7,3-2.4,3.7c0.1,0.1,0.2,0.2,0.2,0.2c-0.1,0.3-0.2,0.3-0.3,0
	c0,0,0.1-0.1,0.2-0.2c1.3,0.5,2.1-0.5,3-1c0.9-0.5,2-1,2.8-0.4c0.9,0.6,0.6,1.8,0.5,2.8c-0.4,4.6-3.9,6.1-7.6,7.3
	c-1.4,0.5-2.5,0.8-2.5,2.7c2-0.4,4.1-0.7,6.1-1.1c2.4-0.5,2.6,0.5,2.1,2.5c-1.2,4.5-4,7-8.8,7.1c-2.5,0-3.6,1.1-4.9,3
	c-3.3,5-4.8,9.9-4.2,16.1c0.7,7.1-0.1,14.4-0.2,21.6c0,1.1-0.4,2.2,0.5,3.4c2.2-1.6,3.4-4,4.9-6.1c0.6-0.8,0.1-1.5-0.3-2.2
	c-2.2-3.3-1.3-6.5-0.2-9.9c0.6-1.9,1.3-2.1,2.7-0.7c0.9,0.9,2.1,1.6,2.5,3c1.4-0.6,1.5-1.8,2-2.7c0.9-1.7,2-3-1.3-3.8
	c-1.9-0.5-3.4-1.8-5.4-0.3c-0.7,0.5-1.6,0-2-0.7c-0.6-0.9-0.9-2.1,0-2.7c2.4-1.6,3.2-4.2,4.8-6.3c3.3-4.2,7.4-4.3,10.8-0.3
	c1.2,1.4,2.3,2.6,4.4,2.4c1.6-0.1,2.7,1.3,2.7,2.8c0.1,1.9-1.6,1.4-2.7,1.4c-0.1,0-0.3-0.1-0.3,0c-2,2-4.3,3-7.1,1.8
	c-0.1,0-0.6,0.6-0.8,0.9c-0.7,1.9-1.2,3.8-2,5.6c-0.7,1.7-1.6,3.3-2.6,5.2c1.7-0.3,3.1-0.6,4.5-0.6c1.3,0,3.5-0.6,3.8,1.1
	c0.2,1.8,0,4-2.1,5.2c-1.8,1-3.8,1.7-5.7,1.3c-4.4-0.9-6.1,1.8-7.6,5.3c1.8,0,3.3-1,5-0.8c1.3,0.2,2,0.5,1.4,2.1
	c-1.5,4.2-1.7,4.6-6.2,4.4c-2.7-0.1-3.7,0.7-3.8,3.5c-0.3,8.5-0.8,17-1.3,26.4c2.2-3.1,5-4,7.6-5.4c0.7-0.4,1.2-1.1,2.1-0.5
	c0.6,0.5,0.4,1.2,0.2,1.9c-0.6,2.6-1.2,5.2-1.8,7.8c-0.7,3.2-3.2,4.8-5.9,5.8c-2.6,1-3.3,2.6-3.6,5.2c-0.7,6.5,0,13.1-0.7,19.6
	c-0.2,1.7-0.5,3.2-2.3,4.1c-1.3,0.6-2.8,1.4-4.1,0.6c-1.2-0.8,0-2.2,0.2-3.3c1.8-11.7,4.1-23.4,5.4-35.1c0.3-2.9-1.8-4.6-3.1-6.7
	c-0.6-0.9-1.4-0.2-2.1-0.1c-2.6,0.7-4.8-0.2-6.8-1.8c-0.7-0.6-1.4-1.3-1.1-2.2c0.3-1,1.3-1,2.2-1.1c1.6-0.2,3.3,0.4,5-0.2
	c-0.1-2-1-3.6-1.5-5.4c-0.3-1.2-1-1.3-2.2-1.3c-3.9,0.1-6.7-2.6-7-6.5c-0.1-1.5,0.9-1.4,1.7-1.2c1.7,0.4,3.3,1,5.3,1.5
	c-0.2-2.6-0.4-4.7-2.6-6.3c-1.8-1.2-2.4-3.2-2.1-5.3c0.1-1.1,0.3-2.2,0.6-3.2c0.4-1.2-0.5-3.2,1.1-3.5c1.6-0.3,2.5,1.6,3.4,2.8
	c1.3,1.7,1.6,3.8,1.3,6c-0.3,2.3-0.8,4.6-0.4,7c1.7,0,2.2-1.5,2.9-2.4c0.9-1.2,1.6-1.4,2.3,0.1c1.5,2.9,1.1,6.6-1.5,8.4
	c-2.4,1.7-1.5,3.2-0.3,5.2c0.7-1.4,1.3-2.5,2-3.6c0.4-0.7,0.6-1.8,1.8-1.5c1,0.2,1.2,1.2,1.4,2.1c0.7,2.5,0.6,5.1-1,7
	c-2.3,2.7-1.1,4.5,0.6,6.5c1-0.3,0.9-1,0.9-1.7c0.8-9.5,1.1-19,0.9-28.6c0-1.9-0.2-3.1-2.6-3.7c-3.8-1-5.7-4-5.6-7.3
	c0-1.6,0.6-1.9,2-1.5c2.2,0.6,4,1.8,5.8,3.4c1.2-1.8,0.6-3.6,0.5-5.2c-0.2-1.6-1.4-2.7-3.4-1.7c-1.6,0.9-3.4,1.1-5.2,0.6
	c-1.1-0.3-2.3-0.7-2.3-2.1c0-1.2,1.1-1.5,2-1.9c0.6-0.2,1.2-0.4,2.2-0.8c-2.1-1.7-2.6-4.2-6.4-3.3c-2.1,0.5-4.1,0.6-5.8,2.2
	c-0.6,0.5-1.6,1.1-2.4,0.4c-0.8-0.7-0.6-1.8-0.2-2.5c2.4-3.9,2.7-9.4,8-11.2c1.6-0.5,0.8-1.9,0.5-2.8c-0.4-1.1-1.2-1-2.1-0.5
	c-2.5,1.3-5.3-0.4-8,0.8c-1.5,0.7-2.7-1-1.5-2.7c0.8-1.2,1.2-2.5,1.7-3.9c2-6,9.2-8.2,14.2-4.3c1.4,1.1,2.5,2.5,4.5,2.6
	c0.8,0.1,1.3,0.8,1.3,1.7c0.1,1.1-0.7,1.8-1.6,1.8c-2.4,0.1-3.6,2.5-6,2.6c-1,0-1,0.9-0.9,1.8c0.5,2.4,4.2,4.5,6.5,3.5
	c1.3-0.6,2.4-0.5,3.2,0.6c1,1.4-0.4,1.8-1.2,2.5c-2.1,1.7-2.8,5.7-1.3,7.9c1.2,1.8,2.3,3.7,4.8,5.5c0-2.9,0-5.3,0-7.6
	c-0.2-9.3-1.2-18.6-0.8-27.9c0.2-4.8-1-9.5-2.1-14.1c-0.5-2-1.4-3-4-2.7c-5.8,0.8-10.1-2.8-10.6-8.4c-0.1-1.4,0-2.3,1.9-2.1
	c2.7,0.2,5.3,0.6,7.5,2.5c-1.9-4.9-4.8-9.1-7.6-13.4c-0.8-1.2-2.3-0.2-3.4-0.7c-1.8-0.9-2,0.6-2.6,1.6c-0.5,0.8-1,1.5-2.1,1.3
	c-1.1-0.3-1.2-1.2-1.1-2.1c0.2-1.6-0.1-3.1-0.1-4.6c-0.3-5.5,3.6-8.8,9.1-7.9c1.3,0.2,2.6,0,4,0.1c1.7,0.2,2.5,1.1,1.4,2.6
	c-0.9,1.3-1.2,2.9-3.2,3.5c-3.2,1-3.2,2.4-0.2,4.9c1.4,4.7,4.7,8.2,7.3,12.3c0.6-1.8,0.9-3.5,1-5.2c0.4-5-1.2-6.5-6.2-5.9
	c-1,0.1-1.7-0.3-2.2-1.1c1.1-3.2,3.1-5.8,5.4-8.1c1.7-1.7,4-1,5.9-0.1c1.1,0.5,2.1,1.2,3.5,2c-0.1-2.6-0.2-4.8-0.3-7
	c0-1.1-0.7-1.3-1.6-1c-1.2,0.4-2.3,0.9-3.4,1.2c-4.8,1.4-7.9-0.1-9.8-4.8c-0.6-1.4-0.1-1.6,1.1-2c2.5-0.8,5,0,7.8-0.2
	c-0.9-2.3-2.1-3.2-4.3-2.8c-1.3,0.3-2.6,0.5-3.9,0.4c-3.2-0.1-5.6-2.7-5.8-5.9c-0.1-1.4,0.7-1.4,1.7-1.4c2.1,0.2,4.1,0.6,6.5,1.9
	c-1.6-3-2.9-5.4-4.2-7.8c-0.1-0.1-0.1-0.3-0.1-0.3c-2.4-0.2-4.8-0.6-7.1-0.4c-0.9,0.1-1.7,1.5-2.8,0.4c-0.9-0.9-0.9-2.1-0.1-3
	c1.3-1.7,1.1-3.8,1.9-5.6c1.9-4.1,5.1-5.6,9.2-3.8c2.1,0.9,4,1.6,6.3,1.2c1.1-0.2,2.4,0.1,2.6,1.4c0.2,1.3-0.9,1.6-1.9,1.9
	c-1.4,0.4-3.1,0.4-2.3,2.9c0.4,1.2-0.9,1.9-2.1,1.9c-1,0-2-0.2-3.5-0.3C24.5,39,29,46.4,36.1,51.9c1-0.9,0.3-1.6,0.2-2.3
	c-2.1-8-3-16.1-2.9-24.3c0-1.4,0.1-2.8-1.1-4c-1.1-1.2-1.8-1.9-3.6-1.1c-1.1,0.5-2.7,0.9-3.5-0.6c-0.8-1.5,0.5-2.1,1.6-2.7
	c1.1-0.6,1.3-1.8,1.8-2.7c1.6-2.9,4.1-4.4,7.3-4.1c3.5,0.3,6.2,2.4,7.2,5.5c0.3,0.8,0.1,2,1,2.4C46.7,18.9,46.4,20.7,45.9,22.7
	c-0.9-0.4-1.9-0.8-2.8-0.1c-1.7,1.4-3.2,1-4.8-0.1c-2.1-1.3-3.2-0.7-3.4,1.8c-0.3,3.9-0.2,7.7,0.2,11.6c0.5,4.9,1.1,9.8,3.3,14.8
	c3.2-4.2,4.7-8.8,6.4-13.4c0.8-2.3,1-3.8-1.7-5.2c-1.3-0.7-2-0.1-3,0c-0.9,0.1-1.9,0.5-2.4-0.4c-0.6-0.9,0-1.7,0.8-2.3
	c1.2-0.9,1.8-2.2,2.6-3.4C42.1,24.3,43.5,22.7,45.9,22.7z M13.7,70.4c0-0.2,0-0.5,0-0.7c-0.1,0.1-0.2,0.1-0.2,0.2
	C13.6,70,13.7,70.2,13.7,70.4l-0.1-0.1L13.7,70.4z M34.9,94.5c0.4,0,0.7,0,1.1,0.1c0-7,0-14,0-21.1c0-1.8-1.6-1.7-2.6-1.9
	c-1.2-0.3-1.3,0.9-1.4,1.8c-0.2,3-0.4,5.9-0.6,8.9c3.3-0.3,3.5-0.2,3.3,3c-0.1,1.6-0.1,3.4-0.5,4.9C33.8,91.8,34.1,93.2,34.9,94.5z
	 M36.2,206.5c5.6-1.2,7.5-3.9,7.8-11.4C38.9,196.7,35.9,201.2,36.2,206.5z M38.7,17.5c1.5-0.1,3.2,0.4,2.7-1.7
	c-0.6-2.5-2.6-3.8-4.9-4.2c-2.4-0.5-4.6,0-6.1,2.2c-0.7,1.1-0.6,2.1,1,2.4C33.9,16.6,36.5,17.1,38.7,17.5z M40.2,80.3
	c2.2-0.1,6.8-4.7,6.9-7.2c0-0.9,0.2-1.8-1.2-1.9c-2.8-0.2-8,4.5-7.9,7.3C38.1,79.7,38.5,80.5,40.2,80.3z M16,119.7
	c3.2-0.5,6.2-1.3,9.1-2.4c1.9-0.7,1.5-1.5,0.2-2.5c-3-2.4-9.8-0.4-10.9,3.3C13.9,119.9,15.2,119.6,16,119.7z M27.5,91
	c0.7-0.4,2.6,0.7,2.2-1.5c-0.4-2.4-4.8-5.9-7.2-6.1c-1.7-0.1-2.5,0.3-1.9,2.2C21.6,89,23.9,90.9,27.5,91z M48.3,134.1
	c2.4-0.4,4.9-0.7,7.4-1.1c1.4-0.2,1.4-0.9,0.6-2.1c-2.4-3.5-6.4-3.2-9.2,0.7c-0.4,0.6-1.2,1.2-0.8,2C46.7,134.3,47.5,134,48.3,134.1
	z M34.6,53.7c-2.2-1.8-6.7-3.1-9.1-2.6c-1.4,0.3-1.8,0.9-1,2.3C26.4,56.7,30.1,56.9,34.6,53.7z M19,22.4c-3.2,0.1-4.3,2.2-5.2,4.5
	c-0.6,1.5,0,2.2,1.5,1.6c2-0.8,4-1.7,6-2.7c0.6-0.3,1.5-0.7,1.4-1.6c-0.1-0.9-0.9-1.2-1.7-1.4C20.2,22.7,19.5,22.5,19,22.4z
	 M48.3,116.8c2.9-0.2,4.7-2.1,5.8-4.6c0.7-1.6,0.1-1.9-1.5-1.8c-2.5,0.2-4.3,1.7-5.8,3.5c-0.5,0.6-1.6,1.2-1.1,2.2
	C46.2,117,47.4,116.6,48.3,116.8z M46,28.1c1.3-0.1,2.1,0,2.8-0.2c1.1-0.2,2.9,0.5,3-1c0.2-1.5-1.3-2.4-2.7-3
	c-1.2-0.5-2.4-0.5-3.5,0c-1.6,0.7-3.3,1.9-3,3.5c0.2,1.4,2.3,0.4,3.5,0.6C46.3,28.1,46.4,28.1,46,28.1z M46.9,42.1
	c2.6-0.5,4.8-1.7,6-4.2c0.6-1.3,0.4-2.1-1.3-2c-2.8,0.2-4.7,1.6-6,4C44.6,41.5,45.4,42,46.9,42.1z M30.4,67c2.8,0.1,5.6-0.7,5.3-1.5
	c-0.8-1.8-2.6-2.5-4.4-3c-1.6-0.4-5,1.7-4.7,3.1c0.3,2.1,2.3,0.8,3.5,1.3C30.2,67,30.3,67,30.4,67z M52.1,85.7
	c-2.3,3.3-3.4,6.3-2.4,9.7c0.2,0.5,0.3,1.1,0.9,1.2c0.9,0.2,1.1-0.5,1.4-1.1C53.5,92.5,53.9,89.4,52.1,85.7z M46.8,155.1
	c2.7,0.6,4.9,0.2,7-0.9c1-0.5,2.1-1.2,1.6-2.5c-0.4-1.3-1.7-1.2-2.8-1C50.2,151.3,48.1,152.4,46.8,155.1z M43.9,113.1
	c-0.1-2-0.7-3.6-2.3-4.6c-0.4-0.2-0.9-0.6-1.2-0.2c-1,1.5-0.6,3.1-0.5,4.8c0,0.1,0,0.2,0.1,0.3c0.4,1.3,0.9,2.9,2.4,2.8
	C44,116.1,43.7,114.3,43.9,113.1z M27.8,130c-5.1-1.9-9.4,0.5-9.2,4.9C21.3,132.9,24.4,131.8,27.8,130z M42.9,99.6
	c0.1,0.5,0.2,1.4,0.5,2.2c0.7,1.5,1.8,3.4,3.5,2.6c1.4-0.6,0.2-2.6-0.3-3.8c-0.3-0.8-0.9-1.5-1.4-2.2c-0.4-0.5-0.9-1.1-1.6-0.9
	C42.8,97.8,43,98.6,42.9,99.6z M35.3,156.2c-0.2-1.5-4-4.6-5.4-4.4c-0.9,0.1-1,0.7-0.9,1.5c0.3,1.7,3.4,4.2,5.2,4.1
	c0.1,0,0.2,0,0.3,0C35.3,157.3,35.4,156.9,35.3,156.2z M19.7,60.9c0-0.7-0.6-0.8-1.1-0.9c-2.2-0.3-5.8,2.9-5.7,5.1c0,0.6,0.3,1,1,1
	C14.6,66.1,19.7,61.6,19.7,60.9z M22.3,158.1c-1.9,3.6-2,5.7-0.3,7.5c0.5,0.5,1,1.4,1.8,0.2C24.8,164.2,24,159.8,22.3,158.1z
	 M44.8,153.3c1.5-2.1,2-4.1,1.9-6.2c0-0.8-0.5-1.6-1.3-1.7c-1.1-0.2-1.2,0.8-1.4,1.5C43.3,148.9,42.7,151.1,44.8,153.3z M50.1,105.2
	c4.5-1,5.8-2.3,6.1-6C53.2,100,51.9,101.2,50.1,105.2z M25.5,45.3c-1-2-2.7-2.6-4.5-3.2c-0.6-0.2-1.4-0.4-1.8,0.2
	c-0.5,0.7-0.1,1.6,0.4,2.1C21.2,46.3,23.2,46.4,25.5,45.3z M20.7,173.9c-1-0.1-1.5,0.2-1.4,1.1c0.4,1.8,1.7,2.8,3.5,3
	c0.8,0.1,2.1,0.1,1.7-1.2C24,174.8,22.2,174.4,20.7,173.9z M39.2,166.6c2,0,3.5,0.2,4.8-0.1c1.4-0.3,2.3-1.7,1.8-3
	c-0.4-1.2-1.7-0.3-2.5,0C41.9,164,40.5,164.6,39.2,166.6z M29.2,170.6c-1.4,1.5-3.3,2.6-2.5,5c0.2,0.7,0.9,0.5,1.4,0.2
	C29.6,174.5,30.5,173,29.2,170.6z M32.2,180.3c-1.5,1.7-2.7,3.5-1.4,6.1C32.9,184.6,33.2,182.6,32.2,180.3z M52.1,136.2
	c0-0.7-0.5-1.1-1.5-1c-1.3,0.1-2.6,0.4-2.5,2c0.1,0.9,0.8,1.5,1.9,1.4C51.3,138.5,52,137.8,52.1,136.2z M22.3,188.4
	c1.8,1.4,3.3,2.1,5,1.9c0.6,0,1.1-0.3,1.3-0.8c0.2-0.7-0.4-0.9-0.9-1.1C26.1,187.8,24.6,187.6,22.3,188.4z M24.7,133.8
	c2,0.3,3.5,1.2,5-0.1c0.5-0.5,0.1-1.1-0.3-1.3C27.7,131.5,26.3,132.1,24.7,133.8z M32.8,68.8c-0.7-0.1-1.2-0.2-1.6-0.2
	c-0.7,0-1.6-0.2-2.1,0.5c-0.3,0.4-0.1,0.8,0.3,1.1c0.7,0.6,1.4,0.4,2.1-0.1c0.7-0.5,1.3-1.2,2.3-0.5c0.4,0.3,0.9,0.8,1.4,0.3
	c0.1-0.1,0.2-0.4,0.1-0.6c-0.3-0.8-0.9-0.8-1.6-0.7C33.3,68.7,32.9,68.8,32.8,68.8z M53.7,135.3c1.4,1.4,2.5,2.2,4.1,1.5
	c0.5-0.2,0.6-0.9,0.2-1.4C56.8,134.2,55.5,134.6,53.7,135.3z M20.5,121.5c-0.3-0.9-1-0.9-1.6-0.6c-0.8,0.3-2.2,0.1-2.1,1.6
	c0.1,0.8,0.8,1,1.6,0.8C19.3,122.9,20.4,122.8,20.5,121.5z M38.4,19.1c0.3,1.6,0.8,2.8,2.5,2.6c0.6-0.1,0.9-0.6,0.8-1.2
	C41.4,18.5,40,18.9,38.4,19.1z M17.6,32.9c1.1-0.2,1.3-1.1,1.3-2c0-0.7,0.1-1.7-1-1.6c-1,0-1.6,0.7-1.6,1.7
	C16.3,31.8,16.5,32.7,17.6,32.9z M23.9,136c-0.3-0.6-0.3-1.5-1.3-1.5c-1.1,0-2,0.5-2.1,1.7c-0.1,0.9,0.7,1.3,1.5,1.4
	C23.1,137.7,23.7,137.1,23.9,136z M20.7,28.1c1.1,0.8,2,1.8,3.4,1c0.7-0.4,0.4-0.9,0-1.3C23,26.6,22,26.9,20.7,28.1z M36,19.2
	c-0.3-1.1-1.4-0.9-2.3-1c-0.5-0.1-0.9,0.2-0.8,0.7c0.3,1.1,1.1,1.5,2.2,1.5C35.6,20.5,36.1,20.1,36,19.2z M18.7,67.8
	c-0.2-0.7-0.2-1.6-1.2-1.5c-0.7,0-1.2,0.6-1.2,1.3c-0.1,0.8,0.5,1.2,1.2,1.3C18.1,69,18.5,68.6,18.7,67.8z M43.7,138
	c0.6-0.2,1.4-0.5,1.6-1.5c0.1-0.5-0.3-0.9-0.8-0.8c-0.9,0.1-1.7,0.6-1.8,1.5C42.5,137.7,42.9,138,43.7,138z M29.5,140.1
	c-1-2.6-1-2.6-2.8-3.4C27.1,138,28,138.9,29.5,140.1z M33.1,84.4c-1.2,2.5-1.2,2.5,0,4.3C33.4,87.3,33.8,86.1,33.1,84.4z
	 M25.8,120.5c-0.3-0.3-0.6-0.8-1-1c-0.7-0.3-1.5-0.1-1.9,0.7c-0.1,0.1,0.4,0.7,0.7,0.9C24.3,121.5,25,121.5,25.8,120.5z M30.7,118.5
	c-1.1-0.6-1.9-0.9-2.8,0.2C28.9,119.4,29.7,119.5,30.7,118.5z M29.8,17.7c-1.2-0.5-2-0.1-2.7,1C28.3,19.1,29.2,18.8,29.8,17.7z
	 M27.2,144.9c1.1,0.7,2,0.6,3-0.1C29.2,143.9,28.3,144,27.2,144.9z M15.5,139.4c1.6,0.1,2-0.7,2.5-2C16.4,137.4,16,138.3,15.5,139.4
	z M62.1,134.2c-0.2-0.6-0.7-0.8-1.3-0.8c-0.4,0-0.7,0.2-0.6,0.6c0.1,0.7,0.7,0.7,1.3,0.7C61.8,134.7,62.1,134.6,62.1,134.2z
	 M28.1,24.5c-1.2-0.4-2-0.3-2.6,0.7C26.5,25.7,27.2,25.6,28.1,24.5z M32,129.3c-1,0.1-1.4,0.4-1.6,1c0,0.1,0.6,0.4,0.8,0.3
	c0.4-0.1,0.7-0.4,1-0.8C32.3,129.6,32,129.3,32,129.3z M13,123.6c0.4-0.2,0.8-0.4,0.7-0.9c-0.1-0.4-0.4-0.5-0.7-0.3
	c-0.2,0.2-0.5,0.4-0.6,0.7C12.3,123.5,12.6,123.7,13,123.6z M39.5,67.7c-0.3-0.1-0.7-0.2-1.1-0.3c-0.3,0-0.8,0-0.5,0.4
	c0.2,0.3,0.7,0.5,1,0.6C39.4,68.5,39.6,68.3,39.5,67.7z M13.5,31.5C13.2,31.2,13,31,12.9,31c-0.3,0.1-0.6,0.3-0.7,0.6
	c-0.1,0.3,0,0.6,0.4,0.4C13,31.9,13.2,31.7,13.5,31.5z M20.3,63.4c-0.1,0.2-0.2,0.3-0.4,0.4c0.1,0,0.2,0.2,0.2,0.1
	c0.2,0,0.3-0.2,0.4-0.2C20.5,63.6,20.4,63.5,20.3,63.4z M23.2,61c0-0.1-0.1-0.2-0.1-0.2c-0.1,0.1-0.2,0.1-0.2,0.2
	c0,0.1,0.1,0.2,0.1,0.2C23.1,61.2,23.2,61.1,23.2,61z"/>
</svg>
