<?xml version="1.0" encoding="utf-8"?>
<!-- Generator: Adobe Illustrator 25.3.0, SVG Export Plug-In . SVG Version: 6.00 Build 0)  -->
<svg version="1.1" id="Layer_1" xmlns="http://www.w3.org/2000/svg" xmlns:xlink="http://www.w3.org/1999/xlink" x="0px" y="0px"
	 viewBox="0 0 90.3 232.8" style="enable-background:new 0 0 90.3 232.8;" xml:space="preserve">
<path d="M84.4,12.2c5.4,1.7,6.9,4.2,5.3,8.8c-0.8,2.3-2.1,3.9-4.8,3.9c-2.4,0-4.3-0.9-5.4-3.2c-1.7-3.5-2.1-3.7-5.7-2.1
	c-1.1,0.5-2.2,0.9-3,1.8c-3.7,4.9-6.4,10.4-8.9,16.4c3.4,0.2,5.8,0,6.8-3.6c0.9-3.4,4.6-4.9,8.3-4.2c2.8,0.5,4.2,2.5,4.4,6.1
	c0.1,2.3-0.4,4.4-1.4,6.4c-1.2,2.5-3.3,3.6-6,3.7c-2.7,0.2-4.4-1.2-5.7-3.4c-1.6-2.8-7.5-2.8-8.9,0.2c-3,6.4-5.7,12.9-8.6,19.7
	c3.8,0.3,5.4-1.3,6.1-4.6c0.7-3.3,3.2-5,6.2-5c3.2,0,5.1,1.7,6.1,4.6c0.9,2.9-0.3,7.5-2.6,8.9c-2.4,1.5-5.1,1.5-7.4-0.1
	c-1.3-0.9-2.3-2.3-4.1-1.3c-2.5,1.4-5.9,1.2-7.1,4.8c-2.1,6.5-4.9,12.7-6.8,19.6c3-0.1,5.2-0.7,5.2-4.2c0-3.1,2.2-4.5,4.6-5.1
	c3.1-0.8,6.5-1.7,9.3,1c1.7,1.7,1.5,3.7,0.9,5.9c-1.5,5.7-8.3,9.1-12.9,5.4c-1.5-1.2-8.1,0.5-8.8,2.5c-2.9,8.3-5.4,16.8-7.1,25.7
	c4.1-1.1,5.5-3.7,6.4-7.3c0.8-3.4,4.1-5.4,7-5.1c3,0.3,4.8,2.1,5.5,4.9c0.8,3-0.9,6.9-3.5,8.6c-2.4,1.5-4.9,2.2-7.4,0.5
	c-1.5-1.1-2.5-0.7-3.8,0.1c-3.8,2.1-6.7,4.4-7,9.4c-0.4,5.6-1.9,11.1-3,16.6c-0.2,1.2-0.6,2.3,0.2,3.4c-1.5,1.9-1.4,4-1.1,7.2
	c1.6-2,3.5-2.6,3.6-4.7c2.4-0.6,2.6-2.2,1.9-4.2c-0.7-2-0.7-4.1-0.4-6.2c0.5-3.1,3.8-6,6.8-6.2c3-0.2,5.7,2.1,6.5,5.7
	c1.6,6.9-2.6,12.2-8.2,11c-2.3-0.5-3.2,1-3.7,2.9c-2.4,0.3-2.9,3-4.8,3.8c-2.9,1.2-3.2,3.4-3.4,6c-0.6,6.9-1.3,13.8-1.8,20.7
	c-0.1,1.2-0.8,2.6,0.6,3.6c-1,1.5-0.8,3.1-0.5,5.1c2-1.9,3.8-3.4,5.3-5.1c1.3-1.5,2.5-3.3,0-4.9c0.5-0.7,0.6-1.4,0.6-2.2
	c0-5.8,2.7-9.6,9.6-7.8c0.7,0.6,1.3,1.2,2,1.9c2.6,2.6,3.3,5.7,1.8,9c-1.4,3.1-3.9,5.1-7.4,4.8c-2.6-0.2-3.9,1.1-5.7,2.6
	C23,199.3,21.4,205,22,212c0.5,5.9,0.8,11.8,1.3,17.6c0.1,1.3,0.6,2.9-1.2,3.2c-1.9,0.3-1.7-1.5-1.9-2.7c-0.1-1.3-0.5-2.6-0.4-3.9
	c0.9-7-3.7-11.3-7.5-16c-1.1-1.4-2.2-0.9-3.5-0.7c-2.5,0.4-4.8,0.4-6.7-1.9c-3-3.6-2.9-7.6,0.5-10.3c4.2-3.3,7.8-2.8,10.7,1.4
	c0.3,0.4,0.6,0.8,0.9,1.2c-1.2,5.1-0.3,9.4,4.9,12.7c-0.6-5.8,0.6-11.3-0.8-16.7c2.4-8.1,1.8-15.7-4.3-22.2
	c-0.9-0.9-1.4-0.9-2.6-0.7c-4.9,1-8.1-1.4-8.5-6.1c-0.4-5.3,3.1-10.3,7.5-10.3c2.1,0,3.4,1,4.3,2.8c1,2,1.7,4.2,1,6.1
	c-1.5,4.5,1.3,7.1,3.7,10.5c1.5-3.5,1.2-7,1.5-10.2c0.7-6.8,1.8-13.5,2.9-20.2c0.4-2.4,0.3-4.3-1.3-6.2c-1-1.2-1.5-2.8-2-4.2
	c-0.5-1.7-1.4-2.3-3.2-2c-6.3,0.9-9.4-8.1-7-12.3c1.3-2.4,3.5-3.5,6.2-3.5c3.3,0,5.3,1.9,6.7,4.7c1.1,2.1,1.4,4.5,0.4,6.5
	c-1.7,3.2-0.1,5.4,1.5,8.7c1.5-6.3,2.8-11.9,4.1-17.4c0.4-1.5,0.4-3.2,1.1-4.6c3.4-6.6,0.3-12.7-1.2-18.9c-0.4-1.9-1.8-1-2.8-1
	c-4.6-0.2-7.3-3.7-6.8-8.7c0.5-4.5,3.8-7.3,8.1-6.7c4.1,0.5,7,4.5,5.4,8.3c-2,4.5-1.1,8.4,1.4,12.9c1.7-5.7,2.7-11.1,5-15.9
	c2.3-4.8,1.5-9.1,0.2-13.7c-0.4-1.5-0.8-2.1-2.5-2.4c-4.3-0.7-7.4-5.2-6.9-9.6c0.4-3.2,2.6-5.3,6-5.7c3.1-0.4,5.8,1.2,6.9,4.1
	c0.8,2.3,1.2,4.8,0,6.9c-1.5,2.5-0.8,4.7,0.1,7.3c1-0.6,1.3-1.6,1.6-2.5c1.1-2.8,1.8-5.9,3.3-8.4c3.1-5.1,2.4-10.1,0.9-15.4
	c-0.5-1.7-1.5-1.9-2.7-2.2c-4.9-1.1-6.3-10.7-2.6-14.1c3.4-3.2,8.3-2,9.8,2.4c1,2.9,1.1,5.7-0.4,8.4c-1.4,2.6-1.3,5,0.1,7.9
	c2.4-5.4,4.6-10.6,7.1-15.6c1.6-3.2,3-6.1,2.1-10c-0.8-3.2-1-5.9-4.7-7.5c-3.4-1.5-4.4-6.1-3.2-9.7c1-2.8,3.8-4.4,7.6-4.5
	c2.5-0.1,4.1,1.1,4.5,3.5c0.5,2.7,0.7,5.9-0.8,8.1c-2.3,3.4-1.1,6.4-0.3,10.2c3.1-4.2,5.7-8.1,9-11.4c1-1,0.5-2.2,0.4-3.3
	c-0.2-4.1,1.4-6.6,4.4-7.4c2.2-0.6,4.2-0.4,5.8,1.3c1.7,1.7,2,3.9,1.3,6.2C86.3,9.5,84.7,10.5,84.4,12.2c-0.7,0.2-1.4,0.3-2.1,0.5
	c-1,0.8-2.2,0.6-3.3,0.4c-1.8-0.3-2.9,0.4-3.3,2.3c4.5-0.1,4.5-0.1,6.7-2.7C83,12.6,83.9,13.2,84.4,12.2z M31.7,181.8
	c-0.2,0.7-0.7,1.5-0.7,2.2c0,2.2,0,4.7,3,5.1c2.2,0.4,4.5-1.6,5-4c0.7-3.2-1.3-5.4-5-5.5C32.3,179.4,31.5,180.1,31.7,181.8z
	 M21,125.9c0.1-2.7-2-5.5-4.4-5.6c-2.7-0.2-3.6,1.7-3.8,4c-0.3,2.8,1.8,5.7,4,5.8C19,130.3,20.9,128.4,21,125.9z M41.3,145.3
	c-0.1-1.8-0.4-4.1-3.3-4.5c-2-0.3-4.3,2.5-4.4,5.1c-0.1,3,1.3,4.9,3.8,5C40.2,151,41.3,149.6,41.3,145.3z M70.4,38.6
	c-0.1,2.6,1.6,4.7,3.8,4.6c2.2,0,4-2.9,4.1-6.3c0.1-2.4-1-3.8-3.3-3.9C72.6,32.9,70.4,35.7,70.4,38.6z M13.2,163.6
	c-0.4-1.3,0-3.2-1.9-3.8c-1.7-0.5-3,0.8-4,2c-1.1,1.3-1.7,2.9-1.4,4.7c0.3,2,1.5,3.6,3.4,3.7c1.9,0.1,2.9-1.5,3.2-3.3
	C12.8,165.9,12.9,164.9,13.2,163.6z M58.5,85.3c0-1.8-1-2.8-3-2.7c-3,0-6.5,2.6-6.3,4.7c0.2,2.1,1.4,3.4,3.6,3.4
	C55.5,90.8,58.5,87.9,58.5,85.3z M29.9,86.8c-0.2-1.9-0.4-4.1-3.2-4.4c-2-0.2-4.3,2.2-4.5,4.6c-0.1,2.1,1.8,4.7,3.6,4.9
	C27.9,92.1,29.8,89.7,29.9,86.8z M41,61.3c-0.1-2.9-1.9-4.9-4.1-4.7c-2.4,0.3-3.2,2-3.1,4.2c0.1,2.5,2.3,5.3,4.1,5
	C40.3,65.2,40.9,63.1,41,61.3z M51,35.1c-0.1-2,0.1-4.5-2.8-4.6c-2.7-0.1-3.2,2.2-3.3,4.4c-0.1,3.1,1.3,5.8,3.1,5.5
	C51,39.9,50.6,37.3,51,35.1z M48.2,114.8c-0.1-1.7-0.6-3.2-2.9-3.3c-2.2,0-4.3,2.6-4.3,5.6c0,1.9,0.9,2.9,2.8,3
	C46,120.2,48.2,117.5,48.2,114.8z M63.8,7.7c0-1.6-0.1-3.9-2.7-3.9c-2.3,0-3.6,1.8-3.6,4.2c0,2.7,1.5,5.1,3.4,4.8
	C63.7,12.5,63.7,10.2,63.8,7.7z M66.6,59.9c-0.1-2.4-1.4-3.6-3.7-3.5c-2.6,0.1-3.6,1.9-3.6,4.2c0,2.2,1.1,3.7,3.5,3.7
	C65,64.3,66.6,62.5,66.6,59.9z M6.5,206.3c1.9-0.1,4.5-2.6,4.4-4.1c-0.1-1.8-2.6-4-4.4-3.6c-2.3,0.4-3.3,2-3.2,4.2
	C3.4,204.9,4.7,206.1,6.5,206.3z M78.5,6.9c0.3,1.3,0,3.1,2.2,2.9c2.5-0.2,3-2.2,3.3-4.1c0.3-1.9-1.1-2.6-2.6-2.6
	C79,3.2,78.7,5.1,78.5,6.9z M87.3,18.6c0.1-1.6-0.6-2.4-2-2.4c-1.8,0-3,0.9-3.1,2.8c0,1.4,0.6,2.7,2.2,2.6
	C86.4,21.6,86.9,20,87.3,18.6z"/>
</svg>
