<?xml version="1.0" encoding="utf-8"?>
<!-- Generator: Adobe Illustrator 25.3.0, SVG Export Plug-In . SVG Version: 6.00 Build 0)  -->
<svg version="1.1" id="Layer_1" xmlns="http://www.w3.org/2000/svg" xmlns:xlink="http://www.w3.org/1999/xlink" x="0px" y="0px"
	 viewBox="0 0 61.7 110.5" style="enable-background:new 0 0 61.7 110.5;" xml:space="preserve">
<path d="M39.4,47c-2.3,5.5-4.4,9.6-8.6,12.1c-2.4,1.5-4.8,1.6-6.9-0.3c-2-1.8-2.6-4.2-1.8-6.8c0.6-1.9,1.5-3.3,3.8-3.2
	c2.1,0.1,3.3,1.3,3.7,3.3c0.1,0.7-0.2,1.6,0.7,2.2c1.8-0.8,2.6-2.4,3.4-4c3.5-7.2,2.5-8.9-5.2-8.8c-6.1,0.1-11.9-0.8-17.6-3
	c-5.4-2.1-9.2-5.6-10.6-11.6C-2.1,16.9,7.6,8.5,17.5,12.8c4.1,1.8,5.4,0.9,6.2-3.2c1.1-5.3,5.2-8,10-9.3c5.1-1.4,10.3,2.3,12,8.6
	c2.3,8.4,0.1,16.5-2.7,24.3c-2,5.5-1.1,7.2,5,7.9c6.2,0.8,7.2,0.4,9.5-3.9c-1.9-0.7-4.5-0.5-5-3.1c-0.4-2.3,0-4.5,2.7-5.1
	c2.9-0.6,5.5,0.3,6.2,3.5c1.2,5.1-1.9,13.5-10.1,12.7c-2.9-0.3-5.8-0.9-9.1-1.5c3.8,8.8,7.1,17.4,8.8,26.6
	c2.2,12.1,2.2,24.1,0.3,36.2c-0.1,0.7-0.3,1.3-0.5,1.9c-0.3,1.3-0.8,2.3-2.3,1.9c-1.6-0.4-1.5-1.7-1.2-2.8c1.1-4.1,1.2-8.2,1.5-12.4
	C50.2,78.7,46.9,63,39.4,47z M28.5,38c8.8,0.2,8.9,0.2,11.3-7.1c1-2.8,1.9-5.7,2.4-8.6c0.8-4.5,0.8-8.9-0.9-13.3
	c-1.1-2.6-2.5-5-5.4-5.3c-3.1-0.3-5.3,1.6-7,4c-1.9,2.7-2.1,5.9-2.6,9c-0.4,2.7-1.8,3.4-4.2,2c-2.3-1.4-4.8-2.4-7.4-2.9
	c-3.2-0.6-6.6-0.3-8.7,2.4C3.7,21.3,3.3,25,5.2,28.6c1.4,2.6,3.6,4.3,6.1,5.6C17.1,37.3,23.4,37.7,28.5,38z"/>
</svg>
