<?xml version="1.0" encoding="utf-8"?>
<!-- Generator: Adobe Illustrator 25.3.0, SVG Export Plug-In . SVG Version: 6.00 Build 0)  -->
<svg version="1.1" id="Layer_1" xmlns="http://www.w3.org/2000/svg" xmlns:xlink="http://www.w3.org/1999/xlink" x="0px" y="0px"
	 viewBox="0 0 65.9 108.5" style="enable-background:new 0 0 65.9 108.5;" xml:space="preserve">
<path d="M6.6,94.5c1.4-4,1.5-7.4-1.4-10.7c-1.3-1.4-1.6-3.7-2.3-5.6c-0.4-1.1-0.8-2.5,0.7-3c1.5-0.6,1.9,1,2.4,1.9
	c0.9,1.5,1.1,3.3,2.7,4.7c1.5-3.5,2.9-6.5,0.2-10.1c-1.4-1.9-1.7-4.6-2.4-6.9c-0.4-1.1-0.5-2.1,0.8-2.5c1.3-0.4,1.9,0.6,2.2,1.6
	c0.5,2,1.2,3.9,2.7,5.8c1.8-2.5,2.5-5,1.7-8c-2.5-9.1-3.6-18.3-2.5-27.6c1.2-9.7,5.7-17,15.2-20.5c0.9-0.3,1.9-0.6,2.9-0.8
	c2.2-0.4,5.2,1.2,6.1-2.4c0.6-2.3,3.2-3.9,2.4-6.8c-0.5-1.9,0.5-3.2,2.3-3.6c2.2-0.4,3.6,1,4.3,2.9C45.3,4.6,44.9,6,43.2,7
	c-1.1,0.7-2.5,0.6-3.2,2c-1.5,2.8-4.4,5.5-0.2,8.5c0.8,0.6,1.1,2,1.8,3.3c2.4-2.3,5.7-3.2,6.6-7c0.4-1.9,2.3-2.5,4.2-2.1
	c2.1,0.4,2.8,1.9,2.7,3.9c-0.1,2.1-1.4,3.4-3.4,3.2c-3.3-0.3-4.6,2.2-7.5,4.1c3.2,0.7,5.5,1,7.8,1.7c3.1,1,4.7-2,6.9-3.5
	c0.6-0.5,0.8-1.5,1.4-2.1c1-1.1,2.3-1.8,3.9-0.9c1.3,0.7,1.8,1.9,1.6,3.3c-0.2,1.6-1,2.7-2.8,2.9c-1.3,0.1-2.5,0.1-3.8,0.8
	c-2.7,1.6-4.2,3-3.2,6.7c2.4,8.9-0.4,14.7-7.9,20.3c-7.6,5.7-16.7,7.3-25.2,10.3c-5.2,1.8-7,4.1-7.2,10.4c2.9-0.6,5.3-2.3,7.8-3.8
	c1.3-0.8,3-2.4,4.2-0.7c1.3,1.8-0.8,2.8-2.2,3.5c-3,1.7-5.8,3.8-9.5,4.3c-1.8,0.2-4.5,5.5-3.8,7.2c0.7,1.6,2,1,2.9,0.4
	c2.5-1.7,5-3.5,7.5-5.3c1.1-0.8,2.2-1.9,3.3-0.4c1.1,1.5-0.3,2.3-1.2,3.2c-3.4,2.9-7,5.7-11.5,6.9c-1.8,0.5-2.3,1.7-2.7,3
	c-0.4,1.7-0.5,3.4-0.7,5.5c2.7-0.6,4.6-2.1,6.5-3.6c0.9-0.7,1.8-1.5,2.7-2.1c1.1-0.7,2.3-0.7,3,0.5c0.6,1.1,0,2-0.9,2.6
	c-2.4,1.6-4.7,3.5-7.4,4.6c-3.4,1.5-5,3.6-4.7,7.3c0.1,1.2-0.1,2.5-1.8,2.4c-1.3-0.1-1.7-1.2-1.5-2.2c1-4.3-1.2-7.5-3.4-10.8
	c-0.6-0.8-1-1.8-1.4-2.7c-0.6-1.5-2.6-3.3-0.1-4.4c2.2-1,2.1,1.8,3,2.9C5.1,92.2,4.9,93.8,6.6,94.5z M20.3,59.7
	c3.2-0.8,6-1.5,8.7-2.3c7.2-2.3,14.3-4.7,19.9-10.3c4-4,5-8.8,4.2-14c-0.5-3.5-3-5.6-6.6-6c-1.9-0.2-3.7,0.1-5.6,0.5
	c-3.4,0.8-3.8,0.3-3-3.2c0.9-4-0.3-6.1-4.1-7.2c-4.1-1.2-8-0.8-11.4,2.3c-1.9,1.7-3.5,3.5-4.6,5.7c-5.3,10.9-4.1,22.1-1.2,33.4
	c3.2-5.3,5.8-10.8,9.4-15.7c0.9-1.2,1.3-3.6,3.4-2.4c2.4,1.4,0,2.7-0.7,3.9C25.8,49.1,22.8,53.9,20.3,59.7z"/>
</svg>
