<?xml version="1.0" encoding="utf-8"?>
<!-- Generator: Adobe Illustrator 25.3.0, SVG Export Plug-In . SVG Version: 6.00 Build 0)  -->
<svg version="1.1" id="Layer_1" xmlns="http://www.w3.org/2000/svg" xmlns:xlink="http://www.w3.org/1999/xlink" x="0px" y="0px"
	 viewBox="0 0 103.5 251" style="enable-background:new 0 0 103.5 251;" xml:space="preserve">
<path d="M93.1,143.5c-0.9-0.9-1.8-0.1-2.6,0.4c-4.7,2.9-9.4,6-14.2,8.7c-5.8,3.3-10,8-13.3,13.7c-2.4,4.2-4.4,8.5-6,13
	c-3.2,8.4-5.3,17.2-7.3,26c-5.1-11.7-7.9-23.8-9.4-36.2c-0.2-1.3,0.5-2,1.5-2.5c2.4-1.2,4.4-2.9,6.2-4.9
	c12.7-13.7,21.6-29.9,30.8-46c0.3-0.6,0.7-1.3,0.2-1.9c-0.5-0.6-1.3-0.3-1.9-0.1c-8.5,3.3-16.4,7.2-21.9,15
	c-6,8.5-10.2,17.8-13.7,27.4c-0.4,1-0.5,2.2-1.5,3.2c-0.1-0.5-0.3-0.8-0.3-1.1c-0.6-13.6,1.7-26.9,4.7-40.1c0.3-1.4,1.3-1.8,2.5-2.1
	c4.5-1.4,8.9-2.9,13.2-4.8c2.7-1.2,5.3-2.4,7.6-4.3c1.1-0.9,1.8-2.1,1.4-3.6c-0.5-1.5-1.7-2.1-3.1-2.4c-1.3-0.3-2.5,0-3.8,0.3
	c-3.3,1-6.3,2.6-9.1,4.7c-2.2,1.7-4.4,3.4-7.2,5.7c1.1-5.1,2.2-9.4,3-13.8c0.3-1.8,1.1-2.4,2.9-2.6c5.2-0.6,10.3-1.3,15.1-3.4
	c2-0.8,3.9-1.9,5.2-3.7c0.9-1.3,1.3-2.7,0.6-4.1c-0.8-1.6-2.3-1.7-3.8-1.6c-3,0.2-5.7,1.3-8.4,2.5c-3.4,1.5-6.4,3.6-10,6.3
	c0.8-5.4,1.6-10,2.2-14.6c0.2-2,0.9-2.9,3-3.5c7.6-2.1,13.6-6.8,18-13.3c1.4-2,2.3-4.4,0.3-6.4c-2.1-2.1-4.5-1.2-6.7,0.1
	c-2.9,1.7-5.1,4.2-7.3,6.7c-2,2.3-4.1,4.6-6.1,6.8c0.2-3.1,0.5-6.3,0.7-9.6c0.1-1.6,0.6-2.4,2.4-2.9c4.5-1.2,7.5-4.4,9.6-8.4
	c0.6-1.2,1-2.6-0.2-3.8c-1.1-1.2-2.4-1.1-3.8-0.8c-1.5,0.3-2.7,1.2-3.7,2.3c-1.1,1.2-2.2,2.4-3.7,4.2c0.1-3.1,0.2-5.6,0.1-8.1
	c0-2,0.5-3.1,2.6-3.9c4.7-1.8,7.4-5.6,8.8-10.4c0.5-1.6,0.4-3.2-1.1-4.2c-1.7-1.1-3.2-0.3-4.5,0.8c-1.5,1.3-2.6,2.9-3.6,4.6
	c-0.5,0.8-0.6,2-1.9,2.4c-0.4-1.8-0.1-3.3,0.3-4.8c0.9-4.1,0.6-8.2-1-12.1c-0.6-1.4-1.5-2.6-3.3-2.5c-1.6,0.1-2.7,1.1-3.4,2.5
	c-0.8,1.5-0.8,3-0.4,4.6c0.8,2.7,2.2,5,4,7.1c1.6,1.7,2,3.6,1.3,6.3c-0.9-1.5-1.5-2.6-2.1-3.6c-1.2-2.1-2.4-4.2-4.2-6
	c-0.8-0.9-1.8-1.6-3.1-1.1c-1.3,0.5-1.6,1.6-1.8,2.8C41.4,25,42.5,27,44,28.9c2.1,2.6,4.7,4.7,7.5,6.5c0.8,0.5,1.9,0.9,1.9,2.1
	c0,2.5,0.2,5.1-0.4,8.2c-1.4-3.3-2.3-6.2-4.1-8.7c-2.3-3.1-5.4-2.9-7.2,0.5c-1.5,2.8-0.8,5.3,0.9,7.7c2.2,3.2,5.2,5.5,8.4,7.7
	c0.9,0.6,2,1,1.9,2.4c-0.2,2.5-0.4,5-0.6,7.7c-1.2-0.8-1.3-1.7-1.6-2.4c-1.9-4.2-3.9-8.3-7-11.8c-1-1.1-2.1-2.2-3.8-1.6
	c-1.7,0.6-1.9,2.2-2,3.6c-0.4,4.2,0.9,7.9,3.1,11.4c2.3,3.7,5.3,6.8,8.6,9.5c0.8,0.7,1.8,1.2,1.6,2.6c-0.6,4.5-1,9-2.3,13.9
	c-1.3-3.5-2.4-6.5-3.6-9.5c-1.1-2.7-2.4-5.4-4.5-7.5c-2.1-2.1-4.1-1.7-5.2,1.1c-0.9,2.3-1.1,4.7-0.5,7.2c1.3,5,4.1,9.3,8.2,12.2
	c4.1,2.8,4.5,5.9,3.1,10.1c-1,3-1.5,6.1-2.2,9.1c-1.3-1.8-1.9-3.6-2.5-5.3c-1.7-4.9-3.4-9.8-6.5-14c-2.4-3.2-5.1-2.9-6.6,0.8
	c-1.9,4.6-1.2,9,1.5,13.1c2.6,4,6.1,7.2,10.2,9.6c2.2,1.3,2.5,2.7,2,5c-2.6,11.7-4.5,23.4-4.5,35.4c0,2.9,0.1,5.8,0.2,8.7
	c-2-4.4-3.3-8.8-4.9-13.2c-4.1-11.4-8.5-22.7-15.8-32.6c-0.6-0.9-1.2-2.4-2.6-1.8c-1.2,0.5-0.7,1.9-0.6,2.9
	c0.6,11.9,2.3,23.6,5.9,34.9c4.2,13,10.3,24.9,21.1,33.9c1.1,0.9,1.4,2.1,1.7,3.3c2.6,9.3,6.1,18.1,10.4,26.7c1.7,3.5,3.3,7,4.5,11
	c-1.4-0.5-1.7-1.6-2.3-2.5c-7.3-10.5-13.4-21.9-22.2-31.3C23.2,184.7,16,172.9,12.3,159c-0.2-0.8-0.2-2.1-1.4-1.9
	c-1.3,0.2-0.9,1.6-0.8,2.5c0.6,5.6,0.8,11.3,1.2,17c0.6,7.6,2.5,14.8,6.5,21.4c3.6,5.8,7.4,11.5,11,17.3c2.7,4.4,6.2,7.7,10.7,10.1
	c5.6,2.8,11,6,16.5,8.9c2.3,1.2,4.1,2.5,4.2,5.4c0,0.7,0.2,1.6,1.1,1.4c1.1-0.2,0.8-1.2,0.7-1.9c-0.4-2.2-0.9-4.4-1.5-6.6
	c-1.9-7-5.1-13.5-8.3-20c-0.6-1.1-1.2-2.2,0.1-3.4c3.3-3.2,5.4-7.2,7.6-11.1c6.6-11.8,12.6-23.8,21.1-34.4
	c4.3-5.4,7.5-11.7,11.1-17.6C92.8,145.2,94.1,144.6,93.1,143.5z M71.2,118.8c-10.2,12.6-19.1,26.1-28.3,39.4
	C49.2,142.8,54.2,126.5,71.2,118.8z M74,119.8c-9,15.5-17.5,31.4-31.1,43.7C52.2,148.2,61.8,133.1,74,119.8z M63.3,103.2
	c0.7-0.2,1.6-0.2,2.3-0.1c1.8,0.4,2.2,1.4,0.8,2.6c-1.2,1-2.5,1.8-3.9,2.5c-4.6,2.3-9.4,4.2-14.5,5.2
	C52.3,108.7,57.1,105,63.3,103.2z M69,84.6c1.9-0.2,2.5,0.9,1.5,2.6c-0.4,0.7-1.1,1.4-1.8,1.8c-5.1,3.1-10.8,3.9-16.7,4.2
	C56.9,88.9,62.3,85.4,69,84.6z M67.3,55.9c0.7-0.5,1.5-0.9,2.3-1.2c1-0.4,2.1-0.5,3,0.4c0.8,0.9,0.5,1.9,0,2.7
	c-4,7-10.2,11.1-17.8,13.5C58.3,65.3,62,59.9,67.3,55.9z M56,51.6c1.5-3.1,3.2-6,6.3-7.8c0.8-0.4,1.7-0.7,2.5-0.1
	c1,0.8,0.3,1.6-0.1,2.3c-1.8,3.1-4.4,5.4-7.5,6.7C55.9,52.9,55.6,52.4,56,51.6z M61.8,24.2c0.7-0.7,1.5-1.5,2.6-0.9
	c1,0.5,0.6,1.6,0.4,2.4c-1.4,4-3.8,7.1-8.1,8.5C57.6,30.5,59.2,27.1,61.8,24.2z M44.6,26.3c-0.5-0.8-0.9-1.7-0.9-2.8
	c0-0.7,0-1.5,0.7-1.8c0.8-0.4,1.3,0.4,1.7,0.9c2.4,3,4.1,6.3,5.4,9.9C48.6,31,46.2,29.1,44.6,26.3z M49.4,16c-0.3-1.6,0-3.4,1.8-3.8
	c1.8-0.5,2.1,1.4,2.4,2.6c0.7,2.7,1.1,5.4,0.4,8.7C51.6,21.1,50,18.8,49.4,16z M43.4,42.6c-0.6-1.2-0.7-2.4-0.2-3.7
	c0.4-1,0.9-2,2.2-2.2c1.2-0.2,1.7,0.8,2.3,1.6c2.4,3.8,3.7,8,4.7,13C48.3,48.9,45.2,46.4,43.4,42.6z M51,70.5
	c-5.5-4.8-10.3-9.6-11.3-16.9c-0.2-1.5-0.7-3.6,0.9-4.2c1.5-0.6,2.4,1.4,3.2,2.5c3.2,4.6,5.6,9.6,7.2,15
	C51.2,67.8,51.6,68.9,51,70.5z M36.6,78.1C36.2,76,36,73,38,72.2c2-0.7,2.8,2.2,3.7,3.8c2.8,5,4.7,10.4,5.5,16.1
	C42.2,88.5,37.8,84.4,36.6,78.1z M29.5,98.7c-0.4-1.9,0-3.7,0.7-5.4c0.9-2.4,2.1-2.6,3.7-0.4c2.7,3.6,4.1,7.9,5.6,12.1
	c1,2.7,2,5.4,2.5,9.1C36.1,109.7,30.9,105.9,29.5,98.7z M17,130.5c4.9,15.9,9.8,31.8,16.7,46.9C23.2,163.6,19,147.5,17,130.5z
	 M17.7,122.9c11.6,18.6,17.1,39.5,22.5,60.5C28.6,164.7,23.1,143.8,17.7,122.9z M36.7,221.3c-2.5-1.4-4.2-3.8-5.7-6.2
	c-3.8-6.2-7.7-12.2-11.6-18.3c-4.2-6.5-5.9-14-6.2-21.8c7.7,21.7,22.9,38.1,38.3,54.5C46.6,226.7,41.5,224.1,36.7,221.3z
	 M15.6,173.7c6.4,14.7,19.5,24.5,27.6,38c2.8,4.8,6.1,9.3,9.4,14.2C41.2,219.4,18.3,187.1,15.6,173.7z M55.6,201.4
	c6.8-16.9,16.1-32.2,28.3-45.7C73.2,170.2,64,185.6,55.6,201.4z M53.4,199.7c3-13.5,6.5-26.8,15.2-38c3.5-4.5,8.6-8.1,17.1-12.1
	C72.2,164.6,61.8,181.5,53.4,199.7z"/>
</svg>
