<?xml version="1.0" encoding="utf-8"?>
<!-- Generator: Adobe Illustrator 25.3.0, SVG Export Plug-In . SVG Version: 6.00 Build 0)  -->
<svg version="1.1" id="Layer_1" xmlns="http://www.w3.org/2000/svg" xmlns:xlink="http://www.w3.org/1999/xlink" x="0px" y="0px"
	 viewBox="0 0 45.1 111.7" style="enable-background:new 0 0 45.1 111.7;" xml:space="preserve">
<path d="M16.4,39.8c-2.4,0.7-4.8,1.6-7.2,2.1c-2.7,0.5-5.4,0-6.6-2.8c-1.2-2.4-0.3-4.7,1.6-6.6c1.2-1.2,2.3-2.5,3.7-4.1
	c-3.6-2.6-10.2-3.9-7-10.6c2.6-5.6,7.8-2.6,12.3-2.2c-0.2-2.8-0.6-5.5-0.6-8.2c0.1-3.5,1.4-6.7,5.2-7.4c4-0.7,5.3,2.4,6.3,5.5
	c0.4,1.3,1,2.6,1.7,4.3c2.2-2.5,4-4.9,6.2-6.9c2.3-2.2,5.1-3.9,8.3-1.4c2.9,2.3,3.4,5.5,2.1,8.9c-1.3,3.4-3.8,6.1-6.8,8.6
	c4.4,2.2,10.4,2.3,9.5,9.2c-0.6,4.1-2.2,5.1-9.4,5.6c-0.5,2.5,1,4.9,0.5,7.5c-0.6,2.9-1.6,5.6-4.5,6.5c-3,1-4.6-1.7-6.3-3.5
	c-1.4-1.4-1.6-3.8-3.5-5c-5.9,15.2-7.9,36.7-4.4,50.3C18.1,81.8,18.9,75,23,69c1.3-1.9,2.7-3.5,4.8-4.5c2.3-1.1,4.7-1.7,6.8,0.1
	c2.4,2,3.1,4.9,3,7.9c0,0.7-0.3,1.4-1.1,1.5c-1.2,0.2-1.8-0.3-2.5-1.3c-3.6-5.1-6.7-4.8-9.3,1c-1.8,4-2.5,8.3-2.7,12.6
	c-0.4,7.1-1.2,14.1-0.8,21.3c0.1,1.5,0.8,3.9-1.7,4.2c-2.1,0.2-1.9-2.1-2.4-3.4c-6.9-21.5-7.2-43.1-1-64.9c0.3-1,0.5-2,0.7-3
	C16.8,40.3,16.6,40.1,16.4,39.8z M21.2,30.2c1.5-0.2,1.6,1.1,2.1,2.2c1,2.2,1.8,4.5,3.1,6.5c1,1.5,2.4,3.5,4.6,2.2
	c1.8-1,1.4-3.1,0.8-4.7c-0.6-1.8-1.7-3.4-2.5-5.1c-1-2-0.7-3.4,1.9-3.3c1,0,2.1,0.2,3.1,0c1.7-0.2,3.9-0.3,3.9-2.5
	c0-2-2.1-2.5-3.9-2.6c-0.7-0.1-1.4-0.1-2.1-0.1c-1.4-0.1-3.1,0.2-3.6-1.4c-0.6-1.8,0.9-2.9,2.3-3.6c2.8-1.5,4.9-3.9,6.6-6.5
	c1.5-2.2,0.2-4.1-2.4-4c-1.7,0-3,0.9-3.9,2.2c-1.4,2-2.5,4.1-3.9,6.1c-0.8,1.2-1.3,3.3-3.1,3c-2.2-0.3-1.4-2.4-1.7-3.8
	c-0.3-1.5-0.6-3.1-1.1-4.5c-0.6-1.6-1.3-3.5-3.6-2.9c-2.4,0.6-1.9,2.5-1.4,4.2c0.6,2.3,1.4,4.6,2.1,6.9c0.3,1,0.5,2.1-0.4,2.9
	c-0.9,0.8-1.9,0.4-2.9-0.1c-1.5-0.8-3.1-1.6-4.6-2.3c-1.4-0.6-2.9-0.6-3.8,0.7C5.8,21.4,7,22.6,8,23.8c1.4,1.5,3.2,1.1,4.8,1.4
	c1.5,0.3,3.4-0.1,3.7,2c0.3,1.8-1.5,2.2-2.7,2.6c-1.9,0.6-3.3,2-4.7,3.2C8,33.9,6.9,35.5,8,37c1.1,1.5,3,0.9,4.3,0.2
	c2.4-1.3,4.7-2.9,6.4-5.1C19.3,31.2,19.7,30.1,21.2,30.2z"/>
</svg>
