<?xml version="1.0" encoding="utf-8"?>
<!-- Generator: Adobe Illustrator 25.3.0, SVG Export Plug-In . SVG Version: 6.00 Build 0)  -->
<svg version="1.1" id="Layer_1" xmlns="http://www.w3.org/2000/svg" xmlns:xlink="http://www.w3.org/1999/xlink" x="0px" y="0px"
	 viewBox="0 0 51.2 109.9" style="enable-background:new 0 0 51.2 109.9;" xml:space="preserve">
<path d="M39.6,95.2c3.4,0.9,6.2,1,9-0.3c0.9-0.4,1.8-0.5,2.3,0.5c0.6,1.2-0.1,2-1.1,2.5c-3.3,1.5-6.8,1.5-10.3,0.8
	c-4.8-1-10.2,3.1-10.6,7.8c0,0.3,0,0.6,0,0.9c-0.1,1.2,0,2.6-1.7,2.5c-1.7-0.1-1.6-1.5-1.5-2.6c0.1-4.5,0.4-9.1,0.5-13.6
	c0.1-4.8-1.5-6.2-6.2-5.4c-3.3,0.5-6.4-0.4-9.3-1.9c-1.4-0.7-3.3-1.6-2-3.6c1.1-1.6,2.8-0.4,3.7,0.5c1.5,1.5,3.2,1.8,5.6,1.5
	c-2.1-2.8-4.3-5.3-5.7-8.3c-0.5-1-1.2-2-1.5-3.1c-0.5-1.6-1.9-3.7,0.4-4.5c2.2-0.8,2,1.9,2.6,3.2c0.4,0.9,0.5,2,1.7,2.5
	c1.5-0.8,1.6-2.2,1.4-3.7c-0.2-1.3-0.3-2.5,1.4-2.6c1.6,0,1.7,1.5,1.8,2.6c0.1,1.9,0.5,4-0.7,5.5c-2.3,2.9-0.6,4.6,1.6,6.1
	c1.6,1.1,3,3.7,5,2.7c1.6-0.8,0.8-3.5,0.7-5.3c-0.2-7-0.5-14-1.1-21c-0.4-5.5-1.9-6.5-7.4-5.6c-3.5,0.6-6.7,0.1-9-3
	c-0.7-0.9-1.7-1.8-0.6-3.1c1.3-1.5,2,0.1,2.8,0.7c1.5,1.2,3.1,2.3,5.4,1.7c-1.7-2.6-3.5-5.1-5.1-7.8c-0.8-1.3-2.3-3-0.5-4.2
	c2.3-1.5,2.3,1.3,3.2,2.3c0.4,0.5,0.6,1.4,1.6,1.3c0.2-0.2,0.4-0.4,0.5-0.6c0.4-1.3-0.5-4,1.9-3.5c2,0.4,2.4,3.1,1.5,4.8
	c-2.3,4.3,0.3,6,3.5,7.6c1.1-1,0.8-2.2,0.5-3.2c-0.9-3.8-1.9-7.6-2.8-11.4c-0.8-3.5-2.4-5.2-6.5-5.5C7.1,29,1.6,24.1,0.3,18
	c-1.1-5,0.9-7.7,6-7.7c2.6,0,3.1-0.8,3.4-3.1c0.4-3.7,2.4-6.2,6.2-7C19.5-0.6,22.2,1,23.9,4c1.2,2,2,1.9,3.9,0.8
	c4.9-2.7,9-0.3,9.4,5.4C37.7,17.5,33.1,22,28,26c-1,0.8-2.1,1.5-3.3,2.2c-1.5,0.9-1.7,2-1.1,3.6c3.7,11.3,5.9,22.8,6.2,34.7
	c0,0.4,0.3,0.7,0.4,1.1c4.3-2.9,5.3-5.4,3.8-9.8c-0.6-1.8-1.3-3.6-2-5.3c-0.4-1.1-1.1-2.3,0.5-2.9c1.5-0.6,2,0.8,2.4,1.9
	c0.5,1.2,1,2.4,1.9,3.3c0.5,0.2,0.6,0.1,0.7-0.3c0.5-1.7-0.1-4.8,2.4-4.4c2.9,0.5,1.3,3.4,0.9,5.1c-0.7,3.1-1.9,6.1-2.8,9.2
	c2.2,1,4-0.4,5.8-1c0.9-0.3,1.8-0.4,2.3,0.5c0.7,1.2-0.1,1.9-1.1,2.5c-2.3,1.4-4.9,1.8-7.5,2c-4.6,0.3-7.4,3.5-7.5,8.1
	c0,6.9-0.1,13.7-0.2,20.6c0,0.2,0.2,0.5,0.3,0.7c6.6-2,9.5-6.3,8.7-12.7c-0.2-2-0.3-4.1-0.4-6.1c0-0.9,0.4-1.8,1.4-1.9
	c1.3-0.1,1.8,0.7,1.9,1.9c0.2,1.7-0.2,3.4,0.7,5.5c1-1.8,1.8-3.3,2.6-4.8c0.6-1.1,0.9-2.8,2.6-2c1.7,0.8,0.6,2.4,0.2,3.5
	C46,86.1,43.3,90.7,39.6,95.2z M17,26.2c8.1,0.2,14.2-6.1,16.7-12c0.9-2,0.3-3.8-1.5-5c-1.6-1-3.3-0.9-4.8,0.5
	c-3.3,2.9-3.3,2.9-4.7-1.2c-0.5-1.4-0.9-2.7-2.1-3.8c-2.9-2.4-6.6-1.2-7.4,2.4C13,8.3,12.9,9.5,13,10.6c0.4,3.5-0.3,5.1-4.2,3.4
	c-1.6-0.7-3.4-0.2-4.6,1.6c-1.3,1.9-0.3,3.4,0.7,4.8C7.9,24.3,11.9,26.4,17,26.2z"/>
</svg>
