<?xml version="1.0" encoding="utf-8"?>
<!-- Generator: Adobe Illustrator 25.3.0, SVG Export Plug-In . SVG Version: 6.00 Build 0)  -->
<svg version="1.1" id="Layer_1" xmlns="http://www.w3.org/2000/svg" xmlns:xlink="http://www.w3.org/1999/xlink" x="0px" y="0px"
	 viewBox="0 0 97.5 251.2" style="enable-background:new 0 0 97.5 251.2;" xml:space="preserve">
<path d="M87.2,55c-0.9-1.2-2.3-2.2-3.8-1.9c-6.7,1.1-13.2-0.8-19.7-1.6c-2.1-0.3-4.5,0-6.7-1.9c3.1-0.9,5.7-1.7,8.3-2.3
	c6.2-1.2,11.8-4.8,18.4-4.3c1.8,0.1,2.9-1.4,3.3-3.1c0.4-1.4-0.3-2.5-1.4-3.1c-1.7-1-3.1-0.2-4.4,1c-1.1,1-1.3,2.6-3,3.2
	c-6.6,2.3-13.2,4.2-19.9,5.7c-0.7,0.2-1.4,0.1-1.7-0.7c0.1-0.2,0.1-0.6,0.3-0.7c5.4-2.8,9.6-7.6,15.9-8.8c1.8-0.3,2.5-1.9,2.8-3.7
	c0.1-0.7-0.1-1.4-0.9-1.6c-1.7-0.4-2.6,0.7-3.8,1.8c-4.2,4.1-9.5,6.6-14.4,9.8c-0.5,0.4-1.3,0.7-1.8,0c-0.5-0.6-0.1-1.3,0.4-1.8
	c4.9-6.3,8.7-13.4,14.4-19.1c0.9-0.9,1.5-1.9,1.1-3.3c-0.4-1.2-1.6-1.4-2.7-1.4c-1.7,0-2.9,1.1-2.8,2.4c0.4,5.1-3.5,8-5.8,11.7
	c-2.1,3.4-4.7,6.6-7.1,9.9c-0.7-2.1-1-3.9-0.7-5.6c0.9-6.1,0.5-12.5,3.3-18.4c0.7-1.6,0.6-3.6-1.3-4.2c-2.2-0.7-1.9,1.7-2.5,2.9
	c-0.2,0.4-0.3,0.8-0.3,1.2c0.6,5.9-1,11.6-1.5,17.4c-0.2,2,0.5,4.2-1.1,6.6c-0.5-1-1-1.5-1.1-2.1c-1.7-8.2-5.2-16-5.4-24.5
	c-0.1-1.8-0.9-3.4-2.7-4.3c-0.7-0.3-1.4-0.1-1.7,0.6c-0.8,1.4-0.6,3,0.1,4.3c4.2,7.5,4.8,16.1,7.4,24.1c0.3,0.8,0.9,1.8-0.2,2.7
	c-3.3-4.2-5.3-9.1-7.3-14c-1.3-3.2-4.5-5.5-4.2-9.5c0.1-1.7-0.9-3.5-3-3.9c-0.8-0.2-1.7,0.1-2,1c-0.6,1.8,0.5,3.1,1.4,4.4
	c0.2,0.3,0.5,0.6,0.8,0.9c5.3,6.9,7.7,15.3,11.7,22.9c-2-1.3-3.6-2.9-5.1-4.5C32,34,24.9,31,22.9,23.6c-0.3-0.9-1.2-1.5-2.3-1.2
	c-1,0.3-1.6,1.1-1.7,2.1c-0.1,1.9,0.3,3.4,2.1,4.5c7,4.1,12.2,10.4,17.8,16.1c-7.8-5.9-17.9-8.3-24-16.7c-1.6-2.1-4.2-1-4.7,1.7
	c-0.4,2.7,1.1,4.3,3.5,4.6c10,1.4,16.3,9.5,25,13.5c-4.8-1.3-9.6-1.9-14.5-2c-1.1,0-2.1-0.4-2.4-1.7c-0.5-2.1-1.8-3.6-4.1-2.5
	c-1.8,0.8-3.1,2.5-2.3,4.7c0.8,2.2,2.5,2,4.7,1.8c6.4-0.4,12.7,0.3,18.6,3.1c-5.8,0.8-11.6,1.6-17.3,2.7c-1.1,0.2-1.7-0.2-2.4-1
	c-1.3-1.7-2.7-0.9-3.8,0.2c-1.1,1.1-2.1,2.4-1,4c1,1.5,2.7,1.6,4,0.9c6.9-3.8,14.6-2.9,22.2-4.3c-0.8,1.8-2.1,2.4-3.2,3.1
	c-6.7,4.2-12.3,10.8-21.4,10.4c-1.6-0.1-2.4,1.6-2.5,3.3c-0.1,1.4,0.6,2.4,1.9,2.9c1.5,0.6,3,0,3.5-1.2c1-2.5,3.2-3.2,5.2-4.1
	c5.3-2.5,10-6,14.8-9.4c1-0.7,1.8-1.9,4-1.9c-5.6,6.8-9.5,14.1-15,20.2c-0.8,0.9-1.4,2-0.9,3.4c0.4,1,1.2,1.5,2.3,1.4
	c1.4-0.2,2-1.3,2.3-2.5c1.9-8.6,9-13.9,13.3-21c0.3,4,0.5,7.8-0.1,11.5c-0.7,4.4,0,9.1-2.8,13c-0.9,1.2-1.1,2.5-0.3,3.8
	c0.5,0.8,1.3,0.9,2.1,0.5c1.4-0.8,2.3-2,2.2-3.6c-0.5-6.2,1.3-12.2,1.7-18.3c1.1,6.2,3.8,12.3,2.4,18.8c-0.4,1.9,0.8,3.1,2.2,4
	c0.8,0.5,1.6,0.2,2.2-0.5c1-1.3,1.1-2.8,0.3-4.2c-3.6-6.1-3.1-13.1-4.7-20.1c1.6,0.7,1.7,1.8,2,2.6c14.4,34.5,13.2,69.5,2.5,104.5
	c-6.1,20.1-16.1,38.6-25.8,57.1c-1.9,3.6-3.7,7.2-5.5,10.9c-0.5,0.9-0.9,2.3,0.6,2.7c1.3,0.4,1.7-0.7,2-1.9c0.3-1.3,0.9-2.5,1.5-3.7
	c6-12,12.3-23.9,18.1-36.1c7.4-15.8,14-31.9,16.8-49.2c3.4-21.1,3.9-42.1-0.4-63.1c1.5,0.6,2.5,3.4,4.7,1.4c1.1-1.1,1.1-2.6,0.1-3.7
	c-6-6.8-8.1-15.6-12.4-23.3c-0.4-0.8-0.6-1.8-0.9-2.6c4,4,7.5,8.2,10.6,12.6c1.9,2.6,5,4.7,4.3,8.7c-0.2,1.2,1.2,2,2.6,2.1
	c1.2,0,2.1-0.6,2.5-1.8c0.4-1.2,0.4-2.7-1-3.2c-2.2-0.7-3-2.7-4.2-4.2c-3.7-4.7-7.4-9.4-11-14.1c-0.6-0.8-2-1.5-1.3-3.4
	c6.5,4.9,12.8,9.9,19.6,14c0.5,0.3,0.7,1.1,0.9,1.8c0.5,1.7,1.5,2.7,3.3,2.1c1.5-0.5,2-1.8,2.1-3.2c0.1-1.9-1-2.6-2.7-2.9
	c-9.2-1.6-14.5-9.1-21.6-13.9c6.3,0.4,12.3,1.2,18.4,2c2.5,0.3,5.1,0.2,7.1,2.3c1.1,1.1,2.8,0.9,4.1-0.3C87,56.8,87.9,56.1,87.2,55z
	 M47.2,64.9c-0.5-0.8-0.1-1.6,0-2.4C47.7,63.3,47.5,64.1,47.2,64.9z M61.2,86.9c-0.9-2.7-1.9-5.4-2.1-8.3
	C60.5,81.3,62.6,83.7,61.2,86.9z M58.5,77.1c0,0.1,0,0.2,0,0.2c0,0.1,0.1,0.2,0.1,0.3c-0.1-0.1-0.1-0.2-0.2-0.3
	C58.5,77.3,58.5,77.2,58.5,77.1z"/>
</svg>
