<?xml version="1.0" encoding="utf-8"?>
<!-- Generator: Adobe Illustrator 25.3.0, SVG Export Plug-In . SVG Version: 6.00 Build 0)  -->
<svg version="1.1" id="Layer_1" xmlns="http://www.w3.org/2000/svg" xmlns:xlink="http://www.w3.org/1999/xlink" x="0px" y="0px"
	 viewBox="0 0 97.5 248.2" style="enable-background:new 0 0 97.5 248.2;" xml:space="preserve">
<path d="M58.2,225.1c1.1-8.5,1.8-16.9,1.3-25.4c-0.8-15.4-3.3-30.5-7.8-45.2c-6.4-20.8-9.9-42.1-11.6-63.8
	c-0.6-7.4-1.9-14.8-3.5-22.1c-0.6-2.7-1.3-5.4-0.4-8.2c0.4-1,0.1-2-0.5-2.9c-2.5-3.2-3.7-6.9-3.6-11c0-1.7-1-2.8-2-3.9
	c-5.4-6-6.8-13.1-5.9-20.9c0.3-2.3,1.3-4.4,3-6c4.6-4.6,10.7-3.5,13.1,2.6c0.8,2.1,1.2,4.3,2.1,7.3c0.9-2.9,1.5-5,2.2-7.1
	c0.9-3,2.5-5.6,5.2-7.3c4.3-2.7,8.2-0.8,8.7,4.2c0.4,3.6-0.4,7.1-1.4,10.5c-1,3.5-2.1,7-2.6,11c1.5-1.6,3.1-3.3,4.6-4.9
	c3.1-3.4,6.5-6.5,11.1-7.6c2.8-0.7,5.8-1,7.5,1.9c1.6,2.6-0.1,5-1.9,6.8c-3.2,3.2-6.6,6.2-10.7,10.1c5.4-1.1,9.7-1.9,14.2-1.6
	c1.9,0.1,3.8,0.4,5.4,1.6c3.9,2.9,4,8.6-0.1,11.3c-4.5,3-9.4,4.4-14.8,3.4c-2.5-0.5-5-0.9-7.4-1.5c-2.8-0.8-5.1-0.6-7,2.1
	c-1.7,2.3-4.2,3.6-7.2,3.8c-2.5,0.1-3.9,1.5-5,3.5c-1.7,3.3-2.9,7-2.3,10.6c2.8,16.2,2.9,32.8,6.1,49c2.5,12.4,6.4,24.5,9.5,36.8
	c4.8,19.6,6.9,39.4,5,59.5c-0.1,1.1-0.2,2.3-0.2,3.4c0,0.2,0.2,0.4,0.6,1.2c2.8-7.5,7.2-14.2,7.1-22c-0.1-10.6,0.8-21,2.4-31.4
	c1.8-11.9-0.1-24.1,1.4-36c1.9-15.2,1.6-30.3-1.1-45.4c-0.5-3-0.6-6.1,0.2-9.1c0.4-1.5,0.8-3.1,2.7-3.2c1.7,0,2.3,1.4,2.8,2.7
	c1.5,3.9,1.8,8.1,2.2,12.3c3.2,27.5,1.4,54.9-1.2,82.3c-0.5,5.4-1.2,10.8-1.8,16.2c-1.2,11.1-4.2,21.6-10.3,31.1
	c-2.7,4.2-3.2,9.4-6.9,13c-0.6,0.6-1,1.6-2,1.3c-0.8-0.3-0.8-1.2-0.9-1.9c-0.4-2.9-1.9-5.2-3.4-7.6c-8.3-13.1-13.3-27.8-20.2-41.6
	c-6.3-12.6-12.6-25.2-15.8-39c-2.4-10-4.3-20-6.3-30.1c-1-5-0.7-10.1,0-15.1c0.3-2,0.7-4.2,3-4.8c2.5-0.7,4.1,1.1,5.3,2.8
	c2.5,3.5,3.5,7.5,4.4,11.6c4.4,19.6,9.1,39.2,15.2,58.4c4.1,13.2,10.7,25.4,14.8,38.7C54.9,214.7,56.7,219.9,58.2,225.1z
	 M54.9,225.4c-1.6-8.6-4.5-16.8-7.5-24.9c-4.4-12-10.1-23.5-13.5-35.8c-4.6-17-9.2-33.9-12.8-51.1c-0.8-3.7-1.7-7.4-3.7-10.7
	c-0.7-1.1-1.5-2.4-2.9-2.1c-1.3,0.3-1.2,1.8-1.4,2.9c-0.5,3.5-1.1,7.1-0.4,10.6c2.9,15,4.7,30.4,10.2,44.7
	c8.1,20.7,18.4,40.5,27.8,60.7C51.7,221.7,52.8,223.8,54.9,225.4z M72.6,201.3c0.3-1.9,0.7-3.7,1-5.6c1.9-14.2,3.3-28.4,4.2-42.7
	c1.2-20.9,1.8-41.7-1.2-62.5c-0.3-2.3-0.2-4.9-2-7.1c-1.3,2.7-0.9,5.3-0.5,7.7c2.4,13.5,3,27.1,1.6,40.8c-0.6,6.2-1.2,12.4-1,18.6
	c0.3,11.2-0.7,22.2-2.4,33.3C71.4,189.5,70.8,195.3,72.6,201.3z M39.9,33.8c0-4.3-0.3-8.6-1.4-12.8c-0.7-2.6-1.6-5.4-4.9-5.4
	c-3.5,0-5.5,2.2-6.5,5.4c-1.7,5.8,0.1,11.1,2.1,16.6c2,5.4,6,3.6,9.2,3.1c2.9-0.4,0.9-3.5,1.4-5.4C40,34.8,39.9,34.3,39.9,33.8z
	 M43.8,35.7c-0.1,1.8-0.2,2.6-0.2,3.4c0,1.9-0.4,4,2.1,4.7c2.6,0.6,2.8-1.8,3.4-3.2c3-6.5,5-13.3,6.4-20.2c0.6-2.6,1.6-6.2-1.8-7.2
	c-3.3-1-5,2.1-6.3,4.8c-0.3,0.7-0.5,1.4-0.8,2.1C44.9,25.5,44.1,31.1,43.8,35.7z M72.4,55.6c3.4,0.1,6.5-0.8,9.4-2.4
	c1.9-1,3.2-2.5,2.9-4.8c-0.3-2.5-2-3.9-4.3-4.1c-7.6-0.9-14.5,1-21.1,4.8c-0.9,0.5-1.5,1.4-1.4,2.5c0.1,1.2,1,1.6,2.1,1.8
	C64.2,54.1,68.2,55.4,72.4,55.6z M45.6,60c4.6,0,8.4-2.5,9.4-6.3c0.7-2.5,0.3-4.4-2.9-4.2c-2.2,0.1-4-0.7-5.5-2.2
	c-0.8-0.8-1.9-1.6-3-1.2c-2.1,0.7-3.4,0.1-4.8-1.6c-1.7-2.2-3.3-1.3-4.1,1.1C32.8,51.8,39,60,45.6,60z M54.1,46.9
	c1.6,0.4,2.8-0.5,4-1.5c3.7-3.2,7.5-6.4,11.2-9.6c1.9-1.7,4-3.1,5.3-5.3c1.5-2.4,0.6-3.9-2.2-3.8c-2.6,0.1-4.9,1.2-6.9,2.8
	c-5.2,4.1-9.3,9.2-13.1,14.6C50.8,46.3,51.4,47.1,54.1,46.9z M39.3,66.8c0.6-1.6,3.1-2.5,1.8-4.7c-0.2-0.4-1.4-0.7-1.6-0.5
	C37.6,63,38.7,64.9,39.3,66.8z"/>
</svg>
