<?xml version="1.0" encoding="utf-8"?>
<!-- Generator: Adobe Illustrator 25.3.0, SVG Export Plug-In . SVG Version: 6.00 Build 0)  -->
<svg version="1.1" id="Layer_1" xmlns="http://www.w3.org/2000/svg" xmlns:xlink="http://www.w3.org/1999/xlink" x="0px" y="0px"
	 viewBox="0 0 76.4 230.2" style="enable-background:new 0 0 76.4 230.2;" xml:space="preserve">
<path d="M22.6,48.3c-0.7-1-1.4-2-2.2-3c-1.5-2.1-1.9-4.3-0.3-6.4c1.6-2.1,3.9-2.6,6.2-1.7c2.4,0.9,5.1,3.3,4.5,5.2
	c-2,6.4,4.3,8.4,5.8,12.9c1.3-3.9,0.8-7.3-1.3-10.9c-8-14.1-6.9-28.3,0.2-42.4c1.7-3.5,3.1-1.5,4.3,0.7c7.1,13.2,8.5,26.9,2.4,40.6
	c-2.8,6.3-1.9,12.4-2,19.6c2.8-3.1,5-5.6,7.3-8c6.1-6.4,13.8-10,22.3-11.9c1.5-0.4,3.4-0.8,4.6,0.6c1.3,1.5-0.1,3-0.8,4.4
	C67.6,60,58.6,68.4,44,68.7c-2.8,0.1-3.8,1.1-3.8,3.8c0.1,8.3,0,16.7,0.7,25.1c1.1-5.3,6.3-9.8,2.8-16c-1.1-1.9,3-6.8,5.7-7.5
	c2.7-0.7,5,0.1,6.2,2.8c1.3,2.8-0.1,7.3-2.8,9c-7.6,5-7.7,5.1-8.8,15.3c6.5-10.4,16-15.9,26.5-19.8c1.4-0.5,3.1-1.8,4.5-0.4
	c1.5,1.5,0.5,3.4-0.2,5c-5.3,12.6-13.8,22.1-26.9,26.7c-6,2.1-7.5,5.6-7.2,11.6c0.5,10.4,0.1,20.8,0.1,31.6c2-0.8,2.3-2.1,2.9-3.1
	c6.3-11.6,17.5-16.2,29-20.4c1-0.4,2.1-0.7,2.9,0.3c1.3,1.6,0.2,3.1-0.5,4.5c-5.5,11.7-13.4,21.4-25.5,26.3
	c-7.6,3.1-9.6,7.4-8.7,14.8c0.6,4.6,0.2,9.2,0.3,13.9c0,0.1,0.2,0.2,1,0.8c0.7-6.4,6.9-10.7,4.9-18.1c-0.4-1.5,2.5-5.3,6-5.6
	c2.8-0.2,5,1.1,5.6,3.9c0.7,3.5-2.4,6.9-4.3,7c-7.4,0.4-6.3,6.6-8.4,10.6c-0.1,0.1-0.3,0.2-0.4,0.3c-0.1,0.1,0,0.2-0.1,0.4
	c0.1-0.2,0.3-0.5,0.4-0.7c6.1-7.5,14.4-11.4,23.5-13.9c1.6-0.4,3.6-1.8,4.9,0.1c1.2,1.7-0.2,3.4-1,5c-5.5,11.2-14.4,18.6-26,22.4
	c-5,1.6-6.3,4.2-5.8,8.9c0.4,3.9,0.2,7.8,0.1,11.8c0,1.7,0.3,3.5-1.6,5.3c-1.6-2.5-1.2-5-1-7.2c0.9-10.3-0.1-18.4-12.9-21.6
	C15.4,198.5,9.2,188.7,4,178.9c-0.8-1.5-2.2-3.2-0.6-4.9c1.3-1.4,3-0.4,4.5,0c10.9,3,19.7,8.8,25.9,18.5c1.2,1.9,2.1,4,4.8,6.1
	c0-7.3,0-13.8,0-20.3c0-10.2,0-10.3-9.7-13.5c-14-4.5-22.6-14.3-28-27.5c-0.6-1.6-1.8-3.4-0.1-4.9c1.5-1.3,3.1-0.2,4.5,0.3
	c11.4,4,20.9,10.7,28,20.6c0.7,0.9,0.9,2.3,2.6,2.8c-1.6-5.1-3.9-9.7-6.2-14.2c-1.1-2.3-3-3.2-5.4-3.8c-3-0.8-4.2-3.6-5-6.2
	c-0.6-2,0.4-3.8,2.1-5.2c2.3-1.8,4.9-2.2,6.6,0.2c1.9,2.6,5.4,4.9,2.9,9.2c-0.9,1.5,0.2,3.1,1,4.5c2.3,4,4.1,8.3,6.5,12.6
	c0-7.1,0.1-14.2,0-21.3c-0.1-4.8,1.5-10.1-0.5-14.3c-2.1-4.3-8-4.6-12.2-6.9C15,104.4,8.2,95.2,2.8,84.5c-0.6-1.3-1.5-2.8-0.4-4
	c1.3-1.5,3-0.5,4.5,0c13.9,4.1,21.8,10.4,31.3,24.3c0-6.4,0-12.7,0-19.1c0-3.9-0.5-7.8-0.3-11.8c0.1-3.4-0.9-5.3-4.6-5.6
	c-4.1-0.4-8-1.5-11.9-2.9c-8.1-2.9-13.3-8.7-16.9-16.2c-0.7-1.4-1.7-3-0.5-4.5c1.2-1.5,3-1,4.5-0.6C13.2,45.4,17.9,46.8,22.6,48.3
	c4,3.1,7.9,6.3,11.8,9.5c0.4,0.4,0.7,0.7,1.1,1.1c0.3,0.7,0.7,1.4,1,2.2l0.1,0.1l-0.2-0.1c-0.4-0.7-0.7-1.4-1.1-2.1
	c-0.4-0.4-0.7-0.7-1.1-1.1C30.9,49.4,29.2,48.1,22.6,48.3z M36.5,163.1c-7.6-14.3-18.2-23.9-33.7-28.4
	C8.7,150.7,20.1,162.1,36.5,163.1z M43.2,111.5c13.8-3.6,26.3-15.2,28.9-27.1C58.5,86.7,44.8,99.1,43.2,111.5z M43.9,202.7
	c12.6-3.8,22.2-10.6,27.7-23.2C57.5,181.5,46.9,190.5,43.9,202.7z M6.6,46.5C10.7,58.7,22.3,66,36.3,65.3
	C29.4,54.4,19.5,48.7,6.6,46.5z M50.6,76.5c-1.2,0.4-2.7,0.9-2.8,2.5c-0.2,2,1.3,2.8,3,3c1.7,0.1,2.6-0.9,2.6-2.6
	C53.5,77.6,52.4,76.9,50.6,76.5z M24.9,128c-1.7,0.1-2.7,1.2-2.8,2.7c-0.3,2.1,1.3,2.7,3,2.9c1.5,0.1,2.4-0.7,2.6-2.1
	C27.9,129.4,26.5,128.6,24.9,128z M53.9,176.1c1.3-0.2,2.5-0.7,2.6-2.2c0-1.5-1-2.1-2.4-2.2c-1.2,0-2,0.6-2.1,1.9
	C51.8,175,52.5,175.9,53.9,176.1z M26.7,41.9c0-1.2-0.5-2-1.8-2.1c-1.6-0.1-2.9,0.4-2.9,2.2c0,1.3,1,1.8,2.1,1.9
	C25.5,44,26.6,43.6,26.7,41.9z"/>
</svg>
