<?xml version="1.0" encoding="utf-8"?>
<!-- Generator: Adobe Illustrator 25.3.0, SVG Export Plug-In . SVG Version: 6.00 Build 0)  -->
<svg version="1.1" id="Layer_1" xmlns="http://www.w3.org/2000/svg" xmlns:xlink="http://www.w3.org/1999/xlink" x="0px" y="0px"
	 viewBox="0 0 76.1 229.1" style="enable-background:new 0 0 76.1 229.1;" xml:space="preserve">
<g>
	<path d="M74.4,73.3c-2.6-1.6-4,0.5-5.5,2C61.7,83,55.5,91.3,51.3,101c-1.5,3.5-2.9,7.1-4.8,11.6c-3.3-17.6-2.3-34.6-6.5-51
		c-3.5,25.8,2.3,51.5,0.6,77.3C36,126.4,30.5,114.6,21,105c-3.4-3.5-7-6.7-11.7-8.4c-1.8-0.6-3.7-1.6-5.4,0
		c-1.9,1.8-0.5,3.7,0.2,5.3c4.4,9.3,6.8,19.2,9.7,28.9c4.7,15.3,8.5,31.7,19.5,43.4c7.6,8.2,6.8,15.3,4.9,24
		c-1.2,5.7-2.2,11.4-3.1,17.2c-0.6,4-1.6,8,0.2,13.6c1.6-3.1,2.8-4.7,3.3-6.4c4.2-15.2,7.9-30.5,8.8-46.3c0.4-7.4,1.8-14.4,4.9-21.1
		c2.7-5.7,5.3-11.4,7.9-17.2c8.5-19,12.8-39.1,15.8-59.5C76.1,76.6,76.5,74.6,74.4,73.3z M10.6,102.9c22.3,18.5,29.2,43.6,30.5,71.1
		C23.5,153.5,20.1,126.9,10.6,102.9z M47.5,150.3c-0.5-25.9,6.1-48.4,21.9-68.9C70.6,95.7,57.5,136.9,47.5,150.3z"/>
	<path d="M26.2,58.3c0.3-1.1,0.1-2.5-1.1-3.1c-0.4-0.2-1.7,0.1-1.9,0.4c-1.9,4.3-6.3,7-8.3,12.8C21.1,66.4,24.6,63.4,26.2,58.3z"/>
	<path d="M44.4,4.1c0.2-1.8-0.1-3.8-2.1-4c-1.6-0.2-1.9,1.8-2.2,3.2c-0.7,3.7-1.5,7.5-2.6,13.3C42.3,12.3,43.9,8.4,44.4,4.1z"/>
	<path d="M5.5,27.2c3.9,0.2,7,3,12.5,4.2c-3.6-4.8-6.6-8.1-11.5-8.7c-1.6-0.2-3,0.7-3.2,2.2C3,26.2,4.1,27.1,5.5,27.2z"/>
	<path d="M50.4,49.2c-2.7-2.9-5.4-5.9-8.2-8.7c-0.9-0.9-1.9-2.4-3.5-0.8c-1.3,1.4-0.4,2.7,0.4,3.8C41.7,46.9,44.8,49.8,50.4,49.2z"
		/>
	<path d="M16.6,11.8c2.4,1.3,3.9,4.2,7.5,4.4c-0.1-3.9-2.3-6.1-4.5-8.1C18,6.8,15.9,6,14.4,7.9C12.1,10.5,15.1,11,16.6,11.8z"/>
	<path d="M58.9,47.9c-1.6-0.6-2.7,1.2-2.3,2.7c1,3.3,3.3,5.8,6.7,6.8c1.4,0.4,2-0.9,1.9-2.9C63.8,52.2,62.2,49.1,58.9,47.9z"/>
	<path d="M35.3,57.7c-3.7,1.6-4.3,5.5-5.6,8.8c-0.3,0.9,0.3,2.4,1.3,2.1c4.1-1.1,4.7-5,6.1-7.8C37.2,58.9,36.2,57.3,35.3,57.7z"/>
	<path d="M12.4,34.7C8,33.4,4,33.6,0,37.3C5.6,39.9,8.9,36.8,12.4,34.7z"/>
	<path d="M60.1,12.4c0-0.4-1.2-1.3-1.5-1.1c-4,2-5,6-6.2,9.9c-0.1,0.2,0.1,0.4,0.7,2.2C56.6,19.8,59.7,17,60.1,12.4z"/>
	<path d="M19.6,45.8c0.1-0.1-0.2-0.4-0.8-1.6c-3.7,2.7-8.2,3.4-9.8,8.1c-0.1,0.2,1.2,1.2,1.5,1C14.3,51.7,17.9,49.8,19.6,45.8z"/>
	<path d="M28.7,37.7c-3.9-0.3-7.3-1.7-10.6,0.6c-0.9,0.6-0.6,1.9,0.3,2.4c3.5,1.7,6.8,1.3,9.9-1.2C28.3,39.4,28.3,39.1,28.7,37.7z"
		/>
	<path d="M30.6,13.4c1.9,0.5,1.9-1.6,1.6-3.4c-1.8-1.9,1.3-6.8-3.6-7.1c-1.9-0.1-2,2.3-1.8,4.1C27.1,9.7,27.7,12.6,30.6,13.4z"/>
	<path d="M73.9,25.7c-5.8-0.9-9.6,0.6-12.8,5.2C66.8,32.2,69.9,29.1,73.9,25.7z"/>
	<path d="M32.8,32.7c0.2-0.1,0.3-0.3,0.7-0.9c-2.6-2.7-5.5-4.8-9.5-4.7c-0.9,0-1.3,1.5-0.6,2.2C25.9,32,28.8,33.9,32.8,32.7z"/>
	<path d="M6.2,46.1c1.7-1.2,3.7-2.1,5.4-5.8c-3.2,0.9-5.2,1.3-7.1,2.1C3.1,43,1.1,43.9,2,46C3.1,48.2,4.9,47,6.2,46.1z"/>
	<path d="M44.3,35.4c0.4,2.7,2.7,3.7,5,4.4c1.2,0.4,2.3,0.1,2.9-1.8c-1.5-1.9-3.4-3.4-6-4.1C45.2,33.7,44.1,34.3,44.3,35.4z"/>
	<path d="M30.4,51.5c2.9-0.2,2.6-2.9,3.1-4.8c0.4-1.5,0.1-2.9-2.1-3.4c-2,1.1-2,3.4-2.3,5.4C28.9,49.9,29,51.5,30.4,51.5z"/>
	<path d="M50,67.4c1.6-3.8,0-6.1-2.8-7.9c-0.4-0.2-1.7,0.1-1.8,0.4c-1.1,3,1.5,4.6,2.7,6.7C48.2,66.9,48.9,66.9,50,67.4z"/>
	<path d="M41.3,27.4c0.3,1.8,2.3,2.3,4,2.5c1.5,0.1,2.9,0,3.5-1.8c-0.8-2.2-2.7-2.6-4.6-2.8C42.9,25.2,40.9,25.4,41.3,27.4z"/>
	<path d="M35.2,27c0.9-5.6,0.9-5.6-3.6-8.1C31,22.5,32.4,24.9,35.2,27z"/>
	<path d="M19.4,53.4c-3.2,0.7-5.7,2.2-7.1,6.4C16.6,59.1,18.8,57.3,19.4,53.4z"/>
	<path d="M56.8,41.1c2.5,1.4,4.9,0.8,8-1.1c-3.3-2.1-5.7-2.3-8.1-0.6C56.5,39.6,56.5,41,56.8,41.1z"/>
</g>
</svg>
