<?xml version="1.0" encoding="utf-8"?>
<!-- Generator: Adobe Illustrator 25.3.0, SVG Export Plug-In . SVG Version: 6.00 Build 0)  -->
<svg version="1.1" id="Layer_1" xmlns="http://www.w3.org/2000/svg" xmlns:xlink="http://www.w3.org/1999/xlink" x="0px" y="0px"
	 viewBox="0 0 116.9 251.1" style="enable-background:new 0 0 116.9 251.1;" xml:space="preserve">
<path d="M53.3,54.5c-3.3-9.5-6.5-19.1-8.2-29c-0.6-3.4-0.3-6.6,1-9.7c1.6-3.7,4.2-6,8.5-5.7c4.5,0.3,6.2,3.3,6.9,7.3
	c2.1,11.3,0.3,22.3-3,33.2c-1,3.2-2.7,6.4-0.5,10.9c2.2-6.9,5.1-12.4,9.8-16.8c3.2-3.1,6.9-5.4,11.6-5.6c4.4-0.2,6.5,2,6.9,6.1
	c0.5,4.7-1.1,8.7-4.4,12c-4.2,4.3-9.5,6.9-14.6,9.8c-2,1.1-5,1.4-4.8,4.8C61.4,71.5,60,71,60.2,73c0.7-0.5,1.4-1,2.2-1.5
	c9.1,0.7,8.7,8.4,10.5,15c3.5-4.2,6.5-8.3,10.1-11.7c4.3-4.2,9.5-7,15.8-6.9c7.2,0.2,10.1,5.3,6.8,11.7c-2.1,4-5.8,6.1-9.6,7.9
	c-3.6,1.7-7.5,2.9-11.3,4.4c0.6,2.1,2.7,1.7,4.1,2.1c5.2,1.4,8.1,4.7,9.3,9.9c1,4.1,0.9,7.8-3.1,10.2c-3.9,2.4-7.8,1.7-11.2-1.1
	c-3.4-2.8-6.2-6.2-9.9-8.8c-3.4-2.4-5.7-2.1-8.5,1c-4.4,4.9-7.5,10.4-8.9,16.9c-3.5,16.4-3.4,33.2-5.7,50.8c3.4-2.5,3.7-5.3,3.8-8.1
	c0.3-7.7,0.6-15.4,0.9-23.1c0-0.7,0.1-1.5,0.2-2.2c0.8-6.7,2.5-9.1,6.6-9.2c3.8-0.1,7.5,3.5,8.6,8.7c0.5,2.3,0.3,4.7,0.5,8.1
	c3.6-6.6,5.4-13.3,9.8-18.4c1.4-1.7,2.7-3.6,4.3-5c2.4-2,5.2-3.8,8.6-2.1c3.1,1.5,4.4,4.3,4.7,7.6c0.7,7.5-3,13-8.2,17.8
	c-5.9,5.4-13,8.9-20.9,13.6c5.4-0.1,9.5-0.1,13.4,1.5c3.5,1.5,5.7,3.9,7,7.3c1.7,4.9,0.1,8.3-4.9,9.9c-4.3,1.3-8.7,1.1-13.1,0
	c-3.7-1-7.4-2.2-11.2-2.7c-7.3-1.1-10.1,0.9-11.8,8.1c-1.6,6.8-1.3,13.8-3.7,21.8c3-2.5,4.8-4.3,6.9-5.7c3.9-2.6,8.9-2.3,10.4,0.6
	c2,3.9,0.2,7.4-2.9,9.7c-3.6,2.7-7.7,5-11.8,7c-4.4,2.1-6.3,5.3-6.6,9.9c-0.2,2.7-1,5.5-1,8.2c0.1,4-2.2,5-5.4,5.3
	c-5.4,0.6-6.9-1.1-4.8-6.3c3.7-9.2,6.7-18.7,9.2-28.3c0.5-1.8,0.9-3.6,0.9-5.4c0.1-5.6-1.5-7.3-7.1-7.4c-5.2-0.1-10.3,0-15.1-2.5
	c-2.1-1.1-3.5-2.5-3.4-5.1c0.1-2.6,1.5-4,3.7-4.9c3.1-1.4,6.2-2.2,10.1-1.8c-1.6-3.7-4.8-4.8-7.4-6.5c-4.4-2.9-8.4-6.1-9.9-11.4
	c-1.9-6.3,1.9-10.7,8.5-9.5c7.4,1.4,11.7,6.5,14.3,13.2c1.1,2.9,1.6,6,2.4,9c2.3-0.7,1.6-2.5,1.9-3.8c0.6-2.6,0.5-6,3.8-6.6
	c3.9-0.6,3.7,3.3,5.3,6c1.6-7.3,2.2-14.3,2.4-21.3c0.1-4.6-3.5-7.5-7.5-9.3c-4-1.8-8.1-3.5-12.3-4.7c-3-0.9-5.2-2.7-7-5
	c-2.4-3.2-1.6-8,2.1-9.3c4.9-1.8,10-2.6,14.9,0.5c4.8,3,9.9,5.6,11.3,12.1c0.4-0.2,0.8-0.4,1.2-0.6c0.8-7.9,1.9-15.8,2.2-23.8
	c0.2-6-1.8-6.9-7.5-4.5c-2.6,1.1-4.8,2.7-7,4.4c-1.6,1.3-3.2,2.5-5,3.4c-5.1,2.6-10,1.8-12.3-2c-2.5-3.9-0.9-10.8,3.4-13.8
	c2.2-1.5,4.7-2.7,7.8-4.4c-6.2-2.9-12.4-4.5-17.9-7.7c-3.2-1.9-5.7-4-5.7-8.1c0-5.5,6.4-9.8,12.9-8.5c5.5,1.1,10.1,4.1,15.1,7.8
	c0.4-4.5,1-8.9,5.9-8.9c4.9,0,7.1,4.1,8.7,8.1c1.9,4.6,1.5,9.4,1.2,14.2c-0.1,3.4-1,6.8,0.4,10.5c2.2-5.7,1.9-23.4-0.3-28.2
	c-1.5-3.4-4.2-5.5-7.4-7.2c-3.9-2-7.9-3.8-11.9-5.7c-2.4-1.1-4.4-2.6-6.2-4.6c-2.2-2.4-2.7-5.4-1.3-8.2c1.3-2.8,3.9-4.2,7.2-4
	c7.1,0.4,11.7,4.8,16,9.7c1,1.2,1,3.3,3.1,3.5l-0.2,0.4L53.3,54.5z M50.5,55.5c-0.2,0.1-0.3,0.2-0.5,0.3c0.1-0.1,0.2-0.2,0.4-0.2
	c-1.4-1.7-2.6-3.6-4.1-5.1c-3.3-3.2-6.8-6.1-11.8-6.4c-2.4-0.1-4.3,0.7-5.5,2.8c-1,1.8,0,3.2,1.2,4.4c5.5,5.5,12.9,7.1,20.5,11.2
	C47,55.6,40.4,54,36.1,48.8C42.6,49.2,45.5,54.3,50.5,55.5z M23.6,161.5c3.9,2.9,5.2,8,9.2,11.8c-0.6-8.8-4.9-14.4-11.8-17.8
	c-2.1-1-5.2-2-7.1,0.5c-2,2.6-0.9,5.2,1,7.5c3.9,4.6,8.7,7.9,14.8,10.8c-1.9-4.9-5.2-8-6.5-12.3C23.3,161.8,23.5,161.7,23.6,161.5z
	 M75.3,153.2c7-3,12.8-7.4,17.8-12.9c2.9-3.2,4-7.1,3.2-11.3c-0.9-5-5.3-7.5-8.7-4.6c-7.5,6.3-11.3,14.6-13.2,24.1
	c4.5-5.4,9.2-10.6,13.1-16.4C85.8,140.5,78.9,145.8,75.3,153.2z M61.8,67.5c5.3-3.2,10.8-6.2,15.8-9.8c2.9-2.1,5.7-4.7,6.4-8.7
	c0.9-5.5-2.3-8.6-7.6-7.3c-7.2,1.8-15.7,13.1-15.5,20.9c3.4-3.4,5.6-8,11.3-10.9C67.8,57.5,63.1,61.2,61.8,67.5z M56.9,47.1
	c3.8-8.8,4.3-17.9,2.8-27.3c-0.6-3.7-1.7-7-6.2-7.1c-3.5-0.1-6.8,3.9-6.5,8.2c0.6,9.3,3.6,18,7.4,26.6c-0.4-8-0.8-16-1.2-23.9
	C56,31.2,55.8,39.2,56.9,47.1z M75.4,92.2c3.9-1.7,7.2-3.1,10.7-3.9c5.3-1.2,10-3.6,14.5-6.5c2.8-1.9,4.4-4.7,3.1-8.1
	c-1.1-3-4.2-3.3-7-3.1c-9.5,0.7-14.9,7-19.7,14.2c4.8-2.4,8.2-7.1,14.6-7.9C85.9,82,78.9,84.7,75.4,92.2z M40.3,87.8
	c0.4-0.4,0.8-0.8,1.2-1.2c-3.5-5.1-6-10.9-12.3-13.7c-3.5-1.6-6.9-3.6-11-2.7c-2.6,0.6-5.2,1.4-5.8,4.3c-0.5,2.7,1.3,4.5,3.5,5.8
	c5,3,10.4,5.1,16.2,6.4c-2.7-3.3-7.2-4.6-8.9-9.1C28.9,81,34.6,84.4,40.3,87.8z M58.1,171.9c4.9,1.4,9.7,2.4,14.4,3.9
	c3.1,1,6.4,1.6,9.8,0.8c2.1-0.5,4.6-0.5,5.3-3.2c0.6-2.5-0.6-4.7-2.3-6.4c-4.6-4.7-15-5.2-20.7-0.7c6.8,0.8,13.1,2.5,18.2,7.3
	C74.5,172.7,66.7,166.1,58.1,171.9z M41.1,95.9c-5-1.9-11.9-0.6-15.1,3c-2.1,2.4-3.8,5.2-1.6,8.4c2.3,3.4,5.8,4.3,9.2,2.4
	c4.9-2.8,9.4-6.4,14.9-10.2c-4.8-1.3-8.3-0.4-12,0.2C37.3,97.1,40.5,98.2,41.1,95.9z M57.8,162.5c3.9-6.1,2-13.3,3.8-21
	c2.4,6.9,0.7,12.8,0.7,19.7c3.8-5.3,5.6-10,6.2-15.2c0.5-3.8-0.1-7.4-2.3-10.5c-1.2-1.7-2.8-2.9-5.1-2.5c-2.4,0.5-2.5,2.5-2.8,4.2
	C57,145.7,57.5,154.1,57.8,162.5z M73.4,99.1c4.9,4.5,8.7,8.2,12.9,11.7c2.3,1.9,5.1,2.1,7.7,0.4c2.6-1.6,1.7-4.2,1.2-6.5
	c-1.7-7-9.1-10.7-16.7-8.1c3.2,2.5,6.3,4.9,9.9,7.8C82.3,105.4,79.5,99.5,73.4,99.1z M43.6,136.1c-2.6-6-9.7-5.6-14.5-10
	c4.7-0.6,7.8,1.1,11,2.3c3.2,1.2,5.3,4,8.7,7c-3.8-10.2-10.5-14.5-19.5-13.6c-2.2,0.2-4.8,0.1-5.6,2.6c-0.9,2.6,1.5,3.9,3.1,5.3
	C31.7,133.7,38.1,133.5,43.6,136.1z M51.9,87.9c0-6.9,0.8-12.9-4.7-17.1c-1.3-1-2.6-2.2-4.4-1.3c-2,1-2.1,3-1.7,4.7
	c1.2,5.5,2.5,10.9,7.2,14.7c1.4-1.3,0.2-2.9,1.1-4.3C50,85.5,50.7,86.3,51.9,87.9z M57,111c2.4-4.8,7-8.4,8.2-13.4
	c1.3-5.3-3-9.3-5.9-13.6C58.9,93.2,57.2,101.9,57,111z M47.8,213.2c4.4-0.9,7.9-2.8,11-5.3c1.5-1.2,2.4-2.9,1.4-4.8
	c-1.1-1.9-3.2-1.9-4.9-1.2c-3.9,1.7-7.1,4.2-9.2,9c2.6-1.1,3.3-3.5,6.1-3.3C50.6,209.7,49.2,211.4,47.8,213.2z M36.5,188.1
	c-3.7-4.9-8.7-6.9-13.7-5.6c-2.2,0.6-5.3,1-5.2,3.9c0.1,2.4,3.1,2.7,5.2,3.2c2.1,0.6,4.3,1.3,6.7,0.2c-1.3-2.4-4.5-1.6-5.2-4.4
	C28.5,184.9,31.8,187.7,36.5,188.1z M68.6,92.7c0.5-5.7-1.5-9.8-0.4-14.3c0.5-2-2-4.5-4.8-4c-2.8,0.4-2.4,2.9-1.9,4.8
	C62.5,83.8,64.8,87.8,68.6,92.7z M40.2,177.4c0.5-0.4,1-1,1.6-1.2c3.6-1.7,1.8-4.5,1.6-7c-0.1-0.7-0.6-1.6-1.4-1.2
	c-2.4,1.1-1.9,3.6-2.3,5.6C39.5,174.7,39.2,176,40.2,177.4z M45.6,182c-3.3,4.4-3.5,5.4-2.3,10.1C44.2,188.2,44.9,185.1,45.6,182z"
	/>
</svg>
