<?xml version="1.0" encoding="utf-8"?>
<!-- Generator: Adobe Illustrator 25.3.0, SVG Export Plug-In . SVG Version: 6.00 Build 0)  -->
<svg version="1.1" id="Layer_1" xmlns="http://www.w3.org/2000/svg" xmlns:xlink="http://www.w3.org/1999/xlink" x="0px" y="0px"
	 viewBox="0 0 154.7 250.3" style="enable-background:new 0 0 154.7 250.3;" xml:space="preserve">
<path d="M82.3,159.9c4.1-3.2,5.6-6.4,5.9-11c0.5-8.6,4-16.5,9.8-23c6.4-7.1,12-14.7,16.3-23.3c0.5-1,0.8-2.5,2.2-2.4
	c1.3,0.2,1.5,1.6,1.7,2.7c2.9,13.2,2.1,25.5-8,35.8c-5.9,6.1-12,11.9-19.3,16.4c-5.4,3.4-9.5,8.5-7.7,15.9c0.9,3.5,1.3,7.2,2.6,11
	c1.3-6.1,8.2-8.8,8.8-15.5c0.1-1.7,2.2-2.9,4.2-2.9c1.2,0.1,2.2,0.8,2.5,2.1c0.4,1.9-0.6,3.2-2.1,4.1c-11.8,7.6-15,17.9-7.3,29.8
	c3-6.7,8.8-11.3,10-19.1c1.1-7,5.1-13.3,8.3-19.7c6.8-13.3,19-15.6,32-16.3c1.9-0.1,3.4,1,1.4,2.6c-11.1,8.7-15.5,22.4-25.1,32.2
	c-4.4,4.5-8.4,9-15.7,9.6c-5.7,0.5-10.4,13.3-7.5,18.9c5,9.4,10.8,18.4,16.8,27.2c1,1.5,1.9,3,3,4.8c-2.6,0.9-3.1-1-3.8-2
	c-4.8-7.4-9.7-14.8-14.3-22.3c-1.7-2.8-3.7-4.9-6.2-6.9c-4.8-3.8-9.1-5.1-15.3-1.9c-8.2,4.3-17.1,4.3-26.1,0.4
	c-6.4-2.8-13.3-4.4-19.9-6.5c-1.1-0.3-2.6-0.3-2.8-1.7c-0.3-1.3,1.1-1.9,2-2.7c4.4-3.6,9.1-6.7,14.3-9.1c6-2.7,11.9-2.8,17.8,0
	c7.2,3.4,14.2,7.3,19.8,13.2c2.7,2.8,7.2,2.4,10.6,4.9c-2.4-5.4-4.3-11-7.2-16.1c-3.2-5.6-8.3-8.2-15.1-7.6
	c-7.9,0.7-15.5-1.2-21.8-5.9c-7.6-5.7-15.8-9.8-24.8-12.4c-1.1-0.3-2.6-0.4-2.7-1.7c-0.1-1.4,1.3-1.8,2.3-2.3c6.3-3.5,13-6,20.2-6.7
	c5.4-0.5,10.2,1.1,14.5,4.4c6.9,5.4,12.7,11.8,16.2,20c1.9,4.4,7,3.1,9.9,6.9c-1.1-10.7-3.8-19.5-12.4-25.5c-1.6-1.1-3-2.4-5.3-2.1
	c-2.3,0.3-4-1-4.1-3.3c-0.1-2.5,1.5-4.2,3.9-4.4c2.4-0.3,4.4,0.8,4.2,3.6c-0.1,1.8,0.5,2.8,1.8,3.8c2.9,2.2,5.6,4.6,8.9,8.8
	c-0.4-8.5-0.4-15.5-1.3-22.5c-0.5-3.9-6.8-5.5-10.2-3.4c-10.7,6.8-22,9.1-34.1,3.8c-6.6-2.9-13.8-3.7-20.9-4.4
	c-1.3-0.1-3.1,0-3.5-1.4c-0.4-1.5,1.3-2.1,2.4-2.8c4.9-3.2,9.9-6.2,15.3-8.4c14.8-6.2,29.8-3.4,41.2,8.1c2.8,2.8,6.9,1,9.7,4.7
	c1.4-10.2,1.9-19-4.9-26.4c-2.1-2.2-3.9-5-7.9-4c-1.9,0.5-3.5-1-3.7-3.2c-0.2-2.3,1.2-3.8,3.2-4.5c2-0.6,4.4,0,4.5,1.9
	c0.4,6.8,8.1,7.9,9,14.1c0.4-0.2,0.8-0.4,1.2-0.6c0.6-5.6,1.5-11.2,1.7-16.8c0.2-5.5-2.7-7.6-8.1-7c-10.7,1.1-19-3.2-24.4-12.3
	c-4.1-6.8-8.9-12.9-14.9-17.9c-0.9-0.8-2.7-1.4-1.9-3.1c0.5-1.2,2.1-0.8,3.2-1c6.7-1,13.3-0.8,19.9,0.6c12.6,2.6,21.9,13.6,23,27.5
	c0.2,3,1.1,5,4.8,6.6c0-8.9,5.5-16.2,3.9-25.5c-3.3-19.6,1.4-38,10.5-55.5c0.5-0.9,0.9-2.1,2.1-1.8c0.6,0.1,1.2,1.2,1.4,1.9
	c6.3,18.4,8.8,37.2-4.3,53.2c-8.5,10.4-9.9,22.1-12.4,34c-0.1,0.6,0,1.2,0,2.2C90,97,94.8,93.3,97,86c5.3-17.7,18.3-28,36-32.7
	c1-0.3,2.4-1.3,3.2,0c0.8,1.3-0.6,2.1-1.4,2.8c-5,4.7-7.9,10.6-10.4,16.8c-4.8,11.8-14.2,18.3-26.1,22c-7.7,2.4-13.3,7.5-15,15.8
	c-0.6,2.9-0.6,5.9-0.5,9.2c4.2-7.7,13.2-10.9,17-19c0.8-1.8,2.8-2.3,4.8-1.8c1.5,0.3,2.3,1.5,2.2,3c-0.2,2.1-1.3,3.8-3.4,4.5
	c-13.2,4.2-21.1,14.9-21.6,28.7C81.4,143.3,81.5,151.3,82.3,159.9z M101.2,91.4c2.4-0.1,4.3-1.6,6.3-2.7
	c10.5-5.7,15.2-15.6,18.8-26.2c-0.1-0.1-0.3-0.2-0.3-0.3c0.1-0.2,0.2-0.5,0.3-0.7c1-1.3,1.9-2.7,2.9-4c0.1-0.1,0.2-0.2,0.2-0.3
	c-0.1,0.1-0.1,0.3-0.2,0.4c-15,3.1-28.4,17.2-31.1,33.1c4.7-4.5,8.7-9.1,12.6-13.8c3.7-4.6,7.1-9.6,12.5-12.4
	c-0.2,1.7-1.7,2.4-2.7,3.4C113.6,75.3,107.6,83.6,101.2,91.4c0,0.2-0.1,0.3-0.2,0.4C101.1,91.7,101.1,91.6,101.2,91.4z M96.2,21.6
	c-7.6,14.3-8.3,29.6-7,46.4C96.9,52.4,95.5,36.8,96.2,21.6c0.1-0.1,0.2-0.2,0.3-0.3c0.1-0.1,0.1-0.2,0.1-0.3
	C96.5,21.1,96.4,21.3,96.2,21.6z M115.2,106.5c-4.6,7.7-10.1,14.8-16,21.6c-5.4,6.2-8.5,15-8.1,22c7.2-14.5,20-24.4,24.2-39.7
	c0,8-4.5,14-8.9,20.1c-4.6,6.4-8.9,13.1-13.3,19.6c7.7-4.3,13.6-10.1,18.7-16.7c6.2-8.1,6.9-17.3,4.5-26.9
	C115.9,106.5,115.5,106.5,115.2,106.5z M138.2,149.5c0-0.4,0-0.7,0-1.1c-8.2-1.7-15.4,1.1-20.7,6.7c-7.4,7.8-10.8,18-14.5,29.3
	c6.5-5.9,10.6-12,14.3-18.3c2.8-4.7,5.5-9.5,11.1-11.7c-9.6,9.2-13.5,22.5-24.2,32c3.3,0.1,4.8-1.1,6.2-2.2
	c5.5-4.3,10.4-9.3,14-15.5C128.2,161.9,132.6,155.3,138.2,149.5z M28.1,159.4c16.9-1.9,28.9,8.6,41.8,17.1
	c-2.3-5.6-5.9-9.9-9.9-13.8C50.7,153.7,39.5,152.6,28.1,159.4c-0.7,0.1-1.5,0.2-2,1.1c-0.6,1.4-0.7,1.5,0.5,1.9
	c7.9,2.7,15.1,6.6,21.9,11.6c5.6,4.1,12.3,5.9,19.5,5c-5-4.3-10-8.3-15.4-11.7c-7.4-4.7-15.3-8.1-24.5-6.7
	C28.2,160.2,28.2,159.8,28.1,159.4z M78.2,201.4L78.2,201.4c-12.9-15.9-30.2-17.8-45.1-5c-1.7,1.9-1,2.7,1.2,3.3
	c6.9,1.8,13.5,4.5,20.2,6.9c7.4,2.6,14.6,0.9,22.7-2.5c-6.5-1.9-11.9-3.3-17.1-5.2c-7.2-2.7-14.5-3.4-22-1.8
	c-1.7,0.4-3.6,0.9-5.1-0.7c1.3-0.1,2.7,0,3.9-0.3c8.3-2.2,16.3-1.8,24.4,1.2C66.8,199.3,72.4,200.7,78.2,201.4z M17.2,134.5
	c-1.4,2.7,1.1,2,2.1,2.2c5.4,1.1,10.9,1.7,15.9,4c9.5,4.5,18.7,3.1,27.9-0.8c0.8-0.4,2.5-0.4,2.1-2.2c-5.4-0.8-10.9-1.4-16.2-2.5
	c-7.1-1.5-14-2-21.2-1C24.2,134.6,20.6,136.6,17.2,134.5c1.1-0.1,2.3,0,3.4-0.3c10.5-2.8,21-2.6,31.6-0.5c4.5,0.9,9.2,1.8,14.3,1.2
	C53.6,121.8,32.5,121.8,17.2,134.5z M41.2,62.4c8,1.2,14.7,4.9,20.3,10.7c4.5,4.6,9,9.1,14.5,13.3c0-1.5,0.1-2.3,0-3.1
	C72.8,66.7,56.4,56,40,60c-0.8,0.2-1,0.8-0.8,1.5c-1.3,1.8,0.6,2.3,1.4,3.1c4,3.8,7.3,8.2,9.9,13.1c1.8,3.4,4.3,6.4,7.5,8.5
	c5.1,3.3,10.5,4.9,16.7,3.6C68.4,83.2,62.6,77,56.7,71C52.4,66.6,46.2,65.5,41.2,62.4z M92.9,66.2c12.3-15.5,14.5-36.2,5.8-51.2
	C95.2,32.5,100.3,50.1,92.9,66.2z"/>
</svg>
