<?xml version="1.0" encoding="utf-8"?>
<!-- Generator: Adobe Illustrator 25.3.0, SVG Export Plug-In . SVG Version: 6.00 Build 0)  -->
<svg version="1.1" id="Layer_1" xmlns="http://www.w3.org/2000/svg" xmlns:xlink="http://www.w3.org/1999/xlink" x="0px" y="0px"
	 viewBox="0 0 124.6 229.4" style="enable-background:new 0 0 124.6 229.4;" xml:space="preserve">
<path d="M50.6,163c3.8-5.9,6.7-10.6,9.8-15.2c2.9-4.3,6.2-8.4,10-12c2.2-2.2,5.8-3.9,6.5-6.5c0.8-3-4.3-3.4-5.6-6.2
	c-0.8-1.7-2.5-3.2-2.6-4.9c-0.4-7.3-4.3-14.4-1.6-21.9c0.8-2.2-0.2-4-0.5-6c-1.1-6.1,2-10.4,8.1-11.6c1.7-0.3,3.1-0.8,4.5-1.9
	c5.8-4.5,12.1-6.1,19.3-3.9c1.3,0.4,2.8,0.5,4.3,0.5c8.6-0.4,15.4,4.4,17.1,12.9c0.5,2.7,1.3,5,2.6,7.5c3.8,6.9,2.6,14.4-3,20
	c-1.7,1.7-2.8,3.4-3.7,5.6c-4.6,10.9-16.3,15.8-26.8,10.7c-4.1-2-6-0.8-9,1.8c-11.9,10.6-20.3,23.6-27.5,37.6
	c-1.6,3.1-3.1,6.2-2,10.3c4.1-2.8,6.6-5.5,7.5-10.7c3.5-19,19.4-24.3,36.4-18.3c2.1,0.7,1.7,2.4,1.3,4.2
	c-3.5,17.1-11.6,23.9-28.8,24c-13.5,0.1-16.9,3.5-18.2,17c-0.8,8.7-2.3,17.3-3.5,26c-0.3,2.4-0.9,4.8-3.4,7.8
	c-1.2-5.3-0.6-9.5,0.1-13.5c3-16.5,1-32.3-5.3-47.7c-1.1-2.7-2.3-5.4-2.9-8.2c-2.6-11.7-9.8-20.2-19.2-26.8c-16-11.2-17.9-25-9.6-46
	c1.3-3.4,3-4.3,5.9-1.5c3.5,3.4,9.9,3.1,11.8,8.5c0.9,2.4,2.7,3.9,4.1,5.8c6.1,8.3,13.7,16.2,10.7,28.1c-0.6,2.4-0.2,5.1-0.9,7.4
	c-3.7,11.9-1.2,22.8,4,33.6c1.6,3.3,2.4,7,4.5,10.6c0.3-7,1.2-14.1,0.9-21.1c-1.2-31-2.7-62-4-93c-0.2-4.2-0.7-5.8-5.6-4.3
	c-5.6,1.7-23.5-6.7-25.7-12c-2.4-5.8-4-12-5-18.1c-1.5-8.8,4.7-16.3,13.4-18.1c1.7-0.3,2.8-0.4,3.7-2.4C27.8-0.1,41-3.4,50.5,3.8
	c1.5,1.1,2.9,1.3,4.6,1.4c9.2,0.9,14.6,7,14,16.5c-0.3,4.2,0.1,8,1.4,12.1c4.1,13.1-7.3,27.5-21,26.4c-3.6-0.3-4.7,0-4.3,4
	c3.1,31.5,4.5,63.1,5.1,94.7C50.3,159.7,50.4,160.5,50.6,163z M31.1,140.2c2.4-8.3,4.5-17,1-24.9C28.8,107.6,22,101.5,18,93.9
	c-1.1-2.2-4.3-2.8-8-3.5C17,107.6,24.9,123.4,31.1,140.2z M24.8,135.8C20,120.5,12.4,107,7.2,91.8C-0.3,109.8,4.6,121.8,24.8,135.8z
	 M103.9,86c-0.4-3.5-1.3-7.9-6.4-9.9c-5.1-1.9-13.8,0.4-17.3,4.4c-1.8,2.1-3.5,5.1-1.9,7.3c1.6,2.1,4.9,2.8,7.9,1.1
	c4.6-2.7,9.2-2.3,13.4,0.9C103.6,92.8,104,90.6,103.9,86z M51,56.7c10.1-0.1,18.7-11.5,16.2-21.1c-0.6-2.3-1.3-4.1-4.1-1.9
	c-1.6,1.3-4.1,1.5-4.8,3.7c-1.4,5.1-4.5,8.7-9.2,11.2c-2.6,1.3-2.8,4.3-2.6,6.6C46.7,57.6,49.5,56.3,51,56.7z M34.4,58.2
	c3.5-0.4,6.9-1.7,9.2-5.1c0.8-1.2,1.8-3-0.7-3.2c-5.9-0.5-9.3-4-12.1-8.6c-1-1.6-2.9-2-4.3-0.8c-1.8,1.6-5.3,1-5.9,3.8
	C19.4,49.8,27.9,58.3,34.4,58.2z M51.1,12.7c-4-10.5-13.3-12.3-22.3-5c-2,1.6-5.2,4.1-2.1,6.4c2.8,2,5.7,7.6,10.4,3.3
	C41,13.7,45.2,11.8,51.1,12.7z M26.8,18.1c-6.2-3-10.6-1.1-14.4,3.2C9.2,24.8,7,29.2,9.6,33.7c2.8,4.8,7.8,5.2,13.2,4.8
	C16.9,30.1,15.4,25.9,26.8,18.1z M86,105.8c-1.9,7.2-0.5,11.2,4.4,13.1c5.5,2,12.1-0.2,14.6-5c0.8-1.5,1.2-3.1,0.6-4.8
	c-0.5-1.2-1.4-1.5-2.5-1C96.9,111,91.5,108.2,86,105.8z M90.4,153.3c-13.5-4.4-27.8,3-27.9,16.9C71.7,164.6,80.7,159.2,90.4,153.3z
	 M81.8,96.4c2-4.8-1.9-4.4-5-4.5c-3.1-0.1-5.1,1.6-5.9,4.6c-0.9,3.8-2.5,7.9,1.4,11c2.3,1.8,5.5,3.8,7.9,2.2
	c2.1-1.4,2.9-4.9,2.1-7.9C82,100.1,81.3,98.6,81.8,96.4z M59.6,32.4c8.3-6.1,8.4-17.8,0.5-22.3c-1.6-0.9-3.7-2.2-5.1-0.7
	c-1.2,1.3-0.7,3.5,0.5,5.1c2,2.5,3.9,5.3,2.6,8.5C56.7,26.4,57.5,29.2,59.6,32.4z M64.5,173.7c15,1.5,28.3-5.9,26.3-16.8
	C82.4,162.3,74.1,167.6,64.5,173.7z M113.4,111.8c-3.4,0.1-4.6,2.5-6.2,4.7c-2.8,3.9-6.5,6.4-11.4,6.6c-1.9,0.1-3.7-0.2-5.6-0.2
	c-1.1,0-2,0.8-2.1,1.9c0,0.6,0.8,1.4,1.5,1.7c5.2,2.1,10.5,2.6,15.4-0.9C109.8,122.2,114.9,119,113.4,111.8z M34.1,39.8
	c3.8,5.8,7.4,7.4,12.2,5.9c5.6-1.7,9.3-6.2,9.7-11.8c0.1-1.6,0.6-3.7-1.4-4.3c-1.3-0.3-2.8,0.8-3.5,2.2C48,38.4,43,41.6,34.1,39.8z
	 M33.4,36.2c-2.7-5.4-0.7-9.6,1.8-13.8c-7.3-1.3-12.3,1.2-12.8,5.9C21.9,32.6,24.9,35,33.4,36.2z M108.2,87.1
	c-3.7,8-0.8,14.9,1.3,22.6C116.2,102.5,115.5,92.6,108.2,87.1z M81,124.2c1.7-0.7,5.3-0.2,4.5-3.7c-0.9-4.3-7.5-8-12.3-8.1
	c-1.4,0-1.8,0.3-2,1.5C70.7,117.9,76.4,124.2,81,124.2z M52.7,26.5c3.1-3.7,3.6-6.9-0.1-9.4c-4.5-3-10.2-1-12.5,4.1
	C45,21.3,50.3,20.2,52.7,26.5z M105.1,76.7c-0.6,8.3,9,7.1,10.7,13.2C116.9,82.4,112.5,77.2,105.1,76.7z M97.1,90.8
	c-6-0.7-9.3,0.2-11,4.4c-1.2,3.1-0.7,5.8,2.8,8.2C90.1,98.3,91.7,94.1,97.1,90.8z M118.5,95.6c-0.7,4.2-0.5,8.4-2.6,12.1
	c-0.6,1.1-0.5,2.1,0.6,2.6c1.3,0.7,1.9-0.5,2.4-1.3C121.7,104.5,121.7,100,118.5,95.6z M19.4,52.5c-0.9-3.3-1.6-5.9-2.3-8.5
	c-0.6-2.4-2.7-2.8-4.4-2.4c-2.5,0.5-1.1,2.6-0.7,4C13,49,15.2,51.3,19.4,52.5z M102.3,105.4c2.9-3.8,2.5-6.5,0.4-8.8
	c-1.8-2-4.1-1.9-7-0.5C98.4,99,100.9,101.3,102.3,105.4z M42.3,35.5c3.8-1.6,6.5-3.9,6.2-8.3c-0.1-1.1-0.7-2.1-1.8-2.3
	c-1.5-0.3-1.7,0.9-1.6,1.9C45.2,30.1,43.6,32.7,42.3,35.5z M41.7,28.3c0-1.4,0.1-3-1.6-2.8c-2.5,0.2-4.1,1.8-4.4,4.4
	c-0.1,1.4,0.2,3.3,2.1,3.1C40.3,32.6,41.4,30.6,41.7,28.3z M74.7,81.7c-3.7,1.4-5,3.6-4.7,6.8c0.1,1.1,1,0.9,1.8,0.7
	C75.9,88.2,75,85.3,74.7,81.7z M94.4,99c-1.4,2.9-2.9,5.4,0.5,7.2c1.2,0.6,3.4,1,3.8-0.5C99.5,102.6,96.9,101.1,94.4,99z"/>
</svg>
