<?xml version="1.0" encoding="utf-8"?>
<!-- Generator: Adobe Illustrator 25.3.0, SVG Export Plug-In . SVG Version: 6.00 Build 0)  -->
<svg version="1.1" id="Layer_1" xmlns="http://www.w3.org/2000/svg" xmlns:xlink="http://www.w3.org/1999/xlink" x="0px" y="0px"
	 viewBox="0 0 176.9 249.2" style="enable-background:new 0 0 176.9 249.2;" xml:space="preserve">
<g>
	<path d="M135.7,55.9c7.3-2.9,14.7-5.6,22.2-8c1.6-0.5,2.9-0.7,4.3,0.5c1.4,1.2,3,0.8,4.1-0.7c1-1.5,0.9-3.1-0.5-4.2
		c-1.4-1.2-3-1-4.2,0.3c-0.8,0.8-1.5,1.7-2.7,2c-8.1,2.3-15.9,5.3-23.7,8.3c-0.8,0.3-1.8,1.2-2.5,0c-0.7-1.1,0.3-1.7,0.9-2.4
		c6.7-7.2,14.3-13.3,23.1-17.7c1.7-0.8,3.2-1.6,5.3-0.8c1.6,0.7,3.1-0.2,3.7-2c0.6-1.7,0-3.1-1.7-3.9c-1.7-0.7-3.1-0.1-4,1.5
		c-0.5,0.9-0.7,1.9-1.8,2.4c-9.9,4.5-18.2,11.1-25.7,18.9c-0.5,0.5-0.9,1.4-1.8,0.8c-0.9-0.6-0.4-1.5,0-2.2
		c4.7-8.5,10-16.5,17.2-23.1c1-0.9,2-1.5,3.6-1.3c1.9,0.3,3.2-0.9,3.3-2.9c0.1-1.7-0.8-2.8-2.5-3.2c-2-0.4-3.2,0.6-3.7,2.5
		c-0.2,1-0.2,2-1.2,2.8c-7.7,6.5-13.1,14.9-18.1,23.5c-0.3,0.5-0.3,1.5-1.6,1.2c1.7-6,3.7-11.8,5.9-17.5c0.6-1.5,1.2-2.7,2.9-3.4
		c1.7-0.6,2.2-2.2,1.5-3.9c-0.7-1.6-2.1-2.4-3.9-1.8c-1.8,0.7-2.8,2.2-1.9,4c0.7,1.6,0.4,2.7-0.2,4.1c-1.1,2.7-2.1,5.5-3.1,8.2
		c-1,2.8-1.8,5.6-2.7,8.4c-0.2,0.7-0.4,1.6-1.3,1.4c-0.9-0.2-0.8-1.1-0.9-1.8c0-0.4,0-0.8,0-1.3c0.2-8.4,0.4-16.8,0.6-25.1
		c0-1.7,0.2-3.2,1.7-4.5c1.3-1.1,1.3-2.9,0.1-4.2c-1.2-1.4-2.8-1.4-4.2-0.3c-1.4,1.1-1.6,2.7-0.6,4.2c0.6,1,1.3,1.8,1.2,3.1
		c-0.7,9-0.5,18-0.8,27c0,1,0.4,2.4-0.9,2.7c-1.4,0.3-1.4-1.3-1.7-2.2c-2-7.2-4-14.3-5.9-21.5c-0.5-1.7-0.6-3.1,0.5-4.7
		c1.1-1.6,0.6-3.3-1.1-4.3c-1.5-0.9-2.9-0.5-3.9,0.8c-1.2,1.6-1,3.2,0.6,4.4c1,0.8,1.5,1.6,1.8,2.8c1.8,7.9,4.1,15.6,6.3,23.3
		c0.2,0.8,0.8,1.7-0.1,2.7c-1-0.5-1.5-1.4-2-2.3c-4.4-6.9-8.8-13.8-13.2-20.7c-0.9-1.5-1.8-2.9-1.2-4.9c0.5-1.9-0.6-3.3-2.6-3.6
		c-1.7-0.3-2.9,0.6-3.4,2.2c-0.5,1.9,0.2,3.3,2.2,3.9c1.1,0.3,1.9,0.7,2.4,1.7c4.5,8,9.7,15.7,14.8,23.3c0.5,0.7,1.5,1.6,0.5,2.4
		c-0.9,0.7-1.5-0.5-2-1c-5.4-5-10.7-10-16.1-15c-0.9-0.8-1.5-1.7-1.7-2.9c-0.4-1.9-1.7-2.9-3.7-2.5c-1.8,0.3-2.7,1.6-2.5,3.4
		c0.3,2,1.7,3,3.6,2.6c1.6-0.4,2.6,0.3,3.6,1.3c5,4.7,9.9,9.3,14.9,14c0.6,0.6,1.6,1,1.7,2.2c-0.5-0.1-0.9-0.2-1.2-0.3
		c-7.3-2.7-14.4-5.8-21.3-9.3c-2.5-1.2-5.1-2.3-6-5.5c-0.5-1.7-2.3-2.1-4-1.3c-1.6,0.8-2.3,2.2-1.6,3.9c0.7,1.6,2,2.6,3.8,1.9
		c1.2-0.5,2-0.7,3.2,0.1c7.4,4.8,15.6,8.2,23.7,11.4c0.7,0.3,1.6,0.3,2,1.6c-4.2-0.2-8.1-0.3-12.1-0.6c-2.9-0.2-5.8-0.1-7.8-3
		c-0.8-1.2-2.5-1-3.7,0c-1.1,0.9-1.3,2.1-0.8,3.4c0.6,1.4,1.8,2,3.3,1.7c1.1-0.2,2-1,3.3-0.8c5.3,0.6,10.6,1,16,1
		c1,0,2.3-0.3,2.5,1.2c0.2,1.7-1.2,1.7-2.3,2c-6.8,1.9-13.8,2.5-20.7,3.5c-2.5,0.3-5.1,0.9-7.4-1.3c-1.3-1.1-3.1-0.5-4.1,1
		c-1,1.4-0.7,2.8,0.5,4c1.3,1.2,3.2,1.6,4.2,0.2c1.4-2.2,3.4-2.1,5.4-2.2c3.9-0.1,7.7-0.4,11.5-1.3c4-1,8.1-1.6,12.2-2.4
		c-5.3,4.3-11.1,7.8-17,11.2c-2,1.1-3.8,2.5-6.4,1.2c-1.3-0.6-2.7,0.2-3.2,1.7c-0.5,1.4-0.2,2.7,1.2,3.5c1.5,0.9,3.2,0.7,3.8-0.8
		c1-2.3,3-3,4.9-4.1c5.5-3.3,11-6.5,16.5-9.8c0.7-0.4,1.4-1.8,2.4-0.7c0.9,1-0.2,1.7-0.8,2.4c-5.1,6-9,12.9-13.9,19
		c-0.9,1.1-1.5,2.1-3.1,2.4c-1.9,0.4-2.8,1.8-2.3,3.8c0.5,1.8,1.8,2.6,3.6,2.3c1.9-0.4,2.9-1.7,2.5-3.7c-0.2-1.1-0.3-1.9,0.3-3
		c3.7-6,8-11.5,12.4-16.9l0.1-0.1l0,0.1c-2.2,4.3-4.2,8.6-6.5,12.9c-6.3,12.1-11.5,24.6-15.7,37.6c-11.6,35.4-16.8,71.7-15.5,109
		c0.1,2.6,0.3,5.2,0.5,7.8c0,0.6,0.3,1.3,1.1,1.3c0.8,0,1-0.7,1-1.3c0-1.9-0.1-3.8-0.2-5.7c-0.1-1.2,0.1-2.2,1.1-3.1
		c6.2-6.2,10.2-13.8,13.6-21.7c10.3-24.5,16.1-50.2,20.7-76.2c0.1-0.6,0.5-1.4-0.6-2.1c-1.5,0.9-2.8,2.3-4.1,3.7
		c-5.6,6.4-9.2,14-12.4,21.7c-7.6,18.6-12,38.1-15.9,57.8c-0.8,4.1-1.6,8.3-2.3,12.4c-0.6-12.8-0.1-25.4,1.2-38.1
		c3.3-31.2,11.1-61.3,23.7-90.1c3.4-7.7,6.7-15.6,11.5-22.6l0.1-0.1l0,0.1c-1.4,5.2-2.3,10.4-2.6,15.8c-0.1,1.3-0.5,2.3-1.7,3.1
		c-1.7,1.3-1.4,3-0.1,4.4c1.2,1.3,2.9,1.4,4.2,0.2c1.4-1.3,1.8-3.1,0.3-4.4c-1.2-1.1-1.5-2.2-1.3-3.6c1-6,1.8-12,3.9-17.8
		c0.4-1,0.4-2.2,1.7-2.7c0.8,1,0.7,2.1,0.9,3.1c1,6.7,2,13.5,3,20.2c0.2,1.6,0.5,3-0.3,4.6c-0.9,1.7-0.3,3.3,1.5,4.2
		c1.5,0.7,3,0.3,3.8-1.1c1-1.7,0.8-3.5-1-4.3c-1.7-0.8-1.9-2.1-2.2-3.5c-1-6.5-2-13.1-2.9-19.6c-0.1-1-0.9-2.3,0.4-2.8
		c1.5-0.6,1.9,0.9,2.5,1.8c3.7,5.7,7.3,11.5,10.9,17.3c1,1.6,2.1,2.9,1.4,5.1c-0.6,1.7,0.6,3.1,2.4,3.4c1.6,0.3,2.9-0.3,3.5-2
		c0.6-1.7,0.1-3.4-1.7-3.9c-2-0.6-2.9-1.9-3.8-3.4c-2.4-3.7-4.8-7.4-7.2-11.1c-1.2-1.9-2.4-3.9-3.6-5.9c-0.3-0.6-1-1.3-0.1-1.9
		c0.7-0.5,1.4-0.2,2,0.3c0.3,0.3,0.6,0.6,0.9,0.9c6.1,5.8,12.2,11.5,18.3,17.3c0.9,0.9,1.7,1.6,1.5,3.1c-0.2,1.9,1.1,3.2,3.1,3.2
		c1.8,0,3-1.1,3.1-2.9c0.1-2-1.1-3.2-3-3.3c-1.5,0-2.5-0.7-3.6-1.7c-5.7-5.4-11.5-10.8-17.2-16.2c-0.6-0.6-1.5-1-1.5-2.7
		c5.8,3.8,11.2,7.4,16.7,11c0.9,0.6,0.6,1.5,0.8,2.3c0.3,2,1.5,3,3.5,2.8c1.8-0.2,2.8-1.5,2.7-3.3c-0.1-2-1.5-3.1-3.4-2.9
		c-1.1,0.1-2,0-2.9-0.6c-4.6-3.1-9.3-6.2-13.9-9.3c-0.7-0.5-2-0.9-1.4-2.1c0.5-1.1,1.6-0.6,2.5-0.4c5.6,1.2,11.3,2.4,16.9,3.6
		c1.3,0.3,2.3,0.7,3,2c1,1.6,2.7,2,4.4,0.9c1.5-1,1.9-2.5,1-4.1c-1-1.7-2.6-2.1-4.3-1.1c-1.2,0.7-2.3,0.8-3.6,0.5
		c-5.4-1.2-10.9-2.3-16.3-3.6c-0.9-0.2-2.3,0.1-2.1-1.6c0.2-1.5,1.3-1.3,2.4-1.4c7-0.6,14-0.8,21-0.7c1.5,0,2.8,0.2,3.9,1.4
		c1.3,1.4,3.1,1.3,4.5-0.1c1.1-1.2,1.2-2.7,0.2-4c-1.2-1.5-2.9-1.7-4.4-0.5c-0.9,0.8-1.7,1.4-3,1.3c-7.2-0.3-14.5,0.3-21.7,0.6
		c-0.8,0-2,0.5-2.2-0.5C133.5,56.3,134.9,56.2,135.7,55.9z"/>
	<path d="M54,93.2c-1.2-1.5-1.1-2.4,0.2-3.7c2.5-2.4,4.8-5,6.4-8.1c4.4-8.7,3.7-17.6,1.7-26.7c-0.3-1.3-0.3-2.3,0.6-3.4
		c1.1-1.4,0.9-3-0.7-4.1c-1.4-1-2.9-0.7-3.9,0.7c-1.1,1.5-0.8,3,0.7,4.1c1,0.7,1.4,1.7,1.8,2.8c2.6,7.5,2.4,15,0,22.5
		c-0.9,2.9-2.4,5.4-4.4,7.7c-0.1-2.2,0.7-4.2,0.9-6.4c0.5-8-1.8-15.6-3.6-23.2c-0.4-1.5-0.5-2.6,0.6-4c1.8-2.3,1.1-5.2-1.2-6.5
		c-2.2-1.2-4.9-0.3-5.9,1.8c-1.2,2.4-0.1,5,2.6,6.1c1,0.4,1.9,0.6,2.3,1.8c3.3,9.1,4.6,18.5,3.3,28.1c-0.2,1.9-0.8,3.8-2.8,5.5
		c0.5-8.9-1.8-16.5-5.5-23.8c-0.7-1.3-0.7-2.7-0.1-4.2c0.5-1.5-0.3-2.9-2-3.4c-1.5-0.5-2.7,0.1-3.4,1.5c-0.8,1.6-0.3,3.2,1.2,3.7
		c2,0.7,3,2.2,3.8,3.9c2.4,4.6,4,9.5,4.7,14.6c0.3,2.4,0.4,4.8,0,7.5c-1.3-0.9-1.3-2.1-1.7-3c-3.2-8.3-6.9-16.4-12.7-23.3
		c-1.4-1.7-3.1-3-3.7-5.4c-0.4-1.6-2-2.1-3.6-1.6c-1.4,0.4-2,1.5-1.7,3c0.3,1.7,1.5,2.9,3,2.4c2.5-0.8,3.5,0.6,4.6,2.1
		c4.6,6,8.8,12.3,11.6,19.3c1.1,2.7,2.5,5.3,2.4,8.3c-6.8-4.9-13-10.4-17.9-17.3c-1-1.4-2-2.8-1.3-4.9c0.9-2.9-0.4-5-2.9-5.6
		c-2.2-0.5-4.9,1.3-5.3,3.4c-0.4,2.4,1.6,4.7,4.5,4.9c1.1,0.1,2,0,2.7,1c5.3,7.2,11.3,13.7,18.4,19.2c0.2,0.2,0.2,0.5,0.5,1
		c-6.2-0.4-10.6-4-15.1-7.5c-1.5-1.2-2.8-2.4-2.6-4.7c0.2-1.7-1.1-2.7-2.8-2.6c-1.7,0.1-2.7,1.2-2.7,2.9c0,1.7,0.9,2.8,2.7,2.7
		c0.9,0,1.9-0.2,2.6,0.6c4.2,4.2,8.6,8,14.5,9.7c-0.7,0.4-1.2,0.5-1.7,0.5c-0.8,0-1.7-0.1-2.5-0.2c-9-1.6-15.8-6.8-22.3-12.8
		c-0.9-0.8-0.6-1.5-0.4-2.5c0.8-3.1-0.7-5.4-3.5-5.8c-2.3-0.3-4.5,1.5-4.7,4c-0.2,2.6,1.8,4.6,4.8,4.7c1.1,0,2-0.1,2.8,0.8
		c2.2,2.5,5.1,4,7.7,6c4.1,3,8.3,5.7,13.4,6.7c1.4,0.3,2.8,0.5,4.8,0.8c-7.4,3.4-14.8,3.2-21.1-0.4c-1.5-0.9-3-1.7-3.1-3.9
		c0-1.5-1.3-2.4-2.9-2.2c-1.8,0.2-2.5,1.5-2.5,3.1c0,1.7,1.3,2.6,2.7,2.4c1.9-0.3,3.2,0.6,4.6,1.4c2.1,1.2,4.3,2.1,6.7,2.6
		c7.4,1.7,14.1-0.1,20.4-4.1c1.8-1.2,2.9-1,4.2,0.7c1.7,2.2,3.1,4.5,4.3,6.9c4.5,9.2,7.1,19,9,29c4.7,25.5,5.5,51.2,5.2,77
		c0,1,0.3,2-0.4,3.2c-4.2-25.8-15.3-48.2-30.6-69.5c-0.8,1.9-0.4,3-0.3,4.1c0.7,4.9,1.8,9.7,3.2,14.4c6,20.8,14.3,40.7,23.8,60.1
		c2.6,5.3,4.6,10.5,3.6,16.5c-0.2,0.9-0.5,2.5,1,2.5c1.5,0.1,1.2-1.5,1.2-2.4c0.3-5.5,0.5-11.1,0.6-16.7
		c0.7-34.7,0.7-69.4-8.3-103.3C62.5,108.3,59.5,100.2,54,93.2z"/>
</g>
</svg>
