<?xml version="1.0" encoding="utf-8"?>
<!-- Generator: Adobe Illustrator 25.3.0, SVG Export Plug-In . SVG Version: 6.00 Build 0)  -->
<svg version="1.1" id="Layer_1" xmlns="http://www.w3.org/2000/svg" xmlns:xlink="http://www.w3.org/1999/xlink" x="0px" y="0px"
	 viewBox="0 0 49.1 111" style="enable-background:new 0 0 49.1 111;" xml:space="preserve">
<path d="M23.3,48.9c3.7-3,6.8-6,11.5-5.6c3.6,0.3,6.1,1.9,6.5,5.7c0.3,2.5-0.3,4.8-3.3,5.1c-3,0.3-4.8-1-4.6-4.3c0-0.5,0-1,0-1.6
	c-5.5,0.6-10.1,5.6-10.3,12c-0.3,11,0.1,22,2.4,33c2.4-0.6,2.4-3,3.5-4.3c2.9-3.5,6-6.5,10.6-7.5c3.5-0.7,6.3,0.4,8.3,3.3
	c1.7,2.3,1.5,4.7-0.3,6.8c-1.4,1.6-3.2,2.3-5.2,1.5c-2.9-1.1-2.6-3.4-2-5.8c0.1-0.5,0.3-1,0.4-1.5c-6.2,1.3-11.9,8.1-13.2,15.9
	c-0.3,2.1-0.2,4.2-0.2,6.3c0,1.6-0.4,2.9-2.2,2.9c-1.6,0-1.9-1.3-2.1-2.6c-0.7-5.6-1.4-11.3-2.2-16.9c-1-7.4-4.2-13.4-11-16.9
	c-2,0.5-1.2,2.1-1.5,3.1c-0.9,2.5-2.5,4.2-5.2,3c-2.6-1.2-4-3.4-2.6-6.5c1.4-3.2,5.4-4.8,9-3.7c1.7,0.5,3.3,1.3,4.8,2.2
	c1.4,0.8,2.5,1.8,4.3,3.2c0-2.7,0.2-5.1,0-7.4c-1.2-11.2-0.5-22.3,0.5-33.4c0.4-4.6-1.1-8.3-4.8-11.1c-0.3,0.2-0.6,0.3-0.7,0.5
	c-0.9,2.1-2.1,3.9-4.7,3c-1.9-0.6-2.1-2.2-2-3.9c0.2-2.7,1.8-4.1,4.4-4.5c3.6-0.6,5.8,2,8.6,4.2C21.7,17.2,24,11.8,19,6.5
	c-1.6,0.2-1,1.6-1.4,2.4c-1,1.9-2.3,3.5-4.6,2.1c-2-1.2-1.9-3.3-1-5.2c1.5-3.3,6.8-4.7,9.5-1.9c2.9,2.9,4.1,1.4,6-0.7
	C31.6-1.3,37.6-1,39.9,3.7c1.3,2.5,1.6,5.2-0.6,7.4c-1.3,1.3-3.1,1.3-4.4,0.3c-2.7-1.9-1.5-4.4-0.3-6.9c-4.5-0.4-5.6,3-6.8,6
	c-3.1,7.7-3.7,15.8-4.4,23.9C22.9,38.9,23.3,43.5,23.3,48.9z"/>
</svg>
