<?xml version="1.0" encoding="utf-8"?>
<!-- Generator: Adobe Illustrator 25.3.0, SVG Export Plug-In . SVG Version: 6.00 Build 0)  -->
<svg version="1.1" id="Layer_1" xmlns="http://www.w3.org/2000/svg" xmlns:xlink="http://www.w3.org/1999/xlink" x="0px" y="0px"
	 viewBox="0 0 83.9 227.6" style="enable-background:new 0 0 83.9 227.6;" xml:space="preserve">
<path d="M69.8,91c1.6-4.5,4.6-7.8,2.5-12.7c-1.2-2.8,0.4-5.9,2.2-8.5c1.6-2.3,3.6-5.1,6.8-3.7c3.1,1.3,2.8,4.7,2.3,7.5
	c-0.3,1.6-0.9,3.8-2.1,4.5c-5,3-6.6,7.8-8.3,12.8c-1.6,5-3.8,9.8-5.9,15.3c2.9-0.8,5.2-1.6,7.4-2c2-0.3,4.3-0.7,5.6,1.6
	c1.1,1.9-0.1,3.6-1,5.3c-2,3.7-5.4,6.2-9.3,6.8c-7.5,1.3-11.3,5.8-13.2,12.7c-0.6,2.1-2.4,3.8-2.4,6.5c2.7-0.6,5.2-1.3,7.7-1.7
	c1.9-0.3,4-0.2,5,1.7c1.1,1.9,0,3.7-1.2,5.2c-3.7,4.6-9.2,6-14.4,7c-3.7,0.7-5.6,2.8-8,5.3c-10.2,10.7-11.9,23.7-11.7,37.6
	c0.1,10.6,0.9,21.1,2.2,31.6c0.2,1.3,1.6,3.4-0.8,3.7c-1.7,0.2-2.2-1.9-2.5-3.3c-1.5-6.8-3-13.7-2.6-20.7c0.7-15.1-2.6-29.6-5-44.3
	c-0.5-2.9-1.5-4.2-4.7-3.8c-4.3,0.5-7.6-1.7-10.3-4.8c-2.2-2.5-1.4-4.1,1.5-4.9c1.8-0.5,3.9-1.1,5.5-0.7c5.9,1.6,5-1.5,4.2-5.2
	c-0.8-3.7-0.5-7.4-6.7-6.2c-4.9,0.9-8.5-3.5-11.6-7c-2.1-2.4,0.1-3.4,1.9-3.9c4.1-1.1,8.2-0.4,12.8,1.1c-1.1-5.2-1.4-9.8-6.2-12.9
	c-5.2-3.4-6.6-9-6.1-15c0.3-3.6,2.1-4.7,5.3-2.6c4.7,3.2,6.8,7.8,5.9,13.2c-0.8,4.8,0.9,8.3,3.9,12.4c1.8-3.5,3.5-6.6,6.9-8.3
	c3-1.5,4.6-0.7,5.2,2.6c1,6.4-1.2,11.6-5.8,15.7c-2.5,2.2-3,4.2-2.3,7.4c2.3,10.5,4.3,21.1,6.4,31.6c1.8,0.1,1.5-1.3,1.6-2.3
	c1.8-15.6,5.1-30.9,7.5-46.4c0.2-1.5,0.7-3.3,0.2-4.4c-3.5-6.8-5.5-14-7.5-21.3c-0.6-2.2-2-1.7-3.6-1.5c-4.7,0.7-7.9-1.6-10.3-5.4
	c-1.7-2.8-1-4,2.3-4.3c2.9-0.2,5.3,1.5,8.6,1.6c-0.8-4.8-0.1-9.5-7.3-9.5c-4.2,0-7.6-3.2-9.9-6.8c-2.5-3.9-1.5-5.8,3-6.6
	c3.2-0.6,4.7-0.2,10,2.9c0.6-1.9-0.4-3.7-0.5-5.6c-0.1-3.6-0.9-5.7-5.6-5C12.4,54.2,6.7,49,5.6,44.2c-0.8-3.7,2-4,4.4-4.3
	c4.1-0.5,7,2.2,10.5,4.6c0.5-3.5,0.4-5.5-2.9-7.2c-5.7-2.9-8-13-4.8-18.5c1.1-1.9,2.4-2.1,4.2-1.1c4.9,2.6,8.6,10.9,6.6,16.1
	c-1.2,3.1-1.1,5.8,0.4,9.2c1.6-1.9,3-3.8,4.6-5.5c1-1.1,2.3-2.1,4-1.6c1.6,0.6,1.9,2.2,2.1,3.7c0.7,5.7-1.4,10.7-5.6,14.2
	c-4,3.3-3.6,6.5-1.7,10.7c2.2-2,3.3-4.7,5.8-6.2c2.5-1.5,3.9-0.9,4.2,2c0.6,5.4-1,10.2-5,13.8c-2.3,2.1-2.6,4.1-1.8,7
	c2.6,8.8,5,17.6,7.4,26.4c0.4,0,0.9-0.1,1.3-0.1c0.5-11.9,1.1-23.8,1.3-35.7c0.2-15.7-0.2-31.3,1.3-46.9c0.3-2.5-0.2-4.6-1.7-6.8
	C36.9,13,38,5.8,42.1,1.8C45-1,47-0.6,48.4,3.2c1.9,4.9,0.7,9.6-1,14.3c-3.1,8.1-3.1,8.7-2.4,16c0.3,0.1,0.8,0.4,1,0.3
	c1.7-0.9,3.3-3.3,5.4-1.8c1.9,1.3,1.3,3.8,1.3,5.8c0,5-2.1,9.2-5.9,12.4c-2.1,1.8-2.8,3.7-2.7,6.4c0.2,7.5,0.1,15,0.1,22.6
	c2.4,0,1.9-1.8,2.3-2.9c3.1-8.3,5.8-16.8,10.5-24.4c1.5-2.5,1.7-4.6,0.6-7.4c-1.9-4.9-0.8-9.7,2.5-13.8c1.2-1.5,2.8-2.8,4.9-2.2
	c1.8,0.5,2.3,2.4,2.6,4c0.9,4.7,0.4,9-3.2,12.6c-2.8,2.8-4.9,6.1-5.8,10.2c3.2,0.2,6.1,0,8.7,0.7c4.3,1.1,4.9,3.5,2,6.9
	c-3.2,3.8-7.3,5.8-12,4.1c-3.8-1.4-4.2,0.6-5.4,3.3c-6.6,14.7-8.6,30.3-9.8,46.2c-1.1,14.5-5.6,28.5-6.7,44.5
	c2.9-4.4,5.1-7.6,7.2-10.9c4.4-7,7.9-14.6,11.6-22c0.9-1.9,1.1-3.3-0.7-4.9c-2.8-2.6-3.5-6.1-3.4-9.8c0.1-1.7-0.1-3.7,1.8-4.4
	c2.3-0.8,3.3,1.3,4.4,2.7c0.7,0.9,1.2,1.9,2,3.2c3.6-3.4,4.5-7.9,6.4-11.8c0.9-2-0.7-2.6-1.8-3.6c-3.6-3.2-4.6-7.2-4.1-11.8
	c0.2-1.9,0.5-4,2.6-4.5c2.1-0.6,3.6,0.9,4.7,2.4C67.3,86.9,68.2,88.6,69.8,91z M15,20.5c-1,6.1,0.3,10.6,4.4,14.8
	C21.8,28.4,20.9,25.6,15,20.5z M76.4,107.9c-5.5,0.8-10.3,2.6-12.8,8.1C68.8,114.8,74.2,114,76.4,107.9z M26.4,113.4
	c-4.8,3.8-5.6,8.7-5.9,15.4C24.7,123.8,28.3,120.1,26.4,113.4z M64.8,138.4c-7.9,0.6-12.1,3-14.7,8
	C55.5,144.8,60.9,143.9,64.8,138.4z M67.4,59.8c-3.3-1.3-6-1-8.8-0.5c-1.4,0.3-3.2,1.1-3.2,2.7c0,1.9,2.1,2,3.5,2.1
	C62.4,64.4,65.2,63.2,67.4,59.8z M12.2,65.1c2.9,4.6,6.7,6.6,12.9,7.3C21,67.9,19,62.7,12.2,65.1z M43.6,17.9
	c2.3-5.4,3.4-9.6,1.4-14.8C41.5,7.7,40.8,11.9,43.6,17.9z M9.1,43.4c2.4,5,5.5,7.7,11.7,6.2C17.2,46.7,14.8,43.3,9.1,43.4z
	 M63.7,31.4c-3.6,3.9-4,7.5-2.9,11.9C65,39.2,65.1,38.8,63.7,31.4z M49.2,35.9c-5,4.7-5.7,6.9-3.8,11.2C48,43.8,50.2,40.6,49.2,35.9
	z M11,107.9c0.7-5,0.3-8.8-4-11.4C6.3,102.2,6.5,102.8,11,107.9z M5.4,126.2c3.8,3,6.6,5.8,11.5,2.6C13.4,126.2,10.2,125,5.4,126.2z
	 M30.6,39c-3.2,4-4.7,7.5-4.4,12.8C29.2,47.6,32.1,44.7,30.6,39z M62.1,86.6c0,4.5,0.2,7.9,4.4,10.4C66.4,92.8,65.8,89.5,62.1,86.6z
	 M79.7,68.8c-3,3.1-4.5,5.8-3.7,9.8C79.9,76.5,80.7,73.5,79.7,68.8z M11.4,148.9c4.6,3.7,5.4,3.8,9.6,2.4
	C18.5,148.3,15.5,147.7,11.4,148.9z M29.7,71.4c4.3-5.1,4.3-5.1,3.6-9.5C31.1,64.4,30.1,67.2,29.7,71.4z M56.5,122
	c0.1-4.3-1-6.7-3.3-9.3C52.5,116.5,53.6,118.9,56.5,122z M20.7,86.4c1.8,1.9,3.6,3.5,7.3,2C25.1,87,23.1,86.1,20.7,86.4z"/>
</svg>
