<?xml version="1.0" encoding="utf-8"?>
<!-- Generator: Adobe Illustrator 25.3.0, SVG Export Plug-In . SVG Version: 6.00 Build 0)  -->
<svg version="1.1" id="Layer_1" xmlns="http://www.w3.org/2000/svg" xmlns:xlink="http://www.w3.org/1999/xlink" x="0px" y="0px"
	 viewBox="0 0 140.6 250.9" style="enable-background:new 0 0 140.6 250.9;" xml:space="preserve">
<path d="M94.9,32.6c1.1-0.1,2.2-0.1,3.3-0.2c1.8-0.1,4.4-1.1,5.1,1.1c0.8,2.5-2.1,2.8-3.7,3.4c-6.7,2.4-12.5,6.3-18.2,10.3l-0.2,0.1
	c0,0,0.1-0.1,0.1,0c8.4-1.3,16.8-2.3,25.3-1.6c1.2,0.1,2.9,0,3.2,1.6c0.3,2-1.7,2.1-2.9,2.4c-3.5,0.9-7.1,1.3-11.2,3.3
	c2.8,0.3,4.7,0.3,6.5,0.6c1.6,0.3,4.1,0,4.1,2.3c0.1,2.1-2.2,2.5-3.8,3c-1.9,0.6-3.8,1.1-6.2,1.8c1.7,1.1,2.9,1.8,4,2.7
	c1.8,1.4,1.5,3.2-0.5,3.6c-4.4,0.9-7.3,6.3-13.4,2.8c2.3,4,4.9,6.2,5,9.6c0.1,2.2,0.6,4.8-1.8,6c-2.4,1.1-4.2-0.7-5.8-2.3
	c-1.8-1.9-3.2-4.3-6.3-5.4c0.9,4.9,3.5,9.7,1.5,13.8c-2.6,5.5-2.3,10.8-1.6,16.2c3,22,3.6,43.9-0.9,65.8c0,0-0.1-0.1-0.1-0.1
	c3-2.3,4.6-5.7,7-8.4c8-8.9,15.2-18.6,26.2-24.3c6.4-3.3,12.6-2.8,18.5,1.4c1.1,0.8,2.7,1.6,2.5,3.2c-0.2,1.7-2.1,1.8-3.4,2.3
	c-4.6,1.8-9.4,2.8-13.5,5.9c-10.1,7.5-18.7,16.4-27.5,25.3c-11.5,11.5-21.4,23.6-26.6,39.4c-2.3,6.9-6.5,13.1-10,19.6
	c-0.8,1.5-1.6,3.8-3.8,2.7c-2.6-1.3-0.7-3.3,0-4.9c0.3-0.6,0.6-1.1,0.9-1.7c8.9-15.9,15.9-32.7,21.7-50c1.1-3.1,2.8-6.3,2-9.7
	c-2.4-11.1-4.3-22.3-8.6-32.9c-2.2-5.4-4.7-10.6-11.4-11.7c-1-0.2-2.1-0.9-3-1.5c-2.7-1.9-3.3-4.6-2.8-7.6c0.3-2.2,1.9-3.3,4-3.6
	c3.1-0.4,5,1.6,6.7,3.8c0.4,0.5,0.6,1.1,0.8,1.7c4.9,14.1,12.7,27.3,14.8,42.4c0.2,1.1,0.2,2.4,1.8,3.2c2.5-10.2,2.8-20.2,2.4-30.3
	c-0.4-12.1,0.1-24.4-5.2-35.8c-0.5-1-0.2-2.8-2.1-2.8c-3.3,0-3.7-2.7-4.1-5c-1.1-5.5-1.9-11-3-17c-0.6,1-0.9,1.6-1.2,2.1
	c-1.2,2.3-1.5,6.2-4.6,6c-3.6-0.2-3-4.3-3.7-6.9c0-0.2-0.5-0.2-0.8-0.4c-1.8,1.6-3.5,3.2-5.3,4.7c-0.8,0.7-1.8,1.4-3,0.8
	c-1.2-0.6-1.1-1.9-1.1-3c0-3.7,1.7-6.9,3.8-10.8c-5.4,2.2-10.2,3.6-15.1,4c-2,0.2-4.7,1.1-5.6-1.3c-0.9-2.3,1.8-3.5,3.3-4.8
	c3.6-3,7.8-4.9,12-6.8l0.2-0.1c0,0-0.2,0.1-0.2,0.1c-2.1,0-4.1-0.1-6.2-0.1c-4.9-0.2-9.9,0.2-14.7-1.5c-1.9-0.7-3.7-1.7-3-4.1
	c1.2-3.7,0.2-6.2-3.2-8c-1.4-0.8-2.9-1.8-2.6-3.7c0.4-2.2,2.4-2.4,4.2-2.5c4.6-0.3,9.2-0.1,14.9,0.8c-3.5-2.2-6.1-3.7-8.6-5.4
	c-1.3-0.9-3-1.7-2.6-3.6c0.5-2,2.5-2.3,4.2-2.5c4-0.5,7.6,1.1,10.9,3c6.3,3.5,12.4,7.2,18.6,10.8l0.1,0.2c0,0-0.1-0.2-0.1-0.2
	c-4.9-6.2-9-12.8-11.6-20.3c-0.6-1.6-1.4-3.6,0.3-4.9c1.9-1.6,3.6,0.1,5.1,1.2c4,2.9,7.1,6.7,10.1,12.1c0-7.3,0.2-13.3,2.8-18.9
	c0.7-1.4,1.1-3.3,3-3.4c1.6-0.1,1.8,1.6,2.2,2.8c0.3,0.8,0.7,1.4,1.6,1.4c4.7-0.1,5.2,3.3,5.7,6.7c0.4,2.9-0.2,5.8-0.2,8.8
	c3.1-4.5,6.5-8.4,10.6-11.7c1.3-1.1,2.6-2.9,4.5-1.8c1.7,1.1,1,3.1,0.7,4.9C85.7,27,81.7,31.4,79,36.4l-0.2,0.1c0,0,0.2-0.1,0.2-0.1
	c3.4-2.8,6.7-5.8,10.3-8.5c2.1-1.5,4.5-4.3,7.1-2.2C99.6,28.3,95.4,30.3,94.9,32.6C95,32.7,94.9,32.6,94.9,32.6z M75.4,181.1
	c5.3-4.6,9.2-10.5,13.8-15.7c3.3-3.7,6.7-7.3,10.3-10.6c6.9-6.5,14.6-11.3,24.6-11.2c-4.6-2.4-8.9-2.6-13.5-0.2
	c-10.1,5.4-17.1,14.3-24.4,22.7C82.3,170.8,78.3,175.6,75.4,181.1c-0.9,0.4-1,1.1-1,2l-0.3,0l0.2-0.1
	C74.7,182.4,75,181.8,75.4,181.1z M74.6,186.9c7.2-7.5,14.2-15.1,21.6-22.3c7.2-7,15-13.3,24.4-18.1c-4.1,0-7.6,0.9-10.8,3
	c-7.3,4.8-13.6,10.6-19.1,17.4C85.4,173.5,79.2,179.6,74.6,186.9c-1.3,0.4-2,1.4-2.1,2.8l-0.3,0l0.3-0.1
	C73.2,188.7,73.9,187.8,74.6,186.9z M71.2,49c8.9-3,16.4-8.6,24.3-13.3c0.3,0,0.6,0,0.8,0c-0.1-0.2-0.2-0.3-0.2-0.5
	c-0.2,0.2-0.4,0.4-0.6,0.5C85.5,36.7,77.6,41.5,71.2,49z M72,53.9c10.1-0.3,20-1.9,29.4-5.9c0.2,0,0.4-0.1,0.7-0.1
	c-0.1,0-0.2,0-0.3,0c-0.1,0-0.2,0.1-0.3,0.2C91.2,47.7,81.3,48.8,72,53.9z M54.6,43.7c0.7,0.8,1.6,1.2,2.6,0.7
	c1.5-0.7,0.8-1.9,0.5-2.9C55,33,50,26.2,41.6,20.1C44.3,29.9,48.7,37.2,54.6,43.7z M76.6,90.4c1.5-9-3.8-20.8-12.3-26.8
	C66,74,69.9,82.7,76.6,90.4z M84.5,18.6c-10.2,7-14.1,16.6-16.7,26.9C74.2,37.6,82.3,30.6,84.5,18.6z M50.8,47.6
	c-9.2-6.3-17.6-14.3-29.6-14.5C29.8,40.6,40.7,43.4,50.8,47.6z M12.8,44.2c11.4,5.3,24.2,3.1,35.9,6.5C37.3,46,25.6,42.3,12.8,44.2z
	 M61.2,14.1c-4.4,9.4-3.5,18.9-0.1,28.4C64.7,33,63.1,23.5,61.2,14.1z M86.4,82.5c1.4,1.8,2.7,0.7,2.8-1.6c0.2-4.3-4.5-10-10.2-12.2
	c-2.2-0.8-4.5-1.4-7.3-2.3C74.5,74.3,82.1,76.8,86.4,82.5z M51.9,62c-10-0.4-17.8,3-25.4,9.8C36.6,71.4,44.6,68.6,51.9,62z
	 M48.6,56.8c-10-1.3-19.9-3.3-30-0.6C28.6,59.7,38.6,58.6,48.6,56.8z M71.8,58.6c5.6,2.2,23.6,0.8,30.9-2.5
	C91.7,54.8,82,56.2,71.8,58.6z M67.2,96.8c5.4-9.7-0.9-16.7-3.5-24.3C63.8,80.5,64.3,88.5,67.2,96.8z M43.8,79.9
	c5.2-1.8,10.7-9.6,11.6-17C49.9,68.1,44.5,72.2,43.8,79.9z M68.5,20.2c-0.1-1.5-0.2-3.8-2.3-3.4c-2,0.3-1.3,2.6-1.2,4
	c0.4,7.4,1.6,14.7-0.4,22.1C67.4,35.5,69,28.1,68.5,20.2z M58.8,65.4c-4.7,5.3-6.6,12.8-3.3,17.3C58.7,77.2,60.5,71.8,58.8,65.4z
	 M32,52.5c4.4,0.6,8.8,0.7,13.3,0.8c-8.8-1.8-17.5-4.1-26.6-2.4C22.9,53.5,27.5,51.9,32,52.5z M90.3,68.3c-6.2-3.4-13-4.8-19.9-5.3
	C76.8,65.8,83.4,67.6,90.3,68.3z M83,62.3c4.6,1.7,9,4.5,14.8,2.7C93,60.8,88,61.4,83,62.3z M81.5,36.9c6.2-1.6,10.8-3.2,13.3-9.5
	C89.5,29.8,86.3,33.3,81.5,36.9z M52.9,123.1c-0.6-1.8-1.8-2.9-3.6-3.3c-1.1-0.2-1.2,0.7-1.3,1.5c-0.3,1.9,0.6,3.4,2,4.5
	c1,0.8,2.2,1.1,3.7,0.5C53.4,125.2,53.2,124.1,52.9,123.1z M55.5,129.4l0,0.3l0.3-0.1L55.5,129.4z"/>
</svg>
