<?xml version="1.0" encoding="utf-8"?>
<!-- Generator: Adobe Illustrator 25.3.0, SVG Export Plug-In . SVG Version: 6.00 Build 0)  -->
<svg version="1.1" id="Layer_1" xmlns="http://www.w3.org/2000/svg" xmlns:xlink="http://www.w3.org/1999/xlink" x="0px" y="0px"
	 viewBox="0 0 108.8 230.2" style="enable-background:new 0 0 108.8 230.2;" xml:space="preserve">
<g>
	<path d="M99.4,74.3c-1.3-0.8-2.9-1.5-4.5-1.7c-2.7-0.3-3.5-1.2-2-3.7c1.3-2.3,1.5-4.9,0.6-7.3c-1.1-2.8-3.4-4.1-6.4-4.1
		c-2.8,0-4.8,1.5-5.7,4.2c-0.7,2.1-0.7,4.2,1.8,5.1c1.1-0.7,0.9-1.4,0.8-2.1c-0.5-3,0.8-4.7,3.8-4.4c3,0.3,3.7,2.6,3.3,5.2
		c-0.7,3.6-2.7,6.2-6.4,7.2c-4.4,1.2-8.3,3.3-12,5.9c-6.8,4.6-11.2,11.4-15.9,17.9c0.1-13.8,1-27.6-1.5-41.3
		c-0.7-3.9-0.3-5.2,4.3-4.9C76.8,51,94.8,33.4,94.6,16.4c0-2.8-1.1-3.3-3.2-1.6c-2.9,2.2-6.2,3.7-9.5,4.9
		c-7.3,2.7-13.8,6.8-19.6,11.9c5.8-8.2,7.5-17.3,5.6-27.1c-0.3-1.7-0.2-4-2.2-4.5c-1.9-0.5-2.5,1.7-3.4,3
		c-6.6,8.7-12.7,17.6-14.5,29c-2.4-2-4.1-3.6-5.9-5c-2.5-1.9-3.6-4.5-4.1-7.4c-0.5-3.5,1.8-7.2,4.4-6.8c3.7,0.6,3.7,3.3,3.1,6.2
		c0,0.2,0.5,0.4,1,0.9c2.5-1.7,2.6-4,1.2-6.4c-1.5-2.6-3.8-3.7-6.8-3.1c-4.2,0.9-6.5,4.9-5.3,10.3c0.7,3,0.3,3.9-2.9,4.5
		c-4.9,0.9-7.9,4.7-7.8,9c0,3,1.5,5.3,4.3,6.2c2.4,0.8,4.8,0.7,6.1-2c-1.2-1.6-2.2-0.4-3.2-0.4c-3.8,0.1-5.6-2.4-4.2-5.9
		c1.1-2.7,3.2-4.2,6.2-4.4c4.8-0.3,8.2,2.3,10.8,5.9c4,5.5,6,11.8,7.3,18.4c2.6,13,2.6,26.1,2,39.2c0,0.9,0.4,2.2-1.5,2.6
		c-1.1-11.6-8.4-19.1-17.4-25.3c-1.3-0.9-2.3-2.9-4.1-2c-1.9,1-1.4,3.2-1.3,4.9c0.9,9,3.6,17.2,10.3,23.7
		c-8.8-6.4-18.7-9.7-29.4-10.5c-2.4-0.2-5.4-2.6-7-0.1C2.1,86.9,3.9,90,5,92.6c1.3,3.2,3.4,5.9,5.8,8.4c5.7,5.7,12.3,9.8,20.2,11.8
		c6.1,1.6,12.3,2.2,19.1,1.6c-3.8,14-6.1,27.7-5.6,41.7c-0.6-0.1-0.9,0-0.9-0.1c-0.4-0.6-0.7-1.2-1-1.9
		c-4.7-10.8-10.9-20.2-22.2-25.2c-2.7-1.2-3.8-3.9-4-6.6c-0.3-2.9,0.8-5.8,4.1-5.8c3.1,0,4.2,2.3,3.3,5.4c-0.1,0.3,0.5,0.8,0.8,1.3
		c3-3.5,2.6-6.6-1-8.6c-2.1-1.1-4.1-1.1-6.1,0.1c-2.8,1.7-4.5,4.6-3.6,7.2c1.8,5.8-1,6.8-5.5,7.1c-1,1.6-2.3,3.2-3.1,5
		c-1.5,3.2-2,6.6,0.4,9.7c3,4,7.7,3.7,9.8-0.7c-0.1-0.1-0.3-0.3-0.4-0.3c-0.7,0.2-1.3,0.4-2,0.6c-3.8,1-6.8-1.4-6.4-5.3
		c0.5-4.8,4.3-7.8,9-7.1c6.8,1,12,4.8,16.2,9.9c6.9,8.4,10.6,18.3,12.9,28.7c3.8,17,3,34.3,1.7,51.5c-0.2,3.1-1.1,6.1,0,9.4
		c2.2-0.8,1.9-2.5,2.1-3.8c1.9-15.4,2.4-30.8,0.7-46.2c-0.4-3.7,0.4-4.1,3.8-3.7c7.2,0.8,14.4,0.6,21.3-2
		c10.4-3.9,19.4-9.5,23.2-20.8c1.5-4.4,0.7-5-3.7-4.9c-11.9,0.4-23.3,2.1-33.4,9c0.7-0.7,1.3-1.4,2-2.1c6.3-6.3,8.9-14.2,9.7-22.9
		c0.2-1.7-0.1-4.6-2.7-2.8c-7.1,5-15.6,8.7-18.9,17.8c-0.8,2.1-1.7,4.1-2.6,6.1c-0.8-19,2.9-37,10.7-54.1
		C63.3,89.4,70.8,81,81.9,76.3c4.5-1.9,9.1-2,13.8-1c3.8,0.8,6.1,4.5,5,7.7c-1,2.9-2.7,5.2-6.4,3.5c-0.7-0.3-1.4-0.5-1.9,0.2
		c-0.6,1,0,1.7,0.8,2.2c2,1.3,4.1,1.2,6.1,0C104.9,85.8,105,77.7,99.4,74.3z M91.1,151.7c4.2,0,4.2,1.6,2.6,4.4
		c-5.2,9.2-13.6,14-23.4,16.8c-3.6,1-7.4,1.5-11.2,1.3c-3-0.4-7.4,1.2-8.5-1.6c-1.2-3.2,3.1-5.1,5.3-7.3
		C65.6,155.6,77.5,151.7,91.1,151.7z M54.7,162.2c0.8-1,1.7-1.7,3-1.9C56.9,161.2,55.9,161.9,54.7,162.2z M68.2,134.5
		c1.5,11.3-8.3,22.2-19.7,28C51,149.7,56,139.5,68.2,134.5z M53.3,163.6c-1.7,1.9-3.4,3.8-5.9,6.5C47.6,165,51,164.8,53.3,163.6z
		 M33.1,70.7c11.6,6.2,16.9,16.1,18,29.8C39.8,92.9,32.5,84.2,33.1,70.7z M43.6,112.1c-13.4-0.6-24.9-5-33.3-15.8
		c-1.9-2.5-4.9-5.7-3.2-8.5c1.4-2.2,5.3-0.3,8.1,0c13.5,1.1,23.3,8.5,31.7,18.3c1.1,1.3,2.7,2.5,2.6,4.5
		C49.4,111.5,46.5,112.2,43.6,112.1z M52.4,106.7c-1.3,1.5-1.7-0.3-2.3-0.9c-1.4-1.6-2.7-3.2-4.1-4.9c2.2,0.4,3.5,2.2,5.4,3.2
		C52.5,104.7,53.3,105.6,52.4,106.7z M53,41.8c-0.2-0.2-0.4-0.4-0.6-0.5c0.4-0.3,0.8-0.6,1.2-0.9C53.3,40.9,53.1,41.3,53,41.8z
		 M51.9,37C49,29.1,54,16.3,64.8,4.7C67.9,18.5,63.3,29.9,51.9,37z M56.9,41.3c5.5-7.6,12.8-12.9,21.1-17c4.3-2.1,8.8-3.7,13.3-5.5
		C89.2,33,78.7,44.4,65,47.3c-1.6,0.3-3.2,0.3-4.8,0.4c-1.8,0-3.9,0-4.9-1.6C54.2,44.2,55.9,42.7,56.9,41.3z M56.4,97.2
		c0-0.1,0-0.3,0-0.3c0-0.1,0.1-0.1,0.2-0.2C56.6,96.8,56.5,97,56.4,97.2z"/>
	<path d="M102.7,59c-3.4-0.3-6.3,2.3-6.5,5.7c-0.3,3.6,2,6.5,5.3,6.9c3.6,0.4,7-2.2,7.3-5.6C109.1,62.6,106.2,59.3,102.7,59z
		 M102.9,69c-2.2-0.2-3.7-1.1-3.8-3.2c-0.2-2.3,0.9-3.8,3.3-3.8c2-0.1,3.4,1.1,3.7,3C106.4,67.5,104.5,68.3,102.9,69z"/>
	<path d="M26.3,24.5c3.6,0,6-2.5,6.1-6c0-3.6-2.4-6.2-5.8-6.3c-3.4-0.1-6.7,2.8-6.8,6.2C19.7,21.8,22.6,24.5,26.3,24.5z M26.1,14.8
		c2.2,0.1,3.4,1.2,3.5,3.3c0.1,2.1-0.6,3.6-2.9,3.6c-2.2,0.1-4-0.7-4.1-3.2C22.4,16.2,24.1,15.2,26.1,14.8z"/>
	<path d="M12.6,121.7c-0.3-2.4-1.6-4-3.9-4.6c-2.7-0.8-5.3-0.6-7.3,1.8c-1.7,2-1.8,4.3-0.8,6.5c1.5,3.1,4.1,4.4,7.5,3.5l-0.1,0
		c0,0,0,0,0,0c0,0,0,0,0,0C10.9,127.3,13.1,125.3,12.6,121.7z M6,126.4c-2.2-0.1-3.2-1.6-3.2-3.6c0-2.4,1.5-3.5,3.9-3.4
		c2.1,0.1,3.3,1.3,3.3,3.6C9.5,125,8.4,126.5,6,126.4z"/>
</g>
</svg>
