<?xml version="1.0" encoding="utf-8"?>
<!-- Generator: Adobe Illustrator 25.3.0, SVG Export Plug-In . SVG Version: 6.00 Build 0)  -->
<svg version="1.1" id="Layer_1" xmlns="http://www.w3.org/2000/svg" xmlns:xlink="http://www.w3.org/1999/xlink" x="0px" y="0px"
	 viewBox="0 0 63.6 108.8" style="enable-background:new 0 0 63.6 108.8;" xml:space="preserve">
<path d="M31,77.7c1.1-10.4-0.6-19.5-0.8-29.5c-3.3,2.7-6,4.7-9.6,3.8c-1.6-0.4-3-1-4.1-2.3c-3.4-4.1-2.4-10,2.8-16.7
	c-1.4-1.5-3.5-1.4-5.1-2.2c-5.3-2.6-7.4-5.8-6-10c1.8-5.4,6.7-8.3,12-7c2.1,0.5,4.2,1.4,6.4,2.3c1.3-3.3,0.9-6.8,2.6-9.9
	c2.4-4.4,6.3-6.9,10.4-6.2c4.1,0.8,6.7,3.9,7.3,9c0.2,1.9,0,3.8,0,6c4.6-0.9,8.8-1.6,12.1,2.3c6,7.2,3.4,16.9-5.6,19.7
	c-2,0.7-2.6,1.2-1.7,3.3c1,2.2,0.9,4.7,0.3,7.1c-0.8,3.5-3.7,5.2-6.7,6.4c-2.9,1.1-5.2-0.3-7.3-2.3c-1.6-1.6-2.4-3.7-4.1-5.3
	c0.5,16.5,2,32.9-1.3,50.3c4.9-5.7,7.4-11.3,8.8-17.6c0.9-4.4,2.2-8.7,4.7-12.5c1.2-1.8,2.6-3.2,4.5-4.2c4.1-2.1,7.9-2.3,10.4-0.2
	c2.5,2.2,3.3,7.6,1.8,11.3c-1,2.4-2.3,2.6-3.7,0.5c-1.3-1.8-2.3-3.9-3.6-5.7c-2.4-3.2-4.1-3.1-6.2,0.3c-2,3.2-3.1,6.8-3.8,10.3
	c-2.3,11.1-9.4,19.5-15.6,28.4c-0.7,1-1.8,2.2-3.2,1.2c-1.4-0.9-0.6-2.2-0.2-3.5c1.9-7.1,4-14.2,2.4-21.8
	c-1.5-7.2-5.1-12.8-11.9-15.8c-1.4-0.6-3-1.2-4.6-1.3c-2.1-0.1-4.5,0-5.8,1.7C5.3,69.7,7,71.4,7.8,73c1.1,2.1,2.3,4.2,3.5,6.3
	c0.5,0.9,1.6,1.9,0.7,3c-0.8,1-2.1,0.8-3.2,0.7c-3.8-0.4-6.5-2.4-8-6.1c-1.6-4.1-1.1-7.9,2-11.1C7,61.6,14.9,61.4,20.8,65
	C25.4,67.8,27.7,72.4,31,77.7z M58.5,26.6c-0.1-7.3-4.4-10.1-11.2-7.3c-0.9,0.4-1.7,0.9-2.6,1.3c-0.9,0.4-1.8,0.8-2.7-0.1
	c-0.9-0.9-0.4-1.7-0.1-2.6c0.6-1.5,1.3-2.9,1.7-4.5c0.8-3.5-2.1-9.5-5.1-9.9c-4-0.4-5.3,2.9-6.6,5.8c-1.6,3.5-1.4,7.2-0.8,10.9
	c0.2,1.2,0.3,2.3-0.9,3c-1.2,0.6-2.1-0.1-2.9-1c-1.8-2.1-4.2-3.5-6.7-4.6c-3.5-1.5-7.3-0.1-8.9,3.3c-1.3,2.7,0.1,5.4,3.9,7
	c2.8,1.2,5.9,1.5,8.9,1.7c2.3,0.1,3,1.2,1.2,3.1c-1,1-2.2,1.8-3.3,2.9c-1.8,1.8-3.8,3.5-4.8,6c-1.2,3.1,0.2,6.1,3.4,7.4
	c3.4,1.3,4.3-1.4,5.2-3.5c1.1-2.5,1.5-5.2,2.3-7.8c0.4-1.3,1-3.1,2.6-3.2c2-0.1,2.4,1.9,3,3.3c0.8,1.8,1.3,3.6,1.9,5.4
	c0.7,2.1,2.1,3.6,3.6,5.1c2,1.9,4.4,2.2,6.7,1c2.3-1.2,2.6-3.6,2.2-5.9c-0.4-2.4-1.8-4.4-3.7-6.1c-0.9-0.8-1.5-1.7-1-2.9
	c0.7-1.4,1.8-1,2.9-0.7c0.9,0.3,1.9,0.4,2.8,0.6C55.6,34.9,58.6,32.3,58.5,26.6z"/>
</svg>
