<?xml version="1.0" encoding="utf-8"?>
<!-- Generator: Adobe Illustrator 25.3.0, SVG Export Plug-In . SVG Version: 6.00 Build 0)  -->
<svg version="1.1" id="Layer_1" xmlns="http://www.w3.org/2000/svg" xmlns:xlink="http://www.w3.org/1999/xlink" x="0px" y="0px"
	 viewBox="0 0 116.3 251.5" style="enable-background:new 0 0 116.3 251.5;" xml:space="preserve">
<g>
	<path d="M68.2,124.1C68.2,124.2,68.2,124.2,68.2,124.1C68.2,124.2,68.3,124.2,68.2,124.1L68.2,124.1z"/>
	<path d="M105.9,156.4c-12.6-11.1-15-3.3-23.5-4.4c-5.3-8.3-20.8,1.3-20.4-8.7c-0.1-2.4,4.2-5.1-0.3-7.4c-0.5-2.3,3.6-2.4,5.4-1.8
		c22.1,4.5,42.8-29.6,27.9-29c-11.4,1-23,1.8-30.9,11.9c-1.1,2.7-5.4-0.6-2.8-2.3c3.4-2.3-2.9-3-2-6.1c1.9-5-7.8-35.1,1.8-28
		c3.4,6.8,9.6,8.2,16.4,8.6c8.8,0.5,9.1,0.2,8.1-8.3c-0.9-9.7-9.4-11.8-17.9-11.9c18.2-13,5.8-18.2,11.9-28.5
		c7-4.8,12-28.6,1.7-30.5c-8.5,4.2-16.7,8.8-19.1,18.9c-0.8,3.5-2,3.6-5,2.4C40.6,23,21.7,39.2,26.4,56.7C27.2,65.1,10.5,65,10,82.9
		c0.8,6.3,19.2,4.5,22.9,0.1c4.5-3.9,8.4-6.1,13.8-2.7c1.5,0.9,7.5-2.6,4.1,3.8c2.7,2.7,4.1,3.1,2.7,7.8c-6.3-6.3-13.8-3.2-20.9-2.5
		c-8.6,4.9,14.6,20,23,16.3c-2.6,1.8-3.4,3.1-0.7,4.2c2.5,1.2,0.6,4.3-1.6,2.5c-4.2-2.9-11.1,0.3-13.9-4.3
		c-1.1-5.2-13.6-13.5-16.3-7.6c-3,6.8-0.5,13.3,0,19.9c-3.4,5.3-3.3,11.1-2.4,17c0.2,1.4,1,2.9-0.3,4.2c-6.3,6.5-5.2,14.8-5.3,22.7
		c1,7.8,21.3-2.9,23.2-8.4c3.2-8,12.9-1.4,17.1-8.2c5.7,6.7-19.7,11.1-23.6,16.5c-6.2,5.5,13.6,7.7,13.1,11.6
		c-1,6.4,10.7,9.8,7.8,11.6c-5.8,1.5,3.2,3.9-1.5,6.9c-5.6-5.9-26.7-28.6-28.9-11c-4,12.6,2.7,23.7,15.1,24.8
		c3.2,0.3,14.3-2.3,10.5,3.7c-4.1,8.2-3.8,17.1-9.3,25.4c-3.6,7.2,9.3,4.4,9.5-1.1c1.3-5,0.8-11,6.4-14.1
		c-2.2-5.1-2.6-15.1,3.6-19.6c-4.8-2.4-2.4-5.7-1.7-9c1.8,0.2,2.3,1.3,2.6,2.3c1.4,5.9,15.7,17.5,19.2,10.6c1.1-7.8,2-15.6-2-22.9
		c-0.6-1-1.6-2.2,0.1-2.6c6.4-0.9,5.5-10,11.6-9.9C93.9,170.9,109.2,162.6,105.9,156.4z M65,120.2c0.8-5.5,29-15.6,28.2-9.5
		c0.9,0.3,2.2-0.7,3.5-0.9c4.1,17.8-45.3,31.8-28.4,14.4C65.3,126.4,62.9,122.8,65,120.2z M64.7,82c-1.2-1.3-3.2-2.9-1.4-5
		c5.7-1.5,11.7,6.6,17.3,8.6C74.8,86.3,69,86.5,64.7,82z M70.7,72.5c7.5,0.2,10.6,2.5,12,8.4C85.9,89.5,57,70.8,70.7,72.5z
		 M82.9,16.3c4.5,7.6-1.4,27.9-11.3,22.5C69.3,34.1,80.8,22.3,82.9,16.3z M63.7,30.2c2.5-8.6,8.7-13.3,17.5-16.7
		C79.2,19.4,65.1,47.6,63.7,30.2z M26.7,64c3.1-0.4,6.2,5,3.2,6.7c-5.4,3.2-10.5,7.7-16.6,9.4C13.2,73.7,20.5,65.1,26.7,64z
		 M35,78.5c-5.8,6-13.5,6.2-21.4,4.5c5-4.4,11-6.5,16.4-10.5C32.8,69.2,38.1,75.9,35,78.5z M53.5,97.6C49,95,44,93.9,38.8,91.9
		C47.4,90.1,49.6,90.9,53.5,97.6z M35,92.8c7.3,1.8,14.3,3,19.9,8.6C47.2,104.2,38.7,100.5,35,92.8z M52.2,78.1
		c-29.5,0.6-33-52.5,0.8-45.4C63.4,36,80.9,43,74.7,56.8C69.7,70.3,39,77.1,37.2,58.8C35.7,46.3,57.8,37.4,63,49.6
		c2.1,7.2-9.3,14.2-12.8,5.1c-2.4,10.8,13.8,6.6,15.1-0.2c1.6-5.5-1.2-11.6-6.5-12.4C24,35.9,29.6,84.7,63.3,69.8
		C62.1,75,57.6,78.2,52.2,78.1z M35.9,204.9c-10.5-1.5-17-15.6-9.7-23.4c5.5,9.5,11.6,15.7,20.4,22.5
		C43,204.7,39.5,205.6,35.9,204.9z M47.9,200.7c-7.2-4.6-14-9.7-16.9-18.4C35,183.6,57,198.9,47.9,200.7z M35.5,106.4
		c3.8,2.8,0.6,5.2-2.8,5.6c-3.5-0.3-5-6.7-6.1-10C30.3,102.9,33.2,104.1,35.5,106.4z M24.6,103.9c2.3,0.6,3.1,5.3,4.6,6.9
		C32,118,19.6,118.7,24.6,103.9z M17.9,162.6c-1.3-8.8,0-25.7,11.3-14.3C25.4,153.3,22.8,158.2,17.9,162.6z M37.2,153.6
		c-3.6,6-9.1,8.8-16.2,9.5c3.9-5.2,6.9-16,15.1-13.1C38.2,151.1,38.2,151.9,37.2,153.6z M43.1,135.1c8.6,5.2,15.2-12,4.1-14.4
		c-28.8-5.7-28.6,34.9,8.6,21.6c-2.1,11.6-23.5,5.8-29.2,0.1c-9.9-10.4-1.3-27.8,12-29.3c35.6-3.7,26.3,36.4-4.1,28.3
		c-18.5-10.3,12.5-30.2,16.6-12.4c-0.9,5.2-7.3,6.7-9.1,1.2c-0.3-0.7-0.2-1.7-1.5-1.9C38.5,131.8,41.1,133.4,43.1,135.1z
		 M44.3,168.7c-1.2,3.4-6,0.4-8-1.8C39,166.6,43.9,165.4,44.3,168.7z M36.3,164.6c3.2-2.4,6.4-3.3,9.3-4.6
		C45.6,165.3,45.1,165.6,36.3,164.6z M74.8,205.1c-7.6-0.3-13.6-7.9-16.7-14.6c-1.6-3.6,0.8-3.7,2.5-3.6
		C68.8,186.9,74.1,198.9,74.8,205.1z M76.3,199.5c-2.7-3.5-3.6-8-7-11.1C65.4,179.5,79.8,182.1,76.3,199.5z M83.6,169.7
		c-3.2,8.8-16.1,13.9-24.6,9.6c-14-8.6,1.2-27,13.5-17.8c14,4.7-12,19.8-6.9,6.7c0.5-0.8,1.3-1.8-0.1-2.4
		c-6.4,1.3-3.6,11.6,2.7,10.3c8.9,0.1,15.4-13.1,5.4-17.3c-18.9-10.7-32.2,16.3-12,24.8c-19.9,3.1-18.3-24.6-4.6-30.1
		C69.2,146.8,89.8,151.7,83.6,169.7z M90.8,168.1c-7,2.2-4.5-4.3-2.2-7.7c-2.3,1.4-2.3-0.4-2.7-1.8c-2.3-10.9,26.3-0.9,11.3,0.8
		c1.7,0.5,3.6-0.6,5.8,1.1C99.2,163.8,95.9,167.4,90.8,168.1z"/>
</g>
</svg>
