<?xml version="1.0" encoding="utf-8"?>
<!-- Generator: Adobe Illustrator 25.3.0, SVG Export Plug-In . SVG Version: 6.00 Build 0)  -->
<svg version="1.1" id="Layer_1" xmlns="http://www.w3.org/2000/svg" xmlns:xlink="http://www.w3.org/1999/xlink" x="0px" y="0px"
	 viewBox="0 0 69.6 108.5" style="enable-background:new 0 0 69.6 108.5;" xml:space="preserve">
<path d="M48.7,27.2c3.6-0.2,6.6-0.6,9.6,0.3c6.3,1.9,10.7,7.2,11.2,13.8c0.6,8-2.4,13.1-9,16.2c-6.2,2.9-12.8,3.5-19.4,4.1
	c-3.5,0.3-4.4,1.8-3.8,4.8c2.2,12.6,0.1,25.1-1.1,37.6c0,0.2,0,0.4,0,0.5c-0.2,1.8,0,4.1-2.6,3.9c-2.4-0.3-1.5-2.5-1.3-4
	c0.8-7,1.7-13.9,1.7-21c0-5.6,0-11.2-0.6-16.7c-0.3-2.9-1.2-4.9-5.1-4.5c-7.2,0.9-13.9-1.4-20.5-3.8C3,56.8-0.2,51.9,0,47.2
	c0.2-5.3,3.8-9.5,9.8-11.6c2.6-0.9,6.5,0.2,7.8-2.4c1.1-2.3,0.1-5.6,0.1-8.5c0.1-8.4,2.1-16.1,9-21.7c7.1-5.8,17.6-3,20.8,5.7
	c1.4,3.9,2.6,7.8,1.7,12.1C48.7,22.8,48.8,24.8,48.7,27.2z M40,56.3c6.5,0.8,14.6-0.4,19-2.8c5.2-2.8,7.6-8.3,6.2-13.6
	c-1.7-7-9.9-11.2-16.1-7.9c-1.4,0.7-3,2.5-4.9,0.8c-1.8-1.7-0.1-3.4,0.3-5c0.8-3.9,1-7.8,0.8-11.8C45,11,41.8,6.1,37.6,4.6
	c-4.2-1.5-7.9,0.2-11.5,4.8c-1.5,1.9-2.5,3.9-3.1,6.2c-1.7,6.2-1.5,12.5-0.7,18.8c0.5,4-0.9,4.8-4.3,4.5c-2.1-0.2-4.4-0.2-6.5,0.2
	c-3.3,0.7-5.9,2.8-6.8,6.2c-0.7,2.8-0.1,5.3,2.4,7.2c7.1,5.2,15.1,5.5,23.7,5.3c-1.5-3.6-4.2-3.9-6.8-4.5c-1.6-0.3-3.6-0.5-3.1-2.7
	c0.6-2.3,2.6-1.1,4.1-1.1c2.5,0,4.4,2.2,7,1.9c0.6-1.9,0.1-3.4-0.1-5c-0.3-1.8-1.5-4.6,1-5.1c3.2-0.6,2.3,2.9,3,4.7
	c0.7,1.7,0.1,3.9,1.5,5.8c2.9-1.7,5.6-3.9,9.1-4.5c1.6-0.3,3.5-0.8,4.2,1.1c0.9,2.2-1.1,2.7-2.6,3.3C45.4,52.7,42.8,53.9,40,56.3z"
	/>
</svg>
