<?xml version="1.0" encoding="utf-8"?>
<!-- Generator: Adobe Illustrator 25.3.0, SVG Export Plug-In . SVG Version: 6.00 Build 0)  -->
<svg version="1.1" id="Layer_1" xmlns="http://www.w3.org/2000/svg" xmlns:xlink="http://www.w3.org/1999/xlink" x="0px" y="0px"
	 viewBox="0 0 212.4 252.2" style="enable-background:new 0 0 212.4 252.2;" xml:space="preserve">
<g>
	<path d="M94.3,94.4c-0.5-2.7,0.1-4.9,2.4-6.3c3-1.8,5.1-4.5,7.6-6.9c8.3-8,12.6-17.5,12.6-29c0-3.8,0.5-7.6,1-11.3
		c0.2-1.3,0.6-3.5-1.4-4.2c-0.9-0.3-2.3-0.4-3,0.1c-1.6,1.2-0.6,3-0.4,4.5c0.2,1.2,0.7,2.4,1.2,3.6c1,2.2,1.4,4.4,1.2,6.7
		c-0.4,5.9-1.7,11.7-4.4,17c-2.7,5.4-6.9,9.8-11.4,14.2c-0.3-1.3,0.2-1.7,0.5-2.1c5.4-8.4,8.8-17.4,9.4-27.5
		c0.5-8.1-2-16.4,1.6-24.3c0.1-0.2,0-0.5,0.1-0.7c0-0.9,0.2-1.9-0.8-2.5c-1.1-0.7-1.6,0.1-2.1,0.9c-0.3,0.5-0.8,0.8-1.4,0.4
		c-0.8-0.6-1.7-1.5-2.7-0.4c-1,1.2-0.3,2.5,0.2,3.6c1.4,2.9,2.8,5.9,3.1,9.1c1.8,15.4-2.2,29.5-10.4,42.5c-0.5,0.7-0.9,1.6-2.1,1.4
		c0-0.4,0-0.7,0-1c0.1-0.5,0.1-0.9,0.3-1.4c5.1-14.3,5.1-28.7,0.9-43.2c-1.3-4.6-2.8-9.3-4.2-13.9c-1.1-3.6,0-7.4-1.3-10.9
		c-0.4-1.2-0.5-2.7-2-2.9c-1.3-0.2-1.5,1.1-1.8,2.1c-0.1,0.5-0.6,0.7-1.1,0.6c-1.1-0.2-2.2-0.5-2.7,0.7c-0.6,1.4,0.5,2.5,1.5,3.2
		c3.3,2.8,5.1,6.4,6.5,10.4c1,3,1.9,5.9,2.9,8.9c5.2,15.2,3.7,30.2-0.8,45.2c-0.5,1.6-1,3.2-2.3,4.5c-0.7-1.1-0.4-2.1-0.3-2.9
		c2-14-1.2-27-7.3-39.5c-2.6-5.3-5.1-10.6-6.2-16.4c-0.3-1.6-0.3-7.2-4-1.6c-0.2,0.2-0.8,0.2-1.3,0.2c-2.6,0.1-2.4,1.3-1.1,2.8
		c1.8,2.1,4.4,3.7,5.6,6.1C82.3,45.6,88.7,56.7,89,69.9c0.1,4.7,1,9.4-0.9,14c-0.8-3.8-2.1-7.3-3.4-10.9c-3.3-9-9-16.6-14.5-24.2
		c-3.9-5.4-8-10.7-9.5-17.5c-0.2-1-0.7-2.1-1.4-2.8c-1-0.9-2.2-4.8-3.5-0.1c-0.1,0.3-0.7,0.7-1,0.7c-4.8-0.2-2.1,1.8-0.9,3.2
		c2.5,3.1,6.7,4.4,8.8,8.1c2.1,3.7,4.7,7.1,7.3,10.5c5.3,6.9,9.6,14.4,12.7,22.5c1.8,4.7,3.3,9.4,3.7,14.6c-1.8-0.1-2.6-1.1-3.5-2
		C72.4,75.7,63.1,64.5,55.6,51.8c-2.1-3.7-3.6-7.4-3.9-11.7c-0.1-1.4-0.4-2.7-0.9-4c-0.4-1.1-1.6-1.8-2.4-0.6
		c-0.9,1.2-1.8,1.5-3.1,1.6c-1.5,0.1-1.5,1.2-0.9,2.3C45.2,40.6,46,42,47,43c4,4.4,6.8,9.6,9.9,14.6c5.2,8.4,11.1,16.1,18,23.1
		c2.7,2.8,5.3,5.7,8,8.6c-9.9-2.3-18.3-6.9-25.6-13.7c-4-3.7-7.1-8.2-10.2-12.7c-4.2-6.2-9.2-12.2-9.5-20.4
		c-0.1-1.3-0.7-2.7-1.3-3.9c-0.4-0.8-0.9-1.8-2-1.5c-0.9,0.2-1,1.2-1.1,2c-0.1,0.7,0.6,1.9-0.8,1.8c-1.2-0.1-2.6-1.3-3.1,0.6
		c-0.4,1.4,0.8,2.6,1.8,3.6c5,4.8,9.5,9.9,12.9,16.1c1,1.8,2,3.6,3.1,5.4C54.4,78,64.9,85.3,77.2,90.3c1.1,0.5,2.7,0.4,3.4,2
		c-13.1,0.3-24.2-3.6-33.3-12.9c-6.6-6.8-14.1-13-18.2-22c-0.5-1.1-1.5-2.7-2.7-2.2c-1.5,0.5-3.1,1.7-3.8,3c-0.8,1.4,1,2.4,2,3.2
		c4.6,3.5,9.4,6.6,13.1,11.2c2.2,2.7,4.7,5,7.2,7.5c7.3,7.1,15.5,12.7,26,13.6c1.9,0.2,3.7,0.7,5.5,1.1c-6.9,2.2-13.7,1.5-20.3-0.9
		c-6.5-2.3-11.8-6.6-17.2-10.6C31.3,77.5,23.3,72,19.3,62.6c-0.5-1.2-1.5-2.3-2.6-3.2c-3.8-3.2-3.2,4.5-6.6,2.8
		c-0.2-0.1-0.1,2.3,0.9,3.1c0.9,0.8,2.1,1.4,3.1,2.1c2.7,1.8,6,2.6,8.4,4.8c7.3,6.9,15.3,12.9,23.6,18.4C53,95.3,60.3,98.7,69,98
		c3.3-0.2,6.7-0.5,10.3-0.8c-0.5,1.6-1.6,1.8-2.5,2.2c-8.1,3.3-16.4,4.4-25.1,3.2c-10.3-1.4-18-6.6-22.9-15.9
		c-1-1.9-1.6-4.1-3.2-5.7c-0.7-0.7-1.6-1.6-2.6-0.5c-3.7,3.7-2.9,7,2.2,9.2c1.6,0.7,3,1.6,4.2,2.9c7.4,8,16.4,12.5,27.5,12.5
		c8.9,0,17.3-1.3,25.8-6.5c-4.3,7.8-10.1,12-17.7,13.4c-10.6,2-21,2.6-28-8.2c-0.3-0.5-0.7-1-1.2-1.3c-1.6-1-3.6-4.3-4.1,0.8
		c0,0.4-0.5,0.8-0.8,1c-3.7,1.8-1.1,3.1,0.5,3.9c4.5,2.4,9.3,4.1,14.2,5.4c14.4,4,31.4,1.1,39.9-15.1c1.3-2.4,2.2-2,3.7-0.2
		c3.9,4.8,5.5,10.6,7.1,16.4c5.4,19.2,6.3,38.9,5.3,58.7c-0.7,13.6-1.6,27.2-4.2,41.2c-1.1-3.1-1.1-5.7-1.4-8.3
		c-2.7-19.8-11.6-36.6-25.2-51c-1.2-1.3-2.6-2.4-2.3-4.4c1.2-7.1-1.8-13.1-5.1-19c-0.7-1.2-1.2-2.5-2.9-2.7c-0.7-0.1-1.2,0.4-1.3,1
		c-0.2,1.5,0.9,2.2,1.8,3.2c2,2.3,3.9,4.7,4,7.9c-3.1-5.2-8.2-8.4-12.9-11.9c-0.8-0.6-2.1-1.6-2.9-0.1c-0.7,1.2,0.5,1.8,1.4,2.4
		c0.7,0.4,1.5,0.7,2.1,1.1c3.9,2.4,7.6,5,10,9.1c-0.6,0.3-1.1,0.1-1.5-0.3c-4.2-4.9-9.8-8-15.5-10.8c-1.1-0.5-2.4-1.8-3.2-0.2
		c-0.8,1.8,1,2.3,2.3,2.7c2.5,0.7,4.8,1.7,6.9,3.1c4.6,3,8.7,6.6,11.6,11.8c-1.8-0.3-2.5-1.2-3.3-1.9c-4.3-3.5-8.5-7.1-12.8-10.5
		c-1.1-0.9-2.8-2.3-3.7-0.2c-0.8,2-2.2,4.7,1.2,6.2c0.4,0.2,1,1.2,1,1.3c-2.9,3.4,1,4.3,2.3,6c-1.1,0.6-3-1.3-3.5,0.6
		c-0.4,1.6,1.5,2.1,2.6,2.8c5.5,3.4,11.4,5,17.8,3.2c1.3-0.4,2.2-0.2,3.1,0.9c4.1,5.2,8.7,10.2,12.4,15.8c6,9,8.3,19.4,10.5,29.8
		c1.7,8.3,2.5,16.7,3.5,25c0.2,1.5,0.2,3.1,2.4,3.2c2.1,0.1,2.8-1.3,3.1-3c0.2-1.1,0.5-2.3,0.6-3.4c1.5-12.6,3.1-25.2,4-37.9
		c1.5-23.4,1.1-46.6-4.6-69.5C97.6,109.2,95.6,101.9,94.3,94.4z M62.4,142.1c0,0,0.1-0.1,0.1-0.1c0,0,0.1,0.1,0.1,0.1L62.4,142.1z
		 M47.8,149.2c0.1,0.2,0.3,0.5,0.4,0.7C47.9,149.8,47.8,149.5,47.8,149.2z M48.4,150c0.4,0,0.6,0.2,0.6,0.6
		C48.6,150.6,48.4,150.4,48.4,150z M49.8,151.6c-0.4-0.2-0.8-0.3-0.8-0.9c0.5-0.1,0.8,0.1,1,0.5C50.1,151.3,49.9,151.6,49.8,151.6z
		 M53,150.1c-0.3-0.3-0.6-0.6-0.8-0.9c0.1,0,0.2,0,0.3,0C53,149.4,53.2,149.7,53,150.1z M53.1,150.2c0.6-0.3,1.1-0.2,1.4,0.5
		C53.9,150.7,53.5,150.5,53.1,150.2z M54.6,150.7c0.5,0.1,1.1,0.1,1.6,0.2C55.6,151.1,55,151.5,54.6,150.7z M56.2,151.1l0.1-0.2
		c0,0,0.1,0,0.1,0L56.2,151.1z M45.8,138.8c3.7,1.6,10.3,6.7,13.8,10.7C55.5,149.2,49.4,144.6,45.8,138.8z M65.1,142.2
		c0-0.1-0.1-0.3-0.1-0.4c0.1,0.1,0.2,0.1,0.4,0.2C65.3,142,65.2,142.1,65.1,142.2z"/>
	<path d="M202.2,93.7c-0.8-1.5-0.5-3.8-2.3-4.4c-1.7-0.6-2.5,1.2-3.4,2.4c-0.5,0.6-0.9,1.3-1.4,2c-4.8,7.3-11.9,11.5-20.1,13.7
		c-4.9,1.3-9.9,0.8-12.4-1c0.2-0.1,0.3-0.4,0.5-0.4c16.6-0.4,25.5-12.4,35.3-23.1c0.9-0.9-0.8-6.1-1.9-6.3c-1.7-0.2-2,1.2-2.6,2.3
		c-1.6,3-1.6,6.6-3.6,9.3c-5.7,7.9-13,13.3-22.8,15c-1.8,0.3-3.7,0.8-5.8,0.4c0.8-1.5,2-1.7,3-2.2c9.1-4.7,16.9-10.8,22.5-19.4
		c2-3.1,4.4-5.7,7.6-7.8c1.8-1.2,6.9-2.7,1.7-6.4c-0.7-0.5-0.1-2.5-1.8-2.4c-1.6,0.1-2.2,1.7-2.6,3c-3.3,9.7-9.3,17.4-17,23.9
		c-4.4,3.7-9.5,6.5-15.2,8.4c0.1-0.6,0.5-0.8,0.9-1c8.7-5.6,13.7-14.7,20.6-22c0.8-0.9,2.1-2.7,1-3.2c-1.5-0.7-2.4-2.8-4.2-2.4
		c-1.5,0.4-1.5,2.2-1.7,3.5c-0.3,2-0.1,4.2-1.3,6c-2.3,3.7-5.2,7-8.2,10.1c-2,2.2-4.2,4.4-7.3,5.3c2.9-4.8,5.4-9.7,7.6-14.9
		c3.6-8.4,4.9-17.6,9.5-25.6c0.5-0.8,0.3-2.6-1.3-1.7c-1.8,0.9-2.2,0-2.8-1.2c-0.3-0.5-0.6-1-1.3-0.9c-0.8,0.2-1.1,0.8-1.1,1.6
		c0,1.5-0.2,3.1,0.1,4.5c0.8,3,0.4,5.9-0.4,8.9c-1.8,6.5-4,13-6.9,19.1c-1.9,4-3.9,8.3-8.3,12c2.9-7.2,5.2-13.6,7-20
		c1.6-5.8,3-11.5,6.3-16.7c3.7-5.7-3.8-2-4.2-4.5c-0.1-0.7-1.2-1.2-2-0.5c-0.4,0.4-0.8,1.2-0.8,1.8c0,1.5,0.2,3,0.4,4.4
		c0.3,2,1.1,3.9,0.4,6.1c-1.9,6.4-3.5,12.9-5.5,19.3c-1,3.2-2.6,6.2-3.9,9.3c-1.6-4.4-1.7-8.6-1.1-12.8c0.9-7.7,3.3-15.1,4.6-22.6
		c0.7-3.9,2.1-7.6,5.6-10c1.3-0.9,2-2.2,2.5-3.7c0.2-0.7,0.6-1.3,0-1.9c-0.7-0.7-1.3-0.1-1.8,0.2c-1.2,0.7-2.1,0.8-2.6-0.9
		c-0.2-0.7-0.6-1.3-1.5-1.2c-0.8,0.1-1.1,0.8-1.3,1.5c-0.3,1.6-0.7,3.2-0.6,4.8c0.2,4.2-1,8-2.2,11.8c-3.1,10.3-5.5,20.7-4.5,31.6
		c0.1,0.9,0.4,1.9-0.6,2.5c-0.6-0.2-0.8-0.8-1-1.3c-3.6-8.1-4.4-16.6-4.3-25.3c0.1-3.8,0.7-7.3,3.6-10.1c0.8-0.8,1.4-1.9,1.9-2.9
		c0.4-0.8,0.7-1.8,0-2.6c-0.7-0.7-1.5-0.5-2.2-0.1c-0.8,0.5-1.5,0.7-1.9-0.4c-0.4-0.9-0.9-1.8-2-1.4c-1.1,0.4-1.1,1.7-1,2.7
		c0.3,4.3-0.1,8.5-0.3,12.8c-0.4,8.7,0,17.2,3.3,25.5c0.6,1.5,2.2,2.8,1.9,4.8c-1.1,0.1-1.5-0.4-2-0.9c-6.8-7.3-9.8-16.3-11.5-25.8
		c-1-5.8-1.5-11.8,3.7-16.3c0.5-0.4,0.8-1.1,1.1-1.7c2.6-4.5-5-1.5-3.8-5.1c0.1-0.3-0.9-0.7-1.4-0.3c-0.4,0.3-0.9,0.8-1,1.3
		c-0.4,1.1-0.8,2.2-0.8,3.3c0.1,4.6-0.5,9.2-0.3,13.8c0.5,11.2,3.8,21.8,11.3,30.5c0.8,0.9,1.8,1.7,1.7,3.2
		c-2.1,0.1-3.7-0.8-5.4-1.5c-5-2.1-9.1-5.2-11.8-10.1c-2-3.7-0.3-6.9,0.7-10.2c0.5-1.6,0-2.9-2.1-2.2c-0.6,0.2-1.1,0.2-1.6-0.1
		c-3-1.7-2.9,0.4-2.6,2.3c0.3,1.7,1.1,3.3,1.5,4.9c1.8,7.5,5.9,13.2,12.9,16.6c2.9,1.4,6,2.4,9.2,2.8c2.3,0.3,2.6,1.3,1.7,3.3
		c-2.4,5.3-4.7,10.5-7,15.8c-16.2,37.4-22.9,76.8-24.9,117.2c-0.1,1.4,0,2.6,1.8,2.8c1.7,0.2,2.2-0.9,2.3-2.3
		c0.3-3.3,0.7-6.7,0.8-10c0.5-24.3,4.6-48,10.6-71.4c4.4-17.5,10.4-34.2,21.5-48.8c1.7-2.3,2.7-2.8,4.9-0.5c3.7,4,8.5,6.3,13.9,7.2
		c4.8,0.8,9.7,0.3,14.4,1.4c4.7,1.1,1.7-4.4,4.4-5.2c0.6-0.2,0.8-1.2,0.5-1.9c-0.6-1.2-1.7-1.1-2.7-0.8c-1.9,0.8-3.9,1.6-5.7,2.6
		c-6.4,3.6-16.7,1.8-21.7-3.8c0.5-0.4,1.1-0.2,1.6,0c9.2,3.3,17.5,0.9,25.4-4c4.5-2.8,8.6-6.2,13.5-8.3
		C201.3,95.9,202.9,94.9,202.2,93.7z"/>
</g>
</svg>
