<?xml version="1.0" encoding="utf-8"?>
<!-- Generator: Adobe Illustrator 25.3.0, SVG Export Plug-In . SVG Version: 6.00 Build 0)  -->
<svg version="1.1" id="Layer_1" xmlns="http://www.w3.org/2000/svg" xmlns:xlink="http://www.w3.org/1999/xlink" x="0px" y="0px"
	 viewBox="0 0 41.2 109.9" style="enable-background:new 0 0 41.2 109.9;" xml:space="preserve">
<path d="M22.1,85.9c1.8-5.8,2.7-11.7,4.9-17.3c1.8-4.6,4.2-8.9,8.1-12.2c2.7-2.3,3.5-1.9,4.4,1.5c3.7,13.2,1.4,25.3-5.9,36.7
	c-2.8,4.4-5.5,8.9-9.1,12.7c-3.2,3.3-4.6,3.4-8.3,0.7C5,99.9,0.3,88.7,0,75.2c-0.1-4.3,0.3-8.6,0.8-12.9c0.1-1.1-0.4-2.6,1.2-3.1
	c1.5-0.5,2.6,0.7,3.4,1.6c4.6,5.1,7.7,10.9,9.3,17.6c1.2,4.7,2.3,9.4,3.8,14.1c-0.2-18.2-0.5-36.4-1.6-54.6c-0.1-1,0.2-2.1-1.2-2.6
	c-7.7-3-9.5-9.8-10.2-16.9C5.1,14.2,5.4,10,5.4,5.8c0-1.2,0-2.5,1.2-3.2C7.9,1.9,8.9,3,9.7,3.8c2.1,2.2,3.2,1.5,4.5-0.9
	c1.9-3.7,2.6-3.8,5-0.2c1.9,2.8,3.4,4,6.3,1.3c1.9-1.8,3.2-0.9,3.4,1.6c0.7,7.3,1.2,14.6-1.4,21.7c-1.1,2.8-2.3,5.6-5,7.2
	c-1.7,1-2,2.3-1.9,4.1C21.1,54.3,21.8,70.1,22.1,85.9z M25.8,8.4c-4.8,2.8-4.8,2.8-7.4-1.1c-0.4-0.6-0.7-1.6-1.5-1.4
	c-0.9,0.2-1.1,1.2-1.5,2c-1.8,3.9-2.1,3.9-4.9,0.9c-0.5-0.5-0.8-1.3-2.1-1c-1,8,0.2,15.6,5.9,21.7c3.7,3.9,6.5,3.3,9-1.4
	C26.6,22.1,25.8,15.5,25.8,8.4z M23.6,102.2c11.5-14,17.3-28.9,12.1-41.8C25.6,72.8,27.1,88.3,23.6,102.2z M4.3,65.5
	c-2.1,14.7-0.4,28.1,12.4,37.9C13.9,90.3,12.7,76.7,4.3,65.5z"/>
</svg>
