<?xml version="1.0" encoding="utf-8"?>
<!-- Generator: Adobe Illustrator 25.3.0, SVG Export Plug-In . SVG Version: 6.00 Build 0)  -->
<svg version="1.1" id="Layer_1" xmlns="http://www.w3.org/2000/svg" xmlns:xlink="http://www.w3.org/1999/xlink" x="0px" y="0px"
	 viewBox="0 0 58.6 110.5" style="enable-background:new 0 0 58.6 110.5;" xml:space="preserve">
<path d="M42.4,52.1c-1.8-3.3-4-3.6-6.5-1.7c-4.7,3.6-8.8,7.7-8.7,14.4c0.1,5.1-0.1,10.3-0.2,15.4c-0.1,4.3,0.7,8.5,1.1,12.8
	c1.8,0.1,1.7-1.5,2.1-2.3c1.7-3.8,4.2-6.8,7.6-9.1c3.5-2.4,7.9-1.7,9.9,1.3c2.7,4.1,2.2,10.8-1,13c-1.5,1-2.9,1-4.4,0.1
	c-1.4-1-2-2.4-1.8-4.1c0.2-1.9,1.4-2.6,3.1-3.1c0.8-0.2,1.6,0.7,2.4-0.1c-0.2-2.2-0.4-4.6-2.8-5.3c-2.3-0.7-4.2,0.9-5.6,2.5
	c-5.3,6.2-9.1,12.9-6.1,21.4c0.4,1.3,0.9,2.8-0.8,3.2c-1.7,0.5-2-1.2-2.4-2.4c-1.5-4.8-2.4-9.7-3-14.6c-0.5-4-1.5-7.8-2.6-11.7
	c-1.3-4.5-4.3-7.7-8-10.2c-3.4-2.3-7.3-1.8-9.6,1.1c-1.7,2.1-2.1,4.3,0.3,6.1c0.9,0,0.9-0.4,1-0.8c0.4-1.6,1-3.1,3-3
	c1.7,0.1,2.3,1.5,2.8,2.9c0.6,1.9-0.1,3.4-1.8,4.3c-2.4,1.3-4.9,1.3-7.3-0.3c-2.5-1.7-3.5-4.1-2.8-7.1c1.3-5.8,7.7-9.1,13.3-7.2
	c3.9,1.4,6.7,4.2,9.7,7.7c0.1-11.9,2.9-22.8,4.3-33.9c0.6-4.9-2-9.1-7-11.5c-0.8,1-0.2,2.1-0.4,3.2c-0.5,2.6-2.4,3.7-4.7,3.3
	c-2.4-0.5-3.3-2.4-2.6-5c0.7-2.5,2.4-3.9,4.7-4.5c3.5-1,6.4,0.3,9,2.5c1.4,1.2,1.9,3.2,3.9,4.4c3.4-7.2,6.9-14.3,10.1-21.5
	c1.7-4,0.8-5.9-3-8.6c-0.1,0.4-0.2,0.8-0.2,1.2c-0.3,2.1-1.6,2.9-3.6,2.8c-1.2-0.1-2.3-0.4-2.5-1.8c-0.4-1.8,0-3.4,1.6-4.6
	C35-0.5,39-0.6,40.9,1.9c2.5,3.4,4.8,4.8,9.3,3.4c3.6-1.1,7.8,2.8,8.4,6.4c0.4,2.3-1.7,5.4-3.7,5.5c-2.2,0.1-2.9-1.5-3.2-3.3
	c-0.3-1.9,1.7-2.4,2.5-3.7c-4.8-3.9-7.8-1.9-11.6,7.7c3.4,0.5,6,2.1,7.3,5.5c0.8,2.3,0.2,3.9-1.5,5.3c-1.3,1-2.7,0.9-3.9-0.1
	c-1.2-1-0.7-2.2-0.3-3.5c0.3-1,3.3-1.7,0.6-3.1c-1.8-1-3.6-0.7-4.9,1.1c-0.9,1.3-1.7,2.7-2.3,4.1c-3.3,7.5-6.4,15.1-7.8,23.7
	c2.6-1.7,4.4-3.6,6.9-4.3c4.6-1.4,9.2,1.8,9.4,6.5c0,0.9-0.1,1.7-0.6,2.5c-1.3,2.3-3.4,3-5.8,2.5c-1.4-0.3-2.3-1.5-2-2.9
	C37.9,52.7,39.6,51.7,42.4,52.1z"/>
</svg>
