<?xml version="1.0" encoding="utf-8"?>
<!-- Generator: Adobe Illustrator 25.3.0, SVG Export Plug-In . SVG Version: 6.00 Build 0)  -->
<svg version="1.1" id="Layer_1" xmlns="http://www.w3.org/2000/svg" xmlns:xlink="http://www.w3.org/1999/xlink" x="0px" y="0px"
	 viewBox="0 0 73.4 110.1" style="enable-background:new 0 0 73.4 110.1;" xml:space="preserve">
<path d="M39.8,58.8c3-1.5,1.7-3.2,1.2-4.6c-0.8-2.3-1.6-4.6-1.9-7.1c-0.6-5.1,1.2-8.9,5.7-11.5c2.8-1.7,5.6-3.3,7.4-6.3
	c1.2-2.1,2.8-2.1,4,0.2c1.8,3.5,3.8,6.9,5.2,10.6C65,49.1,58.8,58.5,49,59.3c-6.3,0.5-8.8,3.3-8.8,9.5c0.1,8.7,0,17.4,0,26.3
	c3.3-0.2,4.7-1.1,4.3-4.5c-1.4-10.7,2.6-18.9,12-24.4c3-1.8,5.8-3.6,8.6-5.6c2.5-1.7,3.5-0.6,4.2,1.7c2.1,6.4,3.6,12.9,4,19.7
	c0.7,14.3-14.2,18.7-22.5,15.5c-5.3-2-10.4,1.4-10.6,6.8c0,0.8,0,1.6-0.1,2.5c-0.1,1.5,0,3.3-2,3.3c-2.1,0-1.7-1.9-1.9-3.3
	c-0.4-2.5,1.9-6.3-3-6.9c-2.6-0.3-5-1.2-8,0.1C12.6,105.7-0.2,97,0,83C0.1,77,1.5,71.3,3.4,65.6c0.6-1.9,1.7-3,3.6-1.6
	c3.3,2.5,7.3,3.6,11,5.3c10,4.4,13.8,11.1,13,22.3c-0.1,2-0.8,3.9,2.1,4.5c2.2,0.5,3.4,0.4,3.6-2.3c0.5-9.2,0.1-18.4-0.5-27.5
	c-0.1-2.1-5.3-4.1-7.9-3.2C16.6,67,9.7,62.6,8,50.3c-0.5-3.4-0.6-6.8-1.9-10.1c-1.2-3.2,1.2-3.7,3.1-2.9c3.7,1.5,7.6,1.7,11.4,2.5
	c6.4,1.4,10.5,7.2,11.4,15.5c0.1,1.3-0.3,2.7,0.6,3.8c0.6,0.9,1.6,1.2,2.6,0.9c0.8-0.2,0.6-1,0.5-1.6c-1-6.5-1.1-13.1-2.5-19.5
	c-0.4-1.8-1.1-2.7-2.8-3.6c-9-4.4-13.5-11.6-8.7-22.6c1.4-3.3,2.6-6.7,2.6-10.4c0-1,0.3-2,1.4-2.3c1.1-0.3,1.9,0.2,2.4,1.1
	c2.2,4.1,6.2,6.8,8.9,10.4c5,6.5,5.6,14.1,1.2,21c-1.4,2.3-1.8,4.3-1.3,6.9C38.2,45.8,38.9,52.1,39.8,58.8z M23.5,97.2
	c-2.4-1.9-4.4-3.3-6.2-4.8c-3.9-3.2-6.7-7.2-8.5-11.9c-0.6-1.4-2.3-3.7,0-4.8c2.4-1.1,2.6,1.7,3.4,3.1c0.7,1.3,1.1,2.8,1.9,4
	C17.3,87.7,21,92,27,93.9c1.5-10.7-1.9-19.4-13.3-22.5C12,71,10.5,70,8.8,69.2c-1.5-0.7-2.7-1.1-3.2,1.2C4.8,74.3,3.6,78,3.4,82
	C3,93.3,11.7,100.3,23.5,97.2z M48.6,90.8c6.4-5,10.6-10.9,13-18.1c0.5-1.5,1.2-3,3.1-2.2c1.7,0.7,0.8,2,0.4,3.3
	c-2.2,6.9-6.4,12.5-11.3,17.6c-0.6,0.6-1.9,1-1.4,2.3c0.5,1.1,1.7,0.8,2.6,0.9c8.2,0.9,14.1-4.3,13.9-12.6c-0.1-2.9-0.5-5.9-0.9-8.8
	c-1.5-9.2-1.5-9.1-9.4-4.1C50.3,74.4,47,81.2,48.6,90.8z M45.4,53.2c2.3-3.1,4.1-6,4.6-9.5c0.2-1.6,0.4-3.7,2.8-3
	c2.4,0.7,1.3,2.7,0.8,4.1c-1.2,3.4-2.6,6.8-4.1,10.3c7.9-1.5,11.3-7.8,8.2-14.6c-3.1-6.9-3.1-6.9-9.3-3.2
	C41.9,41.2,40.9,45.9,45.4,53.2z M27.8,56.1c0.7-9.8-5.8-14.4-16.9-13.5C10.1,55.9,16.5,63.9,25.1,60c-3.7-3.3-7.3-6.7-10-10.8
	c-0.8-1.2-1.5-2.9,0.3-3.8c1.6-0.9,2.3,0.7,2.9,1.8C20.6,51.1,23.8,53.9,27.8,56.1z M35.6,29.6c3.9-8.4,1.9-13.9-7.7-22.1
	c-7.2,11.6-4.6,21.8,4.1,23.6c-0.9-4-1.9-8-2.6-11.9c-0.2-1.2-0.6-2.8,1.2-3.2c1.9-0.4,2,1.2,2.3,2.4C33.8,22,34.6,25.6,35.6,29.6z"
	/>
</svg>
