<?xml version="1.0" encoding="utf-8"?>
<!-- Generator: Adobe Illustrator 25.3.0, SVG Export Plug-In . SVG Version: 6.00 Build 0)  -->
<svg version="1.1" id="Layer_1" xmlns="http://www.w3.org/2000/svg" xmlns:xlink="http://www.w3.org/1999/xlink" x="0px" y="0px"
	 viewBox="0 0 113 250.5" style="enable-background:new 0 0 113 250.5;" xml:space="preserve">
<path d="M57.5,175.3c-4.1-2.7-7.7-4-11.4-5.2c-3.7-1.3-5.3,0-4.6,3.9c1,5.4,0.5,10.6-1.4,15.6c-0.9,2.5-2.4,4.6-4.3,6.4
	c-1.6,1.6-2.9,1.6-3.8-0.7c-2.2-6.2-3.7-12.5,0.2-18.7c1.3-2.1,0.4-2.4-1.5-2.2c-6.3,0.5-12.3-0.9-18.2-3.1
	c-2.1-0.8-3.6-2.2-1.3-3.8c3.4-2.4,6.5-5.6,10.8-6.8c7.7-2.1,14.6-1.4,20.6,4.4c3.1,3,7.5,3.3,11.1,5.3c1.8,1,3.6,1.7,5.9,2.3
	c-5.1-12.5-6.8-25.8-10-38.7c-1.3-5.4-4.8-10.7-12.1-10.9c-3.6-0.1-6-2.8-8.2-5.4c-3.1-3.7-5-8.1-6.8-12.6c-0.3-0.8-0.9-1.7-0.2-2.5
	c0.9-1,1.9-0.4,2.9,0c8.7,3.4,16.5,7.7,18.7,18c0.6,2.6,3.2,4,5,6.2c-0.2-15.8,0.2-31.5,2.4-47.5c-5.4,2.5-7.3,6.2-5.9,10.8
	c0.6,2,0.2,3.7-1.6,4.7c-1.7,0.9-3.3,0.4-4.5-1c-1.3-1.6-1.5-3.7,0-5c3.3-2.6,4.3-6.7,6.9-9.9c-3,0.6-6.4,0.3-7,5
	c-0.3,2.4-2.2,4-4.8,3.4c-2.6-0.6-3.9-2.7-3.5-5.3c0.5-2.6,2.1-4.3,5-3.4c1.8,0.6,3.3,0,4.8-0.7c2.1-1,4.3-1.8,6.6-2.1
	c1-0.2,2.6,0.3,2.8-1.4c0.1-1.2-0.8-2.2-1.8-2.9c-0.5-0.4-1.1-0.6-1.7-0.8c-10.3-3.7-17.6-14.7-17-25.6c0.1-2.3,1.1-2.9,3.3-2.1
	C41.1,46.1,50.3,59,50.6,68c0,1-0.2,2.1,1.5,2.7c1-4.3,1.1-8.7,1.5-13c0.1-0.8-0.4-1.5-1-2c-7.5-7.8-8-17.1-5.7-26.9
	c1.3-5.6,3.6-11.1,5.5-16.6c0.3-1,0.6-2.2,1.9-2.2c1.1,0,1.4,0.9,1.7,1.8c2.8,8.6,6.1,17.1,6.3,26.4c0.1,5.9-0.8,11.3-4.4,16.2
	c-0.9,1.1-1.6,2.4-1.7,3.9c-1.6,15.1-4.1,30.1-4.7,45.2c0,0.7-0.4,1.6,0.6,2.2c5.1-5,8.3-11.3,11.2-17.7c0.2-0.5,0.1-1.3-0.1-1.9
	c-2.4-8.8,0.2-16.7,4.9-23.9c3.2-4.9,7.5-8.9,11.5-13.1c0.8-0.8,1.5-2,2.9-1.4c1.3,0.6,1.2,2,1.2,3.1c-0.3,7.3-0.9,14.5-3.8,21.3
	c-0.5,1-0.9,2.1-1.9,4.3c5.9-2.7,11.2-4.2,16.6-5c2-0.3,4.7-2.1,6.1,0.1c1.1,1.9-1.3,3.7-2.5,5.2C88.9,88.2,78,97,62.6,98.9
	c-4.7,0.6-5.7,5.4-8,8.8c3.4-0.8,7-0.2,9.4-3.8c1.5-2.2,4.2-2.3,6.1-0.3c2.3,2.4,1.5,5.1-0.4,7.4c-1.7,2-4.1,2.7-6,0.4
	c-2.7-3.4-5.6-1.8-8.3-0.5c-1.6,0.7-1.9,1.9,0.3,2.4c2,0.5,3.5,2.2,5.8,2.2c2.6,0,3.5,1.6,3,3.9c-0.5,2.6-2.2,4.3-4.9,4.2
	c-2.2-0.1-3.3-1.9-3.3-4.1c0-1.2,1.2-2.5-0.4-3.5c-1-0.6-2.2-1-3.3-0.6c-1.6,0.6-1.1,2.2-1.1,3.4c0.8,20.8,4.6,40.9,13.8,59.8
	c3,6.2,6.1,12.3,10.1,18.1c1-7,4-13,6.9-19.1c1.2-2.5,0.3-5.5-1.7-7.6c-8.3-9.3-5.6-21.9,0.6-31.8c0.4-0.7,0.9-1.3,1.8-1.2
	c1.1,0.2,1.3,1.2,1.5,2c1.5,4.6,3,9.1,4.3,13.7c0.6,2.4,1.4,2.6,3.4,1.3c1.8-1.2,3.8-2.2,5.7-3.3c2.7-1.6,4-0.4,4.6,2.3
	c2.2,8.8-3.7,19.5-12.6,23c-5.5,2.2-8.6,6.2-9.7,13.3c3.6-2.4,8-2.2,10.7-6c1.2-1.7,3.4-1.9,5.3-0.5c2.1,1.6,1.8,3.6,0.6,5.6
	c-1.1,1.8-2.7,2.8-4.9,1.9c-4.9-1.9-7.3-1.4-11.2,2.6c2,1,4.1,0.7,6.1,0.9c2.2,0.3,4.2,0.8,4.3,3.5c0.1,2.3-1.4,3.7-3.4,4.1
	c-2.5,0.4-3.9-1-4-3.5c-0.1-1.8-1.1-2.1-2.6-2c-1.6,0.1-2.8,0.7-2.7,2.5c0.1,3.2,1.2,6.1,3,8.7c4.7,6.8,9.3,13.8,13.2,21.1
	c1.7,3.2,3,6.6,3.9,10.1c0.2,0.7,0.6,1.6-0.3,2c-0.9,0.4-1.4-0.4-1.7-1.1c-7.8-21.5-24.4-37.9-33.1-58.8c-1.1-2.6-2.2-2-3.4,0
	c-1.2,1.9-1.9,3.9-2.6,6.1c-0.5,1.7-0.6,2.9,1.1,4c1.8,1.3,2.4,3.1,0.9,5c-1.3,1.6-3.2,2-4.9,0.8c-1.8-1.2-2.5-2.9-1.5-5.1
	c2.1-4.2,2.7-8.9,5.4-13c-4.7,0.5-9.4,4.9-9.9,8.9c-0.2,1.7-0.7,3-2.6,3.3c-1.7,0.2-2.8-0.7-3.3-2.1c-0.7-1.7,0-3,1.6-3.9
	C48.6,181.8,51.7,177.2,57.5,175.3z M57.4,50c4.1-7.3,2.1-27-3.3-33.5c-7.4,13.5-7.8,30-0.5,36.1c0.2-1.4-0.1-3,0.5-3.8
	C56.5,45.2,55.9,49.9,57.4,50z M66.8,89.8c0.8-0.6,1.6-1.3,2.5-1.8c1.1-0.7,2.2-2.7,3.5-1.1c1.1,1.4-1.1,2-1.9,2.8
	c-2,2-4.6,3.2-6.2,5.9c8.3,0.4,27.7-12.2,31-19.7c0.8-1.8-0.1-2.1-1.5-2C82.8,75.3,73.6,80.7,66.8,89.8z M69.7,80.6
	c8.9-7.2,11.2-17.2,11.3-28.2c-10.2,6.9-18.9,21.9-15.4,31.1c1.4-3.2,2.6-6.2,3.9-9.1c0.2-0.6,0.6-1.3,1.4-1.1
	c1.1,0.2,0.9,1.2,0.7,1.9C71.1,77,70.4,78.8,69.7,80.6z M88.6,173.4c6-1.6,10.8-7.4,11.7-14.2c0.3-1.9,0.9-4.3-0.8-5.5
	c-1.7-1.1-3.3,0.9-4.8,1.7c-1.8,1-3.5,2.3-5,3.7c-3.2,3-5.3,6.7-5.4,11.2c0,0.6-0.1,1.4,0.6,1.7c0.8,0.4,1.1-0.4,1.5-0.8
	c1.4-1.3,2.2-4.8,4.2-3.4C92.4,169.1,88.9,171,88.6,173.4z M39.5,168.6c-2.8-1.7-5.8-1.2-8.5-1.9c-0.8-0.2-1.6-0.4-1.4-1.5
	c0.2-0.8,0.9-0.8,1.6-0.8c0.9,0,1.8,0.2,2.7,0.2c0.9,0,1.8,0.9,2.8-0.4c-6.6-3.7-12.8-2.1-18.9,0.9c-1.7,0.8-4.2,1.8-3.9,3.8
	c0.3,2.4,3.3,1.9,5.1,2.5c1,0.3,2,0.4,3.1,0.5C28.1,172.2,34,172.5,39.5,168.6z M32.3,45.7c0.5,5.9,1.9,10.6,4.6,15
	c1.3,2.1,3,3.8,4.9,5.4c2.5,2.2,3.4-2.5,5.6-1.1c0.1,0.1,0.4-1.1,0.2-1.7C44.6,55.9,39.9,50.1,32.3,45.7z M82.9,142.4
	c-5.6,5.8-6.8,18.1-2.5,23.7c0.4,0.5,0.8,1.2,1.5,0.7c0.3-0.2,0.4-0.9,0.3-1.4c-0.4-2.1-1.1-4.3-1.4-6.4c-0.2-1.7-1.5-4.5,0.9-4.9
	c1.4-0.3,0.8,2.8,1.3,4.3c0,0.1,0,0.3,0,0.4c0.2,0.8-0.3,2.1,0.9,2.3c1.3,0.3,1.6-1.1,2.1-1.9c0.6-1.3,0.9-2.7,0.6-4.2
	C86,150.7,84.6,146.6,82.9,142.4z M38.8,174.4c-1.9,1.5-1.4,4-3.1,4.1c-3.1,0.3-2.9,2.6-3.2,4.4c-0.6,3.1,0.3,6.1,0.8,9.2
	c0.4,2.2,1.6,2.2,2.7,0.6C39.9,187.2,40.5,181.2,38.8,174.4z M39.7,116.7c-1.7-3.1-3.9-5.5-6.6-7.4c-2.1-1.4-4.8-4.1-6.6-2.5
	c-1.4,1.2,1.3,4.2,2.4,6.2c2,3.6,4.7,6.6,9.1,7.9c0-2.5-3.9-2.7-2.6-4.9C36.5,114.3,37.8,117.3,39.7,116.7z M68.9,107.3
	c0-1.1-0.4-2.2-1.7-2.2c-1.6,0-2.1,1.2-2.3,2.6c-0.1,1.3,0.2,2.5,1.8,2.3C68.3,110,68.7,108.6,68.9,107.3z M36.5,82.6
	c-0.1-1-0.7-1.8-1.7-1.9c-1.1-0.1-1.6,0.8-1.6,1.8c0,1.1,0.5,2.1,1.8,2C36.1,84.4,36.4,83.5,36.5,82.6z M95.2,186.5
	c-0.1-1.2-0.4-1.8-1.2-1.8c-1.3,0.1-1.7,1.1-1.6,2.2c0,0.7,0.5,1.2,1.3,1.1C94.7,187.7,95.2,187,95.2,186.5z M61.8,119.1
	c-0.3-0.4-0.7-0.8-1.4-0.7c-0.7,0.1-1.2,0.6-1.3,1.3c-0.1,0.8,0.3,1.2,1.1,1.1C61.2,120.7,61.7,120.2,61.8,119.1z M41.7,90.1
	c-0.7,0.2-1.2,0.5-0.9,1.3c0.1,0.4,0.6,0.9,1,1c0.7,0.2,1.2-0.3,1.2-1C42.9,90.6,42.4,90.3,41.7,90.1z M88.4,197.5
	c-0.1-0.6-0.6-0.6-1.1-0.6c-0.6,0.1-0.9,0.5-0.9,1c0,0.5,0.3,1,0.9,0.9C87.9,198.7,88.4,198.3,88.4,197.5z M57.3,193.8
	c0.3-0.6-0.2-1-0.6-1.2c-0.5-0.3-1-0.1-1.3,0.4c-0.3,0.6,0.1,1,0.6,1.2C56.5,194.5,56.9,194.2,57.3,193.8z"/>
</svg>
