<?xml version="1.0" encoding="utf-8"?>
<!-- Generator: Adobe Illustrator 25.3.0, SVG Export Plug-In . SVG Version: 6.00 Build 0)  -->
<svg version="1.1" id="Layer_1" xmlns="http://www.w3.org/2000/svg" xmlns:xlink="http://www.w3.org/1999/xlink" x="0px" y="0px"
	 viewBox="0 0 63.5 108.3" style="enable-background:new 0 0 63.5 108.3;" xml:space="preserve">
<path d="M36,57.5c0.4-4.8,0.6-9.2,2-13.3c1.4-4.3,1.1-8.1-1.1-12.3c-2.8-5.3-3.7-11.3-3.4-17.3c0-1-0.1-2.1,1.1-2.6
	c1.2-0.5,2,0.1,2.7,0.9c2.2,2.8,3.5,2.3,5.6-0.5C46.5,7.6,51.4,3.8,57,1.1C60.8-0.8,61.8-0.4,62,4c0.3,5.6-0.8,11-3,16.1
	c-0.6,1.3-1.1,2.6-1.7,4.1c0.7,0.1,1.3,0.2,1.9,0.2c1.3,0.1,3-1.5,3.9,0.4c0.9,1.8,0,3.7-1.2,5.2c-3.6,4.7-9.1,6.3-14.4,7.3
	c-4,0.8-5.3,2.7-6.2,6.3c-2.9,11.3-2.6,22.7-1,34.1c0.5,3.6-0.2,7.5,1.5,11.6c1.1-4-1-7.2-0.6-10.5c0.1-1.4-0.1-2.9,0-4.3
	c0.2-1.8-0.8-4.2,1.2-5.2c1.9-1,3,1.1,4.3,2.2c1.1,0.9,2,0.8,3.1,0.3c2.5-1.1,5.1-2.1,7.6-3.1c3.4-1.4,4.6-0.7,4.5,2.9
	c-0.1,3.7-1.6,7.1-3.9,9.9c-1.2,1.4-1.6,2.2,0.1,3.7c3.2,2.9,2.5,4.6-1.7,5.8c-2.8,0.8-5.6,0.4-8.1-0.4c-2.8-1-3.5,0.1-4.3,2.4
	c-1.3,4.1-1.7,8.2-1.4,12.4c0.1,1.1,0.5,2.6-1.1,2.8c-2,0.3-1.8-1.4-2-2.7c-1.4-11.5-2.6-23.1-3.2-34.7c-0.3-5.3-2.3-9.8-5.1-14.1
	c-1.3-2-2.6-2.2-4.7-1.1c-4.5,2.4-9.3,3.1-14.3,1.8c-1.4-0.4-2.8-1-4-1.7c-1.8-1.2-2.5-2.6,0.1-3.7c3.2-1.3,2.8-3.1,0.6-5.1
	c-3.5-3.2-6-7-8-11.2c-0.6-1.2-1.3-2.4-0.4-3.6c0.9-1.2,2.4-0.8,3.6-0.5c4,0.8,7.9,1.7,11.5,3.8c2,1.1,2.9,0.6,3.1-1.6
	c0.1-0.6,0.1-1.2,0.3-1.7c0.7-3,1.9-3.4,4.1-1.2c4.4,4.2,8,9.1,7.8,15.5C30.7,51,32.6,54.2,36,57.5z M44.8,34.6
	c5.3-1.1,10.2-2,13.8-5.9C58,27.8,57.4,28,56.9,28c-5.7-0.1-5.8-0.2-3.1-4.9c3.3-5.7,5.4-11.8,4.7-18.9c-6.3,2.8-11,7.2-15,12.4
	c-1.8,2.3-3.2,4.7-6.5,1.2c-0.3,5.9,1.3,10.5,4.1,15.3c1.5-2.9,2.7-5.4,4.2-7.9c0.6-1.1,1-3.2,3-2.2c2.1,1,0.4,2.4-0.1,3.6
	C46.9,29,45.3,31.3,44.8,34.6z M12.6,54c5.5,1.4,9.1,0.8,13.7-2.2c-1.8-1.5-3.7-2.9-5.4-4.4c-0.8-0.7-1.7-1.5-0.9-2.5
	c0.9-1.3,2-0.6,3,0c1.5,1,2.7,2.5,4.9,3.2c-0.3-5.2-1.7-9.5-5.6-13c-0.3,0.6-0.6,1-0.7,1.3c-2.2,4.7-2.1,4.6-6.7,2.3
	c-3.1-1.6-6.1-3.6-10.3-3.2c2,4.3,4.6,7.7,7.7,10.7C15.7,49.6,15.7,51.2,12.6,54z M44.6,75.4c-0.6,2.3,0,4.3,0.6,6.8
	c0.7-0.8,1.1-1.2,1.5-1.6c0.7-0.7,1.4-1.7,2.5-0.9c1.3,0.9,0.8,2,0,3c-0.6,0.8-1.2,1.6-1.7,2.5c-0.5,0.7-0.5,1.6,0.3,1.8
	c2.3,0.5,4.7,2.1,7.5-0.2c-3.9-1.4-3.9-3-1.4-5.7c2.2-2.3,4.4-5,4.4-8.8C53.5,72.1,50,77.9,44.6,75.4z"/>
</svg>
