<?xml version="1.0" encoding="utf-8"?>
<!-- Generator: Adobe Illustrator 25.3.0, SVG Export Plug-In . SVG Version: 6.00 Build 0)  -->
<svg version="1.1" id="Layer_1" xmlns="http://www.w3.org/2000/svg" xmlns:xlink="http://www.w3.org/1999/xlink" x="0px" y="0px"
	 viewBox="0 0 131.2 251" style="enable-background:new 0 0 131.2 251;" xml:space="preserve">
<path d="M71.9,163c3.9-5.6,7.9-11.1,11.7-16.8c4.5-6.7,8.6-13.7,11.8-21.1c0.8-1.9,0.9-3.5,0.3-5.5c-1.4-4.5-2.1-9-1.1-13.7
	c0.5-2.5,1.5-4.8,3.1-6.8c1.5-1.9,3.4-3.3,6-2.7c2.5,0.6,3.6,2.7,3.8,4.9c0.3,2.9,1.2,2.9,3.4,1.5c3.4-2.1,6.3-1.7,8.5,0.7
	c2.4,2.7,2.5,6.3-0.1,9.4c-4.8,5.7-11.4,8.4-18.5,10.3c-1.2,0.3-2.2,0.5-2.8,1.9c-5.7,14.1-14.5,26.3-23.4,38.4
	c-2.1,2.8-3,5.4-2.6,9.1c1.8,14.8,4.1,29.6,6.8,44.2c0.2,0.9,0.4,1.8,0.6,3c1.1-0.8,1.1-1.8,1.3-2.7c3.2-11.9,5.4-24,7.7-36.1
	c0.4-2.3,0.4-5.3,4.4-3.7c1.3,0.5,1.1-1.1,1.2-1.9c0.9-4.6,1.8-9.1,3.6-13.4c0.3-0.7,0.6-1.5,1-2.2c0.6-1.1,1.2-2.3,2.6-2.3
	c1.5,0,1.9,1.2,2.4,2.4c0.2,0.4,0.4,0.9,0.7,1.5c1.5-1.8,2.8-3.5,4.2-5c1.7-1.8,3.7-3.1,6.3-3.2c3.6-0.1,5.5,2.2,4.4,5.7
	c-1.4,4.2-4.2,7.5-6.9,10.9c-0.6,0.7-1.8,1.4-1.4,2.4c0.3,0.9,1.6,0.7,2.5,0.8c4.6,0.8,5.6,2.7,3.2,6.9c-2.4,4.4-5.8,8-9.2,11.6
	c-1.1,1.2-2.4,2,0.2,3.1c1.8,0.7,1.6,2.6,1,4.2c-0.9,2.8-2.9,4.8-4.8,6.9c-6.3,6.5-13.3,12.3-20.6,17.8c-2,1.5-2.6,3-1.9,5.4
	c0.8,2.9,1.5,5.9,2,8.8c0.2,1.2,1.7,3-0.5,3.5c-1.9,0.4-1.6-1.8-1.8-2.8c-1.3-5.6-2.5-11.2-3.7-16.8c-0.3-1.2-0.4-2.3-1.7-3
	c-11.3-5.3-20-13.8-28.2-22.9c-3.6-4-7-8.1-10.2-12.4c-1.8-2.4-3.8-3.8-6.8-4.1c-5.4-0.6-10.4-2.5-14.7-6c-2.2-1.8-3.8-3.9-4.9-6.5
	c-0.9-2.2-1-4.4,0.5-6.3c1.6-2,3.8-2,6.1-1.6c4,0.8,4,0.8,3.9-3.2c-0.1-3.8,1.3-6.3,4.2-7.3c3.6-1.2,6.9-0.1,9,3.1
	c2.1,3.2,2.7,6.9,3,10.7c0.3,4.6,0.2,9.3-1,13.8c-0.3,1.1-0.2,2.1,0.6,3.1c9.2,11.9,18.9,23.4,31.2,32.3c2.3,1.7,4.7,3.5,8,4.3
	c-0.9-5.6-1.8-10.8-2.6-16c-1.2-8.1-2.4-16.2-3.4-24.3c-0.2-1.9-1-3-2.6-4c-7.9-4.7-15.7-9.6-22.8-15.4c-1.6-1.3-3.3-2.7-4.4-4.6
	c-1.3-2.2-2.3-4.4,0.8-6.1c1.7-1,0-1.5-0.5-1.9c-3-2.5-6-5.1-8.8-7.9c-0.4-0.4-0.7-0.7-1-1.1c-4.9-5.4-4-8.8,2.4-9.5
	c0.4,0,0.7-0.3,1.6-0.7c-1.7-1.6-3.2-3-4.7-4.4c-2.2-2.2-4.4-4.5-5.8-7.3c-1.9-3.9,0.1-6.9,4.5-6.7c3,0.2,5.2,1.9,7.4,3.8
	c1,0.9,1.7,2.3,3.1,2.9c0.9-1.4,0.4-3.9,2.6-4c2.3-0.2,3,2.1,3.9,3.7c2.3,4.2,3.9,8.6,5.2,13.2c0.3,1.1,0.2,2.6,2.4,1.3
	c2.3-1.3,3.1,1,3.7,2.7c2.3,7,4.5,14,6.8,21c1.3,3.8,2.7,7.6,4.2,11.3c-0.8-11.8-1.8-23.6-2.1-35.4c0-1.1-0.5-1.9-1.1-2.7
	c-10.2-14.2-16-30.2-19.2-47.2c-0.4-1.9-1.1-3.2-2.8-4.3c-4.3-2.5-8.1-5.7-10.5-10.2c-1.2-2.2-1.9-4.5-1.8-6.9c0-4.9,3.8-7.1,8-4.6
	c0.7,0.4,1.3,0.9,2,1.4c1.1,0.8,1.6,0.5,1.8-0.7c0.2-0.8,0.4-1.6,0.7-2.3c1.1-2.8,2.9-4.6,6.1-4.5c3.1,0.1,5.5,2.1,6.4,5.1
	c0.8,2.8,0.4,5.6-0.3,8.4c-1.2,5-3.2,9.7-6.3,14c-0.7,0.9-1.3,1.8-1,3c2.8,15.6,8,30.4,16.6,43.8c0.2,0.3,0.4,0.5,0.7,0.8
	c1-0.9,0.6-2,0.6-2.9c-0.3-25.1,1.1-50,5.7-74.7c0.3-1.5-0.1-2.7-0.8-4c-2.6-5-4.6-10.1-4.4-15.8c0.1-3,0.8-5.8,2.4-8.3
	c1.1-1.9,2.8-3.3,5.1-3.3c2.4,0,3.8,1.6,4.8,3.6c0.7,1.3,1.2,2.8,1.8,4.3c1.5-1.2,2.8-2.4,4.2-3.5c2.3-1.7,4.8-2.1,7.3-0.5
	c2.6,1.8,4,4.2,3.5,7.5c-0.5,3.2-2.4,5.7-4.6,8c-4.1,4.2-8.8,7.7-14.3,10C75,40,74,40.6,73.7,42.3c-2.7,15.4-4.5,30.9-5,46.6
	c0,0.3,0.1,0.6,0.1,0.9c0.6,0.3,1,0,1.3-0.4c6.1-6.2,12.1-12.5,17.4-19.3c1.4-1.8,1.9-3.5,1-5.8c-1.7-4-2.3-8.3-1.8-12.7
	c0.2-1.6,0.6-3.2,1.2-4.7c1.6-3.8,4-5.9,6.7-5.6c3.6,0.4,4.1,3.4,4.9,6.1c0.1,0.5,0.3,0.9,0.5,1.6c1.2-0.8,2.2-1.6,3.3-2.3
	c2.8-1.7,5.5-1.6,7.6,0.2c2.3,2.1,3,5.1,1.8,8c-1,2.5-2.9,4.4-4.9,6c-4.3,3.4-9.1,6-14.4,7.4c-1.3,0.3-2.1,0.9-2.9,1.9
	c-5.9,8.2-12.9,15.5-20.1,22.5c-1.3,1.3-2,2.5-2,4.4c-0.4,21.1,0.5,42.1,2.5,63.1c0.1,0.8,0.3,1.6,0.4,2.3
	C71.4,162.8,71.6,162.9,71.9,163z M68.7,21.7c-0.1,5.4,1.8,9.9,3.9,14.2c0.7,1.4,1.6,1.9,3.2,1.1c6.1-2.9,11.4-6.8,15.4-12.3
	c0.8-1.1,1.3-2.3,1.6-3.6c0.4-2.3-0.6-3.9-2.4-5.1c-1.7-1.1-3.3-0.6-4.8,0.5c-1.8,1.3-3.2,3-4.5,4.9c-0.4,0.7-0.9,1.4-1.9,1.1
	c-0.8-0.2-0.9-1-1-1.7c-0.5-2.2-0.9-4.3-2-6.3c-1.5-2.6-3.6-2.8-5.4-0.2C69.2,16.7,68.6,19.4,68.7,21.7z M34.9,166
	c0-6.2-0.9-10.9-2.7-13.4c-1.4-2-3.3-2.9-5.8-2.2c-2.5,0.8-3,2.8-2.9,5c0.1,1.8,0.7,3.5,1.1,5.3c0.2,0.8,0.9,1.8-0.1,2.5
	c-0.9,0.7-1.7,0.1-2.5-0.3c-1.8-0.8-3.7-1.7-5.7-2c-3.2-0.4-4.6,1.4-3.4,4.4c0.7,1.8,1.8,3.4,3.2,4.7c4.4,4.1,9.9,5.7,15.6,6.7
	c1.5,0.3,2-0.7,2.2-1.8C34.7,172,34.9,169,34.9,166z M86.1,217.2c6.5-4.9,12.8-10,18.1-16.2c1-1.2,2.6-2.7,1.7-4.2
	c-0.9-1.7-2.7-0.1-4.1,0c-0.8,0.1-1.6,0.4-2.1-0.5c-0.4-0.8,0.2-1.3,0.7-1.8c1.8-1.9,3.7-3.7,5.5-5.6c3-3.3,6-6.5,8.3-10.3
	c1.1-1.9,1.2-3.2-1.5-3.3c-1.7-0.1-3.7,0-5-0.8c-2.5-1.5-3,0.1-3.8,1.7C97.1,189.4,92.2,203.5,86.1,217.2z M64,165.8
	c-3.3-5.7-6.4-11.4-9.6-16.9c-4.3-7.6-8.8-15.1-13.8-22.4c-0.4-0.5-0.5-2.1-1.9-1.1c-1.7,1.2-3.8,1.4-5.7,1.9
	c-3.4,1.1-3.6,1.6-1.2,4.4c4.1,4.9,9.2,8.7,14.2,12.7c0.8,0.7,2.3,1.1,1.8,2.5c-0.5,1.4-1.9,0.6-2.9,0.6c-1.1,0-2.4-0.6-3.1,0.5
	c-0.6,1.1,0.5,2.1,1.2,2.9C49,157.1,56.5,161.4,64,165.8z M96.7,110c0,2.9,0.5,5.8,1.3,8.6c0.4,1.7,1.3,2.3,3,1.8
	c5.3-1.5,10.2-3.6,14.5-7.2c1.2-1,2.3-2.2,2.9-3.8c0.7-1.7,0.1-3.2-0.9-4.5c-1.1-1.4-2.6-1.4-4.1-0.8c-1.6,0.6-2.9,1.7-4.3,2.8
	c-0.8,0.7-1.5,2-2.7,1.5c-1.4-0.6-0.8-2.1-0.9-3.2c-0.2-1.2-0.2-2.4-0.5-3.6c-0.2-1.3-0.6-2.7-2.1-3.1c-1.6-0.4-2.6,0.8-3.5,2
	C97.4,103.4,96.6,106.6,96.7,110z M53.4,52.9c-0.1-0.9,0-1.7-0.2-2.5c-0.5-2.5-1.9-4.1-4.6-3.9c-3.2,0.2-3.4,2.9-4.1,5.2
	c-0.5,1.7,0.6,4.2-1.3,4.9c-1.9,0.6-2.6-2.1-4.1-3c-1.5-1-2.9-3-5-1.8c-2,1.2-1.1,3.4-1,5.3c0.1,0.7,0.4,1.3,0.7,2
	c2.2,5,6.3,8.2,10.9,10.9c1.1,0.7,1.9,0.3,2.5-0.7C50.6,64.4,52.8,58.9,53.4,52.9z M83.9,216.2c9.4-20.2,16.8-41.4,29.4-60.1
	c-0.6,0-1,0.1-1.3,0.3c-3.3,2.3-5.3,5.7-7.2,9.2c-0.4,0.7-0.6,1.6-1.7,1.5c-1.2-0.2-1.1-1.2-1.2-2.1c-0.1-1.4-0.1-2.9-1.1-4.6
	c-2.7,6.3-3.8,12.5-4.9,18.7c-0.2,1.4,0.3,3.5-1.5,3.9c-1.8,0.4-1.6-2-2.7-2.8c-0.1-0.1-0.4,0-0.8,0
	C88.9,192.3,86.4,204.2,83.9,216.2z M88.9,53.8c0.2,3.6,0.9,6.9,2,10.2c0.6,1.7,1.6,2.2,3.2,1.6c5.3-1.9,10.1-4.5,14.1-8.5
	c1.1-1.1,1.9-2.3,2.4-3.8c0.6-1.8-0.2-3.1-1.4-4.3c-1.3-1.3-2.7-1.1-4.2-0.4c-1.7,0.9-3.1,2.2-4.4,3.6c-0.6,0.6-1.1,1.6-2.2,1.2
	c-0.9-0.4-0.7-1.3-0.9-2.1c-0.4-1.8-0.5-3.6-1.1-5.3c-1-2.7-2.9-3-4.7-0.8C89.5,47.7,89,50.8,88.9,53.8z M29.4,108.6
	c15.1,16.9,24.7,37.3,36.8,56.1c-4.2-11.6-7.9-23.4-11.6-35c-1,0.1-1.1,0.7-1.3,1.1c-0.5,0.9-0.4,2.5-1.9,2.3
	c-1.4-0.2-1.2-1.7-1.5-2.7c-1.4-5.2-3-10.2-5.3-15.1c-0.5-1.1-0.8-2.4-2.3-3.3c-0.1,1-0.2,1.6-0.3,2.3c-0.2,1.3,0.8,3.3-0.8,3.8
	c-1.9,0.6-2.2-1.7-3.1-2.7C35.7,112.5,33.4,109.6,29.4,108.6z M38.4,123.1c-4-5.4-7.4-10.1-12.3-14.6
	C26.8,113,32.2,119.3,38.4,123.1z M116.6,156.4c-2.7,2-8.6,11.3-9.2,14.4C113.3,165.5,117,159.7,116.6,156.4z"/>
</svg>
