<?xml version="1.0" encoding="utf-8"?>
<!-- Generator: Adobe Illustrator 25.3.0, SVG Export Plug-In . SVG Version: 6.00 Build 0)  -->
<svg version="1.1" id="Layer_1" xmlns="http://www.w3.org/2000/svg" xmlns:xlink="http://www.w3.org/1999/xlink" x="0px" y="0px"
	 viewBox="0 0 148 229.2" style="enable-background:new 0 0 148 229.2;" xml:space="preserve">
<path d="M105.3,126.8c2.6-1.1,3.9-3,5.4-4.5c4-4.2,8.6-7.4,14.3-8.8c7.7-1.8,15.7,1.1,19.7,7.1c3.2,4.8,2.1,8.5-3,11
	c-4.9,2.3-10,2.6-15.3,2.1c-7-0.7-14-1.8-21.1-0.9c-2.4,0.3-4.1,0.9-5.5,2.9c-1.2,1.8-2.8,3.3-4.6,5.4c3.3-0.6,6.2-1.3,9.1-1.7
	c8.8-1.3,15.4,1.3,19,7.6c1.8,3.1,3.1,6.5,0.7,9.8c-2.4,3.3-5.9,3.6-9.7,2.9c-4.6-0.9-8.3-3.4-11.5-6.7c-3.3-3.3-7.1-5.5-11.5-6.8
	c-1.3-0.4-2.4-0.5-3.6,0.4c-3.5,2.7-7.2,5.1-10.4,8.1c-3.7,3.6-5.6,7.8-5.1,13.1c1.5,16.5,5.5,32.6,9.3,48.7
	c0.7,3.2,1.6,6.3,2.4,9.4c0.3,1.1,1.3,2.7-0.7,3.1c-1.7,0.3-3.8,0.9-4.4-1.8c-1.1-4.6-2.4-9.2-3.3-13.8c-4.8-22.8-9.2-45.6-9.5-69
	c-0.1-5.4-3.9-9.8-6.8-14.2c-0.9-1.3-2-0.7-3.1-0.1c-2.5,1.5-4,3.9-5.3,6.3c-4.2,8.3-12.2,10.5-20.2,12.5c-3.6,0.9-6.2-1.1-7.4-4.7
	c-2.2-6.5,1-14.4,7.2-17.4c6.5-3.2,13.3-3.6,20.3-2.7c0.9,0.1,1.7,0.6,3.1-0.1c-4.6-3.9-9.3-7.2-15.5-6.6c-3.6,0.3-7.1,1-10.6,1.7
	c-6.9,1.4-13.6,1.2-20.1-1.4c-3.8-1.5-7.1-3.7-7.4-8.3c-0.3-4.7,2.1-8.1,6-10.2c6.7-3.6,13.8-3.6,20.8-1.1c7.6,2.7,13.6,7.4,16.9,15
	c0.5,1.1,1.2,1.9,2.3,2.4c2.5,1.1,5,2.4,7.7,3.7c0.3-1.3-0.5-2.4-0.9-3.5c-2.8-7.4-3.1-14.9-0.1-22.4c0.7-1.7,1.3-3.8,3.7-3.3
	c2.3,0.4,4.1,1.7,4.4,4.3c0.4,3.2,0.2,6.4-0.3,9.6c-0.4,2.3-0.6,4.6-1.1,6.8c-2,8.5-0.4,16,6.5,22c0.9-0.4,0.5-1.5,0.5-2.3
	c1.1-12.3,3.6-24.2,7.8-35.9c1.8-5.1,0.1-10.6,0.2-15.9c0-1.3-1.3-1.5-2.3-1.6c-3.2-0.5-6.4,0.1-9.1,1.7c-9.4,5.9-19.1,5.2-29.5,3
	c-13.6-2.8-13.2-12.1-6.8-19.6c7.3-8.4,15.5-8.8,24.9-5.4c7.9,2.9,14.9,7.3,20.8,13.5c0.3,0.3,0.7,0.5,1.4,0.9
	c-0.1-7.5-0.4-14.6-2.1-21.6c-0.3-1.1-0.5-2.2-1.5-3c-7.6-6.3-13.9-13.8-20.9-20.8c-4.2-4.2-6.3-9.7-5.5-15.9
	c0.5-4.1,2.4-7.5,6.4-9.3c3.9-1.7,7,0.1,9.8,2.6c7.9,7.1,14.2,15.3,15.6,26.3c0.6,4.6-0.4,9-1.5,13.4c-0.3,1.3-0.8,2.6-0.4,4.1
	c3,11.9,4.4,24.1,4.8,37.1c3.2-6,6.1-11.4,9-16.8c0.5-1,0-2-0.3-3c-1.7-5.6-3.6-11.2-5.9-16.7c-3.5-8.3-4.3-16.7-1.4-25.4
	C82.6,14.3,91.6,8,100,8.4c3.9,0.2,5.5,1.5,5.9,5.4c0.6,5-0.3,9.7-2.8,14.4c-3.3,6.2-5.9,12.8-8.9,19.2c-1.7,3.7-4,7.1-3.5,11.4
	c0.1,0.8-0.1,1.7,0.9,2.3c1.8-1,2.7-3,4-4.5c5.9-6.7,11.2-13.8,14.3-22.4c1-2.8,2.9-5.3,4.8-7.6c4.5-5.6,10.2-8.1,17.4-7.2
	c3.7,0.5,7.3,1.3,10.8,2.4c4.3,1.4,5.6,3.2,4.6,7.8c-1.6,7.2-5.2,13.1-11.5,17.1c-5.6,3.7-12,4.5-18.4,3.3
	c-8.8-1.7-15.5,0.4-20.4,8.2c-3.1,4.9-6.4,9.6-9.6,15.2c3.3-0.9,5.1-2.9,7.1-4.6c3.3-2.9,6.5-5.9,10.9-7.3
	c5.2-1.6,10.1-0.9,14.6,1.9c3.4,2.2,3.7,5.2,0.9,8.1c-3.4,3.6-7.6,4.2-12.1,3.3c-6.9-1.4-13.5-0.6-20.2,1.5c-4,1.3-5.2,4.5-6.4,7.6
	c-7.3,18.1-11.6,36.8-12,56.3c-0.1,5-0.1,9.9,0.5,15.8c4.9-5.7,10-10,15.6-13.6c8.9-5.8,14.8-13.8,18.5-23.7
	c0.9-2.5,1.3-4.9,1.1-7.5c-0.4-4.4-0.6-8.8-1-13.1c-0.9-10.5,10.1-21.9,17.3-24.4c7.4-2.6,13.2,0.8,14.7,8.5
	c2,10.5-4.5,22.1-14.8,26.2c-2,0.8-4.2,1.4-6.2,2.3C109.7,113.9,106.9,119.7,105.3,126.8z M71.2,72.4L71.2,72.4
	c-7.1-7.8-15.4-13.2-26.1-15.1c-9.5-1.7-14.9,2.7-19.6,10.7c-0.7,1.2-1.5,2.8-0.6,3.9c1,1.2,2.3-0.2,3.4-0.6
	c10.1-3.5,20.2-4.6,30.7-1.5C63,70.9,67.1,72,71.2,72.4z M106.9,47.6c3,0.1,5.9,0,8.8,0.3c3.9,0.5,7.8,0.8,11.7,0.2
	c8.5-1.5,16.7-9.6,18.1-18.1c0.5-2.9,0-3.3-2.8-2.6c-4.2,1-8.2,2.5-12.1,4.2C121.9,35.6,113.8,40.7,106.9,47.6z M110.9,111.5
	c4.6-3.6,10.7-3.7,15.3-7.2c4.2-3.2,7.2-7.2,9-12.1c1.5-4.2,0.9-8.7-0.9-12.8c-0.9-2.1-1.9-1.8-3.1-0.2c-4.4,5.5-8.7,11.1-12.6,17
	C115.4,100.8,112.6,105.7,110.9,111.5z M68.9,75c0-0.3,0-0.5,0-0.8c-4.6-1.1-9.2-2.2-13.7-3.3c-9.6-2.3-18.8-0.4-27.9,2.9
	c-2.3,0.8-1.9,1.9-0.4,3.1c1.3,1,2.8,1.7,4.3,2.1c4,0.9,7.9,1.6,11.9,2.4c5.3,1.1,10.3,0,15.1-2.5C61.6,77.1,65,75.5,68.9,75z
	 M86.8,55.9c0.5-2.1,0.1-3.5-0.1-4.9c-2.7-13.2,0.7-24.5,10.1-34c1.4-1.4,2.6-2.9,3.9-4.4c0.4-0.5,1.2-1,0.8-1.7
	c-0.3-0.7-1.2-0.7-1.9-0.7c-0.9,0-1.9,0-2.8,0.2c-8,1.7-13.1,6.6-15.6,14.2C77.5,35.9,81.8,45.6,86.8,55.9z M71.1,45.3
	c0.9-1.4,0.5-2.2,0.2-2.9c-2.5-6.5-4.9-13.1-9.5-18.4c-5.2-6-10.2-11.9-12.3-20.1c-1.9,1.2-2.7,2.8-3.2,4.4
	c-1.4,4.5-0.3,8.7,2.1,12.6C54.3,30.5,63.6,36.8,71.1,45.3z M108.7,109.7c5.2-11.7,12.9-21.7,20.7-31.6c0.5-0.6,1.3-1.2,1-2.1
	c-0.4-1-1.5-0.9-2.4-1c-1,0-2.1,0-3.1,0.2c-7.2,1.5-16.6,11.8-17.3,19.2C107.1,99.5,107.3,104.6,108.7,109.7z M72.8,40.2
	c1-1.8,1.1-3.5,1.3-5.2c0.9-10.4-8.6-27.2-17.9-32.1c-0.3-0.2-0.6-0.3-0.9-0.4c-1.1-0.3-2.3-0.8-3.3,0.1c-0.9,0.9-0.2,2,0.1,2.9
	c1.6,5.1,4.2,9.7,8,13.6c4.5,4.6,8,9.8,10.2,15.9C70.9,36.6,71.3,38.5,72.8,40.2z M103.6,13.1c-12.4,7.9-19.1,26.8-14.5,41
	c1.9-2.8,2.5-6,3.9-8.9c3.2-6.8,6.5-13.5,9.5-20.4C104.2,21.1,104.8,17.2,103.6,13.1z M109.6,126.9c5.1-1.1,10.2-2.4,15.4-2.2
	c5.2,0.2,10.3,0.8,15.5,1.6c1.2,0.2,2.7,1,3.5-0.4c0.8-1.3-0.1-2.7-0.8-3.9c-3-5.1-9.8-7.9-16.3-6.9
	C119.4,116.4,114.1,121,109.6,126.9z M144.4,24.9c-17.6-7.8-28.8-3.5-35.3,17.6C119.8,34.1,131.3,28.2,144.4,24.9z M39.4,115
	c-1.1-1.8-2.8-2.2-4.2-2.8c-10.1-4.2-20.6-4.7-31.3-3.6c-2.3,0.2-2.1,1.4-1.2,2.8c1.8,3.2,5.1,4.2,8.3,5.2
	C20.5,119.7,29.7,115.9,39.4,115z M41.6,113.3c-5.9-12.2-21.8-18.1-33.1-13.1c-2.3,1-4.2,2.3-5.5,4.6c-0.8,1.5-0.4,2.1,1.3,2
	C17,105.6,29.4,106.2,41.6,113.3z M52.9,127.1c-7.4-2.2-14.5-2.1-21.4,1.2c-5.2,2.5-7.9,7.6-7,13.4c0.1,0.9,0,2.1,0.9,2.4
	c1.1,0.4,1.4-0.9,1.9-1.6c4.9-6.2,10.9-10.8,18.7-13.1C48.4,128.8,50.6,127.9,52.9,127.1z M52.8,129.3c-3.4,1.2-6.2,2.1-8.8,3.1
	c-6.4,2.3-11.3,6.7-15.4,12c-0.4,0.5-1.1,1.1-0.8,1.8c0.4,1,1.4,0.9,2.1,0.7c6.8-1.8,13.8-3.3,18-9.9
	C49.4,134.6,50.9,132.3,52.8,129.3z M108.1,130.3c4.9-0.1,9.8,0.2,14.6,0.9c3.5,0.5,7.1,1,10.7,0.5c2.9-0.3,5.8-0.9,8.7-3.1
	C130.2,126.4,119,125.1,108.1,130.3z"/>
</svg>
