<?xml version="1.0" encoding="utf-8"?>
<!-- Generator: Adobe Illustrator 25.3.0, SVG Export Plug-In . SVG Version: 6.00 Build 0)  -->
<svg version="1.1" id="Layer_1" xmlns="http://www.w3.org/2000/svg" xmlns:xlink="http://www.w3.org/1999/xlink" x="0px" y="0px"
	 viewBox="0 0 85.2 228.1" style="enable-background:new 0 0 85.2 228.1;" xml:space="preserve">
<path d="M59.3,128.8c3.5-0.5,6.4-1.1,9.3-1.3c2.1-0.1,4.8-0.6,5.7,1.9c0.8,2.3-1.1,4.1-2.6,5.6c-3.7,3.7-8.2,6.4-13.3,7.5
	c-4.8,1-5.7,3.8-5.9,7.9c-0.8,23.7-1.1,47.4-2.7,71.1c-0.2,2.3,0.5,4.8-1.7,6.6c-2.2-1.1-1.4-3-1.4-4.6c-0.4-26.5,0.6-53,1.1-79.5
	c0.2-10.7-0.2-21.3-0.4-32c0-1.6-0.2-3.2-0.7-4.7c-1.7-4.8-3-9.8-10.3-8.3c-3.3,0.7-7.1-0.7-10.1-2.7c-1.8-1.2-4.1-2.4-3.8-4.9
	c0.3-2.8,2.9-3.4,5.2-4.2c2.5-0.8,5-0.5,8.2-0.3c-2.8-4.9-4.9-8.7-10.7-9.7c-5.8-1-9.5-7.7-9-13.7c0.4-4.4,3.1-5.8,6.9-3.3
	c4.2,2.8,8.4,6.5,9.2,11.3c1.1,7.4,6.5,12,9.6,18c1.2,2.4,3,4.6,5,7.6c0.6-4.6-0.3-8.5-0.8-12.4c-1.9-14.1-2.7-28.4-8.2-41.8
	c-1.3-3.1-2.4-4.1-6-3.2c-9.3,2.3-18.5,1.6-27.1-2.9c-5.8-3-6.3-6-1.6-10.4c2.4-2.3,4.4-4.3,3.5-7.9c0-0.2,0.1-0.4,0.1-0.6
	C7.4,15.7,23,3.4,25.5,3.5c0.8,0,1.9,0.1,2.2,0.6c3.7,5.6,6.1,2.7,8.9-0.9c1.5-2,3.9-3.8,6.7-3c3.2,0.8,4.7,3.6,5.2,6.7
	c1.5,9.1,0.8,17.9-5.3,25.3c-3,3.7-3.5,7-1.3,11.3c4,7.7,5.1,16.4,6.9,26.5c2.9-7.8,7.4-13.1,7.1-20.6c-0.2-5.6,2.9-10.6,8.1-13.7
	c4.3-2.5,6.2-1.4,6.3,3.4c0.2,5.6-2.3,10.4-6.4,13.4c-9.2,6.8-11,16.8-12.7,27c-0.4,2.5-0.2,5.1-0.1,7.7c0.9,15.1,1.6,30.2,1.9,45.4
	c3.5-6.6,7.2-13.1,10.4-19.7c1.6-3.2,0.3-7.8,0.5-11.7c0.1-3.2,0.3-6.8,4.1-7.7c3.5-0.9,7.2-1,8.9,3.4c0.7,1.8,2.1,1.3,3.4,1.6
	c4.6,0.8,5.8,3.1,4.2,7.6c-2,5.8-6.7,10-12.3,9.6c-7.6-0.4-9.3,4.2-11.4,9.3C60.4,126,60,127.1,59.3,128.8z M33.6,31.8
	c-1.4-4.6-4.6-7.3-6.3-10.8c-1.4-3.1-2.9-6.2-0.5-9.4c1.1-1.4,1.9-2.6,0.1-3.9c-1.6-1.2-2.6,0-3.6,0.9c-3,2.9-6,5.6-9.9,7.4
	c-3.7,1.7-3.5,4.9-0.7,7.1C18.5,27.7,24.9,31.6,33.6,31.8z M44.6,13.3c0-1.4,0.1-3.2,0-5c-0.1-1.5-0.3-3.4-2-4
	c-1.8-0.7-2.9,0.8-4,1.9c-1.5,1.6-2.7,3.4-4.4,4.7c-5.8,4.5-6,5.4-2.1,11.3c1.3,2,2.8,3.8,3.9,5.9c1.6,2.8,2.9,2.9,4.5,0.1
	C43,23.7,45.1,19,44.6,13.3z M26.6,36.1c-5.3-2.9-10.9-5.1-15.7-8.7c-3-2.3-4.2,0.5-5.5,2.1c-2.1,2.6,0.6,3.4,2.1,4.2
	C13.4,36.8,19.9,36.8,26.6,36.1z M67.1,110.3c3.5-3.1,5.6-5.4,6.8-8.3c1-2.5,1-4.8-2.2-5.6c-2.8-0.7-4,1.1-4.2,3.6
	C67.4,102.9,67.3,105.8,67.1,110.3z M40.4,94.8c-4-3.3-8-6.1-14-3C30.8,95.3,35.4,95.8,40.4,94.8z M29.7,74.9
	c-2-5.8-5.2-9.3-9.8-12.2C20.4,69.9,22,72,29.7,74.9z M70.2,130.7c-9.9,1.2-13,3.2-14.1,9.1C61,137.3,66,135.5,70.2,130.7z
	 M59.4,51.5c6.7-5.7,8.3-9.1,6.4-13.3C61.6,42.3,60.8,43.8,59.4,51.5z M69.9,112.7c5.6-1.4,9-3.6,10.8-7.9c0.4-1,1.1-2.3-0.6-2.9
	c-1.3-0.5-2.3-0.1-2.8,1.2C76.1,106.7,73.4,109.2,69.9,112.7z"/>
</svg>
