<?xml version="1.0" encoding="utf-8"?>
<!-- Generator: Adobe Illustrator 25.3.0, SVG Export Plug-In . SVG Version: 6.00 Build 0)  -->
<svg version="1.1" id="Layer_1" xmlns="http://www.w3.org/2000/svg" xmlns:xlink="http://www.w3.org/1999/xlink" x="0px" y="0px"
	 viewBox="0 0 148.5 250.8" style="enable-background:new 0 0 148.5 250.8;" xml:space="preserve">
<g>
	<path d="M10.4,50.3c0.8,1.1,2.1,0.8,3.1,0.5c3.1-0.9,5.5,0,7.2,2.8c0.2,0.3,0.5,0.8,0.8,0.8c5.1-0.3,9.5,2.8,14.4,3.2
		c4,0.3,6.2-1.4,4.7-6.2c-1.4-4.3-1-8.9,0.4-13.3c1.8-5.6,2-11.2-1.3-16.3C38,19,39,17,40.9,15.3c2.3-2.1,4.7-1.2,6.6,0.5
		c4.5,4,6.7,9.5,8.7,15c5.9,16.1,7.8,32.9,9.1,49.9c1.5,19.2,3.3,38.3,2.6,57.6c-0.1,2-0.2,4-0.4,6c-3.2-5.3-5.9-10.5-9-15.4
		c-2.3-3.6-5.2-6.5-8.8-8.6c-3.1-1.7-6.5-4.5-9.8-2.1c-3.1,2.3-2.6,6.5-2.2,10c1.4,12.5,11.1,18.3,20.5,23.8
		c8.6,5.1,8.9,4.7,7.1,14.8c-3.8,21.9-7.7,43.7-11.6,65.6c-0.3,1.7-0.5,3.4-0.8,5c-0.2,1.3-0.4,2.9,1.2,3.3c2,0.5,2.4-1.3,2.7-2.8
		c1.6-8.3,3.1-16.7,4.6-25c1.6-8.9,3.2-17.8,4.7-26.7c0.5-3.1,1.8-5,5-5.9c8-2.2,14.5-7,20.7-12.4c5.1-4.4,6.8-10.3,6.7-16.7
		c-0.1-5.8-2.6-7.4-8.1-5.4c-5.3,1.9-9.8,4.8-13.1,9.4c-2.4,3.4-4.7,6.7-7.9,11.5c0.5-4.3,0.7-7.1,1.1-9.9c2-16.7,1.4-33.5,1-50.2
		c-0.4-16.7,5-31.5,16.1-44c5.9-6.6,13.7-6.8,19.4-1.1c3.3,3.3,5.1,6.8,1.4,11.3c-3.8,4.7-2.8,10.5-1.7,15.8
		c1.3,6.7,2.8,13.3,2.7,20.1c0,1-0.3,2.5,1.2,2.7c0.7,0.1,1.8-0.6,2.3-1.2c2.4-2.8,5-4.4,8.8-2.5c1.6,0.8,2.9-0.5,3.7-1.8
		c1.2-1.8,2.8-2,4.4-1.1c4.1,2.4,5.8-0.8,7.8-3.2c2.1-2.7-0.4-4.1-1.8-5.6c-3.5-3.7-5.4-8.1-6.4-13c-1.4-6.5-4.9-11.4-11.2-13.9
		c-3.4-1.4-5-4.5-7.2-7c-8.3-9.7-17.9-9.8-26.4-0.1C78,69.4,74.1,78.5,70.1,87.8c-1-9.7-1.8-19.4-3.1-29c-1.6-11.8-4.3-23.3-9-34.3
		c-1.7-3.8-3.6-7.5-6.5-10.5c-2.6-2.7-6.1-5.1-9.5-3.4c-9.9,4.9-21.3,8.4-23.9,21.5c-1.1,5.4-3,10.5-6.7,14.8
		C10.6,47.8,9.4,48.8,10.4,50.3z M120.5,73.2c3.1,2.1,5.1,5.1,6,8.6c1.4,6,3.3,11.6,7.8,16c1,1,1.6,2.1,0.4,3.4
		c-0.9,1-1.7,2.1-3.3,1.2c-3-1.6-5.6-1.8-7.7,1.5c-0.7,1.1-2,1-3.1,0.6c-2.9-1.2-5.4-0.5-8.2,1.5c0-6.9-2.2-13-3.3-19.2
		c-0.5-3-0.9-6-0.2-9C110.5,71.1,114.8,69.4,120.5,73.2z M69.9,174.4c2.7-10.2,11.2-21.6,18.8-25c1.9-0.9,4.1-2.8,6.2-1.1
		c1.7,1.4,1.1,3.9,0.8,5.9c-1.1,9.7-13.9,21.5-24.3,22.2c4.8-5.2,9.4-10.2,13.9-15.2c-0.2-0.2-0.4-0.5-0.7-0.7
		C78.7,163.8,75.3,170,69.9,174.4z M62.6,150.7l0-0.2c0,0,0,0,0,0L62.6,150.7z M64.3,147.4c-5.9-5-9.3-12.3-16.3-16.1l-0.2,0.2
		c0.1-0.1,0.2-0.2,0.2-0.2c-0.3-0.1-0.5-0.2-0.8-0.4c0.1,0.2,0.3,0.5,0.4,0.7l0,0c5.4,5.9,10.3,12.3,14.9,18.8
		c-7.7-1-12.1-6.9-17.3-11.5c-4.2-3.8-5.2-8.9-5.1-14.3c0.1-4.4,2.1-5.2,5.7-3.4C56.9,126.6,60.4,137.1,64.3,147.4z M14,47.7
		c3.9-5.1,5.4-9.8,6.6-14.8c0.8-3.5,2.2-6.8,4.5-9.7c4.7-5.9,10.5-5.1,13.4,1.8c1.4,3.3,1.4,6.5,0.5,9.9c-1.5,5.3-2.4,10.6-1.1,16.1
		c0.3,1.2,1.1,2.7-0.6,3.4C35.8,55,34,55.8,33,54.3c-2.2-3-4.8-3-7.9-2c-1.5,0.5-2.6-0.5-3.3-1.6C20.1,48.3,17.7,47.5,14,47.7z"/>
	<path d="M29.1,23.6c-3,6-5.5,12.3-8.2,18.4C22.3,35.2,23.7,28.5,29.1,23.6z"/>
	<path d="M32.9,44c0.8-6,1.7-12.1,2.5-18.1C36.7,32.3,37.2,38.5,32.9,44z"/>
	<path d="M32.8,44.2L32.8,44.2c0-0.1,0-0.1,0.1-0.2C32.9,44.1,32.9,44.1,32.8,44.2c0,0.1,0,0.2,0,0.2C32.8,44.3,32.8,44.2,32.8,44.2
		C32.8,44.1,32.8,44.2,32.8,44.2z"/>
	<path d="M32.9,45.8c-0.2,0-0.4,0-0.6,0c0.2-0.4,0.3-0.9,0.5-1.3C32.9,44.8,32.9,45.3,32.9,45.8z"/>
	<path d="M115.1,98.5c-4.4-9.5-5.2-17-1.9-22.5C113.3,84.3,113,91.6,115.1,98.5z"/>
	<path d="M119.1,75.8c5.3,5.7,7,12.7,7.9,20.1C124,89.4,122.2,82.4,119.1,75.8z"/>
	<path d="M127.1,96.2C127,96.2,127,96.2,127.1,96.2C127,96.2,127,96.2,127.1,96.2C127,96.2,127,96.2,127.1,96.2c0-0.1,0-0.2,0-0.3
		C127,96,127.1,96.1,127.1,96.2L127.1,96.2z"/>
</g>
</svg>
