<?xml version="1.0" encoding="utf-8"?>
<!-- Generator: Adobe Illustrator 25.3.0, SVG Export Plug-In . SVG Version: 6.00 Build 0)  -->
<svg version="1.1" id="Layer_1" xmlns="http://www.w3.org/2000/svg" xmlns:xlink="http://www.w3.org/1999/xlink" x="0px" y="0px"
	 viewBox="0 0 187.4 251.8" style="enable-background:new 0 0 187.4 251.8;" xml:space="preserve">
<path d="M110.6,187.3c-1.2-4.8-2.1-8.5-3-12.2c-4.6-18.1-5.8-36.8-7.7-55.3c-0.4-4.1,0.2-8.3,0.3-12.4c0-1.5,0.2-3.5-2.3-1.4
	c-0.8,0.7-1.7,1.4-2.8,0.8c-1.2-0.7-1-2-0.8-3.1c0.4-2.5,1-5,1.5-7.4c0.1-0.5,0.5-1.1,0.1-1.6c-0.6-0.6-1.3-0.1-1.8,0.2
	c-3.5,1.7-7.3,2.7-11.1,3.7c-1,0.3-2,0.8-2.9-0.1c-1-1-0.3-2.2,0.1-3.2c0.8-2.3,2.6-4,4.3-6.3c-3.7-0.1-6.9,1.1-10.1,0.7
	c-1.1-0.1-2.6,0.3-3-1.1c-0.5-1.5,0.9-2.3,1.8-3c2.3-1.7,5.2-2.5,7.9-3.3c1.8-0.5,2.6-0.7,1-2.8c-7.4-10-12.8-21-15.9-33
	c-2-7.8-0.3-15.1,5.6-21c0.6-0.6,1.1-1.2,1.4-2c2.2-7.3,8.4-9.9,14.7-12.2c0.7-0.3,1.7-0.6,2.3-0.3c3.9,1.8,7.5,0.4,11.3-0.6
	c0.9-0.3,2.2-0.2,3,0.2c6.5,3.2,13.6,2,20.3,3.2c1.4,0.3,2.7-0.1,4.1-0.5c4.2-1.1,7.3-0.2,9.6,3.4c1.7,2.6,4,4.4,6.6,5.9
	c4.1,2.2,6.2,5.4,5.3,10.2c-0.2,0.9-0.1,1.9,0.2,2.7c4.2,11.6,0.6,22-5.4,31.8c-5.3,8.7-12.9,14.9-21.9,19.4
	c-0.8,0.4-1.8,0.5-2.4,1.6c2.3,1.4,4.5,2.8,6.8,4.3c0.9,0.6,2.1,1.4,1.6,2.7c-0.5,1.3-1.9,1.2-3,1.2c-1.8,0.1-3.4-0.5-5-1
	c-1.2-0.4-2.5-1.6-3.5-0.9c-1.1,0.9,0.4,2.2,0.6,3.4c0.5,2.6,1,5.2,1.4,7.8c0.2,1.1,0.3,2.4-1,3.1c-1.4,0.7-2.4-0.1-3.4-0.9
	c-2.4-2.1-4-4.7-5.3-7.6c-0.8-1.8-1.5-3.6-2.6-6.1c-2,3.7-4.6,6.1-4.9,10.1c-1.1,13.4,0.8,26.6,2.1,39.9c2,21.6,7.5,42.3,15.1,62.5
	c3.1,8.3,5.8,16.7,7,25.6c0.1,0.8,0.1,1.6,1,2.4c6.3-13.1,12-26.2,13.6-41c0.8-7.3-2.4-11.7-6.7-16.3c-1.2-1.3-2.6-1.3-4.1-1.4
	c-5.1-0.3-9.9-1.7-14.4-4.3c-3-1.7-4.4-4-3.2-7.4c0.7-2,0-3.6-1-5.2c-1.8-2.7-3.6-5.4-4.3-8.6c-0.9-4.3,1.3-6.5,5.6-5.2
	c3.5,1,5.4,3.8,7.1,6.7c1.5,2.6,2.9,5.2,6.8,4.4c1.5-0.3,2.6,1.2,3.5,2.4c2.3,3.1,3.9,6.8,3.9,10.5c0,5.3,3.3,8.3,7,11.6
	c-0.2-3.5-0.5-6.9-0.5-10.4c0.1-5.1-1.3-9.3-5.1-13c-3.3-3.2-5.7-7.2-7.2-11.7c-0.7-2.1-0.9-4,1.1-5.6c1.9-1.5,1.8-3.9,2.2-6
	c0.8-4.4,1.9-8.8,4.1-12.8c1.4-2.5,3.1-4.6,6.5-3.9c1.6,0.3,2.5-0.9,3.5-1.9c3.8-3.5,7.7-7,12.5-9.1c4-1.8,5.2-0.9,4.7,3.6
	c-0.3,2.7-1.5,5.1-2.9,7.3c-0.9,1.4-1.5,2.7-0.6,4.4c1.3,2.5,0.1,4.9-0.7,7.3c-0.7,1.9-1.5,3.8-2.2,5.8c-0.6,1.6-0.5,3.2,0.9,4.4
	c2.7,2.4,2.5,5.2,1.4,8.2c-2.3,6.3-7.7,9.7-13,12.8c-3,1.8-3.9,3.6-3.5,6.9c0.6,4.2,0.6,8.5,0.8,12.7c0.1,1.7,0.4,2.3,2.2,1.3
	c2.8-1.7,4.9-3.6,4.8-7.3c-0.1-2.8,0.3-6.6,2.5-7.6c7.3-3.2,12.4-10.4,20.8-11.3c3.4-0.4,3.8,0.1,3.1,3.5c-1.2,6-4.1,10.9-8.7,14.9
	c-1.3,1.2-2.6,2.2-1.9,4.4c0.4,1.4-0.9,2.2-2,2.9c-3.5,1.9-7.1,1.5-10.7,0.2c-3.4-1.2-10,2.8-10,6.4c-0.1,15.6-5,29.8-11.8,43.6
	c-1.3,2.6-2.2,5.3-3.4,7.9c-0.5,1-0.2,3-2,2.7c-1.3-0.2-1.1-1.8-1.2-2.9c-0.6-7.5-2-14.8-4.4-21.9c-2.4-7.3-4.9-14.6-7.7-21.8
	c-1.8-4.8-5.7-8-9.7-11c-4.9-3.7-9.8-7.2-14.8-10.8c-3.5-2.6-7.1-1.5-8.4,2.5c-1.8,5.7-5.6,10-10.1,13.6c-2.3,1.8-4.6,1.7-6.3-0.7
	c-1.3-1.9-2.5-1.7-4.3-0.9c-4.5,2.1-8.6,4.9-13.6,5.7c-1.2,0.2-2.7,1.1-3.6-0.2c-0.9-1.3,0.1-2.6,0.7-3.8
	c3.1-5.8,7.4-10.5,13.5-13.4c2.1-1,3.6-2.2,4.4-4.5c1-2.7,3.5-3.5,6.1-3.8c3.7-0.4,7.3,0.1,10.9,1.4c1.8,0.7,3.6,1.3,5.6,0.4
	c-3.8-5.7-5.9-6.5-11.8-4.8c-5,1.4-10,2.7-15.3,2.5c-3-0.1-5.2-1.1-5.3-4.5c-0.1-1.8-1.2-1.9-2.5-2c-3.5-0.4-7.1-0.7-10.6-1.3
	c-6.4-1.1-7.9-2.9-8-9.3c0-1.9-0.9-2.3-2.5-2.4c-3.9-0.2-7.8-0.7-11.6-1.8c-1-0.3-2-0.6-2.9-1.1c-1.4-0.8-3-1.5-3.1-3.4
	c-0.1-1.9,1.7-2.3,3-3c5.7-3,11.8-4.8,18.3-4c4.4,0.6,7.6-0.6,9.9-4.5c1.9-3.3,4.9-2.9,7.9-1.7c4.8,1.9,8.5,5.5,12,9.2
	c1.8,1.9,2.9,1.9,4.7,0.1c3.1-3.3,5.3-3,8.1,0.7c2.2,2.9,3.4,6.3,4.3,9.7c0.3,1,0,2.8,1.4,2.7c1.5-0.1,1.3-2,1.3-3.2
	c0.1-4.7,1.5-9.1,3-13.4c0.3-1,0.5-2.3,1.7-2.3c1.3,0,1.4,1.3,1.8,2.2c2,4.5,3.4,9,3,14c-0.1,1.1,0.1,2.1,0.7,3
	c2.5,3.1,1.1,5.9-0.9,8.5c-2.8,3.7-2.1,10.3,1.6,13.2C97.6,177.6,104.3,181.3,110.6,187.3z M109.6,87.4c0.6,0,2-0.1,3.5-0.2
	c0.8-0.1,1.6-0.2,2.4-0.4c18.1-5.4,29.4-17.5,33.8-35.7c2.1-8.9,1.2-17.4-8.8-21.8c-0.5-0.2-0.9-0.7-1.4-1c-2.7-2.2-5.6-2.3-8.8-1.2
	c-2.1,0.8-3.9,2-5.6,3.3c-2.9,2.4-6,2.5-9,0.7c-4.5-2.7-8.3-1.8-12.1,1.2c-3.2,2.5-6.7,3.8-10.8,4.1c-3.4,0.2-6.9,0.7-9.5,3.4
	c-6.1,6.2-9.1,13.5-7.6,22.2C78.6,77.8,91,87.3,109.6,87.4z M72.7,57c0.7-3.4,1.5-6.6,2.8-9.6c3-6.7,7.1-12.3,15.1-12.9
	c5.4-0.4,9.9-2.3,14.2-5.4c2.4-1.7,1.5-2.6-0.4-3.6c-2.1-1.2-4.6-0.4-6.7-1.2c-6.5-2.4-12.6-2.1-19.2,0.3c-3.9,1.4-6.7,3.1-8.5,6.7
	C65.4,40.4,68.3,48.8,72.7,57z M102.5,12.2c-4.3,0.5-7.8,2.4-10.7,5.6c-1.2,1.3-0.9,2.2,0.7,2.9c2.3,1.1,4.8,1.4,7.4,1.5
	c2.8,0.1,5.5,0.6,7.6,2.7c3.5,3.4,8.3,3.3,12.4,5c0.7,0.3,1.8-0.1,2.6-0.6c2.4-1.3,4.7-2.8,7.1-4.3c0.8-0.5,1-1,0.8-2
	c-0.7-3.8-4.4-7.6-8.2-7.6c-6-0.1-11.9-0.4-17.5-2.8C103.9,12.3,103.2,12.3,102.5,12.2z M64.8,152.6c-0.8-4.1-0.2-7.7-2.3-10.4
	c-2.2-2.7-5.1-4.9-7.7-7.3c-0.9-0.9-1.8-1.2-2.9,0c-3.1,3.2-2.7,9.9,1.1,12.1C56.5,149.1,60.4,150.6,64.8,152.6z M62.6,154.6
	c-1.7-1.4-7.6-4.4-9.4-4.7c-4.5-0.8-9.5,1.6-11.7,5.3c-1.2,2-0.8,2.6,1.5,3.1C50.1,159.9,56.5,158.1,62.6,154.6z M77,155.1
	c-0.3-4.1-1.2-8.2-3.1-12.1c-0.4-0.9-0.9-2.3-2.2-1.3c-2.5,1.9-4.9,4.1-5.1,7.4c-0.2,2.9,1.1,5.3,4,6.7c0.9,0.4,1.7,1.1,2.7,1.6
	c1.1,0.5,2.1,2,3.3,1.2C77.5,158,77,156.4,77,155.1z M150.4,153.4c2.2,0.3,5.8-2.6,6.1-5c0.4-2.8-2.4-2.5-3.8-3.5
	c-0.5-0.3-1.1-0.4-1.6-0.6c-2.9-0.9-7.1,0.9-8.5,3.7c-1.6,3.2-0.2,5.5,3.3,5.4C147.5,153.3,149,153.4,150.4,153.4z M140.4,143.2
	c0.9-3.3,2.1-6.5,2.8-9.9c0.6-3.3,0.6-6.6-2.2-9.3c-2.4-2.3-2.8-2.3-4.1,0.8C133.9,131.6,137.5,137.3,140.4,143.2z M48.4,144
	c-1.2-3.7-2.6-7.4-3.7-11.1c-0.6-2.2-1.4-2.1-2.5-0.4c-1.7,2.4-3.8,4.3-6.9,4.6c-1.9,0.2-1.7,1.1-1,2.3c0.7,1.2,1.6,2.3,3,2.7
	c3.2,1,6.3,1.9,9.5,2.8C47.7,145.2,48.4,145.2,48.4,144z M143.5,144c1.8-1.2,3.4-2.8,5.2-3.4c5.4-1.7,6.3-6.4,7.8-10.7
	c0.3-0.8,1-1.9-0.8-1.8C148.7,128.7,142.9,136.1,143.5,144z M131.5,14.8c-0.9,0.1-1.9-0.2-2.3,1c-0.2,0.6,4.1,8,4.8,8
	c4.3,0.3,7,3.6,10.6,5.3c1.1,0.5,2.4,2.5,3.4,1.3c1.1-1.5-0.3-3.2-1.6-4.4c-0.8-0.7-1.7-1.2-2.6-1.7c-3-1.8-5.7-3.7-7.4-7
	C135.5,15.3,133.5,14.9,131.5,14.8z M74.9,161.7c-6.9-7.2-13.1-6.6-17.2,1c-1,1.8-1,2.9,1.5,2.6C64.6,164.8,69.8,163.7,74.9,161.7z
	 M139.8,158.9c0.5-3.6,0.5-6.3,0.2-9c-0.4-3.5-2.2-5.9-5.3-7.5c-1-0.5-2.1-1-3.2-0.2c-1.2,0.9-1,2.2-0.6,3.4
	C132.7,150.5,135.7,154.6,139.8,158.9z M47.1,147.9c-3-1.7-5.8-2.6-8.7-3.2c-2-0.4-4.5-0.1-5.2,1.6c-0.9,2.1-1.2,4.6-0.7,7.1
	c0.2,0.8,0.9,1,1.7,0.6C38.3,152,42.5,150,47.1,147.9z M79.3,22.4c4-1.3,9.2-2.3,12.2-7.3c0.3-0.5,0.9-1,0.4-1.5
	c-0.7-0.7-1.7-0.9-2.6-0.5c-2.9,1.1-5.8,2.2-8.6,3.5c-1.7,0.8-2.8,2.3-3.7,3.9C75.9,22.1,76.4,22.8,79.3,22.4z M82.4,96.1
	c5-0.8,9.1-2.3,13-4.5c1.1-0.7,3-1.2,2.6-2.7c-0.3-1.3-2.2-1.3-3.5-1.7c-1.2-0.4-2.3-0.2-3.4,0.3C87.5,89.2,84.4,91.4,82.4,96.1z
	 M149.1,128.7c2.5-1.1,5-2.2,7.5-3.3c1.3-0.6,1.9-1.4,1-2.7c-1.4-2.1-0.5-3.9,0.6-5.8c1.1-1.8,2.6-3.5,2.4-6.5
	C155.2,115.8,151.7,121.8,149.1,128.7z M65.5,186.5c0.3-0.2,0.6-0.2,0.7-0.4c2-2.7,3.6-5.5,4.4-8.8c0.2-1-0.7-1.1-1.4-0.7
	c-3.5,1.5-6.9,3.1-9.8,5.5c-0.8,0.7-1.6,2-1.1,3.1c0.7,1.3,1.7,0,2.6-0.3c1.4-0.5,2.6-0.8,3.6,0.7C64.8,186,65.2,186.2,65.5,186.5z
	 M97.1,103.3c3.8-2.8,6.2-5.8,7.7-9.4c0.6-1.4,1.4-3.3-0.6-4.3c-1.9-1-3,0.5-3.8,1.9C98.2,94.9,97.2,98.5,97.1,103.3z M117.3,106.7
	c-0.1-4.9-0.9-8.7-2.8-12.1c-1-1.7-2-3.4-3.7-4.4c-0.4-0.2-1.2-0.3-1.6-0.1c-0.6,0.3-0.5,1-0.3,1.5
	C110.9,96.6,112.4,102,117.3,106.7z M124.8,167.3c-2.6-2.8-4.7-5.2-6.9-7.5c-0.6-0.6-1.3-0.9-2.2-0.8c-0.5,0.1-0.9,0.4-0.7,0.9
	c0.9,2,0.1,3.8-0.3,5.7c-0.3,1.5,0.9,1.7,2,1.7C119.1,167.4,121.5,167.3,124.8,167.3z M31.8,143.3c-6.1-1.4-11.7-1.9-18.2-1
	C19.7,146,28.1,146.4,31.8,143.3z M79.3,154.7c-0.6,7.3,1,10,7.1,12.9C86.8,162.1,82.2,159.4,79.3,154.7z M146.4,127.5
	c1.4-2.8,3-5.6,4.3-8.4c0.4-0.8,0.4-2.1-0.6-2.8c-1-0.7-1.7,0.4-2.3,0.9C144.5,120.1,145.6,123.8,146.4,127.5z M70,173.3
	c-2.5-1-5.4-2.5-6.6-0.5c-1.7,2.8-3.9,4.5-6.7,6.2C59.1,179.5,64.8,176.9,70,173.3z M73.4,183.1c2.5-2.1,3.8-4.6,4.9-7.2
	c0.3-0.7,1-1.5,0-2.1c-0.7-0.5-1.5-0.1-2.3,0.2C72.8,175.2,72,177.9,73.4,183.1z M18.3,139.2c4.6,0.5,8.2,1,11.8,1.4
	c0.6,0.1,1.4,0.3,1.8-0.6c0.3-0.7-0.2-1.3-0.6-1.9c-0.6-0.7-1.4-1.2-2.4-1.2C25.4,136.7,22.1,137.2,18.3,139.2z M119.3,155.9
	c0.4,3.4,3.2,5.3,5.1,7.8c0.5,0.6,1.3,2,2.1,1.2c1.3-1.3,1-3.2,1-4.9c0-0.9-0.6-1.7-1.5-1.3C122.9,159.6,121.2,157.8,119.3,155.9z
	 M75.7,86.8c4.4,0.6,8.5-0.3,12.5-2.1C83.4,82.2,79.7,85.2,75.7,86.8z M158.9,171.9c2-1.7,3.9-2.6,4.7-4.6c0.4-1.1,0.4-2.4-0.7-3.1
	c-1.2-0.8-1.9,0.4-2.5,1.1C158.7,166.9,158.9,169.1,158.9,171.9z M156.8,169.5c0-0.9,0.1-2.4-1-2c-2.7,1-2.5,3.7-3,6
	c-0.1,0.6-0.4,2.1,0.7,1.8C156.4,174.5,156.3,171.8,156.8,169.5z M169.4,169.5c-4-0.7-6,1.5-8,3.4c-0.3,0.2-0.4,1.1-0.3,1.1
	c0.5,0.3,1,0.5,1.6,0.5C165.7,174.4,166.9,171.7,169.4,169.5z M130.1,173.5c-1.5-2.7-3.4-4-6.2-3.5c-0.8,0.1-1.6,0.5-1.7,1.4
	c-0.1,0.9,0.8,1,1.4,1.2C125.6,173.1,127.5,173.9,130.1,173.5z M148.7,155.8c-1.9-0.5-3.5-0.6-5,0.1c-1.4,0.6-1.8,1.9-1.2,3.1
	c0.7,1.4,1.8,0.5,2.6,0C146.4,158.3,147.8,157.6,148.7,155.8z M158.5,180.2c0.9-0.2,2.2,0.1,2-0.8c-0.3-1.6-1.6-2.9-3.3-2.9
	c-1.2,0-3,0.8-2.8,1.9C154.8,180.4,157.1,179.7,158.5,180.2z M88,158.3c3.1-2.9,2.9-4.8-0.8-7.7C86.9,153.3,87.1,155.8,88,158.3z
	 M110.7,147.6c2.1,2.2,3.2,4.6,5.7,6.1C116.7,149.6,115.3,148,110.7,147.6z M83.4,150.4c-2.4,3-1.3,5.2,1.5,7.8
	C85.2,155,85,152.7,83.4,150.4z M66.4,144.1c0.9-1,1.9-1.8,2.5-2.8c0.6-1,3-1.7,1.4-3.1c-1.7-1.5-2.8,0.6-3.7,1.7
	C65.7,141.1,65.2,142.4,66.4,144.1z M132.3,171.2c-0.1-2,0.4-4.3-1.7-5.5c-0.6-0.3-1.4,0.3-1.6,1C128.4,169.3,130.6,170,132.3,171.2
	z M47.8,130.4c-0.7-0.1-1.4,0.2-1.1,1.1c0.5,1.4,0.1,3.6,1.8,4c1.2,0.2,1.8-1.6,1.9-2.8C50.6,131,49,130.9,47.8,130.4z M173,158.3
	c-4.2,0-5.5,1.5-5.3,5.5C169.8,162.3,171.5,160.7,173,158.3z M157.4,142.6c-0.5-1.2-1.6-2.3-3.4-2.2c-0.9,0-2.4,0.5-2,1.3
	c0.8,1.8,3,1.7,4.6,2.4C157.2,144.3,157.6,143.7,157.4,142.6z M48.6,190.2c3.6-0.1,5.4-2,6.4-4.8C52.7,186.6,50.3,187.7,48.6,190.2z
	 M54.5,181.5c-3.1,0-4.5,2.3-5.9,4.7C50.9,185.1,53,183.8,54.5,181.5z M116.9,90.6c2.1,1.6,4.3,2.9,7.7,2.8
	C121.9,91.4,119.7,90,116.9,90.6z M168.3,166.5c4.1-0.2,4.8-0.9,4.7-3.9C171.8,163.6,170.4,164.8,168.3,166.5z M156,111.3
	c-1.2-0.3-1.9,0.6-2.7,1.1c-0.8,0.5-1.4,1.2-1.1,2.3c0.1,0.3,0.4,0.6,0.7,0.6c0.9,0,1.3-0.9,1.7-1.5
	C155.1,113.1,156.2,112.5,156,111.3z M76.2,171.3c-2.3-1-4-1.5-6.7-0.9C72,171.3,73.5,172.9,76.2,171.3z M111.2,151.7
	c-0.3,2.2,0.4,3.7,3.4,4C113.2,154,112.2,152.8,111.2,151.7z M86.9,146.4c1.7-1.9,1.1-3.4,0.1-4.9C86.6,143.1,86.3,144.6,86.9,146.4
	z M38.8,154.5c-1.3,0.4-2.6,0.5-2.9,1.7c-0.2,0.6,0.6,0.9,1.2,0.9C38.5,157,38.9,156.1,38.8,154.5z M56.3,160.5
	c-2,0.4-2.7,1.4-2.7,2.8c0,0.2,0.5,0.6,0.6,0.6C55.5,163.4,55.7,162.1,56.3,160.5z M134.5,136.4c-1.4,2-0.9,2.9,0.9,3.6
	C135.9,138.7,135.2,137.8,134.5,136.4z M68.3,188.1c1.9-1.2,3-2,2.2-3.9C69.3,185.1,68.7,186.1,68.3,188.1z M143,122.4
	c0.3-1,0.1-1.8-1-2.1c-0.2-0.1-0.7,0.2-0.7,0.3C141.3,121.7,141.9,122.2,143,122.4z M83.9,145.1c0.2-0.6,0.5-0.9,0.4-1.1
	c-0.1-0.4,0.4-1.3-0.4-1.1C83.5,143,83,144,83.9,145.1z"/>
</svg>
