<?xml version="1.0" encoding="utf-8"?>
<!-- Generator: Adobe Illustrator 25.3.0, SVG Export Plug-In . SVG Version: 6.00 Build 0)  -->
<svg version="1.1" id="Layer_1" xmlns="http://www.w3.org/2000/svg" xmlns:xlink="http://www.w3.org/1999/xlink" x="0px" y="0px"
	 viewBox="0 0 102 220.1" style="enable-background:new 0 0 102 220.1;" xml:space="preserve">
<path d="M35,50.6c-6.6,7.2-8.5,7.6-16.3,4.6c-1.7-0.7-3.4-1.3-5.1-1.9c-8-2.8-8.8-5.9-3.5-13c-2-0.9-4.2-1.6-5.8-2.8
	c-2.8-2.1-6.4-4.2-2.9-8.7c1.3-1.7,0.1-3.9,0.2-5.9c0.4-6.6,3.9-9.4,10.4-8.1c2,0.4,2.2-0.2,2.7-1.9C18.8,0,29.5-3.7,40.2,4
	c1.2,0.8,2.1,1.5,3.8,1.2c7.3-1.4,16.1,4.2,19.7,11c3.5,6.6,2.5,11.8-2.7,16.6c-1.8,1.7-1.8,2.9-0.5,5.1c2.9,4.7,1.8,8.3-3,10
	c-4.5,1.6-9.3,2.4-13.9,3.6c-2,0.5-3.2-1.2-5.1-2.2c2.7,28,7.2,55.3,7,83.3c1.8-1.1,1.7-2.8,2-4.2c2.3-10.7,6.2-20.8,12.1-30
	c1.6-2.5,2.1-3.6-1.6-4.8c-6.2-2-13.9-14-10.8-19.6c2.5-4.5,2.9-10.3,7-13.9c0.4-0.4,1-0.9,1.5-0.9c5.1,0.4,9.5-3.5,14.2-2.8
	C80,58,88.7,62.7,94.8,71.4c0.6,0.8,1.1,1.9,1,2.8c-0.3,4.4,1.3,7.8,4.4,11c4.7,4.9-0.4,10.9-6.4,15.7c-1,0.8-2.6,0.5-3.6,1.9
	c-4.3,6.4-8.3,7.5-16.7,4.9c-5-1.6-7-4.9-7.2-12.3c-4.9,4.1-12.5,21.4-13.5,30.8c3.7-2.1,7.2-4,10.6-5.9c0.9-0.5,1.6-1.3,2.7-0.8
	c1.4,0.7,1,2,0.9,3.2c-1,6.7-4.1,12.6-9.7,16.1c-10.1,6.5-11.9,15.4-10.6,26.4c0.9,8.1,0.2,16.4,0.2,25.3c3.6-5.8,3.5-11.8,4.2-17.4
	c0.9-7.2,3.5-13.6,7.4-19.5c4.4-6.7,11.2-9.5,18.6-11.3c3.6-0.9,2.8,1.4,2.4,3.6c-2.8,16.5-9.6,29.9-24.7,39.3
	c-7.1,4.4-8.5,14.1-8.6,22.7c0,4,0.5,8-1.1,12.4c-3.2-2.8-3.1-6.2-3.1-9.5c0.1-7,0.3-14.1,0.6-21.1c0.1-2.6,0.2-4.2-3.2-5.1
	c-6.3-1.8-9.4-7.2-11.8-12.9c-2.6-6.2-2.9-13.4-7.4-18.9c-1.5-1.8-0.1-3,2-2.6c3.1,0.5,5.5,2.4,7.7,4.4c4.3,4,8.1,8.3,12.2,12.9
	c0.5-8.4,1-16.8-1.1-25.1c-1.8-7-5.1-13.5-7.8-20.2c-0.8-1.9-1.9-2.8-4.1-2.8c-5.4,0-9-3.3-11.4-7.7c-4.5-8.1-7.9-16.7-8.9-26
	c-0.3-2.8-1.1-5.5-1.6-8.3c-0.3-1.3-1.5-2.7-0.3-3.9c1.4-1.4,3-0.2,4.5,0.4c5.3,2,9.2,5.6,12.3,10.2c5.8,8.7,9.5,18.2,10.7,28.5
	c0.7,5.7,3.1,10.6,5.8,15.6C41.5,102.5,36.2,77.4,35,50.6z M70.4,148.6c-9.5,4.1-12.1,12.9-14.5,21.9c4.1-7.8,10.7-13.9,14.4-22
	l0.3,0.3L70.4,148.6z M32,3.4c-7.9,0-14.4,5.2-14.5,10.9c-0.1,2.8,6.8,7.4,10.9,7.3c4.1-0.1,12-8.4,11-12.5
	C38.5,5.5,35.1,3.6,32,3.4z M11.9,36.5c4.6-0.1,9.9-4.6,10.9-10.2c0.8-4.5-4-3.8-6.3-5c-9.7-5-9.8-4.8-11,6.5
	C4.7,34.5,6.3,36.6,11.9,36.5z M31.9,45.1c-0.1-0.2-0.2-0.8-0.5-1.2c-3.7-4.4-15.3-4.3-19.2,0.1c-2.1,2.4-2.3,4.1,1.1,5.3
	c3,1,6,2.3,9,3.3C26.7,53.9,31.8,50.1,31.9,45.1z M60.1,17.6c-3.8-5.2-7.6-9.7-12.7-9.7c-5,0-6.3,6-8.5,10c-0.2,0.3-0.4,0.7-0.6,1.1
	c-0.9,1.7,0.1,2.5,1.4,3.4c1.3,0.9,2.2,0.4,2.9-0.7C47,15.5,52.8,15,60.1,17.6z M27.8,157.7c2,9.7,4,19.3,15,24.8
	C42.5,170.5,34.5,164.4,27.8,157.7z M44.3,47.6c3-2.2,7.3-1.4,11.1-2.8c3.5-1.3,4.2-3.5,1.5-6.4c-2.4-2.6-5-4-8.3-1.4
	c-2.3,1.9-4.8,3.5-7.2,5.4c-0.9,0.7-2.3,1.3-1.4,2.8C40.9,46.6,41.9,47.9,44.3,47.6z M62,23.5c-0.2-0.5-0.2-1.1-0.4-1.2
	c-3-1.6-6.3-2.6-9.7-2.4c-2.8,0.2-4.9,1.7-6.3,4.1c-0.6,1.1-0.4,2.2,0.7,2.4c3.3,0.6,6.2,1.7,7.5,5.1c0.3,0.8,1.2,1.1,2,0.5
	C58.8,29.8,60.6,26.7,62,23.5z M65.8,88.6c-3.4-2.6-6.2-5.8-6.9-9.7c-0.7-4.2-3.3-6-6.6-4.9c-3.8,1.3-1.1,4.9-0.5,7
	C54.2,89.2,58.9,91.8,65.8,88.6z M21.2,35.6c14.1,6.9,19.3,5.8,27.6-5.8C39.7,34,30.6,32.5,21.2,35.6z M82.5,93.5
	c-0.1,0,1.3,0.1,2.6-0.2c1.8-0.4,4.5,0.3,4.6-2.5c0-2.1-1.9-3.6-3.8-4.2c-4.7-1.5-9.5-1.1-14.2,0.1c-2.7,0.7-2,2.5-0.3,3.9
	C74.3,92.9,77.5,93.7,82.5,93.5z M28.2,116.1c0.5-0.3,1.1-0.7,1.6-1c-5.3-9.2-10.6-18.4-16-27.6C16.7,98,17.2,109.9,28.2,116.1z
	 M88.5,96.7c-3.3,0.5-5.5,1.1-7.6,1c-2.2,0-4.3-0.7-6.5-1.1c-1.3-0.2-2.6-1.9-3.7-0.3c-1.1,1.6-0.4,3.5,0.5,5.1
	c1.3,2.1,10.2,4.4,13.5,3.5C88.6,103.7,87.2,100.1,88.5,96.7z M77.6,65.9c-0.1-3.5-3.7-6.4-7.8-6.4c-3.8,0-4.5,2.4-4.5,5.5
	c0,2.8,1.1,6.1,3.9,5.1C72.1,69.2,77.8,72.7,77.6,65.9z M57.3,178c9.1-6.9,14.5-16.1,17.2-26.9C67.7,159.4,61.7,168.2,57.3,178z
	 M92.5,75.2c-0.7-2.8-2.2-5.4-5.9-5.1c-2,0.2-5.8,0.4-4.9,2.6c1,2.7,1,7.3,4.6,7.9C88.8,81,92.2,79.5,92.5,75.2z M28,104.9
	c-2-10-5.4-19-13.8-25.2c0.7,2.6,1.8,4.9,3.1,7.1C20.8,92.9,24.4,98.9,28,104.9z M75.4,82.6c1.1-2,5.9,1.6,5.4-2.8
	c-0.4-3.5-3.1-6.4-7.4-6.6c-1.8-0.1-3.4,0.9-2.7,2.8C71.7,78.5,70.2,82.6,75.4,82.6z M50.4,139.7c4.4-4.5,10.5-7.6,12.6-14.9
	C55.8,127.9,50.5,131.6,50.4,139.7z M89.2,98.1c4.9-0.7,5.7-3.4,7.2-5.4c2.7-3.4,0.2-9.3-4.1-9.7c-1.5-0.1-3.2,0.7-1.6,2.4
	C94.4,89.6,93.7,93.4,89.2,98.1z M67.6,84.9c0.9-6.8-1-11.3-5.9-14.3C61.5,76.3,62.6,81.2,67.6,84.9z M25.9,29.6
	c5-0.1,9.7,0.1,14.5-1.9C34.8,22.9,29.9,23.5,25.9,29.6z M54.8,67.4c0,1.4-0.3,3,1.4,3.5c2.2,0.7,2-1.3,2.3-2.5
	c0.3-1.2,0.9-2.2,2-2.8c1.3-0.6,1.9-1.7,1.3-2.9c-0.7-1.6-2.5-1.2-3.7-0.9C55.2,62.6,54.7,64.9,54.8,67.4z M85.7,66.1
	c-1.5-1.6-2.6-3.1-4.3-2.2c-0.9,0.5-0.6,2-0.1,2.7C82.7,68.5,84,66.8,85.7,66.1z"/>
</svg>
