<?xml version="1.0" encoding="utf-8"?>
<!-- Generator: Adobe Illustrator 25.3.0, SVG Export Plug-In . SVG Version: 6.00 Build 0)  -->
<svg version="1.1" id="Layer_1" xmlns="http://www.w3.org/2000/svg" xmlns:xlink="http://www.w3.org/1999/xlink" x="0px" y="0px"
	 viewBox="0 0 68.2 221.6" style="enable-background:new 0 0 68.2 221.6;" xml:space="preserve">
<path d="M27.1,142.1c1,1.1,2.8,1.5,2.5,3.2c-0.3,1.7-2.1,1.7-3.3,2.2c-1.8,0.7-3.6,0.8-5.5,0.1c-1.6-0.6-2.3-0.2-2.3,1.6
	c0.1,7.8,0.3,15.5,1.4,23.9c1.7-2.5,3.1-4.5,4.5-6.6c2.7-4,6.3-7.1,9.8-10.3c1.5-1.4,2.5-0.8,3,1c1.1,4,0.2,7.6-2,10.9
	c-1.8,2.7-3.9,5.1-6.4,7.8c1.9,0.5,3.6,0.7,5.2,1.3c2.1,0.8,2.3,1.8,0.4,3.1c-3.1,2.2-6.6,3.4-10.5,2.6c-0.8-0.2-1.6-0.3-2.7-0.5
	c1.4,9,3.5,17.6,6.6,26.5c1.7-3.8,3.1-7.1,4.6-10.3c2.5-5.2,5.5-10,10.5-13.2c0.6-0.4,1.2-0.7,1.8-1c0.8-0.4,1.7-0.9,2.6-0.1
	c0.8,0.8,0.4,1.7,0.1,2.6c-2.1,6.3-5,12.2-8.9,17.6c-0.4,0.6-0.8,1.1-1.5,2.1c2.2,0,3.9-0.1,5.7,0c3.2,0.2,3.7,1.2,1.8,3.9
	c-2.6,3.6-6.4,4.3-10.5,4.1c-1.4,0-2.7-0.3-4.3-0.5c0.7,1.8,1.4,3.4,1.9,5c0.3,0.8,0.9,1.9-0.3,2.4C30,222,29.4,221,29,220
	c-1.7-4.5-3.6-9.1-4.9-13.8c-1-3.5-1-3.5-4.1-2c-5,2.4-9.1,0.5-12.5-2.4c-1.2-1.1-0.8-2,0.6-2.6c0.7-0.3,1.6-0.2,2.4-1.2
	c-4-3.9-7.2-8.5-9.2-13.9c-0.3-0.8-1.3-1.5-0.6-2.5c0.8-1.2,2.1-0.9,3.2-0.7c5.5,1,10.2,3.7,14,7.8c0.4,0.5,0.8,1.2,1.7,1.2
	c-1.2-7.8-2.5-15.6-3.7-23.5c-0.9-0.5-1.5,0.5-2.3,0.7c-3.6,1.1-7.8-0.3-9.9-3.3c-0.7-1.1-0.7-2,0.7-2.4c1.1-0.3,2.3-0.5,3.7-0.8
	c-2.6-3.4-5.7-6.3-6.9-10.3c-0.7-2.2-2.2-4.9-0.4-6.5c1.9-1.8,4.4,0.3,6.4,1.2c3.5,1.5,5.4,5,8.5,8.3c0-7.8,0-14.9,0-22.1
	c-3.3,0.7-6.4-0.4-8.8-3c-1-1.1-2-2.4-1.6-4c0.5-1.7,2.3-0.6,3.5-1.4c-1.6-2.8-3.3-5.5-4-8.7c-0.3-1.4-0.7-2.7-0.9-4.1
	c-0.2-1.4-0.4-3,1-3.8c1.3-0.8,2.4,0.4,3.4,1.1c2.9,2.1,5.4,4.7,7.3,7.8c0.7,1,1.4,2,2.4,3.5c0.7-7,1.8-13.2,3-19.4
	c0.3-1.3-0.2-1.8-1.4-2.1c-3.3-0.8-5.8-2.9-7.5-5.8c-1.5-2.5-1-3.3,2.2-3.6c-0.8-2.4-2.7-4.3-3.3-6.8c-0.5-1.9-0.9-3.8-0.9-5.8
	c0-1-0.1-2.3,1-2.8c1.1-0.5,1.9,0.5,2.7,1.2c3.6,3.3,7.1,6.7,9.6,10.9c0.2,0.4,0.6,0.7,1,1.1c1.5-5.3,2.9-10.4,4.3-15.5
	c0.3-1.2,0.2-1.9-1.2-2.3c-3.1-0.8-5.1-3-6.7-5.6c-0.5-0.9-1.6-1.7-0.9-2.8c0.6-0.9,1.7-0.5,2.6-0.5c0.4,0,0.9-0.1,1.6-0.1
	c-1.7-3.2-3.5-6.2-3.7-9.7c0-0.8-0.2-1.6-0.1-2.4c0.2-1.9,1-2.5,2.8-1.5c3.9,2.2,6.6,5.5,8.6,9.3c0.4,0.7,0.7,1.4,1.2,2.5
	c2.1-5.6,4-11,6-16.5c-3.2-0.3-5.6-1.9-7.6-4.2c-0.6-0.7-1.7-1.2-1.4-2.2c0.4-1.2,1.6-1,2.7-1c0.6,0,1.2,0.2,1.8-0.5
	c-1.4-3.3-2.3-6.9-2.1-10.6c0-0.9-0.2-2,0.9-2.4c1-0.4,1.7,0.4,2.4,1c3.3,2.8,5.6,6.4,7.2,11.2c1.5-2.7,2.6-4.8,3.8-6.8
	c0.9-1.6-0.3-2.3-1.2-3.2c-3.1-2.9-3.9-6.5-2.7-10.5c0.8-2.7,2.2-3.1,4.1-1c1.2,1.4,2.1,3,3.5,5c2.4-7.1,8.9-9.8,14-14
	c2.2-1.8,3.2-1.4,3.6,1.5c0.8,7.4-0.4,13.9-7.2,17.9c-0.3,0.5-0.3,0.6,0,0.8c1.2,0.8,3.3,0.7,3.2,2.7c-0.1,2.1-2.1,3-3.9,3.6
	c-3.1,1-6.3,1.1-8.9-1.3c-1.3-1.2-1.9-0.8-2.6,0.5c-2.5,4.8-5,9.6-7.1,15.1c4.2-1.6,8-3,11.9-4.4c0.9-0.3,2-1.1,2.9-0.2
	c1,0.9,0.6,2.2,0.2,3.3c-1.6,4.8-5.2,7.6-9.8,9.2c-2.3,0.8-2.7,1.4-1.4,3.5c1.3,2.2,0.4,3.4-2.2,3.4c-2.4,0.1-4-1.6-5.9-3.2
	c-2.3,5.7-4,11.4-5.7,17.6c5.2-2.9,10-4.9,15.1-6.4c1-0.3,2.1-1,2.9,0.1c0.7,0.9,0.3,2-0.1,3c-2.4,5.8-6.9,8.5-12.9,8.8
	c-0.2,0.8,0.4,1.1,0.7,1.6c0.8,1.4,2.3,2.8,0.9,4.3c-1.4,1.5-3.5,1.3-5.2,0.5c-1.3-0.6-2.4-1.7-3.9-2.8c-1.9,6.7-3.8,13.3-5,20.7
	c2.1-1.8,3.7-3.1,5.4-4.6c2-1.8,4.4-3,7.1-3.5c2.9-0.6,3.9,0.3,3.4,3.3c-0.8,4.3-3.5,7.2-7,9.5c-0.8,0.5-1.5,1-2.4,1.5
	c0.3,0.4,0.5,0.7,0.7,0.9c0.8,0.9,2.7,1.1,2.2,2.7c-0.5,1.6-2.2,2-3.7,2.2c-2.6,0.3-5.1,0.1-7.6-1.7c-1.5,8.1-2.4,16.1-2.7,24.2
	c3.6-3.5,7.2-6.7,11.9-8.4c1.5-0.5,3.2-1.7,4.6-0.6c1.5,1.2,0.9,3.3,0.6,4.9c-0.6,3.6-2.9,6.2-5.7,8.4
	C29.6,140.4,28.4,141.2,27.1,142.1z M36.7,36.4c0,0.3-0.1,0.6,0.3,0.7c0.1,0,0.2-0.1,0.3-0.1c-0.2-0.2-0.4-0.4-0.6-0.5
	c-0.2,0-0.3-0.4-0.5,0C36.3,36.4,36.5,36.4,36.7,36.4z M20,93.6c0,0.2,0,0.4,0,0.6c0.1,0,0.3-0.1,0.4-0.1C20.2,93.9,20,93.8,20,93.6
	c-1-0.5-2-1.1-2.9-1.7C17.6,93.4,18.6,94,20,93.6z M32.3,206.7c4.4-2.6,6.3-7.1,8.5-11.3c1.1-2,2.7-3.9,2.4-7
	C37.9,194,34.7,200.1,32.3,206.7c-0.3,0-0.5,0.3-0.4,0.6c0,0.1,0.2,0.2,0.2,0.1C32.5,207.3,32.6,207,32.3,206.7z M65,4.7
	C58.6,7.4,52.8,13,52.5,19.6C61,20.2,66.6,12.5,65,4.7z M4.4,184c3.1,8.9,9.7,15.1,16.7,13.2C17,191.1,12.4,185.9,4.4,184z
	 M19.5,141.1c8.2-0.9,14.2-6.2,14-12.1C27.2,131.1,22.6,134.9,19.5,141.1z M3.3,146.8c1,6.4,6.4,12.7,12,14.2
	C15,155.3,8.7,147.6,3.3,146.8z M21.8,176.9c7.8-3.3,13-10.5,12.6-17.1C29.1,164.7,24.5,169.7,21.8,176.9z M7.1,110.4
	c1,6.2,3.4,11.7,9.6,14.6C15.5,118.9,12.3,114,7.1,110.4z M23.7,105.5c7.6-0.9,12.6-5,12.9-10.3C31.4,97.3,27.8,101.1,23.7,105.5z
	 M22.5,91.8c-0.7-7-4.8-10.8-9.4-14.9C14.1,83.3,17.8,87.4,22.5,91.8z M40.3,47.6c5.9,0.6,10.9-2.3,12.8-7.3
	C48.7,42.6,43.3,42.8,40.3,47.6z M30.4,60.6c-0.7-5-3-8.9-7.5-12.1C24.1,53.8,26.3,57.7,30.4,60.6z M33.2,73.8c5-0.1,9.7-0.7,12.9-6
	C41.1,69.2,37,71,33.2,73.8z M35.4,24.5c0.2,3.8,1.2,7.3,4.5,10C39.9,30.3,39.1,28.4,35.4,24.5z M45.4,12.7c-0.7,4-0.1,5.4,3.4,7.5
	C48.1,17.4,47.6,14.8,45.4,12.7z M59.9,23.2c-2.6-1.1-4.8-2.3-7.4-1.8C54.6,24.9,56,25.3,59.9,23.2z M41.7,209.2
	c-3.4,0.2-6.1,0.5-9.1,2.4C36.2,212.1,38.9,212.1,41.7,209.2z M19.2,201.2c-2.7-0.6-4.6-1.1-6.7,0.3
	C15.8,202.5,15.8,202.5,19.2,201.2z M14.3,128c-1.3-0.6-2.4-1.9-4.5-1.1C11.3,127.9,12.5,128.9,14.3,128z M28.7,64.6
	c-1-1.1-2.1-2-4-1.9C25.8,64.4,27,65,28.7,64.6z M31.4,77.8c1.3,1.8,2.2,2.8,4,2.6C34.6,79,33.6,78.2,31.4,77.8z M25.1,180.1
	c1.8,0.1,3,0.4,4.1-0.9C27.9,179.1,26.7,179.2,25.1,180.1z M8.7,164c1.8,0.8,1.8,0.8,3.5,0.4C11.1,163.8,10.1,163.6,8.7,164z
	 M24.3,144.7c-0.8-0.3-1.1-0.5-1.3-0.5c-0.4,0.1-1.3-0.5-1.1,0.4C22,145.2,23,145.2,24.3,144.7z M27.7,109.6
	c-0.7-0.6-1.4-0.6-2.3-0.1C26.3,110,27,110.1,27.7,109.6z M40,51.8c0.7,0.8,1,1.5,1.8,1.2C41.6,52.4,41.2,52,40,51.8z"/>
</svg>
