<?xml version="1.0" encoding="utf-8"?>
<!-- Generator: Adobe Illustrator 25.3.0, SVG Export Plug-In . SVG Version: 6.00 Build 0)  -->
<svg version="1.1" id="Layer_1" xmlns="http://www.w3.org/2000/svg" xmlns:xlink="http://www.w3.org/1999/xlink" x="0px" y="0px"
	 viewBox="0 0 85.2 111.1" style="enable-background:new 0 0 85.2 111.1;" xml:space="preserve">
<path d="M58,8.6c1.6,0.4,2-1.2,2.9-1.9c1.9-1.3,3.9-2,6.1-1c2.1,0.9,2.8,2.8,2.8,5c0,1.6,0,2.8,1.9,3.7c2.2,0.9,3.1,3.2,2.4,5.5
	c-0.7,2.4-2.4,4-5,4.3c-3,0.3-5.9-0.1-8.8-0.9c-1.6-0.4-2.8-0.4-3.5,1.1c-3.1,6.3-6.6,12.5-8.5,19.7c3.1-0.2,4.1-2.6,5.8-4
	c6.1-4.8,13.2-8.1,19.3-12.9c2.1-1.7,4.8-2.1,7.5-1.4c4.1,1,5.5,4.2,3.2,7.7c-1.3,2-2.2,3.7-1.5,6.2c0.6,2-0.2,4.2-2.2,5.2
	c-1.8,0.9-3.9,0.7-5.7-0.6c-2.1-1.5-3.6-3.4-5-5.5c-1.4-2.3-3.1-2.8-5.4-1.2c-2.9,2.1-5.7,4.2-8.8,6.4c2.2,2.8,4.1,3.5,7.2,1.2
	c2.6-2,5.9-2.2,8.6,0.3c2.4,2.2,2.4,4.9,0.9,7.6c-0.6,1.1-0.7,2.3-0.6,3.6c0.2,2.5-1,4.2-3.4,4.9c-2.3,0.6-4.6,0.4-6.3-1.8
	c-1.4-1.8-2-3.8-2.5-5.9c-1.1-4.4-4.4-6.3-8.7-4.6c-4.1,1.6-6.4,4.7-7.3,9c-3.1,15.8-3.6,31.7-2.4,47.7c0.1,1.9,1.8,5.1-1.4,5.3
	c-3.3,0.2-1.9-3.2-2.1-5.1c-0.8-10.2-0.7-20.5-4.6-30.2c-1.7-4.3-4.1-7.9-7.9-10.6c-1.9-1.3-3.6-3-5.1-4.7c-2.5-3-5.3-4.6-9.5-4.4
	c-3.9,0.3-7.2-1.9-9.3-5.3c-1.4-2.2-1.9-6.3,0.2-6.6c5-0.7,6.6-7.8,12.1-6c2.9,1,3.8,4.3,3.4,7.1c-1,8.4,4.8,12.4,10.6,17.4
	c-1.7-6.5-2.3-12.5-6.5-17.4c-2.5-2.9-3.6-6.5-3.1-10.4c0.5-4.2,3.3-5.9,7.3-4.3c1.1,0.5,1.9,1.3,3.4,0.7c2.2-1,4.5-1.6,6.3,0.8
	c1.5,2,1.3,7.7-0.3,9.8c-1.1,1.3-2.2,2.7-3.6,3.6c-3.3,2.2-3.5,4.9-2.2,8.4c2.6,7.4,5,14.9,8,22.3c0.2-5.5,2-10.6,2.8-15.8
	c1.3-9.5,5.2-18.1,8.8-26.8c0.9-2.2,0.9-4,0.4-6.2c-1.4-5.7-2.1-11.6-6.1-16.3c-1.2-1.4-1.4-3.4-1.4-5.3c0-2.1,0.1-4,2.2-5.2
	c2-1.1,3.6-0.2,5.1,1c0.9,0.7,1.6,0.9,2.9,0.7C57,1,58.7,2.8,58,8.6c-0.2,1.1-0.3,2.1-0.5,3.2c-7.1,3.8-8.1,6.2-5.3,12.5
	c3.7-3.3,3.3-8.4,5.3-12.5C57.2,10.6,57.7,9.6,58,8.6z"/>
</svg>
