<?xml version="1.0" encoding="utf-8"?>
<!-- Generator: Adobe Illustrator 25.3.0, SVG Export Plug-In . SVG Version: 6.00 Build 0)  -->
<svg version="1.1" id="Layer_1" xmlns="http://www.w3.org/2000/svg" xmlns:xlink="http://www.w3.org/1999/xlink" x="0px" y="0px"
	 viewBox="0 0 76 230.3" style="enable-background:new 0 0 76 230.3;" xml:space="preserve">
<g>
	<path d="M44.1,113.9c4.8-1.7,9.3-4.2,13.6-6.9c8.5-5.4,13.7-13.4,17.7-22.4c0.5-1.1,1-2.5,0.1-3.6c-1-1.1-2.5-0.7-3.6-0.3
		c-10.6,4-20.5,9.1-26.7,19.3c-0.7,1.1-1.4,2.2-2.1,3.2c-0.1-1.5,0.2-2.7,0.5-3.9c1.5-6,2.2-12.6,9.9-15c-4.3,1.2-6.7-1.8-9.5-4.3
		c0.2,2.5,2.3,4.3,1.4,6.7c-2,5-3.3,10.1-4.9,15.3c-0.3-9.6-0.3-19.2-0.3-28.8c0-4.8,0-4.7,4.8-5c15.3-0.9,23.4-9.4,29.9-22.5
		c1.1-2.2,0.3-3.6-2.4-3.4c-1.4,0.1-2.8,0.4-4.2,0.8c-8.5,2.4-16,6.6-21.8,13.3c-1.9,2.2-3.8,4.3-6,6.7c-1-9.8-0.7-13.5,2.4-21.7
		c5-13.7,3.6-26.7-3.4-39.3C38.9,1.3,38.7,0,37.5,0c-1.4-0.1-1.6,1.4-2.1,2.3c-1.7,3.7-3,7.6-4.2,11.6c-3.1,10.3-1.3,20.3,3.8,29.1
		c3,5.2,2.9,9.9,2.8,15.9c-2.4-3.5-4.2-6.4-6.2-9c-1.5-2-2.4-3.8-1-6.2c0.4-0.7,0.7-1.3-0.2-1.7c-0.6-0.3-1.3,0.2-1.4,0.7
		c-0.8,3.1-3,4-5.8,4.2c-0.4,0-0.8,1-1.2,1.6c-4.9-2-9.8-3.7-15-4.7c-3.6-0.7-4.6,0.4-3.2,3.8c3.4,7.8,8.6,14,16.8,17.1
		c4.7,1.7,9.5,2.9,14.4,3.4c2.1,0.2,2.9,1,2.9,3.2c-0.1,11.7,0,23.5,0,35.2c-0.8-0.1-1-0.7-1.2-1.2C31.3,91.4,19.7,85.2,6.6,80.6
		c-1.4-0.5-3.1-1.6-4.4-0.1c-1.2,1.4,0,3,0.7,4.3c5.9,11.4,13.3,21.9,25.7,26.6c7.8,3,10.7,7.2,10.1,15.4
		c-0.7,9.4-0.2,18.8-0.2,29.1c-2.5-6-4.8-11.3-7.5-16.4c-0.9-1.7-0.8-3.6,0-5.3c0.3-0.7,1.3-1.5,0.4-2.2c-1-0.8-1.7,0.6-2.6,0.8
		c0.2,5-4.5,2.1-6.7,3.9c2.6,1.8,5.9,1.5,7.5,4.6c3,6.1,6.1,12.1,7.7,18.8c-7-12.1-16.7-21-29.8-26.2c-1.4-0.6-2.9-1.2-4.4-1.5
		c-2.7-0.6-3.7,0.5-2.9,3.3c0.3,1.1,0.8,2.1,1.2,3.2c6.5,15,17.4,24.6,33.7,27.6c3,0.5,3.9,1.8,3.8,4.8c-0.1,8.5,0,17,0.1,25.5
		c0,1,0.4,2.2-0.8,3.2c-1.5-2.4-3-4.6-4.5-6.9c-6.1-9.7-15.1-15.6-26-18.7c-1.6-0.4-3.5-1.5-4.7,0.2c-1.1,1.4,0.1,3,0.9,4.3
		c6.1,10.9,13.8,20.1,26.1,24.4c2.1,0.7,4.2,1.6,6.4,2.3c1.9,0.6,2.7,1.7,2.7,3.7c0,5.1,0,10.2,0.1,15.3c0,1.9-0.2,3.9,1,5.7
		c1.9-0.9,1.2-2.5,1.3-3.8c0-4,0-7.9-0.1-11.9c-0.1-8-0.1-8,7.5-10.8c11.2-4.2,19.3-11.7,24.6-22.3c0.7-1.4,1.8-2.9,0.9-4.4
		c-1.1-1.8-2.9-0.5-4.3-0.1c-9.5,2.3-18.1,5.9-23.5,14.7c-0.2,0.3-0.5,0.7-1.2,0.3c1.1-2.6,2.5-5.1,3.2-7.7c1-3.7,4.8-1.9,7.1-4.3
		c-5,1.7-5.3-3.8-8.4-4.9c0.3,2.1,1.4,3.9,0.6,5.9c-2.1,5-4.3,10-6.4,15c-0.6-9-0.5-17.9-0.6-26.7c0-2.4,1.3-3.2,3.2-3.8
		c4.8-1.5,9.2-3.6,13.5-6.2C65,154.7,70,148,73.6,140.3c1.5-3.1,0.6-4.4-2.3-3.7c-11.8,2.5-22,7.5-27.8,18.9
		c-0.6,1.1-0.9,2.5-2.8,3.5c0-13.2,0-25.8,0-38.4c0-0.6,0-1.1,0-1.7C40.2,116.1,41.6,114.8,44.1,113.9z M72.2,86
		c-3.6,8.6-9,15.8-17.4,20.3c-2.1,1.1-4.2,2.2-6.3,3.3C56.4,101.8,64.3,93.9,72.2,86z M71.3,83.4c-8.9,9.8-18,19.3-28.6,27.4
		C47.2,96.4,57.3,87.8,71.3,83.4z M48.3,65.8c-0.7,0.1-1.4,0.2-2.1,0.2c-0.2,0-0.5-0.1-1.2-0.4c9.5-5.2,17.4-12.4,26.3-18
		C66.4,57.2,59.4,64.1,48.3,65.8z M70.3,45.1c-8.8,6.5-16.7,14.2-26.9,18.6C49.8,53.8,58.7,47.4,70.3,45.1z M37,42.9
		c-5.5-11.6-7.1-23.4-0.4-35.4c0.4,11.8,0.9,23.6,1.3,35.3C37.6,42.9,37.3,42.9,37,42.9z M34.7,58.6c-4-3.6-7.8-7.5-12.7-10.1
		C29.9,47.2,31.7,53.7,34.7,58.6z M6.8,48.6c7.6,5.3,15.3,10.7,22.9,16C19,63.6,11.3,58.4,6.8,48.6z M29.7,64.6
		c0.2,0.1,0.4,0.1,0.7,0.2C29.9,65.4,29.9,64.9,29.7,64.6z M7.8,46.2c12.4,2.4,21.5,8,27.6,18C25.2,60.2,16.9,53.5,7.8,46.2z
		 M8.9,90.8c-1.1-1.7-2-3.4-2.9-5.3c8.6,8.5,17.3,16.7,26.1,25C21.7,107.2,14.6,99.8,8.9,90.8z M36.2,111.1
		c-10-8.8-19.7-17.8-28.5-27.7c14.4,4.2,24.7,12.8,29.1,27.5C36.6,111,36.3,111.2,36.2,111.1z M3.4,137.1c7.1,5.3,13.2,11.8,20,17.4
		c3.6,2.9,7.1,6,10.4,9.1C18.7,160.5,8.7,151.5,3.4,137.1z M6.4,136.1c13,4.7,22.8,13.1,29.2,25.5C25,154,15.9,144.9,6.4,136.1z
		 M36.4,201.6c-8.6-4-15.3-10.5-22-16.8c-2.7-2.5-5.4-4.9-7.8-8.4C21.4,179.7,30.2,189.2,36.4,201.6z M9.4,183.1
		c6.8,6.1,13.4,12.5,20.9,17.7C21.2,197.4,13.7,192.1,9.4,183.1z M39.2,7.3c6.1,10.7,5.5,22,0.8,33.6c-0.3-5.6-0.6-11.3-0.8-16.9
		C39.1,18.4,39.2,12.7,39.2,7.3z M70.4,182.3c-4.3,8.8-11.2,14.8-20.2,18.5C57,194.7,63.7,188.5,70.4,182.3z M69.9,179.4
		c-8.3,8.5-16.5,16.4-26.2,22.6C48.7,190.3,56,181.4,69.9,179.4z M49.4,160.8c0.5-0.2,1-0.5,1.5-0.7C50.6,160.6,50,160.7,49.4,160.8
		z M51.1,159.9c6.3-6.2,12.5-12.3,19.5-17.8C65.8,149.9,60.3,157,51.1,159.9z M68.7,139.6c-7.8,8.7-16,16.9-26.2,22.9
		C46.8,149.8,55.5,142.1,68.7,139.6z"/>
	<path d="M45.9,78.1c0.1,2.5,2.5,4.6,5.6,4.7c3.3,0.1,5.3-1.7,5.4-4.7c0.1-3.2-2.1-5.6-5.1-5.6C48.7,72.5,45.8,75.3,45.9,78.1z"/>
	<path d="M29,129.4c-0.2-3-2.5-5.2-5.1-5.2c-2.6,0-5.1,2.4-5.3,5.1c-0.2,2.7,1.7,4.8,4.9,5.3c2.2,0.4,3.8-0.6,5.3-1.9
		C28.9,131.6,29.1,130.5,29,129.4z"/>
	<path d="M28.8,132.7C28.8,132.7,28.8,132.8,28.8,132.7C28.8,132.8,28.9,132.7,28.8,132.7C28.9,132.7,28.9,132.7,28.8,132.7
		C28.9,132.7,28.8,132.7,28.8,132.7z"/>
	<path d="M22.8,45.6c3,0,5.2-2,5.2-4.9c0-2.7-1.9-4.8-4.7-4.9c-2.8-0.1-5.4,2.1-5.6,4.6C17.6,43.2,20,45.6,22.8,45.6z"/>
	<path d="M54.8,169.2c-2.8,0-4.7,1.8-4.6,4.4c0,2.8,2.1,4.7,5,4.6c2.9-0.1,4.9-2.1,4.6-4.8C59.5,170.4,57.6,169.3,54.8,169.2z"/>
</g>
</svg>
