<?xml version="1.0" encoding="utf-8"?>
<!-- Generator: Adobe Illustrator 25.3.0, SVG Export Plug-In . SVG Version: 6.00 Build 0)  -->
<svg version="1.1" id="Layer_1" xmlns="http://www.w3.org/2000/svg" xmlns:xlink="http://www.w3.org/1999/xlink" x="0px" y="0px"
	 viewBox="0 0 131.4 248.3" style="enable-background:new 0 0 131.4 248.3;" xml:space="preserve">
<path d="M87.7,34.5c5.9-1.5,10.9-2.3,16.1-1.1c7.2,1.7,10.3,8.7,6.4,15c-1.2,2-0.7,3.3,0.2,5c3.4,6.3,3.9,12.5-0.4,18.6
	c-3.3,4.8-8.8,5.6-13.2,1.6c-2.4-2.2-4.7-4.7-7.1-6.9c-4.3-4-9.9-3-10.9,2.8c-0.6,3.7-2.6,7.1-4.7,10.3c-1.7,2.4-2.3,4.8-1.8,7.9
	c5.3,28.7,3.8,57.4-0.3,86c-2,14.1-4.2,28.3-3.5,42.6c0.1,2,0.3,4,1,6c1.4-6.5,4-12.5,6.4-18.6c0.7-1.9,0.2-3.8-0.1-5.8
	c-0.8-5.8-0.5-11.5,1.5-17c0.9-2.5,2-5.1,5-5.9c1.5-0.4,1.4-1.7,1.5-3c0.3-3.4,0.4-6.8,1-10.2c0.6-3.4,1.6-6.7,5.5-7.9
	c2-0.6,1.1-2.2,0.8-3.4c-1-4.9-0.7-9.7,0.5-14.5c0.5-1.8,0.9-3.9,2.4-4.8c3.1-1.8,2.4-4.1,1.8-6.8c-1.4-5.8-1.2-11.6,0.7-17.3
	c1.3-3.9,3.8-6.8,8-7.8c4.2-1,7.9,1.1,9.6,5.4c2.7,7,3.3,14.2,1.1,21.5c-0.4,1.4-1.1,2.6,1.2,3.4c4.2,1.3,5.5,3.7,4.7,8.4
	c-0.9,5.6-3.9,10.2-7.7,14.3c-1.9,2-3.2,3.5-1.1,6.5c1.6,2.3,0.7,5.2-0.7,7.6c-2,3.5-4.7,6.6-7.5,9.5c-1.2,1.3-1.5,2.2-0.1,3.7
	c2.4,2.6,2.2,5.7,0.5,8.5c-5.2,8.5-12.4,14.4-22.6,15.6c-2.6,0.3-3.9,1.4-4.8,3.6c-3.9,9.5-6.7,19.1-4.8,29.6
	c0.1,0.4-0.1,0.9-0.3,1.6c-2.6-1.3-3.3-3.3-3.8-5.8c-2.7-14.4-2.9-29-0.2-43.3c1.2-6.5-1.3-10.4-5.8-14.1c-1.2-0.9-2.5-0.8-3.8-1.1
	c-6-1.1-11.6-3.7-12.6-10c-0.8-5-3-9.4-3.6-14.3c-0.6-5-1.5-10.4,4.8-13.2c1.4-0.6,0.5-2.2,0.3-3.3c-0.7-3.9-1.3-7.8,0-11.6
	c1-2.9,2.2-5.9,5.9-6.1c2.9-0.2,6.4,2.6,7.5,6c1.1,3.4,0.9,7,0.5,10.5c-0.1,1.3-0.4,2.5,0.9,3.3c3.7,2.1,3.8,5.4,3.2,8.9
	c-0.3,1.8-0.5,3.7-1.2,5.3c-0.8,2-0.7,3.3,1.5,4.4c2,1,2.2,3.2,2.1,5.1c-0.1,4.1-0.6,8-2.5,11.7c-1.2,2.4,0.1,5.6,2.5,6.5
	c1.8,0.6,1.6-1,1.7-1.9c1-8.4,2.1-16.7,3-25.1c2.2-20.8,1.1-41.4-2.2-62c-0.4-2.6-1.5-4.1-4.3-4.6c-3.5-0.5-6.8-1.8-9.9-3.6
	c-1.7-1-3.5-2.2-3.3-4.4c0.2-2.6-1.3-2.5-2.9-2.4c-2.7,0-4.6,1.5-6,3.6c-3,4.6-3.5,9.8-3.3,15.1c0.2,3.2,0.4,6.3,0.6,9.5
	c0.5,7.8-7.8,9.7-12.4,6.7c-2.1-1.4-3.7-3.2-4.9-5.3c-4-6.9-6.6-14.1-6.5-22.2c0-1.6,0.1-3.3-1.5-4.3c-7.4-4.2-7.4-17.6-1.3-24.5
	c1.4-1.6,3.1-3.1,4.9-4.4c1.6-1.2,2.1-2-0.2-2.8c-0.7-0.2-1.4-0.5-2-0.9c-9-4.4-9.6-13.8-1.4-19.4c7-4.8,14.1-3.9,21.2-0.3
	c3,1.5,5.6,3.4,8,5.7c2,1.9,3.1,2.2,3.4-1.1c0.3-3.4,1.9-6.3,4.8-8.3c3.5-2.3,7.5-2.2,10.3,0.9c2.1,2.3,2.8,1.4,4.2-0.6
	c4.2-6,9.8-9.8,17.2-10.5c4.3-0.4,8.5,0.2,11,4.3c2.4,3.9,0.7,7.6-1.4,11C92.6,28.2,90.4,30.8,87.7,34.5z M76.1,50.3
	c1.6-0.4,2.4-1.9,3.6-2.9c8.2-7.5,15.7-7.9,24.6-1.2c2.9,2.1,4.4,1.6,5.5-1.8c0.9-2.8-0.4-5.9-3.3-7.3c-9.5-4.7-25.6-1.7-30.4,13.3
	l-0.1,0.1L76.1,50.3z M58.9,53c0,0.3,0,0.6-0.1,0.8c0.1-0.1,0.2-0.1,0.2-0.1C59,53.5,58.9,53.3,58.9,53c-4.1-9.4-9.8-17.7-18.1-23.9
	c-4.6-3.4-9.5-6-15.4-5.7c-4.5,0.3-8.4,1.9-11,5.9c0.5,0.3,0.7,0.5,0.9,0.5c18-0.5,31.6,7.4,41.8,21.8C57.4,52.3,57.7,53.3,58.9,53z
	 M55.6,71.6L55.6,71.6l-0.1,0.1c-6.4-6.2-20.9-6.5-25.3,4.5c-3.6,9-1.3,21.2,5.8,28.2c1.8,1.8,2.3,0.2,2.6-1
	c0.8-3.1,0.2-6.3-0.2-9.4c-0.8-6.5-0.2-12.6,3.4-18.3c1.6-2.6,3.8-4.4,6.9-4.9C51.1,70.4,53.3,71.5,55.6,71.6z M55.4,62.6
	c0-0.1,0.1-0.2,0.1-0.3C55.4,62.4,55.4,62.5,55.4,62.6c0-0.5,0.2-1,0.1-1.4c-3.2-6.3-23.6-15.6-30.7-14c-9,2-15.1,15.1-11,23.4
	c0.7,1.4,1.4,3.2,3.2,3.2c1.9,0,1.7-2.1,2.2-3.4c2.7-6.7,6.5-12.2,14.1-13.4C41.3,55.7,48.8,57.7,55.4,62.6z M61,70.7
	C60.9,70.7,60.9,70.8,61,70.7c-5.7-7.6-13.5-11-22.6-11.7c-7.5-0.6-12.6,2.8-15.8,9.5c-5,10.4-2.7,26.8,4.9,35.5
	c1,1.1,2.1,2.1,3.5,2.6c0.9,0.3,2,0.9,2.7,0.1c0.9-1-0.2-1.8-0.7-2.5c-3.2-4.3-5.7-8.8-6.5-14.1c-1.2-8.4-0.1-16.4,7.2-21.8
	c7.2-5.3,15-3.5,22.5,0.3c1.1,0.6,2.1,1.2,3.2,1.8C59.8,70.7,60.3,71.1,61,70.7z M78.1,197.5c0.7-0.3,1-0.4,1.1-0.6
	c7.3-13.2,15-26.3,19.8-40.7c4.2-12.7,5.8-25.7,4.6-39c-0.1-1-0.7-2.5,0.9-2.6c1.2-0.1,1.2,1.3,1.4,2.3c0.1,0.5,0.1,1,0.1,1.5
	c1.3,18.2-2.3,35.4-10.1,51.9c-4.5,9.5-9.6,18.6-14.6,27.9c-0.4,0.8-1.3,1.7-0.8,2.7c0.6,1.1,1.8,0.7,2.6,0.5
	c8.7-2.3,15.3-7.3,19.5-15.3c0.9-1.6,0.9-3.6-0.7-4.6c-4.2-2.6-2.1-4.7,0.2-7.1c3.1-3.2,6.4-6.5,7.9-10.9c0.7-2.1,1.3-4.5-2.3-4.8
	c-2.5-0.3-2-1.7-0.8-3c1.3-1.5,2.8-2.7,4.1-4.2c3.7-4.4,7.3-8.9,7.5-15.1c0.1-2.7-0.7-4.5-3.8-4.6c-3-0.1-3.7-1.8-2.6-4.5
	c3.1-7,2.5-14-0.1-21c-2.1-5.6-7.5-6.5-11.4-1.9c-1.4,1.6-2.3,3.5-2.7,5.5c-1.2,6.1-1.4,12.1,1.3,17.9c0.5,1.2,1.4,2.8-0.5,3.3
	c-4.3,1.2-4.9,4.7-5.5,8.2c-0.9,5.2-0.6,10.2,1.5,15.1c0.4,1.1,1.2,2.4,0,3.4c-0.9,0.8-1.8-0.2-2.6-0.6c-1.8-1-3.1-0.3-3.9,1.4
	c-0.6,1.2-1,2.5-1.3,3.8c-1.1,4.4-0.6,9-0.7,13.5c0,1.9-0.1,3.7-2.9,2.2c-1.5-0.9-2.3,0.3-2.9,1.4C77.5,185,77.6,191.1,78.1,197.5z
	 M59.3,171.2c-2.6-4.9-4.2-9.7-5-14.8c-1.6-10-0.1-20.3-2.3-30.2c-0.1-0.7-0.2-1.6,0.8-1.7c0.9-0.1,1.2,0.7,1.4,1.4
	c0.3,1.4,0.6,2.9,0.8,4.3c1.3,8,0.4,16.1,1.4,24.1c0.6,5.2,2.1,10,4.5,14.6c0.6,1.1,1.5,2.9,2.7,0.5c1.9-3.7,2.4-7.7,1.9-11.8
	c-0.2-1.3-0.8-1.8-2.3-1.7c-3.7,0.3-3.9,0-2.4-3.6c1.5-3.5,2.6-7.1,2.5-11c-0.1-1.4-0.2-3-1.9-3.1c-3.2-0.2-3-2.1-2.7-4.3
	c0.5-3.3,1-6.5,0.4-9.8c-0.6-3.5-3.5-6.8-5.7-6.3c-3.3,0.8-3.9,3.8-4.2,6.6c-0.4,3.4,0,6.8,1,10.1c0.7,2.3,0.4,3.8-2.2,4.3
	c-1.7,0.3-2.8,1.5-3.1,3.2c-0.9,4.2-0.8,8.3,1.3,12.1c1.4,2.5,4.1,4.6,1.7,8c-0.2,0.3,0.1,1.2,0.3,1.7
	C49.5,168.4,53.7,171.3,59.3,171.2z M58.9,61.2c-4.6-15.2-22.5-28.3-39.5-29c-2.5-0.1-5.9-0.5-6.7,2.3c-0.9,3,1.7,5.1,4.3,6.5
	c1.7,0.9,3.5,1.7,5.4,2.3c2.7,0.8,5.4,1.5,8.1,2.1C41.5,47.8,51.6,52,58.9,61.2z M65.8,60.7c0.4-0.5,0.6-0.7,0.6-0.8
	c1.3-17.9,7.5-33.4,21.4-45.4c0.4-0.4,1-0.8,0.7-1.5c-0.4-0.8-1.3-0.6-1.9-0.6c-5.1,0.1-9.4,2-13.3,5.3
	C62.3,27.1,61.1,47.1,65.8,60.7z M72.7,64c5.1-7.1,11.2-12.3,20.1-11.1c8.8,1.2,14,7.1,16.2,16c2.2-2.4,2.3-4.6,2-6.8
	c-1-6.1-3.8-11.2-9-14.9c-3.3-2.3-6.8-3.8-10.9-3.4C83.8,44.6,72.8,56,72.7,64z M69.1,59.3c1.6-3.9,3-7.9,5.1-11.6
	c2.2-3.8,4.9-7.3,7.8-10.6c3-3.5,6-7.1,8.9-10.7c1.9-2.4,3.6-4.9,3.7-8.2c0-1.4-0.5-2.7-1.7-3.5c-1.3-0.8-2.3,0.3-3.2,1
	c-4.5,3.7-8.3,7.9-11.3,12.9C72.7,38.1,69.4,48.2,69.1,59.3z M74.8,67.1c1.1-0.8,1.6-1.1,2-1.5c6.3-5.2,10-5,15.8,0.7
	c2.2,2.1,4.3,4.3,6.6,6.3c2,1.7,4.3,1.6,6.5,0.2c2.1-1.4,0.8-3.3,0.5-5c-0.2-0.7-0.4-1.4-0.7-2.1C103.3,59.5,97.1,55,90.8,55
	C84.1,55,77,60.1,74.8,67.1z M60.6,49.5c-0.2-7.1,0.5-14,2.7-20.7c1-2.9,0.3-5.4-2.4-7c-2.8-1.7-5.5-0.7-7.6,1.4
	c-2.7,2.7-4.1,9.1-2,12.3C54.3,40.2,57.4,44.8,60.6,49.5z M56.2,76.3c2.6,3.3,6.6,4.9,9.1,3.7C61.7,76.9,59.9,76.2,56.2,76.3z
	 M69,76.8c-0.7-2.4-0.6-4-2.1-5.1C66.9,73.3,66.8,74.9,69,76.8z M74.3,73.6c0,0.1-0.1,0.2-0.1,0.3c0.1-0.1,0.2-0.1,0.3-0.2
	C74.4,73.6,74.4,73.6,74.3,73.6z"/>
</svg>
