<?xml version="1.0" encoding="utf-8"?>
<!-- Generator: Adobe Illustrator 25.3.0, SVG Export Plug-In . SVG Version: 6.00 Build 0)  -->
<svg version="1.1" id="Layer_1" xmlns="http://www.w3.org/2000/svg" xmlns:xlink="http://www.w3.org/1999/xlink" x="0px" y="0px"
	 viewBox="0 0 105.4 229.9" style="enable-background:new 0 0 105.4 229.9;" xml:space="preserve">
<path d="M56.2,209.6c3.1-2.1,4.3-4.6,4.5-8.1c0.9-13.3,5.5-25,16.7-33.1c5.3-3.8,11.4-6.5,18.2-4c9.7,3.5,12.7,15.2,6.8,24.4
	c-4.8,7.4-11.8,11.3-20,13.6c-5.5,1.5-11.1,3-16.9,3.8c-0.5,0.1-1.2,0.2-1.5,0.5c-3.6,4.3-9,7.5-8.7,14.3c0.1,1.9-0.1,3.9-0.3,5.8
	c-0.2,1.3,0.2,3.2-1.8,3.2c-2.1-0.1-1.4-2-1.4-3.2c0.3-7.7,0.7-15.4,1-23.1c0.2-3.6,0.3-7.2,0.5-10.7c0.1-2.1-0.6-3.6-1.7-5.3
	c-2.7-3.9-6-5.5-10.9-4.8c-6.2,0.9-12.5,1.6-18.8-0.7c-7-2.6-10.3-7.1-10-14.7c0.2-7,4.5-12.6,11-14.3c12.2-3.3,21.5,2.8,25.1,16.6
	c0.9,3.3,1.6,6.7,2.2,10.1c0.3,1.7,1,3,2.6,4.1c0.9-0.9,0.5-2.1,0.5-3.1c0.2-17.2-0.6-34.4-1.7-51.6c-0.3-4.7-4.1-7.3-8.8-6.2
	c-9.8,2.3-19.4,2.5-28.3-3.1c-8.2-5.1-9.7-15.5-2.9-20.9c4.4-3.5,9.6-3.3,14.6-2c6,1.6,11.4,4.6,16.3,8.6c3,2.4,4.6,5.4,4.3,9.4
	c-0.2,2.7,0.8,4.5,3.9,5.4c-0.1-6.8-0.8-13.3-1.6-19.8c-1.4-10.6-2.3-21.3-4.2-31.9c-0.8-4.5-4.4-6.4-7.6-8.6c-1.1-0.7-2,0.4-3,0.8
	c-9.7,3.4-19.1,3.3-28-2.4c-1.6-1.1-2.9-2.5-4.1-4.1c-4.2-5.8-2.4-13.1,4-16.4c7.1-3.6,15.6-2.1,21.6,3.9c2.5,2.4,4.8,5.2,6,8.3
	c1.8,4.5,4.9,7.4,9.7,9.7c-0.8-4.6-1.4-8.8-2.2-13.1c-1-5.5-2.8-10.9-3.3-16.6c-0.2-2-1.2-3.3-3-4.5c-5.3-3.6-9.3-8.2-9.8-15
	C24.8,4.9,27,1.1,31,0.2c5.2-1.1,10.7,1.9,12.4,7.1c1.6,5,1.5,10.1-0.9,14.9c-1.6,3.1-2.3,6.2-0.2,9.4c2.1-1.6,2.9-3.5,2.9-6.2
	c0.2-5.5,1.5-10.8,5.8-15c5.3-5.3,14.4-4.8,18.7,1.4c2.5,3.6,1.3,9.5-2.6,13c-4.1,3.7-8.9,5.1-14.3,5.2c-7.1,0.1-10.1,4-9,11.1
	c2.5,16.2,5.8,32.2,7.4,48.5c0.1,1.2,0.2,2.4,1,3.4c2.2-1,1.8-2.7,1.6-4.6c-0.7-6.7-1.1-13.5,2.5-19.7c4.9-8.4,17-10.4,23.7-3.7
	c6.5,6.5,4.7,17-4,21.9c-4.2,2.4-8.9,3.5-13.8,4c-5.6,0.6-10,6-9.5,11.6c0.9,11.9,1.9,23.9,3,35.8c0.3,3.6-0.2,7.4,1.1,11.1
	c2.7-2,3.5-4.5,3.3-7.6c-0.3-5.5-0.1-11,1.6-16.3c1.3-3.9,3.5-7.2,6.6-9.8c4.4-3.7,10.8-4.2,15.4-1.3c5.1,3.2,7,8.1,5.4,14.2
	c-1.9,7.2-6.7,11.8-13.3,14.8c-2.6,1.2-5.4,2.1-8.2,2.6c-3.3,0.7-5.5,2.4-7.5,5c-2.7,3.5-3.7,6.9-3.6,11.4
	c0.5,13.3,0.4,26.7-0.2,40.1C56.1,204.7,56.2,207,56.2,209.6z M35.4,20.7c0,0.3-0.3,0.7,0.3,0.6c-0.1-0.2-0.3-0.3-0.4-0.5
	c-0.1-1.5-0.2-3-0.5-4.4c-0.2-1.1,0.1-1.9,1.3-2.2c1.1-0.2,1.7,0.4,2.1,1.4c0.6,1.4,0,3.3,1.6,4.3c2.5-4.7,1.7-9.1-0.6-13.5
	c-1.5-2.9-4.2-3.1-7.1-2.7c-2.2,0.3-3.3,1.5-3.7,3.7C27.7,12.1,31,18.5,35.4,20.7z M67.6,202.5c6.1-1,11.6-2.4,16.9-4.2
	c5.5-1.8,10-5,13.7-9.5c4.6-5.8,5.2-12.5,1.6-17.5c-3.1-4.3-8.4-5.7-14.5-3.4c-12.7,4.8-21,19.1-20.7,32.2c0.7,0.1,0.9-0.4,1.3-0.8
	c6.1-7.1,12.4-14,19.3-20.3c1.1-1,2.4-3.1,4.1-1.2c1.6,1.7-0.9,2.4-1.6,3.5c-0.2,0.3-0.6,0.5-0.9,0.8
	C79.9,188.3,73.7,195,67.6,202.5z M45.9,177c0.3-4.7-1.5-8.1-2.9-11.4c-3-7.2-10.8-11.3-18.5-9.9c-4.3,0.8-7.9,4.7-8.9,9.7
	c-1.2,6.1-0.1,9.5,4.2,12.2c7.2,4.5,14.9,2.2,22.6,1.4c-1.7-1.9-3.4-3.4-5.3-4.7c-4.3-3.2-8.8-6.2-13.7-8.3c-1.1-0.5-2.1-1-1.5-2.4
	c0.6-1.4,1.9-1,2.9-0.6c1.2,0.4,2.2,1,3.3,1.6C34.4,167.8,39.9,172.2,45.9,177z M43.2,115.2c-0.1-4.3-0.9-6.1-4.1-8.1
	c-5.2-3.3-10.6-6.4-16.9-7.3c-4.8-0.7-8.9,1-10.5,4.5c-2.1,4.4-1.2,8.5,3,11.6c8.5,6.2,18,5.5,27.6,3.5c-5.7-4.8-12.2-7.4-19.2-9
	c-1.7-0.4-4.8,0-4.3-2.4c0.6-2.7,3.5-1.1,5.3-0.7C30.8,108.7,37,111.4,43.2,115.2z M67.1,143.2c2.9-1.2,5.8-2.3,8.6-3.5
	c5.1-2.2,8.3-6.1,9.9-11.4c1.4-4.6,0.2-9-3.1-11c-4.1-2.5-9.4-2.3-12.6,1c-6.1,6.1-6,14-6.1,21.8c3.4-3.8,6-8,9.5-11.6
	c0.9-0.9,1.9-2.5,3.4-1.2c1.6,1.4-0.1,2.4-0.9,3.3C72.2,134.2,69.2,138.3,67.1,143.2z M32.7,57.6c-5.7-3-11.5-4-17.2-5.2
	c-1.6-0.3-4.4,0.5-4.1-2.1c0.3-2.7,2.9-1.2,4.4-1c5.3,0.4,10.2,2.6,15.6,3.7c-4.2-10.2-11.8-14.6-21.5-13c-3.9,0.6-5.8,2.7-6.2,6.5
	C3.2,51.1,5,54.7,9.4,56.8c2.3,1.1,4.8,2.2,7.4,2.5C22,59.9,27.3,60.5,32.7,57.6z M61.6,87.7c5.1-0.6,9.6-1.4,13.5-4.2
	c4.7-3.3,6.8-9.9,4.5-14c-2.8-5-9.4-6.4-15.2-3.9c-6.1,2.6-9.3,13.6-6.8,21.2c0.8-0.9,1.4-1.7,2.2-2.5c3.3-3.7,6.5-7.4,10.2-10.7
	c0.8-0.7,1.8-1.6,2.8-0.5c0.9,1.1,0.4,2-0.5,2.8c-0.7,0.6-1.4,1.3-2.1,2C67.3,80.9,64.1,83.7,61.6,87.7z M48.6,24.3
	c2.6-2.6,4.7-4.8,6.9-6.9c1.1-1,2.3-2.4,3.8-0.9c1.8,1.8-0.5,2.6-1.3,3.5c-2.1,2.2-4.9,3.7-6.4,6.8c2.4,0,4.4-0.5,6.4-0.9
	c4.8-1,7.3-4.1,8.8-8.4c0.9-2.4,0.1-4.4-2-5.7c-4.6-2.9-11.5-1-13.8,3.9C49.9,18.3,48.9,20.9,48.6,24.3z"/>
</svg>
