<?xml version="1.0" encoding="utf-8"?>
<!-- Generator: Adobe Illustrator 25.3.0, SVG Export Plug-In . SVG Version: 6.00 Build 0)  -->
<svg version="1.1" id="Layer_1" xmlns="http://www.w3.org/2000/svg" xmlns:xlink="http://www.w3.org/1999/xlink" x="0px" y="0px"
	 viewBox="0 0 124.9 229.2" style="enable-background:new 0 0 124.9 229.2;" xml:space="preserve">
<path d="M63.1,144.8c-0.6-5.7-2.5-11-3.7-16.6c-1.6-7.7-3.1-15.5-4.3-23.3c-0.1-0.8-0.2-1.6-0.5-2.3c-5.6-13.6-11.7-27-20.2-39.1
	c-1.4-2-2.8-3.2-5.7-2.9c-3.5,0.5-6.5-0.9-8.2-4.4c-1.7-3.5-0.9-6.3,1-9.6c2-3.4,3.4-4.5,7.6-3.6c6.4,1.5,10.1,8.1,6.3,13.7
	c-1.5,2.2-1,3.3,0.3,5.1C42.1,70.5,47,80,51.4,89.8c0.5,1.2,1.1,2.4,2,3.6c-0.3-4.7-0.4-9.4-0.6-14c-0.6-18.2,1.4-36,6.2-53.6
	c0.6-2.3,0.6-3.8-1.4-5.5c-3.3-2.8-4.3-6.7-2.9-10.9C56,5.2,59,3.2,63.5,3c1.9-0.1,4.1-0.4,5.1-3c1.6,2.9,3,5.4,4.7,7.8
	c4.2,5.9-0.6,14.7-8.2,15.1c-2.7,0.1-3.5,1.2-4.1,3.6c-4,15.5-5.6,31.3-5.2,47.7c1.1-0.8,1.1-1.8,1.4-2.6
	c3.8-11.1,9.4-21.1,18.3-29.1c1.3-1.2,1.4-2.1,0.8-3.7c-1.3-3.4-1.1-6.8,1.6-9.6c2.6-2.7,5.7-3.3,9.2-1.8c1.6,0.7,3.3,0.8,4.9-0.3
	L91.8,27c0.5,2.4,0.6,4.9,1.3,7.3c1.6,6-5.3,11.7-11.5,9.4c-2.6-1-4.1-0.3-5.8,1.3c-5,4.7-8.9,10.2-12.2,16.9
	c3.4-0.9,6.4-0.9,7.9-4.4c1.3-2.8,4.1-4.4,7-5.5c8.2-3.2,16.7-4.7,25.5-4.4c0.8,0,2.1-0.4,2.3,0.7c0.3,1.2-1.2,1.1-1.8,1.6
	c-0.7,0.7-1.6,1.2-2.2,2c-3.8,4.5-8.5,7.8-13.3,11.1C83.2,67,77.5,66.5,71.8,63c-0.6-0.4-1-0.8-1.8-0.8c-3.8,0.1-8.1,3.3-9.7,6.8
	c-4.4,9.7-4.6,19.7-3,30.1c1.8,12.5,3.9,24.9,6.9,37.1c0.2,0.9,0.2,2,1.2,3.1c0.3-1.2,0.6-2.1,0.8-3.1c1.5-8.2,4-16,8.2-23.2
	c0.8-1.3,0.7-2.3,0-3.7c-3.6-7.6,0.6-13.5,8.9-12.9c0.9,0.1,2,0.3,2.6-0.1c2.7-1.7,2.8,0.3,2.9,2c0,0.9,0.4,1.4,0.8,2.1
	c2.1,3.1,2.1,6.4-0.1,9.4c-2.3,3.1-5.5,4.8-9.3,3.7c-2.7-0.8-3.8,0.1-4.9,2.2c-5,9.6-7.3,19.8-8.1,30.5c-0.2,3.1,1.2,5.9,2,8.7
	c4.4,15.3,10,30.2,16.1,45c0.2,0.4,0.4,0.8,1,1.7c0.8-5.8,1.4-11,2.1-16.2c0.2-1.7,0.5-3.3,0.9-4.9c1.3-4.7,1.9-8.9,0.1-14.2
	c-2.9-8.5-1.4-17.1,5.6-24.1c7.3-7.3,14.4-14.6,23.3-19.9c2.4-1.4,4.3-3.5,5.6-6.2c1.5,1.1,1,2.4,0.9,3.4
	c-2.1,15.3-6.9,29.7-15.1,42.9c-1.9,3.1-4.3,5.7-7.2,7.8c-1.6,1.1-3.2,2.5-5,2.4c-4.4-0.2-4.9,2.7-5.6,5.8c-2,9-2.8,18-3.3,27.2
	c-0.1,1.4,0.4,2.6,1,3.8c2.6,5.3,5.1,10.6,7.6,16c0.5,1,2.2,2.3,0.1,3.3c-1.9,1-2.8-0.3-3.5-1.9c-4.8-10.3-9.4-20.7-13.3-31.4
	c-1-2.7-2.5-4.9-4.6-6.8c-11.1-10.4-22.7-20.1-35.6-28.2c-1.9-1.2-3.3-1.7-5.6-0.2c-3,2.1-6.6,2-9.7-0.2c-3.2-2.3-4.1-5.4-3-9.1
	c0.3-1,0.6-2.5,0.2-3.2c-1.3-2,0.6-2.5,1.4-2.4c1.8,0.2,3.2-0.7,4.7-1.2c5.8-1.8,11.8,3.6,10.7,10c-0.4,2.3,0.2,3.3,2.1,4.4
	c11.8,7.1,22.3,15.9,32.5,25.1c0.8,0.7,1.4,1.7,3.1,2.1c-1.3-3.8-2.5-7.3-3.6-10.8c-1.9-5.6-3.9-11.2-5.5-16.8
	c-1.3-4.8-3.6-8.8-6.8-12.4c-3.9-4.4-7.7-8.9-12-13c-0.9-0.9-1.8-1.5-3.2-1.1c-4.9,1.4-9.6,0.4-13.9-2
	c-10.9-6.1-20.5-13.7-28.1-23.7c-0.9-1.2-2-2.4-3-3.6c-0.4-0.5-0.6-1-0.3-1.5c0.3-0.5,0.8-0.5,1.2-0.2c3.6,3.1,8.1,2,12.2,2.5
	c8.3,1.2,16.6,2.8,24.1,6.4c7.1,3.3,10.6,9.9,11,17.8c0.1,1.1-0.3,2.2,0.7,3.1c4.7,4.3,8.8,9.2,13,14
	C62.5,144.5,62.8,144.6,63.1,144.8l0.1,0.1L63.1,144.8z M87.3,59.8c-1.1-0.1-2.2-0.3-3.3,0.3c-0.6,0.3-1.4,0.6-0.8,1.4
	c0.8,0.9,1.8,1.7,3.2,1.1C87.9,62,88.2,61.1,87.3,59.8c0.5,0.1,1,0.2,1.5,0.4c1.1,0.3,1.9-0.3,2.5-1.1c0.4-0.5,0-0.8-0.3-1.1
	c-1-0.7-1.9-0.9-3-0.1C87.2,58.4,86.9,59,87.3,59.8z M94.5,51.2c2,1.5,2.6-0.2,3.7-1.4C96.1,48.8,95.5,50.5,94.5,51.2
	c-1.1-2.3-2.2-1.4-3.2,0c-0.6,0.8-0.5,2.1-1.5,2.8c-0.4-1.1,1.3-2.5-0.1-3.2c-1.4-0.7-2.3,0.8-3.2,1.8c-0.2-0.8-0.7-0.9-1.5-0.8
	c-2.2,0.2-2.3,2.2-3.2,3.5c-0.1-0.7,0.5-1.7-0.6-2c-1.1-0.3-1.9,0.3-2.5,1.2c-1,1.5-1,3.4-2.3,4.7c-0.2-1.4,1.2-2.6,0.5-4.3
	c-1.7,0.8-2.9,1.9-4,3.3c-0.4,0.5-0.8,1.2-0.4,1.8c0.5,0.7,1.4,0.8,2.1,0.5c0.7-0.3,1.2-0.9,1.8-1.3c1.9,1.9,2.7,1.7,4.7-1.3
	c0.7,2.3,2.1,1.5,3.2,0.5c0.7-0.6,1-1.6,1.5-2.5c0.3,1.5,1.1,1.5,2,0.6c0.7-0.7,1.3-1.7,1.9-2.5c0.7,1.1,1.5,0.6,2.1,0
	C92.8,53,93.6,52.1,94.5,51.2z M25,109.3c-0.4-0.8-0.6-1.8-1.3-2.3c-1.4-1.1-3.3-1.8-4.9-1c-0.9,0.4,0,2.4,0.5,3.3
	c0.9,1.6,2.7,2.4,4.4,2.5C25.4,111.8,24.8,110.2,25,109.3c1.1,2.3,2.2,4.7,5.8,4.1c-0.3-1.5-0.5-2.8-0.9-4c-0.6-1.7-2.3-1.6-3.6-1.8
	C24.9,107.3,25,108.4,25,109.3z M73.1,12.5c-0.1-2.1-0.4-4.6-3.5-4.8c-2.2-0.2-4-0.9-5.8-2c-2.2-1.2-3.8-0.5-5.4,0.8
	c-2.9,2.4-3.6,6.6-1.8,10c1.9,3.6,5.8,5.4,9.5,4.6C70,20.2,73.1,16.6,73.1,12.5z M29,160.1c4.2,0,7-2,8-5c0.9-2.9-0.3-6.4-2.8-8.3
	c-3-2.2-5.5-1.7-7.3,1.6c-0.3,0.6-0.8,1-1.2,1.5c-1.8,1.6-3.4,3.3-2.1,6C24.8,158.6,26.9,160,29,160.1z M84.1,42.5
	c3.4,0,6.4-2.1,7.4-5.2c0.6-1.8,0.3-3.6-1.5-4.3c-1.6-0.7-2.6-2-3.6-3.2c-1.9-2.1-3.9-1.8-6-0.6c-2.7,1.6-3.9,5-3,8.1
	C78.3,40.4,81,42.4,84.1,42.5z M89.4,105.2c0-1.6-0.4-3.1-2-3.5c-1.8-0.5-3.1-1.6-4.4-2.7c-1.9-1.5-3.7-1.1-5.5,0.2
	c-2.6,1.9-3.4,5.6-2,8.7c1.4,3.1,4.6,4.7,8,4C86.8,111.2,89.3,108.3,89.4,105.2z M35.1,51.9c0-5.3-3.6-7.6-8.2-5.3
	c-0.7,0.3-1.5,0.4-2.2,0.7c-3.6,1.2-5,4.1-3.4,7.5c1.3,2.9,5.2,4.8,8.4,4.2C32.9,58.3,35.1,55.5,35.1,51.9z M108.4,149.2
	c0,0.1,0,0.1,0,0.2c-1.1,0-2.2,0.1-3.3,0c-3.4-0.4-4.7,1.7-5.9,4.3c-0.6,1.3-0.3,1.9,1.1,1.8c3.6-0.2,7.1-0.3,10.7-0.9
	c2.4-0.4,3-2.9,3.1-4.6c0-1.8-2.1-0.6-3.3-0.8C110,149.1,109.2,149.2,108.4,149.2z M107.2,156.2
	C107.2,156.2,107.2,156.2,107.2,156.2c-2,0.1-4,0.6-6,0.4c-3.4-0.3-4.4,1.6-5.1,4.3c-0.6,2.2,0.3,2.5,2.2,2.1
	c2.7-0.6,5.4-1.3,8.1-1.6c2.5-0.3,3.1-2.2,4-3.9c0.5-1,0.1-1.5-1-1.4C108.8,156.2,108,156.2,107.2,156.2z M106.5,162.7
	c-3.3,0.7-6.7,1.3-10,2.1c-1.5,0.4-2.8,4.3-1.9,5.7c1.1,1.8,2.6,0.6,3.8,0.1C101.8,169,104.7,166.7,106.5,162.7z M36.6,119
	c-2.5-1.2-3.9-3.4-6.7-2.1c-2.2,1.1-4.4,2.2-6.6,3.3c-0.5,0.3-1.6,0.7-1,1.3c1.2,1.2,2.5,3,4.5,2.2C30.1,122.5,33.2,121.2,36.6,119z
	 M103.4,147.8c3.7,0,7,0.2,10.3-0.1c2.6-0.2,3.1-2.9,3-4.5c-0.1-2-2.1-0.4-3.2-0.4c-1.4,0-2.8,0.5-4.3,0.6
	C106.6,143.8,104.8,145.2,103.4,147.8z M27.4,124.9c1.8,1.5,3.1,2.9,5.1,2.3c2.6-0.7,5.1-1.6,7.6-2.4c0.6-0.2,1.7-0.5,1.1-1.2
	c-1.1-1.5-2.2-3.7-4.3-3C33.8,121.5,30.8,123.3,27.4,124.9z M92.7,148.4c-3.4,5-2.7,8.9,1.3,13.1C97.2,156.9,95.1,152.8,92.7,148.4z
	 M96.4,153.7c1.3-0.5,1.4-1.5,2-2.2c2.4-2.6,1.1-5.3,0.2-8c-0.2-0.5-0.3-1.1-1.1-0.9c-1.2,0.2-3.9,3.9-3.5,5.1
	C94.7,149.7,95.6,151.7,96.4,153.7z M33.7,127.9c2.9,2.1,5.8,2.7,8.8,2.5c1.2-0.1,2.9,0.1,3-1.8c0.1-1.4-2.5-3.5-4-3.1
	C38.9,126.2,36.3,127.1,33.7,127.9z M108.5,142.5c2.4-0.4,4.6-1,6.7-1.1c2.8-0.2,3.4-2.1,3.9-4.2c0.3-1.3-0.3-1.5-1.5-1.2
	C113.8,136.7,110.5,138.4,108.5,142.5z M29.4,115.6c-3.4-2.6-6.4-0.7-9.3,0.3c-1,0.3-3,0.2-2.4,1.8c0.5,1.2,1.9,2.8,3.7,2.1
	C24.1,118.7,26.8,117.6,29.4,115.6z M108.8,131.9c-4.9,2.7-5.3,4.3-2.6,9.5C111,137.9,111.3,136.8,108.8,131.9z M104.8,142.1
	c-0.8-1.5-0.3-3.7-2.1-4.8c-0.6-0.4-3.6,3.1-3.4,4.1c0.4,1.8,0.5,3.8,2.1,5C102.1,146.8,104.8,143.4,104.8,142.1z M42.4,121.6
	c1-5.1-0.4-8-4.6-9.6C37.9,115.8,37.9,119.6,42.4,121.6z M36.7,117.1c0.5-2,0.3-3.6-0.1-5.2c-0.6-2.4-2.8-2.8-4.5-2.5
	c-1.8,0.4-0.5,2.2-0.3,3.4C32.2,115.5,34.7,115.8,36.7,117.1z M111.7,135.1c1.6-0.9,2.1-2.3,3.1-3.4c0.3-0.3,0.5-0.7,0.7-1.1
	c0.6-1.1,0.3-2.3-0.4-3.1c-0.9-0.9-1.6,0.2-2.3,0.6C109.6,130.3,109.6,130.5,111.7,135.1z M23,113.4c-3-1.7-5.1-2.4-7.5-1.1
	c-0.8,0.4-2.5,0-2.2,1.3c0.3,1.4,1.6,2.6,3.3,2.2C18.6,115.4,20.4,114.4,23,113.4z M90.3,159.2c-0.4,3.5-0.1,6.8,1.9,10.2
	C94.4,165.1,92.4,162.1,90.3,159.2z M114.5,135.2c5.7-0.8,6.3-1.4,6.2-6.1C117.6,129.9,116.3,132.5,114.5,135.2z M17.8,109.8
	c-0.1-2.9-0.6-4.9-3.5-5.1c-0.9-0.1-1.8-0.5-2.3,0.6c-0.4,1,0.2,1.7,1.1,2.1C14.6,108.2,16,108.9,17.8,109.8z M14.7,110.7
	c-2.6-2.2-2.7-2.2-5.6-1.5C10.1,112.4,12,112.3,14.7,110.7z M46.9,126.3c-0.1-2.9-0.8-5.1-2.8-7.4C43.7,122.2,43.8,124.7,46.9,126.3
	z M84.1,63.6c-2-1.9-3.7-3-6.2-1.7C79.4,64.3,81.4,64.2,84.1,63.6z M95.1,56c-0.3-0.9-1.1-1.3-1.8-1.2c-1,0.2-2.3,0.6-2.3,1.8
	c0,0.9,1.2,1.2,2,1.1C93.9,57.5,94.8,57,95.1,56z M119.5,124.3c-0.1-0.1-0.3-0.3-0.4-0.4c-0.6,0.4-1.3,0.8-1.9,1.2
	c-0.7,0.4-1.2,1-0.8,1.9c0.1,0.3,0.4,0.7,0.6,0.7c0.7-0.1,1-0.7,1.3-1.3C118.8,125.7,119.2,125,119.5,124.3z M98.5,53.3
	c0.1-0.6-0.3-0.9-0.7-0.9c-1.1,0.1-2.2,0.4-2.7,1.5c-0.3,0.6,0.5,0.9,1,1C97.3,55,97.9,54.1,98.5,53.3z M7.6,104.4
	c0.9,1.4,1.8,1.9,3.4,1.9C10.4,104.4,9.1,104.5,7.6,104.4z M73.9,62c0.9,1.2,2,1.2,3,1.1C76.2,62.2,75.4,61.7,73.9,62z M121.7,124.8
	c-0.8,0.6-1.3,1.2-1.1,2.3C122,126.7,122,125.9,121.7,124.8z M5.8,106c0.4,0.7,0.8,1.6,1.9,1C7.4,106.1,6.7,105.9,5.8,106z
	 M99.7,51.5c0.1,0,0.2,0.1,0.3,0.1c0,0,0.1-0.1,0.1-0.2c-0.1,0-0.2-0.1-0.3-0.1C99.8,51.3,99.8,51.5,99.7,51.5z"/>
</svg>
