<?xml version="1.0" encoding="utf-8"?>
<!-- Generator: Adobe Illustrator 25.3.0, SVG Export Plug-In . SVG Version: 6.00 Build 0)  -->
<svg version="1.1" id="Layer_1" xmlns="http://www.w3.org/2000/svg" xmlns:xlink="http://www.w3.org/1999/xlink" x="0px" y="0px"
	 viewBox="0 0 113.8 228.6" style="enable-background:new 0 0 113.8 228.6;" xml:space="preserve">
<path d="M53.2,147.3c3.8-3.4,6.8-7.6,10-11.5c1.7-2.1,1.1-5.3-0.8-7.7c-0.7-0.9-1.5-1.8-1.7-2.9c-0.5-2.7,0.4-4.9,3-5.9
	c2.5-1,4.5,0,5.8,2.3c1.4,2.5,0.4,4.7-1.7,6c-2.3,1.4-2.9,2.8-1.8,5.5c2.6-2.8,6.7-3.8,6.7-8.6c0-2.6,2.9-4.3,5.3-3.8
	c2.5,0.6,4.1,2.2,4,4.9c0,2.7-2.6,5.3-5.5,4.6c-4.1-1-6,1.5-8.4,3.8c1.8,1.8,3,0.6,4.3-0.5c2.5-2,5.4-1.7,7,0.6
	c1.6,2.2,0.6,5.8-2,7.3c-2.4,1.4-4.3,0.8-6.1-1.9c-2.5-3.9-5-4.2-8-0.9c-0.2,0.2-0.3,0.4-0.5,0.6c-9.9,11-9.9,11-9.8,25.7
	c0,10.7,0,21.4,0,32.8c4-2.7,6.5-5.8,9.6-8.4c2.4-2.1,5.5-4,6.7-6.7c1.4-3-2.2-5.6-3-8.7c-0.7-2.6-1.9-5-2.1-7.7
	c-0.2-4.1,0.9-6.2,3.6-6.7c2.8-0.5,4.9,1.3,5.8,5.3c1.1,4.6,0.5,9.1-0.1,14.1c4.2-3.3,8.1-6.4,12.1-9.4c1.7-1.3,0.4-2.5-0.2-3.7
	c-2-3.8-4.4-7.5-5.1-11.9c-0.2-1-0.4-2-0.3-3c0.3-2.2,1.2-4,3.6-4.3c2.5-0.4,3.9,1,4.7,3c1.2,3,1.6,6.2,1.6,9.4c0,2.2,0,4.3,0,6.5
	c1.5,0.3,1.5-0.9,1.9-1.6c2.8-5.4,6.8-9.9,11.2-13.9c0.4-0.3,0.8-0.6,1.2-0.9c3.4-2.2,6.5-2.2,8.3,0c1.7,2,1.3,4.7-1.8,7.7
	c-4.4,4.4-9.6,7.5-15.6,9.4c-1,0.3-2.3,0.1-3.1,1.7c3.2,0.2,6.2,0.1,9.1,0.9c1.8,0.5,3.7,0.9,5.5,1.6c2.4,0.9,3.8,2.7,3,5.4
	c-0.8,2.7-3,3.3-5.5,3c-1.8-0.2-3.5-0.7-5.1-1.6c-2.5-1.5-5.3-2.7-7.5-4.6c-2.8-2.4-4.8-2.3-7.5,0.1c-2.9,2.6-6.2,4.8-9.5,8.2
	c4.3,0.4,8-0.1,11.5,0.9c1.7,0.5,3.5,0.8,5,1.8c1.9,1.2,3.5,2.8,2.7,5.3c-0.8,2.6-2.8,3.5-5.4,3.3c-1.4-0.1-2.8-0.5-4.1-1
	c-2.8-1-5.4-2.4-7.9-3.9c-5.5-3.4-5.5-3.4-10.2,0.8c-3.6,3.3-7,6.7-10.7,9.9c-2.1,1.8-2.9,3.8-2.9,6.7c0.2,6.8,0.1,13.5,0.1,20.3
	c0,1.2,0.4,2.5-0.5,3.8c-1.8-0.7-1.3-2.3-1.3-3.5c-0.1-7.3-0.1-14.6-0.1-21.8c0-2.1-0.5-3.9-1.8-5.7c-2.8-3.8-5.7-7.5-9-10.9
	c-2.7-2.7-5.6-2.4-7.9,0.7c-2.2,2.8-4.2,3.4-6.4,1.7c-2.5-1.9-3-5.2-1-7.4c1.8-2.1,4.9-2.2,7.1,0c1.1,1.2,2.1,2.2,4.1,1
	c-3-2.1-4.6-5.9-9.4-4.1c-2.1,0.8-4.2-1.6-4.5-4.2c-0.3-2.6,1.7-5.3,4.2-5.5c2.6-0.2,5.1,1.1,4.9,3.6c-0.3,5.1,3.6,6.5,6.7,9
	c0.9-2,1.3-3.6-0.8-4.8c-0.5-0.3-1-0.8-1.4-1.2c-1.9-2.1-2.1-4.8-0.4-6.6c1.8-1.9,4-2.2,6.2-0.7c2.2,1.5,2.7,4.3,1.2,6.8
	c-0.6,1.1-1.9,1.6-2.2,3c-0.6,3.3-1,6.3,2.2,9c2.9,2.5,5,5.7,7.5,8.6c1-0.3,0.8-1,0.8-1.6c-0.1-13.4-0.3-26.8-0.4-40.2
	c0-2-0.7-3.3-2.4-4.3c-2.9-1.8-5.5-4.8-8.7-5.4c-3.1-0.7-5.4,3.3-8.4,4.6c-3.2,1.4-6.2,3-9.8,2.9c-1.9-0.1-3.7-0.3-4.5-2.3
	c-0.8-2.1,0.5-3.7,2.1-4.9c3.3-2.7,7.3-3.4,11.4-3.8c1.2-0.1,2.5,0.3,4-0.5c-3-3.1-6.5-5.3-9.8-7.8c-1.4-1-2.1,0.3-2.9,1
	c-3.5,2.9-7.3,5.1-11.9,5.7c-0.9,0.1-1.8,0.3-2.7,0.2c-1.9-0.1-4.1-0.1-4.7-2.4c-0.6-2.2,1-3.6,2.7-4.7c3.1-2,6.6-2.7,10.2-3.1
	c1.2-0.1,2.4-0.2,3.7-0.6c-4.6-0.7-8.9-2.1-12.8-4.6c-2.1-1.3-3.8-3-5.2-5c-1.1-1.5-1.8-3.3-0.6-5c1.1-1.6,3-1.8,4.9-1.3
	c6,1.5,10.4,5.1,13.5,10.5c0.6,1.1,0.6,2.5,2.1,3.4c1-1.5,0.4-3.2,0.3-4.7c-0.2-3.1-0.2-6.2,1-9c0.8-1.8,1.8-3.6,4.1-3.4
	c2.4,0.2,2.8,2.3,3.2,4.2c1,4.8-0.6,9.1-3,13.1c-1.5,2.5-1.2,3.9,1.3,5.5c2.9,1.8,5.5,4.1,8.7,6.6c-0.3-2.5-0.6-4.4-0.8-6.3
	c-0.4-3.8,0.4-7.4,2.4-10.6c1.6-2.6,3.8-2.5,5.3,0.2c1.7,2.9,1.7,6.1,1,9.3c-0.6,2.5-1.3,5-2.5,7.2c-1.3,2.4-1.1,3.9,1.3,5.4
	c2.3,1.4,4.4,3,6.7,4.6c1.2-1.3,0.8-2.6,0.8-3.8c0-11.6-0.2-23.2,0-34.9c0-2.9-0.8-5.2-2.8-7.2c-2.5-2.5-5-5.1-7.7-7.5
	c-3-2.6-5.7-1.8-7.2,1.9c-1.2,2.9-3.3,3.8-6.1,2.5c-2.6-1.2-3.8-4-2.8-6.3c1.2-2.6,4.1-3.7,6.7-2.2c1.4,0.8,2.6,2.1,4.5,1
	c-2.2-3.4-4.1-4.3-7.8-3.5c-2.9,0.6-5.9-1.2-6.5-4c-0.5-2.3,1-4.7,3.3-5.3c2.8-0.8,5.2,0.7,6.1,3.7c1.1,3.7,1.5,4,7.4,7.2
	c0.4-2.1,0.8-3.7-2-4.7c-3.2-1.1-4.2-3.9-3-6.4c1.1-2.4,3.7-3.5,6.1-2.5c2.6,1.1,3.8,4.3,2.7,7.1c-0.4,1.1-1.4,1.8-1.5,3.1
	c-0.3,3.2-0.4,6.1,2.9,8.4c2.6,1.9,4.7,4.6,7.1,7.1c0.9-1.3,0.5-2.5,0.6-3.6c0.3-9.4,0.4-18.9,0.8-28.3c0.1-2.7-0.6-4.6-3-6
	c-2.5-1.5-4.7-4.1-7.4-4.7c-3-0.6-4.4,3.4-6.9,4.8c-2.4,1.4-4.7,3.2-7.6,3.5c-2,0.3-4.3,0.4-5.3-2c-0.9-2.3,0.4-3.9,2.1-5.2
	c2.9-2.2,6.3-3.2,9.9-3.6c1-0.1,2-0.2,3.9-0.3c-3.5-2.6-6.4-4.7-9.3-6.8c-1.5-1.1-2.3,0.2-3.2,1.1c-2.6,2.3-5.4,4.3-8.7,5.4
	c-1.5,0.5-3,0.8-4.5,0.7C10.3,56.9,9,56.6,8.3,55c-0.6-1.6,0.2-2.8,1.2-3.8c1.9-2,4.3-3.1,7-3.8c1.9-0.5,3.9-0.9,6.3-1.4
	c-2.4-2-4.8-1.5-7-1.9c-4.9-1-8.8-3.3-11.5-7.5c-1-1.6-1.7-3.3-0.4-5c1.2-1.7,3-1.7,4.8-1.3c5.7,1.3,9.2,5.2,11.9,10
	c1,1.8,2.1,3.5,4.1,4.3c0,0,0,0,0,0c-0.4-3.9-1-7.8-0.3-11.8c0.7-3.6,2.4-5.5,4.9-5.2c2.3,0.4,3.5,2.4,3.2,6.1
	c-0.4,4-1.8,7.7-3.4,11.3c-1,2.1-0.5,3.2,1.3,4.3c2.6,1.6,5,3.4,7.9,5.3c-0.7-5.1-2.1-9.8-0.9-14.7c0.2-0.9,0.3-1.8,0.6-2.6
	c0.7-1.9,2.1-3.4,4.3-3.2c2.2,0.2,3.1,2,3.4,4c0.6,4.4-0.5,8.6-1.9,12.7c-2,6.1-2.1,6.1,3.3,9.8c1.3,0.9,2.7,2.9,4.2,2.1
	c1.5-0.8,0.8-3,0.8-4.6c0.2-6.1,0.2-12.2,0.4-18.4c0.1-2.9-0.8-4.7-3.6-5.9c-3.8-1.8-7.6-3.7-10.6-6.7c-1.1-1.1-2.1-2.3-2.8-3.6
	c-0.9-1.6-1.6-3.4-0.2-5c1.5-1.7,3.5-1.5,5.3-0.7c3.1,1.4,5.2,4,7.3,6.6c1.6,2,3,4.1,4.5,6.2l0.1,0.1l-0.2-0.1
	c0.8-1.2,0.1-2.1-0.2-3.2c-2.1-6.3-3.2-12.9-3.1-19.6c0-1.1,0.1-2.3,0.3-3.4C50,2.1,51.2,0,54.2,0c2.7,0,4.4,1.7,4.8,5
	c0.4,3.9,0.2,7.9-0.7,11.8c-0.7,3.4-1.7,6.7-2.9,9.9c-0.4,1-0.9,2-0.2,3.5c1.8-2.4,3.4-4.7,5.2-6.9c1.8-2.2,3.8-4.2,6.5-5.3
	c1.8-0.7,3.3-0.4,4.6,0.9c1.3,1.4,1.3,3,0.5,4.6c-0.8,1.5-1.9,2.7-3.2,3.8c-3.5,2.8-7.4,5-11.4,7c-1.4,0.7-2.9,1.2-2.9,3.2
	c0,8.1,0,16.2,0,24.7c3.5-3.5,7.1-6.6,10-10.1c1.8-2.2,1.1-5.1-0.6-7.3c-1.7-2.2-2.1-4.3-0.7-6.7c1.1-1.9,2.9-2.4,5-2.1
	c2,0.3,3.2,1.6,3.6,3.5c0.5,2.1-0.4,3.9-2.1,4.9c-1.9,1.1-3.2,2.1-2,5.1c2.7-2.5,6.9-2.9,7.1-7.9c0.1-2.5,2.9-4,5.5-3.5
	c2.3,0.4,4.1,2.8,3.8,5c-0.3,2.6-3.3,5.3-5.7,4.4c-4.3-1.6-6.2,1.4-8.9,3.3c1.7,1.5,3.2,1.1,4.8,0.3c2.1-1.1,4-0.7,5.6,0.9
	c1.4,1.4,1.8,3.1,0.9,4.9c-1,2.2-2.8,3.2-5.2,3.1c-2.3-0.1-3.4-1.5-3.8-3.6c-0.8-3.4-3.3-4.7-5.9-2.7c-4.4,3.4-8,7.5-11.3,11.9
	c-0.5,0.7-0.7,1.7-0.7,2.5c-0.3,10.8-0.6,21.7-0.8,32.5c0,0.5,0.2,0.9,0.4,1.7c4.4-3.3,8.5-6.5,12.7-9.6c1.1-0.9,1.2-1.6,0.6-2.9
	c-1.7-3.6-2.5-7.5-3.1-11.4c-0.4-2.5-0.1-4.9,1.1-7.1c1.7-3.3,4.3-3.5,6.5-0.5c1.3,1.8,1.7,4,1.8,6.2c0.2,3.7-0.3,7.3-1.6,10.9
	c0.2,0.2,0.5,0.4,0.7,0.6c3.4-2.4,6.9-4.9,10.3-7.3c1.5-1.1,0.5-2.3,0-3.4c-2.3-5-3.2-10.2-1.7-15.6c0.5-1.8,1-3.7,3.1-3.9
	c2.3-0.2,3.3,1.7,3.9,3.6c0.9,2.6,1.2,5.2,0.9,7.9c-0.2,1.3-0.7,2.7-0.1,4.3c1.9-3.3,4.1-6.1,6.8-8.5c2.1-1.9,4.4-3.5,7.3-3.9
	c3.7-0.6,5.5,1.5,4.1,4.9c-2.8,6.7-8.4,10-15.2,11.6c-0.8,0.2-1.8-0.2-2.6,0.7c0.3,1.2,1.4,1.1,2.3,1.2c3.7,0.6,7.3,1.4,10.4,3.6
	c1.6,1.1,3.1,2.6,2.5,4.7c-0.6,2.5-2.8,2.2-4.7,2.2c-5,0-8.7-2.8-12-6.1c-2-2.1-3.6-2.6-6-0.5c-2.7,2.3-5.7,4.1-9.3,6.6
	c2.8,0.4,4.8,0.7,6.7,0.9c3.9,0.6,7.4,2.2,10,5.2c2,2.3,1.3,4.4-1.7,5.1c-3,0.7-5.8,0.3-8.5-1.1c-2.7-1.4-5.5-2.9-7.6-5.1
	c-1.9-2-3.4-2-5.5-0.3c-3.8,3.2-8.7,5.4-11.4,9.5c-2.8,4.3-0.9,9.7-1,14.6C52.6,128.9,52.6,138.1,53.2,147.3l-0.1,0.2L53.2,147.3z
	 M36.4,142.7c-5.5-1.3-10.5-0.4-15.3,2.4c-1.1,0.6-2.3,1.5-1.9,3c0.4,1.6,2,1.4,3.2,1.3C27.9,149.2,32.3,146.4,36.4,142.7l0.1-0.2
	L36.4,142.7z M53.7,25.7c3.1-6.8,3.8-13.4,3.4-20.1c-0.1-1.9-0.6-3.7-3-3.7c-2.2,0.1-2.9,1.8-3.1,3.7C50.5,12.3,51.4,18.8,53.7,25.7
	z M94.7,163.8c6.2-1.8,11.6-4.7,15.7-9.4c1-1.2,2.4-2.7,0.8-4.4c-1.5-1.6-3.3-1.1-4.9,0C101.2,153.3,97.5,158.1,94.7,163.8z
	 M5.5,114.2c-2-0.2-3,0.1-3.3,0.8c-0.4,0.9,0,1.8,0.5,2.5c3.3,4.6,8.1,6.8,13.3,8.1c1.6,0.4,2-0.7,1.2-2.1
	C14.4,118.7,10.3,115.5,5.5,114.2z M90.1,76.1c5.9-0.2,10.2-3.2,13.5-7.7c0.8-1.1,2.2-2.7,0.7-4.1c-1.2-1.1-2.9-0.4-4.3,0.3
	C95.3,67.1,92.2,71,90.1,76.1z M20,42.8c-2.5-4.9-5.4-8.3-9.8-10.2c-1.5-0.6-3.3-1.5-4.6,0.2c-1.2,1.6,0.4,2.9,1.2,4
	C9.8,40.9,14.3,42.1,20,42.8z M74.8,183c4.3,3.6,8.4,5.8,13,6.9c1.7,0.4,3.7,0.7,4.4-1.6c0.7-2.4-1.2-3.1-2.8-3.8
	C85,182.6,80.4,182.5,74.8,183z M68.3,88.9c2.5-5.1,3.4-10.2,1.6-15.5c-0.4-1.1-1-2.3-2.2-2.3c-1.3,0-1.8,1.2-2.1,2.4
	C64.2,79,66.2,83.9,68.3,88.9z M71.3,178.4c1.3-4.5,1.5-8.9,0.6-13.3c-0.3-1.8-0.8-4.2-3.4-3.8c-2.9,0.4-2.4,3-2.2,4.9
	C66.8,170.7,68.6,174.7,71.3,178.4z M50.7,32.3c-2.7-4.4-5.2-8.9-9.4-11.9c-1.3-0.9-2.9-1.8-4.2-0.6c-1.5,1.4,0,2.8,0.8,4
	C40.9,28.5,45.9,30.2,50.7,32.3z M87.8,165.6c0.8-5.5,0.4-10.1-0.7-14.6c-0.4-1.5-1.3-3.1-3.2-2.6c-2,0.5-2.2,2.3-1.9,4
	C82.8,157,84.9,161,87.8,165.6z M56.3,32c5.2-1.8,9.9-4,13.4-8.3c0.7-0.9,1.4-1.9,0.5-3.1c-1-1.3-2.1-1.1-3.4-0.4
	c-1.6,0.9-3,1.9-4.1,3.4C60.5,26.3,58.4,29.2,56.3,32z M92.5,170.2c3.6,2.6,7,5.6,11.5,6.4c1.6,0.3,3.5,0.7,4.1-1.6
	c0.6-2.1-1.2-3-2.7-3.5C101.3,170.1,97,169.4,92.5,170.2z M39.5,138.7c2.4-4.2,4.2-8.6,3.4-13.6c-0.2-1.2-0.5-2.8-1.8-3.1
	c-1.7-0.4-1.9,1.5-2.3,2.5C37,129.2,37.7,134,39.5,138.7z M71.3,93.7c4,3.5,8,7.2,13.8,6.8c0.7,0,1.6,0,2-0.8c0.6-1.1-0.4-1.6-1-2.2
	C81.9,93.7,76.7,93.3,71.3,93.7z M21.5,130.7c-5.9-0.4-10.8,0.1-15.2,2.9c-0.8,0.5-1.9,1.2-1.6,2.4c0.3,1.1,1.6,1.1,2.6,1.1
	C12.7,136.9,17.1,134.9,21.5,130.7z M84.4,77.4c2-4.9,2.8-9.9,1-15.1c-0.3-0.8-0.6-1.8-1.7-1.8c-1.1,0-1.3,1-1.5,1.9
	C80.8,67.7,81.5,72.7,84.4,77.4z M40.6,53.3c1.9-4.5,3.6-9,3.3-14c-0.1-1.4-0.2-3-2.2-3c-1.7,0-1.9,1.5-2.2,2.7
	C38.3,43.9,39.4,48.6,40.6,53.3z M37,58.8c-4.5-0.5-8.5,0.7-12.2,3.1c-1,0.6-2.3,1.6-1.4,3.1c0.7,1.2,2,1,3.1,0.8
	C30.9,64.9,34.1,62.2,37,58.8z M24.1,126.3c2.7-3.8,4.5-7.8,3.7-12.5c-0.2-1.1-0.3-2.6-1.5-2.8c-1.5-0.2-2.1,1.3-2.4,2.5
	C22.7,117.8,23.2,122.1,24.1,126.3z M87.5,82.4c3.2,3.2,6.3,6.7,11.2,6.7c1.1,0,2.6,0.3,3-1c0.3-1.2-0.8-2-1.8-2.7
	C96.2,82.9,92,82.2,87.5,82.4z M24.4,48.5c-5.2-0.2-9.2,0.7-12.7,3.2c-0.8,0.6-1.8,1.3-1.4,2.5c0.4,1.3,1.7,0.9,2.6,0.8
	C17.3,54.4,20.9,52.3,24.4,48.5z M27.3,43.9c1.8-3.6,3.4-7.2,3.5-11.2c0-1.3,0.1-2.8-1.6-3c-1.7-0.2-2.4,1.1-2.7,2.6
	C25.8,36.1,25.9,40,27.3,43.9z M39.2,168.9c-1.3,0.4-2.7,1-2.6,2.9c0,2,1.4,3.2,3.1,3.3c1.7,0.1,2.5-1.5,2.6-3.1
	C42.2,170.2,41.1,169.3,39.2,168.9z M68.3,123.6c-0.2-1.7-1.2-2.9-3-2.8c-1.8,0-2.7,1.2-2.8,3c-0.1,1.6,0.5,2.8,2.3,2.7
	C66.7,126.4,68,125.5,68.3,123.6z M79.1,55.3c-0.2-1.7-1.2-2.9-3-2.8c-1.8,0.1-2.7,1.2-2.8,3c-0.1,1.6,0.6,2.8,2.4,2.7
	C77.6,58.2,78.8,57.2,79.1,55.3z M79.1,39.8c-1.8,0.3-2.8,1.3-2.8,3.1c0,1.5,0.5,3,2.3,2.8c1.8-0.1,3.3-1.2,3.3-3.1
	C82.1,40.9,80.7,40,79.1,39.8z M31.6,95.2c0-2.1-1.2-3.3-3.1-3.2c-1.5,0-2.6,1-2.6,2.7c0,2,1.5,3,3.2,3.2
	C30.8,97.9,31.5,96.7,31.6,95.2z M80.3,125.1c-0.2-1.7-1.3-2.8-3-2.8c-1.7,0.1-2.8,1.3-2.8,3c0,1.5,0.6,2.7,2.4,2.7
	C78.9,128.1,79.9,127,80.3,125.1z M31.6,184.6c-0.2-1.6-1.1-2.7-2.9-2.6c-1.6,0.1-2.7,1-2.7,2.6c0,1.8,0.9,3.3,2.9,3.2
	C30.6,187.7,31.4,186.4,31.6,184.6z M28.9,83.5c-0.3-1.7-1.2-2.8-3-2.8c-1.8,0-3,1.1-2.8,2.8c0.2,1.8,1.6,2.9,3.5,2.9
	C28.4,86.4,28.7,84.9,28.9,83.5z M78.5,136.6c-0.1-1.6-1.1-2.8-2.8-2.8c-1.8,0-2.7,1.4-2.7,3.1c0,1.4,0.8,3,2.4,3
	C77.1,140,78.3,138.7,78.5,136.6z M69.9,40.4c-0.2-1.6-1.1-2.6-2.8-2.5c-1.9,0.1-3,1.2-3,3.2c0,1.6,0.9,2.7,2.6,2.5
	C68.6,43.3,69.8,42.3,69.9,40.4z M27.3,170.6c-1.7,0.1-2.7,1.3-2.9,2.9c-0.1,1.4,0.3,2.9,2.1,3c1.9,0.1,3.2-0.8,3.4-2.8
	C30.3,171.9,29,171.1,27.3,170.6z M37.7,83.5c1.9-0.1,2.6-1.2,2.5-2.8c-0.2-1.8-1.2-2.9-3-2.8c-1.6,0-2.8,1.2-2.7,2.7
	C34.6,82.3,35.9,83.5,37.7,83.5z M87.3,77l0.2-0.3l-0.2,0L87.3,77z"/>
</svg>
