<?xml version="1.0" encoding="utf-8"?>
<!-- Generator: Adobe Illustrator 25.3.0, SVG Export Plug-In . SVG Version: 6.00 Build 0)  -->
<svg version="1.1" id="Layer_1" xmlns="http://www.w3.org/2000/svg" xmlns:xlink="http://www.w3.org/1999/xlink" x="0px" y="0px"
	 viewBox="0 0 124.2 231.3" style="enable-background:new 0 0 124.2 231.3;" xml:space="preserve">
<path d="M77.8,168c2-1,2.1-3.1,2.7-4.9c0.4-1.1,1.1-2.2,2.6-2.1c0.5,0,1.1,0.5,1.4,0.9c0.8,1.2,0.1,2.3-0.7,3.2
	c-1.1,1.2-2.1,2.6-3.3,3.6c-4.6,3.7-3.4,7.9-1.3,13c4.9-5.2,9.2-10.6,11.7-16.8c1-2.5-0.2-6.2-3-8.2c-1.9-1.4-3.7-2.9-6-3.8
	c-1.2-0.4-2.3-1.5-2.1-3.1c0.1-0.8,0.7-1.3,1.5-1.4c1.4-0.2,2.2,0.7,2.8,1.7c1,1.7,2.2,3.1,4.4,4c1-2.1,0.5-4.4,0.7-6.5
	c0.2-1.9,0.4-3.9,2.7-3.9c2.4,0,1.8,2.2,1.9,3.8c-2.2,1.3-3.4,3-2,5.8c1.4-1.8,1.8-3.8,1.9-5.9c1.3-0.4,2.4-2.4,3.9-0.7
	c1.5,1.7-0.1,2.9-1.1,4.2c-2.1,2.9-6,5.1-3.5,10.9c2.7-5.9,7-9.9,8-15.8c0.3-1.8,0.5-3.6,2.4-4.4c0.8-0.4,1.5,0,1.9,0.7
	c1,2.1,0.1,3.7-1.3,5.2c-2.2,2.3-3.2,5.3-5.1,8.1c2,0.7,2.8-0.6,3.5-1.5c1.6-1.9,3.1-4,4.6-6c0.8-1.1,1.7-2.2,3.3-1.8
	c0.8,0.2,1.3,0.8,1.3,1.6c0,1.6-1.1,2.5-2.3,3c-1.2,0.6-2.6,0.8-3.3,2.8c2.4-0.7,4.3-1.4,5.8-3.1c0.3-0.3,0.6-0.7,0.9-0.9
	c1.6-1.2,3.4-2,5.4-1.1c1.1,0.5,1.6,1.5,1.2,2.6c-0.8,2.2-2.7,2.8-4.7,2.6c-3.5-0.2-6.3,1.3-9.4,3.1c2.7,1.5,5,2.5,7.9,1.5
	c0.8-0.3,1.8-0.4,2.6-0.4c1.6,0.1,3.2,0.6,2.8,2.6c-0.3,1.6-1.8,2-3.2,1.6c-3.7-1.1-7.6-1.4-11.1-3.1c-3.8-1.9-6.7-1.2-8.6,2.3
	c-3.7,6.6-7.6,13.1-12.6,19c7.5,1.9,11.2-0.6,11.8-7.8c0.1-1.5,0.1-3,1.8-3.7c0.8-0.3,1.4,0.1,1.9,0.8c1,1.5,0.4,2.9-0.5,4.1
	c-1.1,1.6-2.3,3.1-2.4,5.4c2.8,0.3,4.8,0,5.3-3.5c0.4-2.6,1.6-5.1,0.7-7.8c-0.4-1.1-0.1-2.4,1.1-3.1c0.6-0.4,1.2-0.3,1.7,0.1
	c1.3,0.9,1.3,2.3,0.9,3.6c-0.7,2.4-1.5,4.8-2.4,7.7c2.4-0.7,3.7-2,4.9-3.5c0.5-0.7,0.9-1.6,1.5-2.2c1.1-1.1,2.6-2,3.8-0.4
	c1.1,1.4-0.1,2.6-1.2,3.3c-2,1.2-4.3,2-5.8,4.3c1.7,0.9,3.4,0.9,5,0c1.1-0.6,2.1-1.1,3.4-0.7c1.2,0.4,2.4,0.9,2.2,2.4
	c-0.2,1.5-1.4,2-2.7,1.6c-2.6-0.9-5.4-0.1-7.9-0.8c-3-0.8-5.5,0.6-8.2,1.3c-0.9,0.2-1.9,0.5-1.5,1.7c0.3,0.9,1.1,1.5,2.1,1.3
	c2.2-0.3,4.4-0.7,6.6-1.2c0.7-0.1,1.3-0.6,2-0.9c1.4-0.5,2.9-0.4,3.3,1.2c0.5,2-1.2,2.7-2.7,2.7c-2.2,0-4.4-0.8-6.5,0.6
	c0.9,1.5,2.3,2.3,3.8,2.9c1.2,0.4,2.1,1.1,2.9,2c1.1,1.3,2,2.9,0.3,4.3c-1.6,1.3-3.7,0.5-4.2-1c-1.6-5.1-6.7-6.9-9.6-10.7
	c-1.4-1.8-2.9-2.5-5-1.7c-0.1,0.1-0.3,0.1-0.4,0.1c-11.6-1.2-16.5,9.1-24.3,14.3c-1.6,1.1-0.7,3.1-0.7,4.6
	c0.1,8.6,0.2,17.3,0.3,25.9c0,1.1,0.3,2.4-1.2,3.4c-1.4-0.8-0.9-2.3-0.9-3.4c-0.3-14.3-0.6-28.6-0.7-42.8c0-3.4-1.1-5-4.2-6.2
	c-5.1-2-9.6-5.3-14.1-8.5c-2.2-1.6-4-2.4-6.2-0.1c-0.8,0.8-1.9,1.5-3.1,1.8c-3.7,1.1-4.3,3.4-2.6,6.5c1.8,3.2,1.5,7,3.2,10.1
	c0.9,1.6,1,3.5-0.4,5c-0.7,0.7-1.6,0.8-2.4,0.2c-1.7-1.2-2-3.2-1.3-4.8c1.3-3.1,0.8-5.7-1.1-9.1c-1.2,2.4-2.3,4.3-3,6.3
	c-0.4,1.1-0.8,2.2-1.7,3.1c-1,1-2.2,1.8-3.5,0.7c-1.1-1-0.8-2.2-0.1-3.2c0.7-0.9,1.5-2,2.5-2.5c3.2-1.7,3.6-4.9,4.6-7.8
	c0.6-1.7-0.3-2.3-1.8-1.9c-2.8,0.7-6,0.5-8.4,2.6c-0.4,0.4-1,0.7-1.5,0.9c-1.3,0.5-2.6,0.6-3.7-0.5c-0.7-0.7-1-1.5-0.5-2.4
	c0.7-1.3,2-2.3,3.3-1.8c4.1,1.5,7.5-0.6,11.8-1.4c-1.8-1.9-3.6-2.5-5.7-2.3c-0.9,0.1-1.8,0.4-2.6,0.3c-1.2-0.1-2.3-0.5-2.8-1.9
	c-0.2-0.7-0.1-1.5,0.4-2.1c0.9-1,2.4-1.2,3.3-0.5c2.6,2.2,6.1,2.3,8.8,4.1c2.4,1.6,6.1,0.7,7.9-1.5c1-1.3,0.4-2.2-0.6-3
	c-3.3-2.6-6.4-5.3-9.8-7.7c-2.6-1.8-5.9-0.6-7,1.4c-2.1,3.9-5.7,5.4-9.1,7.5c-1.6,1-3.3,1.5-4.9,0.1c-0.7-0.6-1-1.5-0.5-2.4
	c1.1-1.9,3-2.1,4.7-1.5c3.8,1.4,5.2-1.2,7.7-3.9c-3.9-0.4-6.9-0.5-9.9,0.4c-2,0.6-4.2,0.9-5.7-1.1c-0.6-0.8-0.4-1.8,0.3-2.4
	c1.8-1.6,3.9-1.5,5.8-0.3c2.5,1.5,5.1,1.1,8.2,0.8c-2.1-2.8-4.1-4.3-7.3-3.3c-0.7,0.2-1.5,0.4-2.2,0.2c-1.7-0.5-3.8-1.1-3.1-3.5
	c0.6-2,2.5-2,4.1-1.2c3.4,1.7,7.2,2.7,10.1,5.5c0.6,0.6,1.3,1.3,2,1.6c0.8,0.4,1.9,0.3,2.5-0.4c0.8-0.9-0.3-1.5-0.7-2.2
	c-3.4-5.6-9-6.5-14.9-6.7c-0.1,0-0.3,0-0.4,0.1c-2.2,0.3-4.2,0-5.3-2.3c-0.5-1.1-0.1-2.2,0.9-2.7c2.3-1.2,3.9,0.2,5.5,1.6
	c1.6,1.4,3.4,2.3,6,1.7c-0.9-2.8-2.6-4.9-4.4-7c-0.5-0.6-1.2-0.9-1.6-1.5c-1-1.5-2-3.1-0.9-5c0.7-1.1,1.8-1.6,3.1-1.2
	c2.2,0.7,3.1,2.7,2.7,4.6c-0.9,3.7,1.2,5.8,3.7,8.5c0.8-2.6,1.1-4.6-0.6-6.5c-0.4-0.4-0.8-0.9-1.1-1.4c-0.7-1.4-0.9-2.9,0-4.2
	c0.5-0.8,1.4-1.2,2.3-0.7c1.5,0.8,2.2,2.2,2,3.7c-0.5,3.3,0.8,6.5-0.2,9.7c-1,3.2,1.7,4.4,3.2,6.3c0.5,0.7,1.5,0.5,1.8-0.3
	c0.9-1.8,2.9-3.2,1.4-5.6c-1.1-1.8-2-3.6-3-5.5c-0.6-1.1-0.9-2.2-0.5-3.4c0.4-1.2,1-2.3,2.4-2.2c1.4,0,2,1.1,2.2,2.4
	c0.3,1.2,0.2,2.4-0.4,3.5c-0.7,1.3-0.5,2.2,1.2,3c0.9-2.3,1-4.6,0.3-6.9c-0.2-0.7-0.6-1.4-0.9-2c-0.8-1.9-0.5-3.5,1-4.8
	c0.9-0.8,1.9-0.9,2.9-0.1c1.7,1.3,1.7,3.3,1,4.9c-1.2,2.8-1.4,5.7-1.5,9c2.1-1,3.2-2.2,3.3-4.2c0-0.7-0.1-1.5,0.1-2.2
	c0.4-1.4,0.9-2.9,2.5-3.4c1-0.3,1.8,0.1,2.2,1c0.8,1.5,0.3,3-0.8,4.1c-2.5,2.7-4.1,6.1-7.6,8.1c-2.5,1.4-2.9,4.4-4.2,6.7
	c-0.9,1.6,0.5,2.5,1.6,3.3c3.8,3.1,7.7,6.1,11.5,9.2c1.8,1.5,3,1.2,3.2-1.2c0.3-3.2,0.4-6.3-3.9-7.2c-1.6-0.3-3.1-1-4.6-1.7
	c-1.3-0.6-2.3-1.5-2.3-3c0-0.8,0.3-1.5,1.2-1.7c1.6-0.5,3,0,4,1.2c0.6,0.7,1,1.5,1.5,2.2c0.6,0.9,1.6,1.8,2.6,1.4
	c1.4-0.7,0.5-2.1,0.2-3.1c-0.3-1.2-0.9-2.1-1.9-3c-0.9-0.8-1.3-2-1.5-3.2c-0.2-1.6-0.2-3.1,1.7-3.6c1.8-0.5,2.8,0.5,3.4,2.1
	c0.5,1.3,0.7,2.5,0.3,3.9c-0.5,1.6-0.2,3.2,0.9,4.9c0.6-1.9,0.1-3.7,1-5.1c0.6-1,1.4-1.6,2.6-1.3c1.5,0.4,1.6,1.6,1.4,2.9
	c-0.1,0.4-0.1,1-0.4,1.2c-4.3,4.3-3.8,10-4.5,15.4c-0.2,1.8,0.1,2.8,1.5,3.7c4.3,3,8.7,5.8,13.3,8.1c3.5,1.7,3.7,1.5,3.5-2.3
	c-0.8-15.3-1.7-30.6-2.3-45.9c-0.4-11.6-0.6-23.2-0.6-34.8c0-3-1-4.6-3.6-5.8c-3.1-1.4-6.1-3.1-8.8-5.2c-2.2-1.6-4-1.9-6.5-0.8
	c-3.8,1.8-5.6,5.8-3.6,9.6c1.4,2.6,1.7,5.7,3.4,8.2c0.7,1,0.7,2.3,0.3,3.4c-0.6,1.5-1.6,2.8-3.3,2.1c-2.2-0.9-2.7-3.1-1.6-4.9
	c1.5-2.6,1.5-4.6-0.5-6.8c-1.7,1-2.3,2.4-2.3,4.2c0,1.4-0.3,2.7-1.3,3.7c-1,1-2.1,1.8-3.5,0.9c-1.4-0.9-1.2-2.4-0.5-3.6
	c0.6-1,1.6-1.7,2.4-2.6c2.3-2.4,3.7-5.4,4.3-8.6c0.2-1,0.7-2.6-0.9-3c-1.2-0.3-1.8,0.8-2.2,1.8c-0.9,2.8-3.3,4.9-4.1,7.9
	c-0.1,0.3-0.2,0.5-0.4,0.8c-0.9,1.3-2.1,2.1-3.7,2c-1-0.1-1.6-0.7-1.7-1.7c-0.1-1.7,0.7-3.1,2.2-3.6c3-1,4.6-2.8,5.3-6.3
	c-1.8,0.4-3.4,0.5-4.7,1.5c-0.7,0.5-1.5,1-2.3,1.3c-1.2,0.5-2.4,0.3-3.3-0.7c-0.7-0.7-0.9-1.5-0.5-2.4c0.6-1.3,1.8-1.6,3-1.5
	c2.5,0.1,5,0.8,7.5-0.9c-1-1.8-2.1-2.8-4.2-2.5c-0.6,0.1-1.2,0-1.7-0.2c-1.5-0.4-2.8-1.2-3.2-2.8c-0.2-0.9,0.1-1.8,1-2.3
	c1.6-0.8,3.2-0.6,4.6,0.5c1.4,1.3,2.7,2.8,4.1,4.1c2.5,2.3,9.3,2.1,11.6-0.3c1-1,0.2-1.5-0.3-2.2c-2.2-2.5-4.4-4.9-6.5-7.4
	c-0.8-0.9-1.6-1.2-2.7-1c-0.6,0.1-1.2,0.3-1.8,0.2c-5.7-1-10,1.6-13.7,5.4c-1,1-2,1.7-3.5,1.7c-1.6,0-3.1-0.3-3.3-2.2
	c-0.2-1.9,1.2-2.6,2.8-2.7c0.9-0.1,1.8,0,2.7,0.1c1.7,0.3,2.9-0.3,3.4-2c-1.6-1.4-3.6-1.3-5.5-1.3c-1,0-2.1,0.2-3.1,0.1
	c-1.6-0.2-2.8-1-3.3-2.6c-0.3-1.1-0.2-2.2,0.8-2.8c1.4-0.8,2.8-0.5,4.3,0.1c1.9,0.8,2.5,3.4,5,3.4c0.9,0,1.7,0.6,3,0.1
	c-0.3-2.2-1.5-3.9-3.3-5.3c-1-0.7-2-1.4-2.4-2.6c-0.4-1.1-0.9-2.4,0.4-3.2c1.1-0.7,2.3-0.4,3.3,0.3c1.4,1.1,1.6,2.7,1.9,4.3
	c1.1,5.8,4.1,7.8,9.6,7.1c2.1-0.3,2.2-0.8,1.5-2.8c-2.6-7.4-8.5-10.5-15.4-12.4c-1.6-0.5-3.1-1-4.3-2.3c-0.9-0.9-1.4-2-0.7-3.2
	c0.8-1.2,2.1-1,3.2-0.7c1.2,0.4,2.3,1.1,2.8,2.1c1.3,3.2,4.1,4,7.2,4.9c0.4-2.3-0.7-3.9-1.8-5.4c-0.2-0.3-0.8-0.5-1-0.8
	c-1.4-1.7-2.3-3.5-1.4-5.7c0.4-1.1,1.5-1.5,2.6-1.1c2.4,0.8,2.8,2.9,2.8,5c0,5.8,3.3,10.2,5.9,15.7c2-3.2,3-5.6,1.5-8.5
	c-0.3-0.6-0.5-1.4-0.6-2.1c0-1.9,0.4-3.8,2.7-3.8c2.2,0,2.8,1.9,2.9,3.8c0.1,2.2-2.1,3.6-1.9,5.9c-4.4,6.1-1.6,10.8,2.7,15.3
	c0.1,0.1,0.2,0.2,0.3,0.3c0.6,0.7,1.1,1.6,2.1,1.5c1.2-0.2,1.4-1.4,1.8-2.3c0.6-1.6-0.3-2.7-1-4.1c-1.8-3.7-4.8-6.7-5.9-10.7
	c1-0.8,1.7-2.3,3.3-1.3c1.5,1,2.2,2.5,2.2,4.2c0,2.4,0,4.7,2.7,6.3c0.8-2,0.8-3.8-0.2-5.5c-0.2-0.4-0.6-0.7-0.7-1.1
	c-0.7-1.8-1.5-3.7,0-5.5c0.8-0.9,1.9-1.1,2.8-0.4c1.8,1.3,1.9,3.3,1.3,5.2c-0.8,2.6-0.3,5.3-0.6,8.4c3-0.6,5-2,6.2-4.5
	c0.5-0.9,0.8-2,1.5-2.7c1.2-1.2,2.8-2.2,4.3-0.7c1.6,1.7,0.1,3.3-1.3,4c-3.4,1.9-5.9,5.1-9.6,6.4c-1.1,0.4-2,1.1-2.6,2.3
	c-2.6,4.6-2.6,5,1.7,8.4c4.1,3.2,8.3,6.1,13.3,7.9c0.9-2.3,0.5-4.4,0.4-6.4c-0.5-13.2-1.1-26.5-1.5-39.7c-0.1-2.4-0.8-3.8-2.8-5
	c-2.1-1.3-4-3-5.8-4.8c-5.1-5-13.3-5.1-18.5-0.3c-0.5,0.5-1,1.2-1.6,1.6c-1.2,0.8-2.5,1-3.8,0.3c-0.9-0.5-1.2-1.3-0.9-2.3
	c0.4-1.5,1.5-2.2,2.9-2.4c2-0.3,4.3,0.3,5.5-2.1c-1.7-1.3-3.6-2.1-5.7-2c-0.6,0-1.2,0-1.8-0.1c-1.5-0.2-2.4-1.1-2.8-2.5
	c-0.3-1,0-1.8,0.9-2.3c1.3-0.8,2.8-0.3,3.8,0.5c1.9,1.6,3.6,3.5,6.6,3.6c0.5-1.8-0.2-3.1-1.5-4.2c-1.1-1-1.5-2.2-1.7-3.5
	c-0.2-1.1,0.1-2.1,1.3-2.5c1.2-0.4,2,0.2,2.6,1.1c1.1,1.5,1,3.4,1.2,5.1c0.8,5.5,2.1,6.6,8.5,6.7c-2.1-3.5-3.5-7.3-6.3-10.2
	c-0.5-0.5-1.1-1.1-1.3-1.7c-0.5-1.3-0.8-2.6,0.2-3.8c0.5-0.6,1.3-0.8,2-0.6c1.5,0.3,2.3,1.6,2.3,2.9c0,3.4,1,6.4,3.7,9.1
	c1.3-2.5,1.9-4.7,0.4-7.2c-0.2-0.3-0.3-0.5-0.4-0.8c-0.6-1.4-0.4-2.6,0.7-3.7c0.7-0.7,1.6-0.8,2.5-0.4c1.5,0.7,1.6,2.1,1.4,3.4
	c-0.6,3.1-1.1,6.1-2.1,9.1c-0.7,2.1-0.4,3.6,1.1,5.2c2.6,2.8,5.1,5.7,9.2,7.6c0.2-5.1,1.2-9.9-2.3-14.2c-3.1-3.8-2.6-9.1-5.1-13.2
	c-0.7-1.1-0.2-2.6,1.1-3.6c0.8-0.6,1.7-0.7,2.5-0.1c1.2,0.9,1.8,2.2,1.3,3.5c-1.8,4.6,0.1,8.3,2.3,12.1l0.1,0.1l-0.1-0.1
	c-0.6-5,0.9-10.1-1.6-14.9c-0.6-1.3-0.2-2.7,1.1-3.5c0.8-0.5,1.7-0.6,2.5,0c1.3,0.9,1.3,2.4,0.9,3.6c-1.8,5.1-0.4,10.2-0.2,15.4
	c3.1-3.3,4.5-7,3.9-11.4c-0.1-0.9-0.5-1.7-0.5-2.6c0-1.7,0.9-2.9,2.7-2.8c2,0.2,2.6,2,2,3.3C64.1,10.5,64.2,16,61,20
	c-3.3,4.1-2.9,8.5-2.5,13.1c4.6-1.5,8.4-6.3,8.2-10.6c-0.1-2.7,0.4-5.3-0.2-8c-0.4-1.7,0.2-3.3,2-4c0.9-0.4,1.8-0.3,2.4,0.5
	c1.3,1.6,0.8,3.2-0.4,4.4c-1.9,2-1.7,4.2-1.4,7c3.1-2.2,5.1-4.9,7-7.7c0.3-0.5,0.4-1.2,0.7-1.6c0.9-1.2,1.8-2.5,3.6-2.2
	c1.2,0.2,1.8,1.1,1.9,2.2c0.1,1.7-0.8,3.1-2.3,3.4c-4.3,0.9-5.7,4.8-8.6,7.4c5.2,2.8,6.7-0.3,11-4c0.9-0.8,1.4-1.9,2.3-2.7
	c0.9-0.8,2-1.4,3.3-0.9c0.9,0.4,1.5,1,1.5,2c0,1.6-1.1,2.5-2.4,3c-2,0.7-4.6,0.3-5.8,3.2c2.6,0.1,4.9,0.1,6.7-2.1
	c0.1-0.1,0.2-0.2,0.3-0.3c1.4-1.4,2.9-2.1,4.8-1c1.2,0.7,1.5,1.9,1,3.1c-0.8,1.9-2.6,2.6-4.4,2.2c-3.2-0.7-6.1,0.8-9.6,1
	c1.3,2.7,2.7,4.4,5.7,4.3c1.9-0.1,3.6,0.6,3.9,2.9c0.1,1.1-0.4,2.1-1.4,2.6c-2,0.9-3.3-0.3-4.5-1.7c-1.8-2.2-3.7-4.2-5.6-6.3
	c-2.7-2.9-8.4-2.8-11,0.1c-1.2,1.3-2.2,3-3.7,3.9c-4.9,2.9-4.9,7.3-4.7,12.2c0.9,24.2,1.5,48.5,2.3,72.7c0,1.3-0.6,3,0.8,3.7
	c1.3,0.7,2.5-0.7,3.5-1.5c3.9-2.9,7.6-6.2,11.6-9c2.7-2,1.5-4.1,0.9-6.4c-0.6-2.3-1.8-3.7-4.4-3.6c-2.4,0-4.8,0.1-7.1-0.1
	c-1.6-0.1-3.1-0.9-2.7-2.8c0.4-1.7,2.1-1.9,3.7-1.6c0.4,0.1,0.8,0.4,1.3,0.5c1.5,0.3,2.6,3.1,4.1,1.2c1-1.2-1-2.8-1.5-4.3
	c-0.7-2.1-2-3.9-3.4-5.7c-0.9-1.2-1.1-2.8-0.2-4.2c0.4-0.7,1.1-1,1.9-0.7c1.6,0.6,2.4,2,2.4,3.5c-0.1,4.4,1.8,8,4.6,11.8
	c1.4-2.2,1.4-4.4,1.5-6.5c0.1-0.9-0.1-1.8-0.1-2.7c0.1-1.6,0.7-2.9,2.2-3.6c0.7-0.3,1.5-0.1,2,0.5c1.1,1.4,0.8,3-0.3,4.1
	c-2.4,2.5-1.8,5.5-2.3,9.2c2.2-1.7,3.2-3.2,3.7-5.1c0.1-0.6,0.2-1.2,0.4-1.7c0.7-1.5,1.5-3,3.4-3.1c0.8-0.1,1.4,0.5,1.7,1.2
	c0.6,1.8-0.2,3.5-1.6,4.3c-2.7,1.6-3.9,4.4-5.9,6.6c-1.1,1.2-1.8,2.8-0.6,4c1.7,1.7,2.5-0.6,3.5-1.4c2-1.7,3.8-3.7,5.7-5.7
	c5.9-6.3,5.9-10.1,0-16.7c-1.1-1.2-2.1-2.5-3.1-3.8c-0.9-1.1-1.1-2.5-0.6-3.8c0.2-0.6,0.8-0.8,1.5-0.7c1.5,0.4,2.1,1.6,2.3,2.9
	c0.3,2.1,0.6,4.1,2.9,5c1.3-1.1,1.2-2.4,0.8-3.7c-0.6-1.9-0.5-3.6,1.2-4.8c0.8-0.5,1.8-0.4,2.4,0.4c1.3,1.8,0.5,3.4-0.5,4.9
	c-0.5,0.8-0.6,1.6-0.3,2.7c3.1-1.7,3.3-6.6,7.6-6.4c0.8,2.9-0.2,4.8-2.9,6c-1.2,0.5-2.1,1.6-3.2,2.3c-3,1.9-3.2,4.2-1.4,7.2
	c2.9-1.5,3.9-4.5,6-6.5c2.7-2.6,3.5-5.6,1.5-9c0.5-2-0.7-3.7-1-5.6c-0.2-1.4,0.1-2.7,1.3-3.6c0.8-0.7,1.6-0.6,2.4,0.1
	c1.1,1,1.4,2.4,1,3.7c-0.8,2.3-2,4.6-0.2,7.1c1.3-0.8,1.7-2,1.9-3.4c0.1-0.7,0.2-1.5,0.4-2.2c0.7-1.7,1.6-3.3,3.7-3.4
	c1,0,1.7,0.6,2,1.5c0.5,1.8-0.5,3.2-1.6,4.4c-1.3,1.3-3.4,1.9-3.6,4.5c2.1,0.1,3.7-0.4,4.8-2.3c0.3-0.5,0.7-1,1.1-1.4
	c1.3-1.1,2.9-2.2,4.3-0.5c1.3,1.7-0.2,3.3-1.5,4c-1.9,1-4.1,1.9-6.3,2c-5.7,0.3-8.1,4.2-10.3,8.5l-0.1-0.1c5.6,1,9.7-1.3,13-5.6
	c0.5-0.6,0.8-1.2,1.4-1.7c1.3-1,3.1-2.1,4.3-0.3c1.2,1.7-0.3,3.1-1.8,3.9c-2.2,1.1-4.8,1.5-6.2,4c1.8,0.7,3.2,0.5,4.7-0.6
	c0.7-0.5,1.5-1,2.4-1.1c1.5-0.2,3,0,4.1,1.1c0.7,0.7,0.7,1.7,0.1,2.4c-1,1.3-2.4,1.5-4,1.3c-5.7-0.6-11.3-1.9-17.1-0.7l0.1-0.1
	c1.1,2.3,1.6,4.4-0.3,6.6c-0.6,0.7-0.5,1.8,0.4,2.3c0.8,0.5,1.2-0.5,1.7-1c1.5-1.6,2.9-3.4,4.6-4.8c1.2-1,2.9-1.7,4.5-0.7
	c0.7,0.4,1,1.1,0.7,1.9c-0.5,1.7-1.9,2.5-3.4,2.5c-4.4,0.1-5.5,3.3-7.2,6.7c3.5,1.2,6.5,0.4,9.4-1.1c0.6-0.3,1.1-1,1.7-1.4
	c1.6-1,3.3-1.5,5-0.4c1,0.6,1.3,1.7,0.7,2.7c-0.9,1.9-2.7,2.4-4.5,2.1c-4-0.7-7.6,1.1-11.5,0.9c1.9,4.7,5.5,7,10.2,6.5
	c0.4,0,0.9-0.1,1.3-0.1c1.4,0,2.7,0.2,3.5,1.4c0.5,0.7,0.3,1.6-0.2,2.1c-1.2,1.1-2.7,1.4-4.2,0.8c-2.6-1-5-2.6-7.9-3.1
	c-0.4,2.8-0.4,5.2,1.9,7c0.2,0.2,0.4,0.4,0.6,0.7c0.9,1.4,1.8,2.8,1,4.5c-0.4,0.9-1.3,1.3-2.2,1c-1.7-0.6-2.6-2-2.9-3.7
	c-0.3-2.2-0.6-4.4-0.9-7.1c-2.4,1.4-4,2.5-3.1,5.2c0.1,0.4,0.2,0.9,0.2,1.3c0,1.5,0,3-1.4,4c-0.7,0.5-1.4,0.5-2-0.1
	c-1.4-1.3-1.2-3-0.6-4.6c1-2.8,2.3-5.4,4.6-7.6c2.7-2.5,1.3-7.2-2.4-7.6c-4.9-0.5-9.8-0.4-14.6-1.5c-1.2-0.2-1.9,0.6-2.7,1.3
	c-6.3,5.9-12.8,11.6-20.2,16c-2.1,1.2-2.1,3.1-2,5c0.8,14.4,1.7,28.8,2.3,43.2c0.3,7.1,0.1,14.2,0.7,21.6c5-2.7,8.9-6.2,12.7-9.8
	c0.3-0.3,0.6-0.9,0.5-1.2c-2-4.1-0.7-9.3-3.9-13c-1.8-2.1-2.6-4.7-3.9-7c-0.7-1.3-0.7-2.6,0.2-3.8c0.5-0.6,1.2-0.9,2-0.6
	c1.6,0.7,1.4,2.2,1.3,3.5c-0.2,2.1-0.2,4.1,2,5.8c0.8-3.2,1.8-6.1,2-9.2c0.1-1.5,0.3-3,2-3.6c0.8-0.3,1.6,0.1,1.9,0.8
	c0.7,1.5,0,2.8-0.9,4.1C78,162.4,77.1,165,77.8,168c-0.3,0.1-0.8,0.2-0.3,0.6C77.6,168.4,77.7,168.2,77.8,168z M34.9,135L34.9,135
	L34.9,135z M103.6,144.8L103.6,144.8l0.1-0.1L103.6,144.8z M85.8,92.9L85.8,92.9L85.8,92.9z M23.3,187.6L23.3,187.6L23.3,187.6z
	 M14.3,58.2L14.2,58L14.3,58.2l0.2,0.2L14.3,58.2z M31.3,15.3l-0.1-0.1L31.3,15.3C31.3,15.3,31.3,15.3,31.3,15.3z M117,76
	c0.2-0.1,0.8,0.2,0.5-0.4C117.4,75.7,117.2,75.8,117,76l-0.1,0.1L117,76z M111.7,95.7c-0.1,0-0.3,0-0.4,0.1c-0.1,0-0.1,0.2-0.2,0.2
	C111.3,95.9,111.5,95.8,111.7,95.7L111.7,95.7z M28.7,99.2c-0.1,0.2-0.8,0.2-0.2,0.6C28.5,99.7,28.5,99.4,28.7,99.2
	c0-0.1,0-0.2,0.1-0.3C28.7,99.1,28.7,99.2,28.7,99.2z M53.6,60c-0.2,0.1-0.4,0.2-0.5,0.2C53.3,60.1,53.5,60,53.6,60L53.6,60z
	 M111.6,71.5c0.3-0.2,0.6-0.4,1-0.6c-0.1-0.1-0.3-0.3-0.4-0.4C112,70.8,111.9,71.2,111.6,71.5c-0.1,0.1-0.2,0.2-0.3,0.3
	c-0.1,0.1,0,0.2,0,0.3C111.4,71.9,111.5,71.7,111.6,71.5z M86.9,105.1c4.3,0.3,7.5,0.7,10.8,0.8c3.9,0.1,4.5-0.8,3.2-4.5
	c-1.2-3.4-3.3-6.7-1.3-10.5C95.5,95.4,91.5,99.9,86.9,105.1z M8.5,134.4c0.7,0.1,0.9-0.3,0.8-0.8c-0.1-0.5-0.3-1.2-0.7-1.5
	c-0.4-0.3-0.8,0-0.9,0.5C7.5,133.4,8,134,8.5,134.4z M87.2,34.4c-0.3-0.2-0.6-0.6-1-0.6c-0.5-0.1-0.8,0.3-0.5,0.7
	c0.2,0.3,0.6,0.4,1,0.6C86.8,35.1,87,34.7,87.2,34.4z M32.9,49.5c-0.3-0.4-0.4-0.8-0.7-0.9c-0.5-0.2-0.7,0.2-0.7,0.7
	c0,0.5,0,1.2,0.7,1.2C32.5,50.4,32.7,49.8,32.9,49.5z M42.6,55.3c0-0.4-0.2-0.8-0.7-0.8c-0.2,0-0.4,0.4-0.4,0.6
	c0.1,0.4,0.3,0.9,0.6,1C42.6,56.2,42.5,55.7,42.6,55.3z M28.1,132.1c0.2-0.6,0.5-1,0.5-1.3c0-0.5,0.1-1.3-0.9-0.9
	c-0.3,0.1-0.5,0.7-0.4,1.1C27.3,131.3,27.7,131.6,28.1,132.1z M37.2,101.9c0-0.5-0.3-0.8-0.8-0.7c-0.2,0-0.4,0.4-0.4,0.7
	c-0.1,0.4,0,0.9,0.5,1C37,102.8,37.2,102.3,37.2,101.9z M9,65.7c0-0.6-0.3-1-0.8-1c-0.4,0-0.8,0.2-1.1,0.3c0.3,0.3,0.5,0.8,0.8,0.9
	C8.2,66,8.6,65.8,9,65.7z M19.6,42.1c-0.2,0.3-0.5,0.5-0.5,0.7c0.1,0.4,0.2,0.9,0.5,1.1c0.5,0.2,0.7-0.3,0.6-0.7
	C20.1,42.8,19.8,42.5,19.6,42.1z M118.3,104.2c-0.2-0.2-0.4-0.5-0.6-0.5c-0.4,0.1-0.7,0.3-1.1,0.5c0.2,0.2,0.4,0.5,0.5,0.4
	C117.6,104.5,117.9,104.3,118.3,104.2z M91.6,23.9c-0.1-0.4-0.2-0.6-0.3-0.9c-0.3,0.1-0.6,0.1-0.8,0.3c-0.1,0.1-0.1,0.5-0.2,0.7
	C90.7,23.9,91.1,23.9,91.6,23.9z M106.4,193.7c-0.3-0.3-0.6-0.5-1-0.8c-0.1,0.2-0.4,0.5-0.4,0.5c0.3,0.3,0.6,0.6,0.9,0.9
	C106.1,194.2,106.2,194,106.4,193.7z M21.9,77.8c-0.1-0.3-0.2-0.7-0.3-0.7C21.2,77,20.8,77,20.4,77c0.1,0.2,0.1,0.5,0.3,0.6
	C21.1,77.7,21.5,77.7,21.9,77.8z M86.7,18.9c0-0.4-0.2-0.5-0.5-0.3c-0.1,0.1-0.3,0.2-0.3,0.3c0,0.2,0.2,0.4,0.2,0.5
	C86.4,19.2,86.6,19.1,86.7,18.9z M79.2,14.3c0.2-0.1,0.5-0.1,0.7-0.3c0.1-0.1,0-0.4-0.1-0.6c-0.2,0.1-0.5,0.1-0.7,0.3
	C79,13.8,79.2,14.1,79.2,14.3z M37.3,12.3c0-0.3,0-0.6-0.1-0.8c-0.2-0.3-0.4-0.3-0.5,0.1c0,0.1,0,0.3,0.1,0.4
	C36.9,12.2,37.1,12.2,37.3,12.3z M11.1,73.6c-0.3,0-0.5-0.1-0.7-0.1c-0.4,0.1-0.4,0.3-0.1,0.4c0.2,0.1,0.5,0,0.8-0.1
	C11.1,73.9,11.1,73.7,11.1,73.6z M6.4,150.3c-0.2-0.1-0.4-0.3-0.6-0.4c0,0-0.1,0.2-0.2,0.3c0.2,0.1,0.4,0.3,0.6,0.4
	C6.2,150.6,6.3,150.4,6.4,150.3z M11.2,47.8c-0.2,0.1-0.5,0.3-0.4,0.4c0.1,0.2,0.3,0.4,0.5,0.6c0.2-0.1,0.5-0.3,0.4-0.4
	C11.6,48.2,11.4,48,11.2,47.8z M105.2,69c-0.1-0.2-0.2-0.4-0.3-0.7c-0.1,0.1-0.2,0.3-0.1,0.4c0.1,0.2,0.2,0.4,0.3,0.7
	C105.1,69.2,105.2,69.1,105.2,69z M3.7,143.2c-0.3-0.1-0.5-0.4-0.8-0.4c-0.4,0-0.5,0.3-0.2,0.5c0.1,0.1,0.3,0.2,0.4,0.2
	C3.3,143.5,3.5,143.4,3.7,143.2z M23.2,93.9c-0.1-0.1-0.1-0.2-0.2-0.3c-0.2,0.2-0.4,0.3-0.6,0.5c0,0,0.1,0.2,0.2,0.3
	C22.9,94.2,23.1,94.1,23.2,93.9z M50.3,5.9c0.2,0.2,0.3,0.3,0.5,0.5c0.1-0.1,0.2-0.2,0.2-0.3c-0.1-0.2-0.2-0.5-0.3-0.7
	C50.6,5.5,50.5,5.7,50.3,5.9z M3.8,156.9c0.3,0.1,0.5,0.2,0.8,0.2c0.1,0,0.3-0.1,0.4-0.1c-0.2-0.1-0.3-0.4-0.5-0.4
	C4.3,156.6,4,156.7,3.8,156.9z M115.6,150.6c-0.2,0.2-0.3,0.4-0.5,0.6c0.2,0.1,0.5,0.3,0.7,0.2c0.2-0.1,0.3-0.4,0.5-0.6
	C116.1,150.8,115.9,150.7,115.6,150.6z M15,176c0.1-0.1,0.2-0.1,0.3-0.2c-0.1-0.1-0.3-0.2-0.4-0.3c-0.1,0.1-0.2,0.2-0.2,0.3
	C14.8,175.9,14.9,176,15,176z M39.2,144.2c-0.1-0.1-0.2-0.2-0.2-0.3c-0.1,0.2-0.2,0.4-0.3,0.7c0,0.1,0.1,0.2,0.2,0.3
	C39,144.6,39.1,144.4,39.2,144.2z M101.2,94.7c0.1,0,0.3,0,0.3-0.1c0.1-0.1,0.1-0.3,0-0.4c-0.2-0.4-0.4-0.3-0.4,0.1
	C101.1,94.4,101.2,94.6,101.2,94.7z M120.3,89.9c0.1-0.1,0.3-0.1,0.3-0.2c0-0.1,0-0.3-0.1-0.4c-0.3-0.2-0.5-0.1-0.5,0.3
	C120,89.7,120.2,89.8,120.3,89.9z M69.2,13.8c0-0.1,0.2-0.3,0.1-0.4c-0.2-0.3-0.4-0.3-0.6,0.1c0,0.1,0,0.3,0.1,0.4
	C68.9,13.9,69.1,13.8,69.2,13.8z M22.8,135.8c0,0.1-0.1,0.3-0.1,0.4c0.1,0.4,0.3,0.5,0.5,0.1c0-0.1,0-0.3-0.1-0.4
	C23.1,135.8,22.9,135.9,22.8,135.8z M32.9,190.9c0-0.1-0.1-0.2-0.1-0.4c-0.1,0.2-0.2,0.3-0.3,0.5c0,0,0.2,0.2,0.2,0.2
	C32.8,191.1,32.8,191,32.9,190.9z M36.3,57.4l-0.1-0.3l-0.1,0.3L36.3,57.4z M26.2,30.1c-0.1-0.1-0.2-0.2-0.3-0.2
	c-0.1,0-0.2,0.1-0.3,0.1c0.1,0.1,0.2,0.2,0.3,0.2C26,30.2,26.1,30.1,26.2,30.1z M24,21.2l0.3-0.1l-0.3-0.1L24,21.2z M45.4,11.8
	c0-0.1-0.1-0.2-0.1-0.3c-0.1,0-0.2,0-0.2,0.1c0,0.1,0,0.2,0.1,0.3C45.2,11.9,45.3,11.8,45.4,11.8z M64.1,5.6C64,5.5,64,5.4,64,5.3
	c-0.1,0-0.2,0.1-0.2,0.1c0,0.1,0,0.2,0.1,0.3C63.9,5.7,64,5.6,64.1,5.6z M108.5,125.4l0.2-0.3l-0.3,0L108.5,125.4z M56.1,2.8l-0.3,0
	l0.1,0.4L56.1,2.8z M15.7,132.8l-0.2,0.4l0.3,0L15.7,132.8z M66.4,98.8l-0.3-0.2l0,0.2L66.4,98.8z M33.2,151.6l0-0.3l-0.4,0.1
	L33.2,151.6z M7.1,164.9l0.3-0.1l-0.3-0.1L7.1,164.9z M18.9,167.7l0-0.3l-0.4,0.1L18.9,167.7z M79.9,88.7l0.2,0L80,88.4L79.9,88.7z
	 M69.4,86.6l-0.3,0l0.1,0.3L69.4,86.6z M19.7,86.3l0-0.3l-0.3,0.1L19.7,86.3z"/>
</svg>
