<?xml version="1.0" encoding="utf-8"?>
<!-- Generator: Adobe Illustrator 25.3.0, SVG Export Plug-In . SVG Version: 6.00 Build 0)  -->
<svg version="1.1" id="Layer_1" xmlns="http://www.w3.org/2000/svg" xmlns:xlink="http://www.w3.org/1999/xlink" x="0px" y="0px"
	 viewBox="0 0 107.8 229.9" style="enable-background:new 0 0 107.8 229.9;" xml:space="preserve">
<path d="M69.5,74.1c4.2-1.9,7.6-5.2,12.2-6.3c1.8-0.4,3.5-0.6,4.8,0.9c1.4,1.6,0.5,3.2-0.3,4.8c-3,5.5-7.8,9.3-13.3,11.8
	c-4.3,1.9-6,4.9-6.4,9.3c-1.6,17.4-3.3,34.7-4.9,52.1c-1,11.4-3.3,22.6-2,34.3c3.3-7.2,6.6-14.3,10.4-21.2c0.7-1.3-0.4-2.2-0.9-3.1
	c-3.2-5.6-2.6-11.6-1.7-17.6c0.2-1.2,0.6-2.5,1.7-2.9c1.6-0.6,2.4,0.9,3.3,1.8c2.6,2.7,2.8,6.6,4.4,10.3c3.7-4.6,7.1-8.4,4.1-14.7
	c-1.6-3.2-0.8-7.3-0.2-10.9c0.5-3.4,1.3-6.4,6.1-5.8c4.8,0.5,4.2,3.6,4,6.8c0,0.9-0.1,1.9-0.2,2.9c11.5-4.4,13.7-4,16.6,2.7
	c3.1,7.1-3.7,6-6.5,8.1c6.2,4.6,6.3,5.5,2,10.8c-3.8,4.6-4.5,4.6-9.2,0.6c-8.1-6.9-8.1-6.9-13.6,2.5c-8.7,14.7-16,30-20,46.8
	c-1.9,8.1-1.4,16.2-1.7,24.3c0,1,0,1.9-0.1,2.9c-0.2,1.8,0.3,4.6-2.2,4.6c-2.5,0-2.2-2.8-2.2-4.6c0-11,0.1-22.1,0.4-33.1
	c0.1-3.5-0.4-5.1-4.7-4.9c-4.9,0.3-8.8-2.5-11.7-6.5c-1-1.4-2.2-2.9-1.1-4.8c1-1.7,2.9-1.8,4.7-1.8c3.6,0,6.6,1.8,10.7,4.3
	c-2.1-8.4-5.3-14.9-9.6-21c-1.3-1.9-3.2-0.9-4.8-0.4c-3.2,0.9-6.2,2.1-9.6,2c-4.1-0.1-6.6-2.2-7-6.2c-0.4-4,0.4-7.5,5.8-7.1
	c-1.6-3.8-8.2-6.6-2.1-11.2c4.3-3.3,10.2-1.3,14.6,5.4c0.4-4.9,0.7-9.6,6.8-8.5c3.1,0.5,4.9,1.9,5,5.3c0.2,5.6-0.9,10.9-3.8,15.6
	c-1.4,2.2-1.2,3.6,0.1,5.7c2.4,3.7,4.3,7.7,6.8,12.2c2.7-17.1,4.5-33.5-1.7-49.6c-1.1-2.9-2.1-4.4-5.7-3.6c-4.6,1-9.3,0.3-13.6-1.7
	c-2-1-5-1.7-4.7-4.4c0.2-2.3,3-2.6,5-3.3c3.8-1.2,7.6-1,12.2-0.6c-5.1-9-11-16.5-18-23.2c-1.8-1.7-3-0.9-4.3,0.5
	c-2.2,2.2-4.3,4.5-6.7,6.5c-5.1,4.5-12.3,2.4-14.4-4c-0.7-2-0.1-3.5,1.6-4.5c1.8-1.1,3.7-2,6-3.1c-3-2.4-8.3-1.1-9.2-6
	c-0.4-2.3-0.6-4.7,0.5-6.8c1.8-3.7,5.6-4.2,12.5-1.3c-2-4.2-0.6-6.7,3.4-7.2c3.7-0.5,8.2-0.8,8.7,4.2c1.4,13.9,9.4,24,18.1,33.9
	c3,3.4,5,7.6,7.8,11.3c-1.9-14.5-5.3-28.6-9.2-42.6c-0.8-2.9-1.8-4.1-5.2-3.6c-5.5,0.8-9.8-1.6-12.8-6.3c-1-1.5-1.9-3.1-1.1-4.9
	c1-2.1,3.2-1.9,5.1-1.9c3.3-0.1,5.9,1.7,8.6,3.2c-0.4-9.4-2-11.3-10.5-13c-2.7-0.5-5.3-1.1-7.9-2c-5-1.8-6.1-4.4-4.4-8.9
	c1.9-4.8,4.5-5.7,9.7-3.5c1,0.4,2,0.9,3.1,1.4c0.3-4.4-5.5-9.3,1.5-12.2c4.3-1.8,6.5,0.4,10,9.2c1.5,0.1,1.7-1.3,2.4-2.1
	c1.9-2.3,4-4.8,7.2-2.2c3.2,2.5,4.7,5.7,2,9.6c-2.3,3.4-5,6.5-8.4,8.8c-2.8,1.9-3.7,3.7-2.3,7.2c9.6,24.7,15.5,50.3,19.8,76.6
	c1.1-9.3,2.2-18.5,3.3-27.8c1.2-10,2.3-20,3.6-30c0.3-2.7,0.5-4.5-2.9-5.7c-4.1-1.4-8.8-11.1-8.4-15.6c0.3-2.9,1.8-2.9,4-2.2
	c3.2,1.1,5.8,3.3,10.2,9c2-6,3.8-11.8,5.8-17.5c0.6-1.7-0.6-2.4-1.3-3.5c-2.8-4.4-5.7-8.8-8.3-13.3c-2.9-5.2-2.3-8.1,1.5-9.7
	c3.9-1.6,6.7,0,8.6,5.1c0.2,0.5,0.4,1.1,0.7,2.1c2.4-2.8,1.2-6.8,3.5-9c2.7-2.7,6.3-2.1,9.3-1.1c4.2,1.4,4,7-0.5,17
	c3.1-0.4,6-0.9,8.9-1.1c3.2-0.3,5.8,0.6,6.2,4.4c0.4,3.7,0,7.1-4.4,8.3c-4.8,1.3-9.7,1.3-14.4-0.1c-4.8-1.4-6.9,0.1-8.1,5
	c-3.2,13.2-6.9,26.2-7,39.9c0,0.1-0.1,0.1-0.1,0.2C70.2,74.1,69.5,74.9,69.5,74.1z M39,148C39,148.1,39,148.1,39,148
	c-2.6-2.6-3.3-6.4-5.3-9.4c-1.5-2.3-3.7-1.6-5.7-1.4c-1,0.1-1.7,0.8-1.4,2C26.9,141.3,36.1,147.8,39,148z M78.9,21.2
	c5-3.3,7.6-7.7,9.3-12.7c0.6-1.6,0.9-4.1-2.1-4.4c-2.3-0.3-4.3,0-4.7,2.9C80.6,11.7,79.7,16.5,78.9,21.2z M19,75.3
	c-3.7-2.8-6.8-6.2-11.1-7.5c-1.9-0.6-3.6-0.5-4.2,1.7c-0.6,1.9,0.1,3.7,2,4.2C10,74.7,14.4,76.1,19,75.3z M88.4,136.5
	c3.9-1.1,7.9-2.1,11.8-3.4c1.4-0.5,4-0.4,2.8-3.1c-0.9-2.1-2.3-4.2-5.3-2.6C93.8,129.4,90.5,132.1,88.4,136.5z M21.4,80.1
	c-4.6-0.2-8,2-11.5,3.4C8.6,84,5.3,84,6.7,86.8c1.1,2.2,3.5,3.9,6.2,1.8C15.9,86.2,18.9,83.8,21.4,80.1z M82.8,24.9
	c5.6,1.9,10.2,2,14.7,1c1.8-0.4,2.4-1.6,2.3-3.4c-0.1-2.3-1.7-2.3-3.3-2.1C92.2,21,88.1,22.2,82.8,24.9z M31.8,34.5
	c-3-3.9-6.4-5.7-9.7-7.4c-1.8-0.9-3.3-0.4-4.3,1.5c-1.1,2.1,0,3.2,1.9,3.9C23.3,33.8,26.9,34.8,31.8,34.5z M42.7,149.2
	c0.5,0.1,1,0.1,1.5,0.2c2.6-3.5,2.7-7.7,2.8-11.8c0-1.6-0.9-2.5-2.5-2.5c-1.5,0-1.8,1.1-1.9,2.4C42.7,141.4,42.7,145.3,42.7,149.2z
	 M33.5,30.3c1.4-4.2,1.2-8.1-0.2-11.8c-0.6-1.6-1.9-2.7-3.6-2c-1.6,0.7-1.1,2.3-0.6,3.5C30.6,23.4,32.1,26.8,33.5,30.3z M38.9,33.4
	c3.7-2.3,5.7-5.1,7.9-7.7c1.2-1.5,0.9-2.9-0.4-4c-1.7-1.4-2.5,0.2-3.1,1.2C41.3,25.9,39.2,28.8,38.9,33.4z M90.7,139.7
	c-0.2,0.4-0.5,0.9-0.7,1.3c2,1.7,4,3.4,5.9,5.1c2.3,2.2,3.4,0.1,4.5-1.3c1.5-2,0-2.7-1.6-3.2C96.2,140.8,93.5,139.7,90.7,139.7z
	 M23.2,72.6c0.4-0.1,0.8-0.3,1.1-0.4c-0.7-3-1.4-5.9-2.2-8.9c-0.7-2.5-2.7-2.8-4.6-1.9c-2.1,1.1-0.6,2.6,0.2,3.8
	C19.6,67.8,21.4,70.2,23.2,72.6z M72.9,19.8c0.6-4.5-0.5-7.6-1.3-10.7c-0.4-1.3-1.4-2.6-2.9-2.2c-1.9,0.6-1.1,2.2-0.6,3.4
	C69.4,13.2,70.9,16,72.9,19.8z M35.8,152.8c-3.3-1-5.5-1.6-7.7-2.2c-1.7-0.5-3.2-0.4-3.3,1.8c-0.1,1.9,1.2,2.8,3,2.8
	C30.1,155,32.6,154.8,35.8,152.8z M84.4,132.5c2-2.8,2.3-6.1,2.8-9.4c0.1-0.9,0.2-2-1-2.3c-1.5-0.3-2,0.7-2.2,1.9
	C83.4,125.9,83.3,129.1,84.4,132.5z"/>
</svg>
