<?xml version="1.0" encoding="utf-8"?>
<!-- Generator: Adobe Illustrator 25.3.0, SVG Export Plug-In . SVG Version: 6.00 Build 0)  -->
<svg version="1.1" id="Layer_1" xmlns="http://www.w3.org/2000/svg" xmlns:xlink="http://www.w3.org/1999/xlink" x="0px" y="0px"
	 viewBox="0 0 107.3 227.1" style="enable-background:new 0 0 107.3 227.1;" xml:space="preserve">
<g>
	<path d="M81.5,24.1c3.7-0.1,6.6-3,6.4-6.3c-0.2-3.1-3.2-5.9-6.4-5.9c-3.6,0-6.4,2.9-6.2,6.4C75.5,21.9,77.9,24.2,81.5,24.1z"/>
	<path d="M12.7,64.5c0.1-3.5-2.9-6.5-6.4-6.4c-2.9,0.1-6.2,3.3-6.4,6.1c-0.2,3.1,3.1,6.2,6.6,6.3C9.9,70.5,12.6,67.8,12.7,64.5z"/>
	<path d="M104.6,115.9c-2.5-1.5-5.2-1.6-7.5,0.2c-4,3-2.2,6.5-0.4,9.8c0,0-0.1,0-0.1,0l0.1,0.1c-2.8,0.1-4-0.6-3.3-4
		c1.1-5.2-1.1-8.9-4.9-9.8c-3.5-0.8-5.8,0.9-7.2,3.9c-1.2,2.5-0.2,4,2.3,5c-0.1-2.4-1-4.9,1.9-6.1c1.4-0.6,2.8-0.5,4,0.6
		c2.2,1.9,1.9,4.5,1.3,6.9c-0.7,2.5-2.5,4.2-4.9,5.2c-8.1,3.7-13.5,10.1-17.5,17.8c-1.4,2.7-2.7,5.4-4.4,9
		c-0.7-13.5-1.5-26.1-5.2-38.2c-1-3.1,0.1-4,3.3-3.7c2.6,0.3,5.3,0.1,7.9-0.2c14-2,25.5-8.1,32.3-21.2c1.3-2.4,3-5.5,1.2-8
		c-1.7-2.4-4.6,0-6.9,0c-1.1,0-2.1,0.2-3.2,0.3c-10.6,1.4-20.3,4.9-27.9,12.8c-0.4,0.4-1,0.6-1.6,0.8c7.4-6.2,12.4-13.8,13.5-23.6
		c0.3-2.8,1.5-6.6-0.7-8c-2.6-1.7-4.1,2.4-6.2,3.7c-8.5,5-13.1,12.6-15.1,22.1c-0.1,0.7-0.5,1.3-0.8,2.3c-2-16.2-0.7-36.3,2.9-48.8
		c1.5-5.1,3.6-10,7.3-14c2.8-2.9,6.2-4.1,10.1-3.5c3.3,0.5,6,3.9,5.4,6.8c-0.9,3.9-3.7,3.6-6.6,2.6c-0.2-0.1-0.5,0.4-1.1,0.7
		c1.2,2.9,3.6,3.1,6,2.2c3-1,4.5-3.4,4.3-6.6c-0.2-4.1-3.1-7.7-7.6-8.3c-3.2-0.4-3.5-1.4-3-4.3c0.9-5.7-0.7-8.8-4.5-10.1
		c-3.4-1.2-5.9,0.3-7.5,3.2c-1.3,2.4-0.8,4.5,2.3,5.8c-0.5-2.7-0.7-5.2,2.1-6.5c1.3-0.6,2.4-0.3,3.5,0.5c2.5,2,2.2,4.8,1.6,7.4
		c-1.2,5.2-5.9,7.3-9.7,10.9c-1.3-12-8-20.6-14.3-29.3c-0.8-1.1-1.3-2.9-3.1-2.4c-1.7,0.5-1.6,2.3-1.8,3.6
		c-1.6,8.9-1.1,17.5,3.7,25.4c-6.1-3.4-11.7-7.7-18.4-9.9c-2.7-0.9-5.2-2.1-7.6-3.8c-1.1-0.8-2-2.5-3.6-1.6
		c-1.8,1.1-0.6,2.9-0.4,4.4c1.5,9,5.3,16.9,12.4,22.8c7.5,6.4,16.1,10,26.7,7.8c-2.8,15.5-2.9,30.6-1.7,45.9c-0.8-0.3-1-0.3-1.1-0.4
		c-0.3-0.4-0.6-0.9-0.9-1.3c-6.3-10.3-14.4-18.3-26.4-21.6c-2.2-0.6-3.7-2.1-4.8-3.9c-1.3-2.2-2.3-4.5-0.3-6.9
		c1.1-1.4,2.6-1.8,4.3-1.2c3,1.1,1.8,3.7,1.9,5.8c0,0.1,0.3,0.2,0.6,0.5c2.1-0.8,2.5-2.5,2-4.6c-0.6-2.2-1.9-3.8-4.1-4.4
		c-5.4-1.5-10.1,3.2-7.9,8.8c1.7,4.5,0.7,5.9-3.6,6.5c-1,0.1-2,0.8-2.8,1.4c-2.7,2.2-4,5.1-3.3,8.4c0.6,3.2,2.6,5.4,5.8,6.3
		c2.9,0.8,3.8,0.3,5-3c-4.9,0.7-7.7-0.6-8.3-3.9C7.3,78.3,9.9,75.1,14,74c2.1-0.6,4.1-0.8,6.3-0.4c12.9,2.1,21.2,10.2,27.2,20.9
		c10.1,18,13.1,37.9,13.3,58.3c-1.8-3.8-3.1-7.8-5.3-11.4c-3.2-5.5-9-7.8-13.7-11.5c-1.3-1-2.5-3.2-4.4-2c-1.7,1.1-0.7,3.3-0.6,5
		c0.5,8.4,4.4,15.4,9.7,21.7c-6.4-3.9-13.2-6.5-20.6-7.2c-3.7-0.3-7.4-0.5-11.1-0.9c-4.2-0.4-4.7,0.2-3.5,4.4
		c1.6,5.7,5.2,10,9.7,13.6c9.8,7.8,21.1,10.6,33.4,9.3c4.2-0.5,5.2,0.3,4.7,4.5c-1.9,14.8-1.1,29.7,0.5,44.5c0.2,1.5,0,3.5,1.9,4.3
		c1.3-1,1-2.1,0.9-3.1c-1.8-12.3-2-24.7-1.6-37.1c0.6-15.8,3.7-30.9,12.3-44.5c4.2-6.6,9.8-11.6,17.6-13.6c5.4-1.4,9.7,1.8,9.9,7.2
		c0.2,4-1.9,5.8-5.9,4.9c-1-0.2-2-1.3-2.6,0.3c-0.4,1.2,0.7,1.8,1.7,2.3c4,2.1,9-1.2,9.4-6.2c0.4-4.3-1.9-7.4-4.5-10.3c0,0,0,0,0,0
		l-0.1-0.1c1.2,0,2.5,0.3,3.7,0c2.9-0.7,4.4-2.9,4.8-5.7C107.6,119,106.6,117.1,104.6,115.9z M53.8,39.1c1.3,0,1.9,0.6,1.9,1.9
		C54.4,41,54.1,40.1,53.8,39.1z M17.8,19.1C28,29.9,39.1,38.3,51.6,45.6C40.9,50.2,20,38,17.8,19.1z M24.6,21.9
		C36.3,25,44.8,32.6,51.9,42C41.7,36.7,32.3,30.5,24.6,21.9z M52.5,33.9c-8.6-7.7-11.7-17.3-9-29.9c6.6,9,13.2,16.9,13.7,27.8
		c0.1,1.5,0.7,3.6-1.1,4.2C54.6,36.4,53.5,34.8,52.5,33.9z M64.5,109.4c13.7-4.7,24.9-12,35.4-20.5
		C94.8,101.7,79.1,110.9,64.5,109.4z M98.4,86c-11.9,10.6-24.2,18.4-39.1,21.7C68.4,94.2,80.6,86.3,98.4,86z M74.9,69.8
		c0.7,11.4-7.2,23.6-18,28.4C58.2,85.8,62.8,75.7,74.9,69.8z M56.2,105.7c-0.3-3.2-0.3-3.2,4.2-5.1
		C59.4,102.5,58.3,104.4,56.2,105.7z M39.9,132.4c12,4.9,17.2,14.5,19.3,26.9C47.9,155.1,39,142.5,39.9,132.4z M49.8,156.7
		c-1.3-0.3-2.2-0.9-3-2C48.1,155,48.9,155.8,49.8,156.7z M14.4,150.5c13.3,7.8,26.5,14.4,40.2,20C37.1,173.4,18.4,164.3,14.4,150.5z
		 M56.3,167.4c-13.1-3.7-25-10.1-36.5-17.4C35,149.5,47,155.7,56.3,167.4c0.1,0,0.2,0.1,0.3,0.1C56.5,167.5,56.4,167.5,56.3,167.4z
		 M60.5,165.9c-0.9,1-1.4-0.2-2-0.8c-2.1-2-4.1-4-6.2-6c2.5,1.4,4.9,2.9,7.4,4.3C60.9,164,61.4,164.9,60.5,165.9z"/>
</g>
</svg>
