<?xml version="1.0" encoding="utf-8"?>
<!-- Generator: Adobe Illustrator 25.3.0, SVG Export Plug-In . SVG Version: 6.00 Build 0)  -->
<svg version="1.1" id="Layer_1" xmlns="http://www.w3.org/2000/svg" xmlns:xlink="http://www.w3.org/1999/xlink" x="0px" y="0px"
	 viewBox="0 0 123.4 231.2" style="enable-background:new 0 0 123.4 231.2;" xml:space="preserve">
<g>
	<path d="M121.7,98.2c-3.1-1.5-4.5,3.1-5.7,5.7c-1.5,3.3-1.1,7.5-4.4,10.2c-1.5-1.6-1.2-5.4-4.2-4.3c-2.7,1-1.8,4.1-1.6,6.5
		c0.1,1,0.3,2.2,0.9,2.8c3,3.1,0.8,5.3-0.9,8.3c-0.6-1.2-1-1.8-1.2-2.5c-0.5-1.3-1-3-2.8-2.4c-1.9,0.7-1.8,2.5-1.4,4.1
		c0.2,0.8,0.5,1.6,1,2.2c3.5,3.9,1.9,7.4-0.7,11.3c-0.5-1.2-0.9-1.9-1.2-2.6c-0.7-1.6-1.7-3-3.7-1.8c-1.7,1-1.5,2.7-0.8,4.3
		c0.4,0.9,0.9,1.9,1.6,2.5c3.6,2.9,2.2,5.6,0,8.8c-1.8-2-2.2-6-5.1-4.5c-2.9,1.4-0.5,4.2,0.1,6.4c0.1,0.5,0,1-0.1,1.5
		c-3.6-1.7-7.5-1.9-11.1-0.7c-7.5,2.4-6.1-4.2-7.4-7.2c-1.9-4.6,2.8-3.3,4.8-3.7c6-1.1,11.4-2.9,14.6-8.5c1.9-3.4,1.8-5.2-2.8-6.1
		c-5.9-1.1-10.5,1.6-15.4,4c-0.7-3.4,0.8-6.3,0.7-9.3c-0.1-3.8,1.1-5.6,5.5-6c7.6-0.6,13.5-4.8,17.8-11.2c2.3-3.5,1.2-5.1-2.7-5.7
		c-7-1.2-12.6,1.6-18.3,6.9c0.8-5,1.7-9,1.9-12.9c0.3-4.4,2.2-6.8,6.6-8.1c6.3-1.8,11.8-5.2,16.1-10.3c2.5-2.9,5.5-6.7,2.9-10.3
		c-2.5-3.4-6.7-1-10.1,0.2c-4.8,1.7-8.2,5.4-12.4,9.3c0.7-3.9,1.5-6.8,1.7-9.8c0.3-3.9,1.8-5.8,6.1-6.5c6.4-1,12.5-3.6,16.9-8.8
		c1.6-1.9,3.8-4.2,2.2-6.9c-1.6-2.6-4.6-2.2-7.2-1.8c-4.7,0.7-8.9,2.7-14.1,5.2c2.1-6,1.9-12.3,5.9-15.5c9.3-7.6,8.8-16.9,6.9-27
		c-0.3-1.6-0.2-3.6-2-4.1c-2-0.6-3.4,1.1-4.5,2.5C88,10.1,86,19.1,88,28.2c1.1,4.7-0.1,7.8-2.2,12.4c-2.8-5.6-5.7-9.9-9.5-13.5
		c-1.4-1.3-3-3.4-5.1-2.5c-2.5,1-2,3.8-1.8,5.9c0.6,7.9,2.8,15.5,8.5,20.9c3.8,3.7,4,6.9,2.6,11.1c-0.5,1.5-0.7,3-1.2,5.3
		c-4.6-4.3-8.6-8.6-13.5-11.7c-1.5-0.9-3.3-1.9-5-0.4c-1.4,1.3-0.8,3.1-0.2,4.5c3,7.4,6.5,14.5,14.3,18c2.7,1.2,2.2,2.8,1.9,4.8
		c-1.7,9.9-3.4,19.9-4.9,29.9c-1.1,7.2-2,14.3-3.1,22.4c-3.5-5-4-9.1-2.8-14c3.4-14.3,2.3-28.1-5.9-40.7c-0.8-1.3-1.2-3.5-3.2-3.2
		c-2.7,0.4-1.6,2.9-1.8,4.5c-0.8,5.8-1.4,11.6-2.3,18.6c-1.9-3.5-3.3-5.9-4.6-8.4c-3.1-6.2-7.3-11.6-11.3-17.2
		c-0.8-1.1-2-2.6-3.4-1.6c-1.9,1.4,0.2,2.4,0.9,3.3c7.6,9.8,13.2,20.8,18.3,31.9c0.7,1.4,2.5,2.8,1.2,4.8
		c-10.6-6.7-24.8-8.8-31.3-4.2c7.8,2,11.7,8.4,16.7,13.5c6.4,6.7,13.2,12.5,22.9,13.5c2.7,0.3,3.2,2.1,3.9,4c3,7.4-0.5,14.5-0.3,23
		c-2.8-3.8-4.6-6.4-6.6-8.8c-3.3-3.8-7.4-6.2-12.5-6.6c-4.3-0.4-6,1.2-5.1,5.7c1.6,7.9,9.4,15.9,17.6,16c5.3,0.1,5.3,2.3,4.8,6.2
		c-1.2,8.6-2.3,17.2-3.2,25.8c-0.9,8.4-1.8,16.9-0.8,25.4c2.1-2.3,2.4-5.1,2.7-7.8c1.9-14.4,4.1-28.8,5.6-43.2
		c0.5-4.6,3.3-4.1,6.1-4.9c3.4-1,4.1,1.3,5,3.6c0.9,2.7,1.7,5.4,3,7.9c2.7,5,2.4,9.8,0.6,15.1c-2.6,7.8-4.6,15.9-6.7,23.9
		c-0.8,3.3-1.4,6.8,0.8,10.1c2.9-11.8,6.1-23.3,10.4-35.7c4.6,10.9,8.7,20.9,13.2,31.5c1.4-2.7,0.4-4.1-0.1-5.6
		c-2.6-9.8-6.7-19-10.2-28.5c-2.3-6.2,0.4-12.2,6.2-14.6c2-0.8,5-1.6,4-4.2c-1-2.6-3.5-0.3-5.3-0.3c-0.3,0-0.6-0.3-0.9-0.5
		c0.2-5.9,2.6-9.9,8.9-10.8c1.5-0.2,3.1-1,4.4-1.8c1.2-0.7,2.3-1.9,1.2-3.5c-0.8-1.2-2.1-1.1-3.2-0.7c-2.1,0.8-4.3,1.7-6.7,2.6
		c1.7-9.7,1.7-9.7,9.8-11.3c1.9-0.4,3.6-1.3,3.4-3.5c-0.2-2.6-2.2-2.4-4.1-2.1c-1.1,0.2-2.3,0.8-3.8-0.4c1.6-2.6,0-7.4,5.7-7.3
		c2.5,0,6.3,0.5,6.2-3c-0.1-3.3-4-1.3-6.1-2c-0.3-0.1-0.6-0.5-0.8-0.7c0.7-4,1.9-7,6.8-7.1c2,0,5.1-0.8,4.6-3.7
		c-0.5-2.9-3.2-1.4-5-1.2c-0.3,0-0.7-0.3-1.1-0.4c-0.1-4.8,4.9-6.7,6.3-10.6C121.7,103.3,125.5,100,121.7,98.2z M95.6,104.1
		c-4.5,5.8-9.7,9.2-17.2,9.9C82.2,105.9,87.1,103.1,95.6,104.1z M102.7,68C99,76.5,91.5,79.7,84.1,83.6
		C85.7,74.9,93.1,68.6,102.7,68z M96.6,4.1c3,12.2,1.9,17.4-5.3,23.9C90.7,19.4,91.8,12,96.6,4.1z M106.8,44.4
		c-4.5,8.4-12.7,9.5-20.1,12.6C88.3,49.5,95.6,44.9,106.8,44.4z M73.3,30.1c6.2,5.3,10.6,11.4,9.9,21.7
		C76.5,44.9,74.2,37.8,73.3,30.1z M73.9,73.6c-4.4-3.4-7.2-7.9-9.2-13.2c4.8,2.6,8.6,6.4,12.1,10.5c0.8,0.9,2.1,2.4,0.8,3.6
		C76.2,75.8,75,74.4,73.9,73.6z M90.6,131.4c-4.1,7.7-10.7,8-17.3,8.4C77.2,134,82.5,130.9,90.6,131.4z M57.3,95.1
		c1.8,5.7,2.4,11.5,1.6,17.4C55.8,106.9,57.5,100.9,57.3,95.1z M34.9,110.9c11.7-0.5,23.6,7.5,25.2,16.2
		C51.8,121.8,43.6,116.5,34.9,110.9z M43.3,120.9c-0.2-0.2-0.5-0.3-0.7-0.5C43.4,119.9,43.5,120.3,43.3,120.9z M43.5,121.1
		c6.8,1.7,11.9,6.4,17.5,10.2C53.9,130.2,48,126.9,43.5,121.1z M62.2,117.1c0.1,0.3,0.3,0.6,0.4,0.9C61.8,118,62.1,117.5,62.2,117.1
		z M62.1,116.4c0.2-8.5-0.7-16.9-1.1-25.4C64.2,99.3,65.9,107.7,62.1,116.4z M45.1,152.1c7-0.5,12.1,3.6,16.3,13
		C54,165.7,47.5,160.5,45.1,152.1z M71.8,155.6c0.3,0.4,0.5,0.8,0.9,1.4c-0.4,0.4-0.7,0.8-1,1.2c-0.2-0.4-0.7-0.9-0.6-1.2
		C71.1,156.4,71.5,156,71.8,155.6z M75.8,165.2c-1,2.8-3.5,2-5.8,2.3c0.3-3.1,1.9-4.7,4.4-5.2C74.6,162.2,76,164.4,75.8,165.2z
		 M79.5,163.8c-0.8-1-1.4-2.5-1.5-3.8c-0.2-1.8,1.6-2,2.9-2.4c2.4-0.7,4.9-0.7,8-0.3c-1.8,2.8-3.6,4.5-5.7,5.8
		C82,163.8,80.8,165.3,79.5,163.8z M91.5,169c-8.3,1.2-4.6,6-3.3,10.3c0.3,0.8-0.1,2-1.9,3.1c-1.5-4.1-3-8.1-4.6-12
		c-0.9-2.3,1-2.7,2.2-3.6c4.3-2.8,7.6-6.4,9.8-11.1C95.7,160.6,92.2,164.6,91.5,169z"/>
	<path d="M31.1,39.6c-3.7,1.7-4.7,4.5-4.7,8.1C29.2,46,31.5,43.9,31.1,39.6z"/>
	<path d="M6.7,63.3c-1.2-0.7-2.1-0.3-3,0.1c-1.6,0.7-3.3,1.5-3.7,3.5c-0.1,0.4,0.6,1.2,0.9,1.2c1.8,0.1,2.5-1.7,3.9-2.4
		C5.6,65.3,6.6,64.8,6.7,63.3z"/>
	<path d="M12.4,47.7c0.1-0.1,0.1-0.3,0.4-1.1c-2.7-0.7-5.1-2-7.5-0.3c-0.3,0.2-0.3,1.4,0,1.5C7.6,49.4,10,49,12.4,47.7z"/>
	<path d="M19.2,44.1c0.1-3.7-1.1-5.6-3.7-6.4c-0.3-0.1-1.3,0.7-1.2,0.9C14.7,41.2,16.6,42.5,19.2,44.1z"/>
	<path d="M27.3,82.4c1.4-4.1,1.4-4.1-1.2-8C25,77.7,25.4,79.9,27.3,82.4z"/>
	<path d="M36.5,57.7c-0.4,1.2,0.7,1.5,1.9,1.6c1.5-0.4,3.7-0.3,4-2.5c0.2-1.2-1.1-1.4-2.1-1.4C38.7,55.6,37.1,56.1,36.5,57.7z"/>
	<path d="M37.8,44.4c-3.5,0.2-5.2,1.2-5.5,4.9C35.3,48.7,36.7,47.2,37.8,44.4z"/>
	<path d="M17,55.1c-0.3-1.2-1.1-1.7-2.2-1.6c-1.4,0.1-2.9,0.3-3,2.2c0,1.1,1,1.2,1.7,1.2C14.9,56.9,16.4,56.9,17,55.1z"/>
	<path d="M17.6,69.3c-0.1,0.3,0.6,1.2,0.9,1.2c2.4-0.1,3.5-1.7,4.6-4.5C20.4,66.6,18.3,66.9,17.6,69.3z"/>
	<path d="M2.5,57.1c1.6,1.1,2.9,0.5,4.1-1c-1.3-1.6-2.8-2.1-4.4-0.5C1.6,56.2,2.1,56.8,2.5,57.1z"/>
	<path d="M35.6,64.1c-0.2,0-1,0.8-0.9,1.1c0.5,2.4,2.3,3.3,5.3,3.9C39.1,66.2,37.9,64.6,35.6,64.1z"/>
	<path d="M4.4,75.7c3.1,0.4,4.3-1.3,6.3-4.6C7.2,72.4,5.1,72.8,4.4,75.7z"/>
	<path d="M29.6,67.3c-1.4,2.5-1.5,4.3,0.3,7C31.5,71.6,31.9,69.8,29.6,67.3z"/>
	<path d="M17.5,81c1.7-2.5,2.2-4.2,0-6.5C15.9,76.8,16.1,78.5,17.5,81z"/>
	<path d="M16.5,62.8c-0.5-1.1-1.5-1.2-2.5-1c-1,0.2-1.4,1-1,1.7c0.3,0.5,1.4,0.7,2.1,0.7C15.7,64.2,16.7,64,16.5,62.8z"/>
	<path d="M23.5,41.8c1.5-1.2,1.8-2.5,0.5-3.9c-0.2-0.2-0.9-0.2-1,0C21.9,39.4,22,40.7,23.5,41.8z"/>
	<path d="M35.2,52.4c0,0.3,0.7,1,1.1,1c1.1,0.1,1.8-0.5,2-1.6c0.1-0.8-0.5-1-1.1-1.1C36.2,50.8,35.3,51.4,35.2,52.4z"/>
	<path d="M21.3,51.3c1,0.2,1.2-0.6,1.4-1.1c0.1-1.1-0.1-1.8-1-2c-1-0.2-1.3,0.5-1.4,1.3C20.3,50.3,20.4,51.1,21.3,51.3z"/>
	<path d="M27.2,61.6c0.5-0.1,0.9-0.5,1.3-0.7c-0.1-1.2-0.9-1.7-1.6-1.8c-0.8-0.1-1.7,0.1-1.5,1.3C25.6,61.4,26.4,61.7,27.2,61.6z"/>
	<path d="M31.1,54.9c-0.2-1-0.7-1.8-1.9-1.9c-0.6,0.2-1.2,0.3-1,1.2c0.3,1,0.9,1.8,2,1.9C31,56.1,31.2,55.4,31.1,54.9z"/>
</g>
</svg>
